<?xml version="1.0" encoding="UTF-8" standalone="no"?>
<!DOCTYPE svg PUBLIC "-//W3C//DTD SVG 1.1//EN"
 "http://www.w3.org/Graphics/SVG/1.1/DTD/svg11.dtd">
<!-- Generated by graphviz version 2.47.1 (20210515.0534)
 -->
<!-- Title: Kadath::FUKA_Solvers::ns_3d_xcts_solver&lt; eos_t, config_t, space_t &gt; Pages: 1 -->
<svg width="151pt" height="354pt"
 viewBox="0.00 0.00 151.00 354.00" xmlns="http://www.w3.org/2000/svg" xmlns:xlink="http://www.w3.org/1999/xlink">
<g id="graph0" class="graph" transform="scale(1 1) rotate(0) translate(4 350)">
<title>Kadath::FUKA_Solvers::ns_3d_xcts_solver&lt; eos_t, config_t, space_t &gt;</title>
<!-- Node1 -->
<g id="node1" class="node">
<title>Node1</title>
<g id="a_node1"><a xlink:title=" ">
<polygon fill="#bfbfbf" stroke="black" points="6.5,-0.5 6.5,-41.5 136.5,-41.5 136.5,-0.5 6.5,-0.5"/>
<text text-anchor="start" x="14.5" y="-29.5" font-family="Helvetica,sans-Serif" font-size="10.00">Kadath::FUKA_Solvers</text>
<text text-anchor="start" x="14.5" y="-18.5" font-family="Helvetica,sans-Serif" font-size="10.00">::ns_3d_xcts_solver&lt;</text>
<text text-anchor="middle" x="71.5" y="-7.5" font-family="Helvetica,sans-Serif" font-size="10.00"> eos_t, config_t, space_t &gt;</text>
</a>
</g>
</g>
<!-- Node2 -->
<g id="node2" class="node">
<title>Node2</title>
<g id="a_node2"><a xlink:href="classKadath_1_1FUKA__Solvers_1_1XCTS__Solver.html" target="_top" xlink:title=" ">
<polygon fill="none" stroke="black" points="0,-79.5 0,-120.5 143,-120.5 143,-79.5 0,-79.5"/>
<text text-anchor="start" x="8" y="-108.5" font-family="Helvetica,sans-Serif" font-size="10.00">Kadath::FUKA_Solvers</text>
<text text-anchor="start" x="8" y="-97.5" font-family="Helvetica,sans-Serif" font-size="10.00">::XCTS_Solver&lt; config</text>
<text text-anchor="middle" x="71.5" y="-86.5" font-family="Helvetica,sans-Serif" font-size="10.00">_t, Space_spheric_adapted &gt;</text>
</a>
</g>
</g>
<!-- Node2&#45;&gt;Node1 -->
<g id="edge1" class="edge">
<title>Node2&#45;&gt;Node1</title>
<path fill="none" stroke="midnightblue" d="M71.5,-68.91C71.5,-59.79 71.5,-50.02 71.5,-41.76"/>
<polygon fill="midnightblue" stroke="midnightblue" points="68,-69.17 71.5,-79.17 75,-69.17 68,-69.17"/>
</g>
<!-- Node3 -->
<g id="node3" class="node">
<title>Node3</title>
<g id="a_node3"><a xlink:href="classKadath_1_1FUKA__Solvers_1_1Solver.html" target="_top" xlink:title="Solver base for FUKA solvers.">
<polygon fill="none" stroke="black" points="2,-158.5 2,-188.5 141,-188.5 141,-158.5 2,-158.5"/>
<text text-anchor="start" x="10" y="-176.5" font-family="Helvetica,sans-Serif" font-size="10.00">Kadath::FUKA_Solvers</text>
<text text-anchor="middle" x="71.5" y="-165.5" font-family="Helvetica,sans-Serif" font-size="10.00">::Solver&lt; config_t, space_t &gt;</text>
</a>
</g>
</g>
<!-- Node3&#45;&gt;Node2 -->
<g id="edge2" class="edge">
<title>Node3&#45;&gt;Node2</title>
<path fill="none" stroke="midnightblue" d="M71.5,-148.1C71.5,-139.1 71.5,-129.02 71.5,-120.51"/>
<polygon fill="midnightblue" stroke="midnightblue" points="68,-148.37 71.5,-158.37 75,-148.37 68,-148.37"/>
</g>
<!-- Node4 -->
<g id="node4" class="node">
<title>Node4</title>
<g id="a_node4"><a xlink:href="classKadath_1_1FUKA__Config_1_1kadath__config__boost.html" target="_top" xlink:title=" ">
<polygon fill="none" stroke="black" points="16,-236.5 16,-277.5 127,-277.5 127,-236.5 16,-236.5"/>
<text text-anchor="start" x="24" y="-265.5" font-family="Helvetica,sans-Serif" font-size="10.00">Kadath::FUKA_Config</text>
<text text-anchor="start" x="24" y="-254.5" font-family="Helvetica,sans-Serif" font-size="10.00">::kadath_config_boost</text>
<text text-anchor="middle" x="71.5" y="-243.5" font-family="Helvetica,sans-Serif" font-size="10.00">&lt; ParamC &gt;</text>
</a>
</g>
</g>
<!-- Node4&#45;&gt;Node3 -->
<g id="edge3" class="edge">
<title>Node4&#45;&gt;Node3</title>
<path fill="none" stroke="#9a32cd" stroke-dasharray="5,2" d="M71.5,-226.03C71.5,-213.26 71.5,-198.97 71.5,-188.68"/>
<polygon fill="#9a32cd" stroke="#9a32cd" points="68,-226.27 71.5,-236.27 75,-226.27 68,-226.27"/>
<text text-anchor="middle" x="88.5" y="-210" font-family="Helvetica,sans-Serif" font-size="10.00"> bconfig</text>
</g>
<!-- Node5 -->
<g id="node5" class="node">
<title>Node5</title>
<g id="a_node5"><a xlink:href="classKadath_1_1FUKA__Config_1_1configurator__base.html" target="_top" xlink:title=" ">
<polygon fill="none" stroke="black" points="16,-315.5 16,-345.5 127,-345.5 127,-315.5 16,-315.5"/>
<text text-anchor="start" x="24" y="-333.5" font-family="Helvetica,sans-Serif" font-size="10.00">Kadath::FUKA_Config</text>
<text text-anchor="middle" x="71.5" y="-322.5" font-family="Helvetica,sans-Serif" font-size="10.00">::configurator_base</text>
</a>
</g>
</g>
<!-- Node5&#45;&gt;Node4 -->
<g id="edge4" class="edge">
<title>Node5&#45;&gt;Node4</title>
<path fill="none" stroke="midnightblue" d="M71.5,-305.1C71.5,-296.1 71.5,-286.02 71.5,-277.51"/>
<polygon fill="midnightblue" stroke="midnightblue" points="68,-305.37 71.5,-315.37 75,-305.37 68,-305.37"/>
</g>
</g>
</svg>
