<?xml version="1.0" encoding="UTF-8" standalone="no"?>
<!DOCTYPE svg PUBLIC "-//W3C//DTD SVG 1.1//EN"
 "http://www.w3.org/Graphics/SVG/1.1/DTD/svg11.dtd">
<!-- Generated by graphviz version 2.47.1 (20210515.0534)
 -->
<!-- Title: Kadath::Metric_conf_factor Pages: 1 -->
<svg width="2097pt" height="878pt"
 viewBox="0.00 0.00 2097.00 878.00" xmlns="http://www.w3.org/2000/svg" xmlns:xlink="http://www.w3.org/1999/xlink">
<g id="graph0" class="graph" transform="scale(1 1) rotate(0) translate(4 874)">
<title>Kadath::Metric_conf_factor</title>
<!-- Node1 -->
<g id="node1" class="node">
<title>Node1</title>
<g id="a_node1"><a xlink:title=" ">
<polygon fill="#bfbfbf" stroke="black" points="1836,-265 1836,-295 1939,-295 1939,-265 1836,-265"/>
<text text-anchor="start" x="1844" y="-283" font-family="Helvetica,sans-Serif" font-size="10.00">Kadath::Metric_conf</text>
<text text-anchor="middle" x="1887.5" y="-272" font-family="Helvetica,sans-Serif" font-size="10.00">_factor</text>
</a>
</g>
</g>
<!-- Node2 -->
<g id="node2" class="node">
<title>Node2</title>
<g id="a_node2"><a xlink:href="classKadath_1_1Metric.html" target="_top" xlink:title=" ">
<polygon fill="none" stroke="black" points="1464,-492.5 1464,-511.5 1543,-511.5 1543,-492.5 1464,-492.5"/>
<text text-anchor="middle" x="1503.5" y="-499.5" font-family="Helvetica,sans-Serif" font-size="10.00">Kadath::Metric</text>
</a>
</g>
</g>
<!-- Node2&#45;&gt;Node1 -->
<g id="edge1" class="edge">
<title>Node2&#45;&gt;Node1</title>
<path fill="none" stroke="midnightblue" d="M1524.7,-486.2C1553.32,-464.38 1607.88,-424.8 1659,-399 1727.01,-364.68 1754.28,-376.75 1818,-335 1836.5,-322.88 1856.02,-306.85 1869.47,-295.22"/>
<polygon fill="midnightblue" stroke="midnightblue" points="1522.48,-483.5 1516.69,-492.37 1526.75,-489.05 1522.48,-483.5"/>
</g>
<!-- Node11 -->
<g id="node11" class="node">
<title>Node11</title>
<g id="a_node11"><a xlink:href="classKadath_1_1System__of__eqs.html" target="_top" xlink:title=" ">
<polygon fill="none" stroke="black" points="1659,-519.5 1659,-538.5 1778,-538.5 1778,-519.5 1659,-519.5"/>
<text text-anchor="middle" x="1718.5" y="-526.5" font-family="Helvetica,sans-Serif" font-size="10.00">Kadath::System_of_eqs</text>
</a>
</g>
</g>
<!-- Node2&#45;&gt;Node11 -->
<g id="edge55" class="edge">
<title>Node2&#45;&gt;Node11</title>
<path fill="none" stroke="#9a32cd" stroke-dasharray="5,2" d="M1553.31,-508.19C1584.67,-512.16 1625.58,-517.35 1658.72,-521.55"/>
<polygon fill="#9a32cd" stroke="#9a32cd" points="1553.43,-504.67 1543.07,-506.89 1552.55,-511.62 1553.43,-504.67"/>
<text text-anchor="middle" x="1601" y="-521" font-family="Helvetica,sans-Serif" font-size="10.00"> met</text>
</g>
<!-- Node25 -->
<g id="node25" class="node">
<title>Node25</title>
<g id="a_node25"><a xlink:href="classKadath_1_1Metric__flat.html" target="_top" xlink:title=" ">
<polygon fill="none" stroke="black" points="1670,-327.5 1670,-346.5 1767,-346.5 1767,-327.5 1670,-327.5"/>
<text text-anchor="middle" x="1718.5" y="-334.5" font-family="Helvetica,sans-Serif" font-size="10.00">Kadath::Metric_flat</text>
</a>
</g>
</g>
<!-- Node2&#45;&gt;Node25 -->
<g id="edge68" class="edge">
<title>Node2&#45;&gt;Node25</title>
<path fill="none" stroke="midnightblue" d="M1516.65,-483.76C1524.55,-471.59 1534.86,-455.11 1543,-440 1552.05,-423.19 1547.21,-414.2 1561,-401 1591.22,-372.08 1636.29,-355.53 1670.31,-346.53"/>
<polygon fill="midnightblue" stroke="midnightblue" points="1513.72,-481.85 1511.16,-492.13 1519.57,-485.69 1513.72,-481.85"/>
</g>
<!-- Node3 -->
<g id="node3" class="node">
<title>Node3</title>
<g id="a_node3"><a xlink:href="structKadath_1_1MemoryMappable.html" target="_top" xlink:title=" ">
<polygon fill="none" stroke="black" points="0,-405.5 0,-424.5 128,-424.5 128,-405.5 0,-405.5"/>
<text text-anchor="middle" x="64" y="-412.5" font-family="Helvetica,sans-Serif" font-size="10.00">Kadath::MemoryMappable</text>
</a>
</g>
</g>
<!-- Node3&#45;&gt;Node2 -->
<g id="edge2" class="edge">
<title>Node3&#45;&gt;Node2</title>
<path fill="none" stroke="midnightblue" d="M79.02,-432.94C112.3,-473.79 200.9,-572.73 302,-605 448.61,-651.79 840.6,-613 994.5,-613 994.5,-613 994.5,-613 1273,-613 1351.45,-613 1381.93,-623.26 1446,-578 1458.7,-569.03 1454.98,-560.67 1464,-548 1473.42,-534.76 1485.66,-520.58 1493.78,-511.51"/>
<polygon fill="midnightblue" stroke="midnightblue" points="81.59,-430.54 72.6,-424.93 76.12,-434.92 81.59,-430.54"/>
</g>
<!-- Node4 -->
<g id="node4" class="node">
<title>Node4</title>
<g id="a_node4"><a xlink:href="classKadath_1_1Space.html" target="_top" xlink:title=" ">
<polygon fill="none" stroke="black" points="674.5,-268.5 674.5,-287.5 754.5,-287.5 754.5,-268.5 674.5,-268.5"/>
<text text-anchor="middle" x="714.5" y="-275.5" font-family="Helvetica,sans-Serif" font-size="10.00">Kadath::Space</text>
</a>
</g>
</g>
<!-- Node3&#45;&gt;Node4 -->
<g id="edge4" class="edge">
<title>Node3&#45;&gt;Node4</title>
<path fill="none" stroke="midnightblue" d="M87.85,-399.7C103.92,-389.09 126.04,-374.81 146,-363 206.08,-327.45 230.71,-333.09 284,-288 293.91,-279.62 290.33,-270.69 302,-265 407.63,-213.53 447.96,-281.55 565,-292 600.41,-295.16 609.62,-295.58 645,-292 654.54,-291.04 664.72,-289.33 674.23,-287.44"/>
<polygon fill="midnightblue" stroke="midnightblue" points="85.54,-397.03 79.14,-405.48 89.41,-402.86 85.54,-397.03"/>
</g>
<!-- Node5 -->
<g id="node5" class="node">
<title>Node5</title>
<g id="a_node5"><a xlink:href="classKadath_1_1Domain.html" target="_top" xlink:title=" ">
<polygon fill="none" stroke="black" points="447.5,-178.5 447.5,-197.5 532.5,-197.5 532.5,-178.5 447.5,-178.5"/>
<text text-anchor="middle" x="490" y="-185.5" font-family="Helvetica,sans-Serif" font-size="10.00">Kadath::Domain</text>
</a>
</g>
</g>
<!-- Node3&#45;&gt;Node5 -->
<g id="edge6" class="edge">
<title>Node3&#45;&gt;Node5</title>
<path fill="none" stroke="midnightblue" d="M70.52,-395.6C81.83,-359.65 111.2,-282.87 165,-245 251.17,-184.35 381.42,-181.51 447.46,-184.66"/>
<polygon fill="midnightblue" stroke="midnightblue" points="67.12,-394.78 67.59,-405.36 73.82,-396.8 67.12,-394.78"/>
</g>
<!-- Node6 -->
<g id="node6" class="node">
<title>Node6</title>
<g id="a_node6"><a xlink:href="classKadath_1_1Dim__array.html" target="_top" xlink:title=" ">
<polygon fill="none" stroke="black" points="177,-481.5 177,-500.5 272,-500.5 272,-481.5 177,-481.5"/>
<text text-anchor="middle" x="224.5" y="-488.5" font-family="Helvetica,sans-Serif" font-size="10.00">Kadath::Dim_array</text>
</a>
</g>
</g>
<!-- Node3&#45;&gt;Node6 -->
<g id="edge8" class="edge">
<title>Node3&#45;&gt;Node6</title>
<path fill="none" stroke="midnightblue" d="M88.39,-430.16C108.22,-442.55 137.7,-459.94 165,-472 172.91,-475.5 181.67,-478.68 189.96,-481.4"/>
<polygon fill="midnightblue" stroke="midnightblue" points="90.07,-427.07 79.75,-424.68 86.33,-432.99 90.07,-427.07"/>
</g>
<!-- Node7 -->
<g id="node7" class="node">
<title>Node7</title>
<g id="a_node7"><a xlink:href="classKadath_1_1Array.html" target="_top" xlink:title=" ">
<polygon fill="none" stroke="black" points="165,-126.5 165,-145.5 284,-145.5 284,-126.5 165,-126.5"/>
<text text-anchor="middle" x="224.5" y="-133.5" font-family="Helvetica,sans-Serif" font-size="10.00">Kadath::Array&lt; double &gt;</text>
</a>
</g>
</g>
<!-- Node3&#45;&gt;Node7 -->
<g id="edge10" class="edge">
<title>Node3&#45;&gt;Node7</title>
<path fill="none" stroke="midnightblue" d="M66.54,-395.34C71.02,-350.74 87.66,-240.57 146,-174 157.65,-160.7 175.03,-151.59 190.38,-145.63"/>
<polygon fill="midnightblue" stroke="midnightblue" points="63.05,-395.16 65.63,-405.43 70.02,-395.79 63.05,-395.16"/>
</g>
<!-- Node8 -->
<g id="node8" class="node">
<title>Node8</title>
<g id="a_node8"><a xlink:href="classKadath_1_1Val__domain.html" target="_top" xlink:title=" ">
<polygon fill="none" stroke="black" points="663,-121.5 663,-140.5 766,-140.5 766,-121.5 663,-121.5"/>
<text text-anchor="middle" x="714.5" y="-128.5" font-family="Helvetica,sans-Serif" font-size="10.00">Kadath::Val_domain</text>
</a>
</g>
</g>
<!-- Node3&#45;&gt;Node8 -->
<g id="edge12" class="edge">
<title>Node3&#45;&gt;Node8</title>
<path fill="none" stroke="midnightblue" d="M64.85,-395.46C65.59,-341.17 75.85,-187.84 165,-117 298.17,-11.19 376.92,-93.13 547,-94 590.56,-94.22 602.76,-84.35 645,-95 665.58,-100.19 686.85,-112.69 700.12,-121.49"/>
<polygon fill="midnightblue" stroke="midnightblue" points="61.35,-395.47 64.81,-405.48 68.35,-395.49 61.35,-395.47"/>
</g>
<!-- Node9 -->
<g id="node9" class="node">
<title>Node9</title>
<g id="a_node9"><a xlink:href="classKadath_1_1Base__spectral.html" target="_top" xlink:title=" ">
<polygon fill="none" stroke="black" points="433,-216.5 433,-235.5 547,-235.5 547,-216.5 433,-216.5"/>
<text text-anchor="middle" x="490" y="-223.5" font-family="Helvetica,sans-Serif" font-size="10.00">Kadath::Base_spectral</text>
</a>
</g>
</g>
<!-- Node3&#45;&gt;Node9 -->
<g id="edge16" class="edge">
<title>Node3&#45;&gt;Node9</title>
<path fill="none" stroke="midnightblue" d="M80.85,-398.08C116.34,-361.48 206.6,-275.41 302,-240 343.97,-224.42 394.8,-221.54 432.87,-222.21"/>
<polygon fill="midnightblue" stroke="midnightblue" points="78.14,-395.84 73.76,-405.49 83.2,-400.68 78.14,-395.84"/>
</g>
<!-- Node10 -->
<g id="node10" class="node">
<title>Node10</title>
<g id="a_node10"><a xlink:href="classKadath_1_1Array.html" target="_top" xlink:title=" ">
<polygon fill="none" stroke="black" points="174,-443.5 174,-462.5 275,-462.5 275,-443.5 174,-443.5"/>
<text text-anchor="middle" x="224.5" y="-450.5" font-family="Helvetica,sans-Serif" font-size="10.00">Kadath::Array&lt; int &gt;</text>
</a>
</g>
</g>
<!-- Node3&#45;&gt;Node10 -->
<g id="edge18" class="edge">
<title>Node3&#45;&gt;Node10</title>
<path fill="none" stroke="midnightblue" d="M114.92,-426.97C137.13,-432.29 162.92,-438.48 183.79,-443.48"/>
<polygon fill="midnightblue" stroke="midnightblue" points="115.54,-423.52 105,-424.59 113.9,-430.32 115.54,-423.52"/>
</g>
<!-- Node12 -->
<g id="node12" class="node">
<title>Node12</title>
<g id="a_node12"><a xlink:href="classKadath_1_1Equation.html" target="_top" xlink:title=" ">
<polygon fill="none" stroke="black" points="2000,-628.5 2000,-647.5 2089,-647.5 2089,-628.5 2000,-628.5"/>
<text text-anchor="middle" x="2044.5" y="-635.5" font-family="Helvetica,sans-Serif" font-size="10.00">Kadath::Equation</text>
</a>
</g>
</g>
<!-- Node3&#45;&gt;Node12 -->
<g id="edge22" class="edge">
<title>Node3&#45;&gt;Node12</title>
<path fill="none" stroke="midnightblue" d="M67.43,-434.61C78.75,-521.81 129.84,-870 223.5,-870 223.5,-870 223.5,-870 1888.5,-870 1997.25,-870 2034.46,-691.58 2041.98,-647.67"/>
<polygon fill="midnightblue" stroke="midnightblue" points="70.88,-433.98 66.14,-424.5 63.93,-434.86 70.88,-433.98"/>
</g>
<!-- Node13 -->
<g id="node13" class="node">
<title>Node13</title>
<g id="a_node13"><a xlink:href="classKadath_1_1Ope__eq.html" target="_top" xlink:title=" ">
<polygon fill="none" stroke="black" points="1844.5,-628.5 1844.5,-647.5 1930.5,-647.5 1930.5,-628.5 1844.5,-628.5"/>
<text text-anchor="middle" x="1887.5" y="-635.5" font-family="Helvetica,sans-Serif" font-size="10.00">Kadath::Ope_eq</text>
</a>
</g>
</g>
<!-- Node3&#45;&gt;Node13 -->
<g id="edge25" class="edge">
<title>Node3&#45;&gt;Node13</title>
<path fill="none" stroke="midnightblue" d="M65.74,-434.73C68.82,-491.27 84.59,-656.43 165,-759 186.46,-786.38 188.71,-811 223.5,-811 223.5,-811 223.5,-811 799.5,-811 968.78,-811 1010.72,-794 1180,-794 1180,-794 1180,-794 1719.5,-794 1805.59,-794 1865.73,-681.91 1882.05,-647.76"/>
<polygon fill="midnightblue" stroke="midnightblue" points="69.23,-434.47 65.27,-424.64 62.24,-434.79 69.23,-434.47"/>
</g>
<!-- Node14 -->
<g id="node14" class="node">
<title>Node14</title>
<g id="a_node14"><a xlink:href="classKadath_1_1Eq__int.html" target="_top" xlink:title=" ">
<polygon fill="none" stroke="black" points="2005,-505.5 2005,-524.5 2084,-524.5 2084,-505.5 2005,-505.5"/>
<text text-anchor="middle" x="2044.5" y="-512.5" font-family="Helvetica,sans-Serif" font-size="10.00">Kadath::Eq_int</text>
</a>
</g>
</g>
<!-- Node3&#45;&gt;Node14 -->
<g id="edge30" class="edge">
<title>Node3&#45;&gt;Node14</title>
<path fill="none" stroke="midnightblue" d="M68.1,-395.05C81.54,-312.24 137.87,0 223.5,0 223.5,0 223.5,0 1888.5,0 2019.28,0 1955.32,-150.97 1982,-279 1991.33,-323.77 1977.29,-444.3 2000,-484 2005.25,-493.18 2014.45,-500.33 2023.04,-505.44"/>
<polygon fill="midnightblue" stroke="midnightblue" points="64.61,-394.72 66.5,-405.15 71.52,-395.83 64.61,-394.72"/>
</g>
<!-- Node15 -->
<g id="node15" class="node">
<title>Node15</title>
<g id="a_node15"><a xlink:href="classKadath_1_1Index.html" target="_top" xlink:title=" ">
<polygon fill="none" stroke="black" points="452.5,-647.5 452.5,-666.5 527.5,-666.5 527.5,-647.5 452.5,-647.5"/>
<text text-anchor="middle" x="490" y="-654.5" font-family="Helvetica,sans-Serif" font-size="10.00">Kadath::Index</text>
</a>
</g>
</g>
<!-- Node3&#45;&gt;Node15 -->
<g id="edge34" class="edge">
<title>Node3&#45;&gt;Node15</title>
<path fill="none" stroke="midnightblue" d="M65.67,-435.03C68.33,-479.17 81.47,-584.71 146,-633 193.49,-668.54 373.98,-663.36 452.34,-659.27"/>
<polygon fill="midnightblue" stroke="midnightblue" points="69.16,-434.8 65.18,-424.98 62.17,-435.14 69.16,-434.8"/>
</g>
<!-- Node16 -->
<g id="node16" class="node">
<title>Node16</title>
<g id="a_node16"><a xlink:href="classKadath_1_1Param.html" target="_top" xlink:title=" ">
<polygon fill="none" stroke="black" points="565,-724.5 565,-743.5 645,-743.5 645,-724.5 565,-724.5"/>
<text text-anchor="middle" x="605" y="-731.5" font-family="Helvetica,sans-Serif" font-size="10.00">Kadath::Param</text>
</a>
</g>
</g>
<!-- Node3&#45;&gt;Node16 -->
<g id="edge38" class="edge">
<title>Node3&#45;&gt;Node16</title>
<path fill="none" stroke="midnightblue" d="M67.45,-434.68C75.35,-494.74 102.24,-673.74 146,-709 273.27,-811.55 490.87,-765.73 572.14,-743.53"/>
<polygon fill="midnightblue" stroke="midnightblue" points="70.9,-434.09 66.16,-424.62 63.96,-434.98 70.9,-434.09"/>
</g>
<!-- Node17 -->
<g id="node17" class="node">
<title>Node17</title>
<g id="a_node17"><a xlink:href="classKadath_1_1Term__eq.html" target="_top" xlink:title=" ">
<polygon fill="none" stroke="black" points="1227,-479.5 1227,-498.5 1317,-498.5 1317,-479.5 1227,-479.5"/>
<text text-anchor="middle" x="1272" y="-486.5" font-family="Helvetica,sans-Serif" font-size="10.00">Kadath::Term_eq</text>
</a>
</g>
</g>
<!-- Node3&#45;&gt;Node17 -->
<g id="edge41" class="edge">
<title>Node3&#45;&gt;Node17</title>
<path fill="none" stroke="midnightblue" d="M68.69,-434.4C77.23,-475.94 101.12,-575.51 146,-647 183.46,-706.66 231.61,-672.42 302,-675 410.82,-678.99 439.42,-692.83 547,-676 656.29,-658.91 677.31,-629.21 784,-600 945.63,-555.75 1140.75,-515.06 1226.7,-497.76"/>
<polygon fill="midnightblue" stroke="midnightblue" points="72.11,-433.63 66.73,-424.51 65.24,-435 72.11,-433.63"/>
</g>
<!-- Node18 -->
<g id="node18" class="node">
<title>Node18</title>
<g id="a_node18"><a xlink:href="classKadath_1_1Tensor.html" target="_top" xlink:title=" ">
<polygon fill="none" stroke="black" points="1053,-325.5 1053,-344.5 1135,-344.5 1135,-325.5 1053,-325.5"/>
<text text-anchor="middle" x="1094" y="-332.5" font-family="Helvetica,sans-Serif" font-size="10.00">Kadath::Tensor</text>
</a>
</g>
</g>
<!-- Node3&#45;&gt;Node18 -->
<g id="edge43" class="edge">
<title>Node3&#45;&gt;Node18</title>
<path fill="none" stroke="midnightblue" d="M138.04,-410.57C288.03,-401.35 641.58,-378.93 938,-355 981.16,-351.52 992.13,-352.04 1035,-346 1040.78,-345.18 1046.87,-344.19 1052.83,-343.13"/>
<polygon fill="midnightblue" stroke="midnightblue" points="137.8,-407.08 128.03,-411.19 138.23,-414.07 137.8,-407.08"/>
</g>
<!-- Node20 -->
<g id="node20" class="node">
<title>Node20</title>
<g id="a_node20"><a xlink:href="classKadath_1_1Base__tensor.html" target="_top" xlink:title=" ">
<polygon fill="none" stroke="black" points="831,-418.5 831,-437.5 938,-437.5 938,-418.5 831,-418.5"/>
<text text-anchor="middle" x="884.5" y="-425.5" font-family="Helvetica,sans-Serif" font-size="10.00">Kadath::Base_tensor</text>
</a>
</g>
</g>
<!-- Node3&#45;&gt;Node20 -->
<g id="edge50" class="edge">
<title>Node3&#45;&gt;Node20</title>
<path fill="none" stroke="midnightblue" d="M138.19,-415.74C272.11,-417.18 565.6,-420.67 813,-426 818.75,-426.12 824.77,-426.27 830.76,-426.43"/>
<polygon fill="midnightblue" stroke="midnightblue" points="138.09,-412.24 128.05,-415.64 138.01,-419.24 138.09,-412.24"/>
</g>
<!-- Node21 -->
<g id="node21" class="node">
<title>Node21</title>
<g id="a_node21"><a xlink:href="classKadath_1_1Param__tensor.html" target="_top" xlink:title=" ">
<polygon fill="none" stroke="black" points="302,-345.5 302,-364.5 415,-364.5 415,-345.5 302,-345.5"/>
<text text-anchor="middle" x="358.5" y="-352.5" font-family="Helvetica,sans-Serif" font-size="10.00">Kadath::Param_tensor</text>
</a>
</g>
</g>
<!-- Node3&#45;&gt;Node21 -->
<g id="edge54" class="edge">
<title>Node3&#45;&gt;Node21</title>
<path fill="none" stroke="midnightblue" d="M83.59,-398.91C99.13,-386.56 122.46,-370.39 146,-363 197.01,-346.98 258.36,-346.59 301.81,-349.23"/>
<polygon fill="midnightblue" stroke="midnightblue" points="81.32,-396.25 75.82,-405.31 85.76,-401.66 81.32,-396.25"/>
</g>
<!-- Node4&#45;&gt;Node2 -->
<g id="edge3" class="edge">
<title>Node4&#45;&gt;Node2</title>
<path fill="none" stroke="#9a32cd" stroke-dasharray="5,2" d="M764.55,-269.16C892.73,-249.01 1241.81,-213.57 1446,-381 1482.39,-410.84 1496.6,-469.44 1500.92,-492.43"/>
<polygon fill="#9a32cd" stroke="#9a32cd" points="763.95,-265.71 754.63,-270.75 765.06,-272.62 763.95,-265.71"/>
<text text-anchor="middle" x="1094" y="-264" font-family="Helvetica,sans-Serif" font-size="10.00"> espace</text>
</g>
<!-- Node4&#45;&gt;Node11 -->
<g id="edge32" class="edge">
<title>Node4&#45;&gt;Node11</title>
<path fill="none" stroke="#9a32cd" stroke-dasharray="5,2" d="M755.78,-265.47C857.81,-234.55 1124.32,-159.18 1209,-188 1242.45,-199.38 1303.21,-269.58 1335,-285 1380.78,-307.2 1399.78,-291.72 1446,-313 1542.44,-357.4 1564.14,-377.75 1641,-451 1650.4,-459.95 1650.25,-464.42 1659,-474 1674.42,-490.88 1694.09,-508.7 1706.24,-519.34"/>
<polygon fill="#9a32cd" stroke="#9a32cd" points="754.69,-262.14 746.15,-268.4 756.73,-268.84 754.69,-262.14"/>
<text text-anchor="middle" x="1181" y="-191" font-family="Helvetica,sans-Serif" font-size="10.00"> espace</text>
</g>
<!-- Node4&#45;&gt;Node18 -->
<g id="edge44" class="edge">
<title>Node4&#45;&gt;Node18</title>
<path fill="none" stroke="#9a32cd" stroke-dasharray="5,2" d="M764.6,-283.02C827.54,-289.81 939.9,-303.17 1035,-321 1041.82,-322.28 1049.05,-323.85 1055.99,-325.47"/>
<polygon fill="#9a32cd" stroke="#9a32cd" points="764.88,-279.53 754.56,-281.94 764.13,-286.49 764.88,-279.53"/>
<text text-anchor="middle" x="884.5" y="-308" font-family="Helvetica,sans-Serif" font-size="10.00"> espace</text>
</g>
<!-- Node4&#45;&gt;Node20 -->
<g id="edge51" class="edge">
<title>Node4&#45;&gt;Node20</title>
<path fill="none" stroke="#9a32cd" stroke-dasharray="5,2" d="M739.93,-293.13C748.43,-298.73 757.86,-305.34 766,-312 809.93,-347.94 856.19,-397.68 874.9,-418.37"/>
<polygon fill="#9a32cd" stroke="#9a32cd" points="741.81,-290.17 731.51,-287.69 738.02,-296.06 741.81,-290.17"/>
<text text-anchor="middle" x="798.5" y="-355" font-family="Helvetica,sans-Serif" font-size="10.00"> space</text>
</g>
<!-- Node5&#45;&gt;Node4 -->
<g id="edge5" class="edge">
<title>Node5&#45;&gt;Node4</title>
<path fill="none" stroke="#9a32cd" stroke-dasharray="5,2" d="M541.63,-202.48C543.54,-203.85 545.34,-205.35 547,-207 564.35,-224.24 546.02,-243.58 565,-259 581.29,-272.24 636.13,-276.33 674.39,-277.56"/>
<polygon fill="#9a32cd" stroke="#9a32cd" points="543.07,-199.27 532.67,-197.25 539.54,-205.31 543.07,-199.27"/>
<text text-anchor="middle" x="605" y="-280" font-family="Helvetica,sans-Serif" font-size="10.00"> domains</text>
</g>
<!-- Node5&#45;&gt;Node8 -->
<g id="edge19" class="edge">
<title>Node5&#45;&gt;Node8</title>
<path fill="none" stroke="#9a32cd" stroke-dasharray="5,2" d="M543.03,-184.86C573.33,-181.98 611.95,-176.48 645,-166 664.35,-159.86 684.87,-148.67 698.35,-140.6"/>
<polygon fill="#9a32cd" stroke="#9a32cd" points="542.33,-181.41 532.68,-185.78 542.95,-188.38 542.33,-181.41"/>
<text text-anchor="middle" x="605" y="-186" font-family="Helvetica,sans-Serif" font-size="10.00"> zone</text>
</g>
<!-- Node5&#45;&gt;Node12 -->
<g id="edge28" class="edge">
<title>Node5&#45;&gt;Node12</title>
<path fill="none" stroke="#9a32cd" stroke-dasharray="5,2" d="M539.15,-201.89C541.91,-203.42 544.55,-205.12 547,-207 558.44,-215.78 552.28,-227.19 565,-234 645.63,-277.15 681.84,-225.78 766,-190 852.52,-153.22 864.41,-118.21 956,-97 1313.27,-14.25 1428.16,-58.99 1778,-169 1855.39,-193.34 1890.05,-190.31 1939,-255 2015.59,-356.22 1961.8,-412.96 2000,-534 2011.31,-569.83 2030.12,-610.42 2038.82,-628.47"/>
<polygon fill="#9a32cd" stroke="#9a32cd" points="540.57,-198.68 530.04,-197.52 537.54,-205 540.57,-198.68"/>
<text text-anchor="middle" x="1272" y="-59" font-family="Helvetica,sans-Serif" font-size="10.00"> dom</text>
</g>
<!-- Node6&#45;&gt;Node5 -->
<g id="edge7" class="edge">
<title>Node6&#45;&gt;Node5</title>
<path fill="none" stroke="#9a32cd" stroke-dasharray="5,2" d="M280.41,-475.84C281.7,-474.65 282.9,-473.38 284,-472 310.65,-438.73 278.8,-316.77 302,-281 334.55,-230.8 402.82,-206.68 447.25,-195.87"/>
<polygon fill="#9a32cd" stroke="#9a32cd" points="278.35,-473.01 272.25,-481.68 282.42,-478.7 278.35,-473.01"/>
<text text-anchor="middle" x="358.5" y="-295" font-family="Helvetica,sans-Serif" font-size="10.00"> nbr_coefs</text>
<text text-anchor="middle" x="358.5" y="-284" font-family="Helvetica,sans-Serif" font-size="10.00">nbr_points</text>
</g>
<!-- Node6&#45;&gt;Node15 -->
<g id="edge35" class="edge">
<title>Node6&#45;&gt;Node15</title>
<path fill="none" stroke="#9a32cd" stroke-dasharray="5,2" d="M239.35,-509.03C253.56,-526.62 277.08,-553.23 302,-571 352.77,-607.2 421.21,-634.01 459.65,-647.41"/>
<polygon fill="#9a32cd" stroke="#9a32cd" points="241.75,-506.43 232.8,-500.76 236.26,-510.77 241.75,-506.43"/>
<text text-anchor="middle" x="358.5" y="-633" font-family="Helvetica,sans-Serif" font-size="10.00"> sizes</text>
</g>
<!-- Node7&#45;&gt;Node5 -->
<g id="edge9" class="edge">
<title>Node7&#45;&gt;Node5</title>
<path fill="none" stroke="#9a32cd" stroke-dasharray="5,2" d="M294.06,-142.68C330.32,-146.99 375.4,-153.58 415,-163 431.75,-166.99 450.1,-173.17 464.33,-178.39"/>
<polygon fill="#9a32cd" stroke="#9a32cd" points="294.41,-139.2 284.08,-141.53 293.61,-146.15 294.41,-139.2"/>
<text text-anchor="middle" x="358.5" y="-166" font-family="Helvetica,sans-Serif" font-size="10.00"> coloc</text>
</g>
<!-- Node7&#45;&gt;Node8 -->
<g id="edge13" class="edge">
<title>Node7&#45;&gt;Node8</title>
<path fill="none" stroke="#9a32cd" stroke-dasharray="5,2" d="M277.92,-124.48C357.71,-108.7 514.21,-84.75 645,-107 661.27,-109.77 678.83,-115.99 692.09,-121.4"/>
<polygon fill="#9a32cd" stroke="#9a32cd" points="277.22,-121.05 268.11,-126.45 278.6,-127.91 277.22,-121.05"/>
<text text-anchor="middle" x="490" y="-117" font-family="Helvetica,sans-Serif" font-size="10.00"> c</text>
<text text-anchor="middle" x="490" y="-106" font-family="Helvetica,sans-Serif" font-size="10.00">cf</text>
</g>
<!-- Node7&#45;&gt;Node11 -->
<g id="edge39" class="edge">
<title>Node7&#45;&gt;Node11</title>
<path fill="none" stroke="#9a32cd" stroke-dasharray="5,2" d="M250.43,-121.7C264.98,-114.1 283.97,-105.44 302,-101 358.62,-87.07 374.78,-97.1 433,-94 527.14,-88.99 550.83,-82.53 645,-87 794.84,-94.12 1176.14,-99.43 1317,-151 1481.63,-211.28 1545.99,-228.66 1641,-376 1665,-413.22 1637.81,-435.11 1659,-474 1669.54,-493.34 1689.35,-509.76 1702.98,-519.49"/>
<polygon fill="#9a32cd" stroke="#9a32cd" points="248.7,-118.65 241.56,-126.48 252.02,-124.81 248.7,-118.65"/>
<text text-anchor="middle" x="995.5" y="-109" font-family="Helvetica,sans-Serif" font-size="10.00"> val_cst_hard</text>
</g>
<!-- Node8&#45;&gt;Node5 -->
<g id="edge11" class="edge">
<title>Node8&#45;&gt;Node5</title>
<path fill="none" stroke="#9a32cd" stroke-dasharray="5,2" d="M677.13,-118.74C645.63,-110.37 599.79,-103.77 565,-122 552.55,-128.52 556.86,-137.99 547,-148 535.09,-160.08 519.16,-171.07 507.34,-178.46"/>
<polygon fill="#9a32cd" stroke="#9a32cd" points="676.25,-122.12 686.82,-121.49 678.16,-115.39 676.25,-122.12"/>
<text text-anchor="middle" x="605" y="-158" font-family="Helvetica,sans-Serif" font-size="10.00"> absol</text>
<text text-anchor="middle" x="605" y="-147" font-family="Helvetica,sans-Serif" font-size="10.00">cart</text>
<text text-anchor="middle" x="605" y="-136" font-family="Helvetica,sans-Serif" font-size="10.00">cart_surr</text>
<text text-anchor="middle" x="605" y="-125" font-family="Helvetica,sans-Serif" font-size="10.00">radius</text>
</g>
<!-- Node8&#45;&gt;Node8 -->
<g id="edge14" class="edge">
<title>Node8&#45;&gt;Node8</title>
<path fill="none" stroke="#9a32cd" stroke-dasharray="5,2" d="M699.03,-150.77C700.25,-155.5 705.4,-159 714.5,-159 729.43,-159 733.75,-149.57 727.45,-140.76"/>
<polygon fill="#9a32cd" stroke="#9a32cd" points="702.5,-151.31 701.55,-140.76 695.72,-149.6 702.5,-151.31"/>
<text text-anchor="middle" x="714.5" y="-173" font-family="Helvetica,sans-Serif" font-size="10.00"> p_der_abs</text>
<text text-anchor="middle" x="714.5" y="-162" font-family="Helvetica,sans-Serif" font-size="10.00">p_der_var</text>
</g>
<!-- Node19 -->
<g id="node19" class="node">
<title>Node19</title>
<g id="a_node19"><a xlink:href="classKadath_1_1Scalar.html" target="_top" xlink:title=" ">
<polygon fill="none" stroke="black" points="1232,-160.5 1232,-179.5 1312,-179.5 1312,-160.5 1232,-160.5"/>
<text text-anchor="middle" x="1272" y="-167.5" font-family="Helvetica,sans-Serif" font-size="10.00">Kadath::Scalar</text>
</a>
</g>
</g>
<!-- Node8&#45;&gt;Node19 -->
<g id="edge47" class="edge">
<title>Node8&#45;&gt;Node19</title>
<path fill="none" stroke="#9a32cd" stroke-dasharray="5,2" d="M776.29,-135.27C891.04,-143.32 1136.56,-160.56 1231.96,-167.26"/>
<polygon fill="#9a32cd" stroke="#9a32cd" points="776.49,-131.77 766.27,-134.56 776,-138.76 776.49,-131.77"/>
<text text-anchor="middle" x="995.5" y="-157" font-family="Helvetica,sans-Serif" font-size="10.00"> val_zones</text>
</g>
<!-- Node9&#45;&gt;Node8 -->
<g id="edge15" class="edge">
<title>Node9&#45;&gt;Node8</title>
<path fill="none" stroke="#9a32cd" stroke-dasharray="5,2" d="M557.21,-222.59C585.5,-219 618.13,-211.89 645,-198 672.19,-183.94 695.68,-155.48 706.75,-140.58"/>
<polygon fill="#9a32cd" stroke="#9a32cd" points="556.54,-219.14 547,-223.76 557.34,-226.1 556.54,-219.14"/>
<text text-anchor="middle" x="605" y="-225" font-family="Helvetica,sans-Serif" font-size="10.00"> base</text>
</g>
<!-- Node10&#45;&gt;Node9 -->
<g id="edge17" class="edge">
<title>Node10&#45;&gt;Node9</title>
<path fill="none" stroke="#9a32cd" stroke-dasharray="5,2" d="M231.6,-433.77C241.56,-405.72 264.08,-354.09 302,-328 344.08,-299.04 370.35,-331.81 415,-307 446.8,-289.33 472.34,-252.94 483.26,-235.6"/>
<polygon fill="#9a32cd" stroke="#9a32cd" points="228.28,-432.67 228.39,-443.26 234.91,-434.91 228.28,-432.67"/>
<text text-anchor="middle" x="358.5" y="-331" font-family="Helvetica,sans-Serif" font-size="10.00"> bases_1d</text>
</g>
<!-- Node10&#45;&gt;Node11 -->
<g id="edge36" class="edge">
<title>Node10&#45;&gt;Node11</title>
<path fill="none" stroke="#9a32cd" stroke-dasharray="5,2" d="M267.18,-465.69C272.88,-467.67 278.62,-469.8 284,-472 292.28,-475.39 293.57,-478.01 302,-481 449.16,-533.2 492.61,-522.97 645,-557 783.27,-587.88 815.49,-608.86 956,-627 1180.06,-655.93 1238.12,-641 1464,-645 1499.11,-645.62 1509.39,-655.15 1543,-645 1614.04,-623.54 1682.67,-562.62 1707.62,-538.76"/>
<polygon fill="#9a32cd" stroke="#9a32cd" points="268.29,-462.37 257.69,-462.5 266.06,-469 268.29,-462.37"/>
<text text-anchor="middle" x="995.5" y="-650" font-family="Helvetica,sans-Serif" font-size="10.00"> assoc_var</text>
<text text-anchor="middle" x="995.5" y="-639" font-family="Helvetica,sans-Serif" font-size="10.00">assoc_var_double</text>
</g>
<!-- Node10&#45;&gt;Node12 -->
<g id="edge23" class="edge">
<title>Node10&#45;&gt;Node12</title>
<path fill="none" stroke="#9a32cd" stroke-dasharray="5,2" d="M277.82,-467.33C280,-468.74 282.08,-470.29 284,-472 298.27,-484.68 287.96,-498.06 302,-511 378.39,-581.38 1076.13,-832 1180,-832 1180,-832 1180,-832 1888.5,-832 1983.99,-832 2030.28,-686.77 2041.02,-647.62"/>
<polygon fill="#9a32cd" stroke="#9a32cd" points="279.4,-464.2 268.94,-462.53 276.07,-470.36 279.4,-464.2"/>
<text text-anchor="middle" x="1181" y="-846" font-family="Helvetica,sans-Serif" font-size="10.00"> n_cond</text>
<text text-anchor="middle" x="1181" y="-835" font-family="Helvetica,sans-Serif" font-size="10.00">p_cmp_used</text>
</g>
<!-- Node10&#45;&gt;Node18 -->
<g id="edge48" class="edge">
<title>Node10&#45;&gt;Node18</title>
<path fill="none" stroke="#9a32cd" stroke-dasharray="5,2" d="M285.12,-460.74C408.68,-475 700.98,-499.43 938,-447 983.87,-436.85 997.42,-433.2 1035,-405 1057.97,-387.76 1077.6,-359.65 1087.02,-344.84"/>
<polygon fill="#9a32cd" stroke="#9a32cd" points="285.44,-457.26 275.1,-459.57 284.62,-464.21 285.44,-457.26"/>
<text text-anchor="middle" x="714.5" y="-492" font-family="Helvetica,sans-Serif" font-size="10.00"> give_indices</text>
<text text-anchor="middle" x="714.5" y="-481" font-family="Helvetica,sans-Serif" font-size="10.00">type_indice</text>
</g>
<!-- Node10&#45;&gt;Node20 -->
<g id="edge52" class="edge">
<title>Node10&#45;&gt;Node20</title>
<path fill="none" stroke="#9a32cd" stroke-dasharray="5,2" d="M285.59,-450.72C413.3,-445.86 709.91,-434.6 830.79,-430"/>
<polygon fill="#9a32cd" stroke="#9a32cd" points="285.09,-447.23 275.23,-451.11 285.35,-454.23 285.09,-447.23"/>
<text text-anchor="middle" x="605" y="-442" font-family="Helvetica,sans-Serif" font-size="10.00"> basis</text>
</g>
<!-- Node11&#45;&gt;Node2 -->
<g id="edge20" class="edge">
<title>Node11&#45;&gt;Node2</title>
<path fill="none" stroke="#9a32cd" stroke-dasharray="5,2" d="M1691.58,-514.67C1677.16,-507.52 1658.61,-499.64 1641,-496 1608.48,-489.28 1570.7,-491.71 1543.15,-495.28"/>
<polygon fill="#9a32cd" stroke="#9a32cd" points="1690.35,-517.98 1700.84,-519.45 1693.55,-511.75 1690.35,-517.98"/>
<text text-anchor="middle" x="1601" y="-499" font-family="Helvetica,sans-Serif" font-size="10.00"> syst</text>
</g>
<!-- Node11&#45;&gt;Node13 -->
<g id="edge27" class="edge">
<title>Node11&#45;&gt;Node13</title>
<path fill="none" stroke="#9a32cd" stroke-dasharray="5,2" d="M1731.32,-547.14C1744.75,-566.31 1768.41,-596.06 1796,-613 1810.58,-621.96 1828.43,-627.77 1844.41,-631.52"/>
<polygon fill="#9a32cd" stroke="#9a32cd" points="1734.1,-544.99 1725.58,-538.68 1728.3,-548.92 1734.1,-544.99"/>
<text text-anchor="middle" x="1807" y="-626" font-family="Helvetica,sans-Serif" font-size="10.00"> syst</text>
</g>
<!-- Node12&#45;&gt;Node11 -->
<g id="edge21" class="edge">
<title>Node12&#45;&gt;Node11</title>
<path fill="none" stroke="#9a32cd" stroke-dasharray="5,2" d="M2005.66,-625.27C1940,-603.18 1806.43,-558.24 1747.97,-538.58"/>
<polygon fill="#9a32cd" stroke="#9a32cd" points="2004.62,-628.61 2015.21,-628.48 2006.85,-621.98 2004.62,-628.61"/>
<text text-anchor="middle" x="1887.5" y="-604" font-family="Helvetica,sans-Serif" font-size="10.00"> eq</text>
</g>
<!-- Node13&#45;&gt;Node12 -->
<g id="edge24" class="edge">
<title>Node13&#45;&gt;Node12</title>
<path fill="none" stroke="#9a32cd" stroke-dasharray="5,2" d="M1940.93,-638C1960.09,-638 1981.54,-638 1999.85,-638"/>
<polygon fill="#9a32cd" stroke="#9a32cd" points="1940.85,-634.5 1930.85,-638 1940.85,-641.5 1940.85,-634.5"/>
<text text-anchor="middle" x="1969.5" y="-641" font-family="Helvetica,sans-Serif" font-size="10.00"> parts</text>
</g>
<!-- Node13&#45;&gt;Node13 -->
<g id="edge26" class="edge">
<title>Node13&#45;&gt;Node13</title>
<path fill="none" stroke="#9a32cd" stroke-dasharray="5,2" d="M1872.77,-657.77C1873.92,-662.5 1878.84,-666 1887.5,-666 1901.72,-666 1905.83,-656.57 1899.83,-647.76"/>
<polygon fill="#9a32cd" stroke="#9a32cd" points="1876.24,-658.3 1875.17,-647.76 1869.43,-656.66 1876.24,-658.3"/>
<text text-anchor="middle" x="1887.5" y="-669" font-family="Helvetica,sans-Serif" font-size="10.00"> parts</text>
</g>
<!-- Node13&#45;&gt;Node14 -->
<g id="edge31" class="edge">
<title>Node13&#45;&gt;Node14</title>
<path fill="none" stroke="#9a32cd" stroke-dasharray="5,2" d="M1921.68,-624.08C1927.63,-621.07 1933.64,-617.67 1939,-614 1978.99,-586.58 2018.38,-543.87 2035.12,-524.78"/>
<polygon fill="#9a32cd" stroke="#9a32cd" points="1919.99,-621.01 1912.47,-628.47 1923,-627.32 1919.99,-621.01"/>
<text text-anchor="middle" x="1969.5" y="-602" font-family="Helvetica,sans-Serif" font-size="10.00"> parts</text>
</g>
<!-- Node22 -->
<g id="node22" class="node">
<title>Node22</title>
<g id="a_node22"><a xlink:href="classKadath_1_1Ope__def.html" target="_top" xlink:title=" ">
<polygon fill="none" stroke="black" points="2000,-455.5 2000,-474.5 2089,-474.5 2089,-455.5 2000,-455.5"/>
<text text-anchor="middle" x="2044.5" y="-462.5" font-family="Helvetica,sans-Serif" font-size="10.00">Kadath::Ope_def</text>
</a>
</g>
</g>
<!-- Node13&#45;&gt;Node22 -->
<g id="edge58" class="edge">
<title>Node13&#45;&gt;Node22</title>
<path fill="none" stroke="midnightblue" d="M1926.42,-623.66C1931,-620.91 1935.34,-617.7 1939,-614 1952.42,-600.43 1948.43,-592.06 1957,-575 1974.94,-539.28 1973.49,-525.92 2000,-496 2007.5,-487.53 2017.73,-480.09 2026.39,-474.63"/>
<polygon fill="midnightblue" stroke="midnightblue" points="1924.64,-620.64 1917.44,-628.41 1927.92,-626.82 1924.64,-620.64"/>
</g>
<!-- Node14&#45;&gt;Node11 -->
<g id="edge29" class="edge">
<title>Node14&#45;&gt;Node11</title>
<path fill="none" stroke="#9a32cd" stroke-dasharray="5,2" d="M1994.58,-517.11C1936.61,-519.62 1840.1,-523.79 1778.17,-526.46"/>
<polygon fill="#9a32cd" stroke="#9a32cd" points="1994.75,-520.61 2004.59,-516.68 1994.45,-513.62 1994.75,-520.61"/>
<text text-anchor="middle" x="1887.5" y="-526" font-family="Helvetica,sans-Serif" font-size="10.00"> eq_int</text>
</g>
<!-- Node15&#45;&gt;Node11 -->
<g id="edge33" class="edge">
<title>Node15&#45;&gt;Node11</title>
<path fill="none" stroke="#9a32cd" stroke-dasharray="5,2" d="M533.34,-669.24C577.81,-681 649.96,-697 713.5,-697 713.5,-697 713.5,-697 1504.5,-697 1566.1,-697 1591.16,-709.2 1641,-673 1688.64,-638.39 1709.37,-564.96 1715.46,-538.64"/>
<polygon fill="#9a32cd" stroke="#9a32cd" points="534.04,-665.81 523.47,-666.58 532.21,-672.56 534.04,-665.81"/>
<text text-anchor="middle" x="1094" y="-700" font-family="Helvetica,sans-Serif" font-size="10.00"> which_coef</text>
</g>
<!-- Node16&#45;&gt;Node11 -->
<g id="edge37" class="edge">
<title>Node16&#45;&gt;Node11</title>
<path fill="none" stroke="#9a32cd" stroke-dasharray="5,2" d="M655.36,-735.44C754.68,-738.21 985.79,-744 1180,-744 1180,-744 1180,-744 1504.5,-744 1566.91,-744 1593.47,-751.45 1641,-711 1696.6,-663.69 1712.64,-569.11 1716.46,-538.67"/>
<polygon fill="#9a32cd" stroke="#9a32cd" points="655.41,-731.94 645.32,-735.16 655.21,-738.94 655.41,-731.94"/>
<text text-anchor="middle" x="1094" y="-757" font-family="Helvetica,sans-Serif" font-size="10.00"> paruser</text>
<text text-anchor="middle" x="1094" y="-746" font-family="Helvetica,sans-Serif" font-size="10.00">paruser_bin</text>
</g>
<!-- Node17&#45;&gt;Node2 -->
<g id="edge60" class="edge">
<title>Node17&#45;&gt;Node2</title>
<path fill="none" stroke="#9a32cd" stroke-dasharray="5,2" d="M1327.56,-483.75C1361.75,-481.52 1406.63,-480.53 1446,-486 1455.49,-487.32 1465.63,-489.83 1474.66,-492.47"/>
<polygon fill="#9a32cd" stroke="#9a32cd" points="1327.04,-480.28 1317.31,-484.47 1327.54,-487.26 1327.04,-480.28"/>
<text text-anchor="middle" x="1390.5" y="-566" font-family="Helvetica,sans-Serif" font-size="10.00"> p_christo</text>
<text text-anchor="middle" x="1390.5" y="-555" font-family="Helvetica,sans-Serif" font-size="10.00">p_det_cov</text>
<text text-anchor="middle" x="1390.5" y="-544" font-family="Helvetica,sans-Serif" font-size="10.00">p_dirac</text>
<text text-anchor="middle" x="1390.5" y="-533" font-family="Helvetica,sans-Serif" font-size="10.00">p_met_con</text>
<text text-anchor="middle" x="1390.5" y="-522" font-family="Helvetica,sans-Serif" font-size="10.00">p_met_cov</text>
<text text-anchor="middle" x="1390.5" y="-511" font-family="Helvetica,sans-Serif" font-size="10.00">p_ricci_scalar</text>
<text text-anchor="middle" x="1390.5" y="-500" font-family="Helvetica,sans-Serif" font-size="10.00">p_ricci_tensor</text>
<text text-anchor="middle" x="1390.5" y="-489" font-family="Helvetica,sans-Serif" font-size="10.00">p_riemann</text>
</g>
<!-- Node17&#45;&gt;Node11 -->
<g id="edge40" class="edge">
<title>Node17&#45;&gt;Node11</title>
<path fill="none" stroke="#9a32cd" stroke-dasharray="5,2" d="M1280.59,-508.05C1289.93,-528.61 1307.98,-560.26 1335,-574 1378.98,-596.36 1397.3,-581.9 1446,-574 1454.32,-572.65 1455.8,-569.98 1464,-568 1529.9,-552.07 1607.07,-541.29 1658.81,-535.18"/>
<polygon fill="#9a32cd" stroke="#9a32cd" points="1283.74,-506.53 1276.59,-498.72 1277.31,-509.29 1283.74,-506.53"/>
<text text-anchor="middle" x="1503.5" y="-637" font-family="Helvetica,sans-Serif" font-size="10.00"> cst</text>
<text text-anchor="middle" x="1503.5" y="-626" font-family="Helvetica,sans-Serif" font-size="10.00">cst_hard</text>
<text text-anchor="middle" x="1503.5" y="-615" font-family="Helvetica,sans-Serif" font-size="10.00">opeuser</text>
<text text-anchor="middle" x="1503.5" y="-604" font-family="Helvetica,sans-Serif" font-size="10.00">opeuser_bin</text>
<text text-anchor="middle" x="1503.5" y="-593" font-family="Helvetica,sans-Serif" font-size="10.00">results</text>
<text text-anchor="middle" x="1503.5" y="-582" font-family="Helvetica,sans-Serif" font-size="10.00">term</text>
<text text-anchor="middle" x="1503.5" y="-571" font-family="Helvetica,sans-Serif" font-size="10.00">term_double</text>
</g>
<!-- Node17&#45;&gt;Node22 -->
<g id="edge59" class="edge">
<title>Node17&#45;&gt;Node22</title>
<path fill="none" stroke="#9a32cd" stroke-dasharray="5,2" d="M1327.29,-477.93C1329.89,-477.58 1332.47,-477.26 1335,-477 1585.52,-450.84 1888.53,-458.85 1999.8,-463.1"/>
<polygon fill="#9a32cd" stroke="#9a32cd" points="1326.58,-474.5 1317.23,-479.47 1327.64,-481.42 1326.58,-474.5"/>
<text text-anchor="middle" x="1718.5" y="-462" font-family="Helvetica,sans-Serif" font-size="10.00"> res</text>
</g>
<!-- Node18&#45;&gt;Node11 -->
<g id="edge56" class="edge">
<title>Node18&#45;&gt;Node11</title>
<path fill="none" stroke="#9a32cd" stroke-dasharray="5,2" d="M1123.4,-348.86C1149.6,-360.89 1189.94,-377.51 1227,-385 1322.47,-404.28 1351.46,-369.58 1446,-393 1448.92,-393.72 1638.33,-485.62 1641,-487 1661.74,-497.68 1685.21,-510.71 1700.62,-519.4"/>
<polygon fill="#9a32cd" stroke="#9a32cd" points="1124.63,-345.57 1114.09,-344.51 1121.66,-351.91 1124.63,-345.57"/>
<text text-anchor="middle" x="1390.5" y="-396" font-family="Helvetica,sans-Serif" font-size="10.00"> var</text>
</g>
<!-- Node18&#45;&gt;Node17 -->
<g id="edge42" class="edge">
<title>Node18&#45;&gt;Node17</title>
<path fill="none" stroke="#9a32cd" stroke-dasharray="5,2" d="M1104.49,-353.6C1114.62,-372.1 1132.07,-400.48 1153,-420 1181.81,-446.87 1222.87,-467.9 1248.18,-479.37"/>
<polygon fill="#9a32cd" stroke="#9a32cd" points="1107.54,-351.88 1099.76,-344.69 1101.36,-355.16 1107.54,-351.88"/>
<text text-anchor="middle" x="1181" y="-472" font-family="Helvetica,sans-Serif" font-size="10.00"> der_t</text>
<text text-anchor="middle" x="1181" y="-461" font-family="Helvetica,sans-Serif" font-size="10.00">val_t</text>
</g>
<!-- Node18&#45;&gt;Node19 -->
<g id="edge46" class="edge">
<title>Node18&#45;&gt;Node19</title>
<path fill="none" stroke="midnightblue" d="M1113.29,-318.16C1120.49,-311.06 1128.55,-302.49 1135,-294 1144.64,-281.31 1141.39,-273.91 1153,-263 1173.28,-243.95 1189.73,-255.07 1209,-235 1222.5,-220.94 1213.88,-209.42 1227,-195 1232.8,-188.63 1240.6,-183.48 1248.03,-179.54"/>
<polygon fill="midnightblue" stroke="midnightblue" points="1110.74,-315.75 1105.95,-325.2 1115.59,-320.81 1110.74,-315.75"/>
</g>
<!-- Node23 -->
<g id="node23" class="node">
<title>Node23</title>
<g id="a_node23"><a xlink:href="classKadath_1_1Metric__tensor.html" target="_top" xlink:title=" ">
<polygon fill="none" stroke="black" points="1335,-264.5 1335,-283.5 1446,-283.5 1446,-264.5 1335,-264.5"/>
<text text-anchor="middle" x="1390.5" y="-271.5" font-family="Helvetica,sans-Serif" font-size="10.00">Kadath::Metric_tensor</text>
</a>
</g>
</g>
<!-- Node18&#45;&gt;Node23 -->
<g id="edge62" class="edge">
<title>Node18&#45;&gt;Node23</title>
<path fill="none" stroke="midnightblue" d="M1144.98,-324.65C1200.48,-313.15 1289.32,-294.75 1343.26,-283.58"/>
<polygon fill="midnightblue" stroke="midnightblue" points="1144.11,-321.25 1135.02,-326.71 1145.53,-328.11 1144.11,-321.25"/>
</g>
<!-- Node24 -->
<g id="node24" class="node">
<title>Node24</title>
<g id="a_node24"><a xlink:href="classKadath_1_1Vector.html" target="_top" xlink:title=" ">
<polygon fill="none" stroke="black" points="1561,-196.5 1561,-215.5 1641,-215.5 1641,-196.5 1561,-196.5"/>
<text text-anchor="middle" x="1601" y="-203.5" font-family="Helvetica,sans-Serif" font-size="10.00">Kadath::Vector</text>
</a>
</g>
</g>
<!-- Node18&#45;&gt;Node24 -->
<g id="edge64" class="edge">
<title>Node18&#45;&gt;Node24</title>
<path fill="none" stroke="midnightblue" d="M1123.77,-321.28C1133.01,-317.1 1143.35,-312.65 1153,-309 1185.22,-296.82 1194,-295.86 1227,-286 1274.85,-271.7 1286.39,-266.44 1335,-255 1414.47,-236.29 1508.73,-220.32 1560.69,-212.05"/>
<polygon fill="midnightblue" stroke="midnightblue" points="1122.24,-318.14 1114.62,-325.5 1125.17,-324.49 1122.24,-318.14"/>
</g>
<!-- Node19&#45;&gt;Node1 -->
<g id="edge65" class="edge">
<title>Node19&#45;&gt;Node1</title>
<path fill="none" stroke="#9a32cd" stroke-dasharray="5,2" d="M1322.07,-163.47C1415.3,-153.23 1622.6,-140.89 1778,-208 1812.24,-222.79 1847.42,-248.42 1868.1,-264.78"/>
<polygon fill="#9a32cd" stroke="#9a32cd" points="1321.62,-160 1312.08,-164.61 1322.41,-166.96 1321.62,-160"/>
<text text-anchor="middle" x="1601" y="-172" font-family="Helvetica,sans-Serif" font-size="10.00"> conformal</text>
</g>
<!-- Node19&#45;&gt;Node18 -->
<g id="edge45" class="edge">
<title>Node19&#45;&gt;Node18</title>
<path fill="none" stroke="#9a32cd" stroke-dasharray="5,2" d="M1243.8,-184.15C1233.04,-189.59 1220.52,-195.76 1209,-201 1184.51,-212.14 1170.67,-203.71 1153,-224 1131.91,-248.23 1150.75,-266 1135,-294 1127.98,-306.48 1116.2,-317.89 1107.24,-325.49"/>
<polygon fill="#9a32cd" stroke="#9a32cd" points="1245.41,-187.25 1252.72,-179.58 1242.23,-181.02 1245.41,-187.25"/>
<text text-anchor="middle" x="1181" y="-227" font-family="Helvetica,sans-Serif" font-size="10.00"> cmp</text>
</g>
<!-- Node20&#45;&gt;Node1 -->
<g id="edge66" class="edge">
<title>Node20&#45;&gt;Node1</title>
<path fill="none" stroke="#9a32cd" stroke-dasharray="5,2" d="M948.1,-430.09C974.87,-430.66 1006.47,-430.9 1035,-430 1217.94,-424.22 1267.52,-444.56 1446,-404 1545.55,-381.38 1560.73,-345.69 1659,-318 1718.55,-301.22 1789.08,-290.86 1835.65,-285.27"/>
<polygon fill="#9a32cd" stroke="#9a32cd" points="948.17,-426.59 938.09,-429.86 948.01,-433.59 948.17,-426.59"/>
<text text-anchor="middle" x="1390.5" y="-427" font-family="Helvetica,sans-Serif" font-size="10.00"> basis</text>
</g>
<!-- Node20&#45;&gt;Node18 -->
<g id="edge49" class="edge">
<title>Node20&#45;&gt;Node18</title>
<path fill="none" stroke="#9a32cd" stroke-dasharray="5,2" d="M912.37,-413.74C925.33,-407.2 941.24,-399.66 956,-394 990.14,-380.9 1001.6,-385.89 1035,-371 1051.24,-363.76 1068.36,-352.65 1079.75,-344.68"/>
<polygon fill="#9a32cd" stroke="#9a32cd" points="910.4,-410.82 903.1,-418.5 913.6,-417.05 910.4,-410.82"/>
<text text-anchor="middle" x="995.5" y="-397" font-family="Helvetica,sans-Serif" font-size="10.00"> basis</text>
</g>
<!-- Node20&#45;&gt;Node25 -->
<g id="edge69" class="edge">
<title>Node20&#45;&gt;Node25</title>
<path fill="none" stroke="#9a32cd" stroke-dasharray="5,2" d="M948.33,-421.13C1108.19,-403.64 1527.81,-357.75 1669.77,-342.22"/>
<polygon fill="#9a32cd" stroke="#9a32cd" points="947.74,-417.67 938.18,-422.24 948.5,-424.63 947.74,-417.67"/>
<text text-anchor="middle" x="1272" y="-394" font-family="Helvetica,sans-Serif" font-size="10.00"> basis</text>
</g>
<!-- Node21&#45;&gt;Node18 -->
<g id="edge53" class="edge">
<title>Node21&#45;&gt;Node18</title>
<path fill="none" stroke="#9a32cd" stroke-dasharray="5,2" d="M425.59,-353.2C574.48,-349.14 932.53,-339.38 1052.82,-336.1"/>
<polygon fill="#9a32cd" stroke="#9a32cd" points="425.13,-349.71 415.23,-353.48 425.33,-356.71 425.13,-349.71"/>
<text text-anchor="middle" x="714.5" y="-350" font-family="Helvetica,sans-Serif" font-size="10.00"> parameters</text>
</g>
<!-- Node22&#45;&gt;Node11 -->
<g id="edge57" class="edge">
<title>Node22&#45;&gt;Node11</title>
<path fill="none" stroke="#9a32cd" stroke-dasharray="5,2" d="M1989.72,-474.72C1947.79,-482.39 1888.12,-493.51 1836,-504 1811.66,-508.9 1784.55,-514.7 1762.6,-519.48"/>
<polygon fill="#9a32cd" stroke="#9a32cd" points="1990.51,-478.13 1999.72,-472.89 1989.25,-471.25 1990.51,-478.13"/>
<text text-anchor="middle" x="1887.5" y="-507" font-family="Helvetica,sans-Serif" font-size="10.00"> def</text>
</g>
<!-- Node23&#45;&gt;Node1 -->
<g id="edge61" class="edge">
<title>Node23&#45;&gt;Node1</title>
<path fill="none" stroke="#9a32cd" stroke-dasharray="5,2" d="M1456.63,-274.79C1556.52,-276 1745.47,-278.29 1835.85,-279.39"/>
<polygon fill="#9a32cd" stroke="#9a32cd" points="1456.41,-271.29 1446.36,-274.67 1456.32,-278.29 1456.41,-271.29"/>
<text text-anchor="middle" x="1601" y="-280" font-family="Helvetica,sans-Serif" font-size="10.00"> p_met</text>
</g>
<!-- Node24&#45;&gt;Node1 -->
<g id="edge63" class="edge">
<title>Node24&#45;&gt;Node1</title>
<path fill="none" stroke="#9a32cd" stroke-dasharray="5,2" d="M1651.33,-210.51C1695.97,-215.72 1762.96,-226.37 1818,-247 1831.47,-252.05 1845.89,-258.78 1858.01,-264.85"/>
<polygon fill="#9a32cd" stroke="#9a32cd" points="1651.65,-207.03 1641.32,-209.39 1650.87,-213.98 1651.65,-207.03"/>
<text text-anchor="middle" x="1718.5" y="-237" font-family="Helvetica,sans-Serif" font-size="10.00"> grad_conf</text>
</g>
<!-- Node25&#45;&gt;Node1 -->
<g id="edge67" class="edge">
<title>Node25&#45;&gt;Node1</title>
<path fill="none" stroke="#9a32cd" stroke-dasharray="5,2" d="M1776.95,-325.15C1790.57,-321.76 1804.93,-317.68 1818,-313 1831.79,-308.06 1846.5,-301.2 1858.74,-295.01"/>
<polygon fill="#9a32cd" stroke="#9a32cd" points="1776.09,-321.76 1767.19,-327.51 1777.73,-328.56 1776.09,-321.76"/>
<text text-anchor="middle" x="1807" y="-323" font-family="Helvetica,sans-Serif" font-size="10.00"> fmet</text>
</g>
</g>
</svg>
