<?xml version="1.0" encoding="UTF-8" standalone="no"?>
<!DOCTYPE svg PUBLIC "-//W3C//DTD SVG 1.1//EN"
 "http://www.w3.org/Graphics/SVG/1.1/DTD/svg11.dtd">
<!-- Generated by graphviz version 2.47.1 (20210515.0534)
 -->
<!-- Title: Kadath::Ope_eq Pages: 1 -->
<svg width="438pt" height="1054pt"
 viewBox="0.00 0.00 438.00 1054.00" xmlns="http://www.w3.org/2000/svg" xmlns:xlink="http://www.w3.org/1999/xlink">
<g id="graph0" class="graph" transform="scale(1 1) rotate(0) translate(4 1050)">
<title>Kadath::Ope_eq</title>
<!-- Node1 -->
<g id="node1" class="node">
<title>Node1</title>
<g id="a_node1"><a xlink:title=" ">
<polygon fill="#bfbfbf" stroke="black" points="164,-513.5 164,-532.5 250,-532.5 250,-513.5 164,-513.5"/>
<text text-anchor="middle" x="207" y="-520.5" font-family="Helvetica,sans-Serif" font-size="10.00">Kadath::Ope_eq</text>
</a>
</g>
</g>
<!-- Node3 -->
<g id="node3" class="node">
<title>Node3</title>
<g id="a_node3"><a xlink:href="classKadath_1_1Ope__add.html" target="_top" xlink:title=" ">
<polygon fill="none" stroke="black" points="312.5,-1026.5 312.5,-1045.5 403.5,-1045.5 403.5,-1026.5 312.5,-1026.5"/>
<text text-anchor="middle" x="358" y="-1033.5" font-family="Helvetica,sans-Serif" font-size="10.00">Kadath::Ope_add</text>
</a>
</g>
</g>
<!-- Node1&#45;&gt;Node3 -->
<g id="edge2" class="edge">
<title>Node1&#45;&gt;Node3</title>
<path fill="none" stroke="midnightblue" d="M208.35,-542.97C210.21,-626.32 221.5,-945.35 286,-1017 292.83,-1024.59 302.32,-1029.29 312.15,-1032.16"/>
<polygon fill="midnightblue" stroke="midnightblue" points="211.84,-542.76 208.14,-532.83 204.85,-542.9 211.84,-542.76"/>
</g>
<!-- Node4 -->
<g id="node4" class="node">
<title>Node4</title>
<g id="a_node4"><a xlink:href="classKadath_1_1Ope__ddp.html" target="_top" xlink:title=" ">
<polygon fill="none" stroke="black" points="312.5,-988.5 312.5,-1007.5 403.5,-1007.5 403.5,-988.5 312.5,-988.5"/>
<text text-anchor="middle" x="358" y="-995.5" font-family="Helvetica,sans-Serif" font-size="10.00">Kadath::Ope_ddp</text>
</a>
</g>
</g>
<!-- Node1&#45;&gt;Node4 -->
<g id="edge3" class="edge">
<title>Node1&#45;&gt;Node4</title>
<path fill="none" stroke="midnightblue" d="M208.64,-542.94C211.57,-622.16 226.29,-913.53 286,-979 292.88,-986.54 302.39,-991.23 312.22,-994.1"/>
<polygon fill="midnightblue" stroke="midnightblue" points="212.13,-542.72 208.29,-532.84 205.13,-542.96 212.13,-542.72"/>
</g>
<!-- Node5 -->
<g id="node5" class="node">
<title>Node5</title>
<g id="a_node5"><a xlink:href="classKadath_1_1Ope__ddr.html" target="_top" xlink:title=" ">
<polygon fill="none" stroke="black" points="313.5,-950.5 313.5,-969.5 402.5,-969.5 402.5,-950.5 313.5,-950.5"/>
<text text-anchor="middle" x="358" y="-957.5" font-family="Helvetica,sans-Serif" font-size="10.00">Kadath::Ope_ddr</text>
</a>
</g>
</g>
<!-- Node1&#45;&gt;Node5 -->
<g id="edge4" class="edge">
<title>Node1&#45;&gt;Node5</title>
<path fill="none" stroke="midnightblue" d="M208.99,-543.17C213.08,-618.44 231.13,-881.74 286,-941 293.2,-948.77 303.19,-953.5 313.41,-956.34"/>
<polygon fill="midnightblue" stroke="midnightblue" points="212.46,-542.56 208.45,-532.76 205.47,-542.93 212.46,-542.56"/>
</g>
<!-- Node6 -->
<g id="node6" class="node">
<title>Node6</title>
<g id="a_node6"><a xlink:href="classKadath_1_1Ope__ddt.html" target="_top" xlink:title=" ">
<polygon fill="none" stroke="black" points="313.5,-912.5 313.5,-931.5 402.5,-931.5 402.5,-912.5 313.5,-912.5"/>
<text text-anchor="middle" x="358" y="-919.5" font-family="Helvetica,sans-Serif" font-size="10.00">Kadath::Ope_ddt</text>
</a>
</g>
</g>
<!-- Node1&#45;&gt;Node6 -->
<g id="edge5" class="edge">
<title>Node1&#45;&gt;Node6</title>
<path fill="none" stroke="midnightblue" d="M209.36,-542.68C214.61,-612.9 235.79,-849.73 286,-903 293.18,-910.61 303.04,-915.3 313.13,-918.15"/>
<polygon fill="midnightblue" stroke="midnightblue" points="212.84,-542.29 208.63,-532.56 205.86,-542.79 212.84,-542.29"/>
</g>
<!-- Node7 -->
<g id="node7" class="node">
<title>Node7</title>
<g id="a_node7"><a xlink:href="classKadath_1_1Ope__ddtime.html" target="_top" xlink:title=" ">
<polygon fill="none" stroke="black" points="306,-874.5 306,-893.5 410,-893.5 410,-874.5 306,-874.5"/>
<text text-anchor="middle" x="358" y="-881.5" font-family="Helvetica,sans-Serif" font-size="10.00">Kadath::Ope_ddtime</text>
</a>
</g>
</g>
<!-- Node1&#45;&gt;Node7 -->
<g id="edge6" class="edge">
<title>Node1&#45;&gt;Node7</title>
<path fill="none" stroke="midnightblue" d="M209.86,-542.8C216.42,-608.51 240.56,-817.83 286,-865 291.49,-870.7 298.48,-874.75 305.93,-877.62"/>
<polygon fill="midnightblue" stroke="midnightblue" points="213.32,-542.2 208.87,-532.58 206.35,-542.88 213.32,-542.2"/>
</g>
<!-- Node8 -->
<g id="node8" class="node">
<title>Node8</title>
<g id="a_node8"><a xlink:href="classKadath_1_1Ope__def.html" target="_top" xlink:title=" ">
<polygon fill="none" stroke="black" points="313.5,-836.5 313.5,-855.5 402.5,-855.5 402.5,-836.5 313.5,-836.5"/>
<text text-anchor="middle" x="358" y="-843.5" font-family="Helvetica,sans-Serif" font-size="10.00">Kadath::Ope_def</text>
</a>
</g>
</g>
<!-- Node1&#45;&gt;Node8 -->
<g id="edge7" class="edge">
<title>Node1&#45;&gt;Node8</title>
<path fill="none" stroke="midnightblue" d="M210.48,-542.94C218.46,-603.87 245.31,-785.89 286,-827 293.36,-834.44 303.29,-839.06 313.39,-841.91"/>
<polygon fill="midnightblue" stroke="midnightblue" points="213.92,-542.22 209.18,-532.74 206.98,-543.11 213.92,-542.22"/>
</g>
<!-- Node9 -->
<g id="node9" class="node">
<title>Node9</title>
<g id="a_node9"><a xlink:href="classKadath_1_1Ope__der.html" target="_top" xlink:title=" ">
<polygon fill="none" stroke="black" points="313.5,-798.5 313.5,-817.5 402.5,-817.5 402.5,-798.5 313.5,-798.5"/>
<text text-anchor="middle" x="358" y="-805.5" font-family="Helvetica,sans-Serif" font-size="10.00">Kadath::Ope_der</text>
</a>
</g>
</g>
<!-- Node1&#45;&gt;Node9 -->
<g id="edge8" class="edge">
<title>Node1&#45;&gt;Node9</title>
<path fill="none" stroke="midnightblue" d="M207.65,-542.88C207.92,-592.05 215.71,-720.36 286,-789 293.39,-796.22 303.22,-800.77 313.19,-803.63"/>
<polygon fill="midnightblue" stroke="midnightblue" points="211.15,-542.67 207.7,-532.65 204.15,-542.63 211.15,-542.67"/>
</g>
<!-- Node10 -->
<g id="node10" class="node">
<title>Node10</title>
<g id="a_node10"><a xlink:href="classKadath_1_1Ope__der__background.html" target="_top" xlink:title=" ">
<polygon fill="none" stroke="black" points="286,-760.5 286,-779.5 430,-779.5 430,-760.5 286,-760.5"/>
<text text-anchor="middle" x="358" y="-767.5" font-family="Helvetica,sans-Serif" font-size="10.00">Kadath::Ope_der_background</text>
</a>
</g>
</g>
<!-- Node1&#45;&gt;Node10 -->
<g id="edge9" class="edge">
<title>Node1&#45;&gt;Node10</title>
<path fill="none" stroke="midnightblue" d="M208.8,-543.01C211.69,-587.26 224.97,-693.99 286,-751 290.1,-754.83 294.89,-757.91 300.01,-760.38"/>
<polygon fill="midnightblue" stroke="midnightblue" points="212.29,-542.74 208.26,-532.95 205.3,-543.12 212.29,-542.74"/>
</g>
<!-- Node11 -->
<g id="node11" class="node">
<title>Node11</title>
<g id="a_node11"><a xlink:href="classKadath_1_1Ope__der__flat.html" target="_top" xlink:title=" ">
<polygon fill="none" stroke="black" points="304.5,-722.5 304.5,-741.5 411.5,-741.5 411.5,-722.5 304.5,-722.5"/>
<text text-anchor="middle" x="358" y="-729.5" font-family="Helvetica,sans-Serif" font-size="10.00">Kadath::Ope_der_flat</text>
</a>
</g>
</g>
<!-- Node1&#45;&gt;Node11 -->
<g id="edge10" class="edge">
<title>Node1&#45;&gt;Node11</title>
<path fill="none" stroke="midnightblue" d="M210.3,-542.53C215.9,-581.08 233.85,-667.13 286,-713 291.27,-717.63 297.55,-721.16 304.17,-723.83"/>
<polygon fill="midnightblue" stroke="midnightblue" points="213.77,-542.05 208.98,-532.6 206.83,-542.97 213.77,-542.05"/>
</g>
<!-- Node12 -->
<g id="node12" class="node">
<title>Node12</title>
<g id="a_node12"><a xlink:href="classKadath_1_1Ope__div.html" target="_top" xlink:title=" ">
<polygon fill="none" stroke="black" points="314,-684.5 314,-703.5 402,-703.5 402,-684.5 314,-684.5"/>
<text text-anchor="middle" x="358" y="-691.5" font-family="Helvetica,sans-Serif" font-size="10.00">Kadath::Ope_div</text>
</a>
</g>
</g>
<!-- Node1&#45;&gt;Node12 -->
<g id="edge11" class="edge">
<title>Node1&#45;&gt;Node12</title>
<path fill="none" stroke="midnightblue" d="M212.54,-542.6C221.12,-575.15 242.85,-640.17 286,-675 293.94,-681.41 303.86,-685.67 313.73,-688.5"/>
<polygon fill="midnightblue" stroke="midnightblue" points="215.85,-541.41 210.04,-532.55 209.06,-543.1 215.85,-541.41"/>
</g>
<!-- Node13 -->
<g id="node13" class="node">
<title>Node13</title>
<g id="a_node13"><a xlink:href="classKadath_1_1Ope__dn.html" target="_top" xlink:title=" ">
<polygon fill="none" stroke="black" points="315,-646.5 315,-665.5 401,-665.5 401,-646.5 315,-646.5"/>
<text text-anchor="middle" x="358" y="-653.5" font-family="Helvetica,sans-Serif" font-size="10.00">Kadath::Ope_dn</text>
</a>
</g>
</g>
<!-- Node1&#45;&gt;Node13 -->
<g id="edge12" class="edge">
<title>Node1&#45;&gt;Node13</title>
<path fill="none" stroke="midnightblue" d="M215.87,-542.01C227.42,-567.54 251.42,-612.52 286,-637 294.44,-642.97 304.64,-647.07 314.65,-649.88"/>
<polygon fill="midnightblue" stroke="midnightblue" points="219,-540.44 211.81,-532.67 212.59,-543.23 219,-540.44"/>
</g>
<!-- Node14 -->
<g id="node14" class="node">
<title>Node14</title>
<g id="a_node14"><a xlink:href="classKadath_1_1Ope__dr.html" target="_top" xlink:title=" ">
<polygon fill="none" stroke="black" points="316.5,-608.5 316.5,-627.5 399.5,-627.5 399.5,-608.5 316.5,-608.5"/>
<text text-anchor="middle" x="358" y="-615.5" font-family="Helvetica,sans-Serif" font-size="10.00">Kadath::Ope_dr</text>
</a>
</g>
</g>
<!-- Node1&#45;&gt;Node14 -->
<g id="edge13" class="edge">
<title>Node1&#45;&gt;Node14</title>
<path fill="none" stroke="midnightblue" d="M221.56,-540.71C235.78,-558.07 259.69,-584.04 286,-599 295.21,-604.23 305.91,-608.07 316.16,-610.87"/>
<polygon fill="midnightblue" stroke="midnightblue" points="224.01,-538.17 215.05,-532.52 218.53,-542.52 224.01,-538.17"/>
</g>
<!-- Node15 -->
<g id="node15" class="node">
<title>Node15</title>
<g id="a_node15"><a xlink:href="classKadath_1_1Ope__dt.html" target="_top" xlink:title=" ">
<polygon fill="none" stroke="black" points="316.5,-570.5 316.5,-589.5 399.5,-589.5 399.5,-570.5 316.5,-570.5"/>
<text text-anchor="middle" x="358" y="-577.5" font-family="Helvetica,sans-Serif" font-size="10.00">Kadath::Ope_dt</text>
</a>
</g>
</g>
<!-- Node1&#45;&gt;Node15 -->
<g id="edge14" class="edge">
<title>Node1&#45;&gt;Node15</title>
<path fill="none" stroke="midnightblue" d="M234.33,-537.4C249.2,-545.12 268.29,-554.39 286,-561 295.68,-564.62 306.35,-567.85 316.4,-570.57"/>
<polygon fill="midnightblue" stroke="midnightblue" points="235.71,-534.17 225.23,-532.59 232.44,-540.36 235.71,-534.17"/>
</g>
<!-- Node16 -->
<g id="node16" class="node">
<title>Node16</title>
<g id="a_node16"><a xlink:href="classKadath_1_1Ope__dtime.html" target="_top" xlink:title=" ">
<polygon fill="none" stroke="black" points="308.5,-532.5 308.5,-551.5 407.5,-551.5 407.5,-532.5 308.5,-532.5"/>
<text text-anchor="middle" x="358" y="-539.5" font-family="Helvetica,sans-Serif" font-size="10.00">Kadath::Ope_dtime</text>
</a>
</g>
</g>
<!-- Node1&#45;&gt;Node16 -->
<g id="edge15" class="edge">
<title>Node1&#45;&gt;Node16</title>
<path fill="none" stroke="midnightblue" d="M260.31,-529.67C275.9,-531.66 292.93,-533.83 308.28,-535.79"/>
<polygon fill="midnightblue" stroke="midnightblue" points="260.66,-526.19 250.3,-528.39 259.78,-533.13 260.66,-526.19"/>
</g>
<!-- Node17 -->
<g id="node17" class="node">
<title>Node17</title>
<g id="a_node17"><a xlink:href="classKadath_1_1Ope__grad.html" target="_top" xlink:title=" ">
<polygon fill="none" stroke="black" points="311,-494.5 311,-513.5 405,-513.5 405,-494.5 311,-494.5"/>
<text text-anchor="middle" x="358" y="-501.5" font-family="Helvetica,sans-Serif" font-size="10.00">Kadath::Ope_grad</text>
</a>
</g>
</g>
<!-- Node1&#45;&gt;Node17 -->
<g id="edge16" class="edge">
<title>Node1&#45;&gt;Node17</title>
<path fill="none" stroke="midnightblue" d="M260.33,-516.33C276.83,-514.22 294.91,-511.92 310.94,-509.87"/>
<polygon fill="midnightblue" stroke="midnightblue" points="259.78,-512.87 250.3,-517.61 260.66,-519.81 259.78,-512.87"/>
</g>
<!-- Node18 -->
<g id="node18" class="node">
<title>Node18</title>
<g id="a_node18"><a xlink:href="classKadath_1_1Ope__id.html" target="_top" xlink:title=" ">
<polygon fill="none" stroke="black" points="316.5,-456.5 316.5,-475.5 399.5,-475.5 399.5,-456.5 316.5,-456.5"/>
<text text-anchor="middle" x="358" y="-463.5" font-family="Helvetica,sans-Serif" font-size="10.00">Kadath::Ope_id</text>
</a>
</g>
</g>
<!-- Node1&#45;&gt;Node18 -->
<g id="edge17" class="edge">
<title>Node1&#45;&gt;Node18</title>
<path fill="none" stroke="midnightblue" d="M234.33,-508.6C249.2,-500.88 268.29,-491.61 286,-485 295.68,-481.38 306.35,-478.15 316.4,-475.43"/>
<polygon fill="midnightblue" stroke="midnightblue" points="232.44,-505.64 225.23,-513.41 235.71,-511.83 232.44,-505.64"/>
</g>
<!-- Node19 -->
<g id="node19" class="node">
<title>Node19</title>
<g id="a_node19"><a xlink:href="classKadath_1_1Ope__int.html" target="_top" xlink:title=" ">
<polygon fill="none" stroke="black" points="315,-418.5 315,-437.5 401,-437.5 401,-418.5 315,-418.5"/>
<text text-anchor="middle" x="358" y="-425.5" font-family="Helvetica,sans-Serif" font-size="10.00">Kadath::Ope_int</text>
</a>
</g>
</g>
<!-- Node1&#45;&gt;Node19 -->
<g id="edge18" class="edge">
<title>Node1&#45;&gt;Node19</title>
<path fill="none" stroke="midnightblue" d="M221.56,-505.29C235.78,-487.93 259.69,-461.96 286,-447 294.76,-442.02 304.88,-438.3 314.68,-435.54"/>
<polygon fill="midnightblue" stroke="midnightblue" points="218.53,-503.48 215.05,-513.48 224.01,-507.83 218.53,-503.48"/>
</g>
<!-- Node20 -->
<g id="node20" class="node">
<title>Node20</title>
<g id="a_node20"><a xlink:href="classKadath_1_1Ope__int__volume.html" target="_top" xlink:title=" ">
<polygon fill="none" stroke="black" points="297,-380.5 297,-399.5 419,-399.5 419,-380.5 297,-380.5"/>
<text text-anchor="middle" x="358" y="-387.5" font-family="Helvetica,sans-Serif" font-size="10.00">Kadath::Ope_int_volume</text>
</a>
</g>
</g>
<!-- Node1&#45;&gt;Node20 -->
<g id="edge19" class="edge">
<title>Node1&#45;&gt;Node20</title>
<path fill="none" stroke="midnightblue" d="M215.87,-503.99C227.42,-478.46 251.42,-433.48 286,-409 291.52,-405.09 297.8,-401.99 304.28,-399.52"/>
<polygon fill="midnightblue" stroke="midnightblue" points="212.59,-502.77 211.81,-513.33 219,-505.56 212.59,-502.77"/>
</g>
<!-- Node21 -->
<g id="node21" class="node">
<title>Node21</title>
<g id="a_node21"><a xlink:href="classKadath_1_1Ope__lap.html" target="_top" xlink:title=" ">
<polygon fill="none" stroke="black" points="314,-342.5 314,-361.5 402,-361.5 402,-342.5 314,-342.5"/>
<text text-anchor="middle" x="358" y="-349.5" font-family="Helvetica,sans-Serif" font-size="10.00">Kadath::Ope_lap</text>
</a>
</g>
</g>
<!-- Node1&#45;&gt;Node21 -->
<g id="edge20" class="edge">
<title>Node1&#45;&gt;Node21</title>
<path fill="none" stroke="midnightblue" d="M212.54,-503.4C221.12,-470.85 242.85,-405.83 286,-371 293.94,-364.59 303.86,-360.33 313.73,-357.5"/>
<polygon fill="midnightblue" stroke="midnightblue" points="209.06,-502.9 210.04,-513.45 215.85,-504.59 209.06,-502.9"/>
</g>
<!-- Node22 -->
<g id="node22" class="node">
<title>Node22</title>
<g id="a_node22"><a xlink:href="classKadath_1_1Ope__lap2.html" target="_top" xlink:title=" ">
<polygon fill="none" stroke="black" points="311.5,-304.5 311.5,-323.5 404.5,-323.5 404.5,-304.5 311.5,-304.5"/>
<text text-anchor="middle" x="358" y="-311.5" font-family="Helvetica,sans-Serif" font-size="10.00">Kadath::Ope_lap2</text>
</a>
</g>
</g>
<!-- Node1&#45;&gt;Node22 -->
<g id="edge21" class="edge">
<title>Node1&#45;&gt;Node22</title>
<path fill="none" stroke="midnightblue" d="M210.3,-503.47C215.9,-464.92 233.85,-378.87 286,-333 293.19,-326.68 302.26,-322.43 311.49,-319.58"/>
<polygon fill="midnightblue" stroke="midnightblue" points="206.83,-503.03 208.98,-513.4 213.77,-503.95 206.83,-503.03"/>
</g>
<!-- Node23 -->
<g id="node23" class="node">
<title>Node23</title>
<g id="a_node23"><a xlink:href="classKadath_1_1Ope__minus.html" target="_top" xlink:title=" ">
<polygon fill="none" stroke="black" points="307.5,-266.5 307.5,-285.5 408.5,-285.5 408.5,-266.5 307.5,-266.5"/>
<text text-anchor="middle" x="358" y="-273.5" font-family="Helvetica,sans-Serif" font-size="10.00">Kadath::Ope_minus</text>
</a>
</g>
</g>
<!-- Node1&#45;&gt;Node23 -->
<g id="edge22" class="edge">
<title>Node1&#45;&gt;Node23</title>
<path fill="none" stroke="midnightblue" d="M208.8,-502.99C211.69,-458.74 224.97,-352.01 286,-295 291.97,-289.43 299.39,-285.45 307.16,-282.62"/>
<polygon fill="midnightblue" stroke="midnightblue" points="205.3,-502.88 208.26,-513.05 212.29,-503.26 205.3,-502.88"/>
</g>
<!-- Node24 -->
<g id="node24" class="node">
<title>Node24</title>
<g id="a_node24"><a xlink:href="classKadath_1_1Ope__mult.html" target="_top" xlink:title=" ">
<polygon fill="none" stroke="black" points="311,-228.5 311,-247.5 405,-247.5 405,-228.5 311,-228.5"/>
<text text-anchor="middle" x="358" y="-235.5" font-family="Helvetica,sans-Serif" font-size="10.00">Kadath::Ope_mult</text>
</a>
</g>
</g>
<!-- Node1&#45;&gt;Node24 -->
<g id="edge23" class="edge">
<title>Node1&#45;&gt;Node24</title>
<path fill="none" stroke="midnightblue" d="M207.65,-503.12C207.92,-453.95 215.71,-325.64 286,-257 292.85,-250.31 301.78,-245.91 310.98,-243.04"/>
<polygon fill="midnightblue" stroke="midnightblue" points="204.15,-503.37 207.7,-513.35 211.15,-503.33 204.15,-503.37"/>
</g>
<!-- Node25 -->
<g id="node25" class="node">
<title>Node25</title>
<g id="a_node25"><a xlink:href="classKadath_1_1Ope__mult__r.html" target="_top" xlink:title=" ">
<polygon fill="none" stroke="black" points="307,-190.5 307,-209.5 409,-209.5 409,-190.5 307,-190.5"/>
<text text-anchor="middle" x="358" y="-197.5" font-family="Helvetica,sans-Serif" font-size="10.00">Kadath::Ope_mult_r</text>
</a>
</g>
</g>
<!-- Node1&#45;&gt;Node25 -->
<g id="edge24" class="edge">
<title>Node1&#45;&gt;Node25</title>
<path fill="none" stroke="midnightblue" d="M210.48,-503.06C218.46,-442.13 245.31,-260.11 286,-219 291.74,-213.2 299.05,-209.11 306.79,-206.24"/>
<polygon fill="midnightblue" stroke="midnightblue" points="206.98,-502.89 209.18,-513.26 213.92,-503.78 206.98,-502.89"/>
</g>
<!-- Node26 -->
<g id="node26" class="node">
<title>Node26</title>
<g id="a_node26"><a xlink:href="classKadath_1_1Ope__mult__x.html" target="_top" xlink:title=" ">
<polygon fill="none" stroke="black" points="306,-152.5 306,-171.5 410,-171.5 410,-152.5 306,-152.5"/>
<text text-anchor="middle" x="358" y="-159.5" font-family="Helvetica,sans-Serif" font-size="10.00">Kadath::Ope_mult_x</text>
</a>
</g>
</g>
<!-- Node1&#45;&gt;Node26 -->
<g id="edge25" class="edge">
<title>Node1&#45;&gt;Node26</title>
<path fill="none" stroke="midnightblue" d="M209.86,-503.2C216.42,-437.49 240.56,-228.17 286,-181 291.49,-175.3 298.48,-171.25 305.93,-168.38"/>
<polygon fill="midnightblue" stroke="midnightblue" points="206.35,-503.12 208.87,-513.42 213.32,-503.8 206.35,-503.12"/>
</g>
<!-- Node27 -->
<g id="node27" class="node">
<title>Node27</title>
<g id="a_node27"><a xlink:href="classKadath_1_1Ope__pow.html" target="_top" xlink:title=" ">
<polygon fill="none" stroke="black" points="311.5,-114.5 311.5,-133.5 404.5,-133.5 404.5,-114.5 311.5,-114.5"/>
<text text-anchor="middle" x="358" y="-121.5" font-family="Helvetica,sans-Serif" font-size="10.00">Kadath::Ope_pow</text>
</a>
</g>
</g>
<!-- Node1&#45;&gt;Node27 -->
<g id="edge26" class="edge">
<title>Node1&#45;&gt;Node27</title>
<path fill="none" stroke="midnightblue" d="M209.36,-503.32C214.61,-433.1 235.79,-196.27 286,-143 292.74,-135.85 301.85,-131.28 311.29,-128.39"/>
<polygon fill="midnightblue" stroke="midnightblue" points="205.86,-503.21 208.63,-513.44 212.84,-503.71 205.86,-503.21"/>
</g>
<!-- Node28 -->
<g id="node28" class="node">
<title>Node28</title>
<g id="a_node28"><a xlink:href="classKadath_1_1Ope__scal.html" target="_top" xlink:title=" ">
<polygon fill="none" stroke="black" points="311.5,-76.5 311.5,-95.5 404.5,-95.5 404.5,-76.5 311.5,-76.5"/>
<text text-anchor="middle" x="358" y="-83.5" font-family="Helvetica,sans-Serif" font-size="10.00">Kadath::Ope_scal</text>
</a>
</g>
</g>
<!-- Node1&#45;&gt;Node28 -->
<g id="edge27" class="edge">
<title>Node1&#45;&gt;Node28</title>
<path fill="none" stroke="midnightblue" d="M208.99,-502.83C213.08,-427.56 231.13,-164.26 286,-105 292.67,-97.79 301.76,-93.2 311.2,-90.3"/>
<polygon fill="midnightblue" stroke="midnightblue" points="205.47,-503.07 208.45,-513.24 212.46,-503.44 205.47,-503.07"/>
</g>
<!-- Node29 -->
<g id="node29" class="node">
<title>Node29</title>
<g id="a_node29"><a xlink:href="classKadath_1_1Ope__srdr.html" target="_top" xlink:title=" ">
<polygon fill="none" stroke="black" points="312,-38.5 312,-57.5 404,-57.5 404,-38.5 312,-38.5"/>
<text text-anchor="middle" x="358" y="-45.5" font-family="Helvetica,sans-Serif" font-size="10.00">Kadath::Ope_srdr</text>
</a>
</g>
</g>
<!-- Node1&#45;&gt;Node29 -->
<g id="edge28" class="edge">
<title>Node1&#45;&gt;Node29</title>
<path fill="none" stroke="midnightblue" d="M208.64,-503.06C211.57,-423.84 226.29,-132.47 286,-67 292.79,-59.55 302.15,-54.89 311.85,-52.01"/>
<polygon fill="midnightblue" stroke="midnightblue" points="205.13,-503.04 208.29,-513.16 212.13,-503.28 205.13,-503.04"/>
</g>
<!-- Node30 -->
<g id="node30" class="node">
<title>Node30</title>
<g id="a_node30"><a xlink:href="classKadath_1_1Ope__sub.html" target="_top" xlink:title=" ">
<polygon fill="none" stroke="black" points="312.5,-0.5 312.5,-19.5 403.5,-19.5 403.5,-0.5 312.5,-0.5"/>
<text text-anchor="middle" x="358" y="-7.5" font-family="Helvetica,sans-Serif" font-size="10.00">Kadath::Ope_sub</text>
</a>
</g>
</g>
<!-- Node1&#45;&gt;Node30 -->
<g id="edge29" class="edge">
<title>Node1&#45;&gt;Node30</title>
<path fill="none" stroke="midnightblue" d="M208.35,-503.03C210.21,-419.68 221.5,-100.65 286,-29 292.83,-21.41 302.32,-16.71 312.15,-13.84"/>
<polygon fill="midnightblue" stroke="midnightblue" points="204.85,-503.1 208.14,-513.17 211.84,-503.24 204.85,-503.1"/>
</g>
<!-- Node2 -->
<g id="node2" class="node">
<title>Node2</title>
<g id="a_node2"><a xlink:href="structKadath_1_1MemoryMappable.html" target="_top" xlink:title=" ">
<polygon fill="none" stroke="black" points="0,-513.5 0,-532.5 128,-532.5 128,-513.5 0,-513.5"/>
<text text-anchor="middle" x="64" y="-520.5" font-family="Helvetica,sans-Serif" font-size="10.00">Kadath::MemoryMappable</text>
</a>
</g>
</g>
<!-- Node2&#45;&gt;Node1 -->
<g id="edge1" class="edge">
<title>Node2&#45;&gt;Node1</title>
<path fill="none" stroke="midnightblue" d="M138.26,-523C146.94,-523 155.56,-523 163.61,-523"/>
<polygon fill="midnightblue" stroke="midnightblue" points="138.08,-519.5 128.08,-523 138.08,-526.5 138.08,-519.5"/>
</g>
</g>
</svg>
