<?xml version="1.0" encoding="UTF-8" standalone="no"?>
<!DOCTYPE svg PUBLIC "-//W3C//DTD SVG 1.1//EN"
 "http://www.w3.org/Graphics/SVG/1.1/DTD/svg11.dtd">
<!-- Generated by graphviz version 2.47.1 (20210515.0534)
 -->
<!-- Title: Kadath::Ope_eq Pages: 1 -->
<svg width="2106pt" height="841pt"
 viewBox="0.00 0.00 2106.00 841.00" xmlns="http://www.w3.org/2000/svg" xmlns:xlink="http://www.w3.org/1999/xlink">
<g id="graph0" class="graph" transform="scale(1 1) rotate(0) translate(4 837)">
<title>Kadath::Ope_eq</title>
<!-- Node1 -->
<g id="node1" class="node">
<title>Node1</title>
<g id="a_node1"><a xlink:title=" ">
<polygon fill="#bfbfbf" stroke="black" points="828,-659.5 828,-678.5 914,-678.5 914,-659.5 828,-659.5"/>
<text text-anchor="middle" x="871" y="-666.5" font-family="Helvetica,sans-Serif" font-size="10.00">Kadath::Ope_eq</text>
</a>
</g>
</g>
<!-- Node1&#45;&gt;Node1 -->
<g id="edge2" class="edge">
<title>Node1&#45;&gt;Node1</title>
<path fill="none" stroke="#9a32cd" stroke-dasharray="5,2" d="M856.27,-688.77C857.42,-693.5 862.34,-697 871,-697 885.22,-697 889.33,-687.57 883.33,-678.76"/>
<polygon fill="#9a32cd" stroke="#9a32cd" points="859.74,-689.3 858.67,-678.76 852.93,-687.66 859.74,-689.3"/>
<text text-anchor="middle" x="871" y="-700" font-family="Helvetica,sans-Serif" font-size="10.00"> parts</text>
</g>
<!-- Node4 -->
<g id="node4" class="node">
<title>Node4</title>
<g id="a_node4"><a xlink:href="classKadath_1_1Equation.html" target="_top" xlink:title=" ">
<polygon fill="none" stroke="black" points="990,-529.5 990,-548.5 1079,-548.5 1079,-529.5 990,-529.5"/>
<text text-anchor="middle" x="1034.5" y="-536.5" font-family="Helvetica,sans-Serif" font-size="10.00">Kadath::Equation</text>
</a>
</g>
</g>
<!-- Node1&#45;&gt;Node4 -->
<g id="edge8" class="edge">
<title>Node1&#45;&gt;Node4</title>
<path fill="none" stroke="#9a32cd" stroke-dasharray="5,2" d="M880.65,-650.3C890.57,-630.67 908.54,-600.07 932,-581 943.69,-571.5 979.62,-557.73 1005.41,-548.58"/>
<polygon fill="#9a32cd" stroke="#9a32cd" points="877.43,-648.92 876.21,-659.45 883.73,-651.98 877.43,-648.92"/>
<text text-anchor="middle" x="952" y="-584" font-family="Helvetica,sans-Serif" font-size="10.00"> parts</text>
</g>
<!-- Node11 -->
<g id="node11" class="node">
<title>Node11</title>
<g id="a_node11"><a xlink:href="classKadath_1_1Eq__int.html" target="_top" xlink:title=" ">
<polygon fill="none" stroke="black" points="995,-621.5 995,-640.5 1074,-640.5 1074,-621.5 995,-621.5"/>
<text text-anchor="middle" x="1034.5" y="-628.5" font-family="Helvetica,sans-Serif" font-size="10.00">Kadath::Eq_int</text>
</a>
</g>
</g>
<!-- Node1&#45;&gt;Node11 -->
<g id="edge25" class="edge">
<title>Node1&#45;&gt;Node11</title>
<path fill="none" stroke="#9a32cd" stroke-dasharray="5,2" d="M922.51,-657.11C945.92,-651.61 973.28,-645.17 994.98,-640.06"/>
<polygon fill="#9a32cd" stroke="#9a32cd" points="921.69,-653.71 912.75,-659.41 923.29,-660.53 921.69,-653.71"/>
<text text-anchor="middle" x="952" y="-657" font-family="Helvetica,sans-Serif" font-size="10.00"> parts</text>
</g>
<!-- Node21 -->
<g id="node21" class="node">
<title>Node21</title>
<g id="a_node21"><a xlink:href="classKadath_1_1Ope__def.html" target="_top" xlink:title=" ">
<polygon fill="none" stroke="black" points="1657,-453.5 1657,-472.5 1746,-472.5 1746,-453.5 1657,-453.5"/>
<text text-anchor="middle" x="1701.5" y="-460.5" font-family="Helvetica,sans-Serif" font-size="10.00">Kadath::Ope_def</text>
</a>
</g>
</g>
<!-- Node1&#45;&gt;Node21 -->
<g id="edge58" class="edge">
<title>Node1&#45;&gt;Node21</title>
<path fill="none" stroke="midnightblue" d="M896.15,-654.34C919.34,-640.99 955.81,-621.9 990,-612 1207.85,-548.9 1278.25,-613.88 1497,-554 1569.79,-534.07 1649.76,-491.7 1683.74,-472.64"/>
<polygon fill="midnightblue" stroke="midnightblue" points="894.21,-651.41 887.35,-659.49 897.75,-657.45 894.21,-651.41"/>
</g>
<!-- Node2 -->
<g id="node2" class="node">
<title>Node2</title>
<g id="a_node2"><a xlink:href="structKadath_1_1MemoryMappable.html" target="_top" xlink:title=" ">
<polygon fill="none" stroke="black" points="0,-486.5 0,-505.5 128,-505.5 128,-486.5 0,-486.5"/>
<text text-anchor="middle" x="64" y="-493.5" font-family="Helvetica,sans-Serif" font-size="10.00">Kadath::MemoryMappable</text>
</a>
</g>
</g>
<!-- Node2&#45;&gt;Node1 -->
<g id="edge1" class="edge">
<title>Node2&#45;&gt;Node1</title>
<path fill="none" stroke="midnightblue" d="M69.37,-515.61C78.03,-550.07 100.59,-621.62 146,-662 170.1,-683.44 182.24,-686 214.5,-686 214.5,-686 214.5,-686 702.5,-686 745.32,-686 793.99,-680.43 827.78,-675.67"/>
<polygon fill="midnightblue" stroke="midnightblue" points="72.76,-514.73 67.03,-505.82 65.95,-516.36 72.76,-514.73"/>
</g>
<!-- Node2&#45;&gt;Node4 -->
<g id="edge5" class="edge">
<title>Node2&#45;&gt;Node4</title>
<path fill="none" stroke="midnightblue" d="M91.15,-510.62C106.82,-519.12 127.28,-529.74 146,-538 202.26,-562.83 222.51,-547.23 284,-548 438.65,-549.95 477.34,-549.73 632,-548 762.2,-546.54 916.1,-542.42 989.84,-540.3"/>
<polygon fill="midnightblue" stroke="midnightblue" points="92.53,-507.39 82.07,-505.65 89.16,-513.52 92.53,-507.39"/>
</g>
<!-- Node5 -->
<g id="node5" class="node">
<title>Node5</title>
<g id="a_node5"><a xlink:href="classKadath_1_1Array.html" target="_top" xlink:title=" ">
<polygon fill="none" stroke="black" points="165,-273.5 165,-292.5 266,-292.5 266,-273.5 165,-273.5"/>
<text text-anchor="middle" x="215.5" y="-280.5" font-family="Helvetica,sans-Serif" font-size="10.00">Kadath::Array&lt; int &gt;</text>
</a>
</g>
</g>
<!-- Node2&#45;&gt;Node5 -->
<g id="edge7" class="edge">
<title>Node2&#45;&gt;Node5</title>
<path fill="none" stroke="midnightblue" d="M69.6,-476.45C78.74,-441.29 102.19,-366.71 146,-320 157.47,-307.78 173.9,-298.71 187.79,-292.62"/>
<polygon fill="midnightblue" stroke="midnightblue" points="66.14,-475.85 67.13,-486.4 72.94,-477.54 66.14,-475.85"/>
</g>
<!-- Node6 -->
<g id="node6" class="node">
<title>Node6</title>
<g id="a_node6"><a xlink:href="classKadath_1_1Domain.html" target="_top" xlink:title=" ">
<polygon fill="none" stroke="black" points="828.5,-412.5 828.5,-431.5 913.5,-431.5 913.5,-412.5 828.5,-412.5"/>
<text text-anchor="middle" x="871" y="-419.5" font-family="Helvetica,sans-Serif" font-size="10.00">Kadath::Domain</text>
</a>
</g>
</g>
<!-- Node2&#45;&gt;Node6 -->
<g id="edge10" class="edge">
<title>Node2&#45;&gt;Node6</title>
<path fill="none" stroke="midnightblue" d="M97.34,-509.18C127.22,-520.15 173.12,-534 214.5,-534 214.5,-534 214.5,-534 593,-534 664.91,-534 686.68,-537.79 753,-510 776.32,-500.22 834.09,-452.47 858.65,-431.69"/>
<polygon fill="midnightblue" stroke="midnightblue" points="98.44,-505.85 87.85,-505.59 95.96,-512.4 98.44,-505.85"/>
</g>
<!-- Node7 -->
<g id="node7" class="node">
<title>Node7</title>
<g id="a_node7"><a xlink:href="classKadath_1_1Dim__array.html" target="_top" xlink:title=" ">
<polygon fill="none" stroke="black" points="168,-600.5 168,-619.5 263,-619.5 263,-600.5 168,-600.5"/>
<text text-anchor="middle" x="215.5" y="-607.5" font-family="Helvetica,sans-Serif" font-size="10.00">Kadath::Dim_array</text>
</a>
</g>
</g>
<!-- Node2&#45;&gt;Node7 -->
<g id="edge12" class="edge">
<title>Node2&#45;&gt;Node7</title>
<path fill="none" stroke="midnightblue" d="M76.87,-513.88C91.1,-534.03 116.72,-566.5 146,-586 155.23,-592.15 166.21,-596.9 176.64,-600.5"/>
<polygon fill="midnightblue" stroke="midnightblue" points="79.72,-511.84 71.17,-505.58 73.95,-515.81 79.72,-511.84"/>
</g>
<!-- Node8 -->
<g id="node8" class="node">
<title>Node8</title>
<g id="a_node8"><a xlink:href="classKadath_1_1Array.html" target="_top" xlink:title=" ">
<polygon fill="none" stroke="black" points="415,-414.5 415,-433.5 534,-433.5 534,-414.5 415,-414.5"/>
<text text-anchor="middle" x="474.5" y="-421.5" font-family="Helvetica,sans-Serif" font-size="10.00">Kadath::Array&lt; double &gt;</text>
</a>
</g>
</g>
<!-- Node2&#45;&gt;Node8 -->
<g id="edge14" class="edge">
<title>Node2&#45;&gt;Node8</title>
<path fill="none" stroke="midnightblue" d="M129.19,-484.69C209.16,-470.59 344.38,-446.76 419.36,-433.54"/>
<polygon fill="midnightblue" stroke="midnightblue" points="128.49,-481.26 119.25,-486.44 129.7,-488.15 128.49,-481.26"/>
</g>
<!-- Node9 -->
<g id="node9" class="node">
<title>Node9</title>
<g id="a_node9"><a xlink:href="classKadath_1_1Val__domain.html" target="_top" xlink:title=" ">
<polygon fill="none" stroke="black" points="650,-303.5 650,-322.5 753,-322.5 753,-303.5 650,-303.5"/>
<text text-anchor="middle" x="701.5" y="-310.5" font-family="Helvetica,sans-Serif" font-size="10.00">Kadath::Val_domain</text>
</a>
</g>
</g>
<!-- Node2&#45;&gt;Node9 -->
<g id="edge16" class="edge">
<title>Node2&#45;&gt;Node9</title>
<path fill="none" stroke="midnightblue" d="M96.28,-482.37C115.82,-474.13 141.62,-463.77 165,-456 345.58,-396.01 566.71,-343.37 657.99,-322.52"/>
<polygon fill="midnightblue" stroke="midnightblue" points="94.79,-479.2 86.96,-486.33 97.53,-485.64 94.79,-479.2"/>
</g>
<!-- Node10 -->
<g id="node10" class="node">
<title>Node10</title>
<g id="a_node10"><a xlink:href="classKadath_1_1Base__spectral.html" target="_top" xlink:title=" ">
<polygon fill="none" stroke="black" points="417.5,-303.5 417.5,-322.5 531.5,-322.5 531.5,-303.5 417.5,-303.5"/>
<text text-anchor="middle" x="474.5" y="-310.5" font-family="Helvetica,sans-Serif" font-size="10.00">Kadath::Base_spectral</text>
</a>
</g>
</g>
<!-- Node2&#45;&gt;Node10 -->
<g id="edge20" class="edge">
<title>Node2&#45;&gt;Node10</title>
<path fill="none" stroke="midnightblue" d="M70.47,-476.3C80.15,-445.48 103.39,-386.42 146,-358 168.11,-343.25 329.72,-326.28 417.35,-318.03"/>
<polygon fill="midnightblue" stroke="midnightblue" points="67,-475.69 67.51,-486.28 73.71,-477.69 67,-475.69"/>
</g>
<!-- Node2&#45;&gt;Node11 -->
<g id="edge24" class="edge">
<title>Node2&#45;&gt;Node11</title>
<path fill="none" stroke="midnightblue" d="M72.81,-514.87C91.05,-555.58 140.61,-648 214.5,-648 214.5,-648 214.5,-648 593,-648 741.66,-648 918.34,-638.21 994.92,-633.49"/>
<polygon fill="midnightblue" stroke="midnightblue" points="75.94,-513.3 68.76,-505.51 69.52,-516.08 75.94,-513.3"/>
</g>
<!-- Node12 -->
<g id="node12" class="node">
<title>Node12</title>
<g id="a_node12"><a xlink:href="classKadath_1_1Space.html" target="_top" xlink:title=" ">
<polygon fill="none" stroke="black" points="994.5,-171.5 994.5,-190.5 1074.5,-190.5 1074.5,-171.5 994.5,-171.5"/>
<text text-anchor="middle" x="1034.5" y="-178.5" font-family="Helvetica,sans-Serif" font-size="10.00">Kadath::Space</text>
</a>
</g>
</g>
<!-- Node2&#45;&gt;Node12 -->
<g id="edge27" class="edge">
<title>Node2&#45;&gt;Node12</title>
<path fill="none" stroke="midnightblue" d="M67.08,-476.33C74.44,-410.16 101.25,-196.91 146,-147 167.53,-122.98 182.24,-123 214.5,-123 214.5,-123 214.5,-123 791.5,-123 873.59,-123 967.13,-154.95 1009.91,-171.42"/>
<polygon fill="midnightblue" stroke="midnightblue" points="63.6,-475.96 66,-486.28 70.56,-476.72 63.6,-475.96"/>
</g>
<!-- Node13 -->
<g id="node13" class="node">
<title>Node13</title>
<g id="a_node13"><a xlink:href="classKadath_1_1Index.html" target="_top" xlink:title=" ">
<polygon fill="none" stroke="black" points="437,-726.5 437,-745.5 512,-745.5 512,-726.5 437,-726.5"/>
<text text-anchor="middle" x="474.5" y="-733.5" font-family="Helvetica,sans-Serif" font-size="10.00">Kadath::Index</text>
</a>
</g>
</g>
<!-- Node2&#45;&gt;Node13 -->
<g id="edge30" class="edge">
<title>Node2&#45;&gt;Node13</title>
<path fill="none" stroke="midnightblue" d="M66.36,-515.72C70.37,-557.38 86.03,-654.3 146,-700 232.56,-765.96 371.34,-753.76 436.92,-743.15"/>
<polygon fill="midnightblue" stroke="midnightblue" points="69.84,-515.4 65.52,-505.73 62.87,-515.99 69.84,-515.4"/>
</g>
<!-- Node14 -->
<g id="node14" class="node">
<title>Node14</title>
<g id="a_node14"><a xlink:href="classKadath_1_1Param.html" target="_top" xlink:title=" ">
<polygon fill="none" stroke="black" points="552,-773.5 552,-792.5 632,-792.5 632,-773.5 552,-773.5"/>
<text text-anchor="middle" x="592" y="-780.5" font-family="Helvetica,sans-Serif" font-size="10.00">Kadath::Param</text>
</a>
</g>
</g>
<!-- Node2&#45;&gt;Node14 -->
<g id="edge34" class="edge">
<title>Node2&#45;&gt;Node14</title>
<path fill="none" stroke="midnightblue" d="M65.94,-515.91C69.46,-564.89 86.15,-691.03 165,-743 286.57,-823.12 471.7,-804 551.8,-790.64"/>
<polygon fill="midnightblue" stroke="midnightblue" points="69.42,-515.46 65.32,-505.69 62.43,-515.89 69.42,-515.46"/>
</g>
<!-- Node15 -->
<g id="node15" class="node">
<title>Node15</title>
<g id="a_node15"><a xlink:href="classKadath_1_1Term__eq.html" target="_top" xlink:title=" ">
<polygon fill="none" stroke="black" points="1515,-264.5 1515,-283.5 1605,-283.5 1605,-264.5 1515,-264.5"/>
<text text-anchor="middle" x="1560" y="-271.5" font-family="Helvetica,sans-Serif" font-size="10.00">Kadath::Term_eq</text>
</a>
</g>
</g>
<!-- Node2&#45;&gt;Node15 -->
<g id="edge37" class="edge">
<title>Node2&#45;&gt;Node15</title>
<path fill="none" stroke="midnightblue" d="M69.43,-476.09C79.78,-433.2 109.06,-330.58 165,-264 205.68,-215.58 223.4,-204.09 284,-186 433.04,-141.51 478.94,-195.35 632,-223 719.49,-238.81 739.66,-252.95 828,-263 1108.5,-294.9 1180.71,-275.44 1463,-279 1478.11,-279.19 1481.9,-279.61 1497,-279 1502.83,-278.77 1508.95,-278.41 1515,-277.99"/>
<polygon fill="midnightblue" stroke="midnightblue" points="65.96,-475.56 67.1,-486.09 72.77,-477.14 65.96,-475.56"/>
</g>
<!-- Node16 -->
<g id="node16" class="node">
<title>Node16</title>
<g id="a_node16"><a xlink:href="classKadath_1_1Tensor.html" target="_top" xlink:title=" ">
<polygon fill="none" stroke="black" points="1363,-183.5 1363,-202.5 1445,-202.5 1445,-183.5 1363,-183.5"/>
<text text-anchor="middle" x="1404" y="-190.5" font-family="Helvetica,sans-Serif" font-size="10.00">Kadath::Tensor</text>
</a>
</g>
</g>
<!-- Node2&#45;&gt;Node16 -->
<g id="edge39" class="edge">
<title>Node2&#45;&gt;Node16</title>
<path fill="none" stroke="midnightblue" d="M66.48,-476C71.55,-413.71 91.11,-218.27 146,-67 160.53,-26.97 171.91,0 214.5,0 214.5,0 214.5,0 1248.5,0 1343.57,0 1389.79,-144.49 1400.52,-183.43"/>
<polygon fill="midnightblue" stroke="midnightblue" points="62.96,-476.1 65.67,-486.34 69.94,-476.64 62.96,-476.1"/>
</g>
<!-- Node18 -->
<g id="node18" class="node">
<title>Node18</title>
<g id="a_node18"><a xlink:href="classKadath_1_1Base__tensor.html" target="_top" xlink:title=" ">
<polygon fill="none" stroke="black" points="1194,-99.5 1194,-118.5 1301,-118.5 1301,-99.5 1194,-99.5"/>
<text text-anchor="middle" x="1247.5" y="-106.5" font-family="Helvetica,sans-Serif" font-size="10.00">Kadath::Base_tensor</text>
</a>
</g>
</g>
<!-- Node2&#45;&gt;Node18 -->
<g id="edge46" class="edge">
<title>Node2&#45;&gt;Node18</title>
<path fill="none" stroke="midnightblue" d="M66.49,-476.01C71.27,-420.54 89.34,-261.01 146,-143 163.27,-107.04 174.61,-85 214.5,-85 214.5,-85 214.5,-85 872,-85 986.99,-85 1121.44,-96.41 1193.85,-103.49"/>
<polygon fill="midnightblue" stroke="midnightblue" points="62.98,-475.97 65.67,-486.22 69.96,-476.53 62.98,-475.97"/>
</g>
<!-- Node19 -->
<g id="node19" class="node">
<title>Node19</title>
<g id="a_node19"><a xlink:href="classKadath_1_1Param__tensor.html" target="_top" xlink:title=" ">
<polygon fill="none" stroke="black" points="284,-36.5 284,-55.5 397,-55.5 397,-36.5 284,-36.5"/>
<text text-anchor="middle" x="340.5" y="-43.5" font-family="Helvetica,sans-Serif" font-size="10.00">Kadath::Param_tensor</text>
</a>
</g>
</g>
<!-- Node2&#45;&gt;Node19 -->
<g id="edge50" class="edge">
<title>Node2&#45;&gt;Node19</title>
<path fill="none" stroke="midnightblue" d="M65.8,-476.22C69.31,-400.11 85.93,-127.58 146,-71 182.25,-36.86 240.67,-33.68 283.85,-37.17"/>
<polygon fill="midnightblue" stroke="midnightblue" points="62.3,-476.19 65.36,-486.33 69.29,-476.5 62.3,-476.19"/>
</g>
<!-- Node20 -->
<g id="node20" class="node">
<title>Node20</title>
<g id="a_node20"><a xlink:href="classKadath_1_1Metric.html" target="_top" xlink:title=" ">
<polygon fill="none" stroke="black" points="2019,-444.5 2019,-463.5 2098,-463.5 2098,-444.5 2019,-444.5"/>
<text text-anchor="middle" x="2058.5" y="-451.5" font-family="Helvetica,sans-Serif" font-size="10.00">Kadath::Metric</text>
</a>
</g>
</g>
<!-- Node2&#45;&gt;Node20 -->
<g id="edge52" class="edge">
<title>Node2&#45;&gt;Node20</title>
<path fill="none" stroke="midnightblue" d="M64.68,-515.75C64.64,-587.9 74.76,-833 214.5,-833 214.5,-833 214.5,-833 1903.5,-833 1985.71,-833 2045.17,-523.07 2055.8,-463.75"/>
<polygon fill="midnightblue" stroke="midnightblue" points="68.18,-515.75 64.76,-505.72 61.18,-515.7 68.18,-515.75"/>
</g>
<!-- Node3 -->
<g id="node3" class="node">
<title>Node3</title>
<g id="a_node3"><a xlink:href="classKadath_1_1System__of__eqs.html" target="_top" xlink:title=" ">
<polygon fill="none" stroke="black" points="1843,-478.5 1843,-497.5 1962,-497.5 1962,-478.5 1843,-478.5"/>
<text text-anchor="middle" x="1902.5" y="-485.5" font-family="Helvetica,sans-Serif" font-size="10.00">Kadath::System_of_eqs</text>
</a>
</g>
</g>
<!-- Node3&#45;&gt;Node1 -->
<g id="edge3" class="edge">
<title>Node3&#45;&gt;Node1</title>
<path fill="none" stroke="#9a32cd" stroke-dasharray="5,2" d="M1893.7,-507.18C1871.79,-557.6 1804.53,-690 1702.5,-690 1033.5,-690 1033.5,-690 1033.5,-690 992.79,-690 946.77,-683.36 914.31,-677.54"/>
<polygon fill="#9a32cd" stroke="#9a32cd" points="1897.02,-508.32 1897.69,-497.74 1890.57,-505.59 1897.02,-508.32"/>
<text text-anchor="middle" x="1404" y="-693" font-family="Helvetica,sans-Serif" font-size="10.00"> syst</text>
</g>
<!-- Node3&#45;&gt;Node20 -->
<g id="edge54" class="edge">
<title>Node3&#45;&gt;Node20</title>
<path fill="none" stroke="#9a32cd" stroke-dasharray="5,2" d="M1928.06,-473.48C1942.62,-465.73 1961.74,-456.98 1980,-453 1992.49,-450.28 2006.38,-449.71 2018.92,-450.08"/>
<polygon fill="#9a32cd" stroke="#9a32cd" points="1926.27,-470.47 1919.21,-478.37 1929.65,-476.6 1926.27,-470.47"/>
<text text-anchor="middle" x="1990.5" y="-456" font-family="Helvetica,sans-Serif" font-size="10.00"> syst</text>
</g>
<!-- Node4&#45;&gt;Node3 -->
<g id="edge4" class="edge">
<title>Node4&#45;&gt;Node3</title>
<path fill="none" stroke="#9a32cd" stroke-dasharray="5,2" d="M1089.3,-539C1131.94,-539 1193.03,-539 1246.5,-539 1246.5,-539 1246.5,-539 1702.5,-539 1768.48,-539 1843.02,-512.37 1879.3,-497.59"/>
<polygon fill="#9a32cd" stroke="#9a32cd" points="1089.14,-535.5 1079.14,-539 1089.14,-542.5 1089.14,-535.5"/>
<text text-anchor="middle" x="1480" y="-542" font-family="Helvetica,sans-Serif" font-size="10.00"> eq</text>
</g>
<!-- Node5&#45;&gt;Node3 -->
<g id="edge32" class="edge">
<title>Node5&#45;&gt;Node3</title>
<path fill="none" stroke="#9a32cd" stroke-dasharray="5,2" d="M276.19,-279.33C375.69,-274.32 581.44,-268.58 753,-294 779.03,-297.86 784.85,-302.25 810,-310 864.67,-326.85 876.31,-337.92 932,-351 1239.85,-423.29 1324.89,-394.5 1639,-431 1686.58,-436.53 1698.96,-434.94 1746,-444 1781.67,-450.87 1790.04,-455.1 1825,-465 1840.08,-469.27 1856.75,-474.25 1870.67,-478.48"/>
<polygon fill="#9a32cd" stroke="#9a32cd" points="275.84,-275.85 266.04,-279.86 276.21,-282.84 275.84,-275.85"/>
<text text-anchor="middle" x="1136.5" y="-408" font-family="Helvetica,sans-Serif" font-size="10.00"> assoc_var</text>
<text text-anchor="middle" x="1136.5" y="-397" font-family="Helvetica,sans-Serif" font-size="10.00">assoc_var_double</text>
</g>
<!-- Node5&#45;&gt;Node4 -->
<g id="edge6" class="edge">
<title>Node5&#45;&gt;Node4</title>
<path fill="none" stroke="#9a32cd" stroke-dasharray="5,2" d="M231.72,-300.23C262.57,-333.91 336.25,-408.19 415,-443 519.11,-489.02 867.04,-524.01 990,-535.2"/>
<polygon fill="#9a32cd" stroke="#9a32cd" points="234.13,-297.67 224.83,-292.59 228.93,-302.36 234.13,-297.67"/>
<text text-anchor="middle" x="701.5" y="-523" font-family="Helvetica,sans-Serif" font-size="10.00"> n_cond</text>
<text text-anchor="middle" x="701.5" y="-512" font-family="Helvetica,sans-Serif" font-size="10.00">p_cmp_used</text>
</g>
<!-- Node5&#45;&gt;Node10 -->
<g id="edge21" class="edge">
<title>Node5&#45;&gt;Node10</title>
<path fill="none" stroke="#9a32cd" stroke-dasharray="5,2" d="M276.01,-289.95C318.61,-294.92 375.59,-301.57 417.4,-306.45"/>
<polygon fill="#9a32cd" stroke="#9a32cd" points="276.39,-286.47 266.05,-288.78 275.58,-293.42 276.39,-286.47"/>
<text text-anchor="middle" x="340.5" y="-306" font-family="Helvetica,sans-Serif" font-size="10.00"> bases_1d</text>
</g>
<!-- Node5&#45;&gt;Node16 -->
<g id="edge44" class="edge">
<title>Node5&#45;&gt;Node16</title>
<path fill="none" stroke="#9a32cd" stroke-dasharray="5,2" d="M251.39,-270.24C261.77,-266.82 273.25,-263.41 284,-261 366.84,-242.43 388.61,-237 473.5,-237 473.5,-237 473.5,-237 791.5,-237 962.45,-237 1005.57,-240.27 1176,-227 1251.52,-221.12 1270.31,-217.57 1345,-205 1350.78,-204.03 1356.86,-202.89 1362.82,-201.72"/>
<polygon fill="#9a32cd" stroke="#9a32cd" points="250.17,-266.96 241.83,-273.49 252.42,-273.58 250.17,-266.96"/>
<text text-anchor="middle" x="871" y="-251" font-family="Helvetica,sans-Serif" font-size="10.00"> give_indices</text>
<text text-anchor="middle" x="871" y="-240" font-family="Helvetica,sans-Serif" font-size="10.00">type_indice</text>
</g>
<!-- Node5&#45;&gt;Node18 -->
<g id="edge48" class="edge">
<title>Node5&#45;&gt;Node18</title>
<path fill="none" stroke="#9a32cd" stroke-dasharray="5,2" d="M230.85,-265.38C243.32,-251.38 262.7,-232.63 284,-223 449.87,-148.03 916.03,-142.6 1097,-123 1129.14,-119.52 1165.22,-116.13 1193.88,-113.55"/>
<polygon fill="#9a32cd" stroke="#9a32cd" points="227.86,-263.48 224.02,-273.35 233.18,-268.03 227.86,-263.48"/>
<text text-anchor="middle" x="790.5" y="-149" font-family="Helvetica,sans-Serif" font-size="10.00"> basis</text>
</g>
<!-- Node6&#45;&gt;Node4 -->
<g id="edge9" class="edge">
<title>Node6&#45;&gt;Node4</title>
<path fill="none" stroke="#9a32cd" stroke-dasharray="5,2" d="M893.51,-437.58C927.37,-462.11 992.14,-509.04 1020.1,-529.29"/>
<polygon fill="#9a32cd" stroke="#9a32cd" points="895.37,-434.61 885.22,-431.57 891.26,-440.28 895.37,-434.61"/>
<text text-anchor="middle" x="952" y="-497" font-family="Helvetica,sans-Serif" font-size="10.00"> dom</text>
</g>
<!-- Node6&#45;&gt;Node9 -->
<g id="edge22" class="edge">
<title>Node6&#45;&gt;Node9</title>
<path fill="none" stroke="#9a32cd" stroke-dasharray="5,2" d="M842.15,-406.89C836.84,-402.96 831.78,-398.31 828,-393 810.62,-368.57 832.54,-347.76 810,-328 794.62,-314.52 772.97,-309.78 753.12,-308.78"/>
<polygon fill="#9a32cd" stroke="#9a32cd" points="840.28,-409.85 850.54,-412.47 844.16,-404.02 840.28,-409.85"/>
<text text-anchor="middle" x="790.5" y="-331" font-family="Helvetica,sans-Serif" font-size="10.00"> zone</text>
</g>
<!-- Node6&#45;&gt;Node12 -->
<g id="edge28" class="edge">
<title>Node6&#45;&gt;Node12</title>
<path fill="none" stroke="#9a32cd" stroke-dasharray="5,2" d="M884.21,-403.78C916.41,-355.73 1002.77,-226.85 1027.06,-190.6"/>
<polygon fill="#9a32cd" stroke="#9a32cd" points="881.19,-402 878.53,-412.25 887.01,-405.9 881.19,-402"/>
<text text-anchor="middle" x="952" y="-333" font-family="Helvetica,sans-Serif" font-size="10.00"> domains</text>
</g>
<!-- Node7&#45;&gt;Node6 -->
<g id="edge11" class="edge">
<title>Node7&#45;&gt;Node6</title>
<path fill="none" stroke="#9a32cd" stroke-dasharray="5,2" d="M273.44,-615.81C375.58,-623.65 594.09,-628.47 753,-548 807.6,-520.35 849.78,-456.19 864.42,-431.72"/>
<polygon fill="#9a32cd" stroke="#9a32cd" points="273.58,-612.31 263.34,-615 273.02,-619.29 273.58,-612.31"/>
<text text-anchor="middle" x="592" y="-621" font-family="Helvetica,sans-Serif" font-size="10.00"> nbr_coefs</text>
<text text-anchor="middle" x="592" y="-610" font-family="Helvetica,sans-Serif" font-size="10.00">nbr_points</text>
</g>
<!-- Node7&#45;&gt;Node13 -->
<g id="edge31" class="edge">
<title>Node7&#45;&gt;Node13</title>
<path fill="none" stroke="#9a32cd" stroke-dasharray="5,2" d="M245.4,-624.17C298.26,-650.08 409.18,-704.46 454.04,-726.46"/>
<polygon fill="#9a32cd" stroke="#9a32cd" points="246.76,-620.94 236.24,-619.68 243.68,-627.22 246.76,-620.94"/>
<text text-anchor="middle" x="340.5" y="-698" font-family="Helvetica,sans-Serif" font-size="10.00"> sizes</text>
</g>
<!-- Node8&#45;&gt;Node3 -->
<g id="edge35" class="edge">
<title>Node8&#45;&gt;Node3</title>
<path fill="none" stroke="#9a32cd" stroke-dasharray="5,2" d="M544.64,-429.7C679.51,-440.3 987.23,-462 1246.5,-462 1246.5,-462 1246.5,-462 1481,-462 1559.73,-462 1578.53,-475.71 1657,-482 1704.46,-485.8 1716.41,-485.72 1764,-487 1789.89,-487.7 1818.54,-487.98 1842.95,-488.08"/>
<polygon fill="#9a32cd" stroke="#9a32cd" points="544.7,-426.19 534.45,-428.89 544.15,-433.17 544.7,-426.19"/>
<text text-anchor="middle" x="1247.5" y="-465" font-family="Helvetica,sans-Serif" font-size="10.00"> val_cst_hard</text>
</g>
<!-- Node8&#45;&gt;Node6 -->
<g id="edge13" class="edge">
<title>Node8&#45;&gt;Node6</title>
<path fill="none" stroke="#9a32cd" stroke-dasharray="5,2" d="M544.42,-418.28C600.57,-414.34 681.9,-410.27 753,-413 778.04,-413.96 806.03,-416.08 828.35,-418.02"/>
<polygon fill="#9a32cd" stroke="#9a32cd" points="543.96,-414.81 534.24,-419.01 544.46,-421.79 543.96,-414.81"/>
<text text-anchor="middle" x="701.5" y="-416" font-family="Helvetica,sans-Serif" font-size="10.00"> coloc</text>
</g>
<!-- Node8&#45;&gt;Node9 -->
<g id="edge17" class="edge">
<title>Node8&#45;&gt;Node9</title>
<path fill="none" stroke="#9a32cd" stroke-dasharray="5,2" d="M496.27,-408.34C511.15,-397.73 532.01,-384.04 552,-375 585.71,-359.75 597.91,-366.36 632,-352 651.55,-343.76 672.54,-331.2 686.05,-322.58"/>
<polygon fill="#9a32cd" stroke="#9a32cd" points="493.87,-405.76 487.85,-414.48 497.99,-411.42 493.87,-405.76"/>
<text text-anchor="middle" x="592" y="-389" font-family="Helvetica,sans-Serif" font-size="10.00"> c</text>
<text text-anchor="middle" x="592" y="-378" font-family="Helvetica,sans-Serif" font-size="10.00">cf</text>
</g>
<!-- Node9&#45;&gt;Node6 -->
<g id="edge15" class="edge">
<title>Node9&#45;&gt;Node6</title>
<path fill="none" stroke="#9a32cd" stroke-dasharray="5,2" d="M736.31,-326.57C763.28,-337.83 798.41,-353.64 810,-364 821.31,-374.11 817.54,-382.01 828,-393 835.21,-400.57 844.7,-407.32 852.83,-412.4"/>
<polygon fill="#9a32cd" stroke="#9a32cd" points="737.38,-323.22 726.8,-322.64 734.7,-329.69 737.38,-323.22"/>
<text text-anchor="middle" x="790.5" y="-400" font-family="Helvetica,sans-Serif" font-size="10.00"> absol</text>
<text text-anchor="middle" x="790.5" y="-389" font-family="Helvetica,sans-Serif" font-size="10.00">cart</text>
<text text-anchor="middle" x="790.5" y="-378" font-family="Helvetica,sans-Serif" font-size="10.00">cart_surr</text>
<text text-anchor="middle" x="790.5" y="-367" font-family="Helvetica,sans-Serif" font-size="10.00">radius</text>
</g>
<!-- Node9&#45;&gt;Node9 -->
<g id="edge18" class="edge">
<title>Node9&#45;&gt;Node9</title>
<path fill="none" stroke="#9a32cd" stroke-dasharray="5,2" d="M685.2,-332.4C686.29,-337.31 691.72,-341 701.5,-341 717.14,-341 721.66,-331.57 715.06,-322.76"/>
<polygon fill="#9a32cd" stroke="#9a32cd" points="688.58,-333.33 687.94,-322.76 681.84,-331.42 688.58,-333.33"/>
<text text-anchor="middle" x="701.5" y="-355" font-family="Helvetica,sans-Serif" font-size="10.00"> p_der_abs</text>
<text text-anchor="middle" x="701.5" y="-344" font-family="Helvetica,sans-Serif" font-size="10.00">p_der_var</text>
</g>
<!-- Node17 -->
<g id="node17" class="node">
<title>Node17</title>
<g id="a_node17"><a xlink:href="classKadath_1_1Scalar.html" target="_top" xlink:title=" ">
<polygon fill="none" stroke="black" points="1520,-226.5 1520,-245.5 1600,-245.5 1600,-226.5 1520,-226.5"/>
<text text-anchor="middle" x="1560" y="-233.5" font-family="Helvetica,sans-Serif" font-size="10.00">Kadath::Scalar</text>
</a>
</g>
</g>
<!-- Node9&#45;&gt;Node17 -->
<g id="edge43" class="edge">
<title>Node9&#45;&gt;Node17</title>
<path fill="none" stroke="#9a32cd" stroke-dasharray="5,2" d="M763.36,-307.39C765.94,-307.24 768.5,-307.11 771,-307 788.32,-306.24 792.76,-305.25 810,-307 910.32,-317.17 932.67,-346 1033.5,-346 1033.5,-346 1033.5,-346 1405,-346 1455.58,-346 1460.98,-314.52 1497,-279 1506.49,-269.64 1504.53,-263.25 1515,-255 1519.71,-251.29 1525.24,-248.17 1530.78,-245.59"/>
<polygon fill="#9a32cd" stroke="#9a32cd" points="763.09,-303.9 753.34,-308.05 763.55,-310.89 763.09,-303.9"/>
<text text-anchor="middle" x="1136.5" y="-349" font-family="Helvetica,sans-Serif" font-size="10.00"> val_zones</text>
</g>
<!-- Node10&#45;&gt;Node9 -->
<g id="edge19" class="edge">
<title>Node10&#45;&gt;Node9</title>
<path fill="none" stroke="#9a32cd" stroke-dasharray="5,2" d="M542.13,-313C576.53,-313 617.83,-313 649.63,-313"/>
<polygon fill="#9a32cd" stroke="#9a32cd" points="541.7,-309.5 531.7,-313 541.7,-316.5 541.7,-309.5"/>
<text text-anchor="middle" x="592" y="-316" font-family="Helvetica,sans-Serif" font-size="10.00"> base</text>
</g>
<!-- Node11&#45;&gt;Node3 -->
<g id="edge23" class="edge">
<title>Node11&#45;&gt;Node3</title>
<path fill="none" stroke="#9a32cd" stroke-dasharray="5,2" d="M1084.52,-629.54C1127.28,-628.4 1190.99,-627 1246.5,-627 1246.5,-627 1246.5,-627 1702.5,-627 1793.11,-627 1871.88,-528.96 1894.79,-497.55"/>
<polygon fill="#9a32cd" stroke="#9a32cd" points="1084.29,-626.05 1074.38,-629.82 1084.48,-633.05 1084.29,-626.05"/>
<text text-anchor="middle" x="1480" y="-630" font-family="Helvetica,sans-Serif" font-size="10.00"> eq_int</text>
</g>
<!-- Node12&#45;&gt;Node3 -->
<g id="edge26" class="edge">
<title>Node12&#45;&gt;Node3</title>
<path fill="none" stroke="#9a32cd" stroke-dasharray="5,2" d="M1074.82,-193.62C1172.65,-224.79 1435.1,-307.12 1657,-365 1731.07,-384.32 1758.96,-364.29 1825,-403 1857.88,-422.28 1884.47,-460.45 1895.71,-478.33"/>
<polygon fill="#9a32cd" stroke="#9a32cd" points="1075.65,-190.21 1065.06,-190.5 1073.53,-196.88 1075.65,-190.21"/>
<text text-anchor="middle" x="1480" y="-323" font-family="Helvetica,sans-Serif" font-size="10.00"> espace</text>
</g>
<!-- Node12&#45;&gt;Node16 -->
<g id="edge40" class="edge">
<title>Node12&#45;&gt;Node16</title>
<path fill="none" stroke="#9a32cd" stroke-dasharray="5,2" d="M1085.21,-182.62C1158.78,-185.03 1295.21,-189.48 1362.84,-191.69"/>
<polygon fill="#9a32cd" stroke="#9a32cd" points="1084.94,-179.11 1074.83,-182.28 1084.71,-186.11 1084.94,-179.11"/>
<text text-anchor="middle" x="1247.5" y="-193" font-family="Helvetica,sans-Serif" font-size="10.00"> espace</text>
</g>
<!-- Node12&#45;&gt;Node18 -->
<g id="edge47" class="edge">
<title>Node12&#45;&gt;Node18</title>
<path fill="none" stroke="#9a32cd" stroke-dasharray="5,2" d="M1056.9,-165.34C1068.31,-157.63 1082.89,-148.78 1097,-143 1127.92,-130.34 1164.45,-121.93 1193.66,-116.63"/>
<polygon fill="#9a32cd" stroke="#9a32cd" points="1054.7,-162.61 1048.49,-171.2 1058.7,-168.35 1054.7,-162.61"/>
<text text-anchor="middle" x="1136.5" y="-146" font-family="Helvetica,sans-Serif" font-size="10.00"> space</text>
</g>
<!-- Node12&#45;&gt;Node20 -->
<g id="edge53" class="edge">
<title>Node12&#45;&gt;Node20</title>
<path fill="none" stroke="#9a32cd" stroke-dasharray="5,2" d="M1084.55,-171.65C1111.54,-166.48 1145.63,-159.93 1176,-154 1188.62,-151.54 1390.14,-109 1403,-109 1403,-109 1403,-109 1903.5,-109 2054.69,-109 2058.47,-388.69 2057.72,-444.41"/>
<polygon fill="#9a32cd" stroke="#9a32cd" points="1083.74,-168.24 1074.58,-173.55 1085.06,-175.11 1083.74,-168.24"/>
<text text-anchor="middle" x="1560" y="-112" font-family="Helvetica,sans-Serif" font-size="10.00"> espace</text>
</g>
<!-- Node13&#45;&gt;Node3 -->
<g id="edge29" class="edge">
<title>Node13&#45;&gt;Node3</title>
<path fill="none" stroke="#9a32cd" stroke-dasharray="5,2" d="M522.29,-736C567.8,-736 638.89,-736 700.5,-736 700.5,-736 700.5,-736 1702.5,-736 1766.11,-736 1783.02,-709.79 1825,-662 1870.74,-609.94 1892.91,-526.2 1899.41,-497.79"/>
<polygon fill="#9a32cd" stroke="#9a32cd" points="522.13,-732.5 512.13,-736 522.13,-739.5 522.13,-732.5"/>
<text text-anchor="middle" x="1247.5" y="-739" font-family="Helvetica,sans-Serif" font-size="10.00"> which_coef</text>
</g>
<!-- Node14&#45;&gt;Node3 -->
<g id="edge33" class="edge">
<title>Node14&#45;&gt;Node3</title>
<path fill="none" stroke="#9a32cd" stroke-dasharray="5,2" d="M642.36,-783C682.1,-783 739.39,-783 789.5,-783 789.5,-783 789.5,-783 1702.5,-783 1758.89,-783 1784.71,-789.45 1825,-750 1899.65,-676.9 1902.46,-535.35 1901.8,-497.5"/>
<polygon fill="#9a32cd" stroke="#9a32cd" points="642.15,-779.5 632.15,-783 642.15,-786.5 642.15,-779.5"/>
<text text-anchor="middle" x="1247.5" y="-797" font-family="Helvetica,sans-Serif" font-size="10.00"> paruser</text>
<text text-anchor="middle" x="1247.5" y="-786" font-family="Helvetica,sans-Serif" font-size="10.00">paruser_bin</text>
</g>
<!-- Node15&#45;&gt;Node3 -->
<g id="edge36" class="edge">
<title>Node15&#45;&gt;Node3</title>
<path fill="none" stroke="#9a32cd" stroke-dasharray="5,2" d="M1615.71,-268.57C1653.87,-267.02 1705.08,-269.53 1746,-288 1832.99,-327.27 1884.23,-443.67 1897.83,-478.22"/>
<polygon fill="#9a32cd" stroke="#9a32cd" points="1615.12,-265.09 1605.31,-269.1 1615.48,-272.09 1615.12,-265.09"/>
<text text-anchor="middle" x="1701.5" y="-357" font-family="Helvetica,sans-Serif" font-size="10.00"> cst</text>
<text text-anchor="middle" x="1701.5" y="-346" font-family="Helvetica,sans-Serif" font-size="10.00">cst_hard</text>
<text text-anchor="middle" x="1701.5" y="-335" font-family="Helvetica,sans-Serif" font-size="10.00">opeuser</text>
<text text-anchor="middle" x="1701.5" y="-324" font-family="Helvetica,sans-Serif" font-size="10.00">opeuser_bin</text>
<text text-anchor="middle" x="1701.5" y="-313" font-family="Helvetica,sans-Serif" font-size="10.00">results</text>
<text text-anchor="middle" x="1701.5" y="-302" font-family="Helvetica,sans-Serif" font-size="10.00">term</text>
<text text-anchor="middle" x="1701.5" y="-291" font-family="Helvetica,sans-Serif" font-size="10.00">term_double</text>
</g>
<!-- Node15&#45;&gt;Node20 -->
<g id="edge55" class="edge">
<title>Node15&#45;&gt;Node20</title>
<path fill="none" stroke="#9a32cd" stroke-dasharray="5,2" d="M1593.25,-260.47C1654,-235.83 1783.04,-187.82 1825,-206 1944.68,-257.85 2031,-405 2052.36,-444.27"/>
<polygon fill="#9a32cd" stroke="#9a32cd" points="1591.7,-257.32 1583.77,-264.35 1594.35,-263.8 1591.7,-257.32"/>
<text text-anchor="middle" x="1794.5" y="-286" font-family="Helvetica,sans-Serif" font-size="10.00"> p_christo</text>
<text text-anchor="middle" x="1794.5" y="-275" font-family="Helvetica,sans-Serif" font-size="10.00">p_det_cov</text>
<text text-anchor="middle" x="1794.5" y="-264" font-family="Helvetica,sans-Serif" font-size="10.00">p_dirac</text>
<text text-anchor="middle" x="1794.5" y="-253" font-family="Helvetica,sans-Serif" font-size="10.00">p_met_con</text>
<text text-anchor="middle" x="1794.5" y="-242" font-family="Helvetica,sans-Serif" font-size="10.00">p_met_cov</text>
<text text-anchor="middle" x="1794.5" y="-231" font-family="Helvetica,sans-Serif" font-size="10.00">p_ricci_scalar</text>
<text text-anchor="middle" x="1794.5" y="-220" font-family="Helvetica,sans-Serif" font-size="10.00">p_ricci_tensor</text>
<text text-anchor="middle" x="1794.5" y="-209" font-family="Helvetica,sans-Serif" font-size="10.00">p_riemann</text>
</g>
<!-- Node15&#45;&gt;Node21 -->
<g id="edge59" class="edge">
<title>Node15&#45;&gt;Node21</title>
<path fill="none" stroke="#9a32cd" stroke-dasharray="5,2" d="M1574.26,-291.97C1603.14,-331.1 1670.93,-422.93 1693.24,-453.16"/>
<polygon fill="#9a32cd" stroke="#9a32cd" points="1576.86,-289.6 1568.11,-283.63 1571.23,-293.76 1576.86,-289.6"/>
<text text-anchor="middle" x="1631" y="-377" font-family="Helvetica,sans-Serif" font-size="10.00"> res</text>
</g>
<!-- Node16&#45;&gt;Node3 -->
<g id="edge56" class="edge">
<title>Node16&#45;&gt;Node3</title>
<path fill="none" stroke="#9a32cd" stroke-dasharray="5,2" d="M1455.43,-189.67C1543.16,-186.82 1724.11,-194.38 1825,-294 1880.13,-348.44 1896.55,-447.43 1900.45,-478.44"/>
<polygon fill="#9a32cd" stroke="#9a32cd" points="1455.06,-186.18 1445.21,-190.07 1455.33,-193.18 1455.06,-186.18"/>
<text text-anchor="middle" x="1631" y="-207" font-family="Helvetica,sans-Serif" font-size="10.00"> var</text>
</g>
<!-- Node16&#45;&gt;Node15 -->
<g id="edge38" class="edge">
<title>Node16&#45;&gt;Node15</title>
<path fill="none" stroke="#9a32cd" stroke-dasharray="5,2" d="M1423.04,-209.3C1434.01,-218.6 1448.64,-229.98 1463,-238 1483.05,-249.2 1507.27,-258.25 1526.36,-264.48"/>
<polygon fill="#9a32cd" stroke="#9a32cd" points="1425.27,-206.6 1415.43,-202.67 1420.67,-211.88 1425.27,-206.6"/>
<text text-anchor="middle" x="1480" y="-267" font-family="Helvetica,sans-Serif" font-size="10.00"> der_t</text>
<text text-anchor="middle" x="1480" y="-256" font-family="Helvetica,sans-Serif" font-size="10.00">val_t</text>
</g>
<!-- Node16&#45;&gt;Node17 -->
<g id="edge42" class="edge">
<title>Node16&#45;&gt;Node17</title>
<path fill="none" stroke="midnightblue" d="M1450.79,-205.27C1465.55,-209.28 1481.98,-213.78 1497,-218 1506.6,-220.7 1517.02,-223.7 1526.53,-226.46"/>
<polygon fill="midnightblue" stroke="midnightblue" points="1451.43,-201.82 1440.87,-202.59 1449.61,-208.58 1451.43,-201.82"/>
</g>
<!-- Node17&#45;&gt;Node16 -->
<g id="edge41" class="edge">
<title>Node17&#45;&gt;Node16</title>
<path fill="none" stroke="#9a32cd" stroke-dasharray="5,2" d="M1509.72,-226.67C1494.61,-223.43 1478.01,-219.46 1463,-215 1451.23,-211.5 1438.44,-206.76 1427.88,-202.57"/>
<polygon fill="#9a32cd" stroke="#9a32cd" points="1509.39,-230.18 1519.9,-228.81 1510.83,-223.33 1509.39,-230.18"/>
<text text-anchor="middle" x="1480" y="-226" font-family="Helvetica,sans-Serif" font-size="10.00"> cmp</text>
</g>
<!-- Node18&#45;&gt;Node16 -->
<g id="edge45" class="edge">
<title>Node18&#45;&gt;Node16</title>
<path fill="none" stroke="#9a32cd" stroke-dasharray="5,2" d="M1275.35,-123.6C1306.97,-140.79 1358.6,-168.86 1385.48,-183.48"/>
<polygon fill="#9a32cd" stroke="#9a32cd" points="1276.68,-120.34 1266.22,-118.64 1273.34,-126.49 1276.68,-120.34"/>
<text text-anchor="middle" x="1332" y="-164" font-family="Helvetica,sans-Serif" font-size="10.00"> basis</text>
</g>
<!-- Node19&#45;&gt;Node16 -->
<g id="edge49" class="edge">
<title>Node19&#45;&gt;Node16</title>
<path fill="none" stroke="#9a32cd" stroke-dasharray="5,2" d="M407.58,-46C457.87,-46 528.8,-46 591,-46 591,-46 591,-46 953,-46 1108.9,-46 1162.32,-18.78 1301,-90 1345.55,-112.88 1382.47,-162.43 1396.71,-183.36"/>
<polygon fill="#9a32cd" stroke="#9a32cd" points="407.49,-42.5 397.49,-46 407.49,-49.5 407.49,-42.5"/>
<text text-anchor="middle" x="871" y="-49" font-family="Helvetica,sans-Serif" font-size="10.00"> parameters</text>
</g>
<!-- Node20&#45;&gt;Node3 -->
<g id="edge51" class="edge">
<title>Node20&#45;&gt;Node3</title>
<path fill="none" stroke="#9a32cd" stroke-dasharray="5,2" d="M2009.14,-464.68C1989.18,-469.08 1966.21,-474.15 1946.81,-478.44"/>
<polygon fill="#9a32cd" stroke="#9a32cd" points="2009.97,-468.08 2018.98,-462.51 2008.46,-461.24 2009.97,-468.08"/>
<text text-anchor="middle" x="1990.5" y="-474" font-family="Helvetica,sans-Serif" font-size="10.00"> met</text>
</g>
<!-- Node21&#45;&gt;Node3 -->
<g id="edge57" class="edge">
<title>Node21&#45;&gt;Node3</title>
<path fill="none" stroke="#9a32cd" stroke-dasharray="5,2" d="M1756.42,-468.14C1777.8,-470.33 1802.59,-473.05 1825,-476 1830.73,-476.75 1836.7,-477.59 1842.65,-478.47"/>
<polygon fill="#9a32cd" stroke="#9a32cd" points="1756.52,-464.63 1746.22,-467.11 1755.82,-471.59 1756.52,-464.63"/>
<text text-anchor="middle" x="1794.5" y="-479" font-family="Helvetica,sans-Serif" font-size="10.00"> def</text>
</g>
</g>
</svg>
