<?xml version="1.0" encoding="UTF-8" standalone="no"?>
<!DOCTYPE svg PUBLIC "-//W3C//DTD SVG 1.1//EN"
 "http://www.w3.org/Graphics/SVG/1.1/DTD/svg11.dtd">
<!-- Generated by graphviz version 2.47.1 (20210515.0534)
 -->
<!-- Title: Kadath::Domain_oned_inf Pages: 1 -->
<svg width="452pt" height="267pt"
 viewBox="0.00 0.00 452.41 267.00" xmlns="http://www.w3.org/2000/svg" xmlns:xlink="http://www.w3.org/1999/xlink">
<g id="graph0" class="graph" transform="scale(1 1) rotate(0) translate(4 263)">
<title>Kadath::Domain_oned_inf</title>
<!-- Node1 -->
<g id="node1" class="node">
<title>Node1</title>
<g id="a_node1"><a xlink:title=" ">
<polygon fill="#bfbfbf" stroke="black" points="24.41,-1.5 24.41,-20.5 151.41,-20.5 151.41,-1.5 24.41,-1.5"/>
<text text-anchor="middle" x="87.91" y="-8.5" font-family="Helvetica,sans-Serif" font-size="10.00">Kadath::Domain_oned_inf</text>
</a>
</g>
</g>
<!-- Node2 -->
<g id="node2" class="node">
<title>Node2</title>
<g id="a_node2"><a xlink:href="classKadath_1_1Domain.html" target="_top" xlink:title=" ">
<polygon fill="none" stroke="black" points="61.41,-103.5 61.41,-122.5 146.41,-122.5 146.41,-103.5 61.41,-103.5"/>
<text text-anchor="middle" x="103.91" y="-110.5" font-family="Helvetica,sans-Serif" font-size="10.00">Kadath::Domain</text>
</a>
</g>
</g>
<!-- Node2&#45;&gt;Node1 -->
<g id="edge1" class="edge">
<title>Node2&#45;&gt;Node1</title>
<path fill="none" stroke="midnightblue" d="M100.95,-93.49C97.47,-71.74 91.84,-36.58 89.27,-20.5"/>
<polygon fill="midnightblue" stroke="midnightblue" points="97.51,-94.15 102.55,-103.47 104.42,-93.05 97.51,-94.15"/>
</g>
<!-- Node6 -->
<g id="node6" class="node">
<title>Node6</title>
<g id="a_node6"><a xlink:href="classKadath_1_1Val__domain.html" target="_top" xlink:title=" ">
<polygon fill="none" stroke="black" points="169.41,-1.5 169.41,-20.5 272.41,-20.5 272.41,-1.5 169.41,-1.5"/>
<text text-anchor="middle" x="220.91" y="-8.5" font-family="Helvetica,sans-Serif" font-size="10.00">Kadath::Val_domain</text>
</a>
</g>
</g>
<!-- Node2&#45;&gt;Node6 -->
<g id="edge15" class="edge">
<title>Node2&#45;&gt;Node6</title>
<path fill="none" stroke="#9a32cd" stroke-dasharray="5,2" d="M102.44,-92.8C102.3,-76.69 104.8,-54.11 117.91,-40 125.42,-31.92 148.2,-25.3 170.44,-20.53"/>
<polygon fill="#9a32cd" stroke="#9a32cd" points="98.96,-93.34 102.9,-103.17 105.95,-93.03 98.96,-93.34"/>
<text text-anchor="middle" x="129.41" y="-59.5" font-family="Helvetica,sans-Serif" font-size="10.00"> zone</text>
</g>
<!-- Node3 -->
<g id="node3" class="node">
<title>Node3</title>
<g id="a_node3"><a xlink:href="structKadath_1_1MemoryMappable.html" target="_top" xlink:title=" ">
<polygon fill="none" stroke="black" points="190.91,-239.5 190.91,-258.5 318.91,-258.5 318.91,-239.5 190.91,-239.5"/>
<text text-anchor="middle" x="254.91" y="-246.5" font-family="Helvetica,sans-Serif" font-size="10.00">Kadath::MemoryMappable</text>
</a>
</g>
</g>
<!-- Node3&#45;&gt;Node2 -->
<g id="edge2" class="edge">
<title>Node3&#45;&gt;Node2</title>
<path fill="none" stroke="midnightblue" d="M180.54,-244.42C115.7,-239.55 28.71,-228.21 6.91,-202 -20.27,-169.31 44.01,-137.42 80.65,-122.61"/>
<polygon fill="midnightblue" stroke="midnightblue" points="180.52,-247.93 190.74,-245.14 181.01,-240.94 180.52,-247.93"/>
</g>
<!-- Node4 -->
<g id="node4" class="node">
<title>Node4</title>
<g id="a_node4"><a xlink:href="classKadath_1_1Dim__array.html" target="_top" xlink:title=" ">
<polygon fill="none" stroke="black" points="16.41,-182.5 16.41,-201.5 111.41,-201.5 111.41,-182.5 16.41,-182.5"/>
<text text-anchor="middle" x="63.91" y="-189.5" font-family="Helvetica,sans-Serif" font-size="10.00">Kadath::Dim_array</text>
</a>
</g>
</g>
<!-- Node3&#45;&gt;Node4 -->
<g id="edge4" class="edge">
<title>Node3&#45;&gt;Node4</title>
<path fill="none" stroke="midnightblue" d="M215.32,-236.6C179.08,-226.16 126.26,-210.95 93.55,-201.53"/>
<polygon fill="midnightblue" stroke="midnightblue" points="214.49,-240 225.07,-239.41 216.43,-233.28 214.49,-240"/>
</g>
<!-- Node5 -->
<g id="node5" class="node">
<title>Node5</title>
<g id="a_node5"><a xlink:href="classKadath_1_1Array.html" target="_top" xlink:title=" ">
<polygon fill="none" stroke="black" points="129.41,-182.5 129.41,-201.5 248.41,-201.5 248.41,-182.5 129.41,-182.5"/>
<text text-anchor="middle" x="188.91" y="-189.5" font-family="Helvetica,sans-Serif" font-size="10.00">Kadath::Array&lt; double &gt;</text>
</a>
</g>
</g>
<!-- Node3&#45;&gt;Node5 -->
<g id="edge6" class="edge">
<title>Node3&#45;&gt;Node5</title>
<path fill="none" stroke="midnightblue" d="M236.91,-233C224.87,-222.96 209.44,-210.1 199.37,-201.71"/>
<polygon fill="midnightblue" stroke="midnightblue" points="234.68,-235.69 244.6,-239.41 239.16,-230.32 234.68,-235.69"/>
</g>
<!-- Node3&#45;&gt;Node6 -->
<g id="edge8" class="edge">
<title>Node3&#45;&gt;Node6</title>
<path fill="none" stroke="midnightblue" d="M256.42,-229.07C257.02,-220.77 257.62,-210.91 257.91,-202 258.2,-193.12 258.86,-190.84 257.91,-182 251.16,-119.23 230.77,-45.64 223.51,-20.74"/>
<polygon fill="midnightblue" stroke="midnightblue" points="252.92,-228.95 255.66,-239.19 259.9,-229.48 252.92,-228.95"/>
</g>
<!-- Node7 -->
<g id="node7" class="node">
<title>Node7</title>
<g id="a_node7"><a xlink:href="classKadath_1_1Base__spectral.html" target="_top" xlink:title=" ">
<polygon fill="none" stroke="black" points="304.91,-103.5 304.91,-122.5 418.91,-122.5 418.91,-103.5 304.91,-103.5"/>
<text text-anchor="middle" x="361.91" y="-110.5" font-family="Helvetica,sans-Serif" font-size="10.00">Kadath::Base_spectral</text>
</a>
</g>
</g>
<!-- Node3&#45;&gt;Node7 -->
<g id="edge12" class="edge">
<title>Node3&#45;&gt;Node7</title>
<path fill="none" stroke="midnightblue" d="M276.58,-233.63C281.57,-229.82 286.65,-225.51 290.91,-221 321.37,-188.74 347.38,-141.98 357.45,-122.75"/>
<polygon fill="midnightblue" stroke="midnightblue" points="274.52,-230.8 268.45,-239.49 278.61,-236.48 274.52,-230.8"/>
</g>
<!-- Node8 -->
<g id="node8" class="node">
<title>Node8</title>
<g id="a_node8"><a xlink:href="classKadath_1_1Array.html" target="_top" xlink:title=" ">
<polygon fill="none" stroke="black" points="343.41,-182.5 343.41,-201.5 444.41,-201.5 444.41,-182.5 343.41,-182.5"/>
<text text-anchor="middle" x="393.91" y="-189.5" font-family="Helvetica,sans-Serif" font-size="10.00">Kadath::Array&lt; int &gt;</text>
</a>
</g>
</g>
<!-- Node3&#45;&gt;Node8 -->
<g id="edge14" class="edge">
<title>Node3&#45;&gt;Node8</title>
<path fill="none" stroke="midnightblue" d="M289.04,-236.01C301.63,-231.46 315.98,-226.14 328.91,-221 344.44,-214.83 361.82,-207.31 374.69,-201.62"/>
<polygon fill="midnightblue" stroke="midnightblue" points="287.61,-232.8 279.37,-239.47 289.97,-239.39 287.61,-232.8"/>
</g>
<!-- Node4&#45;&gt;Node2 -->
<g id="edge3" class="edge">
<title>Node4&#45;&gt;Node2</title>
<path fill="none" stroke="#9a32cd" stroke-dasharray="5,2" d="M73.15,-173.22C81.35,-157.44 92.98,-135.04 99.34,-122.81"/>
<polygon fill="#9a32cd" stroke="#9a32cd" points="69.85,-171.98 68.35,-182.47 76.06,-175.2 69.85,-171.98"/>
<text text-anchor="middle" x="111.91" y="-156" font-family="Helvetica,sans-Serif" font-size="10.00"> nbr_coefs</text>
<text text-anchor="middle" x="111.91" y="-145" font-family="Helvetica,sans-Serif" font-size="10.00">nbr_points</text>
</g>
<!-- Node5&#45;&gt;Node2 -->
<g id="edge5" class="edge">
<title>Node5&#45;&gt;Node2</title>
<path fill="none" stroke="#9a32cd" stroke-dasharray="5,2" d="M173.66,-175.26C163.95,-165.44 150.97,-152.68 138.91,-142 131.22,-135.19 122.16,-127.96 115.18,-122.55"/>
<polygon fill="#9a32cd" stroke="#9a32cd" points="171.17,-177.72 180.67,-182.41 176.17,-172.82 171.17,-177.72"/>
<text text-anchor="middle" x="174.91" y="-150.5" font-family="Helvetica,sans-Serif" font-size="10.00"> coloc</text>
</g>
<!-- Node5&#45;&gt;Node6 -->
<g id="edge9" class="edge">
<title>Node5&#45;&gt;Node6</title>
<path fill="none" stroke="#9a32cd" stroke-dasharray="5,2" d="M192.29,-172.09C199.16,-133.68 214.5,-47.89 219.38,-20.55"/>
<polygon fill="#9a32cd" stroke="#9a32cd" points="188.77,-171.91 190.46,-182.37 195.66,-173.14 188.77,-171.91"/>
<text text-anchor="middle" x="209.41" y="-116" font-family="Helvetica,sans-Serif" font-size="10.00"> c</text>
<text text-anchor="middle" x="209.41" y="-105" font-family="Helvetica,sans-Serif" font-size="10.00">cf</text>
</g>
<!-- Node6&#45;&gt;Node2 -->
<g id="edge7" class="edge">
<title>Node6&#45;&gt;Node2</title>
<path fill="none" stroke="#9a32cd" stroke-dasharray="5,2" d="M188.58,-25.12C181.19,-29.13 173.8,-34.09 167.91,-40 152.34,-55.64 159.57,-67.51 144.91,-84 137.93,-91.86 128.29,-98.59 120.11,-103.48"/>
<polygon fill="#9a32cd" stroke="#9a32cd" points="190.41,-28.11 197.81,-20.53 187.3,-21.85 190.41,-28.11"/>
<text text-anchor="middle" x="187.41" y="-76" font-family="Helvetica,sans-Serif" font-size="10.00"> absol</text>
<text text-anchor="middle" x="187.41" y="-65" font-family="Helvetica,sans-Serif" font-size="10.00">cart</text>
<text text-anchor="middle" x="187.41" y="-54" font-family="Helvetica,sans-Serif" font-size="10.00">cart_surr</text>
<text text-anchor="middle" x="187.41" y="-43" font-family="Helvetica,sans-Serif" font-size="10.00">radius</text>
</g>
<!-- Node6&#45;&gt;Node6 -->
<g id="edge10" class="edge">
<title>Node6&#45;&gt;Node6</title>
<path fill="none" stroke="#9a32cd" stroke-dasharray="5,2" d="M282.37,-18.17C287.33,-16.61 290.41,-14.22 290.41,-11 290.41,-5.97 282.91,-2.96 272.44,-1.98"/>
<polygon fill="#9a32cd" stroke="#9a32cd" points="281.63,-14.75 272.44,-20.02 282.91,-21.63 281.63,-14.75"/>
<text text-anchor="middle" x="314.41" y="-14" font-family="Helvetica,sans-Serif" font-size="10.00"> p_der_abs</text>
<text text-anchor="middle" x="314.41" y="-3" font-family="Helvetica,sans-Serif" font-size="10.00">p_der_var</text>
</g>
<!-- Node7&#45;&gt;Node6 -->
<g id="edge11" class="edge">
<title>Node7&#45;&gt;Node6</title>
<path fill="none" stroke="#9a32cd" stroke-dasharray="5,2" d="M348.98,-95.36C335.82,-79.37 314.11,-55.41 290.91,-40 278.37,-31.67 262.98,-25.17 249.82,-20.54"/>
<polygon fill="#9a32cd" stroke="#9a32cd" points="346.38,-97.71 355.36,-103.32 351.84,-93.33 346.38,-97.71"/>
<text text-anchor="middle" x="349.91" y="-59.5" font-family="Helvetica,sans-Serif" font-size="10.00"> base</text>
</g>
<!-- Node8&#45;&gt;Node7 -->
<g id="edge13" class="edge">
<title>Node8&#45;&gt;Node7</title>
<path fill="none" stroke="#9a32cd" stroke-dasharray="5,2" d="M386.52,-173.22C379.97,-157.44 370.66,-135.04 365.57,-122.81"/>
<polygon fill="#9a32cd" stroke="#9a32cd" points="383.3,-174.57 390.37,-182.47 389.76,-171.89 383.3,-174.57"/>
<text text-anchor="middle" x="404.41" y="-150.5" font-family="Helvetica,sans-Serif" font-size="10.00"> bases_1d</text>
</g>
</g>
</svg>
