<?xml version="1.0" encoding="UTF-8" standalone="no"?>
<!DOCTYPE svg PUBLIC "-//W3C//DTD SVG 1.1//EN"
 "http://www.w3.org/Graphics/SVG/1.1/DTD/svg11.dtd">
<!-- Generated by graphviz version 2.47.1 (20210515.0534)
 -->
<!-- Title: Kadath::Metric_nophi Pages: 1 -->
<svg width="2051pt" height="839pt"
 viewBox="0.00 0.00 2051.00 839.00" xmlns="http://www.w3.org/2000/svg" xmlns:xlink="http://www.w3.org/1999/xlink">
<g id="graph0" class="graph" transform="scale(1 1) rotate(0) translate(4 835)">
<title>Kadath::Metric_nophi</title>
<!-- Node1 -->
<g id="node1" class="node">
<title>Node1</title>
<g id="a_node1"><a xlink:title=" ">
<polygon fill="#bfbfbf" stroke="black" points="1786,-597.5 1786,-616.5 1893,-616.5 1893,-597.5 1786,-597.5"/>
<text text-anchor="middle" x="1839.5" y="-604.5" font-family="Helvetica,sans-Serif" font-size="10.00">Kadath::Metric_nophi</text>
</a>
</g>
</g>
<!-- Node2 -->
<g id="node2" class="node">
<title>Node2</title>
<g id="a_node2"><a xlink:href="classKadath_1_1Metric.html" target="_top" xlink:title=" ">
<polygon fill="none" stroke="black" points="1464,-619.5 1464,-638.5 1543,-638.5 1543,-619.5 1464,-619.5"/>
<text text-anchor="middle" x="1503.5" y="-626.5" font-family="Helvetica,sans-Serif" font-size="10.00">Kadath::Metric</text>
</a>
</g>
</g>
<!-- Node2&#45;&gt;Node1 -->
<g id="edge1" class="edge">
<title>Node2&#45;&gt;Node1</title>
<path fill="none" stroke="midnightblue" d="M1543.14,-641.47C1562.66,-647.13 1586.84,-653.18 1609,-656 1661.47,-662.67 1676.26,-666.96 1728,-656 1763.72,-648.43 1801.93,-628.52 1822.75,-616.53"/>
<polygon fill="midnightblue" stroke="midnightblue" points="1543.98,-638.07 1533.39,-638.57 1541.98,-644.78 1543.98,-638.07"/>
</g>
<!-- Node11 -->
<g id="node11" class="node">
<title>Node11</title>
<g id="a_node11"><a xlink:href="classKadath_1_1System__of__eqs.html" target="_top" xlink:title=" ">
<polygon fill="none" stroke="black" points="1609,-252.5 1609,-271.5 1728,-271.5 1728,-252.5 1609,-252.5"/>
<text text-anchor="middle" x="1668.5" y="-259.5" font-family="Helvetica,sans-Serif" font-size="10.00">Kadath::System_of_eqs</text>
</a>
</g>
</g>
<!-- Node2&#45;&gt;Node11 -->
<g id="edge55" class="edge">
<title>Node2&#45;&gt;Node11</title>
<path fill="none" stroke="#9a32cd" stroke-dasharray="5,2" d="M1513,-610.17C1524.01,-585.84 1543.8,-542.2 1561,-505 1574.18,-476.48 1580.22,-470.51 1591,-441 1601.58,-412.04 1597.8,-402.73 1609,-374 1624.47,-334.35 1650.09,-290.48 1661.59,-271.55"/>
<polygon fill="#9a32cd" stroke="#9a32cd" points="1509.79,-608.78 1508.86,-619.34 1516.17,-611.67 1509.79,-608.78"/>
<text text-anchor="middle" x="1576" y="-508" font-family="Helvetica,sans-Serif" font-size="10.00"> met</text>
</g>
<!-- Node24 -->
<g id="node24" class="node">
<title>Node24</title>
<g id="a_node24"><a xlink:href="classKadath_1_1Metric__flat__nophi.html" target="_top" xlink:title=" ">
<polygon fill="none" stroke="black" points="1620,-616 1620,-646 1717,-646 1717,-616 1620,-616"/>
<text text-anchor="start" x="1628" y="-634" font-family="Helvetica,sans-Serif" font-size="10.00">Kadath::Metric_flat</text>
<text text-anchor="middle" x="1668.5" y="-623" font-family="Helvetica,sans-Serif" font-size="10.00">_nophi</text>
</a>
</g>
</g>
<!-- Node2&#45;&gt;Node24 -->
<g id="edge65" class="edge">
<title>Node2&#45;&gt;Node24</title>
<path fill="none" stroke="midnightblue" d="M1553.17,-629.6C1574.25,-629.86 1598.85,-630.16 1619.83,-630.42"/>
<polygon fill="midnightblue" stroke="midnightblue" points="1553.17,-626.1 1543.13,-629.47 1553.08,-633.1 1553.17,-626.1"/>
</g>
<!-- Node3 -->
<g id="node3" class="node">
<title>Node3</title>
<g id="a_node3"><a xlink:href="structKadath_1_1MemoryMappable.html" target="_top" xlink:title=" ">
<polygon fill="none" stroke="black" points="0,-409.5 0,-428.5 128,-428.5 128,-409.5 0,-409.5"/>
<text text-anchor="middle" x="64" y="-416.5" font-family="Helvetica,sans-Serif" font-size="10.00">Kadath::MemoryMappable</text>
</a>
</g>
</g>
<!-- Node3&#45;&gt;Node2 -->
<g id="edge2" class="edge">
<title>Node3&#45;&gt;Node2</title>
<path fill="none" stroke="midnightblue" d="M69.96,-438.62C87.68,-503.75 154.85,-711.96 302,-769 494.28,-843.54 560.6,-787.34 766,-769 973.36,-750.48 1022.08,-722.69 1227,-686 1324.32,-668.57 1350.02,-670.72 1446,-647 1455.59,-644.63 1465.94,-641.5 1475.12,-638.53"/>
<polygon fill="midnightblue" stroke="midnightblue" points="73.3,-437.58 67.37,-428.8 66.53,-439.37 73.3,-437.58"/>
</g>
<!-- Node4 -->
<g id="node4" class="node">
<title>Node4</title>
<g id="a_node4"><a xlink:href="classKadath_1_1Space.html" target="_top" xlink:title=" ">
<polygon fill="none" stroke="black" points="674.5,-520.5 674.5,-539.5 754.5,-539.5 754.5,-520.5 674.5,-520.5"/>
<text text-anchor="middle" x="714.5" y="-527.5" font-family="Helvetica,sans-Serif" font-size="10.00">Kadath::Space</text>
</a>
</g>
</g>
<!-- Node3&#45;&gt;Node4 -->
<g id="edge4" class="edge">
<title>Node3&#45;&gt;Node4</title>
<path fill="none" stroke="midnightblue" d="M75.37,-437.45C88.62,-458.98 113.75,-493.61 146,-509 239.43,-553.58 561.45,-539.15 674.17,-532.53"/>
<polygon fill="midnightblue" stroke="midnightblue" points="78.24,-435.42 70.13,-428.59 72.21,-438.98 78.24,-435.42"/>
</g>
<!-- Node5 -->
<g id="node5" class="node">
<title>Node5</title>
<g id="a_node5"><a xlink:href="classKadath_1_1Domain.html" target="_top" xlink:title=" ">
<polygon fill="none" stroke="black" points="447.5,-308.5 447.5,-327.5 532.5,-327.5 532.5,-308.5 447.5,-308.5"/>
<text text-anchor="middle" x="490" y="-315.5" font-family="Helvetica,sans-Serif" font-size="10.00">Kadath::Domain</text>
</a>
</g>
</g>
<!-- Node3&#45;&gt;Node5 -->
<g id="edge6" class="edge">
<title>Node3&#45;&gt;Node5</title>
<path fill="none" stroke="midnightblue" d="M82.15,-402.31C100.85,-385.24 132.47,-359.49 165,-347 260.96,-310.16 384.23,-311.05 447.49,-314.63"/>
<polygon fill="midnightblue" stroke="midnightblue" points="79.65,-399.86 74.74,-409.25 84.43,-404.97 79.65,-399.86"/>
</g>
<!-- Node6 -->
<g id="node6" class="node">
<title>Node6</title>
<g id="a_node6"><a xlink:href="classKadath_1_1Dim__array.html" target="_top" xlink:title=" ">
<polygon fill="none" stroke="black" points="177,-176.5 177,-195.5 272,-195.5 272,-176.5 177,-176.5"/>
<text text-anchor="middle" x="224.5" y="-183.5" font-family="Helvetica,sans-Serif" font-size="10.00">Kadath::Dim_array</text>
</a>
</g>
</g>
<!-- Node3&#45;&gt;Node6 -->
<g id="edge8" class="edge">
<title>Node3&#45;&gt;Node6</title>
<path fill="none" stroke="midnightblue" d="M66.96,-399.42C72.12,-358.29 89.82,-262.41 146,-210 154.55,-202.03 165.7,-196.7 176.87,-193.14"/>
<polygon fill="midnightblue" stroke="midnightblue" points="63.46,-399.16 65.81,-409.49 70.42,-399.95 63.46,-399.16"/>
</g>
<!-- Node7 -->
<g id="node7" class="node">
<title>Node7</title>
<g id="a_node7"><a xlink:href="classKadath_1_1Array.html" target="_top" xlink:title=" ">
<polygon fill="none" stroke="black" points="165,-356.5 165,-375.5 284,-375.5 284,-356.5 165,-356.5"/>
<text text-anchor="middle" x="224.5" y="-363.5" font-family="Helvetica,sans-Serif" font-size="10.00">Kadath::Array&lt; double &gt;</text>
</a>
</g>
</g>
<!-- Node3&#45;&gt;Node7 -->
<g id="edge10" class="edge">
<title>Node3&#45;&gt;Node7</title>
<path fill="none" stroke="midnightblue" d="M103.26,-406.21C131.53,-396.75 169.38,-384.1 195.01,-375.53"/>
<polygon fill="midnightblue" stroke="midnightblue" points="102.08,-402.91 93.7,-409.4 104.3,-409.55 102.08,-402.91"/>
</g>
<!-- Node8 -->
<g id="node8" class="node">
<title>Node8</title>
<g id="a_node8"><a xlink:href="classKadath_1_1Val__domain.html" target="_top" xlink:title=" ">
<polygon fill="none" stroke="black" points="663,-386.5 663,-405.5 766,-405.5 766,-386.5 663,-386.5"/>
<text text-anchor="middle" x="714.5" y="-393.5" font-family="Helvetica,sans-Serif" font-size="10.00">Kadath::Val_domain</text>
</a>
</g>
</g>
<!-- Node3&#45;&gt;Node8 -->
<g id="edge12" class="edge">
<title>Node3&#45;&gt;Node8</title>
<path fill="none" stroke="midnightblue" d="M138.23,-419.46C232.73,-419.7 402.23,-418.95 547,-412 586.01,-410.13 629.99,-405.81 662.95,-402.13"/>
<polygon fill="midnightblue" stroke="midnightblue" points="138.21,-415.96 128.2,-419.43 138.19,-422.96 138.21,-415.96"/>
</g>
<!-- Node9 -->
<g id="node9" class="node">
<title>Node9</title>
<g id="a_node9"><a xlink:href="classKadath_1_1Base__spectral.html" target="_top" xlink:title=" ">
<polygon fill="none" stroke="black" points="433,-459.5 433,-478.5 547,-478.5 547,-459.5 433,-459.5"/>
<text text-anchor="middle" x="490" y="-466.5" font-family="Helvetica,sans-Serif" font-size="10.00">Kadath::Base_spectral</text>
</a>
</g>
</g>
<!-- Node3&#45;&gt;Node9 -->
<g id="edge16" class="edge">
<title>Node3&#45;&gt;Node9</title>
<path fill="none" stroke="midnightblue" d="M127.15,-430.17C133.51,-431.19 139.88,-432.15 146,-433 246.67,-446.97 364.65,-458.24 432.72,-464.25"/>
<polygon fill="midnightblue" stroke="midnightblue" points="127.64,-426.71 117.21,-428.55 126.51,-433.62 127.64,-426.71"/>
</g>
<!-- Node10 -->
<g id="node10" class="node">
<title>Node10</title>
<g id="a_node10"><a xlink:href="classKadath_1_1Array.html" target="_top" xlink:title=" ">
<polygon fill="none" stroke="black" points="174,-615.5 174,-634.5 275,-634.5 275,-615.5 174,-615.5"/>
<text text-anchor="middle" x="224.5" y="-622.5" font-family="Helvetica,sans-Serif" font-size="10.00">Kadath::Array&lt; int &gt;</text>
</a>
</g>
</g>
<!-- Node3&#45;&gt;Node10 -->
<g id="edge18" class="edge">
<title>Node3&#45;&gt;Node10</title>
<path fill="none" stroke="midnightblue" d="M68.66,-438.45C76.45,-474.67 98.06,-552.77 146,-597 155.04,-605.34 166.76,-611.24 178.32,-615.39"/>
<polygon fill="midnightblue" stroke="midnightblue" points="72.09,-437.75 66.67,-428.64 65.23,-439.14 72.09,-437.75"/>
</g>
<!-- Node12 -->
<g id="node12" class="node">
<title>Node12</title>
<g id="a_node12"><a xlink:href="classKadath_1_1Equation.html" target="_top" xlink:title=" ">
<polygon fill="none" stroke="black" points="1954,-479.5 1954,-498.5 2043,-498.5 2043,-479.5 1954,-479.5"/>
<text text-anchor="middle" x="1998.5" y="-486.5" font-family="Helvetica,sans-Serif" font-size="10.00">Kadath::Equation</text>
</a>
</g>
</g>
<!-- Node3&#45;&gt;Node12 -->
<g id="edge22" class="edge">
<title>Node3&#45;&gt;Node12</title>
<path fill="none" stroke="midnightblue" d="M68.13,-438.81C81.68,-521.01 138.41,-831 223.5,-831 223.5,-831 223.5,-831 1840.5,-831 1991.09,-831 1997.78,-553.74 1997.62,-498.5"/>
<polygon fill="midnightblue" stroke="midnightblue" points="71.56,-438.09 66.51,-428.78 64.65,-439.21 71.56,-438.09"/>
</g>
<!-- Node13 -->
<g id="node13" class="node">
<title>Node13</title>
<g id="a_node13"><a xlink:href="classKadath_1_1Ope__eq.html" target="_top" xlink:title=" ">
<polygon fill="none" stroke="black" points="1796.5,-196.5 1796.5,-215.5 1882.5,-215.5 1882.5,-196.5 1796.5,-196.5"/>
<text text-anchor="middle" x="1839.5" y="-203.5" font-family="Helvetica,sans-Serif" font-size="10.00">Kadath::Ope_eq</text>
</a>
</g>
</g>
<!-- Node3&#45;&gt;Node13 -->
<g id="edge25" class="edge">
<title>Node3&#45;&gt;Node13</title>
<path fill="none" stroke="midnightblue" d="M64.3,-399.05C62.7,-321.44 67.86,-44 223.5,-44 223.5,-44 223.5,-44 996.5,-44 1239.8,-44 1307.27,-15.75 1543,-76 1658.76,-105.59 1674.18,-148.89 1786,-191 1791.15,-192.94 1796.65,-194.77 1802.1,-196.44"/>
<polygon fill="midnightblue" stroke="midnightblue" points="60.81,-399.45 64.58,-409.35 67.81,-399.26 60.81,-399.45"/>
</g>
<!-- Node14 -->
<g id="node14" class="node">
<title>Node14</title>
<g id="a_node14"><a xlink:href="classKadath_1_1Eq__int.html" target="_top" xlink:title=" ">
<polygon fill="none" stroke="black" points="1959,-36.5 1959,-55.5 2038,-55.5 2038,-36.5 1959,-36.5"/>
<text text-anchor="middle" x="1998.5" y="-43.5" font-family="Helvetica,sans-Serif" font-size="10.00">Kadath::Eq_int</text>
</a>
</g>
</g>
<!-- Node3&#45;&gt;Node14 -->
<g id="edge30" class="edge">
<title>Node3&#45;&gt;Node14</title>
<path fill="none" stroke="midnightblue" d="M67.19,-399.53C73.76,-345.44 96.01,-189.46 146,-70 163.92,-27.18 177.09,0 223.5,0 223.5,0 223.5,0 1840.5,0 1891.91,0 1949.11,-23 1978.21,-36.47"/>
<polygon fill="midnightblue" stroke="midnightblue" points="63.71,-399.14 66.02,-409.48 70.66,-399.95 63.71,-399.14"/>
</g>
<!-- Node15 -->
<g id="node15" class="node">
<title>Node15</title>
<g id="a_node15"><a xlink:href="classKadath_1_1Index.html" target="_top" xlink:title=" ">
<polygon fill="none" stroke="black" points="452.5,-138.5 452.5,-157.5 527.5,-157.5 527.5,-138.5 452.5,-138.5"/>
<text text-anchor="middle" x="490" y="-145.5" font-family="Helvetica,sans-Serif" font-size="10.00">Kadath::Index</text>
</a>
</g>
</g>
<!-- Node3&#45;&gt;Node15 -->
<g id="edge34" class="edge">
<title>Node3&#45;&gt;Node15</title>
<path fill="none" stroke="midnightblue" d="M65.76,-399.37C68.88,-349.96 84.7,-220.53 165,-167 253.61,-107.93 387.98,-125.72 452.25,-139.08"/>
<polygon fill="midnightblue" stroke="midnightblue" points="62.27,-399.22 65.24,-409.39 69.26,-399.59 62.27,-399.22"/>
</g>
<!-- Node16 -->
<g id="node16" class="node">
<title>Node16</title>
<g id="a_node16"><a xlink:href="classKadath_1_1Param.html" target="_top" xlink:title=" ">
<polygon fill="none" stroke="black" points="565,-85.5 565,-104.5 645,-104.5 645,-85.5 565,-85.5"/>
<text text-anchor="middle" x="605" y="-92.5" font-family="Helvetica,sans-Serif" font-size="10.00">Kadath::Param</text>
</a>
</g>
</g>
<!-- Node3&#45;&gt;Node16 -->
<g id="edge38" class="edge">
<title>Node3&#45;&gt;Node16</title>
<path fill="none" stroke="midnightblue" d="M64.79,-399.15C65.42,-344.73 75.47,-192.7 165,-125 286.87,-32.85 486.26,-66.37 567.67,-85.45"/>
<polygon fill="midnightblue" stroke="midnightblue" points="61.29,-399.21 64.78,-409.22 68.29,-399.22 61.29,-399.21"/>
</g>
<!-- Node17 -->
<g id="node17" class="node">
<title>Node17</title>
<g id="a_node17"><a xlink:href="classKadath_1_1Term__eq.html" target="_top" xlink:title=" ">
<polygon fill="none" stroke="black" points="1227,-336.5 1227,-355.5 1317,-355.5 1317,-336.5 1227,-336.5"/>
<text text-anchor="middle" x="1272" y="-343.5" font-family="Helvetica,sans-Serif" font-size="10.00">Kadath::Term_eq</text>
</a>
</g>
</g>
<!-- Node3&#45;&gt;Node17 -->
<g id="edge41" class="edge">
<title>Node3&#45;&gt;Node17</title>
<path fill="none" stroke="midnightblue" d="M78.41,-401.1C110.99,-359.42 199.28,-257.15 302,-227 363.09,-209.07 638.99,-150.8 1035,-240 1123.29,-259.89 1218.8,-314.14 1255.47,-336.34"/>
<polygon fill="midnightblue" stroke="midnightblue" points="75.47,-399.18 72.15,-409.24 81.02,-403.45 75.47,-399.18"/>
</g>
<!-- Node18 -->
<g id="node18" class="node">
<title>Node18</title>
<g id="a_node18"><a xlink:href="classKadath_1_1Tensor.html" target="_top" xlink:title=" ">
<polygon fill="none" stroke="black" points="1053,-471.5 1053,-490.5 1135,-490.5 1135,-471.5 1053,-471.5"/>
<text text-anchor="middle" x="1094" y="-478.5" font-family="Helvetica,sans-Serif" font-size="10.00">Kadath::Tensor</text>
</a>
</g>
</g>
<!-- Node3&#45;&gt;Node18 -->
<g id="edge43" class="edge">
<title>Node3&#45;&gt;Node18</title>
<path fill="none" stroke="midnightblue" d="M95.67,-432.49C115.17,-440.53 141.14,-450.25 165,-456 506.97,-538.46 604.42,-495.76 956,-484 988.57,-482.91 1025.52,-482.13 1052.83,-481.64"/>
<polygon fill="midnightblue" stroke="midnightblue" points="96.96,-429.24 86.39,-428.59 94.25,-435.69 96.96,-429.24"/>
</g>
<!-- Node20 -->
<g id="node20" class="node">
<title>Node20</title>
<g id="a_node20"><a xlink:href="classKadath_1_1Base__tensor.html" target="_top" xlink:title=" ">
<polygon fill="none" stroke="black" points="831,-678.5 831,-697.5 938,-697.5 938,-678.5 831,-678.5"/>
<text text-anchor="middle" x="884.5" y="-685.5" font-family="Helvetica,sans-Serif" font-size="10.00">Kadath::Base_tensor</text>
</a>
</g>
</g>
<!-- Node3&#45;&gt;Node20 -->
<g id="edge50" class="edge">
<title>Node3&#45;&gt;Node20</title>
<path fill="none" stroke="midnightblue" d="M66.16,-438.96C71.21,-505.72 97.19,-717 223.5,-717 223.5,-717 223.5,-717 715.5,-717 762.12,-717 814.96,-706.02 848.73,-697.58"/>
<polygon fill="midnightblue" stroke="midnightblue" points="69.62,-438.32 65.46,-428.58 62.64,-438.79 69.62,-438.32"/>
</g>
<!-- Node21 -->
<g id="node21" class="node">
<title>Node21</title>
<g id="a_node21"><a xlink:href="classKadath_1_1Param__tensor.html" target="_top" xlink:title=" ">
<polygon fill="none" stroke="black" points="302,-560.5 302,-579.5 415,-579.5 415,-560.5 302,-560.5"/>
<text text-anchor="middle" x="358.5" y="-567.5" font-family="Helvetica,sans-Serif" font-size="10.00">Kadath::Param_tensor</text>
</a>
</g>
</g>
<!-- Node3&#45;&gt;Node21 -->
<g id="edge54" class="edge">
<title>Node3&#45;&gt;Node21</title>
<path fill="none" stroke="midnightblue" d="M69.85,-438.53C78.86,-470.15 101.43,-531.73 146,-559 196.02,-589.61 265.81,-586.35 311.32,-579.54"/>
<polygon fill="midnightblue" stroke="midnightblue" points="73.19,-437.46 67.22,-428.7 66.43,-439.27 73.19,-437.46"/>
</g>
<!-- Node4&#45;&gt;Node2 -->
<g id="edge3" class="edge">
<title>Node4&#45;&gt;Node2</title>
<path fill="none" stroke="#9a32cd" stroke-dasharray="5,2" d="M746.76,-543.42C791.95,-562.09 878.62,-595.16 956,-609 1143.85,-642.6 1373.62,-635.77 1463.68,-631.28"/>
<polygon fill="#9a32cd" stroke="#9a32cd" points="748.08,-540.18 737.5,-539.56 745.38,-546.64 748.08,-540.18"/>
<text text-anchor="middle" x="1094" y="-632" font-family="Helvetica,sans-Serif" font-size="10.00"> espace</text>
</g>
<!-- Node4&#45;&gt;Node11 -->
<g id="edge32" class="edge">
<title>Node4&#45;&gt;Node11</title>
<path fill="none" stroke="#9a32cd" stroke-dasharray="5,2" d="M760.81,-517.72C824.5,-499.42 943,-461.55 1035,-410 1093.01,-377.49 1095.12,-350.74 1153,-318 1228.44,-275.34 1249.79,-263.82 1335,-248 1446.87,-227.23 1477.69,-237.72 1591,-248 1601.49,-248.95 1612.69,-250.62 1623.19,-252.49"/>
<polygon fill="#9a32cd" stroke="#9a32cd" points="759.73,-514.39 751.07,-520.49 761.64,-521.12 759.73,-514.39"/>
<text text-anchor="middle" x="1181" y="-321" font-family="Helvetica,sans-Serif" font-size="10.00"> espace</text>
</g>
<!-- Node4&#45;&gt;Node18 -->
<g id="edge44" class="edge">
<title>Node4&#45;&gt;Node18</title>
<path fill="none" stroke="#9a32cd" stroke-dasharray="5,2" d="M765.04,-523.57C840.65,-513.76 983.38,-495.23 1052.9,-486.2"/>
<polygon fill="#9a32cd" stroke="#9a32cd" points="764.3,-520.14 754.83,-524.89 765.2,-527.08 764.3,-520.14"/>
<text text-anchor="middle" x="884.5" y="-517" font-family="Helvetica,sans-Serif" font-size="10.00"> espace</text>
</g>
<!-- Node4&#45;&gt;Node20 -->
<g id="edge51" class="edge">
<title>Node4&#45;&gt;Node20</title>
<path fill="none" stroke="#9a32cd" stroke-dasharray="5,2" d="M743.53,-544.69C751.12,-549.18 759.13,-554.42 766,-560 813.3,-598.41 859.11,-655.9 876.34,-678.44"/>
<polygon fill="#9a32cd" stroke="#9a32cd" points="745.01,-541.5 734.59,-539.61 741.55,-547.59 745.01,-541.5"/>
<text text-anchor="middle" x="798.5" y="-605" font-family="Helvetica,sans-Serif" font-size="10.00"> space</text>
</g>
<!-- Node5&#45;&gt;Node4 -->
<g id="edge5" class="edge">
<title>Node5&#45;&gt;Node4</title>
<path fill="none" stroke="#9a32cd" stroke-dasharray="5,2" d="M519.42,-332.75C529.03,-338.72 539.27,-346.28 547,-355 558.87,-368.39 553.96,-376.92 565,-391 593.79,-427.72 610.98,-427.06 645,-459 667.23,-479.87 691.66,-506.04 704.49,-520.05"/>
<polygon fill="#9a32cd" stroke="#9a32cd" points="520.9,-329.57 510.51,-327.53 517.37,-335.61 520.9,-329.57"/>
<text text-anchor="middle" x="605" y="-462" font-family="Helvetica,sans-Serif" font-size="10.00"> domains</text>
</g>
<!-- Node5&#45;&gt;Node8 -->
<g id="edge19" class="edge">
<title>Node5&#45;&gt;Node8</title>
<path fill="none" stroke="#9a32cd" stroke-dasharray="5,2" d="M517.53,-332.33C531.41,-339.45 548.84,-347.84 565,-354 570.45,-356.08 637.09,-374.73 679.23,-386.47"/>
<polygon fill="#9a32cd" stroke="#9a32cd" points="519.04,-329.16 508.55,-327.64 515.8,-335.37 519.04,-329.16"/>
<text text-anchor="middle" x="605" y="-379" font-family="Helvetica,sans-Serif" font-size="10.00"> zone</text>
</g>
<!-- Node5&#45;&gt;Node12 -->
<g id="edge28" class="edge">
<title>Node5&#45;&gt;Node12</title>
<path fill="none" stroke="#9a32cd" stroke-dasharray="5,2" d="M522.55,-304.81C535.47,-300.09 550.71,-295.35 565,-293 600.08,-287.23 609.56,-290.09 645,-293 720.43,-299.19 1244.01,-384.01 1317,-404 1325.28,-406.27 1326.92,-408.12 1335,-411 1440.64,-448.67 1462.84,-489 1575,-489 1575,-489 1575,-489 1840.5,-489 1878.8,-489 1922.35,-489 1953.85,-489"/>
<polygon fill="#9a32cd" stroke="#9a32cd" points="521.28,-301.55 513.18,-308.39 523.77,-308.09 521.28,-301.55"/>
<text text-anchor="middle" x="1272" y="-407" font-family="Helvetica,sans-Serif" font-size="10.00"> dom</text>
</g>
<!-- Node6&#45;&gt;Node5 -->
<g id="edge7" class="edge">
<title>Node6&#45;&gt;Node5</title>
<path fill="none" stroke="#9a32cd" stroke-dasharray="5,2" d="M253.91,-200.23C307.94,-227.3 424.2,-285.54 469.95,-308.46"/>
<polygon fill="#9a32cd" stroke="#9a32cd" points="255.38,-197.06 244.88,-195.71 252.25,-203.31 255.38,-197.06"/>
<text text-anchor="middle" x="358.5" y="-293" font-family="Helvetica,sans-Serif" font-size="10.00"> nbr_coefs</text>
<text text-anchor="middle" x="358.5" y="-282" font-family="Helvetica,sans-Serif" font-size="10.00">nbr_points</text>
</g>
<!-- Node6&#45;&gt;Node15 -->
<g id="edge35" class="edge">
<title>Node6&#45;&gt;Node15</title>
<path fill="none" stroke="#9a32cd" stroke-dasharray="5,2" d="M282.61,-179.69C320.29,-175.3 370.69,-168.99 415,-162 427.14,-160.08 440.34,-157.69 452.19,-155.42"/>
<polygon fill="#9a32cd" stroke="#9a32cd" points="281.87,-176.25 272.34,-180.87 282.67,-183.2 281.87,-176.25"/>
<text text-anchor="middle" x="358.5" y="-181" font-family="Helvetica,sans-Serif" font-size="10.00"> sizes</text>
</g>
<!-- Node7&#45;&gt;Node5 -->
<g id="edge9" class="edge">
<title>Node7&#45;&gt;Node5</title>
<path fill="none" stroke="#9a32cd" stroke-dasharray="5,2" d="M287.69,-354.61C292.53,-353.73 297.35,-352.85 302,-352 351.99,-342.88 409.51,-332.43 447.41,-325.55"/>
<polygon fill="#9a32cd" stroke="#9a32cd" points="286.97,-351.19 277.76,-356.43 288.23,-358.07 286.97,-351.19"/>
<text text-anchor="middle" x="358.5" y="-355" font-family="Helvetica,sans-Serif" font-size="10.00"> coloc</text>
</g>
<!-- Node7&#45;&gt;Node8 -->
<g id="edge13" class="edge">
<title>Node7&#45;&gt;Node8</title>
<path fill="none" stroke="#9a32cd" stroke-dasharray="5,2" d="M294.3,-370.68C362.88,-375.29 471.2,-382.43 565,-388 597.6,-389.93 634.25,-391.91 662.97,-393.41"/>
<polygon fill="#9a32cd" stroke="#9a32cd" points="294.28,-367.17 284.06,-369.99 293.81,-374.15 294.28,-367.17"/>
<text text-anchor="middle" x="490" y="-400" font-family="Helvetica,sans-Serif" font-size="10.00"> c</text>
<text text-anchor="middle" x="490" y="-389" font-family="Helvetica,sans-Serif" font-size="10.00">cf</text>
</g>
<!-- Node7&#45;&gt;Node11 -->
<g id="edge39" class="edge">
<title>Node7&#45;&gt;Node11</title>
<path fill="none" stroke="#9a32cd" stroke-dasharray="5,2" d="M239.21,-348.25C251.47,-332.11 269.65,-307.44 284,-285 292.79,-271.25 288.33,-261.91 302,-253 351.48,-220.77 772.02,-204.84 831,-202 1063.14,-190.84 1379.39,-213.56 1543,-233 1574.85,-236.78 1610.41,-245.54 1635.34,-252.44"/>
<polygon fill="#9a32cd" stroke="#9a32cd" points="236.37,-346.21 233.07,-356.28 241.93,-350.46 236.37,-346.21"/>
<text text-anchor="middle" x="995.5" y="-203" font-family="Helvetica,sans-Serif" font-size="10.00"> val_cst_hard</text>
</g>
<!-- Node8&#45;&gt;Node5 -->
<g id="edge11" class="edge">
<title>Node8&#45;&gt;Node5</title>
<path fill="none" stroke="#9a32cd" stroke-dasharray="5,2" d="M696.36,-378.77C686.12,-368.06 673.18,-353.75 663,-340 653.75,-327.5 658.53,-317.66 645,-310 605.16,-287.44 549.83,-298.59 517.48,-308.48"/>
<polygon fill="#9a32cd" stroke="#9a32cd" points="694.09,-381.45 703.57,-386.19 699.11,-376.58 694.09,-381.45"/>
<text text-anchor="middle" x="605" y="-346" font-family="Helvetica,sans-Serif" font-size="10.00"> absol</text>
<text text-anchor="middle" x="605" y="-335" font-family="Helvetica,sans-Serif" font-size="10.00">cart</text>
<text text-anchor="middle" x="605" y="-324" font-family="Helvetica,sans-Serif" font-size="10.00">cart_surr</text>
<text text-anchor="middle" x="605" y="-313" font-family="Helvetica,sans-Serif" font-size="10.00">radius</text>
</g>
<!-- Node8&#45;&gt;Node8 -->
<g id="edge14" class="edge">
<title>Node8&#45;&gt;Node8</title>
<path fill="none" stroke="#9a32cd" stroke-dasharray="5,2" d="M699.03,-415.77C700.25,-420.5 705.4,-424 714.5,-424 729.43,-424 733.75,-414.57 727.45,-405.76"/>
<polygon fill="#9a32cd" stroke="#9a32cd" points="702.5,-416.31 701.55,-405.76 695.72,-414.6 702.5,-416.31"/>
<text text-anchor="middle" x="714.5" y="-438" font-family="Helvetica,sans-Serif" font-size="10.00"> p_der_abs</text>
<text text-anchor="middle" x="714.5" y="-427" font-family="Helvetica,sans-Serif" font-size="10.00">p_der_var</text>
</g>
<!-- Node19 -->
<g id="node19" class="node">
<title>Node19</title>
<g id="a_node19"><a xlink:href="classKadath_1_1Scalar.html" target="_top" xlink:title=" ">
<polygon fill="none" stroke="black" points="1232,-424.5 1232,-443.5 1312,-443.5 1312,-424.5 1232,-424.5"/>
<text text-anchor="middle" x="1272" y="-431.5" font-family="Helvetica,sans-Serif" font-size="10.00">Kadath::Scalar</text>
</a>
</g>
</g>
<!-- Node8&#45;&gt;Node19 -->
<g id="edge47" class="edge">
<title>Node8&#45;&gt;Node19</title>
<path fill="none" stroke="#9a32cd" stroke-dasharray="5,2" d="M776.29,-400.16C891.04,-408.01 1136.56,-424.8 1231.96,-431.33"/>
<polygon fill="#9a32cd" stroke="#9a32cd" points="776.49,-396.66 766.27,-399.47 776.01,-403.65 776.49,-396.66"/>
<text text-anchor="middle" x="995.5" y="-420" font-family="Helvetica,sans-Serif" font-size="10.00"> val_zones</text>
</g>
<!-- Node9&#45;&gt;Node8 -->
<g id="edge15" class="edge">
<title>Node9&#45;&gt;Node8</title>
<path fill="none" stroke="#9a32cd" stroke-dasharray="5,2" d="M539.75,-480.24C571.14,-485.04 612.07,-486.65 645,-472 676,-458.21 698.87,-422.69 708.49,-405.54"/>
<polygon fill="#9a32cd" stroke="#9a32cd" points="539.94,-476.72 529.49,-478.5 538.77,-483.62 539.94,-476.72"/>
<text text-anchor="middle" x="605" y="-486" font-family="Helvetica,sans-Serif" font-size="10.00"> base</text>
</g>
<!-- Node10&#45;&gt;Node9 -->
<g id="edge17" class="edge">
<title>Node10&#45;&gt;Node9</title>
<path fill="none" stroke="#9a32cd" stroke-dasharray="5,2" d="M268.29,-612.71C279.24,-609.71 291.03,-606.62 302,-604 351.85,-592.1 372.52,-609.68 415,-581 453.82,-554.79 477.3,-500.69 485.6,-478.66"/>
<polygon fill="#9a32cd" stroke="#9a32cd" points="267.21,-609.38 258.51,-615.42 269.08,-616.12 267.21,-609.38"/>
<text text-anchor="middle" x="358.5" y="-607" font-family="Helvetica,sans-Serif" font-size="10.00"> bases_1d</text>
</g>
<!-- Node10&#45;&gt;Node11 -->
<g id="edge36" class="edge">
<title>Node10&#45;&gt;Node11</title>
<path fill="none" stroke="#9a32cd" stroke-dasharray="5,2" d="M241.97,-607.63C278.54,-568.13 367.09,-467.17 415,-367 428.49,-338.8 410.82,-321.03 433,-299 517,-215.56 1375.03,-248.56 1608.9,-259.19"/>
<polygon fill="#9a32cd" stroke="#9a32cd" points="239.25,-605.41 234.98,-615.11 244.37,-610.19 239.25,-605.41"/>
<text text-anchor="middle" x="995.5" y="-258" font-family="Helvetica,sans-Serif" font-size="10.00"> assoc_var</text>
<text text-anchor="middle" x="995.5" y="-247" font-family="Helvetica,sans-Serif" font-size="10.00">assoc_var_double</text>
</g>
<!-- Node10&#45;&gt;Node12 -->
<g id="edge23" class="edge">
<title>Node10&#45;&gt;Node12</title>
<path fill="none" stroke="#9a32cd" stroke-dasharray="5,2" d="M265.08,-638.35C271.59,-641.17 278.13,-644.39 284,-648 293.12,-653.6 293.1,-658.05 302,-664 378.82,-715.41 396.57,-755 489,-755 489,-755 489,-755 799.5,-755 969.14,-755 1010.36,-785 1180,-785 1180,-785 1180,-785 1840.5,-785 1973.42,-785 1994.14,-549.18 1997.06,-498.51"/>
<polygon fill="#9a32cd" stroke="#9a32cd" points="266.21,-635.04 255.63,-634.53 263.58,-641.52 266.21,-635.04"/>
<text text-anchor="middle" x="1181" y="-799" font-family="Helvetica,sans-Serif" font-size="10.00"> n_cond</text>
<text text-anchor="middle" x="1181" y="-788" font-family="Helvetica,sans-Serif" font-size="10.00">p_cmp_used</text>
</g>
<!-- Node10&#45;&gt;Node18 -->
<g id="edge48" class="edge">
<title>Node10&#45;&gt;Node18</title>
<path fill="none" stroke="#9a32cd" stroke-dasharray="5,2" d="M285.34,-626.43C338.75,-627.57 419.09,-629 489,-629 489,-629 489,-629 799.5,-629 827.59,-629 1011.36,-552.17 1035,-537 1055.5,-523.84 1074.92,-502.7 1085.27,-490.51"/>
<polygon fill="#9a32cd" stroke="#9a32cd" points="285.11,-622.92 275.03,-626.2 284.95,-629.92 285.11,-622.92"/>
<text text-anchor="middle" x="714.5" y="-643" font-family="Helvetica,sans-Serif" font-size="10.00"> give_indices</text>
<text text-anchor="middle" x="714.5" y="-632" font-family="Helvetica,sans-Serif" font-size="10.00">type_indice</text>
</g>
<!-- Node10&#45;&gt;Node20 -->
<g id="edge52" class="edge">
<title>Node10&#45;&gt;Node20</title>
<path fill="none" stroke="#9a32cd" stroke-dasharray="5,2" d="M270.98,-636.91C281.14,-639.23 291.89,-641.43 302,-643 495.36,-673.05 728.16,-683.37 830.67,-686.63"/>
<polygon fill="#9a32cd" stroke="#9a32cd" points="271.62,-633.47 261.08,-634.57 270.01,-640.28 271.62,-633.47"/>
<text text-anchor="middle" x="605" y="-680" font-family="Helvetica,sans-Serif" font-size="10.00"> basis</text>
</g>
<!-- Node11&#45;&gt;Node2 -->
<g id="edge20" class="edge">
<title>Node11&#45;&gt;Node2</title>
<path fill="none" stroke="#9a32cd" stroke-dasharray="5,2" d="M1653.77,-279.77C1631.47,-309.4 1587.21,-371.44 1561,-430 1530.04,-499.17 1511.73,-589.5 1506.25,-619.13"/>
<polygon fill="#9a32cd" stroke="#9a32cd" points="1656.68,-281.73 1659.95,-271.65 1651.11,-277.49 1656.68,-281.73"/>
<text text-anchor="middle" x="1576" y="-433" font-family="Helvetica,sans-Serif" font-size="10.00"> syst</text>
</g>
<!-- Node11&#45;&gt;Node13 -->
<g id="edge27" class="edge">
<title>Node11&#45;&gt;Node13</title>
<path fill="none" stroke="#9a32cd" stroke-dasharray="5,2" d="M1708.16,-249.19C1739.12,-238.93 1781.86,-224.77 1809.83,-215.5"/>
<polygon fill="#9a32cd" stroke="#9a32cd" points="1706.94,-245.91 1698.55,-252.37 1709.15,-252.55 1706.94,-245.91"/>
<text text-anchor="middle" x="1757" y="-239" font-family="Helvetica,sans-Serif" font-size="10.00"> syst</text>
</g>
<!-- Node12&#45;&gt;Node11 -->
<g id="edge21" class="edge">
<title>Node12&#45;&gt;Node11</title>
<path fill="none" stroke="#9a32cd" stroke-dasharray="5,2" d="M1975.02,-473.44C1912,-429.82 1734.9,-307.26 1683.59,-271.75"/>
<polygon fill="#9a32cd" stroke="#9a32cd" points="1973.24,-476.47 1983.46,-479.28 1977.23,-470.71 1973.24,-476.47"/>
<text text-anchor="middle" x="1839.5" y="-419" font-family="Helvetica,sans-Serif" font-size="10.00"> eq</text>
</g>
<!-- Node13&#45;&gt;Node12 -->
<g id="edge24" class="edge">
<title>Node13&#45;&gt;Node12</title>
<path fill="none" stroke="#9a32cd" stroke-dasharray="5,2" d="M1859.82,-222.38C1870.57,-232.2 1883.63,-245.4 1893,-259 1946.52,-336.64 1983.85,-446.1 1994.44,-479.17"/>
<polygon fill="#9a32cd" stroke="#9a32cd" points="1861.95,-219.59 1852.15,-215.57 1857.31,-224.83 1861.95,-219.59"/>
<text text-anchor="middle" x="1923.5" y="-333" font-family="Helvetica,sans-Serif" font-size="10.00"> parts</text>
</g>
<!-- Node13&#45;&gt;Node13 -->
<g id="edge26" class="edge">
<title>Node13&#45;&gt;Node13</title>
<path fill="none" stroke="#9a32cd" stroke-dasharray="5,2" d="M1824.4,-225.77C1825.59,-230.5 1830.62,-234 1839.5,-234 1854.07,-234 1858.29,-224.57 1852.14,-215.76"/>
<polygon fill="#9a32cd" stroke="#9a32cd" points="1827.87,-226.3 1826.86,-215.76 1821.07,-224.63 1827.87,-226.3"/>
<text text-anchor="middle" x="1839.5" y="-237" font-family="Helvetica,sans-Serif" font-size="10.00"> parts</text>
</g>
<!-- Node13&#45;&gt;Node14 -->
<g id="edge31" class="edge">
<title>Node13&#45;&gt;Node14</title>
<path fill="none" stroke="#9a32cd" stroke-dasharray="5,2" d="M1856.91,-189.28C1889.62,-155.94 1962.03,-82.15 1988,-55.68"/>
<polygon fill="#9a32cd" stroke="#9a32cd" points="1854.36,-186.88 1849.85,-196.47 1859.35,-191.78 1854.36,-186.88"/>
<text text-anchor="middle" x="1923.5" y="-134" font-family="Helvetica,sans-Serif" font-size="10.00"> parts</text>
</g>
<!-- Node22 -->
<g id="node22" class="node">
<title>Node22</title>
<g id="a_node22"><a xlink:href="classKadath_1_1Ope__def.html" target="_top" xlink:title=" ">
<polygon fill="none" stroke="black" points="1954,-271.5 1954,-290.5 2043,-290.5 2043,-271.5 1954,-271.5"/>
<text text-anchor="middle" x="1998.5" y="-278.5" font-family="Helvetica,sans-Serif" font-size="10.00">Kadath::Ope_def</text>
</a>
</g>
</g>
<!-- Node13&#45;&gt;Node22 -->
<g id="edge58" class="edge">
<title>Node13&#45;&gt;Node22</title>
<path fill="none" stroke="midnightblue" d="M1892.73,-213.98C1907.23,-217.4 1922.65,-222.23 1936,-229 1957.45,-239.87 1977.84,-259.61 1988.91,-271.39"/>
<polygon fill="midnightblue" stroke="midnightblue" points="1893.39,-210.54 1882.88,-211.82 1891.9,-217.38 1893.39,-210.54"/>
</g>
<!-- Node14&#45;&gt;Node11 -->
<g id="edge29" class="edge">
<title>Node14&#45;&gt;Node11</title>
<path fill="none" stroke="#9a32cd" stroke-dasharray="5,2" d="M1971.87,-60.81C1931.63,-84.25 1851.49,-131.81 1786,-176 1747.03,-202.29 1702.83,-236.06 1681.83,-252.36"/>
<polygon fill="#9a32cd" stroke="#9a32cd" points="1973.86,-63.7 1980.74,-55.65 1970.34,-57.64 1973.86,-63.7"/>
<text text-anchor="middle" x="1839.5" y="-179" font-family="Helvetica,sans-Serif" font-size="10.00"> eq_int</text>
</g>
<!-- Node15&#45;&gt;Node11 -->
<g id="edge33" class="edge">
<title>Node15&#45;&gt;Node11</title>
<path fill="none" stroke="#9a32cd" stroke-dasharray="5,2" d="M537.66,-148C582.68,-148 652.76,-148 713.5,-148 713.5,-148 713.5,-148 1504.5,-148 1544.4,-148 1557.38,-150.52 1591,-172 1624.53,-193.42 1651.17,-234.06 1662.11,-252.49"/>
<polygon fill="#9a32cd" stroke="#9a32cd" points="537.62,-144.5 527.62,-148 537.62,-151.5 537.62,-144.5"/>
<text text-anchor="middle" x="1094" y="-151" font-family="Helvetica,sans-Serif" font-size="10.00"> which_coef</text>
</g>
<!-- Node16&#45;&gt;Node11 -->
<g id="edge37" class="edge">
<title>Node16&#45;&gt;Node11</title>
<path fill="none" stroke="#9a32cd" stroke-dasharray="5,2" d="M655.69,-92.99C694.34,-91.6 749.32,-90 797.5,-90 797.5,-90 797.5,-90 1504.5,-90 1594.6,-90 1649.83,-215.87 1663.92,-252.26"/>
<polygon fill="#9a32cd" stroke="#9a32cd" points="655.1,-89.51 645.24,-93.38 655.36,-96.51 655.1,-89.51"/>
<text text-anchor="middle" x="1094" y="-104" font-family="Helvetica,sans-Serif" font-size="10.00"> paruser</text>
<text text-anchor="middle" x="1094" y="-93" font-family="Helvetica,sans-Serif" font-size="10.00">paruser_bin</text>
</g>
<!-- Node17&#45;&gt;Node2 -->
<g id="edge60" class="edge">
<title>Node17&#45;&gt;Node2</title>
<path fill="none" stroke="#9a32cd" stroke-dasharray="5,2" d="M1306.61,-361.26C1310.62,-364.31 1314.26,-367.87 1317,-372 1349.76,-421.32 1294.6,-460.72 1335,-504 1369.38,-540.83 1405.43,-497.13 1446,-527 1454.35,-533.15 1485.56,-594.86 1497.66,-619.2"/>
<polygon fill="#9a32cd" stroke="#9a32cd" points="1308.31,-358.2 1298.02,-355.71 1304.52,-364.08 1308.31,-358.2"/>
<text text-anchor="middle" x="1390.5" y="-607" font-family="Helvetica,sans-Serif" font-size="10.00"> p_christo</text>
<text text-anchor="middle" x="1390.5" y="-596" font-family="Helvetica,sans-Serif" font-size="10.00">p_det_cov</text>
<text text-anchor="middle" x="1390.5" y="-585" font-family="Helvetica,sans-Serif" font-size="10.00">p_dirac</text>
<text text-anchor="middle" x="1390.5" y="-574" font-family="Helvetica,sans-Serif" font-size="10.00">p_met_con</text>
<text text-anchor="middle" x="1390.5" y="-563" font-family="Helvetica,sans-Serif" font-size="10.00">p_met_cov</text>
<text text-anchor="middle" x="1390.5" y="-552" font-family="Helvetica,sans-Serif" font-size="10.00">p_ricci_scalar</text>
<text text-anchor="middle" x="1390.5" y="-541" font-family="Helvetica,sans-Serif" font-size="10.00">p_ricci_tensor</text>
<text text-anchor="middle" x="1390.5" y="-530" font-family="Helvetica,sans-Serif" font-size="10.00">p_riemann</text>
</g>
<!-- Node17&#45;&gt;Node11 -->
<g id="edge40" class="edge">
<title>Node17&#45;&gt;Node11</title>
<path fill="none" stroke="#9a32cd" stroke-dasharray="5,2" d="M1327.58,-348.52C1392.4,-349.72 1502.82,-346.05 1591,-314 1617.26,-304.45 1643.16,-283.86 1657.06,-271.65"/>
<polygon fill="#9a32cd" stroke="#9a32cd" points="1327.27,-345.01 1317.19,-348.28 1327.11,-352.01 1327.27,-345.01"/>
<text text-anchor="middle" x="1503.5" y="-410" font-family="Helvetica,sans-Serif" font-size="10.00"> cst</text>
<text text-anchor="middle" x="1503.5" y="-399" font-family="Helvetica,sans-Serif" font-size="10.00">cst_hard</text>
<text text-anchor="middle" x="1503.5" y="-388" font-family="Helvetica,sans-Serif" font-size="10.00">opeuser</text>
<text text-anchor="middle" x="1503.5" y="-377" font-family="Helvetica,sans-Serif" font-size="10.00">opeuser_bin</text>
<text text-anchor="middle" x="1503.5" y="-366" font-family="Helvetica,sans-Serif" font-size="10.00">results</text>
<text text-anchor="middle" x="1503.5" y="-355" font-family="Helvetica,sans-Serif" font-size="10.00">term</text>
<text text-anchor="middle" x="1503.5" y="-344" font-family="Helvetica,sans-Serif" font-size="10.00">term_double</text>
</g>
<!-- Node17&#45;&gt;Node22 -->
<g id="edge59" class="edge">
<title>Node17&#45;&gt;Node22</title>
<path fill="none" stroke="#9a32cd" stroke-dasharray="5,2" d="M1299.35,-360.23C1335.33,-378.76 1402.38,-410.19 1464,-422 1498.48,-428.61 1509.4,-432.17 1543,-422 1552.2,-419.21 1552.29,-414.08 1561,-410 1697.7,-346.03 1873.4,-305.71 1953.81,-289.35"/>
<polygon fill="#9a32cd" stroke="#9a32cd" points="1300.97,-357.12 1290.48,-355.59 1297.72,-363.33 1300.97,-357.12"/>
<text text-anchor="middle" x="1668.5" y="-391" font-family="Helvetica,sans-Serif" font-size="10.00"> res</text>
</g>
<!-- Node18&#45;&gt;Node11 -->
<g id="edge56" class="edge">
<title>Node18&#45;&gt;Node11</title>
<path fill="none" stroke="#9a32cd" stroke-dasharray="5,2" d="M1101.33,-461.6C1109.92,-437.71 1127.2,-396.98 1153,-370 1179.29,-342.51 1191.05,-339.43 1227,-327 1381.39,-273.63 1429.73,-302.04 1591,-276 1599.4,-274.64 1608.29,-273.11 1616.94,-271.56"/>
<polygon fill="#9a32cd" stroke="#9a32cd" points="1097.94,-460.69 1098,-471.28 1104.56,-462.96 1097.94,-460.69"/>
<text text-anchor="middle" x="1390.5" y="-302" font-family="Helvetica,sans-Serif" font-size="10.00"> var</text>
</g>
<!-- Node18&#45;&gt;Node17 -->
<g id="edge42" class="edge">
<title>Node18&#45;&gt;Node17</title>
<path fill="none" stroke="#9a32cd" stroke-dasharray="5,2" d="M1106.98,-462.61C1117.7,-447.19 1134.52,-425.3 1153,-410 1182.26,-385.78 1222.1,-366.46 1247.18,-355.61"/>
<polygon fill="#9a32cd" stroke="#9a32cd" points="1103.84,-461.02 1101.14,-471.26 1109.64,-464.93 1103.84,-461.02"/>
<text text-anchor="middle" x="1181" y="-424" font-family="Helvetica,sans-Serif" font-size="10.00"> der_t</text>
<text text-anchor="middle" x="1181" y="-413" font-family="Helvetica,sans-Serif" font-size="10.00">val_t</text>
</g>
<!-- Node18&#45;&gt;Node19 -->
<g id="edge46" class="edge">
<title>Node18&#45;&gt;Node19</title>
<path fill="none" stroke="midnightblue" d="M1117.03,-465.69C1127.47,-459.18 1140.4,-452.14 1153,-448 1178.48,-439.62 1208.51,-436.14 1231.9,-434.75"/>
<polygon fill="midnightblue" stroke="midnightblue" points="1115.04,-462.81 1108.56,-471.2 1118.85,-468.68 1115.04,-462.81"/>
</g>
<!-- Node23 -->
<g id="node23" class="node">
<title>Node23</title>
<g id="a_node23"><a xlink:href="classKadath_1_1Metric__tensor.html" target="_top" xlink:title=" ">
<polygon fill="none" stroke="black" points="1335,-483.5 1335,-502.5 1446,-502.5 1446,-483.5 1335,-483.5"/>
<text text-anchor="middle" x="1390.5" y="-490.5" font-family="Helvetica,sans-Serif" font-size="10.00">Kadath::Metric_tensor</text>
</a>
</g>
</g>
<!-- Node18&#45;&gt;Node23 -->
<g id="edge62" class="edge">
<title>Node18&#45;&gt;Node23</title>
<path fill="none" stroke="midnightblue" d="M1145.14,-483.04C1197.83,-485.19 1280.43,-488.56 1334.78,-490.77"/>
<polygon fill="midnightblue" stroke="midnightblue" points="1145.16,-479.54 1135.02,-482.63 1144.87,-486.54 1145.16,-479.54"/>
</g>
<!-- Node19&#45;&gt;Node18 -->
<g id="edge45" class="edge">
<title>Node19&#45;&gt;Node18</title>
<path fill="none" stroke="#9a32cd" stroke-dasharray="5,2" d="M1225.46,-446.16C1195.91,-454.05 1157.96,-464.19 1130.62,-471.49"/>
<polygon fill="#9a32cd" stroke="#9a32cd" points="1226.38,-449.54 1235.14,-443.58 1224.57,-442.78 1226.38,-449.54"/>
<text text-anchor="middle" x="1181" y="-467" font-family="Helvetica,sans-Serif" font-size="10.00"> cmp</text>
</g>
<!-- Node20&#45;&gt;Node1 -->
<g id="edge63" class="edge">
<title>Node20&#45;&gt;Node1</title>
<path fill="none" stroke="#9a32cd" stroke-dasharray="5,2" d="M948.15,-692.03C1007.75,-695.52 1099.94,-700 1180,-700 1180,-700 1180,-700 1504.5,-700 1566.67,-700 1550.89,-629.11 1609,-607 1668.58,-584.33 1743.33,-590 1791.02,-597.43"/>
<polygon fill="#9a32cd" stroke="#9a32cd" points="948.33,-688.54 938.14,-691.44 947.92,-695.53 948.33,-688.54"/>
<text text-anchor="middle" x="1390.5" y="-703" font-family="Helvetica,sans-Serif" font-size="10.00"> basis</text>
</g>
<!-- Node20&#45;&gt;Node18 -->
<g id="edge49" class="edge">
<title>Node20&#45;&gt;Node18</title>
<path fill="none" stroke="#9a32cd" stroke-dasharray="5,2" d="M910.55,-673.17C942.21,-653.57 997.14,-616.62 1035,-575 1059.78,-547.77 1080.01,-508.51 1088.58,-490.58"/>
<polygon fill="#9a32cd" stroke="#9a32cd" points="908.6,-670.26 901.89,-678.46 912.25,-676.23 908.6,-670.26"/>
<text text-anchor="middle" x="995.5" y="-644" font-family="Helvetica,sans-Serif" font-size="10.00"> basis</text>
</g>
<!-- Node20&#45;&gt;Node24 -->
<g id="edge66" class="edge">
<title>Node20&#45;&gt;Node24</title>
<path fill="none" stroke="#9a32cd" stroke-dasharray="5,2" d="M914.91,-701.7C954.48,-718.85 1027.48,-746 1093,-746 1093,-746 1093,-746 1504.5,-746 1545.49,-746 1556.94,-736.81 1591,-714 1618.84,-695.35 1643.62,-664.58 1657.01,-646.21"/>
<polygon fill="#9a32cd" stroke="#9a32cd" points="916.15,-698.42 905.59,-697.58 913.32,-704.82 916.15,-698.42"/>
<text text-anchor="middle" x="1272" y="-749" font-family="Helvetica,sans-Serif" font-size="10.00"> basis</text>
</g>
<!-- Node21&#45;&gt;Node18 -->
<g id="edge53" class="edge">
<title>Node21&#45;&gt;Node18</title>
<path fill="none" stroke="#9a32cd" stroke-dasharray="5,2" d="M425.26,-578.5C513.92,-588.34 676.45,-600.59 813,-579 915,-562.87 1028.98,-511.89 1073.61,-490.55"/>
<polygon fill="#9a32cd" stroke="#9a32cd" points="425.41,-575 415.08,-577.35 424.62,-581.95 425.41,-575"/>
<text text-anchor="middle" x="714.5" y="-593" font-family="Helvetica,sans-Serif" font-size="10.00"> parameters</text>
</g>
<!-- Node22&#45;&gt;Node11 -->
<g id="edge57" class="edge">
<title>Node22&#45;&gt;Node11</title>
<path fill="none" stroke="#9a32cd" stroke-dasharray="5,2" d="M1943.24,-277.86C1883.91,-274.42 1789.15,-268.93 1728.14,-265.4"/>
<polygon fill="#9a32cd" stroke="#9a32cd" points="1943.35,-281.37 1953.53,-278.45 1943.75,-274.38 1943.35,-281.37"/>
<text text-anchor="middle" x="1839.5" y="-278" font-family="Helvetica,sans-Serif" font-size="10.00"> def</text>
</g>
<!-- Node23&#45;&gt;Node1 -->
<g id="edge61" class="edge">
<title>Node23&#45;&gt;Node1</title>
<path fill="none" stroke="#9a32cd" stroke-dasharray="5,2" d="M1456.13,-501.9C1532.15,-513.46 1661.49,-536.59 1768,-573 1787.03,-579.5 1807.62,-589.85 1821.61,-597.43"/>
<polygon fill="#9a32cd" stroke="#9a32cd" points="1456.63,-498.43 1446.22,-500.41 1455.59,-505.36 1456.63,-498.43"/>
<text text-anchor="middle" x="1576" y="-528" font-family="Helvetica,sans-Serif" font-size="10.00"> p_met</text>
</g>
<!-- Node24&#45;&gt;Node1 -->
<g id="edge64" class="edge">
<title>Node24&#45;&gt;Node1</title>
<path fill="none" stroke="#9a32cd" stroke-dasharray="5,2" d="M1727.09,-622.82C1746.18,-620.11 1767.31,-617.11 1785.99,-614.46"/>
<polygon fill="#9a32cd" stroke="#9a32cd" points="1726.43,-619.38 1717.03,-624.25 1727.42,-626.31 1726.43,-619.38"/>
<text text-anchor="middle" x="1757" y="-622" font-family="Helvetica,sans-Serif" font-size="10.00"> fmet</text>
</g>
</g>
</svg>
