<?xml version="1.0" encoding="UTF-8" standalone="no"?>
<!DOCTYPE svg PUBLIC "-//W3C//DTD SVG 1.1//EN"
 "http://www.w3.org/Graphics/SVG/1.1/DTD/svg11.dtd">
<!-- Generated by graphviz version 2.47.1 (20210515.0534)
 -->
<!-- Title: Kadath::Metric_cfc Pages: 1 -->
<svg width="1994pt" height="864pt"
 viewBox="0.00 0.00 1994.00 864.00" xmlns="http://www.w3.org/2000/svg" xmlns:xlink="http://www.w3.org/1999/xlink">
<g id="graph0" class="graph" transform="scale(1 1) rotate(0) translate(4 860)">
<title>Kadath::Metric_cfc</title>
<!-- Node1 -->
<g id="node1" class="node">
<title>Node1</title>
<g id="a_node1"><a xlink:title=" ">
<polygon fill="#bfbfbf" stroke="black" points="1738,-247.5 1738,-266.5 1836,-266.5 1836,-247.5 1738,-247.5"/>
<text text-anchor="middle" x="1787" y="-254.5" font-family="Helvetica,sans-Serif" font-size="10.00">Kadath::Metric_cfc</text>
</a>
</g>
</g>
<!-- Node2 -->
<g id="node2" class="node">
<title>Node2</title>
<g id="a_node2"><a xlink:href="classKadath_1_1Metric.html" target="_top" xlink:title=" ">
<polygon fill="none" stroke="black" points="1414,-597.5 1414,-616.5 1493,-616.5 1493,-597.5 1414,-597.5"/>
<text text-anchor="middle" x="1453.5" y="-604.5" font-family="Helvetica,sans-Serif" font-size="10.00">Kadath::Metric</text>
</a>
</g>
</g>
<!-- Node2&#45;&gt;Node1 -->
<g id="edge1" class="edge">
<title>Node2&#45;&gt;Node1</title>
<path fill="none" stroke="midnightblue" d="M1486.46,-620.05C1534.15,-637.19 1624.28,-660.24 1680,-616 1738.28,-569.73 1777.11,-318.97 1784.66,-266.59"/>
<polygon fill="midnightblue" stroke="midnightblue" points="1487.55,-616.72 1476.96,-616.51 1485.11,-623.28 1487.55,-616.72"/>
</g>
<!-- Node11 -->
<g id="node11" class="node">
<title>Node11</title>
<g id="a_node11"><a xlink:href="classKadath_1_1System__of__eqs.html" target="_top" xlink:title=" ">
<polygon fill="none" stroke="black" points="1561,-587.5 1561,-606.5 1680,-606.5 1680,-587.5 1561,-587.5"/>
<text text-anchor="middle" x="1620.5" y="-594.5" font-family="Helvetica,sans-Serif" font-size="10.00">Kadath::System_of_eqs</text>
</a>
</g>
</g>
<!-- Node2&#45;&gt;Node11 -->
<g id="edge55" class="edge">
<title>Node2&#45;&gt;Node11</title>
<path fill="none" stroke="#9a32cd" stroke-dasharray="5,2" d="M1503.25,-608.83C1505.87,-608.9 1508.47,-608.96 1511,-609 1525.22,-609.25 1528.82,-610.11 1543,-609 1550.37,-608.43 1558.11,-607.54 1565.71,-606.51"/>
<polygon fill="#9a32cd" stroke="#9a32cd" points="1503.19,-605.33 1493.09,-608.55 1502.99,-612.33 1503.19,-605.33"/>
<text text-anchor="middle" x="1527" y="-612" font-family="Helvetica,sans-Serif" font-size="10.00"> met</text>
</g>
<!-- Node23 -->
<g id="node23" class="node">
<title>Node23</title>
<g id="a_node23"><a xlink:href="classKadath_1_1Metric__flat.html" target="_top" xlink:title=" ">
<polygon fill="none" stroke="black" points="1572,-294.5 1572,-313.5 1669,-313.5 1669,-294.5 1572,-294.5"/>
<text text-anchor="middle" x="1620.5" y="-301.5" font-family="Helvetica,sans-Serif" font-size="10.00">Kadath::Metric_flat</text>
</a>
</g>
</g>
<!-- Node2&#45;&gt;Node23 -->
<g id="edge64" class="edge">
<title>Node2&#45;&gt;Node23</title>
<path fill="none" stroke="midnightblue" d="M1466.15,-589.06C1473.98,-576.8 1484.41,-560.09 1493,-545 1525.44,-487.98 1530.49,-472.07 1561,-414 1580.52,-376.85 1604.05,-332.84 1614.3,-313.69"/>
<polygon fill="midnightblue" stroke="midnightblue" points="1463.2,-587.17 1460.73,-597.47 1469.09,-590.96 1463.2,-587.17"/>
</g>
<!-- Node3 -->
<g id="node3" class="node">
<title>Node3</title>
<g id="a_node3"><a xlink:href="structKadath_1_1MemoryMappable.html" target="_top" xlink:title=" ">
<polygon fill="none" stroke="black" points="0,-493.5 0,-512.5 128,-512.5 128,-493.5 0,-493.5"/>
<text text-anchor="middle" x="64" y="-500.5" font-family="Helvetica,sans-Serif" font-size="10.00">Kadath::MemoryMappable</text>
</a>
</g>
</g>
<!-- Node3&#45;&gt;Node2 -->
<g id="edge2" class="edge">
<title>Node3&#45;&gt;Node2</title>
<path fill="none" stroke="midnightblue" d="M74.66,-521.94C95.89,-560.6 150.58,-645 223.5,-645 223.5,-645 223.5,-645 799.5,-645 1033.15,-645 1313.03,-620.45 1413.91,-610.82"/>
<polygon fill="midnightblue" stroke="midnightblue" points="77.57,-519.95 69.78,-512.76 71.39,-523.23 77.57,-519.95"/>
</g>
<!-- Node4 -->
<g id="node4" class="node">
<title>Node4</title>
<g id="a_node4"><a xlink:href="classKadath_1_1Space.html" target="_top" xlink:title=" ">
<polygon fill="none" stroke="black" points="674.5,-511.5 674.5,-530.5 754.5,-530.5 754.5,-511.5 674.5,-511.5"/>
<text text-anchor="middle" x="714.5" y="-518.5" font-family="Helvetica,sans-Serif" font-size="10.00">Kadath::Space</text>
</a>
</g>
</g>
<!-- Node3&#45;&gt;Node4 -->
<g id="edge4" class="edge">
<title>Node3&#45;&gt;Node4</title>
<path fill="none" stroke="midnightblue" d="M119.33,-514.43C128.22,-516.1 137.35,-517.69 146,-519 154.4,-520.27 156.54,-520.33 165,-521 283.91,-530.36 313.77,-531.89 433,-535 483.65,-536.32 496.33,-535.26 547,-535 590.56,-534.78 601.65,-538.3 645,-534 654.52,-533.06 664.68,-531.46 674.19,-529.7"/>
<polygon fill="midnightblue" stroke="midnightblue" points="119.92,-510.98 109.44,-512.53 118.6,-517.85 119.92,-510.98"/>
</g>
<!-- Node5 -->
<g id="node5" class="node">
<title>Node5</title>
<g id="a_node5"><a xlink:href="classKadath_1_1Domain.html" target="_top" xlink:title=" ">
<polygon fill="none" stroke="black" points="447.5,-506.5 447.5,-525.5 532.5,-525.5 532.5,-506.5 447.5,-506.5"/>
<text text-anchor="middle" x="490" y="-513.5" font-family="Helvetica,sans-Serif" font-size="10.00">Kadath::Domain</text>
</a>
</g>
</g>
<!-- Node3&#45;&gt;Node5 -->
<g id="edge6" class="edge">
<title>Node3&#45;&gt;Node5</title>
<path fill="none" stroke="midnightblue" d="M138.08,-505.24C227.45,-507.98 375.65,-512.52 447.46,-514.73"/>
<polygon fill="midnightblue" stroke="midnightblue" points="138.12,-501.74 128.02,-504.93 137.91,-508.74 138.12,-501.74"/>
</g>
<!-- Node6 -->
<g id="node6" class="node">
<title>Node6</title>
<g id="a_node6"><a xlink:href="classKadath_1_1Dim__array.html" target="_top" xlink:title=" ">
<polygon fill="none" stroke="black" points="177,-569.5 177,-588.5 272,-588.5 272,-569.5 177,-569.5"/>
<text text-anchor="middle" x="224.5" y="-576.5" font-family="Helvetica,sans-Serif" font-size="10.00">Kadath::Dim_array</text>
</a>
</g>
</g>
<!-- Node3&#45;&gt;Node6 -->
<g id="edge8" class="edge">
<title>Node3&#45;&gt;Node6</title>
<path fill="none" stroke="midnightblue" d="M86.05,-518.77C101.88,-530.06 124.47,-544.98 146,-555 158.39,-560.76 172.51,-565.61 185.28,-569.4"/>
<polygon fill="midnightblue" stroke="midnightblue" points="87.71,-515.65 77.56,-512.6 83.59,-521.31 87.71,-515.65"/>
</g>
<!-- Node7 -->
<g id="node7" class="node">
<title>Node7</title>
<g id="a_node7"><a xlink:href="classKadath_1_1Array.html" target="_top" xlink:title=" ">
<polygon fill="none" stroke="black" points="165,-451.5 165,-470.5 284,-470.5 284,-451.5 165,-451.5"/>
<text text-anchor="middle" x="224.5" y="-458.5" font-family="Helvetica,sans-Serif" font-size="10.00">Kadath::Array&lt; double &gt;</text>
</a>
</g>
</g>
<!-- Node3&#45;&gt;Node7 -->
<g id="edge10" class="edge">
<title>Node3&#45;&gt;Node7</title>
<path fill="none" stroke="midnightblue" d="M110.71,-490.89C135.09,-484.43 164.66,-476.59 187.4,-470.57"/>
<polygon fill="midnightblue" stroke="midnightblue" points="109.74,-487.52 100.97,-493.47 111.53,-494.29 109.74,-487.52"/>
</g>
<!-- Node8 -->
<g id="node8" class="node">
<title>Node8</title>
<g id="a_node8"><a xlink:href="classKadath_1_1Val__domain.html" target="_top" xlink:title=" ">
<polygon fill="none" stroke="black" points="663,-376.5 663,-395.5 766,-395.5 766,-376.5 663,-376.5"/>
<text text-anchor="middle" x="714.5" y="-383.5" font-family="Helvetica,sans-Serif" font-size="10.00">Kadath::Val_domain</text>
</a>
</g>
</g>
<!-- Node3&#45;&gt;Node8 -->
<g id="edge12" class="edge">
<title>Node3&#45;&gt;Node8</title>
<path fill="none" stroke="midnightblue" d="M65.25,-483.26C67.08,-431.03 80.02,-288.96 165,-226 301.44,-124.9 393.54,-145.28 547,-218 558.42,-223.41 555.21,-232.01 565,-240 596.12,-265.38 615.23,-255.04 645,-282 676.41,-310.44 699.88,-356.3 709.15,-376.23"/>
<polygon fill="midnightblue" stroke="midnightblue" points="61.74,-483.41 64.99,-493.49 68.74,-483.58 61.74,-483.41"/>
</g>
<!-- Node9 -->
<g id="node9" class="node">
<title>Node9</title>
<g id="a_node9"><a xlink:href="classKadath_1_1Base__spectral.html" target="_top" xlink:title=" ">
<polygon fill="none" stroke="black" points="433,-227.5 433,-246.5 547,-246.5 547,-227.5 433,-227.5"/>
<text text-anchor="middle" x="490" y="-234.5" font-family="Helvetica,sans-Serif" font-size="10.00">Kadath::Base_spectral</text>
</a>
</g>
</g>
<!-- Node3&#45;&gt;Node9 -->
<g id="edge16" class="edge">
<title>Node3&#45;&gt;Node9</title>
<path fill="none" stroke="midnightblue" d="M68.26,-483.29C76.42,-440.12 101.83,-336.68 165,-281 238.88,-215.87 361.44,-218.81 432.76,-227.47"/>
<polygon fill="midnightblue" stroke="midnightblue" points="64.77,-482.88 66.46,-493.34 71.66,-484.11 64.77,-482.88"/>
</g>
<!-- Node10 -->
<g id="node10" class="node">
<title>Node10</title>
<g id="a_node10"><a xlink:href="classKadath_1_1Array.html" target="_top" xlink:title=" ">
<polygon fill="none" stroke="black" points="174,-290.5 174,-309.5 275,-309.5 275,-290.5 174,-290.5"/>
<text text-anchor="middle" x="224.5" y="-297.5" font-family="Helvetica,sans-Serif" font-size="10.00">Kadath::Array&lt; int &gt;</text>
</a>
</g>
</g>
<!-- Node3&#45;&gt;Node10 -->
<g id="edge18" class="edge">
<title>Node3&#45;&gt;Node10</title>
<path fill="none" stroke="midnightblue" d="M78.73,-485.42C111.01,-444.07 190.9,-341.75 215.9,-309.73"/>
<polygon fill="midnightblue" stroke="midnightblue" points="75.83,-483.45 72.43,-493.48 81.35,-487.75 75.83,-483.45"/>
</g>
<!-- Node12 -->
<g id="node12" class="node">
<title>Node12</title>
<g id="a_node12"><a xlink:href="classKadath_1_1Equation.html" target="_top" xlink:title=" ">
<polygon fill="none" stroke="black" points="1897,-675.5 1897,-694.5 1986,-694.5 1986,-675.5 1897,-675.5"/>
<text text-anchor="middle" x="1941.5" y="-682.5" font-family="Helvetica,sans-Serif" font-size="10.00">Kadath::Equation</text>
</a>
</g>
</g>
<!-- Node3&#45;&gt;Node12 -->
<g id="edge22" class="edge">
<title>Node3&#45;&gt;Node12</title>
<path fill="none" stroke="midnightblue" d="M64.76,-523.2C65,-598.15 76.52,-856 223.5,-856 223.5,-856 223.5,-856 1788,-856 1875.11,-856 1924.79,-730.86 1937.32,-694.68"/>
<polygon fill="midnightblue" stroke="midnightblue" points="68.26,-522.82 64.8,-512.81 61.26,-522.8 68.26,-522.82"/>
</g>
<!-- Node13 -->
<g id="node13" class="node">
<title>Node13</title>
<g id="a_node13"><a xlink:href="classKadath_1_1Ope__eq.html" target="_top" xlink:title=" ">
<polygon fill="none" stroke="black" points="1744,-656.5 1744,-675.5 1830,-675.5 1830,-656.5 1744,-656.5"/>
<text text-anchor="middle" x="1787" y="-663.5" font-family="Helvetica,sans-Serif" font-size="10.00">Kadath::Ope_eq</text>
</a>
</g>
</g>
<!-- Node3&#45;&gt;Node13 -->
<g id="edge25" class="edge">
<title>Node3&#45;&gt;Node13</title>
<path fill="none" stroke="midnightblue" d="M65.67,-522.78C69.15,-591.82 90.7,-818 223.5,-818 223.5,-818 223.5,-818 1182,-818 1416.64,-818 1687.48,-708.78 1764.55,-675.51"/>
<polygon fill="midnightblue" stroke="midnightblue" points="69.17,-522.61 65.24,-512.77 62.17,-522.91 69.17,-522.61"/>
</g>
<!-- Node14 -->
<g id="node14" class="node">
<title>Node14</title>
<g id="a_node14"><a xlink:href="classKadath_1_1Eq__int.html" target="_top" xlink:title=" ">
<polygon fill="none" stroke="black" points="1902,-462.5 1902,-481.5 1981,-481.5 1981,-462.5 1902,-462.5"/>
<text text-anchor="middle" x="1941.5" y="-469.5" font-family="Helvetica,sans-Serif" font-size="10.00">Kadath::Eq_int</text>
</a>
</g>
</g>
<!-- Node3&#45;&gt;Node14 -->
<g id="edge30" class="edge">
<title>Node3&#45;&gt;Node14</title>
<path fill="none" stroke="midnightblue" d="M66.62,-483.15C72.17,-420.51 93.07,-222.01 146,-67 160.71,-23.91 177.97,0 223.5,0 223.5,0 223.5,0 1788,0 1888.75,0 1932.73,-394.36 1939.55,-462.14"/>
<polygon fill="midnightblue" stroke="midnightblue" points="63.13,-482.96 65.76,-493.22 70.1,-483.56 63.13,-482.96"/>
</g>
<!-- Node15 -->
<g id="node15" class="node">
<title>Node15</title>
<g id="a_node15"><a xlink:href="classKadath_1_1Index.html" target="_top" xlink:title=" ">
<polygon fill="none" stroke="black" points="452.5,-673.5 452.5,-692.5 527.5,-692.5 527.5,-673.5 452.5,-673.5"/>
<text text-anchor="middle" x="490" y="-680.5" font-family="Helvetica,sans-Serif" font-size="10.00">Kadath::Index</text>
</a>
</g>
</g>
<!-- Node3&#45;&gt;Node15 -->
<g id="edge34" class="edge">
<title>Node3&#45;&gt;Node15</title>
<path fill="none" stroke="midnightblue" d="M68.77,-522.69C76.5,-557.04 97.66,-627.27 146,-659 241.32,-721.57 385.34,-704.13 452.33,-691.24"/>
<polygon fill="midnightblue" stroke="midnightblue" points="72.2,-521.96 66.72,-512.89 65.34,-523.4 72.2,-521.96"/>
</g>
<!-- Node16 -->
<g id="node16" class="node">
<title>Node16</title>
<g id="a_node16"><a xlink:href="classKadath_1_1Param.html" target="_top" xlink:title=" ">
<polygon fill="none" stroke="black" points="565,-754.5 565,-773.5 645,-773.5 645,-754.5 565,-754.5"/>
<text text-anchor="middle" x="605" y="-761.5" font-family="Helvetica,sans-Serif" font-size="10.00">Kadath::Param</text>
</a>
</g>
</g>
<!-- Node3&#45;&gt;Node16 -->
<g id="edge38" class="edge">
<title>Node3&#45;&gt;Node16</title>
<path fill="none" stroke="midnightblue" d="M65.13,-522.73C66.62,-568.7 77.38,-682.94 146,-735 274.53,-832.52 486.29,-793.91 569.19,-773.51"/>
<polygon fill="midnightblue" stroke="midnightblue" points="68.63,-522.53 64.92,-512.6 61.63,-522.67 68.63,-522.53"/>
</g>
<!-- Node17 -->
<g id="node17" class="node">
<title>Node17</title>
<g id="a_node17"><a xlink:href="classKadath_1_1Term__eq.html" target="_top" xlink:title=" ">
<polygon fill="none" stroke="black" points="1227,-436.5 1227,-455.5 1317,-455.5 1317,-436.5 1227,-436.5"/>
<text text-anchor="middle" x="1272" y="-443.5" font-family="Helvetica,sans-Serif" font-size="10.00">Kadath::Term_eq</text>
</a>
</g>
</g>
<!-- Node3&#45;&gt;Node17 -->
<g id="edge41" class="edge">
<title>Node3&#45;&gt;Node17</title>
<path fill="none" stroke="midnightblue" d="M69.24,-522.61C82.09,-576.17 125.86,-721 223.5,-721 223.5,-721 223.5,-721 606,-721 852.95,-721 916.44,-665.96 1135,-551 1187.01,-523.65 1239.51,-476.21 1260.95,-455.8"/>
<polygon fill="midnightblue" stroke="midnightblue" points="72.6,-521.61 66.96,-512.65 65.78,-523.18 72.6,-521.61"/>
</g>
<!-- Node18 -->
<g id="node18" class="node">
<title>Node18</title>
<g id="a_node18"><a xlink:href="classKadath_1_1Tensor.html" target="_top" xlink:title=" ">
<polygon fill="none" stroke="black" points="1053,-168.5 1053,-187.5 1135,-187.5 1135,-168.5 1053,-168.5"/>
<text text-anchor="middle" x="1094" y="-175.5" font-family="Helvetica,sans-Serif" font-size="10.00">Kadath::Tensor</text>
</a>
</g>
</g>
<!-- Node3&#45;&gt;Node18 -->
<g id="edge43" class="edge">
<title>Node3&#45;&gt;Node18</title>
<path fill="none" stroke="midnightblue" d="M64.9,-483.36C65.6,-422.55 75.29,-234.52 165,-119 183.45,-95.25 193.43,-85 223.5,-85 223.5,-85 223.5,-85 885.5,-85 966.43,-85 1050.8,-144.64 1081.21,-168.4"/>
<polygon fill="midnightblue" stroke="midnightblue" points="61.4,-483.47 64.86,-493.48 68.4,-483.5 61.4,-483.47"/>
</g>
<!-- Node20 -->
<g id="node20" class="node">
<title>Node20</title>
<g id="a_node20"><a xlink:href="classKadath_1_1Base__tensor.html" target="_top" xlink:title=" ">
<polygon fill="none" stroke="black" points="831,-218.5 831,-237.5 938,-237.5 938,-218.5 831,-218.5"/>
<text text-anchor="middle" x="884.5" y="-225.5" font-family="Helvetica,sans-Serif" font-size="10.00">Kadath::Base_tensor</text>
</a>
</g>
</g>
<!-- Node3&#45;&gt;Node20 -->
<g id="edge50" class="edge">
<title>Node3&#45;&gt;Node20</title>
<path fill="none" stroke="midnightblue" d="M66.17,-482.97C70.36,-426.9 88.74,-265.71 165,-162 183.51,-136.82 192.25,-123 223.5,-123 223.5,-123 223.5,-123 715.5,-123 787.04,-123 853.23,-192.32 875.54,-218.31"/>
<polygon fill="midnightblue" stroke="midnightblue" points="62.66,-483.07 65.48,-493.28 69.64,-483.54 62.66,-483.07"/>
</g>
<!-- Node21 -->
<g id="node21" class="node">
<title>Node21</title>
<g id="a_node21"><a xlink:href="classKadath_1_1Param__tensor.html" target="_top" xlink:title=" ">
<polygon fill="none" stroke="black" points="302,-36.5 302,-55.5 415,-55.5 415,-36.5 302,-36.5"/>
<text text-anchor="middle" x="358.5" y="-43.5" font-family="Helvetica,sans-Serif" font-size="10.00">Kadath::Param_tensor</text>
</a>
</g>
</g>
<!-- Node3&#45;&gt;Node21 -->
<g id="edge54" class="edge">
<title>Node3&#45;&gt;Node21</title>
<path fill="none" stroke="midnightblue" d="M65.73,-482.88C68.97,-405.46 84.75,-128.24 146,-71 188.28,-31.49 257.91,-30.95 305.65,-36.49"/>
<polygon fill="midnightblue" stroke="midnightblue" points="62.22,-483.04 65.32,-493.17 69.21,-483.31 62.22,-483.04"/>
</g>
<!-- Node4&#45;&gt;Node2 -->
<g id="edge3" class="edge">
<title>Node4&#45;&gt;Node2</title>
<path fill="none" stroke="#9a32cd" stroke-dasharray="5,2" d="M764.84,-519.83C843.49,-518.63 1002.01,-518.9 1135,-536 1148.9,-537.79 1332.14,-579.49 1413.75,-598.13"/>
<polygon fill="#9a32cd" stroke="#9a32cd" points="764.67,-516.34 754.73,-520 764.79,-523.34 764.67,-516.34"/>
<text text-anchor="middle" x="1094" y="-539" font-family="Helvetica,sans-Serif" font-size="10.00"> espace</text>
</g>
<!-- Node4&#45;&gt;Node11 -->
<g id="edge32" class="edge">
<title>Node4&#45;&gt;Node11</title>
<path fill="none" stroke="#9a32cd" stroke-dasharray="5,2" d="M765.1,-530.49C901.89,-556.61 1278.17,-627.9 1335,-633 1362,-635.42 1368.9,-633.83 1396,-633 1461.43,-631 1478.85,-637.02 1543,-624 1561.91,-620.16 1582.49,-612.7 1597.54,-606.59"/>
<polygon fill="#9a32cd" stroke="#9a32cd" points="765.38,-526.99 754.9,-528.55 764.07,-533.86 765.38,-526.99"/>
<text text-anchor="middle" x="1181" y="-615" font-family="Helvetica,sans-Serif" font-size="10.00"> espace</text>
</g>
<!-- Node4&#45;&gt;Node18 -->
<g id="edge44" class="edge">
<title>Node4&#45;&gt;Node18</title>
<path fill="none" stroke="#9a32cd" stroke-dasharray="5,2" d="M732.86,-504.15C772.08,-466.19 870.74,-371.39 956,-295 1001.66,-254.09 1057.71,-207.24 1081.48,-187.53"/>
<polygon fill="#9a32cd" stroke="#9a32cd" points="730.17,-501.88 725.42,-511.35 735.04,-506.91 730.17,-501.88"/>
<text text-anchor="middle" x="884.5" y="-413" font-family="Helvetica,sans-Serif" font-size="10.00"> espace</text>
</g>
<!-- Node4&#45;&gt;Node20 -->
<g id="edge51" class="edge">
<title>Node4&#45;&gt;Node20</title>
<path fill="none" stroke="#9a32cd" stroke-dasharray="5,2" d="M730.42,-503.3C741.97,-488.62 757.41,-466.72 766,-445 783.73,-400.16 762.98,-381.4 784,-338 805.21,-294.2 849.34,-255.12 870.98,-237.66"/>
<polygon fill="#9a32cd" stroke="#9a32cd" points="727.4,-501.46 723.82,-511.44 732.84,-505.87 727.4,-501.46"/>
<text text-anchor="middle" x="798.5" y="-341" font-family="Helvetica,sans-Serif" font-size="10.00"> space</text>
</g>
<!-- Node5&#45;&gt;Node4 -->
<g id="edge5" class="edge">
<title>Node5&#45;&gt;Node4</title>
<path fill="none" stroke="#9a32cd" stroke-dasharray="5,2" d="M542.73,-517.16C582.91,-518.07 637.77,-519.3 674.35,-520.12"/>
<polygon fill="#9a32cd" stroke="#9a32cd" points="542.67,-513.66 532.59,-516.93 542.51,-520.66 542.67,-513.66"/>
<text text-anchor="middle" x="605" y="-522" font-family="Helvetica,sans-Serif" font-size="10.00"> domains</text>
</g>
<!-- Node5&#45;&gt;Node8 -->
<g id="edge19" class="edge">
<title>Node5&#45;&gt;Node8</title>
<path fill="none" stroke="#9a32cd" stroke-dasharray="5,2" d="M523.89,-502.54C555.86,-488.87 605.28,-466.17 645,-441 666.9,-427.12 689.92,-407.42 702.92,-395.75"/>
<polygon fill="#9a32cd" stroke="#9a32cd" points="522.41,-499.36 514.56,-506.48 525.13,-505.81 522.41,-499.36"/>
<text text-anchor="middle" x="605" y="-486" font-family="Helvetica,sans-Serif" font-size="10.00"> zone</text>
</g>
<!-- Node5&#45;&gt;Node12 -->
<g id="edge28" class="edge">
<title>Node5&#45;&gt;Node12</title>
<path fill="none" stroke="#9a32cd" stroke-dasharray="5,2" d="M538.34,-528.1C645.11,-555.54 912.7,-625.05 1135,-689 1309.69,-739.25 1344.22,-809 1526,-809 1526,-809 1526,-809 1788,-809 1860.34,-809 1917.45,-723.96 1934.94,-694.73"/>
<polygon fill="#9a32cd" stroke="#9a32cd" points="539.07,-524.68 528.51,-525.58 537.33,-531.46 539.07,-524.68"/>
<text text-anchor="middle" x="1272" y="-765" font-family="Helvetica,sans-Serif" font-size="10.00"> dom</text>
</g>
<!-- Node6&#45;&gt;Node5 -->
<g id="edge7" class="edge">
<title>Node6&#45;&gt;Node5</title>
<path fill="none" stroke="#9a32cd" stroke-dasharray="5,2" d="M275.54,-567.04C325.9,-555 402.59,-536.66 449.04,-525.55"/>
<polygon fill="#9a32cd" stroke="#9a32cd" points="274.43,-563.7 265.52,-569.43 276.06,-570.51 274.43,-563.7"/>
<text text-anchor="middle" x="358.5" y="-574" font-family="Helvetica,sans-Serif" font-size="10.00"> nbr_coefs</text>
<text text-anchor="middle" x="358.5" y="-563" font-family="Helvetica,sans-Serif" font-size="10.00">nbr_points</text>
</g>
<!-- Node6&#45;&gt;Node15 -->
<g id="edge35" class="edge">
<title>Node6&#45;&gt;Node15</title>
<path fill="none" stroke="#9a32cd" stroke-dasharray="5,2" d="M259.28,-592.33C313.22,-613.62 417.53,-654.79 464.74,-673.43"/>
<polygon fill="#9a32cd" stroke="#9a32cd" points="260.4,-589.01 249.82,-588.6 257.83,-595.52 260.4,-589.01"/>
<text text-anchor="middle" x="358.5" y="-655" font-family="Helvetica,sans-Serif" font-size="10.00"> sizes</text>
</g>
<!-- Node7&#45;&gt;Node5 -->
<g id="edge9" class="edge">
<title>Node7&#45;&gt;Node5</title>
<path fill="none" stroke="#9a32cd" stroke-dasharray="5,2" d="M294.04,-469.01C330.3,-473.96 375.38,-481.25 415,-491 431.72,-495.12 450.07,-501.3 464.31,-506.49"/>
<polygon fill="#9a32cd" stroke="#9a32cd" points="294.44,-465.53 284.06,-467.68 293.51,-472.47 294.44,-465.53"/>
<text text-anchor="middle" x="358.5" y="-494" font-family="Helvetica,sans-Serif" font-size="10.00"> coloc</text>
</g>
<!-- Node7&#45;&gt;Node8 -->
<g id="edge13" class="edge">
<title>Node7&#45;&gt;Node8</title>
<path fill="none" stroke="#9a32cd" stroke-dasharray="5,2" d="M263.91,-448.24C326.24,-428.29 453.67,-390.57 565,-377 597.43,-373.05 634.07,-375.2 662.84,-378.39"/>
<polygon fill="#9a32cd" stroke="#9a32cd" points="262.56,-445 254.12,-451.4 264.71,-451.66 262.56,-445"/>
<text text-anchor="middle" x="490" y="-415" font-family="Helvetica,sans-Serif" font-size="10.00"> c</text>
<text text-anchor="middle" x="490" y="-404" font-family="Helvetica,sans-Serif" font-size="10.00">cf</text>
</g>
<!-- Node7&#45;&gt;Node11 -->
<g id="edge39" class="edge">
<title>Node7&#45;&gt;Node11</title>
<path fill="none" stroke="#9a32cd" stroke-dasharray="5,2" d="M294.76,-464.59C330.65,-466.47 375.18,-468.83 415,-471 690.58,-486.05 760.64,-475.96 1035,-506 1161.24,-519.82 1191.7,-531.34 1317,-552 1325,-553.32 1326.99,-553.74 1335,-555 1413.05,-567.26 1503.32,-580.42 1560.88,-588.67"/>
<polygon fill="#9a32cd" stroke="#9a32cd" points="294.57,-461.08 284.4,-464.05 294.2,-468.07 294.57,-461.08"/>
<text text-anchor="middle" x="995.5" y="-509" font-family="Helvetica,sans-Serif" font-size="10.00"> val_cst_hard</text>
</g>
<!-- Node8&#45;&gt;Node5 -->
<g id="edge11" class="edge">
<title>Node8&#45;&gt;Node5</title>
<path fill="none" stroke="#9a32cd" stroke-dasharray="5,2" d="M652.67,-378.36C624.19,-377.69 590.9,-381.32 565,-397 559.54,-400.31 513.24,-478.26 496.78,-506.17"/>
<polygon fill="#9a32cd" stroke="#9a32cd" points="652.79,-381.87 662.93,-378.79 653.09,-374.87 652.79,-381.87"/>
<text text-anchor="middle" x="605" y="-433" font-family="Helvetica,sans-Serif" font-size="10.00"> absol</text>
<text text-anchor="middle" x="605" y="-422" font-family="Helvetica,sans-Serif" font-size="10.00">cart</text>
<text text-anchor="middle" x="605" y="-411" font-family="Helvetica,sans-Serif" font-size="10.00">cart_surr</text>
<text text-anchor="middle" x="605" y="-400" font-family="Helvetica,sans-Serif" font-size="10.00">radius</text>
</g>
<!-- Node8&#45;&gt;Node8 -->
<g id="edge14" class="edge">
<title>Node8&#45;&gt;Node8</title>
<path fill="none" stroke="#9a32cd" stroke-dasharray="5,2" d="M699.03,-405.77C700.25,-410.5 705.4,-414 714.5,-414 729.43,-414 733.75,-404.57 727.45,-395.76"/>
<polygon fill="#9a32cd" stroke="#9a32cd" points="702.5,-406.31 701.55,-395.76 695.72,-404.6 702.5,-406.31"/>
<text text-anchor="middle" x="714.5" y="-428" font-family="Helvetica,sans-Serif" font-size="10.00"> p_der_abs</text>
<text text-anchor="middle" x="714.5" y="-417" font-family="Helvetica,sans-Serif" font-size="10.00">p_der_var</text>
</g>
<!-- Node19 -->
<g id="node19" class="node">
<title>Node19</title>
<g id="a_node19"><a xlink:href="classKadath_1_1Scalar.html" target="_top" xlink:title=" ">
<polygon fill="none" stroke="black" points="1232,-174.5 1232,-193.5 1312,-193.5 1312,-174.5 1232,-174.5"/>
<text text-anchor="middle" x="1272" y="-181.5" font-family="Helvetica,sans-Serif" font-size="10.00">Kadath::Scalar</text>
</a>
</g>
</g>
<!-- Node8&#45;&gt;Node19 -->
<g id="edge47" class="edge">
<title>Node8&#45;&gt;Node19</title>
<path fill="none" stroke="#9a32cd" stroke-dasharray="5,2" d="M752.12,-398.45C796.93,-411.73 874.65,-428.4 938,-409 956.64,-403.29 1196.55,-236.05 1257.16,-193.68"/>
<polygon fill="#9a32cd" stroke="#9a32cd" points="753.12,-395.09 742.53,-395.51 751.07,-401.79 753.12,-395.09"/>
<text text-anchor="middle" x="995.5" y="-401" font-family="Helvetica,sans-Serif" font-size="10.00"> val_zones</text>
</g>
<!-- Node9&#45;&gt;Node8 -->
<g id="edge15" class="edge">
<title>Node9&#45;&gt;Node8</title>
<path fill="none" stroke="#9a32cd" stroke-dasharray="5,2" d="M514.58,-252.15C544.93,-271.71 599.19,-306.94 645,-338 664.35,-351.12 686.46,-366.72 700.2,-376.5"/>
<polygon fill="#9a32cd" stroke="#9a32cd" points="516.27,-249.07 505.97,-246.6 512.48,-254.96 516.27,-249.07"/>
<text text-anchor="middle" x="605" y="-341" font-family="Helvetica,sans-Serif" font-size="10.00"> base</text>
</g>
<!-- Node10&#45;&gt;Node9 -->
<g id="edge17" class="edge">
<title>Node10&#45;&gt;Node9</title>
<path fill="none" stroke="#9a32cd" stroke-dasharray="5,2" d="M250.49,-285.45C265.06,-277.61 284.05,-268.44 302,-263 344.82,-250.02 395.14,-243.49 432.79,-240.22"/>
<polygon fill="#9a32cd" stroke="#9a32cd" points="248.66,-282.46 241.61,-290.36 252.05,-288.59 248.66,-282.46"/>
<text text-anchor="middle" x="358.5" y="-266" font-family="Helvetica,sans-Serif" font-size="10.00"> bases_1d</text>
</g>
<!-- Node10&#45;&gt;Node11 -->
<g id="edge36" class="edge">
<title>Node10&#45;&gt;Node11</title>
<path fill="none" stroke="#9a32cd" stroke-dasharray="5,2" d="M285.42,-299.68C447.27,-299.12 890.76,-299.84 1035,-323 1113.35,-335.58 1132.25,-342.85 1209,-363 1336.31,-396.43 1375.94,-386.8 1493,-447 1556.62,-479.72 1600.99,-559.69 1614.88,-587.38"/>
<polygon fill="#9a32cd" stroke="#9a32cd" points="285.16,-296.18 275.17,-299.71 285.18,-303.18 285.16,-296.18"/>
<text text-anchor="middle" x="995.5" y="-337" font-family="Helvetica,sans-Serif" font-size="10.00"> assoc_var</text>
<text text-anchor="middle" x="995.5" y="-326" font-family="Helvetica,sans-Serif" font-size="10.00">assoc_var_double</text>
</g>
<!-- Node10&#45;&gt;Node12 -->
<g id="edge23" class="edge">
<title>Node10&#45;&gt;Node12</title>
<path fill="none" stroke="#9a32cd" stroke-dasharray="5,2" d="M285.05,-311.34C290.77,-312.29 296.49,-313.2 302,-314 419.01,-330.99 712.93,-364.66 831,-371 921.54,-375.86 944.5,-376.44 1035,-371 1161.01,-363.43 1192.79,-359.56 1317,-337 1488.5,-305.85 1526.97,-277.63 1698,-244 1758.24,-232.16 1789,-198.5 1836,-238 1956.55,-339.31 1851.16,-436.36 1897,-587 1907.24,-620.66 1926.07,-658.03 1935.23,-675.29"/>
<polygon fill="#9a32cd" stroke="#9a32cd" points="285.24,-307.82 274.79,-309.57 284.06,-314.72 285.24,-307.82"/>
<text text-anchor="middle" x="1181" y="-376" font-family="Helvetica,sans-Serif" font-size="10.00"> n_cond</text>
<text text-anchor="middle" x="1181" y="-365" font-family="Helvetica,sans-Serif" font-size="10.00">p_cmp_used</text>
</g>
<!-- Node10&#45;&gt;Node18 -->
<g id="edge48" class="edge">
<title>Node10&#45;&gt;Node18</title>
<path fill="none" stroke="#9a32cd" stroke-dasharray="5,2" d="M243.14,-283.16C257.76,-270.17 279.7,-252.81 302,-243 356.25,-219.13 374.21,-225.55 433,-218 666.41,-188.03 949.23,-180.41 1052.65,-178.56"/>
<polygon fill="#9a32cd" stroke="#9a32cd" points="240.44,-280.89 235.43,-290.22 245.17,-286.05 240.44,-280.89"/>
<text text-anchor="middle" x="714.5" y="-210" font-family="Helvetica,sans-Serif" font-size="10.00"> give_indices</text>
<text text-anchor="middle" x="714.5" y="-199" font-family="Helvetica,sans-Serif" font-size="10.00">type_indice</text>
</g>
<!-- Node10&#45;&gt;Node20 -->
<g id="edge52" class="edge">
<title>Node10&#45;&gt;Node20</title>
<path fill="none" stroke="#9a32cd" stroke-dasharray="5,2" d="M285.2,-293.47C412.7,-279.52 709.78,-247.01 830.79,-233.77"/>
<polygon fill="#9a32cd" stroke="#9a32cd" points="284.79,-289.99 275.23,-294.56 285.55,-296.95 284.79,-289.99"/>
<text text-anchor="middle" x="605" y="-266" font-family="Helvetica,sans-Serif" font-size="10.00"> basis</text>
</g>
<!-- Node11&#45;&gt;Node2 -->
<g id="edge20" class="edge">
<title>Node11&#45;&gt;Node2</title>
<path fill="none" stroke="#9a32cd" stroke-dasharray="5,2" d="M1550.86,-596.09C1537.62,-596.35 1523.86,-596.92 1511,-598 1505.16,-598.49 1499.01,-599.23 1493.01,-600.08"/>
<polygon fill="#9a32cd" stroke="#9a32cd" points="1550.91,-599.59 1560.86,-595.95 1550.82,-592.59 1550.91,-599.59"/>
<text text-anchor="middle" x="1527" y="-601" font-family="Helvetica,sans-Serif" font-size="10.00"> syst</text>
</g>
<!-- Node11&#45;&gt;Node13 -->
<g id="edge27" class="edge">
<title>Node11&#45;&gt;Node13</title>
<path fill="none" stroke="#9a32cd" stroke-dasharray="5,2" d="M1644.12,-611.98C1658.96,-621.31 1679.06,-633.01 1698,-641 1712.78,-647.24 1729.59,-652.44 1744.54,-656.46"/>
<polygon fill="#9a32cd" stroke="#9a32cd" points="1645.93,-608.98 1635.62,-606.54 1642.15,-614.88 1645.93,-608.98"/>
<text text-anchor="middle" x="1709" y="-651" font-family="Helvetica,sans-Serif" font-size="10.00"> syst</text>
</g>
<!-- Node12&#45;&gt;Node11 -->
<g id="edge21" class="edge">
<title>Node12&#45;&gt;Node11</title>
<path fill="none" stroke="#9a32cd" stroke-dasharray="5,2" d="M1914.87,-670.69C1894.17,-659.7 1863.97,-644.93 1836,-636 1784.62,-619.59 1723.98,-609.36 1680.31,-603.52"/>
<polygon fill="#9a32cd" stroke="#9a32cd" points="1913.21,-673.77 1923.67,-675.44 1916.53,-667.61 1913.21,-673.77"/>
<text text-anchor="middle" x="1787" y="-639" font-family="Helvetica,sans-Serif" font-size="10.00"> eq</text>
</g>
<!-- Node13&#45;&gt;Node12 -->
<g id="edge24" class="edge">
<title>Node13&#45;&gt;Node12</title>
<path fill="none" stroke="#9a32cd" stroke-dasharray="5,2" d="M1840.11,-672.49C1858.62,-674.8 1879.25,-677.37 1896.97,-679.58"/>
<polygon fill="#9a32cd" stroke="#9a32cd" points="1840.43,-669.01 1830.07,-671.24 1839.57,-675.95 1840.43,-669.01"/>
<text text-anchor="middle" x="1866.5" y="-680" font-family="Helvetica,sans-Serif" font-size="10.00"> parts</text>
</g>
<!-- Node13&#45;&gt;Node13 -->
<g id="edge26" class="edge">
<title>Node13&#45;&gt;Node13</title>
<path fill="none" stroke="#9a32cd" stroke-dasharray="5,2" d="M1772.64,-685.77C1773.76,-690.5 1778.55,-694 1787,-694 1800.86,-694 1804.87,-684.57 1799.02,-675.76"/>
<polygon fill="#9a32cd" stroke="#9a32cd" points="1776.11,-686.29 1774.98,-675.76 1769.29,-684.7 1776.11,-686.29"/>
<text text-anchor="middle" x="1787" y="-697" font-family="Helvetica,sans-Serif" font-size="10.00"> parts</text>
</g>
<!-- Node13&#45;&gt;Node14 -->
<g id="edge31" class="edge">
<title>Node13&#45;&gt;Node14</title>
<path fill="none" stroke="#9a32cd" stroke-dasharray="5,2" d="M1824.15,-651.48C1828.48,-648.75 1832.57,-645.61 1836,-642 1849.72,-627.58 1844.42,-618.44 1854,-601 1879.7,-554.2 1917.39,-502.63 1933.15,-481.66"/>
<polygon fill="#9a32cd" stroke="#9a32cd" points="1822.15,-648.58 1815.08,-656.48 1825.53,-654.71 1822.15,-648.58"/>
<text text-anchor="middle" x="1866.5" y="-604" font-family="Helvetica,sans-Serif" font-size="10.00"> parts</text>
</g>
<!-- Node22 -->
<g id="node22" class="node">
<title>Node22</title>
<g id="a_node22"><a xlink:href="classKadath_1_1Ope__def.html" target="_top" xlink:title=" ">
<polygon fill="none" stroke="black" points="1897,-558.5 1897,-577.5 1986,-577.5 1986,-558.5 1897,-558.5"/>
<text text-anchor="middle" x="1941.5" y="-565.5" font-family="Helvetica,sans-Serif" font-size="10.00">Kadath::Ope_def</text>
</a>
</g>
</g>
<!-- Node13&#45;&gt;Node22 -->
<g id="edge58" class="edge">
<title>Node13&#45;&gt;Node22</title>
<path fill="none" stroke="midnightblue" d="M1817.59,-651.67C1823.72,-648.57 1830.11,-645.25 1836,-642 1855.56,-631.22 1860.61,-628.67 1879,-616 1897.07,-603.55 1916.9,-587.64 1929.02,-577.63"/>
<polygon fill="midnightblue" stroke="midnightblue" points="1815.66,-648.72 1808.27,-656.31 1818.78,-654.99 1815.66,-648.72"/>
</g>
<!-- Node14&#45;&gt;Node11 -->
<g id="edge29" class="edge">
<title>Node14&#45;&gt;Node11</title>
<path fill="none" stroke="#9a32cd" stroke-dasharray="5,2" d="M1906.57,-485.3C1841.92,-510.63 1702.48,-565.27 1646,-587.4"/>
<polygon fill="#9a32cd" stroke="#9a32cd" points="1907.88,-488.54 1915.91,-481.63 1905.33,-482.02 1907.88,-488.54"/>
<text text-anchor="middle" x="1787" y="-553" font-family="Helvetica,sans-Serif" font-size="10.00"> eq_int</text>
</g>
<!-- Node15&#45;&gt;Node11 -->
<g id="edge33" class="edge">
<title>Node15&#45;&gt;Node11</title>
<path fill="none" stroke="#9a32cd" stroke-dasharray="5,2" d="M538.12,-682.64C681.64,-681.25 1126.02,-674.74 1493,-646 1515.31,-644.25 1521.72,-646.95 1543,-640 1566.75,-632.24 1591.47,-616.78 1606.16,-606.66"/>
<polygon fill="#9a32cd" stroke="#9a32cd" points="537.88,-679.14 527.91,-682.74 537.94,-686.14 537.88,-679.14"/>
<text text-anchor="middle" x="1094" y="-673" font-family="Helvetica,sans-Serif" font-size="10.00"> which_coef</text>
</g>
<!-- Node16&#45;&gt;Node11 -->
<g id="edge37" class="edge">
<title>Node16&#45;&gt;Node11</title>
<path fill="none" stroke="#9a32cd" stroke-dasharray="5,2" d="M655.26,-764.48C790.25,-765.04 1177.05,-761.55 1493,-709 1515.65,-705.23 1523.84,-708.65 1543,-696 1578.71,-672.42 1604.76,-626.51 1614.87,-606.59"/>
<polygon fill="#9a32cd" stroke="#9a32cd" points="655.25,-760.98 645.23,-764.43 655.21,-767.98 655.25,-760.98"/>
<text text-anchor="middle" x="1094" y="-767" font-family="Helvetica,sans-Serif" font-size="10.00"> paruser</text>
<text text-anchor="middle" x="1094" y="-756" font-family="Helvetica,sans-Serif" font-size="10.00">paruser_bin</text>
</g>
<!-- Node17&#45;&gt;Node2 -->
<g id="edge60" class="edge">
<title>Node17&#45;&gt;Node2</title>
<path fill="none" stroke="#9a32cd" stroke-dasharray="5,2" d="M1326.87,-455.27C1350.8,-461.87 1377.65,-473.09 1396,-492 1413.32,-509.86 1403.37,-522.51 1414,-545 1423.2,-564.47 1437.16,-585.42 1445.5,-597.3"/>
<polygon fill="#9a32cd" stroke="#9a32cd" points="1327.72,-451.87 1317.17,-452.79 1325.99,-458.65 1327.72,-451.87"/>
<text text-anchor="middle" x="1365.5" y="-572" font-family="Helvetica,sans-Serif" font-size="10.00"> p_christo</text>
<text text-anchor="middle" x="1365.5" y="-561" font-family="Helvetica,sans-Serif" font-size="10.00">p_det_cov</text>
<text text-anchor="middle" x="1365.5" y="-550" font-family="Helvetica,sans-Serif" font-size="10.00">p_dirac</text>
<text text-anchor="middle" x="1365.5" y="-539" font-family="Helvetica,sans-Serif" font-size="10.00">p_met_con</text>
<text text-anchor="middle" x="1365.5" y="-528" font-family="Helvetica,sans-Serif" font-size="10.00">p_met_cov</text>
<text text-anchor="middle" x="1365.5" y="-517" font-family="Helvetica,sans-Serif" font-size="10.00">p_ricci_scalar</text>
<text text-anchor="middle" x="1365.5" y="-506" font-family="Helvetica,sans-Serif" font-size="10.00">p_ricci_tensor</text>
<text text-anchor="middle" x="1365.5" y="-495" font-family="Helvetica,sans-Serif" font-size="10.00">p_riemann</text>
</g>
<!-- Node17&#45;&gt;Node11 -->
<g id="edge40" class="edge">
<title>Node17&#45;&gt;Node11</title>
<path fill="none" stroke="#9a32cd" stroke-dasharray="5,2" d="M1327.41,-443.54C1374.1,-443.75 1441.77,-449.78 1493,-478 1546.35,-507.39 1594.27,-564.49 1612.11,-587.27"/>
<polygon fill="#9a32cd" stroke="#9a32cd" points="1327.18,-440.04 1317.19,-443.58 1327.21,-447.04 1327.18,-440.04"/>
<text text-anchor="middle" x="1453.5" y="-547" font-family="Helvetica,sans-Serif" font-size="10.00"> cst</text>
<text text-anchor="middle" x="1453.5" y="-536" font-family="Helvetica,sans-Serif" font-size="10.00">cst_hard</text>
<text text-anchor="middle" x="1453.5" y="-525" font-family="Helvetica,sans-Serif" font-size="10.00">opeuser</text>
<text text-anchor="middle" x="1453.5" y="-514" font-family="Helvetica,sans-Serif" font-size="10.00">opeuser_bin</text>
<text text-anchor="middle" x="1453.5" y="-503" font-family="Helvetica,sans-Serif" font-size="10.00">results</text>
<text text-anchor="middle" x="1453.5" y="-492" font-family="Helvetica,sans-Serif" font-size="10.00">term</text>
<text text-anchor="middle" x="1453.5" y="-481" font-family="Helvetica,sans-Serif" font-size="10.00">term_double</text>
</g>
<!-- Node17&#45;&gt;Node22 -->
<g id="edge59" class="edge">
<title>Node17&#45;&gt;Node22</title>
<path fill="none" stroke="#9a32cd" stroke-dasharray="5,2" d="M1286.03,-427.94C1294.86,-415.62 1306.75,-398.9 1317,-384 1325.17,-372.12 1322.28,-363.81 1335,-357 1373.26,-336.52 1499.89,-362.45 1543,-379 1640.01,-416.24 1643.82,-464.09 1738,-508 1790.34,-532.4 1854.93,-549.49 1896.88,-559.03"/>
<polygon fill="#9a32cd" stroke="#9a32cd" points="1282.94,-426.23 1279.95,-436.4 1288.63,-430.32 1282.94,-426.23"/>
<text text-anchor="middle" x="1620.5" y="-476" font-family="Helvetica,sans-Serif" font-size="10.00"> res</text>
</g>
<!-- Node18&#45;&gt;Node11 -->
<g id="edge56" class="edge">
<title>Node18&#45;&gt;Node11</title>
<path fill="none" stroke="#9a32cd" stroke-dasharray="5,2" d="M1126.34,-192.06C1151.93,-205.03 1187.28,-226.55 1209,-255 1224.1,-274.77 1209.18,-290.65 1227,-308 1332.35,-410.58 1434.96,-306.25 1543,-406 1558.83,-420.61 1552.99,-431 1561,-451 1581.6,-502.46 1606.32,-564.11 1615.67,-587.43"/>
<polygon fill="#9a32cd" stroke="#9a32cd" points="1127.58,-188.77 1117.06,-187.52 1124.5,-195.06 1127.58,-188.77"/>
<text text-anchor="middle" x="1365.5" y="-362" font-family="Helvetica,sans-Serif" font-size="10.00"> var</text>
</g>
<!-- Node18&#45;&gt;Node17 -->
<g id="edge42" class="edge">
<title>Node18&#45;&gt;Node17</title>
<path fill="none" stroke="#9a32cd" stroke-dasharray="5,2" d="M1108.59,-195.85C1130.58,-224.99 1174.95,-284.89 1209,-338 1231.64,-373.31 1255.57,-417.13 1265.84,-436.28"/>
<polygon fill="#9a32cd" stroke="#9a32cd" points="1111.11,-193.37 1102.28,-187.51 1105.53,-197.6 1111.11,-193.37"/>
<text text-anchor="middle" x="1181" y="-352" font-family="Helvetica,sans-Serif" font-size="10.00"> der_t</text>
<text text-anchor="middle" x="1181" y="-341" font-family="Helvetica,sans-Serif" font-size="10.00">val_t</text>
</g>
<!-- Node18&#45;&gt;Node19 -->
<g id="edge46" class="edge">
<title>Node18&#45;&gt;Node19</title>
<path fill="none" stroke="midnightblue" d="M1145.56,-179.72C1172.95,-180.66 1206.3,-181.79 1231.72,-182.66"/>
<polygon fill="midnightblue" stroke="midnightblue" points="1145.49,-176.22 1135.38,-179.38 1145.25,-183.22 1145.49,-176.22"/>
</g>
<!-- Node19&#45;&gt;Node1 -->
<g id="edge61" class="edge">
<title>Node19&#45;&gt;Node1</title>
<path fill="none" stroke="#9a32cd" stroke-dasharray="5,2" d="M1322.22,-183.48C1405.56,-183.76 1579.16,-189.34 1720,-227 1737.51,-231.68 1756.2,-240.59 1769.21,-247.49"/>
<polygon fill="#9a32cd" stroke="#9a32cd" points="1322.03,-179.98 1312.03,-183.47 1322.02,-186.98 1322.03,-179.98"/>
<text text-anchor="middle" x="1527" y="-198" font-family="Helvetica,sans-Serif" font-size="10.00"> p_conf</text>
</g>
<!-- Node19&#45;&gt;Node18 -->
<g id="edge45" class="edge">
<title>Node19&#45;&gt;Node18</title>
<path fill="none" stroke="#9a32cd" stroke-dasharray="5,2" d="M1247.73,-169.14C1236.5,-162.83 1222.54,-156.2 1209,-153 1184.78,-147.28 1177.38,-147.97 1153,-153 1138.61,-155.97 1123.39,-162.68 1112.16,-168.4"/>
<polygon fill="#9a32cd" stroke="#9a32cd" points="1246.07,-172.22 1256.46,-174.29 1249.62,-166.19 1246.07,-172.22"/>
<text text-anchor="middle" x="1181" y="-156" font-family="Helvetica,sans-Serif" font-size="10.00"> cmp</text>
</g>
<!-- Node20&#45;&gt;Node1 -->
<g id="edge62" class="edge">
<title>Node20&#45;&gt;Node1</title>
<path fill="none" stroke="#9a32cd" stroke-dasharray="5,2" d="M948.53,-228C989.65,-228 1044.51,-228 1093,-228 1093,-228 1093,-228 1366.5,-228 1501.37,-228 1660.06,-243.1 1737.95,-251.51"/>
<polygon fill="#9a32cd" stroke="#9a32cd" points="948.38,-224.5 938.38,-228 948.38,-231.5 948.38,-224.5"/>
<text text-anchor="middle" x="1365.5" y="-231" font-family="Helvetica,sans-Serif" font-size="10.00"> basis</text>
</g>
<!-- Node20&#45;&gt;Node18 -->
<g id="edge49" class="edge">
<title>Node20&#45;&gt;Node18</title>
<path fill="none" stroke="#9a32cd" stroke-dasharray="5,2" d="M919.06,-214.86C930.64,-210.66 943.77,-206.26 956,-203 988.12,-194.43 1025.26,-187.86 1052.76,-183.6"/>
<polygon fill="#9a32cd" stroke="#9a32cd" points="917.5,-211.71 909.35,-218.47 919.94,-218.27 917.5,-211.71"/>
<text text-anchor="middle" x="995.5" y="-206" font-family="Helvetica,sans-Serif" font-size="10.00"> basis</text>
</g>
<!-- Node20&#45;&gt;Node23 -->
<g id="edge65" class="edge">
<title>Node20&#45;&gt;Node23</title>
<path fill="none" stroke="#9a32cd" stroke-dasharray="5,2" d="M918.15,-241.31C967.84,-260.78 1065.88,-296.1 1153,-309 1304.63,-331.45 1487.01,-317.98 1571.82,-309.42"/>
<polygon fill="#9a32cd" stroke="#9a32cd" points="919.17,-237.95 908.58,-237.53 916.59,-244.46 919.17,-237.95"/>
<text text-anchor="middle" x="1272" y="-325" font-family="Helvetica,sans-Serif" font-size="10.00"> basis</text>
</g>
<!-- Node21&#45;&gt;Node18 -->
<g id="edge53" class="edge">
<title>Node21&#45;&gt;Node18</title>
<path fill="none" stroke="#9a32cd" stroke-dasharray="5,2" d="M425.53,-46C474.73,-46 543.57,-46 604,-46 604,-46 604,-46 885.5,-46 952.87,-46 980.17,-31.86 1035,-71 1069.4,-95.55 1085.45,-147.05 1090.83,-168.4"/>
<polygon fill="#9a32cd" stroke="#9a32cd" points="425.34,-42.5 415.34,-46 425.34,-49.5 425.34,-42.5"/>
<text text-anchor="middle" x="714.5" y="-49" font-family="Helvetica,sans-Serif" font-size="10.00"> parameters</text>
</g>
<!-- Node22&#45;&gt;Node11 -->
<g id="edge57" class="edge">
<title>Node22&#45;&gt;Node11</title>
<path fill="none" stroke="#9a32cd" stroke-dasharray="5,2" d="M1886.41,-572.92C1829.1,-578.13 1738.94,-586.32 1680.01,-591.68"/>
<polygon fill="#9a32cd" stroke="#9a32cd" points="1887.07,-576.37 1896.71,-571.98 1886.43,-569.4 1887.07,-576.37"/>
<text text-anchor="middle" x="1787" y="-589" font-family="Helvetica,sans-Serif" font-size="10.00"> def</text>
</g>
<!-- Node23&#45;&gt;Node1 -->
<g id="edge63" class="edge">
<title>Node23&#45;&gt;Node1</title>
<path fill="none" stroke="#9a32cd" stroke-dasharray="5,2" d="M1664.53,-291.71C1692,-283.86 1727.08,-273.83 1752.48,-266.58"/>
<polygon fill="#9a32cd" stroke="#9a32cd" points="1663.44,-288.38 1654.79,-294.49 1665.37,-295.11 1663.44,-288.38"/>
<text text-anchor="middle" x="1709" y="-285" font-family="Helvetica,sans-Serif" font-size="10.00"> fmet</text>
</g>
</g>
</svg>
