<?xml version="1.0" encoding="UTF-8" standalone="no"?>
<!DOCTYPE svg PUBLIC "-//W3C//DTD SVG 1.1//EN"
 "http://www.w3.org/Graphics/SVG/1.1/DTD/svg11.dtd">
<!-- Generated by graphviz version 2.47.1 (20210515.0534)
 -->
<!-- Title: Kadath::Metric_ADS Pages: 1 -->
<svg width="1993pt" height="923pt"
 viewBox="0.00 0.00 1993.00 922.85" xmlns="http://www.w3.org/2000/svg" xmlns:xlink="http://www.w3.org/1999/xlink">
<g id="graph0" class="graph" transform="scale(1 1) rotate(0) translate(4 918.85)">
<title>Kadath::Metric_ADS</title>
<!-- Node1 -->
<g id="node1" class="node">
<title>Node1</title>
<g id="a_node1"><a xlink:title=" ">
<polygon fill="#bfbfbf" stroke="black" points="1580.5,-547.5 1580.5,-566.5 1684.5,-566.5 1684.5,-547.5 1580.5,-547.5"/>
<text text-anchor="middle" x="1632.5" y="-554.5" font-family="Helvetica,sans-Serif" font-size="10.00">Kadath::Metric_ADS</text>
</a>
</g>
</g>
<!-- Node2 -->
<g id="node2" class="node">
<title>Node2</title>
<g id="a_node2"><a xlink:href="classKadath_1_1Metric.html" target="_top" xlink:title=" ">
<polygon fill="none" stroke="black" points="1437,-236.5 1437,-255.5 1516,-255.5 1516,-236.5 1437,-236.5"/>
<text text-anchor="middle" x="1476.5" y="-243.5" font-family="Helvetica,sans-Serif" font-size="10.00">Kadath::Metric</text>
</a>
</g>
</g>
<!-- Node2&#45;&gt;Node1 -->
<g id="edge1" class="edge">
<title>Node2&#45;&gt;Node1</title>
<path fill="none" stroke="midnightblue" d="M1506.48,-261.16C1509.98,-263.79 1513.27,-266.74 1516,-270 1559.68,-322.12 1547.61,-348.91 1573,-412 1593.47,-462.87 1618.06,-523.74 1627.52,-547.16"/>
<polygon fill="midnightblue" stroke="midnightblue" points="1508.39,-258.23 1498.13,-255.62 1504.52,-264.06 1508.39,-258.23"/>
</g>
<!-- Node11 -->
<g id="node11" class="node">
<title>Node11</title>
<g id="a_node11"><a xlink:href="classKadath_1_1System__of__eqs.html" target="_top" xlink:title=" ">
<polygon fill="none" stroke="black" points="1573,-222.5 1573,-241.5 1692,-241.5 1692,-222.5 1573,-222.5"/>
<text text-anchor="middle" x="1632.5" y="-229.5" font-family="Helvetica,sans-Serif" font-size="10.00">Kadath::System_of_eqs</text>
</a>
</g>
</g>
<!-- Node2&#45;&gt;Node11 -->
<g id="edge55" class="edge">
<title>Node2&#45;&gt;Node11</title>
<path fill="none" stroke="#9a32cd" stroke-dasharray="5,2" d="M1526.33,-245.7C1535.85,-245.37 1545.75,-244.84 1555,-244 1561.96,-243.37 1569.25,-242.5 1576.45,-241.51"/>
<polygon fill="#9a32cd" stroke="#9a32cd" points="1526.09,-242.21 1516.19,-245.99 1526.28,-249.21 1526.09,-242.21"/>
<text text-anchor="middle" x="1544.5" y="-248" font-family="Helvetica,sans-Serif" font-size="10.00"> met</text>
</g>
<!-- Node3 -->
<g id="node3" class="node">
<title>Node3</title>
<g id="a_node3"><a xlink:href="structKadath_1_1MemoryMappable.html" target="_top" xlink:title=" ">
<polygon fill="none" stroke="black" points="0,-319.5 0,-338.5 128,-338.5 128,-319.5 0,-319.5"/>
<text text-anchor="middle" x="64" y="-326.5" font-family="Helvetica,sans-Serif" font-size="10.00">Kadath::MemoryMappable</text>
</a>
</g>
</g>
<!-- Node3&#45;&gt;Node2 -->
<g id="edge2" class="edge">
<title>Node3&#45;&gt;Node2</title>
<path fill="none" stroke="midnightblue" d="M69.84,-309.37C83.87,-257.72 129.67,-122 223.5,-122 223.5,-122 223.5,-122 589.5,-122 768.34,-122 802.19,-196.18 979,-223 1148.14,-248.66 1353.07,-248.37 1436.92,-246.93"/>
<polygon fill="midnightblue" stroke="midnightblue" points="66.39,-308.73 67.26,-319.29 73.16,-310.5 66.39,-308.73"/>
</g>
<!-- Node4 -->
<g id="node4" class="node">
<title>Node4</title>
<g id="a_node4"><a xlink:href="classKadath_1_1Space.html" target="_top" xlink:title=" ">
<polygon fill="none" stroke="black" points="674.5,-387.5 674.5,-406.5 754.5,-406.5 754.5,-387.5 674.5,-387.5"/>
<text text-anchor="middle" x="714.5" y="-394.5" font-family="Helvetica,sans-Serif" font-size="10.00">Kadath::Space</text>
</a>
</g>
</g>
<!-- Node3&#45;&gt;Node4 -->
<g id="edge4" class="edge">
<title>Node3&#45;&gt;Node4</title>
<path fill="none" stroke="midnightblue" d="M122.24,-317.67C208.29,-302.64 375.65,-281.15 514,-310 586.5,-325.12 664.93,-368.09 697.71,-387.39"/>
<polygon fill="midnightblue" stroke="midnightblue" points="121.39,-314.27 112.16,-319.47 122.62,-321.16 121.39,-314.27"/>
</g>
<!-- Node5 -->
<g id="node5" class="node">
<title>Node5</title>
<g id="a_node5"><a xlink:href="classKadath_1_1Domain.html" target="_top" xlink:title=" ">
<polygon fill="none" stroke="black" points="414.5,-664.5 414.5,-683.5 499.5,-683.5 499.5,-664.5 414.5,-664.5"/>
<text text-anchor="middle" x="457" y="-671.5" font-family="Helvetica,sans-Serif" font-size="10.00">Kadath::Domain</text>
</a>
</g>
</g>
<!-- Node3&#45;&gt;Node5 -->
<g id="edge6" class="edge">
<title>Node3&#45;&gt;Node5</title>
<path fill="none" stroke="midnightblue" d="M64.93,-348.78C65.87,-397.69 75.36,-525.27 146,-593 220.08,-664.03 348.4,-674.75 414.3,-675.2"/>
<polygon fill="midnightblue" stroke="midnightblue" points="68.43,-348.57 64.84,-338.6 61.43,-348.63 68.43,-348.57"/>
</g>
<!-- Node6 -->
<g id="node6" class="node">
<title>Node6</title>
<g id="a_node6"><a xlink:href="classKadath_1_1Dim__array.html" target="_top" xlink:title=" ">
<polygon fill="none" stroke="black" points="177,-395.5 177,-414.5 272,-414.5 272,-395.5 177,-395.5"/>
<text text-anchor="middle" x="224.5" y="-402.5" font-family="Helvetica,sans-Serif" font-size="10.00">Kadath::Dim_array</text>
</a>
</g>
</g>
<!-- Node3&#45;&gt;Node6 -->
<g id="edge8" class="edge">
<title>Node3&#45;&gt;Node6</title>
<path fill="none" stroke="midnightblue" d="M86.05,-344.77C101.88,-356.06 124.47,-370.98 146,-381 158.39,-386.76 172.51,-391.61 185.28,-395.4"/>
<polygon fill="midnightblue" stroke="midnightblue" points="87.71,-341.65 77.56,-338.6 83.59,-347.31 87.71,-341.65"/>
</g>
<!-- Node7 -->
<g id="node7" class="node">
<title>Node7</title>
<g id="a_node7"><a xlink:href="classKadath_1_1Array.html" target="_top" xlink:title=" ">
<polygon fill="none" stroke="black" points="165,-734.5 165,-753.5 284,-753.5 284,-734.5 165,-734.5"/>
<text text-anchor="middle" x="224.5" y="-741.5" font-family="Helvetica,sans-Serif" font-size="10.00">Kadath::Array&lt; double &gt;</text>
</a>
</g>
</g>
<!-- Node3&#45;&gt;Node7 -->
<g id="edge10" class="edge">
<title>Node3&#45;&gt;Node7</title>
<path fill="none" stroke="midnightblue" d="M64.75,-348.74C64.93,-406.13 72.07,-576.01 146,-688 159.99,-709.2 184.94,-725.06 202.75,-734.39"/>
<polygon fill="midnightblue" stroke="midnightblue" points="68.25,-348.55 64.79,-338.53 61.25,-348.52 68.25,-348.55"/>
</g>
<!-- Node8 -->
<g id="node8" class="node">
<title>Node8</title>
<g id="a_node8"><a xlink:href="classKadath_1_1Val__domain.html" target="_top" xlink:title=" ">
<polygon fill="none" stroke="black" points="663,-683.5 663,-702.5 766,-702.5 766,-683.5 663,-683.5"/>
<text text-anchor="middle" x="714.5" y="-690.5" font-family="Helvetica,sans-Serif" font-size="10.00">Kadath::Val_domain</text>
</a>
</g>
</g>
<!-- Node3&#45;&gt;Node8 -->
<g id="edge12" class="edge">
<title>Node3&#45;&gt;Node8</title>
<path fill="none" stroke="midnightblue" d="M66.12,-348.96C71.16,-430.88 94.65,-739.75 165,-800 327.26,-938.98 475.77,-956.4 645,-826 687.38,-793.34 705.91,-727.12 711.53,-702.5"/>
<polygon fill="midnightblue" stroke="midnightblue" points="69.59,-348.36 65.51,-338.58 62.6,-348.77 69.59,-348.36"/>
</g>
<!-- Node9 -->
<g id="node9" class="node">
<title>Node9</title>
<g id="a_node9"><a xlink:href="classKadath_1_1Base__spectral.html" target="_top" xlink:title=" ">
<polygon fill="none" stroke="black" points="400,-795.5 400,-814.5 514,-814.5 514,-795.5 400,-795.5"/>
<text text-anchor="middle" x="457" y="-802.5" font-family="Helvetica,sans-Serif" font-size="10.00">Kadath::Base_spectral</text>
</a>
</g>
</g>
<!-- Node3&#45;&gt;Node9 -->
<g id="edge16" class="edge">
<title>Node3&#45;&gt;Node9</title>
<path fill="none" stroke="midnightblue" d="M66.52,-348.85C72.9,-426.46 100.22,-707.76 165,-763 230.35,-818.73 335.5,-819.34 399.9,-813.22"/>
<polygon fill="midnightblue" stroke="midnightblue" points="69.98,-348.26 65.7,-338.57 63.01,-348.81 69.98,-348.26"/>
</g>
<!-- Node10 -->
<g id="node10" class="node">
<title>Node10</title>
<g id="a_node10"><a xlink:href="classKadath_1_1Array.html" target="_top" xlink:title=" ">
<polygon fill="none" stroke="black" points="174,-506.5 174,-525.5 275,-525.5 275,-506.5 174,-506.5"/>
<text text-anchor="middle" x="224.5" y="-513.5" font-family="Helvetica,sans-Serif" font-size="10.00">Kadath::Array&lt; int &gt;</text>
</a>
</g>
</g>
<!-- Node3&#45;&gt;Node10 -->
<g id="edge18" class="edge">
<title>Node3&#45;&gt;Node10</title>
<path fill="none" stroke="midnightblue" d="M79.66,-346.29C112.23,-384.73 189.79,-476.23 215.25,-506.26"/>
<polygon fill="midnightblue" stroke="midnightblue" points="82.21,-343.9 73.08,-338.53 76.87,-348.42 82.21,-343.9"/>
</g>
<!-- Node12 -->
<g id="node12" class="node">
<title>Node12</title>
<g id="a_node12"><a xlink:href="classKadath_1_1Equation.html" target="_top" xlink:title=" ">
<polygon fill="none" stroke="black" points="1896,-221.5 1896,-240.5 1985,-240.5 1985,-221.5 1896,-221.5"/>
<text text-anchor="middle" x="1940.5" y="-228.5" font-family="Helvetica,sans-Serif" font-size="10.00">Kadath::Equation</text>
</a>
</g>
</g>
<!-- Node3&#45;&gt;Node12 -->
<g id="edge22" class="edge">
<title>Node3&#45;&gt;Node12</title>
<path fill="none" stroke="midnightblue" d="M67.66,-309.41C76.92,-250.02 113.45,-76 223.5,-76 223.5,-76 223.5,-76 1019.5,-76 1183.6,-76 1223.4,-46 1387.5,-46 1387.5,-46 1387.5,-46 1721.5,-46 1772.65,-46 1793.52,-35.08 1835,-65 1848.87,-75 1844.3,-84.28 1853,-99 1880.73,-145.95 1917.62,-199.67 1932.67,-221.26"/>
<polygon fill="midnightblue" stroke="midnightblue" points="64.18,-308.99 66.19,-319.39 71.11,-310 64.18,-308.99"/>
</g>
<!-- Node13 -->
<g id="node13" class="node">
<title>Node13</title>
<g id="a_node13"><a xlink:href="classKadath_1_1Ope__eq.html" target="_top" xlink:title=" ">
<polygon fill="none" stroke="black" points="1749,-74.5 1749,-93.5 1835,-93.5 1835,-74.5 1749,-74.5"/>
<text text-anchor="middle" x="1792" y="-81.5" font-family="Helvetica,sans-Serif" font-size="10.00">Kadath::Ope_eq</text>
</a>
</g>
</g>
<!-- Node3&#45;&gt;Node13 -->
<g id="edge25" class="edge">
<title>Node3&#45;&gt;Node13</title>
<path fill="none" stroke="midnightblue" d="M65.04,-309.2C66.25,-260.19 76.28,-132.12 146,-62 171.42,-36.43 187.44,-38 223.5,-38 223.5,-38 223.5,-38 1019.5,-38 1184.33,-38 1222.67,-84 1387.5,-84 1387.5,-84 1387.5,-84 1633.5,-84 1672.6,-84 1717.16,-84 1748.88,-84"/>
<polygon fill="midnightblue" stroke="midnightblue" points="61.54,-309.34 64.9,-319.39 68.54,-309.44 61.54,-309.34"/>
</g>
<!-- Node14 -->
<g id="node14" class="node">
<title>Node14</title>
<g id="a_node14"><a xlink:href="classKadath_1_1Eq__int.html" target="_top" xlink:title=" ">
<polygon fill="none" stroke="black" points="1901,-74.5 1901,-93.5 1980,-93.5 1980,-74.5 1901,-74.5"/>
<text text-anchor="middle" x="1940.5" y="-81.5" font-family="Helvetica,sans-Serif" font-size="10.00">Kadath::Eq_int</text>
</a>
</g>
</g>
<!-- Node3&#45;&gt;Node14 -->
<g id="edge30" class="edge">
<title>Node3&#45;&gt;Node14</title>
<path fill="none" stroke="midnightblue" d="M65.32,-308.81C67.63,-237.26 85.67,0 223.5,0 223.5,0 223.5,0 1793,0 1852.22,0 1909.2,-52.3 1930.6,-74.36"/>
<polygon fill="midnightblue" stroke="midnightblue" points="61.82,-309.07 65.07,-319.15 68.81,-309.24 61.82,-309.07"/>
</g>
<!-- Node15 -->
<g id="node15" class="node">
<title>Node15</title>
<g id="a_node15"><a xlink:href="classKadath_1_1Index.html" target="_top" xlink:title=" ">
<polygon fill="none" stroke="black" points="419.5,-319.5 419.5,-338.5 494.5,-338.5 494.5,-319.5 419.5,-319.5"/>
<text text-anchor="middle" x="457" y="-326.5" font-family="Helvetica,sans-Serif" font-size="10.00">Kadath::Index</text>
</a>
</g>
</g>
<!-- Node3&#45;&gt;Node15 -->
<g id="edge34" class="edge">
<title>Node3&#45;&gt;Node15</title>
<path fill="none" stroke="midnightblue" d="M138.45,-329C222.05,-329 355.29,-329 419.31,-329"/>
<polygon fill="midnightblue" stroke="midnightblue" points="138.26,-325.5 128.26,-329 138.26,-332.5 138.26,-325.5"/>
</g>
<!-- Node16 -->
<g id="node16" class="node">
<title>Node16</title>
<g id="a_node16"><a xlink:href="classKadath_1_1Param.html" target="_top" xlink:title=" ">
<polygon fill="none" stroke="black" points="302,-150.5 302,-169.5 382,-169.5 382,-150.5 302,-150.5"/>
<text text-anchor="middle" x="342" y="-157.5" font-family="Helvetica,sans-Serif" font-size="10.00">Kadath::Param</text>
</a>
</g>
</g>
<!-- Node3&#45;&gt;Node16 -->
<g id="edge38" class="edge">
<title>Node3&#45;&gt;Node16</title>
<path fill="none" stroke="midnightblue" d="M69.86,-309.15C78.88,-276.95 101.48,-213.93 146,-184 192.56,-152.69 259.8,-151.71 301.92,-155.01"/>
<polygon fill="midnightblue" stroke="midnightblue" points="66.39,-308.59 67.23,-319.15 73.16,-310.37 66.39,-308.59"/>
</g>
<!-- Node17 -->
<g id="node17" class="node">
<title>Node17</title>
<g id="a_node17"><a xlink:href="classKadath_1_1Term__eq.html" target="_top" xlink:title=" ">
<polygon fill="none" stroke="black" points="1250,-375.5 1250,-394.5 1340,-394.5 1340,-375.5 1250,-375.5"/>
<text text-anchor="middle" x="1295" y="-382.5" font-family="Helvetica,sans-Serif" font-size="10.00">Kadath::Term_eq</text>
</a>
</g>
</g>
<!-- Node3&#45;&gt;Node17 -->
<g id="edge41" class="edge">
<title>Node3&#45;&gt;Node17</title>
<path fill="none" stroke="midnightblue" d="M75.67,-310.52C98.06,-274.42 153.7,-198 223.5,-198 223.5,-198 223.5,-198 589.5,-198 709.31,-198 735.8,-230.43 854,-250 988.5,-272.27 1030.86,-241.77 1158,-291 1210.46,-311.31 1262.31,-355.62 1283.74,-375.28"/>
<polygon fill="midnightblue" stroke="midnightblue" points="72.63,-308.78 70.48,-319.15 78.63,-312.39 72.63,-308.78"/>
</g>
<!-- Node18 -->
<g id="node18" class="node">
<title>Node18</title>
<g id="a_node18"><a xlink:href="classKadath_1_1Tensor.html" target="_top" xlink:title=" ">
<polygon fill="none" stroke="black" points="1076,-463.5 1076,-482.5 1158,-482.5 1158,-463.5 1076,-463.5"/>
<text text-anchor="middle" x="1117" y="-470.5" font-family="Helvetica,sans-Serif" font-size="10.00">Kadath::Tensor</text>
</a>
</g>
</g>
<!-- Node3&#45;&gt;Node18 -->
<g id="edge43" class="edge">
<title>Node3&#45;&gt;Node18</title>
<path fill="none" stroke="midnightblue" d="M95.2,-315.63C114.7,-307.7 140.85,-298.38 165,-294 224.93,-283.14 241.1,-291.67 302,-291 541.07,-288.38 607.39,-286.02 836,-356 936.72,-386.83 962.88,-393.75 1058,-439 1073.18,-446.22 1089.63,-456.08 1101.12,-463.32"/>
<polygon fill="midnightblue" stroke="midnightblue" points="93.81,-312.41 85.93,-319.49 96.51,-318.87 93.81,-312.41"/>
</g>
<!-- Node20 -->
<g id="node20" class="node">
<title>Node20</title>
<g id="a_node20"><a xlink:href="classKadath_1_1Base__tensor.html" target="_top" xlink:title=" ">
<polygon fill="none" stroke="black" points="854,-540.5 854,-559.5 961,-559.5 961,-540.5 854,-540.5"/>
<text text-anchor="middle" x="907.5" y="-547.5" font-family="Helvetica,sans-Serif" font-size="10.00">Kadath::Base_tensor</text>
</a>
</g>
</g>
<!-- Node3&#45;&gt;Node20 -->
<g id="edge50" class="edge">
<title>Node3&#45;&gt;Node20</title>
<path fill="none" stroke="midnightblue" d="M67.8,-348.75C77.4,-407.8 114.63,-579 223.5,-579 223.5,-579 223.5,-579 715.5,-579 768.33,-579 828.45,-568.02 866.89,-559.58"/>
<polygon fill="midnightblue" stroke="midnightblue" points="71.25,-348.15 66.28,-338.8 64.33,-349.22 71.25,-348.15"/>
</g>
<!-- Node21 -->
<g id="node21" class="node">
<title>Node21</title>
<g id="a_node21"><a xlink:href="classKadath_1_1Param__tensor.html" target="_top" xlink:title=" ">
<polygon fill="none" stroke="black" points="532,-431.5 532,-450.5 645,-450.5 645,-431.5 532,-431.5"/>
<text text-anchor="middle" x="588.5" y="-438.5" font-family="Helvetica,sans-Serif" font-size="10.00">Kadath::Param_tensor</text>
</a>
</g>
</g>
<!-- Node3&#45;&gt;Node21 -->
<g id="edge54" class="edge">
<title>Node3&#45;&gt;Node21</title>
<path fill="none" stroke="midnightblue" d="M129.76,-340.26C135.25,-341.2 140.72,-342.12 146,-343 250.79,-360.49 278.45,-357.24 382,-381 449.84,-396.57 465.06,-406.92 532,-426 538.34,-427.81 545.09,-429.68 551.63,-431.46"/>
<polygon fill="midnightblue" stroke="midnightblue" points="130.33,-336.81 119.89,-338.57 129.15,-343.71 130.33,-336.81"/>
</g>
<!-- Node4&#45;&gt;Node2 -->
<g id="edge3" class="edge">
<title>Node4&#45;&gt;Node2</title>
<path fill="none" stroke="#9a32cd" stroke-dasharray="5,2" d="M750.99,-384.09C761.52,-380.52 773.15,-376.86 784,-374 1035.27,-307.83 1101.79,-306.28 1358,-263 1384.22,-258.57 1413.85,-254.29 1436.8,-251.13"/>
<polygon fill="#9a32cd" stroke="#9a32cd" points="749.59,-380.87 741.28,-387.44 751.87,-387.48 749.59,-380.87"/>
<text text-anchor="middle" x="1117" y="-311" font-family="Helvetica,sans-Serif" font-size="10.00"> espace</text>
</g>
<!-- Node4&#45;&gt;Node11 -->
<g id="edge32" class="edge">
<title>Node4&#45;&gt;Node11</title>
<path fill="none" stroke="#9a32cd" stroke-dasharray="5,2" d="M765.08,-399.1C876.12,-403.67 1142.11,-413.91 1232,-411 1280.08,-409.44 1292.06,-407.87 1340,-404 1418.33,-397.68 1447.54,-425.59 1516,-387 1577.39,-352.39 1615.78,-270.26 1627.6,-241.86"/>
<polygon fill="#9a32cd" stroke="#9a32cd" points="764.96,-395.59 754.83,-398.67 764.67,-402.58 764.96,-395.59"/>
<text text-anchor="middle" x="1204" y="-414" font-family="Helvetica,sans-Serif" font-size="10.00"> espace</text>
</g>
<!-- Node4&#45;&gt;Node18 -->
<g id="edge44" class="edge">
<title>Node4&#45;&gt;Node18</title>
<path fill="none" stroke="#9a32cd" stroke-dasharray="5,2" d="M764.9,-405.02C831.63,-416.07 954.17,-437.09 1058,-459 1064.49,-460.37 1071.36,-461.93 1078.01,-463.5"/>
<polygon fill="#9a32cd" stroke="#9a32cd" points="765.12,-401.51 754.68,-403.34 763.98,-408.42 765.12,-401.51"/>
<text text-anchor="middle" x="907.5" y="-442" font-family="Helvetica,sans-Serif" font-size="10.00"> espace</text>
</g>
<!-- Node4&#45;&gt;Node20 -->
<g id="edge51" class="edge">
<title>Node4&#45;&gt;Node20</title>
<path fill="none" stroke="#9a32cd" stroke-dasharray="5,2" d="M727.51,-415.11C740.07,-433.1 761.12,-460.73 784,-480 815.66,-506.67 858.91,-528.63 884.64,-540.48"/>
<polygon fill="#9a32cd" stroke="#9a32cd" points="730.27,-412.95 721.75,-406.67 724.49,-416.9 730.27,-412.95"/>
<text text-anchor="middle" x="810" y="-517" font-family="Helvetica,sans-Serif" font-size="10.00"> space</text>
</g>
<!-- Node5&#45;&gt;Node4 -->
<g id="edge5" class="edge">
<title>Node5&#45;&gt;Node4</title>
<path fill="none" stroke="#9a32cd" stroke-dasharray="5,2" d="M460.63,-654.29C468.47,-598.67 493.57,-442.51 532,-411 571.71,-378.44 634.14,-381.57 674.44,-388.21"/>
<polygon fill="#9a32cd" stroke="#9a32cd" points="457.15,-653.89 459.25,-664.28 464.08,-654.85 457.15,-653.89"/>
<text text-anchor="middle" x="588.5" y="-414" font-family="Helvetica,sans-Serif" font-size="10.00"> domains</text>
</g>
<!-- Node5&#45;&gt;Node8 -->
<g id="edge19" class="edge">
<title>Node5&#45;&gt;Node8</title>
<path fill="none" stroke="#9a32cd" stroke-dasharray="5,2" d="M476.36,-690.64C490.45,-702.22 510.98,-716.67 532,-723 580.09,-737.48 595.84,-733.29 645,-723 663.68,-719.09 683.49,-709.78 696.98,-702.56"/>
<polygon fill="#9a32cd" stroke="#9a32cd" points="478.35,-687.74 468.48,-683.9 473.8,-693.06 478.35,-687.74"/>
<text text-anchor="middle" x="588.5" y="-735" font-family="Helvetica,sans-Serif" font-size="10.00"> zone</text>
</g>
<!-- Node5&#45;&gt;Node12 -->
<g id="edge28" class="edge">
<title>Node5&#45;&gt;Node12</title>
<path fill="none" stroke="#9a32cd" stroke-dasharray="5,2" d="M509.86,-670.05C517.28,-669.62 524.83,-669.24 532,-669 582.19,-667.31 594.79,-667.96 645,-669 698.81,-670.11 712.26,-671.05 766,-674 895.89,-681.13 928.4,-682.86 1058,-694 1122.55,-699.55 1138.21,-709 1203,-709 1203,-709 1203,-709 1793,-709 1835.14,-709 1854.98,-702.29 1878,-667 1927.58,-590.99 1850.79,-337.69 1896,-259 1900.56,-251.06 1908.4,-245 1916.17,-240.58"/>
<polygon fill="#9a32cd" stroke="#9a32cd" points="509.61,-666.56 499.85,-670.68 510.05,-673.55 509.61,-666.56"/>
<text text-anchor="middle" x="1295" y="-712" font-family="Helvetica,sans-Serif" font-size="10.00"> dom</text>
</g>
<!-- Node6&#45;&gt;Node5 -->
<g id="edge7" class="edge">
<title>Node6&#45;&gt;Node5</title>
<path fill="none" stroke="#9a32cd" stroke-dasharray="5,2" d="M240.22,-422.18C284.17,-473.47 413.51,-624.41 447.65,-664.26"/>
<polygon fill="#9a32cd" stroke="#9a32cd" points="242.87,-419.89 233.7,-414.57 237.55,-424.44 242.87,-419.89"/>
<text text-anchor="middle" x="342" y="-600" font-family="Helvetica,sans-Serif" font-size="10.00"> nbr_coefs</text>
<text text-anchor="middle" x="342" y="-589" font-family="Helvetica,sans-Serif" font-size="10.00">nbr_points</text>
</g>
<!-- Node6&#45;&gt;Node15 -->
<g id="edge35" class="edge">
<title>Node6&#45;&gt;Node15</title>
<path fill="none" stroke="#9a32cd" stroke-dasharray="5,2" d="M264.31,-392.2C310.3,-377.04 385.87,-352.12 427.04,-338.55"/>
<polygon fill="#9a32cd" stroke="#9a32cd" points="263.09,-388.92 254.69,-395.37 265.29,-395.57 263.09,-388.92"/>
<text text-anchor="middle" x="342" y="-381" font-family="Helvetica,sans-Serif" font-size="10.00"> sizes</text>
</g>
<!-- Node7&#45;&gt;Node5 -->
<g id="edge9" class="edge">
<title>Node7&#45;&gt;Node5</title>
<path fill="none" stroke="#9a32cd" stroke-dasharray="5,2" d="M251.85,-729.82C266.33,-722.48 284.79,-713.87 302,-708 339.19,-695.32 383.07,-686.17 414.46,-680.58"/>
<polygon fill="#9a32cd" stroke="#9a32cd" points="250.24,-726.71 242.96,-734.41 253.45,-732.93 250.24,-726.71"/>
<text text-anchor="middle" x="342" y="-711" font-family="Helvetica,sans-Serif" font-size="10.00"> coloc</text>
</g>
<!-- Node7&#45;&gt;Node8 -->
<g id="edge13" class="edge">
<title>Node7&#45;&gt;Node8</title>
<path fill="none" stroke="#9a32cd" stroke-dasharray="5,2" d="M254.21,-758.2C268.52,-765.19 286.11,-773.67 302,-781 345.19,-800.91 353.45,-814.24 400,-824 449.59,-834.4 463.51,-828.21 514,-824 572.83,-819.09 595.88,-834.75 645,-802 682.19,-777.2 703.08,-724.62 710.44,-702.81"/>
<polygon fill="#9a32cd" stroke="#9a32cd" points="255.42,-754.89 244.9,-753.63 252.34,-761.18 255.42,-754.89"/>
<text text-anchor="middle" x="457" y="-843" font-family="Helvetica,sans-Serif" font-size="10.00"> c</text>
<text text-anchor="middle" x="457" y="-832" font-family="Helvetica,sans-Serif" font-size="10.00">cf</text>
</g>
<!-- Node7&#45;&gt;Node11 -->
<g id="edge39" class="edge">
<title>Node7&#45;&gt;Node11</title>
<path fill="none" stroke="#9a32cd" stroke-dasharray="5,2" d="M294.07,-753.3C397.35,-765.45 598.58,-781.89 766,-752 768.09,-751.63 1338.02,-542.75 1340,-542 1418.57,-512.23 1446.56,-520.3 1516,-473 1537.05,-458.66 1542.13,-452.98 1555,-431 1568.21,-408.44 1564.04,-399.56 1573,-375 1591.56,-324.1 1617.25,-264.49 1627.27,-241.61"/>
<polygon fill="#9a32cd" stroke="#9a32cd" points="294.42,-749.82 284.08,-752.1 293.59,-756.77 294.42,-749.82"/>
<text text-anchor="middle" x="1018.5" y="-676" font-family="Helvetica,sans-Serif" font-size="10.00"> val_cst_hard</text>
</g>
<!-- Node8&#45;&gt;Node5 -->
<g id="edge11" class="edge">
<title>Node8&#45;&gt;Node5</title>
<path fill="none" stroke="#9a32cd" stroke-dasharray="5,2" d="M662.8,-681.61C656.83,-680.57 650.79,-679.66 645,-679 595.31,-673.3 537.73,-672.65 499.74,-673.04"/>
<polygon fill="#9a32cd" stroke="#9a32cd" points="662.29,-685.07 672.76,-683.46 663.56,-678.19 662.29,-685.07"/>
<text text-anchor="middle" x="588.5" y="-715" font-family="Helvetica,sans-Serif" font-size="10.00"> absol</text>
<text text-anchor="middle" x="588.5" y="-704" font-family="Helvetica,sans-Serif" font-size="10.00">cart</text>
<text text-anchor="middle" x="588.5" y="-693" font-family="Helvetica,sans-Serif" font-size="10.00">cart_surr</text>
<text text-anchor="middle" x="588.5" y="-682" font-family="Helvetica,sans-Serif" font-size="10.00">radius</text>
</g>
<!-- Node8&#45;&gt;Node8 -->
<g id="edge14" class="edge">
<title>Node8&#45;&gt;Node8</title>
<path fill="none" stroke="#9a32cd" stroke-dasharray="5,2" d="M697.09,-712.4C698.26,-717.31 704.06,-721 714.5,-721 731.21,-721 736.04,-711.57 728.99,-702.76"/>
<polygon fill="#9a32cd" stroke="#9a32cd" points="700.47,-713.34 700.01,-702.76 693.77,-711.31 700.47,-713.34"/>
<text text-anchor="middle" x="714.5" y="-735" font-family="Helvetica,sans-Serif" font-size="10.00"> p_der_abs</text>
<text text-anchor="middle" x="714.5" y="-724" font-family="Helvetica,sans-Serif" font-size="10.00">p_der_var</text>
</g>
<!-- Node19 -->
<g id="node19" class="node">
<title>Node19</title>
<g id="a_node19"><a xlink:href="classKadath_1_1Scalar.html" target="_top" xlink:title=" ">
<polygon fill="none" stroke="black" points="1255,-513.5 1255,-532.5 1335,-532.5 1335,-513.5 1255,-513.5"/>
<text text-anchor="middle" x="1295" y="-520.5" font-family="Helvetica,sans-Serif" font-size="10.00">Kadath::Scalar</text>
</a>
</g>
</g>
<!-- Node8&#45;&gt;Node19 -->
<g id="edge47" class="edge">
<title>Node8&#45;&gt;Node19</title>
<path fill="none" stroke="#9a32cd" stroke-dasharray="5,2" d="M757.61,-680.62C867.83,-648.24 1163.06,-561.48 1261.53,-532.54"/>
<polygon fill="#9a32cd" stroke="#9a32cd" points="756.45,-677.32 747.84,-683.5 758.42,-684.03 756.45,-677.32"/>
<text text-anchor="middle" x="1018.5" y="-616" font-family="Helvetica,sans-Serif" font-size="10.00"> val_zones</text>
</g>
<!-- Node9&#45;&gt;Node8 -->
<g id="edge15" class="edge">
<title>Node9&#45;&gt;Node8</title>
<path fill="none" stroke="#9a32cd" stroke-dasharray="5,2" d="M515.12,-793.06C553.29,-783.71 603.85,-768.64 645,-747 668.05,-734.88 691.05,-714.67 703.66,-702.71"/>
<polygon fill="#9a32cd" stroke="#9a32cd" points="514.12,-789.7 505.2,-795.43 515.74,-796.51 514.12,-789.7"/>
<text text-anchor="middle" x="588.5" y="-790" font-family="Helvetica,sans-Serif" font-size="10.00"> base</text>
</g>
<!-- Node10&#45;&gt;Node9 -->
<g id="edge17" class="edge">
<title>Node10&#45;&gt;Node9</title>
<path fill="none" stroke="#9a32cd" stroke-dasharray="5,2" d="M228.32,-535.74C234.82,-574.9 254.13,-663.41 302,-719 321.08,-741.16 397.42,-778.13 434.95,-795.47"/>
<polygon fill="#9a32cd" stroke="#9a32cd" points="231.75,-535.01 226.75,-525.67 224.83,-536.09 231.75,-535.01"/>
<text text-anchor="middle" x="342" y="-771" font-family="Helvetica,sans-Serif" font-size="10.00"> bases_1d</text>
</g>
<!-- Node10&#45;&gt;Node11 -->
<g id="edge36" class="edge">
<title>Node10&#45;&gt;Node11</title>
<path fill="none" stroke="#9a32cd" stroke-dasharray="5,2" d="M248.75,-500.97C348.44,-438.05 751.18,-199 1116,-199 1116,-199 1116,-199 1477.5,-199 1522.62,-199 1573.55,-212.71 1604.06,-222.46"/>
<polygon fill="#9a32cd" stroke="#9a32cd" points="246.88,-498.02 240.31,-506.34 250.63,-503.93 246.88,-498.02"/>
<text text-anchor="middle" x="1018.5" y="-222" font-family="Helvetica,sans-Serif" font-size="10.00"> assoc_var</text>
<text text-anchor="middle" x="1018.5" y="-211" font-family="Helvetica,sans-Serif" font-size="10.00">assoc_var_double</text>
</g>
<!-- Node10&#45;&gt;Node12 -->
<g id="edge23" class="edge">
<title>Node10&#45;&gt;Node12</title>
<path fill="none" stroke="#9a32cd" stroke-dasharray="5,2" d="M266.39,-528.61C324.72,-546.05 435.46,-577.19 532,-593 867.25,-647.91 954.29,-653 1294,-653 1294,-653 1294,-653 1793,-653 1974,-653 1789.76,-405.54 1896,-259 1901.59,-251.29 1910.01,-245.17 1917.95,-240.64"/>
<polygon fill="#9a32cd" stroke="#9a32cd" points="267.05,-525.15 256.47,-525.62 265.03,-531.85 267.05,-525.15"/>
<text text-anchor="middle" x="1204" y="-666" font-family="Helvetica,sans-Serif" font-size="10.00"> n_cond</text>
<text text-anchor="middle" x="1204" y="-655" font-family="Helvetica,sans-Serif" font-size="10.00">p_cmp_used</text>
</g>
<!-- Node10&#45;&gt;Node18 -->
<g id="edge48" class="edge">
<title>Node10&#45;&gt;Node18</title>
<path fill="none" stroke="#9a32cd" stroke-dasharray="5,2" d="M285.63,-515.43C422.84,-513.7 769.43,-506.91 1058,-481 1063.77,-480.48 1069.85,-479.8 1075.81,-479.05"/>
<polygon fill="#9a32cd" stroke="#9a32cd" points="285.3,-511.93 275.34,-515.55 285.38,-518.93 285.3,-511.93"/>
<text text-anchor="middle" x="714.5" y="-519" font-family="Helvetica,sans-Serif" font-size="10.00"> give_indices</text>
<text text-anchor="middle" x="714.5" y="-508" font-family="Helvetica,sans-Serif" font-size="10.00">type_indice</text>
</g>
<!-- Node10&#45;&gt;Node20 -->
<g id="edge52" class="edge">
<title>Node10&#45;&gt;Node20</title>
<path fill="none" stroke="#9a32cd" stroke-dasharray="5,2" d="M285.3,-518.99C416.81,-525.55 729.32,-541.15 853.91,-547.37"/>
<polygon fill="#9a32cd" stroke="#9a32cd" points="285.19,-515.48 275.02,-518.47 284.84,-522.47 285.19,-515.48"/>
<text text-anchor="middle" x="588.5" y="-539" font-family="Helvetica,sans-Serif" font-size="10.00"> basis</text>
</g>
<!-- Node11&#45;&gt;Node2 -->
<g id="edge20" class="edge">
<title>Node11&#45;&gt;Node2</title>
<path fill="none" stroke="#9a32cd" stroke-dasharray="5,2" d="M1562.82,-230.84C1553.12,-231.22 1543.29,-231.9 1534,-233 1527.4,-233.78 1520.45,-235.03 1513.77,-236.44"/>
<polygon fill="#9a32cd" stroke="#9a32cd" points="1562.96,-234.34 1572.85,-230.55 1562.75,-227.35 1562.96,-234.34"/>
<text text-anchor="middle" x="1544.5" y="-236" font-family="Helvetica,sans-Serif" font-size="10.00"> syst</text>
</g>
<!-- Node11&#45;&gt;Node13 -->
<g id="edge27" class="edge">
<title>Node11&#45;&gt;Node13</title>
<path fill="none" stroke="#9a32cd" stroke-dasharray="5,2" d="M1644.77,-213.89C1658.42,-192.94 1682.95,-158.23 1710,-134 1728.83,-117.13 1754.09,-102.56 1771.36,-93.58"/>
<polygon fill="#9a32cd" stroke="#9a32cd" points="1641.73,-212.14 1639.3,-222.46 1647.63,-215.91 1641.73,-212.14"/>
<text text-anchor="middle" x="1720.5" y="-137" font-family="Helvetica,sans-Serif" font-size="10.00"> syst</text>
</g>
<!-- Node12&#45;&gt;Node11 -->
<g id="edge21" class="edge">
<title>Node12&#45;&gt;Node11</title>
<path fill="none" stroke="#9a32cd" stroke-dasharray="5,2" d="M1885.79,-231.18C1831.57,-231.35 1748.06,-231.63 1692.14,-231.81"/>
<polygon fill="#9a32cd" stroke="#9a32cd" points="1885.91,-234.68 1895.9,-231.14 1885.88,-227.68 1885.91,-234.68"/>
<text text-anchor="middle" x="1792" y="-234" font-family="Helvetica,sans-Serif" font-size="10.00"> eq</text>
</g>
<!-- Node13&#45;&gt;Node12 -->
<g id="edge24" class="edge">
<title>Node13&#45;&gt;Node12</title>
<path fill="none" stroke="#9a32cd" stroke-dasharray="5,2" d="M1806.84,-101.83C1818.58,-116.58 1836.15,-137.83 1853,-155 1878.06,-180.54 1910.36,-207.52 1927.53,-221.44"/>
<polygon fill="#9a32cd" stroke="#9a32cd" points="1809.28,-99.27 1800.35,-93.57 1803.78,-103.6 1809.28,-99.27"/>
<text text-anchor="middle" x="1865.5" y="-179" font-family="Helvetica,sans-Serif" font-size="10.00"> parts</text>
</g>
<!-- Node13&#45;&gt;Node13 -->
<g id="edge26" class="edge">
<title>Node13&#45;&gt;Node13</title>
<path fill="none" stroke="#9a32cd" stroke-dasharray="5,2" d="M1779.11,-103.77C1780.12,-108.5 1784.42,-112 1792,-112 1804.44,-112 1808.04,-102.57 1802.79,-93.76"/>
<polygon fill="#9a32cd" stroke="#9a32cd" points="1782.58,-104.26 1781.21,-93.76 1775.73,-102.82 1782.58,-104.26"/>
<text text-anchor="middle" x="1792" y="-115" font-family="Helvetica,sans-Serif" font-size="10.00"> parts</text>
</g>
<!-- Node13&#45;&gt;Node14 -->
<g id="edge31" class="edge">
<title>Node13&#45;&gt;Node14</title>
<path fill="none" stroke="#9a32cd" stroke-dasharray="5,2" d="M1845.55,-84C1863.76,-84 1883.83,-84 1900.73,-84"/>
<polygon fill="#9a32cd" stroke="#9a32cd" points="1845.37,-80.5 1835.37,-84 1845.37,-87.5 1845.37,-80.5"/>
<text text-anchor="middle" x="1865.5" y="-87" font-family="Helvetica,sans-Serif" font-size="10.00"> parts</text>
</g>
<!-- Node22 -->
<g id="node22" class="node">
<title>Node22</title>
<g id="a_node22"><a xlink:href="classKadath_1_1Ope__def.html" target="_top" xlink:title=" ">
<polygon fill="none" stroke="black" points="1896,-268.5 1896,-287.5 1985,-287.5 1985,-268.5 1896,-268.5"/>
<text text-anchor="middle" x="1940.5" y="-275.5" font-family="Helvetica,sans-Serif" font-size="10.00">Kadath::Ope_def</text>
</a>
</g>
</g>
<!-- Node13&#45;&gt;Node22 -->
<g id="edge58" class="edge">
<title>Node13&#45;&gt;Node22</title>
<path fill="none" stroke="midnightblue" d="M1809.25,-101.29C1817.84,-111.15 1828.02,-124.09 1835,-137 1847.04,-159.25 1841.41,-168.51 1853,-191 1867.86,-219.84 1872.4,-227.73 1896,-250 1903.58,-257.15 1913.22,-263.57 1921.5,-268.45"/>
<polygon fill="midnightblue" stroke="midnightblue" points="1811.81,-98.9 1802.52,-93.8 1806.6,-103.58 1811.81,-98.9"/>
</g>
<!-- Node14&#45;&gt;Node11 -->
<g id="edge29" class="edge">
<title>Node14&#45;&gt;Node11</title>
<path fill="none" stroke="#9a32cd" stroke-dasharray="5,2" d="M1910.59,-97.98C1849.03,-127.76 1706.33,-196.77 1653.58,-222.29"/>
<polygon fill="#9a32cd" stroke="#9a32cd" points="1912.27,-101.06 1919.75,-93.55 1909.22,-94.76 1912.27,-101.06"/>
<text text-anchor="middle" x="1792" y="-178" font-family="Helvetica,sans-Serif" font-size="10.00"> eq_int</text>
</g>
<!-- Node15&#45;&gt;Node11 -->
<g id="edge33" class="edge">
<title>Node15&#45;&gt;Node11</title>
<path fill="none" stroke="#9a32cd" stroke-dasharray="5,2" d="M485.23,-314.82C540.15,-286.86 668.8,-224.61 784,-193 885.07,-165.27 912.69,-160 1017.5,-160 1017.5,-160 1017.5,-160 1477.5,-160 1535.64,-160 1595.5,-202.64 1620,-222.29"/>
<polygon fill="#9a32cd" stroke="#9a32cd" points="483.46,-311.8 476.15,-319.47 486.65,-318.03 483.46,-311.8"/>
<text text-anchor="middle" x="1117" y="-163" font-family="Helvetica,sans-Serif" font-size="10.00"> which_coef</text>
</g>
<!-- Node16&#45;&gt;Node11 -->
<g id="edge37" class="edge">
<title>Node16&#45;&gt;Node11</title>
<path fill="none" stroke="#9a32cd" stroke-dasharray="5,2" d="M392.4,-155.77C586.9,-139.7 1299.77,-86.18 1516,-146 1563.47,-159.13 1606.28,-202.98 1623.49,-222.49"/>
<polygon fill="#9a32cd" stroke="#9a32cd" points="391.87,-152.31 382.2,-156.62 392.45,-159.28 391.87,-152.31"/>
<text text-anchor="middle" x="1018.5" y="-135" font-family="Helvetica,sans-Serif" font-size="10.00"> paruser</text>
<text text-anchor="middle" x="1018.5" y="-124" font-family="Helvetica,sans-Serif" font-size="10.00">paruser_bin</text>
</g>
<!-- Node17&#45;&gt;Node2 -->
<g id="edge60" class="edge">
<title>Node17&#45;&gt;Node2</title>
<path fill="none" stroke="#9a32cd" stroke-dasharray="5,2" d="M1310.63,-367.32C1319.79,-355.74 1331.43,-340.02 1340,-325 1350.07,-307.36 1342.94,-296.63 1358,-283 1364.28,-277.31 1407.83,-264.49 1440.09,-255.54"/>
<polygon fill="#9a32cd" stroke="#9a32cd" points="1307.76,-365.3 1304.21,-375.29 1313.21,-369.7 1307.76,-365.3"/>
<text text-anchor="middle" x="1388.5" y="-363" font-family="Helvetica,sans-Serif" font-size="10.00"> p_christo</text>
<text text-anchor="middle" x="1388.5" y="-352" font-family="Helvetica,sans-Serif" font-size="10.00">p_det_cov</text>
<text text-anchor="middle" x="1388.5" y="-341" font-family="Helvetica,sans-Serif" font-size="10.00">p_dirac</text>
<text text-anchor="middle" x="1388.5" y="-330" font-family="Helvetica,sans-Serif" font-size="10.00">p_met_con</text>
<text text-anchor="middle" x="1388.5" y="-319" font-family="Helvetica,sans-Serif" font-size="10.00">p_met_cov</text>
<text text-anchor="middle" x="1388.5" y="-308" font-family="Helvetica,sans-Serif" font-size="10.00">p_ricci_scalar</text>
<text text-anchor="middle" x="1388.5" y="-297" font-family="Helvetica,sans-Serif" font-size="10.00">p_ricci_tensor</text>
<text text-anchor="middle" x="1388.5" y="-286" font-family="Helvetica,sans-Serif" font-size="10.00">p_riemann</text>
</g>
<!-- Node17&#45;&gt;Node11 -->
<g id="edge40" class="edge">
<title>Node17&#45;&gt;Node11</title>
<path fill="none" stroke="#9a32cd" stroke-dasharray="5,2" d="M1350.28,-391.55C1373.89,-391.44 1400.35,-386.93 1419,-371 1441.79,-351.53 1416.82,-328.16 1437,-306 1439.99,-302.72 1552.98,-260.88 1605.35,-241.6"/>
<polygon fill="#9a32cd" stroke="#9a32cd" points="1350.1,-388.04 1340.03,-391.33 1349.95,-395.04 1350.1,-388.04"/>
<text text-anchor="middle" x="1476.5" y="-375" font-family="Helvetica,sans-Serif" font-size="10.00"> cst</text>
<text text-anchor="middle" x="1476.5" y="-364" font-family="Helvetica,sans-Serif" font-size="10.00">cst_hard</text>
<text text-anchor="middle" x="1476.5" y="-353" font-family="Helvetica,sans-Serif" font-size="10.00">opeuser</text>
<text text-anchor="middle" x="1476.5" y="-342" font-family="Helvetica,sans-Serif" font-size="10.00">opeuser_bin</text>
<text text-anchor="middle" x="1476.5" y="-331" font-family="Helvetica,sans-Serif" font-size="10.00">results</text>
<text text-anchor="middle" x="1476.5" y="-320" font-family="Helvetica,sans-Serif" font-size="10.00">term</text>
<text text-anchor="middle" x="1476.5" y="-309" font-family="Helvetica,sans-Serif" font-size="10.00">term_double</text>
</g>
<!-- Node17&#45;&gt;Node22 -->
<g id="edge59" class="edge">
<title>Node17&#45;&gt;Node22</title>
<path fill="none" stroke="#9a32cd" stroke-dasharray="5,2" d="M1350.32,-394.23C1352.91,-394.53 1355.48,-394.78 1358,-395 1440.15,-402.03 1461.05,-397 1543.5,-397 1543.5,-397 1543.5,-397 1793,-397 1862.14,-397 1916.83,-316.16 1933.92,-287.74"/>
<polygon fill="#9a32cd" stroke="#9a32cd" points="1350.63,-390.75 1340.27,-392.96 1349.75,-397.69 1350.63,-390.75"/>
<text text-anchor="middle" x="1632.5" y="-400" font-family="Helvetica,sans-Serif" font-size="10.00"> res</text>
</g>
<!-- Node18&#45;&gt;Node11 -->
<g id="edge56" class="edge">
<title>Node18&#45;&gt;Node11</title>
<path fill="none" stroke="#9a32cd" stroke-dasharray="5,2" d="M1168.36,-475.59C1262.02,-479.51 1458.72,-483.21 1516,-449 1556.49,-424.82 1613.15,-280.67 1627.88,-241.7"/>
<polygon fill="#9a32cd" stroke="#9a32cd" points="1168.41,-472.09 1158.27,-475.15 1168.11,-479.08 1168.41,-472.09"/>
<text text-anchor="middle" x="1388.5" y="-479" font-family="Helvetica,sans-Serif" font-size="10.00"> var</text>
</g>
<!-- Node18&#45;&gt;Node17 -->
<g id="edge42" class="edge">
<title>Node18&#45;&gt;Node17</title>
<path fill="none" stroke="#9a32cd" stroke-dasharray="5,2" d="M1125.15,-453.78C1133.79,-433.62 1150.44,-402.97 1176,-389 1198.21,-376.86 1226.46,-375.5 1249.74,-377.35"/>
<polygon fill="#9a32cd" stroke="#9a32cd" points="1121.84,-452.64 1121.36,-463.22 1128.33,-455.25 1121.84,-452.64"/>
<text text-anchor="middle" x="1204" y="-403" font-family="Helvetica,sans-Serif" font-size="10.00"> der_t</text>
<text text-anchor="middle" x="1204" y="-392" font-family="Helvetica,sans-Serif" font-size="10.00">val_t</text>
</g>
<!-- Node18&#45;&gt;Node19 -->
<g id="edge46" class="edge">
<title>Node18&#45;&gt;Node19</title>
<path fill="none" stroke="midnightblue" d="M1161.47,-485.35C1191.99,-494.02 1232.21,-505.45 1260.31,-513.43"/>
<polygon fill="midnightblue" stroke="midnightblue" points="1162.09,-481.89 1151.52,-482.52 1160.18,-488.62 1162.09,-481.89"/>
</g>
<!-- Node19&#45;&gt;Node1 -->
<g id="edge61" class="edge">
<title>Node19&#45;&gt;Node1</title>
<path fill="none" stroke="#9a32cd" stroke-dasharray="5,2" d="M1345.21,-527.99C1408.1,-534.36 1516.47,-545.34 1580.3,-551.81"/>
<polygon fill="#9a32cd" stroke="#9a32cd" points="1345.44,-524.49 1335.14,-526.97 1344.74,-531.46 1345.44,-524.49"/>
<text text-anchor="middle" x="1476.5" y="-559" font-family="Helvetica,sans-Serif" font-size="10.00"> m_eps</text>
<text text-anchor="middle" x="1476.5" y="-548" font-family="Helvetica,sans-Serif" font-size="10.00">m_rho2</text>
</g>
<!-- Node19&#45;&gt;Node18 -->
<g id="edge45" class="edge">
<title>Node19&#45;&gt;Node18</title>
<path fill="none" stroke="#9a32cd" stroke-dasharray="5,2" d="M1244.53,-521.93C1222.99,-520.25 1197.75,-516.62 1176,-509 1158.77,-502.97 1141.28,-491.17 1130.08,-482.72"/>
<polygon fill="#9a32cd" stroke="#9a32cd" points="1244.57,-525.44 1254.78,-522.6 1245.03,-518.45 1244.57,-525.44"/>
<text text-anchor="middle" x="1204" y="-523" font-family="Helvetica,sans-Serif" font-size="10.00"> cmp</text>
</g>
<!-- Node20&#45;&gt;Node1 -->
<g id="edge62" class="edge">
<title>Node20&#45;&gt;Node1</title>
<path fill="none" stroke="#9a32cd" stroke-dasharray="5,2" d="M934.17,-564.36C947.17,-570.83 963.46,-577.74 979,-581 1013.36,-588.22 1022.89,-581.38 1058,-581 1261.59,-578.78 1312.91,-585.49 1516,-571 1537.16,-569.49 1560.39,-566.86 1580.43,-564.29"/>
<polygon fill="#9a32cd" stroke="#9a32cd" points="935.42,-561.07 924.94,-559.57 932.2,-567.28 935.42,-561.07"/>
<text text-anchor="middle" x="1295" y="-583" font-family="Helvetica,sans-Serif" font-size="10.00"> p_basis</text>
</g>
<!-- Node20&#45;&gt;Node18 -->
<g id="edge49" class="edge">
<title>Node20&#45;&gt;Node18</title>
<path fill="none" stroke="#9a32cd" stroke-dasharray="5,2" d="M964.92,-538.24C999.95,-530.52 1041.36,-520.5 1058,-513 1075.62,-505.06 1093.58,-491.69 1104.76,-482.61"/>
<polygon fill="#9a32cd" stroke="#9a32cd" points="963.79,-534.91 954.76,-540.46 965.28,-541.75 963.79,-534.91"/>
<text text-anchor="middle" x="1018.5" y="-537" font-family="Helvetica,sans-Serif" font-size="10.00"> basis</text>
</g>
<!-- Node21&#45;&gt;Node18 -->
<g id="edge53" class="edge">
<title>Node21&#45;&gt;Node18</title>
<path fill="none" stroke="#9a32cd" stroke-dasharray="5,2" d="M655.38,-445C765.98,-451.73 985.73,-465.08 1075.94,-470.57"/>
<polygon fill="#9a32cd" stroke="#9a32cd" points="655.54,-441.51 645.35,-444.39 655.12,-448.49 655.54,-441.51"/>
<text text-anchor="middle" x="810" y="-458" font-family="Helvetica,sans-Serif" font-size="10.00"> parameters</text>
</g>
<!-- Node22&#45;&gt;Node11 -->
<g id="edge57" class="edge">
<title>Node22&#45;&gt;Node11</title>
<path fill="none" stroke="#9a32cd" stroke-dasharray="5,2" d="M1885.72,-270.66C1839.17,-264.22 1770.08,-254.42 1710,-245 1703.08,-243.91 1695.81,-242.73 1688.63,-241.54"/>
<polygon fill="#9a32cd" stroke="#9a32cd" points="1885.5,-274.16 1895.88,-272.07 1886.45,-267.23 1885.5,-274.16"/>
<text text-anchor="middle" x="1792" y="-266" font-family="Helvetica,sans-Serif" font-size="10.00"> def</text>
</g>
</g>
</svg>
