<?xml version="1.0" encoding="UTF-8" standalone="no"?>
<!DOCTYPE svg PUBLIC "-//W3C//DTD SVG 1.1//EN"
 "http://www.w3.org/Graphics/SVG/1.1/DTD/svg11.dtd">
<!-- Generated by graphviz version 2.47.1 (20210515.0534)
 -->
<!-- Title: Kadath::Space_KerrSchild_bh Pages: 1 -->
<svg width="554pt" height="324pt"
 viewBox="0.00 0.00 553.50 324.00" xmlns="http://www.w3.org/2000/svg" xmlns:xlink="http://www.w3.org/1999/xlink">
<g id="graph0" class="graph" transform="scale(1 1) rotate(0) translate(4 320)">
<title>Kadath::Space_KerrSchild_bh</title>
<!-- Node1 -->
<g id="node1" class="node">
<title>Node1</title>
<g id="a_node1"><a xlink:title=" ">
<polygon fill="#bfbfbf" stroke="black" points="0,-0.5 0,-19.5 146,-19.5 146,-0.5 0,-0.5"/>
<text text-anchor="middle" x="73" y="-7.5" font-family="Helvetica,sans-Serif" font-size="10.00">Kadath::Space_KerrSchild_bh</text>
</a>
</g>
</g>
<!-- Node2 -->
<g id="node2" class="node">
<title>Node2</title>
<g id="a_node2"><a xlink:href="classKadath_1_1Space.html" target="_top" xlink:title=" ">
<polygon fill="none" stroke="black" points="33,-58.5 33,-77.5 113,-77.5 113,-58.5 33,-58.5"/>
<text text-anchor="middle" x="73" y="-65.5" font-family="Helvetica,sans-Serif" font-size="10.00">Kadath::Space</text>
</a>
</g>
</g>
<!-- Node2&#45;&gt;Node1 -->
<g id="edge1" class="edge">
<title>Node2&#45;&gt;Node1</title>
<path fill="none" stroke="midnightblue" d="M73,-47.95C73,-38.29 73,-27.03 73,-19.51"/>
<polygon fill="midnightblue" stroke="midnightblue" points="69.5,-48.25 73,-58.25 76.5,-48.25 69.5,-48.25"/>
</g>
<!-- Node3 -->
<g id="node3" class="node">
<title>Node3</title>
<g id="a_node3"><a xlink:href="structKadath_1_1MemoryMappable.html" target="_top" xlink:title=" ">
<polygon fill="none" stroke="black" points="226,-296.5 226,-315.5 354,-315.5 354,-296.5 226,-296.5"/>
<text text-anchor="middle" x="290" y="-303.5" font-family="Helvetica,sans-Serif" font-size="10.00">Kadath::MemoryMappable</text>
</a>
</g>
</g>
<!-- Node3&#45;&gt;Node2 -->
<g id="edge2" class="edge">
<title>Node3&#45;&gt;Node2</title>
<path fill="none" stroke="midnightblue" d="M215.67,-296.96C168.2,-290.06 113.02,-278.14 99,-259 56.7,-201.25 67.11,-106.49 71.53,-77.62"/>
<polygon fill="midnightblue" stroke="midnightblue" points="215.27,-300.44 225.66,-298.35 216.24,-293.5 215.27,-300.44"/>
</g>
<!-- Node4 -->
<g id="node4" class="node">
<title>Node4</title>
<g id="a_node4"><a xlink:href="classKadath_1_1Domain.html" target="_top" xlink:title=" ">
<polygon fill="none" stroke="black" points="127.5,-160.5 127.5,-179.5 212.5,-179.5 212.5,-160.5 127.5,-160.5"/>
<text text-anchor="middle" x="170" y="-167.5" font-family="Helvetica,sans-Serif" font-size="10.00">Kadath::Domain</text>
</a>
</g>
</g>
<!-- Node3&#45;&gt;Node4 -->
<g id="edge4" class="edge">
<title>Node3&#45;&gt;Node4</title>
<path fill="none" stroke="midnightblue" d="M215.78,-295.56C171.59,-288.25 121.54,-276.39 108,-259 86.07,-230.84 131.38,-195.71 155.8,-179.69"/>
<polygon fill="midnightblue" stroke="midnightblue" points="215.26,-299.02 225.69,-297.14 216.37,-292.11 215.26,-299.02"/>
</g>
<!-- Node5 -->
<g id="node5" class="node">
<title>Node5</title>
<g id="a_node5"><a xlink:href="classKadath_1_1Dim__array.html" target="_top" xlink:title=" ">
<polygon fill="none" stroke="black" points="117.5,-239.5 117.5,-258.5 212.5,-258.5 212.5,-239.5 117.5,-239.5"/>
<text text-anchor="middle" x="165" y="-246.5" font-family="Helvetica,sans-Serif" font-size="10.00">Kadath::Dim_array</text>
</a>
</g>
</g>
<!-- Node3&#45;&gt;Node5 -->
<g id="edge6" class="edge">
<title>Node3&#45;&gt;Node5</title>
<path fill="none" stroke="midnightblue" d="M261.3,-292.37C237.73,-282 204.98,-267.59 184.39,-258.53"/>
<polygon fill="midnightblue" stroke="midnightblue" points="259.91,-295.58 270.47,-296.41 262.73,-289.18 259.91,-295.58"/>
</g>
<!-- Node6 -->
<g id="node6" class="node">
<title>Node6</title>
<g id="a_node6"><a xlink:href="classKadath_1_1Array.html" target="_top" xlink:title=" ">
<polygon fill="none" stroke="black" points="230.5,-239.5 230.5,-258.5 349.5,-258.5 349.5,-239.5 230.5,-239.5"/>
<text text-anchor="middle" x="290" y="-246.5" font-family="Helvetica,sans-Serif" font-size="10.00">Kadath::Array&lt; double &gt;</text>
</a>
</g>
</g>
<!-- Node3&#45;&gt;Node6 -->
<g id="edge8" class="edge">
<title>Node3&#45;&gt;Node6</title>
<path fill="none" stroke="midnightblue" d="M290,-286.12C290,-276.82 290,-266.06 290,-258.71"/>
<polygon fill="midnightblue" stroke="midnightblue" points="286.5,-286.41 290,-296.41 293.5,-286.41 286.5,-286.41"/>
</g>
<!-- Node7 -->
<g id="node7" class="node">
<title>Node7</title>
<g id="a_node7"><a xlink:href="classKadath_1_1Val__domain.html" target="_top" xlink:title=" ">
<polygon fill="none" stroke="black" points="238.5,-58.5 238.5,-77.5 341.5,-77.5 341.5,-58.5 238.5,-58.5"/>
<text text-anchor="middle" x="290" y="-65.5" font-family="Helvetica,sans-Serif" font-size="10.00">Kadath::Val_domain</text>
</a>
</g>
</g>
<!-- Node3&#45;&gt;Node7 -->
<g id="edge10" class="edge">
<title>Node3&#45;&gt;Node7</title>
<path fill="none" stroke="midnightblue" d="M322.49,-291.87C336.37,-284.43 351.16,-273.65 359,-259 363.19,-251.16 360.63,-247.74 359,-239 346.83,-173.87 308.88,-102.35 295.08,-77.82"/>
<polygon fill="midnightblue" stroke="midnightblue" points="320.55,-288.92 313.12,-296.48 323.64,-295.2 320.55,-288.92"/>
</g>
<!-- Node8 -->
<g id="node8" class="node">
<title>Node8</title>
<g id="a_node8"><a xlink:href="classKadath_1_1Base__spectral.html" target="_top" xlink:title=" ">
<polygon fill="none" stroke="black" points="406,-160.5 406,-179.5 520,-179.5 520,-160.5 406,-160.5"/>
<text text-anchor="middle" x="463" y="-167.5" font-family="Helvetica,sans-Serif" font-size="10.00">Kadath::Base_spectral</text>
</a>
</g>
</g>
<!-- Node3&#45;&gt;Node8 -->
<g id="edge14" class="edge">
<title>Node3&#45;&gt;Node8</title>
<path fill="none" stroke="midnightblue" d="M360.91,-293.43C371.94,-289.65 382.73,-284.64 392,-278 428.6,-251.77 451.65,-200.31 459.74,-179.77"/>
<polygon fill="midnightblue" stroke="midnightblue" points="359.7,-290.14 351.19,-296.44 361.77,-296.83 359.7,-290.14"/>
</g>
<!-- Node9 -->
<g id="node9" class="node">
<title>Node9</title>
<g id="a_node9"><a xlink:href="classKadath_1_1Array.html" target="_top" xlink:title=" ">
<polygon fill="none" stroke="black" points="444.5,-239.5 444.5,-258.5 545.5,-258.5 545.5,-239.5 444.5,-239.5"/>
<text text-anchor="middle" x="495" y="-246.5" font-family="Helvetica,sans-Serif" font-size="10.00">Kadath::Array&lt; int &gt;</text>
</a>
</g>
</g>
<!-- Node3&#45;&gt;Node9 -->
<g id="edge16" class="edge">
<title>Node3&#45;&gt;Node9</title>
<path fill="none" stroke="midnightblue" d="M359.22,-294.71C382.02,-290.52 407.33,-284.98 430,-278 446.79,-272.83 465.11,-264.7 478,-258.53"/>
<polygon fill="midnightblue" stroke="midnightblue" points="358.5,-291.28 349.28,-296.49 359.73,-298.18 358.5,-291.28"/>
</g>
<!-- Node4&#45;&gt;Node2 -->
<g id="edge3" class="edge">
<title>Node4&#45;&gt;Node2</title>
<path fill="none" stroke="#9a32cd" stroke-dasharray="5,2" d="M132.83,-156.3C124.65,-152.31 116.5,-147.26 110,-141 90.97,-122.68 79.93,-92.44 75.42,-77.66"/>
<polygon fill="#9a32cd" stroke="#9a32cd" points="131.43,-159.51 141.99,-160.38 134.28,-153.12 131.43,-159.51"/>
<text text-anchor="middle" x="130" y="-116.5" font-family="Helvetica,sans-Serif" font-size="10.00"> domains</text>
</g>
<!-- Node4&#45;&gt;Node7 -->
<g id="edge17" class="edge">
<title>Node4&#45;&gt;Node7</title>
<path fill="none" stroke="#9a32cd" stroke-dasharray="5,2" d="M164.83,-150.54C161.57,-134.59 159.95,-111.82 172,-97 180.6,-86.42 210.7,-79.38 238.34,-75.01"/>
<polygon fill="#9a32cd" stroke="#9a32cd" points="161.45,-151.43 167.21,-160.32 168.25,-149.78 161.45,-151.43"/>
<text text-anchor="middle" x="183.5" y="-116.5" font-family="Helvetica,sans-Serif" font-size="10.00"> zone</text>
</g>
<!-- Node5&#45;&gt;Node4 -->
<g id="edge5" class="edge">
<title>Node5&#45;&gt;Node4</title>
<path fill="none" stroke="#9a32cd" stroke-dasharray="5,2" d="M166.21,-229.31C167.23,-213.59 168.65,-191.81 169.43,-179.81"/>
<polygon fill="#9a32cd" stroke="#9a32cd" points="162.71,-229.26 165.55,-239.47 169.69,-229.71 162.71,-229.26"/>
<text text-anchor="middle" x="192" y="-213" font-family="Helvetica,sans-Serif" font-size="10.00"> nbr_coefs</text>
<text text-anchor="middle" x="192" y="-202" font-family="Helvetica,sans-Serif" font-size="10.00">nbr_points</text>
</g>
<!-- Node6&#45;&gt;Node4 -->
<g id="edge7" class="edge">
<title>Node6&#45;&gt;Node4</title>
<path fill="none" stroke="#9a32cd" stroke-dasharray="5,2" d="M268.63,-233.71C262.58,-229.63 256.02,-225.17 250,-221 236.11,-211.38 233.24,-208.09 219,-199 208.26,-192.15 195.8,-185.03 186.12,-179.69"/>
<polygon fill="#9a32cd" stroke="#9a32cd" points="266.73,-236.65 276.98,-239.32 270.63,-230.84 266.73,-236.65"/>
<text text-anchor="middle" x="263" y="-207.5" font-family="Helvetica,sans-Serif" font-size="10.00"> coloc</text>
</g>
<!-- Node6&#45;&gt;Node7 -->
<g id="edge11" class="edge">
<title>Node6&#45;&gt;Node7</title>
<path fill="none" stroke="#9a32cd" stroke-dasharray="5,2" d="M290,-229.09C290,-190.68 290,-104.89 290,-77.55"/>
<polygon fill="#9a32cd" stroke="#9a32cd" points="286.5,-229.37 290,-239.37 293.5,-229.37 286.5,-229.37"/>
<text text-anchor="middle" x="294.5" y="-173" font-family="Helvetica,sans-Serif" font-size="10.00"> c</text>
<text text-anchor="middle" x="294.5" y="-162" font-family="Helvetica,sans-Serif" font-size="10.00">cf</text>
</g>
<!-- Node7&#45;&gt;Node4 -->
<g id="edge9" class="edge">
<title>Node7&#45;&gt;Node4</title>
<path fill="none" stroke="#9a32cd" stroke-dasharray="5,2" d="M260.46,-82.13C252.47,-86.33 244.08,-91.36 237,-97 216.78,-113.09 216.76,-122.23 199,-141 192.65,-147.71 185.14,-154.95 179.35,-160.38"/>
<polygon fill="#9a32cd" stroke="#9a32cd" points="262.15,-85.19 269.55,-77.61 259.04,-78.93 262.15,-85.19"/>
<text text-anchor="middle" x="256.5" y="-133" font-family="Helvetica,sans-Serif" font-size="10.00"> absol</text>
<text text-anchor="middle" x="256.5" y="-122" font-family="Helvetica,sans-Serif" font-size="10.00">cart</text>
<text text-anchor="middle" x="256.5" y="-111" font-family="Helvetica,sans-Serif" font-size="10.00">cart_surr</text>
<text text-anchor="middle" x="256.5" y="-100" font-family="Helvetica,sans-Serif" font-size="10.00">radius</text>
</g>
<!-- Node7&#45;&gt;Node7 -->
<g id="edge12" class="edge">
<title>Node7&#45;&gt;Node7</title>
<path fill="none" stroke="#9a32cd" stroke-dasharray="5,2" d="M351.82,-71.95C356.57,-71.08 359.5,-69.76 359.5,-68 359.5,-65.18 352,-63.5 341.53,-62.95"/>
<polygon fill="#9a32cd" stroke="#9a32cd" points="351.1,-68.51 341.53,-73.05 351.84,-75.47 351.1,-68.51"/>
<text text-anchor="middle" x="383.5" y="-71" font-family="Helvetica,sans-Serif" font-size="10.00"> p_der_abs</text>
<text text-anchor="middle" x="383.5" y="-60" font-family="Helvetica,sans-Serif" font-size="10.00">p_der_var</text>
</g>
<!-- Node8&#45;&gt;Node7 -->
<g id="edge13" class="edge">
<title>Node8&#45;&gt;Node7</title>
<path fill="none" stroke="#9a32cd" stroke-dasharray="5,2" d="M450.83,-152.31C437.99,-135.87 416.28,-111.23 392,-97 376.63,-87.99 358.27,-81.79 341.38,-77.56"/>
<polygon fill="#9a32cd" stroke="#9a32cd" points="448.19,-154.61 457.01,-160.47 453.77,-150.39 448.19,-154.61"/>
<text text-anchor="middle" x="452" y="-116.5" font-family="Helvetica,sans-Serif" font-size="10.00"> base</text>
</g>
<!-- Node9&#45;&gt;Node8 -->
<g id="edge15" class="edge">
<title>Node9&#45;&gt;Node8</title>
<path fill="none" stroke="#9a32cd" stroke-dasharray="5,2" d="M487.61,-230.22C481.05,-214.44 471.74,-192.04 466.66,-179.81"/>
<polygon fill="#9a32cd" stroke="#9a32cd" points="484.38,-231.57 491.45,-239.47 490.85,-228.89 484.38,-231.57"/>
<text text-anchor="middle" x="505.5" y="-207.5" font-family="Helvetica,sans-Serif" font-size="10.00"> bases_1d</text>
</g>
</g>
</svg>
