<?xml version="1.0" encoding="UTF-8" standalone="no"?>
<!DOCTYPE svg PUBLIC "-//W3C//DTD SVG 1.1//EN"
 "http://www.w3.org/Graphics/SVG/1.1/DTD/svg11.dtd">
<!-- Generated by graphviz version 2.47.1 (20210515.0534)
 -->
<!-- Title: Kadath::Equation Pages: 1 -->
<svg width="422pt" height="666pt"
 viewBox="0.00 0.00 422.00 666.00" xmlns="http://www.w3.org/2000/svg" xmlns:xlink="http://www.w3.org/1999/xlink">
<g id="graph0" class="graph" transform="scale(1 1) rotate(0) translate(4 662)">
<title>Kadath::Equation</title>
<!-- Node1 -->
<g id="node1" class="node">
<title>Node1</title>
<g id="a_node1"><a xlink:title=" ">
<polygon fill="#bfbfbf" stroke="black" points="164,-329.5 164,-348.5 253,-348.5 253,-329.5 164,-329.5"/>
<text text-anchor="middle" x="208.5" y="-336.5" font-family="Helvetica,sans-Serif" font-size="10.00">Kadath::Equation</text>
</a>
</g>
</g>
<!-- Node3 -->
<g id="node3" class="node">
<title>Node3</title>
<g id="a_node3"><a xlink:href="classKadath_1_1Eq__bc.html" target="_top" xlink:title=" ">
<polygon fill="none" stroke="black" points="312,-638.5 312,-657.5 391,-657.5 391,-638.5 312,-638.5"/>
<text text-anchor="middle" x="351.5" y="-645.5" font-family="Helvetica,sans-Serif" font-size="10.00">Kadath::Eq_bc</text>
</a>
</g>
</g>
<!-- Node1&#45;&gt;Node3 -->
<g id="edge2" class="edge">
<title>Node1&#45;&gt;Node3</title>
<path fill="none" stroke="midnightblue" d="M208.85,-358.73C208.28,-410.51 214.04,-551.6 289,-629 295.14,-635.34 303.35,-639.58 311.76,-642.41"/>
<polygon fill="midnightblue" stroke="midnightblue" points="212.36,-358.65 209.07,-348.58 205.36,-358.51 212.36,-358.65"/>
</g>
<!-- Node4 -->
<g id="node4" class="node">
<title>Node4</title>
<g id="a_node4"><a xlink:href="classKadath_1_1Eq__bc__exception.html" target="_top" xlink:title=" ">
<polygon fill="none" stroke="black" points="289,-600.5 289,-619.5 414,-619.5 414,-600.5 289,-600.5"/>
<text text-anchor="middle" x="351.5" y="-607.5" font-family="Helvetica,sans-Serif" font-size="10.00">Kadath::Eq_bc_exception</text>
</a>
</g>
</g>
<!-- Node1&#45;&gt;Node4 -->
<g id="edge3" class="edge">
<title>Node1&#45;&gt;Node4</title>
<path fill="none" stroke="midnightblue" d="M209.83,-358.64C211.69,-405.62 223.02,-525.42 289,-591 292.88,-594.86 297.53,-597.94 302.51,-600.39"/>
<polygon fill="midnightblue" stroke="midnightblue" points="213.32,-358.47 209.53,-348.58 206.32,-358.68 213.32,-358.47"/>
</g>
<!-- Node5 -->
<g id="node5" class="node">
<title>Node5</title>
<g id="a_node5"><a xlink:href="classKadath_1_1Eq__bc__order__array.html" target="_top" xlink:title=" ">
<polygon fill="none" stroke="black" points="298.5,-551 298.5,-581 404.5,-581 404.5,-551 298.5,-551"/>
<text text-anchor="start" x="306.5" y="-569" font-family="Helvetica,sans-Serif" font-size="10.00">Kadath::Eq_bc_order</text>
<text text-anchor="middle" x="351.5" y="-558" font-family="Helvetica,sans-Serif" font-size="10.00">_array</text>
</a>
</g>
</g>
<!-- Node1&#45;&gt;Node5 -->
<g id="edge4" class="edge">
<title>Node1&#45;&gt;Node5</title>
<path fill="none" stroke="midnightblue" d="M212.07,-358.92C218.21,-398.72 237.27,-488.69 289,-541 292.81,-544.85 297.29,-548.13 302.07,-550.92"/>
<polygon fill="midnightblue" stroke="midnightblue" points="215.52,-358.3 210.64,-348.9 208.59,-359.29 215.52,-358.3"/>
</g>
<!-- Node6 -->
<g id="node6" class="node">
<title>Node6</title>
<g id="a_node6"><a xlink:href="classKadath_1_1Eq__first__integral.html" target="_top" xlink:title=" ">
<polygon fill="none" stroke="black" points="291,-512.5 291,-531.5 412,-531.5 412,-512.5 291,-512.5"/>
<text text-anchor="middle" x="351.5" y="-519.5" font-family="Helvetica,sans-Serif" font-size="10.00">Kadath::Eq_first_integral</text>
</a>
</g>
</g>
<!-- Node1&#45;&gt;Node6 -->
<g id="edge5" class="edge">
<title>Node1&#45;&gt;Node6</title>
<path fill="none" stroke="midnightblue" d="M213.6,-358.55C221.81,-392.85 243.51,-463.94 289,-503 293.49,-506.86 298.76,-509.93 304.29,-512.38"/>
<polygon fill="midnightblue" stroke="midnightblue" points="217.01,-357.77 211.4,-348.79 210.18,-359.31 217.01,-357.77"/>
</g>
<!-- Node7 -->
<g id="node7" class="node">
<title>Node7</title>
<g id="a_node7"><a xlink:href="classKadath_1_1Eq__full.html" target="_top" xlink:title=" ">
<polygon fill="none" stroke="black" points="311,-474.5 311,-493.5 392,-493.5 392,-474.5 311,-474.5"/>
<text text-anchor="middle" x="351.5" y="-481.5" font-family="Helvetica,sans-Serif" font-size="10.00">Kadath::Eq_full</text>
</a>
</g>
</g>
<!-- Node1&#45;&gt;Node7 -->
<g id="edge6" class="edge">
<title>Node1&#45;&gt;Node7</title>
<path fill="none" stroke="midnightblue" d="M216.57,-358.19C227.73,-385.84 252.02,-436.67 289,-465 295.39,-469.89 303.05,-473.54 310.76,-476.25"/>
<polygon fill="midnightblue" stroke="midnightblue" points="219.7,-356.57 212.82,-348.51 213.17,-359.1 219.7,-356.57"/>
</g>
<!-- Node8 -->
<g id="node8" class="node">
<title>Node8</title>
<g id="a_node8"><a xlink:href="classKadath_1_1Eq__inside.html" target="_top" xlink:title=" ">
<polygon fill="none" stroke="black" points="304.5,-436.5 304.5,-455.5 398.5,-455.5 398.5,-436.5 304.5,-436.5"/>
<text text-anchor="middle" x="351.5" y="-443.5" font-family="Helvetica,sans-Serif" font-size="10.00">Kadath::Eq_inside</text>
</a>
</g>
</g>
<!-- Node1&#45;&gt;Node8 -->
<g id="edge7" class="edge">
<title>Node1&#45;&gt;Node8</title>
<path fill="none" stroke="midnightblue" d="M221.45,-357.26C235.39,-377.17 260.23,-408.65 289,-427 295.03,-430.85 301.89,-433.96 308.78,-436.46"/>
<polygon fill="midnightblue" stroke="midnightblue" points="224.19,-355.06 215.67,-348.76 218.4,-359 224.19,-355.06"/>
</g>
<!-- Node9 -->
<g id="node9" class="node">
<title>Node9</title>
<g id="a_node9"><a xlink:href="classKadath_1_1Eq__matching.html" target="_top" xlink:title=" ">
<polygon fill="none" stroke="black" points="297.5,-398.5 297.5,-417.5 405.5,-417.5 405.5,-398.5 297.5,-398.5"/>
<text text-anchor="middle" x="351.5" y="-405.5" font-family="Helvetica,sans-Serif" font-size="10.00">Kadath::Eq_matching</text>
</a>
</g>
</g>
<!-- Node1&#45;&gt;Node9 -->
<g id="edge8" class="edge">
<title>Node1&#45;&gt;Node9</title>
<path fill="none" stroke="midnightblue" d="M230.75,-354.53C246.29,-365.32 268.19,-379.44 289,-389 296.92,-392.64 305.72,-395.82 314.14,-398.49"/>
<polygon fill="midnightblue" stroke="midnightblue" points="232.58,-351.53 222.4,-348.61 228.54,-357.25 232.58,-351.53"/>
</g>
<!-- Node10 -->
<g id="node10" class="node">
<title>Node10</title>
<g id="a_node10"><a xlink:href="classKadath_1_1Eq__matching__exception.html" target="_top" xlink:title=" ">
<polygon fill="none" stroke="black" points="297.5,-349 297.5,-379 405.5,-379 405.5,-349 297.5,-349"/>
<text text-anchor="start" x="305.5" y="-367" font-family="Helvetica,sans-Serif" font-size="10.00">Kadath::Eq_matching</text>
<text text-anchor="middle" x="351.5" y="-356" font-family="Helvetica,sans-Serif" font-size="10.00">_exception</text>
</a>
</g>
</g>
<!-- Node1&#45;&gt;Node10 -->
<g id="edge9" class="edge">
<title>Node1&#45;&gt;Node10</title>
<path fill="none" stroke="midnightblue" d="M263.35,-348.55C274.47,-350.52 286.17,-352.59 297.26,-354.56"/>
<polygon fill="midnightblue" stroke="midnightblue" points="263.8,-345.07 253.34,-346.77 262.58,-351.97 263.8,-345.07"/>
</g>
<!-- Node11 -->
<g id="node11" class="node">
<title>Node11</title>
<g id="a_node11"><a xlink:href="classKadath_1_1Eq__matching__import.html" target="_top" xlink:title=" ">
<polygon fill="none" stroke="black" points="297.5,-300 297.5,-330 405.5,-330 405.5,-300 297.5,-300"/>
<text text-anchor="start" x="305.5" y="-318" font-family="Helvetica,sans-Serif" font-size="10.00">Kadath::Eq_matching</text>
<text text-anchor="middle" x="351.5" y="-307" font-family="Helvetica,sans-Serif" font-size="10.00">_import</text>
</a>
</g>
</g>
<!-- Node1&#45;&gt;Node11 -->
<g id="edge10" class="edge">
<title>Node1&#45;&gt;Node11</title>
<path fill="none" stroke="midnightblue" d="M263.35,-329.83C274.47,-327.94 286.17,-325.95 297.26,-324.06"/>
<polygon fill="midnightblue" stroke="midnightblue" points="262.61,-326.41 253.34,-331.54 263.79,-333.31 262.61,-326.41"/>
</g>
<!-- Node12 -->
<g id="node12" class="node">
<title>Node12</title>
<g id="a_node12"><a xlink:href="classKadath_1_1Eq__matching__non__std.html" target="_top" xlink:title=" ">
<polygon fill="none" stroke="black" points="297.5,-251 297.5,-281 405.5,-281 405.5,-251 297.5,-251"/>
<text text-anchor="start" x="305.5" y="-269" font-family="Helvetica,sans-Serif" font-size="10.00">Kadath::Eq_matching</text>
<text text-anchor="middle" x="351.5" y="-258" font-family="Helvetica,sans-Serif" font-size="10.00">_non_std</text>
</a>
</g>
</g>
<!-- Node1&#45;&gt;Node12 -->
<g id="edge11" class="edge">
<title>Node1&#45;&gt;Node12</title>
<path fill="none" stroke="midnightblue" d="M231.86,-323.71C247.46,-313.42 268.98,-299.97 289,-290 295.26,-286.88 302.03,-283.89 308.7,-281.13"/>
<polygon fill="midnightblue" stroke="midnightblue" points="229.79,-320.88 223.42,-329.35 233.68,-326.7 229.79,-320.88"/>
</g>
<!-- Node13 -->
<g id="node13" class="node">
<title>Node13</title>
<g id="a_node13"><a xlink:href="classKadath_1_1Eq__matching__one__side.html" target="_top" xlink:title=" ">
<polygon fill="none" stroke="black" points="297.5,-202 297.5,-232 405.5,-232 405.5,-202 297.5,-202"/>
<text text-anchor="start" x="305.5" y="-220" font-family="Helvetica,sans-Serif" font-size="10.00">Kadath::Eq_matching</text>
<text text-anchor="middle" x="351.5" y="-209" font-family="Helvetica,sans-Serif" font-size="10.00">_one_side</text>
</a>
</g>
</g>
<!-- Node1&#45;&gt;Node13 -->
<g id="edge12" class="edge">
<title>Node1&#45;&gt;Node13</title>
<path fill="none" stroke="midnightblue" d="M220.24,-320.63C233.77,-298.91 258.94,-262.94 289,-241 293.63,-237.62 298.79,-234.65 304.11,-232.05"/>
<polygon fill="midnightblue" stroke="midnightblue" points="217.2,-318.88 215.01,-329.25 223.19,-322.51 217.2,-318.88"/>
</g>
<!-- Node14 -->
<g id="node14" class="node">
<title>Node14</title>
<g id="a_node14"><a xlink:href="classKadath_1_1Eq__matching__order__array.html" target="_top" xlink:title=" ">
<polygon fill="none" stroke="black" points="297.5,-153 297.5,-183 405.5,-183 405.5,-153 297.5,-153"/>
<text text-anchor="start" x="305.5" y="-171" font-family="Helvetica,sans-Serif" font-size="10.00">Kadath::Eq_matching</text>
<text text-anchor="middle" x="351.5" y="-160" font-family="Helvetica,sans-Serif" font-size="10.00">_order_array</text>
</a>
</g>
</g>
<!-- Node1&#45;&gt;Node14 -->
<g id="edge13" class="edge">
<title>Node1&#45;&gt;Node14</title>
<path fill="none" stroke="midnightblue" d="M215.14,-319.64C225.13,-288.59 248.74,-227.57 289,-192 292.87,-188.59 297.27,-185.63 301.91,-183.08"/>
<polygon fill="midnightblue" stroke="midnightblue" points="211.77,-318.69 212.18,-329.28 218.46,-320.75 211.77,-318.69"/>
</g>
<!-- Node15 -->
<g id="node15" class="node">
<title>Node15</title>
<g id="a_node15"><a xlink:href="classKadath_1_1Eq__one__side.html" target="_top" xlink:title=" ">
<polygon fill="none" stroke="black" points="298,-114.5 298,-133.5 405,-133.5 405,-114.5 298,-114.5"/>
<text text-anchor="middle" x="351.5" y="-121.5" font-family="Helvetica,sans-Serif" font-size="10.00">Kadath::Eq_one_side</text>
</a>
</g>
</g>
<!-- Node1&#45;&gt;Node15 -->
<g id="edge14" class="edge">
<title>Node1&#45;&gt;Node15</title>
<path fill="none" stroke="midnightblue" d="M211.89,-319.28C217.7,-279.97 236.19,-191.46 289,-143 293.2,-139.15 298.17,-136.07 303.43,-133.62"/>
<polygon fill="midnightblue" stroke="midnightblue" points="208.42,-318.81 210.54,-329.19 215.36,-319.76 208.42,-318.81"/>
</g>
<!-- Node16 -->
<g id="node16" class="node">
<title>Node16</title>
<g id="a_node16"><a xlink:href="classKadath_1_1Eq__order.html" target="_top" xlink:title=" ">
<polygon fill="none" stroke="black" points="306.5,-76.5 306.5,-95.5 396.5,-95.5 396.5,-76.5 306.5,-76.5"/>
<text text-anchor="middle" x="351.5" y="-83.5" font-family="Helvetica,sans-Serif" font-size="10.00">Kadath::Eq_order</text>
</a>
</g>
</g>
<!-- Node1&#45;&gt;Node16 -->
<g id="edge15" class="edge">
<title>Node1&#45;&gt;Node16</title>
<path fill="none" stroke="midnightblue" d="M210.39,-319.26C213.49,-274.59 227.32,-164.99 289,-105 293.89,-100.25 299.94,-96.68 306.32,-94.01"/>
<polygon fill="midnightblue" stroke="midnightblue" points="206.89,-319.19 209.8,-329.37 213.88,-319.59 206.89,-319.19"/>
</g>
<!-- Node17 -->
<g id="node17" class="node">
<title>Node17</title>
<g id="a_node17"><a xlink:href="classKadath_1_1Eq__order__array.html" target="_top" xlink:title=" ">
<polygon fill="none" stroke="black" points="293.5,-38.5 293.5,-57.5 409.5,-57.5 409.5,-38.5 293.5,-38.5"/>
<text text-anchor="middle" x="351.5" y="-45.5" font-family="Helvetica,sans-Serif" font-size="10.00">Kadath::Eq_order_array</text>
</a>
</g>
</g>
<!-- Node1&#45;&gt;Node17 -->
<g id="edge16" class="edge">
<title>Node1&#45;&gt;Node17</title>
<path fill="none" stroke="midnightblue" d="M209.29,-319.18C209.86,-269.54 218.37,-138.72 289,-67 292.84,-63.1 297.47,-59.99 302.43,-57.53"/>
<polygon fill="midnightblue" stroke="midnightblue" points="205.79,-319.48 209.27,-329.48 212.79,-319.49 205.79,-319.48"/>
</g>
<!-- Node18 -->
<g id="node18" class="node">
<title>Node18</title>
<g id="a_node18"><a xlink:href="classKadath_1_1Eq__vel__pot.html" target="_top" xlink:title=" ">
<polygon fill="none" stroke="black" points="301.5,-0.5 301.5,-19.5 401.5,-19.5 401.5,-0.5 301.5,-0.5"/>
<text text-anchor="middle" x="351.5" y="-7.5" font-family="Helvetica,sans-Serif" font-size="10.00">Kadath::Eq_vel_pot</text>
</a>
</g>
</g>
<!-- Node1&#45;&gt;Node18 -->
<g id="edge17" class="edge">
<title>Node1&#45;&gt;Node18</title>
<path fill="none" stroke="midnightblue" d="M212.05,-319.14C220.31,-257.63 248.23,-71.8 289,-29 292.7,-25.12 297.17,-22.02 302,-19.55"/>
<polygon fill="midnightblue" stroke="midnightblue" points="208.53,-319.04 210.69,-329.41 215.47,-319.96 208.53,-319.04"/>
</g>
<!-- Node2 -->
<g id="node2" class="node">
<title>Node2</title>
<g id="a_node2"><a xlink:href="structKadath_1_1MemoryMappable.html" target="_top" xlink:title=" ">
<polygon fill="none" stroke="black" points="0,-329.5 0,-348.5 128,-348.5 128,-329.5 0,-329.5"/>
<text text-anchor="middle" x="64" y="-336.5" font-family="Helvetica,sans-Serif" font-size="10.00">Kadath::MemoryMappable</text>
</a>
</g>
</g>
<!-- Node2&#45;&gt;Node1 -->
<g id="edge1" class="edge">
<title>Node2&#45;&gt;Node1</title>
<path fill="none" stroke="midnightblue" d="M138.53,-339C147.23,-339 155.89,-339 163.98,-339"/>
<polygon fill="midnightblue" stroke="midnightblue" points="138.33,-335.5 128.33,-339 138.33,-342.5 138.33,-335.5"/>
</g>
</g>
</svg>
