<?xml version="1.0" encoding="UTF-8" standalone="no"?>
<!DOCTYPE svg PUBLIC "-//W3C//DTD SVG 1.1//EN"
 "http://www.w3.org/Graphics/SVG/1.1/DTD/svg11.dtd">
<!-- Generated by graphviz version 2.47.1 (20210515.0534)
 -->
<!-- Title: Kadath::Metric_nophi_AADS_const Pages: 1 -->
<svg width="2141pt" height="873pt"
 viewBox="0.00 0.00 2141.00 872.56" xmlns="http://www.w3.org/2000/svg" xmlns:xlink="http://www.w3.org/1999/xlink">
<g id="graph0" class="graph" transform="scale(1 1) rotate(0) translate(4 868.56)">
<title>Kadath::Metric_nophi_AADS_const</title>
<!-- Node1 -->
<g id="node1" class="node">
<title>Node1</title>
<g id="a_node1"><a xlink:title=" ">
<polygon fill="#bfbfbf" stroke="black" points="2026,-600 2026,-630 2133,-630 2133,-600 2026,-600"/>
<text text-anchor="start" x="2034" y="-618" font-family="Helvetica,sans-Serif" font-size="10.00">Kadath::Metric_nophi</text>
<text text-anchor="middle" x="2079.5" y="-607" font-family="Helvetica,sans-Serif" font-size="10.00">_AADS_const</text>
</a>
</g>
</g>
<!-- Node2 -->
<g id="node2" class="node">
<title>Node2</title>
<g id="a_node2"><a xlink:href="classKadath_1_1Metric__nophi__AADS.html" target="_top" xlink:title=" ">
<polygon fill="none" stroke="black" points="1825,-605.5 1825,-624.5 1965,-624.5 1965,-605.5 1825,-605.5"/>
<text text-anchor="middle" x="1895" y="-612.5" font-family="Helvetica,sans-Serif" font-size="10.00">Kadath::Metric_nophi_AADS</text>
</a>
</g>
</g>
<!-- Node2&#45;&gt;Node1 -->
<g id="edge1" class="edge">
<title>Node2&#45;&gt;Node1</title>
<path fill="none" stroke="midnightblue" d="M1975.71,-615C1992.66,-615 2010.14,-615 2025.78,-615"/>
<polygon fill="midnightblue" stroke="midnightblue" points="1975.26,-611.5 1965.26,-615 1975.26,-618.5 1975.26,-611.5"/>
</g>
<!-- Node3 -->
<g id="node3" class="node">
<title>Node3</title>
<g id="a_node3"><a xlink:href="classKadath_1_1Metric.html" target="_top" xlink:title=" ">
<polygon fill="none" stroke="black" points="1487,-491.5 1487,-510.5 1566,-510.5 1566,-491.5 1487,-491.5"/>
<text text-anchor="middle" x="1526.5" y="-498.5" font-family="Helvetica,sans-Serif" font-size="10.00">Kadath::Metric</text>
</a>
</g>
</g>
<!-- Node3&#45;&gt;Node2 -->
<g id="edge2" class="edge">
<title>Node3&#45;&gt;Node2</title>
<path fill="none" stroke="midnightblue" d="M1555.5,-515.11C1564.56,-519.62 1574.68,-524.58 1584,-529 1612.22,-542.38 1618.42,-547.98 1648,-558 1712.15,-579.73 1788.47,-595.99 1838.91,-605.47"/>
<polygon fill="midnightblue" stroke="midnightblue" points="1557.02,-511.96 1546.51,-510.63 1553.89,-518.23 1557.02,-511.96"/>
</g>
<!-- Node12 -->
<g id="node12" class="node">
<title>Node12</title>
<g id="a_node12"><a xlink:href="classKadath_1_1System__of__eqs.html" target="_top" xlink:title=" ">
<polygon fill="none" stroke="black" points="1648,-264.5 1648,-283.5 1767,-283.5 1767,-264.5 1648,-264.5"/>
<text text-anchor="middle" x="1707.5" y="-271.5" font-family="Helvetica,sans-Serif" font-size="10.00">Kadath::System_of_eqs</text>
</a>
</g>
</g>
<!-- Node3&#45;&gt;Node12 -->
<g id="edge56" class="edge">
<title>Node3&#45;&gt;Node12</title>
<path fill="none" stroke="#9a32cd" stroke-dasharray="5,2" d="M1557.66,-487.28C1585.89,-474.23 1624.53,-455.76 1630,-450 1678.41,-399.02 1698.99,-312.52 1704.73,-283.68"/>
<polygon fill="#9a32cd" stroke="#9a32cd" points="1556.17,-484.11 1548.55,-491.47 1559.1,-490.47 1556.17,-484.11"/>
<text text-anchor="middle" x="1607" y="-477" font-family="Helvetica,sans-Serif" font-size="10.00"> met</text>
</g>
<!-- Node25 -->
<g id="node25" class="node">
<title>Node25</title>
<g id="a_node25"><a xlink:href="classKadath_1_1Metric__flat__nophi.html" target="_top" xlink:title=" ">
<polygon fill="none" stroke="black" points="1659,-518 1659,-548 1756,-548 1756,-518 1659,-518"/>
<text text-anchor="start" x="1667" y="-536" font-family="Helvetica,sans-Serif" font-size="10.00">Kadath::Metric_flat</text>
<text text-anchor="middle" x="1707.5" y="-525" font-family="Helvetica,sans-Serif" font-size="10.00">_nophi</text>
</a>
</g>
</g>
<!-- Node3&#45;&gt;Node25 -->
<g id="edge67" class="edge">
<title>Node3&#45;&gt;Node25</title>
<path fill="none" stroke="midnightblue" d="M1576.24,-509.71C1601.92,-514.3 1633.29,-519.91 1658.81,-524.47"/>
<polygon fill="midnightblue" stroke="midnightblue" points="1576.8,-506.26 1566.34,-507.94 1575.57,-513.15 1576.8,-506.26"/>
</g>
<!-- Node4 -->
<g id="node4" class="node">
<title>Node4</title>
<g id="a_node4"><a xlink:href="structKadath_1_1MemoryMappable.html" target="_top" xlink:title=" ">
<polygon fill="none" stroke="black" points="0,-405.5 0,-424.5 128,-424.5 128,-405.5 0,-405.5"/>
<text text-anchor="middle" x="64" y="-412.5" font-family="Helvetica,sans-Serif" font-size="10.00">Kadath::MemoryMappable</text>
</a>
</g>
</g>
<!-- Node4&#45;&gt;Node3 -->
<g id="edge3" class="edge">
<title>Node4&#45;&gt;Node3</title>
<path fill="none" stroke="midnightblue" d="M71.6,-395.73C88.72,-349.67 139.22,-237 223.5,-237 223.5,-237 223.5,-237 811,-237 886.48,-237 1415.97,-352.28 1469,-406 1492.78,-430.09 1466.38,-453.16 1487,-480 1490.62,-484.71 1495.61,-488.5 1500.79,-491.49"/>
<polygon fill="midnightblue" stroke="midnightblue" points="68.2,-394.84 68.12,-405.43 74.79,-397.2 68.2,-394.84"/>
</g>
<!-- Node5 -->
<g id="node5" class="node">
<title>Node5</title>
<g id="a_node5"><a xlink:href="classKadath_1_1Space.html" target="_top" xlink:title=" ">
<polygon fill="none" stroke="black" points="674.5,-453.5 674.5,-472.5 754.5,-472.5 754.5,-453.5 674.5,-453.5"/>
<text text-anchor="middle" x="714.5" y="-460.5" font-family="Helvetica,sans-Serif" font-size="10.00">Kadath::Space</text>
</a>
</g>
</g>
<!-- Node4&#45;&gt;Node5 -->
<g id="edge5" class="edge">
<title>Node4&#45;&gt;Node5</title>
<path fill="none" stroke="midnightblue" d="M138.09,-420.41C275.56,-430.59 568.31,-452.25 674.22,-460.09"/>
<polygon fill="midnightblue" stroke="midnightblue" points="138.3,-416.92 128.07,-419.67 137.78,-423.9 138.3,-416.92"/>
</g>
<!-- Node6 -->
<g id="node6" class="node">
<title>Node6</title>
<g id="a_node6"><a xlink:href="classKadath_1_1Domain.html" target="_top" xlink:title=" ">
<polygon fill="none" stroke="black" points="414.5,-712.5 414.5,-731.5 499.5,-731.5 499.5,-712.5 414.5,-712.5"/>
<text text-anchor="middle" x="457" y="-719.5" font-family="Helvetica,sans-Serif" font-size="10.00">Kadath::Domain</text>
</a>
</g>
</g>
<!-- Node4&#45;&gt;Node6 -->
<g id="edge7" class="edge">
<title>Node4&#45;&gt;Node6</title>
<path fill="none" stroke="midnightblue" d="M68.06,-434.42C78.49,-497.88 114.8,-697.13 165,-734 247.12,-794.31 380.25,-752.25 433.21,-731.6"/>
<polygon fill="midnightblue" stroke="midnightblue" points="71.51,-433.84 66.46,-424.53 64.6,-434.96 71.51,-433.84"/>
</g>
<!-- Node7 -->
<g id="node7" class="node">
<title>Node7</title>
<g id="a_node7"><a xlink:href="classKadath_1_1Dim__array.html" target="_top" xlink:title=" ">
<polygon fill="none" stroke="black" points="177,-443.5 177,-462.5 272,-462.5 272,-443.5 177,-443.5"/>
<text text-anchor="middle" x="224.5" y="-450.5" font-family="Helvetica,sans-Serif" font-size="10.00">Kadath::Dim_array</text>
</a>
</g>
</g>
<!-- Node4&#45;&gt;Node7 -->
<g id="edge9" class="edge">
<title>Node4&#45;&gt;Node7</title>
<path fill="none" stroke="midnightblue" d="M114.92,-426.97C137.13,-432.29 162.92,-438.48 183.79,-443.48"/>
<polygon fill="midnightblue" stroke="midnightblue" points="115.54,-423.52 105,-424.59 113.9,-430.32 115.54,-423.52"/>
</g>
<!-- Node8 -->
<g id="node8" class="node">
<title>Node8</title>
<g id="a_node8"><a xlink:href="classKadath_1_1Array.html" target="_top" xlink:title=" ">
<polygon fill="none" stroke="black" points="165,-705.5 165,-724.5 284,-724.5 284,-705.5 165,-705.5"/>
<text text-anchor="middle" x="224.5" y="-712.5" font-family="Helvetica,sans-Serif" font-size="10.00">Kadath::Array&lt; double &gt;</text>
</a>
</g>
</g>
<!-- Node4&#45;&gt;Node8 -->
<g id="edge11" class="edge">
<title>Node4&#45;&gt;Node8</title>
<path fill="none" stroke="midnightblue" d="M69.27,-434.81C78.56,-475.09 103.3,-568.43 146,-636 164.17,-664.75 194.26,-691.51 211.1,-705.29"/>
<polygon fill="midnightblue" stroke="midnightblue" points="72.65,-433.92 67.05,-424.92 65.82,-435.45 72.65,-433.92"/>
</g>
<!-- Node9 -->
<g id="node9" class="node">
<title>Node9</title>
<g id="a_node9"><a xlink:href="classKadath_1_1Val__domain.html" target="_top" xlink:title=" ">
<polygon fill="none" stroke="black" points="663,-732.5 663,-751.5 766,-751.5 766,-732.5 663,-732.5"/>
<text text-anchor="middle" x="714.5" y="-739.5" font-family="Helvetica,sans-Serif" font-size="10.00">Kadath::Val_domain</text>
</a>
</g>
</g>
<!-- Node4&#45;&gt;Node9 -->
<g id="edge13" class="edge">
<title>Node4&#45;&gt;Node9</title>
<path fill="none" stroke="midnightblue" d="M67.6,-434.82C76.9,-502.42 110.91,-721.97 165,-763 335.62,-892.42 447.32,-887.34 645,-805 672.15,-793.69 695.32,-766.62 706.44,-751.91"/>
<polygon fill="midnightblue" stroke="midnightblue" points="71.04,-434.13 66.23,-424.68 64.1,-435.06 71.04,-434.13"/>
</g>
<!-- Node10 -->
<g id="node10" class="node">
<title>Node10</title>
<g id="a_node10"><a xlink:href="classKadath_1_1Base__spectral.html" target="_top" xlink:title=" ">
<polygon fill="none" stroke="black" points="400,-612.5 400,-631.5 514,-631.5 514,-612.5 400,-612.5"/>
<text text-anchor="middle" x="457" y="-619.5" font-family="Helvetica,sans-Serif" font-size="10.00">Kadath::Base_spectral</text>
</a>
</g>
</g>
<!-- Node4&#45;&gt;Node10 -->
<g id="edge17" class="edge">
<title>Node4&#45;&gt;Node10</title>
<path fill="none" stroke="midnightblue" d="M67.2,-434.69C72.69,-473.37 90.75,-558.92 146,-598 225.87,-654.5 348.04,-643.03 412.57,-631.51"/>
<polygon fill="midnightblue" stroke="midnightblue" points="70.67,-434.17 65.92,-424.69 63.72,-435.06 70.67,-434.17"/>
</g>
<!-- Node11 -->
<g id="node11" class="node">
<title>Node11</title>
<g id="a_node11"><a xlink:href="classKadath_1_1Array.html" target="_top" xlink:title=" ">
<polygon fill="none" stroke="black" points="174,-363.5 174,-382.5 275,-382.5 275,-363.5 174,-363.5"/>
<text text-anchor="middle" x="224.5" y="-370.5" font-family="Helvetica,sans-Serif" font-size="10.00">Kadath::Array&lt; int &gt;</text>
</a>
</g>
</g>
<!-- Node4&#45;&gt;Node11 -->
<g id="edge19" class="edge">
<title>Node4&#45;&gt;Node11</title>
<path fill="none" stroke="midnightblue" d="M110.71,-402.89C135.09,-396.43 164.66,-388.59 187.4,-382.57"/>
<polygon fill="midnightblue" stroke="midnightblue" points="109.74,-399.52 100.97,-405.47 111.53,-406.29 109.74,-399.52"/>
</g>
<!-- Node13 -->
<g id="node13" class="node">
<title>Node13</title>
<g id="a_node13"><a xlink:href="classKadath_1_1Equation.html" target="_top" xlink:title=" ">
<polygon fill="none" stroke="black" points="2035,-180.5 2035,-199.5 2124,-199.5 2124,-180.5 2035,-180.5"/>
<text text-anchor="middle" x="2079.5" y="-187.5" font-family="Helvetica,sans-Serif" font-size="10.00">Kadath::Equation</text>
</a>
</g>
</g>
<!-- Node4&#45;&gt;Node13 -->
<g id="edge23" class="edge">
<title>Node4&#45;&gt;Node13</title>
<path fill="none" stroke="midnightblue" d="M64.26,-394.94C62.5,-316.92 67.16,-38 223.5,-38 223.5,-38 223.5,-38 1797,-38 1872.14,-38 1906.87,-9.39 1965,-57 1985.23,-73.56 1968.2,-91.45 1983,-113 2003.73,-143.2 2039.72,-167.58 2061.1,-180.32"/>
<polygon fill="midnightblue" stroke="midnightblue" points="60.77,-395.41 64.56,-405.3 67.77,-395.2 60.77,-395.41"/>
</g>
<!-- Node14 -->
<g id="node14" class="node">
<title>Node14</title>
<g id="a_node14"><a xlink:href="classKadath_1_1Ope__eq.html" target="_top" xlink:title=" ">
<polygon fill="none" stroke="black" points="1852,-113.5 1852,-132.5 1938,-132.5 1938,-113.5 1852,-113.5"/>
<text text-anchor="middle" x="1895" y="-120.5" font-family="Helvetica,sans-Serif" font-size="10.00">Kadath::Ope_eq</text>
</a>
</g>
</g>
<!-- Node4&#45;&gt;Node14 -->
<g id="edge26" class="edge">
<title>Node4&#45;&gt;Node14</title>
<path fill="none" stroke="midnightblue" d="M65.07,-395.13C66.47,-322.55 81.66,-76 223.5,-76 223.5,-76 223.5,-76 1708.5,-76 1762.2,-76 1772.86,-95.18 1825,-108 1833.69,-110.14 1843.04,-112.27 1851.95,-114.24"/>
<polygon fill="midnightblue" stroke="midnightblue" points="61.57,-395.18 64.95,-405.22 68.57,-395.26 61.57,-395.18"/>
</g>
<!-- Node15 -->
<g id="node15" class="node">
<title>Node15</title>
<g id="a_node15"><a xlink:href="classKadath_1_1Eq__int.html" target="_top" xlink:title=" ">
<polygon fill="none" stroke="black" points="2040,-62.5 2040,-81.5 2119,-81.5 2119,-62.5 2040,-62.5"/>
<text text-anchor="middle" x="2079.5" y="-69.5" font-family="Helvetica,sans-Serif" font-size="10.00">Kadath::Eq_int</text>
</a>
</g>
</g>
<!-- Node4&#45;&gt;Node15 -->
<g id="edge31" class="edge">
<title>Node4&#45;&gt;Node15</title>
<path fill="none" stroke="midnightblue" d="M67.17,-395.42C73.68,-341.01 95.82,-184.14 146,-64 163.22,-22.78 178.83,0 223.5,0 223.5,0 223.5,0 1896,0 1963.1,0 2035,-42.64 2064.58,-62.29"/>
<polygon fill="midnightblue" stroke="midnightblue" points="63.68,-395.09 66.01,-405.42 70.64,-395.89 63.68,-395.09"/>
</g>
<!-- Node16 -->
<g id="node16" class="node">
<title>Node16</title>
<g id="a_node16"><a xlink:href="classKadath_1_1Index.html" target="_top" xlink:title=" ">
<polygon fill="none" stroke="black" points="419.5,-189.5 419.5,-208.5 494.5,-208.5 494.5,-189.5 419.5,-189.5"/>
<text text-anchor="middle" x="457" y="-196.5" font-family="Helvetica,sans-Serif" font-size="10.00">Kadath::Index</text>
</a>
</g>
</g>
<!-- Node4&#45;&gt;Node16 -->
<g id="edge35" class="edge">
<title>Node4&#45;&gt;Node16</title>
<path fill="none" stroke="midnightblue" d="M66.77,-395.2C71.53,-355.07 88.44,-264.48 146,-223 228.33,-163.67 356.92,-178.54 419.43,-190.62"/>
<polygon fill="midnightblue" stroke="midnightblue" points="63.28,-394.99 65.71,-405.3 70.24,-395.72 63.28,-394.99"/>
</g>
<!-- Node17 -->
<g id="node17" class="node">
<title>Node17</title>
<g id="a_node17"><a xlink:href="classKadath_1_1Param.html" target="_top" xlink:title=" ">
<polygon fill="none" stroke="black" points="302,-116.5 302,-135.5 382,-135.5 382,-116.5 302,-116.5"/>
<text text-anchor="middle" x="342" y="-123.5" font-family="Helvetica,sans-Serif" font-size="10.00">Kadath::Param</text>
</a>
</g>
</g>
<!-- Node4&#45;&gt;Node17 -->
<g id="edge39" class="edge">
<title>Node4&#45;&gt;Node17</title>
<path fill="none" stroke="midnightblue" d="M66.17,-394.95C69.85,-350.58 84.92,-243.4 146,-185 188.56,-144.3 258.25,-131.59 301.77,-127.67"/>
<polygon fill="midnightblue" stroke="midnightblue" points="62.67,-394.81 65.44,-405.03 69.65,-395.31 62.67,-394.81"/>
</g>
<!-- Node18 -->
<g id="node18" class="node">
<title>Node18</title>
<g id="a_node18"><a xlink:href="classKadath_1_1Term__eq.html" target="_top" xlink:title=" ">
<polygon fill="none" stroke="black" points="1250,-419.5 1250,-438.5 1340,-438.5 1340,-419.5 1250,-419.5"/>
<text text-anchor="middle" x="1295" y="-426.5" font-family="Helvetica,sans-Serif" font-size="10.00">Kadath::Term_eq</text>
</a>
</g>
</g>
<!-- Node4&#45;&gt;Node18 -->
<g id="edge42" class="edge">
<title>Node4&#45;&gt;Node18</title>
<path fill="none" stroke="midnightblue" d="M83.89,-399.04C102.95,-384.08 133.93,-362.73 165,-354 215.92,-339.7 231.15,-352.04 284,-354 658.26,-367.88 1108.93,-410.58 1249.76,-424.54"/>
<polygon fill="midnightblue" stroke="midnightblue" points="81.6,-396.4 76.02,-405.4 86,-401.84 81.6,-396.4"/>
</g>
<!-- Node19 -->
<g id="node19" class="node">
<title>Node19</title>
<g id="a_node19"><a xlink:href="classKadath_1_1Tensor.html" target="_top" xlink:title=" ">
<polygon fill="none" stroke="black" points="1076,-586.5 1076,-605.5 1158,-605.5 1158,-586.5 1076,-586.5"/>
<text text-anchor="middle" x="1117" y="-593.5" font-family="Helvetica,sans-Serif" font-size="10.00">Kadath::Tensor</text>
</a>
</g>
</g>
<!-- Node4&#45;&gt;Node19 -->
<g id="edge44" class="edge">
<title>Node4&#45;&gt;Node19</title>
<path fill="none" stroke="midnightblue" d="M84.21,-431.47C100.26,-444.9 123.99,-464.04 146,-479 207.06,-520.48 229.64,-521.42 302,-536 452.72,-566.37 932.8,-588.36 1075.57,-594.36"/>
<polygon fill="midnightblue" stroke="midnightblue" points="86.04,-428.43 76.14,-424.65 81.52,-433.78 86.04,-428.43"/>
</g>
<!-- Node21 -->
<g id="node21" class="node">
<title>Node21</title>
<g id="a_node21"><a xlink:href="classKadath_1_1Base__tensor.html" target="_top" xlink:title=" ">
<polygon fill="none" stroke="black" points="854,-467.5 854,-486.5 961,-486.5 961,-467.5 854,-467.5"/>
<text text-anchor="middle" x="907.5" y="-474.5" font-family="Helvetica,sans-Serif" font-size="10.00">Kadath::Base_tensor</text>
</a>
</g>
</g>
<!-- Node4&#45;&gt;Node21 -->
<g id="edge51" class="edge">
<title>Node4&#45;&gt;Node21</title>
<path fill="none" stroke="midnightblue" d="M85.68,-430.78C105.02,-444.53 135.3,-463.55 165,-472 197.36,-481.21 206.1,-480.61 784,-486 807.11,-486.22 812.94,-487.47 836,-486 841.79,-485.63 847.83,-485.1 853.83,-484.47"/>
<polygon fill="midnightblue" stroke="midnightblue" points="87.5,-427.78 77.36,-424.71 83.37,-433.43 87.5,-427.78"/>
</g>
<!-- Node22 -->
<g id="node22" class="node">
<title>Node22</title>
<g id="a_node22"><a xlink:href="classKadath_1_1Param__tensor.html" target="_top" xlink:title=" ">
<polygon fill="none" stroke="black" points="532,-586.5 532,-605.5 645,-605.5 645,-586.5 532,-586.5"/>
<text text-anchor="middle" x="588.5" y="-593.5" font-family="Helvetica,sans-Serif" font-size="10.00">Kadath::Param_tensor</text>
</a>
</g>
</g>
<!-- Node4&#45;&gt;Node22 -->
<g id="edge55" class="edge">
<title>Node4&#45;&gt;Node22</title>
<path fill="none" stroke="midnightblue" d="M69.6,-434.59C78.34,-466.94 100.65,-530.85 146,-560 208.42,-600.13 427.66,-600.21 531.79,-597.82"/>
<polygon fill="midnightblue" stroke="midnightblue" points="72.91,-433.41 67.06,-424.57 66.13,-435.13 72.91,-433.41"/>
</g>
<!-- Node5&#45;&gt;Node3 -->
<g id="edge4" class="edge">
<title>Node5&#45;&gt;Node3</title>
<path fill="none" stroke="#9a32cd" stroke-dasharray="5,2" d="M764.9,-460.57C817.83,-458.09 904.34,-454.42 979,-453 1014.1,-452.33 1022.9,-452.12 1058,-453 1102.49,-454.11 1113.86,-452.32 1158,-458 1239.96,-468.54 1269.36,-453.13 1340,-496 1350.8,-502.55 1346.58,-512.59 1358,-518 1405.54,-540.53 1469.04,-522.97 1502.55,-510.56"/>
<polygon fill="#9a32cd" stroke="#9a32cd" points="764.6,-457.08 754.77,-461.04 764.93,-464.07 764.6,-457.08"/>
<text text-anchor="middle" x="1117" y="-461" font-family="Helvetica,sans-Serif" font-size="10.00"> espace</text>
</g>
<!-- Node5&#45;&gt;Node12 -->
<g id="edge33" class="edge">
<title>Node5&#45;&gt;Node12</title>
<path fill="none" stroke="#9a32cd" stroke-dasharray="5,2" d="M738.84,-447.98C783.49,-420.06 884.94,-360.39 979,-332 1218.87,-259.61 1522.26,-264.45 1647.9,-270.4"/>
<polygon fill="#9a32cd" stroke="#9a32cd" points="736.79,-445.14 730.2,-453.44 740.52,-451.06 736.79,-445.14"/>
<text text-anchor="middle" x="1204" y="-292" font-family="Helvetica,sans-Serif" font-size="10.00"> espace</text>
</g>
<!-- Node5&#45;&gt;Node19 -->
<g id="edge45" class="edge">
<title>Node5&#45;&gt;Node19</title>
<path fill="none" stroke="#9a32cd" stroke-dasharray="5,2" d="M756.17,-475.57C765.32,-478.37 774.99,-481.3 784,-484 844.77,-502.19 999.43,-539.64 1058,-564 1073.08,-570.27 1089.27,-579.43 1100.71,-586.35"/>
<polygon fill="#9a32cd" stroke="#9a32cd" points="757.09,-472.19 746.5,-472.6 755.04,-478.88 757.09,-472.19"/>
<text text-anchor="middle" x="907.5" y="-535" font-family="Helvetica,sans-Serif" font-size="10.00"> espace</text>
</g>
<!-- Node5&#45;&gt;Node21 -->
<g id="edge52" class="edge">
<title>Node5&#45;&gt;Node21</title>
<path fill="none" stroke="#9a32cd" stroke-dasharray="5,2" d="M764.71,-466.61C791.97,-468.6 825.86,-471.09 853.68,-473.13"/>
<polygon fill="#9a32cd" stroke="#9a32cd" points="764.84,-463.11 754.61,-465.87 764.33,-470.09 764.84,-463.11"/>
<text text-anchor="middle" x="810" y="-474" font-family="Helvetica,sans-Serif" font-size="10.00"> space</text>
</g>
<!-- Node6&#45;&gt;Node5 -->
<g id="edge6" class="edge">
<title>Node6&#45;&gt;Node5</title>
<path fill="none" stroke="#9a32cd" stroke-dasharray="5,2" d="M477.04,-705.42C494.81,-690.27 520.28,-669.41 532,-664 578.53,-642.5 609.54,-678.01 645,-641 680.18,-604.28 642.76,-574.66 663,-528 672.67,-505.71 691.76,-484.36 703.5,-472.53"/>
<polygon fill="#9a32cd" stroke="#9a32cd" points="474.33,-703.14 469.03,-712.31 478.9,-708.44 474.33,-703.14"/>
<text text-anchor="middle" x="588.5" y="-667" font-family="Helvetica,sans-Serif" font-size="10.00"> domains</text>
</g>
<!-- Node6&#45;&gt;Node9 -->
<g id="edge20" class="edge">
<title>Node6&#45;&gt;Node9</title>
<path fill="none" stroke="#9a32cd" stroke-dasharray="5,2" d="M510.09,-717.46C547.77,-715.21 599.8,-714.23 645,-721 659.76,-723.21 675.74,-727.96 688.54,-732.39"/>
<polygon fill="#9a32cd" stroke="#9a32cd" points="509.61,-713.98 499.85,-718.12 510.06,-720.97 509.61,-713.98"/>
<text text-anchor="middle" x="588.5" y="-724" font-family="Helvetica,sans-Serif" font-size="10.00"> zone</text>
</g>
<!-- Node6&#45;&gt;Node13 -->
<g id="edge29" class="edge">
<title>Node6&#45;&gt;Node13</title>
<path fill="none" stroke="#9a32cd" stroke-dasharray="5,2" d="M509.77,-713.31C517.21,-712.35 524.79,-711.53 532,-711 582.09,-707.3 594.78,-710.19 645,-711 893.1,-715 954.87,-729 1203,-729 1203,-729 1203,-729 1896,-729 1948.18,-729 1944.85,-682.14 1965,-634 2028.85,-481.48 1964.43,-420.46 2026,-267 2036.72,-240.27 2057.92,-213.49 2069.84,-199.64"/>
<polygon fill="#9a32cd" stroke="#9a32cd" points="509.18,-709.86 499.75,-714.69 510.14,-716.8 509.18,-709.86"/>
<text text-anchor="middle" x="1295" y="-732" font-family="Helvetica,sans-Serif" font-size="10.00"> dom</text>
</g>
<!-- Node7&#45;&gt;Node6 -->
<g id="edge8" class="edge">
<title>Node7&#45;&gt;Node6</title>
<path fill="none" stroke="#9a32cd" stroke-dasharray="5,2" d="M234.83,-471.58C247.99,-496.93 273.61,-543.18 302,-578 348.26,-634.74 416.23,-690.71 443.76,-712.49"/>
<polygon fill="#9a32cd" stroke="#9a32cd" points="237.94,-469.97 230.26,-462.67 231.7,-473.16 237.94,-469.97"/>
<text text-anchor="middle" x="342" y="-674" font-family="Helvetica,sans-Serif" font-size="10.00"> nbr_coefs</text>
<text text-anchor="middle" x="342" y="-663" font-family="Helvetica,sans-Serif" font-size="10.00">nbr_points</text>
</g>
<!-- Node7&#45;&gt;Node16 -->
<g id="edge36" class="edge">
<title>Node7&#45;&gt;Node16</title>
<path fill="none" stroke="#9a32cd" stroke-dasharray="5,2" d="M246.92,-437.06C278.71,-412.75 339.22,-363.96 382,-314 412.58,-278.29 440.12,-229.03 451.03,-208.54"/>
<polygon fill="#9a32cd" stroke="#9a32cd" points="244.61,-434.42 238.75,-443.24 248.84,-439.99 244.61,-434.42"/>
<text text-anchor="middle" x="342" y="-392" font-family="Helvetica,sans-Serif" font-size="10.00"> sizes</text>
</g>
<!-- Node8&#45;&gt;Node6 -->
<g id="edge10" class="edge">
<title>Node8&#45;&gt;Node6</title>
<path fill="none" stroke="#9a32cd" stroke-dasharray="5,2" d="M294.51,-717.1C333.55,-718.28 381.08,-719.72 414.43,-720.74"/>
<polygon fill="#9a32cd" stroke="#9a32cd" points="294.36,-713.59 284.26,-716.78 294.15,-720.59 294.36,-713.59"/>
<text text-anchor="middle" x="342" y="-722" font-family="Helvetica,sans-Serif" font-size="10.00"> coloc</text>
</g>
<!-- Node8&#45;&gt;Node9 -->
<g id="edge14" class="edge">
<title>Node8&#45;&gt;Node9</title>
<path fill="none" stroke="#9a32cd" stroke-dasharray="5,2" d="M264.92,-727.57C322.76,-745.29 434.35,-776.69 532,-788 581.89,-793.78 596.96,-802.63 645,-788 668.3,-780.9 690.86,-762.95 703.39,-751.68"/>
<polygon fill="#9a32cd" stroke="#9a32cd" points="265.69,-724.15 255.1,-724.54 263.62,-730.83 265.69,-724.15"/>
<text text-anchor="middle" x="457" y="-799" font-family="Helvetica,sans-Serif" font-size="10.00"> c</text>
<text text-anchor="middle" x="457" y="-788" font-family="Helvetica,sans-Serif" font-size="10.00">cf</text>
</g>
<!-- Node8&#45;&gt;Node12 -->
<g id="edge40" class="edge">
<title>Node8&#45;&gt;Node12</title>
<path fill="none" stroke="#9a32cd" stroke-dasharray="5,2" d="M248.66,-699.92C263.37,-691.03 283.13,-680.32 302,-674 392.42,-643.71 441.51,-702.95 514,-641 533.88,-624.02 518.79,-607.56 532,-585 575.23,-511.19 587.6,-484.39 663,-444 750.82,-396.95 1440.31,-307.42 1647.69,-281.32"/>
<polygon fill="#9a32cd" stroke="#9a32cd" points="246.43,-697.19 239.78,-705.44 250.12,-703.13 246.43,-697.19"/>
<text text-anchor="middle" x="1018.5" y="-378" font-family="Helvetica,sans-Serif" font-size="10.00"> val_cst_hard</text>
</g>
<!-- Node9&#45;&gt;Node6 -->
<g id="edge12" class="edge">
<title>Node9&#45;&gt;Node6</title>
<path fill="none" stroke="#9a32cd" stroke-dasharray="5,2" d="M652.77,-741.09C617.45,-740.12 572.12,-738.12 532,-734 521.51,-732.92 510.25,-731.33 499.76,-729.65"/>
<polygon fill="#9a32cd" stroke="#9a32cd" points="652.84,-744.6 662.92,-741.35 653.01,-737.6 652.84,-744.6"/>
<text text-anchor="middle" x="588.5" y="-776" font-family="Helvetica,sans-Serif" font-size="10.00"> absol</text>
<text text-anchor="middle" x="588.5" y="-765" font-family="Helvetica,sans-Serif" font-size="10.00">cart</text>
<text text-anchor="middle" x="588.5" y="-754" font-family="Helvetica,sans-Serif" font-size="10.00">cart_surr</text>
<text text-anchor="middle" x="588.5" y="-743" font-family="Helvetica,sans-Serif" font-size="10.00">radius</text>
</g>
<!-- Node9&#45;&gt;Node9 -->
<g id="edge15" class="edge">
<title>Node9&#45;&gt;Node9</title>
<path fill="none" stroke="#9a32cd" stroke-dasharray="5,2" d="M697.09,-761.4C698.26,-766.31 704.06,-770 714.5,-770 731.21,-770 736.04,-760.57 728.99,-751.76"/>
<polygon fill="#9a32cd" stroke="#9a32cd" points="700.47,-762.34 700.01,-751.76 693.77,-760.31 700.47,-762.34"/>
<text text-anchor="middle" x="714.5" y="-784" font-family="Helvetica,sans-Serif" font-size="10.00"> p_der_abs</text>
<text text-anchor="middle" x="714.5" y="-773" font-family="Helvetica,sans-Serif" font-size="10.00">p_der_var</text>
</g>
<!-- Node20 -->
<g id="node20" class="node">
<title>Node20</title>
<g id="a_node20"><a xlink:href="classKadath_1_1Scalar.html" target="_top" xlink:title=" ">
<polygon fill="none" stroke="black" points="1255,-663.5 1255,-682.5 1335,-682.5 1335,-663.5 1255,-663.5"/>
<text text-anchor="middle" x="1295" y="-670.5" font-family="Helvetica,sans-Serif" font-size="10.00">Kadath::Scalar</text>
</a>
</g>
</g>
<!-- Node9&#45;&gt;Node20 -->
<g id="edge48" class="edge">
<title>Node9&#45;&gt;Node20</title>
<path fill="none" stroke="#9a32cd" stroke-dasharray="5,2" d="M776.1,-734.77C894.98,-720.59 1155.77,-689.49 1254.8,-677.68"/>
<polygon fill="#9a32cd" stroke="#9a32cd" points="775.59,-731.31 766.08,-735.97 776.42,-738.26 775.59,-731.31"/>
<text text-anchor="middle" x="1018.5" y="-712" font-family="Helvetica,sans-Serif" font-size="10.00"> val_zones</text>
</g>
<!-- Node10&#45;&gt;Node9 -->
<g id="edge16" class="edge">
<title>Node10&#45;&gt;Node9</title>
<path fill="none" stroke="#9a32cd" stroke-dasharray="5,2" d="M514.39,-611.2C553.68,-606.68 605.85,-606.94 645,-630 655.21,-636.02 694.05,-706.19 708.26,-732.3"/>
<polygon fill="#9a32cd" stroke="#9a32cd" points="513.91,-607.73 504.44,-612.48 514.8,-614.68 513.91,-607.73"/>
<text text-anchor="middle" x="588.5" y="-633" font-family="Helvetica,sans-Serif" font-size="10.00"> base</text>
</g>
<!-- Node11&#45;&gt;Node10 -->
<g id="edge18" class="edge">
<title>Node11&#45;&gt;Node10</title>
<path fill="none" stroke="#9a32cd" stroke-dasharray="5,2" d="M244.88,-389.52C257.37,-400.98 273.24,-417.16 284,-434 295.82,-452.5 289.61,-461.87 302,-480 342.42,-539.15 411.83,-591.35 441.67,-612.27"/>
<polygon fill="#9a32cd" stroke="#9a32cd" points="247.04,-386.75 237.24,-382.71 242.38,-391.98 247.04,-386.75"/>
<text text-anchor="middle" x="342" y="-566" font-family="Helvetica,sans-Serif" font-size="10.00"> bases_1d</text>
</g>
<!-- Node11&#45;&gt;Node12 -->
<g id="edge37" class="edge">
<title>Node11&#45;&gt;Node12</title>
<path fill="none" stroke="#9a32cd" stroke-dasharray="5,2" d="M285.15,-364.86C412.4,-347.74 720.01,-307.75 979,-285 1099.19,-274.44 1129.51,-275.35 1250,-269 1297.98,-266.47 1309.96,-265.11 1358,-264 1478.86,-261.2 1509.38,-256.98 1630,-265 1635.74,-265.38 1641.71,-265.89 1647.67,-266.47"/>
<polygon fill="#9a32cd" stroke="#9a32cd" points="284.66,-361.39 275.21,-366.19 285.59,-368.33 284.66,-361.39"/>
<text text-anchor="middle" x="1018.5" y="-299" font-family="Helvetica,sans-Serif" font-size="10.00"> assoc_var</text>
<text text-anchor="middle" x="1018.5" y="-288" font-family="Helvetica,sans-Serif" font-size="10.00">assoc_var_double</text>
</g>
<!-- Node11&#45;&gt;Node13 -->
<g id="edge24" class="edge">
<title>Node11&#45;&gt;Node13</title>
<path fill="none" stroke="#9a32cd" stroke-dasharray="5,2" d="M235.26,-354.46C257.83,-313.82 318.05,-217.53 400,-180 517.8,-126.05 1436.48,-160.33 1566,-164 1739.88,-168.93 1946.65,-181.46 2034.99,-187.14"/>
<polygon fill="#9a32cd" stroke="#9a32cd" points="232.15,-352.85 230.45,-363.31 238.3,-356.19 232.15,-352.85"/>
<text text-anchor="middle" x="1204" y="-169" font-family="Helvetica,sans-Serif" font-size="10.00"> n_cond</text>
<text text-anchor="middle" x="1204" y="-158" font-family="Helvetica,sans-Serif" font-size="10.00">p_cmp_used</text>
</g>
<!-- Node11&#45;&gt;Node19 -->
<g id="edge49" class="edge">
<title>Node11&#45;&gt;Node19</title>
<path fill="none" stroke="#9a32cd" stroke-dasharray="5,2" d="M256.47,-386.63C270.26,-392.42 286.78,-398.97 302,-404 542.63,-483.54 606.63,-491.89 854,-547 932.14,-564.41 1024.32,-580.66 1075.88,-589.38"/>
<polygon fill="#9a32cd" stroke="#9a32cd" points="257.55,-383.29 246.98,-382.59 254.81,-389.73 257.55,-383.29"/>
<text text-anchor="middle" x="714.5" y="-540" font-family="Helvetica,sans-Serif" font-size="10.00"> give_indices</text>
<text text-anchor="middle" x="714.5" y="-529" font-family="Helvetica,sans-Serif" font-size="10.00">type_indice</text>
</g>
<!-- Node11&#45;&gt;Node21 -->
<g id="edge53" class="edge">
<title>Node11&#45;&gt;Node21</title>
<path fill="none" stroke="#9a32cd" stroke-dasharray="5,2" d="M285.34,-375.51C314.55,-377.06 350.17,-379.46 382,-383 553.75,-402.09 596.44,-410.67 766,-444 801.16,-450.91 840.88,-460.4 869.09,-467.43"/>
<polygon fill="#9a32cd" stroke="#9a32cd" points="285.46,-372.01 275.29,-374.99 285.1,-379 285.46,-372.01"/>
<text text-anchor="middle" x="588.5" y="-423" font-family="Helvetica,sans-Serif" font-size="10.00"> basis</text>
</g>
<!-- Node12&#45;&gt;Node3 -->
<g id="edge21" class="edge">
<title>Node12&#45;&gt;Node3</title>
<path fill="none" stroke="#9a32cd" stroke-dasharray="5,2" d="M1699.33,-293.08C1688.01,-321.26 1663.77,-374.49 1630,-410 1613.34,-427.51 1600.03,-420.92 1584,-439 1571.6,-452.98 1578.43,-463.05 1566,-477 1560.86,-482.76 1554.02,-487.63 1547.53,-491.44"/>
<polygon fill="#9a32cd" stroke="#9a32cd" points="1702.66,-294.19 1703.03,-283.6 1696.13,-291.64 1702.66,-294.19"/>
<text text-anchor="middle" x="1607" y="-442" font-family="Helvetica,sans-Serif" font-size="10.00"> syst</text>
</g>
<!-- Node12&#45;&gt;Node14 -->
<g id="edge28" class="edge">
<title>Node12&#45;&gt;Node14</title>
<path fill="none" stroke="#9a32cd" stroke-dasharray="5,2" d="M1727.96,-257.89C1743.4,-245.13 1765.54,-226.87 1785,-211 1820.06,-182.41 1861.71,-148.91 1881.87,-132.73"/>
<polygon fill="#9a32cd" stroke="#9a32cd" points="1725.61,-255.29 1720.14,-264.36 1730.07,-260.68 1725.61,-255.29"/>
<text text-anchor="middle" x="1796" y="-214" font-family="Helvetica,sans-Serif" font-size="10.00"> syst</text>
</g>
<!-- Node13&#45;&gt;Node12 -->
<g id="edge22" class="edge">
<title>Node13&#45;&gt;Node12</title>
<path fill="none" stroke="#9a32cd" stroke-dasharray="5,2" d="M2026.44,-201.82C1952.52,-218.6 1818.6,-249 1750.58,-264.45"/>
<polygon fill="#9a32cd" stroke="#9a32cd" points="2027.48,-205.17 2036.46,-199.55 2025.93,-198.35 2027.48,-205.17"/>
<text text-anchor="middle" x="1895" y="-251" font-family="Helvetica,sans-Serif" font-size="10.00"> eq</text>
</g>
<!-- Node14&#45;&gt;Node13 -->
<g id="edge25" class="edge">
<title>Node14&#45;&gt;Node13</title>
<path fill="none" stroke="#9a32cd" stroke-dasharray="5,2" d="M1931.64,-136.08C1967.11,-149.11 2020.71,-168.78 2052.4,-180.42"/>
<polygon fill="#9a32cd" stroke="#9a32cd" points="1932.74,-132.76 1922.15,-132.6 1930.33,-139.33 1932.74,-132.76"/>
<text text-anchor="middle" x="1995.5" y="-166" font-family="Helvetica,sans-Serif" font-size="10.00"> parts</text>
</g>
<!-- Node14&#45;&gt;Node14 -->
<g id="edge27" class="edge">
<title>Node14&#45;&gt;Node14</title>
<path fill="none" stroke="#9a32cd" stroke-dasharray="5,2" d="M1876.85,-142.4C1878.06,-147.31 1884.11,-151 1895,-151 1912.42,-151 1917.45,-141.57 1910.1,-132.76"/>
<polygon fill="#9a32cd" stroke="#9a32cd" points="1880.22,-143.35 1879.9,-132.76 1873.55,-141.24 1880.22,-143.35"/>
<text text-anchor="middle" x="1895" y="-154" font-family="Helvetica,sans-Serif" font-size="10.00"> parts</text>
</g>
<!-- Node14&#45;&gt;Node15 -->
<g id="edge32" class="edge">
<title>Node14&#45;&gt;Node15</title>
<path fill="none" stroke="#9a32cd" stroke-dasharray="5,2" d="M1940.32,-110.62C1972.33,-101.67 2014.93,-89.76 2044.33,-81.55"/>
<polygon fill="#9a32cd" stroke="#9a32cd" points="1939.02,-107.34 1930.33,-113.41 1940.9,-114.09 1939.02,-107.34"/>
<text text-anchor="middle" x="1995.5" y="-101" font-family="Helvetica,sans-Serif" font-size="10.00"> parts</text>
</g>
<!-- Node23 -->
<g id="node23" class="node">
<title>Node23</title>
<g id="a_node23"><a xlink:href="classKadath_1_1Ope__def.html" target="_top" xlink:title=" ">
<polygon fill="none" stroke="black" points="2035,-276.5 2035,-295.5 2124,-295.5 2124,-276.5 2035,-276.5"/>
<text text-anchor="middle" x="2079.5" y="-283.5" font-family="Helvetica,sans-Serif" font-size="10.00">Kadath::Ope_def</text>
</a>
</g>
</g>
<!-- Node14&#45;&gt;Node23 -->
<g id="edge59" class="edge">
<title>Node14&#45;&gt;Node23</title>
<path fill="none" stroke="midnightblue" d="M1914.59,-139.61C1952.38,-173.36 2037.14,-249.06 2067.46,-276.14"/>
<polygon fill="midnightblue" stroke="midnightblue" points="1916.66,-136.76 1906.87,-132.71 1912,-141.98 1916.66,-136.76"/>
</g>
<!-- Node15&#45;&gt;Node12 -->
<g id="edge30" class="edge">
<title>Node15&#45;&gt;Node12</title>
<path fill="none" stroke="#9a32cd" stroke-dasharray="5,2" d="M2029.66,-63.95C1975.58,-57.63 1887.78,-55.3 1825,-93 1756.44,-134.17 1721.09,-232.99 1711.34,-264.31"/>
<polygon fill="#9a32cd" stroke="#9a32cd" points="2029.32,-67.43 2039.67,-65.21 2030.19,-60.49 2029.32,-67.43"/>
<text text-anchor="middle" x="1895" y="-96" font-family="Helvetica,sans-Serif" font-size="10.00"> eq_int</text>
</g>
<!-- Node16&#45;&gt;Node12 -->
<g id="edge34" class="edge">
<title>Node16&#45;&gt;Node12</title>
<path fill="none" stroke="#9a32cd" stroke-dasharray="5,2" d="M504.91,-198.71C556.16,-198.41 640.67,-198 713.5,-198 713.5,-198 713.5,-198 1527.5,-198 1574.29,-198 1587.16,-203.2 1630,-222 1655.29,-233.1 1681.13,-252.76 1695.37,-264.46"/>
<polygon fill="#9a32cd" stroke="#9a32cd" points="504.79,-195.21 494.81,-198.77 504.83,-202.21 504.79,-195.21"/>
<text text-anchor="middle" x="1117" y="-201" font-family="Helvetica,sans-Serif" font-size="10.00"> which_coef</text>
</g>
<!-- Node17&#45;&gt;Node12 -->
<g id="edge38" class="edge">
<title>Node17&#45;&gt;Node12</title>
<path fill="none" stroke="#9a32cd" stroke-dasharray="5,2" d="M392.44,-122.15C441.8,-118.64 519.85,-114 587.5,-114 587.5,-114 587.5,-114 1019.5,-114 1264.37,-114 1326.58,-132.61 1566,-184 1594.78,-190.18 1604.33,-186.61 1630,-201 1659.79,-217.69 1686.67,-248.67 1699.15,-264.36"/>
<polygon fill="#9a32cd" stroke="#9a32cd" points="392.07,-118.67 382.35,-122.88 392.58,-125.65 392.07,-118.67"/>
<text text-anchor="middle" x="1018.5" y="-128" font-family="Helvetica,sans-Serif" font-size="10.00"> paruser</text>
<text text-anchor="middle" x="1018.5" y="-117" font-family="Helvetica,sans-Serif" font-size="10.00">paruser_bin</text>
</g>
<!-- Node18&#45;&gt;Node3 -->
<g id="edge61" class="edge">
<title>Node18&#45;&gt;Node3</title>
<path fill="none" stroke="#9a32cd" stroke-dasharray="5,2" d="M1337.38,-417.03C1375.09,-408.75 1430.62,-403.44 1469,-430 1487.39,-442.73 1472.77,-459.74 1487,-477 1491.81,-482.83 1498.43,-487.67 1504.82,-491.43"/>
<polygon fill="#9a32cd" stroke="#9a32cd" points="1336.17,-413.72 1327.24,-419.42 1337.78,-420.54 1336.17,-413.72"/>
<text text-anchor="middle" x="1413.5" y="-510" font-family="Helvetica,sans-Serif" font-size="10.00"> p_christo</text>
<text text-anchor="middle" x="1413.5" y="-499" font-family="Helvetica,sans-Serif" font-size="10.00">p_det_cov</text>
<text text-anchor="middle" x="1413.5" y="-488" font-family="Helvetica,sans-Serif" font-size="10.00">p_dirac</text>
<text text-anchor="middle" x="1413.5" y="-477" font-family="Helvetica,sans-Serif" font-size="10.00">p_met_con</text>
<text text-anchor="middle" x="1413.5" y="-466" font-family="Helvetica,sans-Serif" font-size="10.00">p_met_cov</text>
<text text-anchor="middle" x="1413.5" y="-455" font-family="Helvetica,sans-Serif" font-size="10.00">p_ricci_scalar</text>
<text text-anchor="middle" x="1413.5" y="-444" font-family="Helvetica,sans-Serif" font-size="10.00">p_ricci_tensor</text>
<text text-anchor="middle" x="1413.5" y="-433" font-family="Helvetica,sans-Serif" font-size="10.00">p_riemann</text>
</g>
<!-- Node18&#45;&gt;Node12 -->
<g id="edge41" class="edge">
<title>Node18&#45;&gt;Node12</title>
<path fill="none" stroke="#9a32cd" stroke-dasharray="5,2" d="M1334.15,-416.46C1341.99,-414.12 1350.22,-411.84 1358,-410 1477.31,-381.76 1523.41,-424.59 1630,-364 1664.76,-344.24 1690.95,-302.36 1701.46,-283.53"/>
<polygon fill="#9a32cd" stroke="#9a32cd" points="1333.03,-413.14 1324.49,-419.42 1335.08,-419.83 1333.03,-413.14"/>
<text text-anchor="middle" x="1526.5" y="-468" font-family="Helvetica,sans-Serif" font-size="10.00"> cst</text>
<text text-anchor="middle" x="1526.5" y="-457" font-family="Helvetica,sans-Serif" font-size="10.00">cst_hard</text>
<text text-anchor="middle" x="1526.5" y="-446" font-family="Helvetica,sans-Serif" font-size="10.00">opeuser</text>
<text text-anchor="middle" x="1526.5" y="-435" font-family="Helvetica,sans-Serif" font-size="10.00">opeuser_bin</text>
<text text-anchor="middle" x="1526.5" y="-424" font-family="Helvetica,sans-Serif" font-size="10.00">results</text>
<text text-anchor="middle" x="1526.5" y="-413" font-family="Helvetica,sans-Serif" font-size="10.00">term</text>
<text text-anchor="middle" x="1526.5" y="-402" font-family="Helvetica,sans-Serif" font-size="10.00">term_double</text>
</g>
<!-- Node18&#45;&gt;Node23 -->
<g id="edge60" class="edge">
<title>Node18&#45;&gt;Node23</title>
<path fill="none" stroke="#9a32cd" stroke-dasharray="5,2" d="M1307.92,-447.35C1325.38,-474.14 1356.05,-520.96 1358,-522 1439.51,-565.62 1475.87,-540.58 1566,-520 1775.79,-472.1 2003.5,-333.71 2063.39,-295.74"/>
<polygon fill="#9a32cd" stroke="#9a32cd" points="1310.75,-445.28 1302.37,-438.81 1304.89,-449.1 1310.75,-445.28"/>
<text text-anchor="middle" x="1707.5" y="-500" font-family="Helvetica,sans-Serif" font-size="10.00"> res</text>
</g>
<!-- Node19&#45;&gt;Node12 -->
<g id="edge57" class="edge">
<title>Node19&#45;&gt;Node12</title>
<path fill="none" stroke="#9a32cd" stroke-dasharray="5,2" d="M1125.3,-576.6C1141.19,-537.39 1182.96,-449.13 1250,-410 1399.38,-322.81 1470.81,-393.64 1630,-326 1655.42,-315.2 1681.22,-295.44 1695.41,-283.63"/>
<polygon fill="#9a32cd" stroke="#9a32cd" points="1121.98,-575.49 1121.58,-586.07 1128.5,-578.04 1121.98,-575.49"/>
<text text-anchor="middle" x="1413.5" y="-370" font-family="Helvetica,sans-Serif" font-size="10.00"> var</text>
</g>
<!-- Node19&#45;&gt;Node18 -->
<g id="edge43" class="edge">
<title>Node19&#45;&gt;Node18</title>
<path fill="none" stroke="#9a32cd" stroke-dasharray="5,2" d="M1135.66,-579.24C1172.14,-544.63 1254.79,-466.2 1283.75,-438.73"/>
<polygon fill="#9a32cd" stroke="#9a32cd" points="1133.07,-576.88 1128.22,-586.3 1137.89,-581.96 1133.07,-576.88"/>
<text text-anchor="middle" x="1204" y="-551" font-family="Helvetica,sans-Serif" font-size="10.00"> der_t</text>
<text text-anchor="middle" x="1204" y="-540" font-family="Helvetica,sans-Serif" font-size="10.00">val_t</text>
</g>
<!-- Node19&#45;&gt;Node20 -->
<g id="edge47" class="edge">
<title>Node19&#45;&gt;Node20</title>
<path fill="none" stroke="midnightblue" d="M1157.81,-608.9C1180,-616.53 1207.93,-626.86 1232,-638 1248.38,-645.58 1266.24,-655.9 1278.57,-663.37"/>
<polygon fill="midnightblue" stroke="midnightblue" points="1158.65,-605.49 1148.06,-605.6 1156.4,-612.12 1158.65,-605.49"/>
</g>
<!-- Node24 -->
<g id="node24" class="node">
<title>Node24</title>
<g id="a_node24"><a xlink:href="classKadath_1_1Metric__tensor.html" target="_top" xlink:title=" ">
<polygon fill="none" stroke="black" points="1358,-637.5 1358,-656.5 1469,-656.5 1469,-637.5 1358,-637.5"/>
<text text-anchor="middle" x="1413.5" y="-644.5" font-family="Helvetica,sans-Serif" font-size="10.00">Kadath::Metric_tensor</text>
</a>
</g>
</g>
<!-- Node19&#45;&gt;Node24 -->
<g id="edge63" class="edge">
<title>Node19&#45;&gt;Node24</title>
<path fill="none" stroke="midnightblue" d="M1168.28,-601.89C1188.17,-604.41 1211.2,-607.56 1232,-611 1278.97,-618.77 1332.41,-629.69 1368.88,-637.46"/>
<polygon fill="midnightblue" stroke="midnightblue" points="1168.55,-598.4 1158.19,-600.63 1167.68,-605.34 1168.55,-598.4"/>
</g>
<!-- Node20&#45;&gt;Node2 -->
<g id="edge64" class="edge">
<title>Node20&#45;&gt;Node2</title>
<path fill="none" stroke="#9a32cd" stroke-dasharray="5,2" d="M1345.47,-672.76C1431.47,-671.86 1613.99,-667.8 1767,-650 1784.93,-647.91 1789.48,-647.33 1807,-643 1827.64,-637.9 1850.51,-630.47 1867.62,-624.54"/>
<polygon fill="#9a32cd" stroke="#9a32cd" points="1345.19,-669.26 1335.22,-672.86 1345.26,-676.26 1345.19,-669.26"/>
<text text-anchor="middle" x="1607" y="-678" font-family="Helvetica,sans-Serif" font-size="10.00"> conformal</text>
<text text-anchor="middle" x="1607" y="-667" font-family="Helvetica,sans-Serif" font-size="10.00">der_conf</text>
</g>
<!-- Node20&#45;&gt;Node19 -->
<g id="edge46" class="edge">
<title>Node20&#45;&gt;Node19</title>
<path fill="none" stroke="#9a32cd" stroke-dasharray="5,2" d="M1245.05,-662.45C1223.27,-656.76 1197.69,-648.68 1176,-638 1158.15,-629.21 1139.96,-615 1128.82,-605.58"/>
<polygon fill="#9a32cd" stroke="#9a32cd" points="1244.21,-665.85 1254.77,-664.89 1245.92,-659.06 1244.21,-665.85"/>
<text text-anchor="middle" x="1204" y="-661" font-family="Helvetica,sans-Serif" font-size="10.00"> cmp</text>
</g>
<!-- Node21&#45;&gt;Node2 -->
<g id="edge65" class="edge">
<title>Node21&#45;&gt;Node2</title>
<path fill="none" stroke="#9a32cd" stroke-dasharray="5,2" d="M969.8,-488.45C996.85,-493.51 1029.01,-499.54 1058,-505 1135.35,-519.58 1156.41,-516.05 1232,-538 1260.93,-546.4 1328.56,-581.6 1358,-588 1522.57,-623.77 1721.95,-622.49 1824.95,-618.65"/>
<polygon fill="#9a32cd" stroke="#9a32cd" points="970.18,-484.96 959.71,-486.56 968.89,-491.84 970.18,-484.96"/>
<text text-anchor="middle" x="1413.5" y="-609" font-family="Helvetica,sans-Serif" font-size="10.00"> basis</text>
</g>
<!-- Node21&#45;&gt;Node19 -->
<g id="edge50" class="edge">
<title>Node21&#45;&gt;Node19</title>
<path fill="none" stroke="#9a32cd" stroke-dasharray="5,2" d="M943.94,-490.01C955.11,-494 967.53,-498.3 979,-502 1013.8,-513.23 1027.5,-504.82 1058,-525 1082.42,-541.16 1101.7,-570.77 1110.61,-586.15"/>
<polygon fill="#9a32cd" stroke="#9a32cd" points="945.09,-486.71 934.49,-486.62 942.72,-493.3 945.09,-486.71"/>
<text text-anchor="middle" x="1018.5" y="-528" font-family="Helvetica,sans-Serif" font-size="10.00"> basis</text>
</g>
<!-- Node21&#45;&gt;Node25 -->
<g id="edge68" class="edge">
<title>Node21&#45;&gt;Node25</title>
<path fill="none" stroke="#9a32cd" stroke-dasharray="5,2" d="M971.21,-476.16C998,-476.34 1029.59,-477.28 1058,-480 1121.47,-486.07 1289.35,-494.27 1340,-533 1353.9,-543.63 1343.07,-558.89 1358,-568 1400.11,-593.7 1419.8,-571.61 1469,-568 1535.3,-563.14 1611.18,-550.75 1658.96,-542.1"/>
<polygon fill="#9a32cd" stroke="#9a32cd" points="971.21,-472.66 961.19,-476.12 971.18,-479.66 971.21,-472.66"/>
<text text-anchor="middle" x="1295" y="-536" font-family="Helvetica,sans-Serif" font-size="10.00"> basis</text>
</g>
<!-- Node22&#45;&gt;Node19 -->
<g id="edge54" class="edge">
<title>Node22&#45;&gt;Node19</title>
<path fill="none" stroke="#9a32cd" stroke-dasharray="5,2" d="M637.36,-607.95C650.4,-611.16 661.41,-613.81 663,-614 837.29,-635.03 884.43,-640.31 1058,-614 1069.05,-612.32 1080.89,-608.95 1090.98,-605.57"/>
<polygon fill="#9a32cd" stroke="#9a32cd" points="638.16,-604.54 627.62,-605.54 636.48,-611.34 638.16,-604.54"/>
<text text-anchor="middle" x="810" y="-633" font-family="Helvetica,sans-Serif" font-size="10.00"> parameters</text>
</g>
<!-- Node23&#45;&gt;Node12 -->
<g id="edge58" class="edge">
<title>Node23&#45;&gt;Node12</title>
<path fill="none" stroke="#9a32cd" stroke-dasharray="5,2" d="M2024.75,-284.26C1956.17,-282.03 1837.97,-278.2 1767.13,-275.9"/>
<polygon fill="#9a32cd" stroke="#9a32cd" points="2024.8,-287.76 2034.9,-284.59 2025.02,-280.76 2024.8,-287.76"/>
<text text-anchor="middle" x="1895" y="-285" font-family="Helvetica,sans-Serif" font-size="10.00"> def</text>
</g>
<!-- Node24&#45;&gt;Node2 -->
<g id="edge62" class="edge">
<title>Node24&#45;&gt;Node2</title>
<path fill="none" stroke="#9a32cd" stroke-dasharray="5,2" d="M1479.4,-646.28C1557.38,-644.9 1692.06,-640.85 1807,-629 1817.96,-627.87 1829.63,-626.27 1840.76,-624.55"/>
<polygon fill="#9a32cd" stroke="#9a32cd" points="1479.19,-642.78 1469.25,-646.45 1479.31,-649.78 1479.19,-642.78"/>
<text text-anchor="middle" x="1607" y="-646" font-family="Helvetica,sans-Serif" font-size="10.00"> p_met</text>
</g>
<!-- Node25&#45;&gt;Node2 -->
<g id="edge66" class="edge">
<title>Node25&#45;&gt;Node2</title>
<path fill="none" stroke="#9a32cd" stroke-dasharray="5,2" d="M1765.99,-539.74C1779.78,-542.53 1794.2,-546.46 1807,-552 1837.97,-565.41 1868.64,-591.35 1883.95,-605.4"/>
<polygon fill="#9a32cd" stroke="#9a32cd" points="1766.57,-536.28 1756.1,-537.9 1765.29,-543.17 1766.57,-536.28"/>
<text text-anchor="middle" x="1796" y="-555" font-family="Helvetica,sans-Serif" font-size="10.00"> fmet</text>
</g>
</g>
</svg>
