<?xml version="1.0" encoding="UTF-8" standalone="no"?>
<!DOCTYPE svg PUBLIC "-//W3C//DTD SVG 1.1//EN"
 "http://www.w3.org/Graphics/SVG/1.1/DTD/svg11.dtd">
<!-- Generated by graphviz version 2.47.1 (20210515.0534)
 -->
<!-- Title: Kadath::Metric_AADS Pages: 1 -->
<svg width="2115pt" height="875pt"
 viewBox="0.00 0.00 2115.00 875.00" xmlns="http://www.w3.org/2000/svg" xmlns:xlink="http://www.w3.org/1999/xlink">
<g id="graph0" class="graph" transform="scale(1 1) rotate(0) translate(4 871)">
<title>Kadath::Metric_AADS</title>
<!-- Node1 -->
<g id="node1" class="node">
<title>Node1</title>
<g id="a_node1"><a xlink:title=" ">
<polygon fill="#bfbfbf" stroke="black" points="1846,-716.5 1846,-735.5 1957,-735.5 1957,-716.5 1846,-716.5"/>
<text text-anchor="middle" x="1901.5" y="-723.5" font-family="Helvetica,sans-Serif" font-size="10.00">Kadath::Metric_AADS</text>
</a>
</g>
</g>
<!-- Node2 -->
<g id="node2" class="node">
<title>Node2</title>
<g id="a_node2"><a xlink:href="classKadath_1_1Metric.html" target="_top" xlink:title=" ">
<polygon fill="none" stroke="black" points="1433,-506.5 1433,-525.5 1512,-525.5 1512,-506.5 1433,-506.5"/>
<text text-anchor="middle" x="1472.5" y="-513.5" font-family="Helvetica,sans-Serif" font-size="10.00">Kadath::Metric</text>
</a>
</g>
</g>
<!-- Node2&#45;&gt;Node1 -->
<g id="edge1" class="edge">
<title>Node2&#45;&gt;Node1</title>
<path fill="none" stroke="midnightblue" d="M1522.11,-517.17C1596.89,-519.76 1735.9,-527.89 1778,-553 1845.32,-593.15 1885.42,-686.25 1896.99,-716.4"/>
<polygon fill="midnightblue" stroke="midnightblue" points="1522.12,-513.67 1512.01,-516.85 1521.89,-520.67 1522.12,-513.67"/>
</g>
<!-- Node11 -->
<g id="node11" class="node">
<title>Node11</title>
<g id="a_node11"><a xlink:href="classKadath_1_1System__of__eqs.html" target="_top" xlink:title=" ">
<polygon fill="none" stroke="black" points="1659,-321.5 1659,-340.5 1778,-340.5 1778,-321.5 1659,-321.5"/>
<text text-anchor="middle" x="1718.5" y="-328.5" font-family="Helvetica,sans-Serif" font-size="10.00">Kadath::System_of_eqs</text>
</a>
</g>
</g>
<!-- Node2&#45;&gt;Node11 -->
<g id="edge55" class="edge">
<title>Node2&#45;&gt;Node11</title>
<path fill="none" stroke="#9a32cd" stroke-dasharray="5,2" d="M1500.73,-500.81C1504.69,-498.11 1508.58,-495.14 1512,-492 1521.82,-482.99 1518.68,-475.05 1530,-468 1572.62,-441.45 1599.21,-474.82 1641,-447 1681.56,-419.99 1705.74,-363.38 1714.14,-340.7"/>
<polygon fill="#9a32cd" stroke="#9a32cd" points="1498.67,-497.97 1492.11,-506.29 1502.43,-503.88 1498.67,-497.97"/>
<text text-anchor="middle" x="1585.5" y="-471" font-family="Helvetica,sans-Serif" font-size="10.00"> met</text>
</g>
<!-- Node25 -->
<g id="node25" class="node">
<title>Node25</title>
<g id="a_node25"><a xlink:href="classKadath_1_1Metric__ADS.html" target="_top" xlink:title=" ">
<polygon fill="none" stroke="black" points="1666.5,-759.5 1666.5,-778.5 1770.5,-778.5 1770.5,-759.5 1666.5,-759.5"/>
<text text-anchor="middle" x="1718.5" y="-766.5" font-family="Helvetica,sans-Serif" font-size="10.00">Kadath::Metric_ADS</text>
</a>
</g>
</g>
<!-- Node2&#45;&gt;Node25 -->
<g id="edge67" class="edge">
<title>Node2&#45;&gt;Node25</title>
<path fill="none" stroke="midnightblue" d="M1490.79,-532.9C1522.94,-564.89 1593.01,-637.36 1641,-707 1650.7,-721.08 1646.67,-729.16 1659,-741 1667.28,-748.95 1678.25,-755.02 1688.45,-759.43"/>
<polygon fill="midnightblue" stroke="midnightblue" points="1493.04,-530.2 1483.47,-525.66 1488.12,-535.18 1493.04,-530.2"/>
</g>
<!-- Node3 -->
<g id="node3" class="node">
<title>Node3</title>
<g id="a_node3"><a xlink:href="structKadath_1_1MemoryMappable.html" target="_top" xlink:title=" ">
<polygon fill="none" stroke="black" points="0,-356.5 0,-375.5 128,-375.5 128,-356.5 0,-356.5"/>
<text text-anchor="middle" x="64" y="-363.5" font-family="Helvetica,sans-Serif" font-size="10.00">Kadath::MemoryMappable</text>
</a>
</g>
</g>
<!-- Node3&#45;&gt;Node2 -->
<g id="edge2" class="edge">
<title>Node3&#45;&gt;Node2</title>
<path fill="none" stroke="midnightblue" d="M77.58,-348.16C101.83,-316.09 158.44,-252 223.5,-252 223.5,-252 223.5,-252 606,-252 765.65,-252 1173.03,-286 1317,-355 1367.2,-379.06 1382.7,-387.66 1415,-433 1428.95,-452.58 1419.26,-464.27 1433,-484 1439.16,-492.84 1448.38,-500.63 1456.26,-506.3"/>
<polygon fill="midnightblue" stroke="midnightblue" points="74.72,-346.15 71.62,-356.28 80.36,-350.29 74.72,-346.15"/>
</g>
<!-- Node4 -->
<g id="node4" class="node">
<title>Node4</title>
<g id="a_node4"><a xlink:href="classKadath_1_1Space.html" target="_top" xlink:title=" ">
<polygon fill="none" stroke="black" points="674.5,-460.5 674.5,-479.5 754.5,-479.5 754.5,-460.5 674.5,-460.5"/>
<text text-anchor="middle" x="714.5" y="-467.5" font-family="Helvetica,sans-Serif" font-size="10.00">Kadath::Space</text>
</a>
</g>
</g>
<!-- Node3&#45;&gt;Node4 -->
<g id="edge4" class="edge">
<title>Node3&#45;&gt;Node4</title>
<path fill="none" stroke="midnightblue" d="M138.47,-361.21C251.62,-356.54 473.43,-358.26 645,-427 666.12,-435.46 687.94,-450.43 701.12,-460.29"/>
<polygon fill="midnightblue" stroke="midnightblue" points="138.03,-357.72 128.19,-361.66 138.34,-364.72 138.03,-357.72"/>
</g>
<!-- Node5 -->
<g id="node5" class="node">
<title>Node5</title>
<g id="a_node5"><a xlink:href="classKadath_1_1Domain.html" target="_top" xlink:title=" ">
<polygon fill="none" stroke="black" points="447.5,-459.5 447.5,-478.5 532.5,-478.5 532.5,-459.5 447.5,-459.5"/>
<text text-anchor="middle" x="490" y="-466.5" font-family="Helvetica,sans-Serif" font-size="10.00">Kadath::Domain</text>
</a>
</g>
</g>
<!-- Node3&#45;&gt;Node5 -->
<g id="edge6" class="edge">
<title>Node3&#45;&gt;Node5</title>
<path fill="none" stroke="midnightblue" d="M75.75,-384.17C91.66,-409.13 124.07,-453.09 165,-472 261.77,-516.71 392.81,-493.58 454.36,-478.55"/>
<polygon fill="midnightblue" stroke="midnightblue" points="78.7,-382.29 70.47,-375.62 72.75,-385.97 78.7,-382.29"/>
</g>
<!-- Node6 -->
<g id="node6" class="node">
<title>Node6</title>
<g id="a_node6"><a xlink:href="classKadath_1_1Dim__array.html" target="_top" xlink:title=" ">
<polygon fill="none" stroke="black" points="177,-280.5 177,-299.5 272,-299.5 272,-280.5 177,-280.5"/>
<text text-anchor="middle" x="224.5" y="-287.5" font-family="Helvetica,sans-Serif" font-size="10.00">Kadath::Dim_array</text>
</a>
</g>
</g>
<!-- Node3&#45;&gt;Node6 -->
<g id="edge8" class="edge">
<title>Node3&#45;&gt;Node6</title>
<path fill="none" stroke="midnightblue" d="M86.05,-350.23C101.88,-338.94 124.47,-324.02 146,-314 158.39,-308.24 172.51,-303.39 185.28,-299.6"/>
<polygon fill="midnightblue" stroke="midnightblue" points="83.59,-347.69 77.56,-356.4 87.71,-353.35 83.59,-347.69"/>
</g>
<!-- Node7 -->
<g id="node7" class="node">
<title>Node7</title>
<g id="a_node7"><a xlink:href="classKadath_1_1Array.html" target="_top" xlink:title=" ">
<polygon fill="none" stroke="black" points="165,-443.5 165,-462.5 284,-462.5 284,-443.5 165,-443.5"/>
<text text-anchor="middle" x="224.5" y="-450.5" font-family="Helvetica,sans-Serif" font-size="10.00">Kadath::Array&lt; double &gt;</text>
</a>
</g>
</g>
<!-- Node3&#45;&gt;Node7 -->
<g id="edge10" class="edge">
<title>Node3&#45;&gt;Node7</title>
<path fill="none" stroke="midnightblue" d="M91.5,-380.55C123.97,-398.37 178.07,-428.07 205.85,-443.31"/>
<polygon fill="midnightblue" stroke="midnightblue" points="93.02,-377.39 82.57,-375.64 89.65,-383.52 93.02,-377.39"/>
</g>
<!-- Node8 -->
<g id="node8" class="node">
<title>Node8</title>
<g id="a_node8"><a xlink:href="classKadath_1_1Val__domain.html" target="_top" xlink:title=" ">
<polygon fill="none" stroke="black" points="663,-526.5 663,-545.5 766,-545.5 766,-526.5 663,-526.5"/>
<text text-anchor="middle" x="714.5" y="-533.5" font-family="Helvetica,sans-Serif" font-size="10.00">Kadath::Val_domain</text>
</a>
</g>
</g>
<!-- Node3&#45;&gt;Node8 -->
<g id="edge12" class="edge">
<title>Node3&#45;&gt;Node8</title>
<path fill="none" stroke="midnightblue" d="M73.49,-384.79C87.83,-414.17 119.74,-470.46 165,-498 319.04,-591.75 384.8,-559.18 565,-566 600.53,-567.34 610.2,-573.29 645,-566 663.68,-562.09 683.49,-552.78 696.98,-545.56"/>
<polygon fill="midnightblue" stroke="midnightblue" points="76.6,-383.17 69.16,-375.62 70.27,-386.15 76.6,-383.17"/>
</g>
<!-- Node9 -->
<g id="node9" class="node">
<title>Node9</title>
<g id="a_node9"><a xlink:href="classKadath_1_1Base__spectral.html" target="_top" xlink:title=" ">
<polygon fill="none" stroke="black" points="433,-636.5 433,-655.5 547,-655.5 547,-636.5 433,-636.5"/>
<text text-anchor="middle" x="490" y="-643.5" font-family="Helvetica,sans-Serif" font-size="10.00">Kadath::Base_spectral</text>
</a>
</g>
</g>
<!-- Node3&#45;&gt;Node9 -->
<g id="edge16" class="edge">
<title>Node3&#45;&gt;Node9</title>
<path fill="none" stroke="midnightblue" d="M65.17,-385.94C66.83,-437.95 79.41,-577.6 165,-634 254.77,-693.16 390.94,-670.72 454.31,-655.51"/>
<polygon fill="midnightblue" stroke="midnightblue" points="68.66,-385.64 64.95,-375.72 61.66,-385.79 68.66,-385.64"/>
</g>
<!-- Node10 -->
<g id="node10" class="node">
<title>Node10</title>
<g id="a_node10"><a xlink:href="classKadath_1_1Array.html" target="_top" xlink:title=" ">
<polygon fill="none" stroke="black" points="174,-605.5 174,-624.5 275,-624.5 275,-605.5 174,-605.5"/>
<text text-anchor="middle" x="224.5" y="-612.5" font-family="Helvetica,sans-Serif" font-size="10.00">Kadath::Array&lt; int &gt;</text>
</a>
</g>
</g>
<!-- Node3&#45;&gt;Node10 -->
<g id="edge18" class="edge">
<title>Node3&#45;&gt;Node10</title>
<path fill="none" stroke="midnightblue" d="M67,-385.78C72.28,-427.8 90.22,-526.82 146,-584 155.71,-593.96 169.04,-600.81 181.91,-605.48"/>
<polygon fill="midnightblue" stroke="midnightblue" points="70.47,-385.27 65.85,-375.73 63.51,-386.06 70.47,-385.27"/>
</g>
<!-- Node12 -->
<g id="node12" class="node">
<title>Node12</title>
<g id="a_node12"><a xlink:href="classKadath_1_1Equation.html" target="_top" xlink:title=" ">
<polygon fill="none" stroke="black" points="2018,-262.5 2018,-281.5 2107,-281.5 2107,-262.5 2018,-262.5"/>
<text text-anchor="middle" x="2062.5" y="-269.5" font-family="Helvetica,sans-Serif" font-size="10.00">Kadath::Equation</text>
</a>
</g>
</g>
<!-- Node3&#45;&gt;Node12 -->
<g id="edge22" class="edge">
<title>Node3&#45;&gt;Node12</title>
<path fill="none" stroke="midnightblue" d="M66.27,-345.8C71.64,-279.24 98.45,-71 223.5,-71 223.5,-71 223.5,-71 1586.5,-71 1632.63,-71 1963.3,-80.06 2000,-108 2051.05,-146.86 2059.73,-233.07 2061.2,-262.18"/>
<polygon fill="midnightblue" stroke="midnightblue" points="62.75,-345.96 65.52,-356.18 69.73,-346.46 62.75,-345.96"/>
</g>
<!-- Node13 -->
<g id="node13" class="node">
<title>Node13</title>
<g id="a_node13"><a xlink:href="classKadath_1_1Ope__eq.html" target="_top" xlink:title=" ">
<polygon fill="none" stroke="black" points="1858.5,-195.5 1858.5,-214.5 1944.5,-214.5 1944.5,-195.5 1858.5,-195.5"/>
<text text-anchor="middle" x="1901.5" y="-202.5" font-family="Helvetica,sans-Serif" font-size="10.00">Kadath::Ope_eq</text>
</a>
</g>
</g>
<!-- Node3&#45;&gt;Node13 -->
<g id="edge25" class="edge">
<title>Node3&#45;&gt;Node13</title>
<path fill="none" stroke="midnightblue" d="M67.55,-346.1C76.49,-285.77 112.2,-109 223.5,-109 223.5,-109 223.5,-109 1719.5,-109 1792.77,-109 1865.32,-171.16 1890.87,-195.44"/>
<polygon fill="midnightblue" stroke="midnightblue" points="64.05,-345.85 66.14,-356.24 70.98,-346.82 64.05,-345.85"/>
</g>
<!-- Node14 -->
<g id="node14" class="node">
<title>Node14</title>
<g id="a_node14"><a xlink:href="classKadath_1_1Eq__int.html" target="_top" xlink:title=" ">
<polygon fill="none" stroke="black" points="2023,-36.5 2023,-55.5 2102,-55.5 2102,-36.5 2023,-36.5"/>
<text text-anchor="middle" x="2062.5" y="-43.5" font-family="Helvetica,sans-Serif" font-size="10.00">Kadath::Eq_int</text>
</a>
</g>
</g>
<!-- Node3&#45;&gt;Node14 -->
<g id="edge30" class="edge">
<title>Node3&#45;&gt;Node14</title>
<path fill="none" stroke="midnightblue" d="M64.48,-346.03C63.62,-269.61 71.36,0 223.5,0 223.5,0 223.5,0 1902.5,0 1954.51,0 2012.46,-23 2041.95,-36.47"/>
<polygon fill="midnightblue" stroke="midnightblue" points="60.98,-346.27 64.66,-356.21 67.98,-346.15 60.98,-346.27"/>
</g>
<!-- Node15 -->
<g id="node15" class="node">
<title>Node15</title>
<g id="a_node15"><a xlink:href="classKadath_1_1Index.html" target="_top" xlink:title=" ">
<polygon fill="none" stroke="black" points="452.5,-204.5 452.5,-223.5 527.5,-223.5 527.5,-204.5 452.5,-204.5"/>
<text text-anchor="middle" x="490" y="-211.5" font-family="Helvetica,sans-Serif" font-size="10.00">Kadath::Index</text>
</a>
</g>
</g>
<!-- Node3&#45;&gt;Node15 -->
<g id="edge34" class="edge">
<title>Node3&#45;&gt;Node15</title>
<path fill="none" stroke="midnightblue" d="M70.98,-346.57C81.13,-317.28 104.75,-262.62 146,-238 243.64,-179.71 385.9,-194.88 452.3,-206.46"/>
<polygon fill="midnightblue" stroke="midnightblue" points="67.53,-345.84 67.74,-356.44 74.18,-348.03 67.53,-345.84"/>
</g>
<!-- Node16 -->
<g id="node16" class="node">
<title>Node16</title>
<g id="a_node16"><a xlink:href="classKadath_1_1Param.html" target="_top" xlink:title=" ">
<polygon fill="none" stroke="black" points="565,-151.5 565,-170.5 645,-170.5 645,-151.5 565,-151.5"/>
<text text-anchor="middle" x="605" y="-158.5" font-family="Helvetica,sans-Serif" font-size="10.00">Kadath::Param</text>
</a>
</g>
</g>
<!-- Node3&#45;&gt;Node16 -->
<g id="edge38" class="edge">
<title>Node3&#45;&gt;Node16</title>
<path fill="none" stroke="midnightblue" d="M69.87,-346.2C80.23,-308.85 108.25,-228.56 165,-193 292.41,-113.17 483.28,-137.15 564.81,-152.52"/>
<polygon fill="midnightblue" stroke="midnightblue" points="66.37,-345.76 67.22,-356.32 73.14,-347.54 66.37,-345.76"/>
</g>
<!-- Node17 -->
<g id="node17" class="node">
<title>Node17</title>
<g id="a_node17"><a xlink:href="classKadath_1_1Term__eq.html" target="_top" xlink:title=" ">
<polygon fill="none" stroke="black" points="1227,-446.5 1227,-465.5 1317,-465.5 1317,-446.5 1227,-446.5"/>
<text text-anchor="middle" x="1272" y="-453.5" font-family="Helvetica,sans-Serif" font-size="10.00">Kadath::Term_eq</text>
</a>
</g>
</g>
<!-- Node3&#45;&gt;Node17 -->
<g id="edge41" class="edge">
<title>Node3&#45;&gt;Node17</title>
<path fill="none" stroke="midnightblue" d="M138.29,-356.72C140.89,-356.46 143.47,-356.22 146,-356 193.15,-351.85 257.22,-354.8 284,-355 575.07,-357.22 649.35,-352.46 938,-390 993.45,-397.21 1149.65,-429.99 1226.78,-446.48"/>
<polygon fill="midnightblue" stroke="midnightblue" points="137.77,-353.25 128.19,-357.76 138.49,-360.22 137.77,-353.25"/>
</g>
<!-- Node18 -->
<g id="node18" class="node">
<title>Node18</title>
<g id="a_node18"><a xlink:href="classKadath_1_1Tensor.html" target="_top" xlink:title=" ">
<polygon fill="none" stroke="black" points="1053,-720.5 1053,-739.5 1135,-739.5 1135,-720.5 1053,-720.5"/>
<text text-anchor="middle" x="1094" y="-727.5" font-family="Helvetica,sans-Serif" font-size="10.00">Kadath::Tensor</text>
</a>
</g>
</g>
<!-- Node3&#45;&gt;Node18 -->
<g id="edge43" class="edge">
<title>Node3&#45;&gt;Node18</title>
<path fill="none" stroke="midnightblue" d="M65.75,-385.98C68.72,-448.16 82.81,-642.76 146,-788 163.06,-827.21 180.74,-845 223.5,-845 223.5,-845 223.5,-845 606,-845 753.97,-845 792.12,-844.82 938,-820 982,-812.51 996.91,-817.26 1035,-794 1058.04,-779.93 1077.35,-754.01 1086.79,-739.85"/>
<polygon fill="midnightblue" stroke="midnightblue" points="69.23,-385.5 65.31,-375.66 62.24,-385.8 69.23,-385.5"/>
</g>
<!-- Node20 -->
<g id="node20" class="node">
<title>Node20</title>
<g id="a_node20"><a xlink:href="classKadath_1_1Base__tensor.html" target="_top" xlink:title=" ">
<polygon fill="none" stroke="black" points="831,-720.5 831,-739.5 938,-739.5 938,-720.5 831,-720.5"/>
<text text-anchor="middle" x="884.5" y="-727.5" font-family="Helvetica,sans-Serif" font-size="10.00">Kadath::Base_tensor</text>
</a>
</g>
</g>
<!-- Node3&#45;&gt;Node20 -->
<g id="edge50" class="edge">
<title>Node3&#45;&gt;Node20</title>
<path fill="none" stroke="midnightblue" d="M68.48,-385.94C83.03,-466.04 141.98,-760 223.5,-760 223.5,-760 223.5,-760 715.5,-760 762.76,-760 816.34,-748.35 850.03,-739.57"/>
<polygon fill="midnightblue" stroke="midnightblue" points="71.87,-384.97 66.66,-375.74 64.97,-386.2 71.87,-384.97"/>
</g>
<!-- Node21 -->
<g id="node21" class="node">
<title>Node21</title>
<g id="a_node21"><a xlink:href="classKadath_1_1Param__tensor.html" target="_top" xlink:title=" ">
<polygon fill="none" stroke="black" points="302,-792.5 302,-811.5 415,-811.5 415,-792.5 302,-792.5"/>
<text text-anchor="middle" x="358.5" y="-799.5" font-family="Helvetica,sans-Serif" font-size="10.00">Kadath::Param_tensor</text>
</a>
</g>
</g>
<!-- Node3&#45;&gt;Node21 -->
<g id="edge54" class="edge">
<title>Node3&#45;&gt;Node21</title>
<path fill="none" stroke="midnightblue" d="M65.98,-385.92C70.08,-460.27 88.37,-719.96 146,-774 187.21,-812.63 254.37,-815.18 301.95,-810.92"/>
<polygon fill="midnightblue" stroke="midnightblue" points="69.46,-385.45 65.44,-375.64 62.47,-385.81 69.46,-385.45"/>
</g>
<!-- Node4&#45;&gt;Node2 -->
<g id="edge3" class="edge">
<title>Node4&#45;&gt;Node2</title>
<path fill="none" stroke="#9a32cd" stroke-dasharray="5,2" d="M764.81,-477.91C869.49,-494.27 1121.79,-531.31 1335,-544 1370.49,-546.11 1380.38,-552.11 1415,-544 1430.14,-540.46 1445.86,-532.23 1456.87,-525.6"/>
<polygon fill="#9a32cd" stroke="#9a32cd" points="765.28,-474.44 754.85,-476.35 764.19,-481.36 765.28,-474.44"/>
<text text-anchor="middle" x="1094" y="-529" font-family="Helvetica,sans-Serif" font-size="10.00"> espace</text>
</g>
<!-- Node4&#45;&gt;Node11 -->
<g id="edge32" class="edge">
<title>Node4&#45;&gt;Node11</title>
<path fill="none" stroke="#9a32cd" stroke-dasharray="5,2" d="M764.87,-465.67C869.75,-456.77 1122.54,-436.93 1335,-433 1370.55,-432.34 1384.19,-415.26 1415,-433 1428.81,-440.95 1419.19,-456.05 1433,-464 1463.43,-481.52 1478.79,-475.39 1512,-464 1521.59,-460.71 1521.71,-455.83 1530,-450 1591.64,-406.62 1668.48,-360.1 1701.36,-340.53"/>
<polygon fill="#9a32cd" stroke="#9a32cd" points="764.26,-462.21 754.6,-466.54 764.86,-469.18 764.26,-462.21"/>
<text text-anchor="middle" x="1181" y="-442" font-family="Helvetica,sans-Serif" font-size="10.00"> espace</text>
</g>
<!-- Node4&#45;&gt;Node18 -->
<g id="edge44" class="edge">
<title>Node4&#45;&gt;Node18</title>
<path fill="none" stroke="#9a32cd" stroke-dasharray="5,2" d="M734.52,-486.25C744.33,-494.97 756.24,-506.15 766,-517 774.92,-526.91 773.96,-532.23 784,-541 880.2,-625.04 929.95,-608.33 1035,-681 1052.78,-693.3 1071.58,-709.95 1082.8,-720.33"/>
<polygon fill="#9a32cd" stroke="#9a32cd" points="736.71,-483.51 726.88,-479.55 732.1,-488.77 736.71,-483.51"/>
<text text-anchor="middle" x="884.5" y="-630" font-family="Helvetica,sans-Serif" font-size="10.00"> espace</text>
</g>
<!-- Node4&#45;&gt;Node20 -->
<g id="edge51" class="edge">
<title>Node4&#45;&gt;Node20</title>
<path fill="none" stroke="#9a32cd" stroke-dasharray="5,2" d="M737.09,-486.16C746.99,-494.48 758.23,-505.31 766,-517 778.84,-536.32 773.94,-545.1 784,-566 813.61,-627.51 859.6,-695.67 876.75,-720.39"/>
<polygon fill="#9a32cd" stroke="#9a32cd" points="739.17,-483.35 729.19,-479.81 734.79,-488.8 739.17,-483.35"/>
<text text-anchor="middle" x="798.5" y="-620" font-family="Helvetica,sans-Serif" font-size="10.00"> space</text>
</g>
<!-- Node5&#45;&gt;Node4 -->
<g id="edge5" class="edge">
<title>Node5&#45;&gt;Node4</title>
<path fill="none" stroke="#9a32cd" stroke-dasharray="5,2" d="M516.62,-454.84C530.49,-447.97 548.18,-440.48 565,-437 599.82,-429.79 610.34,-429.09 645,-437 664.69,-441.5 685.31,-452.4 698.72,-460.46"/>
<polygon fill="#9a32cd" stroke="#9a32cd" points="514.98,-451.74 507.69,-459.43 518.18,-457.97 514.98,-451.74"/>
<text text-anchor="middle" x="605" y="-440" font-family="Helvetica,sans-Serif" font-size="10.00"> domains</text>
</g>
<!-- Node5&#45;&gt;Node8 -->
<g id="edge19" class="edge">
<title>Node5&#45;&gt;Node8</title>
<path fill="none" stroke="#9a32cd" stroke-dasharray="5,2" d="M542.93,-458.75C573.87,-455.08 613.18,-454.83 645,-469 655.92,-473.87 654.61,-480.47 663,-489 676.1,-502.32 691.99,-516.86 702.4,-526.19"/>
<polygon fill="#9a32cd" stroke="#9a32cd" points="542.22,-455.31 532.78,-460.1 543.15,-462.25 542.22,-455.31"/>
<text text-anchor="middle" x="605" y="-472" font-family="Helvetica,sans-Serif" font-size="10.00"> zone</text>
</g>
<!-- Node5&#45;&gt;Node12 -->
<g id="edge28" class="edge">
<title>Node5&#45;&gt;Node12</title>
<path fill="none" stroke="#9a32cd" stroke-dasharray="5,2" d="M512.38,-453.67C526.59,-444.31 546.06,-433.02 565,-427 723.77,-376.57 772.41,-408.25 938,-390 1319.81,-347.93 1413.32,-319.24 1796,-286 1873.94,-279.23 1965.07,-275.29 2017.74,-273.4"/>
<polygon fill="#9a32cd" stroke="#9a32cd" points="510.15,-450.95 503.86,-459.47 514.09,-456.74 510.15,-450.95"/>
<text text-anchor="middle" x="1272" y="-356" font-family="Helvetica,sans-Serif" font-size="10.00"> dom</text>
</g>
<!-- Node6&#45;&gt;Node5 -->
<g id="edge7" class="edge">
<title>Node6&#45;&gt;Node5</title>
<path fill="none" stroke="#9a32cd" stroke-dasharray="5,2" d="M248.02,-305.3C300.82,-341.17 431.42,-429.88 474.76,-459.33"/>
<polygon fill="#9a32cd" stroke="#9a32cd" points="249.91,-302.35 239.67,-299.62 245.97,-308.14 249.91,-302.35"/>
<text text-anchor="middle" x="358.5" y="-430" font-family="Helvetica,sans-Serif" font-size="10.00"> nbr_coefs</text>
<text text-anchor="middle" x="358.5" y="-419" font-family="Helvetica,sans-Serif" font-size="10.00">nbr_points</text>
</g>
<!-- Node6&#45;&gt;Node15 -->
<g id="edge35" class="edge">
<title>Node6&#45;&gt;Node15</title>
<path fill="none" stroke="#9a32cd" stroke-dasharray="5,2" d="M268.27,-277.66C320.65,-262.56 408.26,-237.29 455.82,-223.57"/>
<polygon fill="#9a32cd" stroke="#9a32cd" points="267.24,-274.32 258.61,-280.45 269.18,-281.04 267.24,-274.32"/>
<text text-anchor="middle" x="358.5" y="-270" font-family="Helvetica,sans-Serif" font-size="10.00"> sizes</text>
</g>
<!-- Node7&#45;&gt;Node5 -->
<g id="edge9" class="edge">
<title>Node7&#45;&gt;Node5</title>
<path fill="none" stroke="#9a32cd" stroke-dasharray="5,2" d="M294.41,-457.18C342.87,-460.13 406.14,-463.97 447.16,-466.46"/>
<polygon fill="#9a32cd" stroke="#9a32cd" points="294.5,-453.68 284.31,-456.57 294.08,-460.67 294.5,-453.68"/>
<text text-anchor="middle" x="358.5" y="-467" font-family="Helvetica,sans-Serif" font-size="10.00"> coloc</text>
</g>
<!-- Node7&#45;&gt;Node8 -->
<g id="edge13" class="edge">
<title>Node7&#45;&gt;Node8</title>
<path fill="none" stroke="#9a32cd" stroke-dasharray="5,2" d="M261.28,-466.04C274.04,-470.46 288.57,-475.22 302,-479 409.43,-509.22 446.89,-484.68 547,-534 556.34,-538.6 555.21,-545.45 565,-549 604.79,-563.4 654.33,-554.11 684.93,-545.51"/>
<polygon fill="#9a32cd" stroke="#9a32cd" points="262.08,-462.61 251.48,-462.6 259.76,-469.22 262.08,-462.61"/>
<text text-anchor="middle" x="490" y="-548" font-family="Helvetica,sans-Serif" font-size="10.00"> c</text>
<text text-anchor="middle" x="490" y="-537" font-family="Helvetica,sans-Serif" font-size="10.00">cf</text>
</g>
<!-- Node7&#45;&gt;Node11 -->
<g id="edge39" class="edge">
<title>Node7&#45;&gt;Node11</title>
<path fill="none" stroke="#9a32cd" stroke-dasharray="5,2" d="M294.3,-449.54C341.08,-445.77 397.52,-437.98 415,-422 438.71,-400.32 409.44,-373.84 433,-352 618.87,-179.65 741.02,-252 994.5,-252 994.5,-252 994.5,-252 1273,-252 1430.15,-252 1613.8,-300.46 1686.04,-321.47"/>
<polygon fill="#9a32cd" stroke="#9a32cd" points="293.89,-446.06 284.18,-450.31 294.41,-453.04 293.89,-446.06"/>
<text text-anchor="middle" x="995.5" y="-255" font-family="Helvetica,sans-Serif" font-size="10.00"> val_cst_hard</text>
</g>
<!-- Node8&#45;&gt;Node5 -->
<g id="edge11" class="edge">
<title>Node8&#45;&gt;Node5</title>
<path fill="none" stroke="#9a32cd" stroke-dasharray="5,2" d="M685.76,-521.95C673.49,-516.14 658.75,-509.67 645,-505 607.82,-492.38 564.13,-482.62 532.8,-476.47"/>
<polygon fill="#9a32cd" stroke="#9a32cd" points="684.48,-525.22 695,-526.44 687.53,-518.92 684.48,-525.22"/>
<text text-anchor="middle" x="605" y="-541" font-family="Helvetica,sans-Serif" font-size="10.00"> absol</text>
<text text-anchor="middle" x="605" y="-530" font-family="Helvetica,sans-Serif" font-size="10.00">cart</text>
<text text-anchor="middle" x="605" y="-519" font-family="Helvetica,sans-Serif" font-size="10.00">cart_surr</text>
<text text-anchor="middle" x="605" y="-508" font-family="Helvetica,sans-Serif" font-size="10.00">radius</text>
</g>
<!-- Node8&#45;&gt;Node8 -->
<g id="edge14" class="edge">
<title>Node8&#45;&gt;Node8</title>
<path fill="none" stroke="#9a32cd" stroke-dasharray="5,2" d="M699.03,-555.77C700.25,-560.5 705.4,-564 714.5,-564 729.43,-564 733.75,-554.57 727.45,-545.76"/>
<polygon fill="#9a32cd" stroke="#9a32cd" points="702.5,-556.31 701.55,-545.76 695.72,-554.6 702.5,-556.31"/>
<text text-anchor="middle" x="714.5" y="-578" font-family="Helvetica,sans-Serif" font-size="10.00"> p_der_abs</text>
<text text-anchor="middle" x="714.5" y="-567" font-family="Helvetica,sans-Serif" font-size="10.00">p_der_var</text>
</g>
<!-- Node19 -->
<g id="node19" class="node">
<title>Node19</title>
<g id="a_node19"><a xlink:href="classKadath_1_1Scalar.html" target="_top" xlink:title=" ">
<polygon fill="none" stroke="black" points="1232,-758.5 1232,-777.5 1312,-777.5 1312,-758.5 1232,-758.5"/>
<text text-anchor="middle" x="1272" y="-765.5" font-family="Helvetica,sans-Serif" font-size="10.00">Kadath::Scalar</text>
</a>
</g>
</g>
<!-- Node8&#45;&gt;Node19 -->
<g id="edge47" class="edge">
<title>Node8&#45;&gt;Node19</title>
<path fill="none" stroke="#9a32cd" stroke-dasharray="5,2" d="M723.5,-554.94C733.96,-577.22 754.49,-613.51 784,-632 944.13,-732.35 1048.74,-544.85 1209,-645 1250.57,-670.98 1265.32,-734.23 1269.55,-758.39"/>
<polygon fill="#9a32cd" stroke="#9a32cd" points="726.57,-553.23 719.29,-545.53 720.18,-556.09 726.57,-553.23"/>
<text text-anchor="middle" x="995.5" y="-654" font-family="Helvetica,sans-Serif" font-size="10.00"> val_zones</text>
</g>
<!-- Node9&#45;&gt;Node8 -->
<g id="edge15" class="edge">
<title>Node9&#45;&gt;Node8</title>
<path fill="none" stroke="#9a32cd" stroke-dasharray="5,2" d="M556.89,-634.62C585.27,-627.87 618.06,-617.52 645,-602 671.04,-587 694.68,-559.97 706.17,-545.6"/>
<polygon fill="#9a32cd" stroke="#9a32cd" points="556.02,-631.22 547.05,-636.85 557.57,-638.05 556.02,-631.22"/>
<text text-anchor="middle" x="605" y="-634" font-family="Helvetica,sans-Serif" font-size="10.00"> base</text>
</g>
<!-- Node10&#45;&gt;Node9 -->
<g id="edge17" class="edge">
<title>Node10&#45;&gt;Node9</title>
<path fill="none" stroke="#9a32cd" stroke-dasharray="5,2" d="M285.28,-620.06C322.63,-623.45 371.7,-628.32 415,-634 420.81,-634.76 426.86,-635.63 432.89,-636.53"/>
<polygon fill="#9a32cd" stroke="#9a32cd" points="285.34,-616.55 275.07,-619.14 284.72,-623.52 285.34,-616.55"/>
<text text-anchor="middle" x="358.5" y="-637" font-family="Helvetica,sans-Serif" font-size="10.00"> bases_1d</text>
</g>
<!-- Node10&#45;&gt;Node11 -->
<g id="edge36" class="edge">
<title>Node10&#45;&gt;Node11</title>
<path fill="none" stroke="#9a32cd" stroke-dasharray="5,2" d="M252.38,-600.32C291.57,-577.96 365.15,-532.31 415,-479 425.36,-467.92 421.64,-460.05 433,-450 560.97,-336.83 626.67,-328 797.5,-328 797.5,-328 797.5,-328 1182,-328 1355.39,-328 1560.35,-329.59 1658.86,-330.46"/>
<polygon fill="#9a32cd" stroke="#9a32cd" points="250.19,-597.54 243.19,-605.49 253.62,-603.64 250.19,-597.54"/>
<text text-anchor="middle" x="995.5" y="-342" font-family="Helvetica,sans-Serif" font-size="10.00"> assoc_var</text>
<text text-anchor="middle" x="995.5" y="-331" font-family="Helvetica,sans-Serif" font-size="10.00">assoc_var_double</text>
</g>
<!-- Node10&#45;&gt;Node12 -->
<g id="edge23" class="edge">
<title>Node10&#45;&gt;Node12</title>
<path fill="none" stroke="#9a32cd" stroke-dasharray="5,2" d="M285.13,-615.88C424.84,-617.61 765.21,-619.71 813,-600 823.17,-595.8 820.82,-587.19 831,-583 971,-525.43 1360.85,-575.21 1512,-567 1630.49,-560.56 1669.31,-591.63 1778,-544 1917,-483.09 2028.54,-322.59 2055.35,-281.63"/>
<polygon fill="#9a32cd" stroke="#9a32cd" points="285.07,-612.38 275.02,-615.76 284.98,-619.38 285.07,-612.38"/>
<text text-anchor="middle" x="1181" y="-571" font-family="Helvetica,sans-Serif" font-size="10.00"> n_cond</text>
<text text-anchor="middle" x="1181" y="-560" font-family="Helvetica,sans-Serif" font-size="10.00">p_cmp_used</text>
</g>
<!-- Node10&#45;&gt;Node18 -->
<g id="edge48" class="edge">
<title>Node10&#45;&gt;Node18</title>
<path fill="none" stroke="#9a32cd" stroke-dasharray="5,2" d="M252.15,-629.19C266.53,-636.24 284.81,-644.25 302,-649 358.53,-664.64 374.68,-658.78 433,-665 657.1,-688.89 713.9,-687.06 938,-711 977.09,-715.18 1021.62,-720.72 1052.9,-724.74"/>
<polygon fill="#9a32cd" stroke="#9a32cd" points="253.38,-625.89 242.88,-624.51 250.23,-632.14 253.38,-625.89"/>
<text text-anchor="middle" x="714.5" y="-708" font-family="Helvetica,sans-Serif" font-size="10.00"> give_indices</text>
<text text-anchor="middle" x="714.5" y="-697" font-family="Helvetica,sans-Serif" font-size="10.00">type_indice</text>
</g>
<!-- Node10&#45;&gt;Node20 -->
<g id="edge52" class="edge">
<title>Node10&#45;&gt;Node20</title>
<path fill="none" stroke="#9a32cd" stroke-dasharray="5,2" d="M236.17,-633.2C248.97,-653.12 272.47,-684.08 302,-698 394.83,-741.76 706.08,-736.24 830.98,-732.08"/>
<polygon fill="#9a32cd" stroke="#9a32cd" points="239.13,-631.35 230.9,-624.68 233.18,-635.02 239.13,-631.35"/>
<text text-anchor="middle" x="605" y="-737" font-family="Helvetica,sans-Serif" font-size="10.00"> basis</text>
</g>
<!-- Node11&#45;&gt;Node2 -->
<g id="edge20" class="edge">
<title>Node11&#45;&gt;Node2</title>
<path fill="none" stroke="#9a32cd" stroke-dasharray="5,2" d="M1713.29,-350.61C1705.24,-383.12 1684.45,-447.85 1641,-481 1600.95,-511.56 1579.31,-493.66 1530,-504 1524.21,-505.21 1518.09,-506.51 1512.09,-507.78"/>
<polygon fill="#9a32cd" stroke="#9a32cd" points="1716.77,-351.1 1715.62,-340.56 1709.95,-349.51 1716.77,-351.1"/>
<text text-anchor="middle" x="1585.5" y="-507" font-family="Helvetica,sans-Serif" font-size="10.00"> syst</text>
</g>
<!-- Node11&#45;&gt;Node13 -->
<g id="edge27" class="edge">
<title>Node11&#45;&gt;Node13</title>
<path fill="none" stroke="#9a32cd" stroke-dasharray="5,2" d="M1741.74,-315.52C1779.66,-289.12 1855.72,-236.17 1886.8,-214.54"/>
<polygon fill="#9a32cd" stroke="#9a32cd" points="1739.61,-312.74 1733.4,-321.32 1743.61,-318.48 1739.61,-312.74"/>
<text text-anchor="middle" x="1812" y="-278" font-family="Helvetica,sans-Serif" font-size="10.00"> syst</text>
</g>
<!-- Node12&#45;&gt;Node11 -->
<g id="edge21" class="edge">
<title>Node12&#45;&gt;Node11</title>
<path fill="none" stroke="#9a32cd" stroke-dasharray="5,2" d="M2011.21,-283.73C2007.42,-284.52 2003.66,-285.29 2000,-286 1923.74,-300.78 1835.14,-314.41 1778.25,-322.71"/>
<polygon fill="#9a32cd" stroke="#9a32cd" points="2012.19,-287.1 2021.22,-281.56 2010.71,-280.26 2012.19,-287.1"/>
<text text-anchor="middle" x="1901.5" y="-315" font-family="Helvetica,sans-Serif" font-size="10.00"> eq</text>
</g>
<!-- Node13&#45;&gt;Node12 -->
<g id="edge24" class="edge">
<title>Node13&#45;&gt;Node12</title>
<path fill="none" stroke="#9a32cd" stroke-dasharray="5,2" d="M1954.99,-206.33C1970.03,-208.2 1986.11,-211.69 2000,-218 2022.51,-228.23 2042.83,-249.5 2053.54,-262.08"/>
<polygon fill="#9a32cd" stroke="#9a32cd" points="1955.08,-202.82 1944.78,-205.28 1954.37,-209.78 1955.08,-202.82"/>
<text text-anchor="middle" x="1987.5" y="-221" font-family="Helvetica,sans-Serif" font-size="10.00"> parts</text>
</g>
<!-- Node13&#45;&gt;Node13 -->
<g id="edge26" class="edge">
<title>Node13&#45;&gt;Node13</title>
<path fill="none" stroke="#9a32cd" stroke-dasharray="5,2" d="M1885.57,-224.4C1886.64,-229.31 1891.95,-233 1901.5,-233 1916.79,-233 1921.2,-223.57 1914.76,-214.76"/>
<polygon fill="#9a32cd" stroke="#9a32cd" points="1888.95,-225.33 1888.24,-214.76 1882.2,-223.46 1888.95,-225.33"/>
<text text-anchor="middle" x="1901.5" y="-236" font-family="Helvetica,sans-Serif" font-size="10.00"> parts</text>
</g>
<!-- Node13&#45;&gt;Node14 -->
<g id="edge31" class="edge">
<title>Node13&#45;&gt;Node14</title>
<path fill="none" stroke="#9a32cd" stroke-dasharray="5,2" d="M1919.68,-187.82C1953.11,-154.39 2025.88,-81.62 2051.96,-55.54"/>
<polygon fill="#9a32cd" stroke="#9a32cd" points="1917.04,-185.51 1912.45,-195.05 1921.99,-190.46 1917.04,-185.51"/>
<text text-anchor="middle" x="1987.5" y="-134" font-family="Helvetica,sans-Serif" font-size="10.00"> parts</text>
</g>
<!-- Node22 -->
<g id="node22" class="node">
<title>Node22</title>
<g id="a_node22"><a xlink:href="classKadath_1_1Ope__def.html" target="_top" xlink:title=" ">
<polygon fill="none" stroke="black" points="2018,-368.5 2018,-387.5 2107,-387.5 2107,-368.5 2018,-368.5"/>
<text text-anchor="middle" x="2062.5" y="-375.5" font-family="Helvetica,sans-Serif" font-size="10.00">Kadath::Ope_def</text>
</a>
</g>
</g>
<!-- Node13&#45;&gt;Node22 -->
<g id="edge58" class="edge">
<title>Node13&#45;&gt;Node22</title>
<path fill="none" stroke="midnightblue" d="M1918.36,-222.26C1951.39,-258.2 2026.66,-340.1 2052.56,-368.27"/>
<polygon fill="midnightblue" stroke="midnightblue" points="1920.62,-219.54 1911.28,-214.55 1915.46,-224.28 1920.62,-219.54"/>
</g>
<!-- Node14&#45;&gt;Node11 -->
<g id="edge29" class="edge">
<title>Node14&#45;&gt;Node11</title>
<path fill="none" stroke="#9a32cd" stroke-dasharray="5,2" d="M2012.79,-56.42C2000.1,-60.11 1986.71,-64.91 1975,-71 1850.94,-135.58 1750.66,-282.42 1725.56,-321.37"/>
<polygon fill="#9a32cd" stroke="#9a32cd" points="2014.05,-59.71 2022.78,-53.7 2012.21,-52.96 2014.05,-59.71"/>
<text text-anchor="middle" x="1901.5" y="-171" font-family="Helvetica,sans-Serif" font-size="10.00"> eq_int</text>
</g>
<!-- Node15&#45;&gt;Node11 -->
<g id="edge33" class="edge">
<title>Node15&#45;&gt;Node11</title>
<path fill="none" stroke="#9a32cd" stroke-dasharray="5,2" d="M537.66,-213.67C582.68,-213.38 652.76,-213 713.5,-213 713.5,-213 713.5,-213 1473.5,-213 1572.79,-213 1674.16,-293.16 1706.74,-321.34"/>
<polygon fill="#9a32cd" stroke="#9a32cd" points="537.59,-210.17 527.62,-213.73 537.64,-217.17 537.59,-210.17"/>
<text text-anchor="middle" x="1094" y="-216" font-family="Helvetica,sans-Serif" font-size="10.00"> which_coef</text>
</g>
<!-- Node16&#45;&gt;Node11 -->
<g id="edge37" class="edge">
<title>Node16&#45;&gt;Node11</title>
<path fill="none" stroke="#9a32cd" stroke-dasharray="5,2" d="M655.68,-158.59C694.33,-156.92 749.31,-155 797.5,-155 797.5,-155 797.5,-155 1473.5,-155 1550.47,-155 1579.78,-152.34 1641,-199 1684.19,-231.91 1707.26,-296.76 1714.74,-321.29"/>
<polygon fill="#9a32cd" stroke="#9a32cd" points="655.07,-155.11 645.23,-159.05 655.38,-162.11 655.07,-155.11"/>
<text text-anchor="middle" x="1094" y="-169" font-family="Helvetica,sans-Serif" font-size="10.00"> paruser</text>
<text text-anchor="middle" x="1094" y="-158" font-family="Helvetica,sans-Serif" font-size="10.00">paruser_bin</text>
</g>
<!-- Node17&#45;&gt;Node2 -->
<g id="edge60" class="edge">
<title>Node17&#45;&gt;Node2</title>
<path fill="none" stroke="#9a32cd" stroke-dasharray="5,2" d="M1310.98,-443.92C1341.54,-436.63 1384.3,-432.15 1415,-452 1431.37,-462.59 1420.17,-477.32 1433,-492 1437.98,-497.69 1444.63,-502.49 1451.01,-506.27"/>
<polygon fill="#9a32cd" stroke="#9a32cd" points="1309.92,-440.58 1301.12,-446.47 1311.68,-447.35 1309.92,-440.58"/>
<text text-anchor="middle" x="1375" y="-532" font-family="Helvetica,sans-Serif" font-size="10.00"> p_christo</text>
<text text-anchor="middle" x="1375" y="-521" font-family="Helvetica,sans-Serif" font-size="10.00">p_det_cov</text>
<text text-anchor="middle" x="1375" y="-510" font-family="Helvetica,sans-Serif" font-size="10.00">p_dirac</text>
<text text-anchor="middle" x="1375" y="-499" font-family="Helvetica,sans-Serif" font-size="10.00">p_met_con</text>
<text text-anchor="middle" x="1375" y="-488" font-family="Helvetica,sans-Serif" font-size="10.00">p_met_cov</text>
<text text-anchor="middle" x="1375" y="-477" font-family="Helvetica,sans-Serif" font-size="10.00">p_ricci_scalar</text>
<text text-anchor="middle" x="1375" y="-466" font-family="Helvetica,sans-Serif" font-size="10.00">p_ricci_tensor</text>
<text text-anchor="middle" x="1375" y="-455" font-family="Helvetica,sans-Serif" font-size="10.00">p_riemann</text>
</g>
<!-- Node17&#45;&gt;Node11 -->
<g id="edge40" class="edge">
<title>Node17&#45;&gt;Node11</title>
<path fill="none" stroke="#9a32cd" stroke-dasharray="5,2" d="M1306.76,-442.82C1315.87,-439.44 1325.76,-435.94 1335,-433 1457.97,-393.89 1606.3,-357.28 1676.66,-340.55"/>
<polygon fill="#9a32cd" stroke="#9a32cd" points="1305.38,-439.6 1297.26,-446.4 1307.85,-446.15 1305.38,-439.6"/>
<text text-anchor="middle" x="1472.5" y="-472" font-family="Helvetica,sans-Serif" font-size="10.00"> cst</text>
<text text-anchor="middle" x="1472.5" y="-461" font-family="Helvetica,sans-Serif" font-size="10.00">cst_hard</text>
<text text-anchor="middle" x="1472.5" y="-450" font-family="Helvetica,sans-Serif" font-size="10.00">opeuser</text>
<text text-anchor="middle" x="1472.5" y="-439" font-family="Helvetica,sans-Serif" font-size="10.00">opeuser_bin</text>
<text text-anchor="middle" x="1472.5" y="-428" font-family="Helvetica,sans-Serif" font-size="10.00">results</text>
<text text-anchor="middle" x="1472.5" y="-417" font-family="Helvetica,sans-Serif" font-size="10.00">term</text>
<text text-anchor="middle" x="1472.5" y="-406" font-family="Helvetica,sans-Serif" font-size="10.00">term_double</text>
</g>
<!-- Node17&#45;&gt;Node22 -->
<g id="edge59" class="edge">
<title>Node17&#45;&gt;Node22</title>
<path fill="none" stroke="#9a32cd" stroke-dasharray="5,2" d="M1280.65,-474.83C1290.05,-495.16 1308.15,-526.44 1335,-540 1363.88,-554.58 1474.09,-566.25 1641,-534 1802.69,-502.75 1984.23,-416.66 2042.46,-387.67"/>
<polygon fill="#9a32cd" stroke="#9a32cd" points="1283.83,-473.37 1276.62,-465.61 1277.41,-476.17 1283.83,-473.37"/>
<text text-anchor="middle" x="1718.5" y="-532" font-family="Helvetica,sans-Serif" font-size="10.00"> res</text>
</g>
<!-- Node18&#45;&gt;Node11 -->
<g id="edge56" class="edge">
<title>Node18&#45;&gt;Node11</title>
<path fill="none" stroke="#9a32cd" stroke-dasharray="5,2" d="M1145.5,-724.38C1209.94,-715.99 1323.94,-697.07 1415,-660 1524.65,-615.36 1564.76,-609.57 1641,-519 1689.11,-461.85 1710,-370.43 1715.76,-340.69"/>
<polygon fill="#9a32cd" stroke="#9a32cd" points="1144.7,-720.95 1135.22,-725.68 1145.58,-727.89 1144.7,-720.95"/>
<text text-anchor="middle" x="1375" y="-689" font-family="Helvetica,sans-Serif" font-size="10.00"> var</text>
</g>
<!-- Node18&#45;&gt;Node17 -->
<g id="edge42" class="edge">
<title>Node18&#45;&gt;Node17</title>
<path fill="none" stroke="#9a32cd" stroke-dasharray="5,2" d="M1110.68,-712.69C1138.14,-682.17 1193.5,-619.7 1209,-595 1237.51,-549.56 1259.79,-488.78 1267.79,-465.56"/>
<polygon fill="#9a32cd" stroke="#9a32cd" points="1107.83,-710.62 1103.73,-720.39 1113.03,-715.31 1107.83,-710.62"/>
<text text-anchor="middle" x="1181" y="-678" font-family="Helvetica,sans-Serif" font-size="10.00"> der_t</text>
<text text-anchor="middle" x="1181" y="-667" font-family="Helvetica,sans-Serif" font-size="10.00">val_t</text>
</g>
<!-- Node18&#45;&gt;Node19 -->
<g id="edge46" class="edge">
<title>Node18&#45;&gt;Node19</title>
<path fill="none" stroke="midnightblue" d="M1145.2,-740.84C1172.66,-746.77 1206.18,-754.01 1231.72,-759.52"/>
<polygon fill="midnightblue" stroke="midnightblue" points="1145.89,-737.41 1135.38,-738.72 1144.41,-744.25 1145.89,-737.41"/>
</g>
<!-- Node23 -->
<g id="node23" class="node">
<title>Node23</title>
<g id="a_node23"><a xlink:href="classKadath_1_1Metric__tensor.html" target="_top" xlink:title=" ">
<polygon fill="none" stroke="black" points="1530,-716.5 1530,-735.5 1641,-735.5 1641,-716.5 1530,-716.5"/>
<text text-anchor="middle" x="1585.5" y="-723.5" font-family="Helvetica,sans-Serif" font-size="10.00">Kadath::Metric_tensor</text>
</a>
</g>
</g>
<!-- Node18&#45;&gt;Node23 -->
<g id="edge62" class="edge">
<title>Node18&#45;&gt;Node23</title>
<path fill="none" stroke="midnightblue" d="M1145.28,-729.59C1237.81,-728.83 1434.31,-727.23 1529.94,-726.45"/>
<polygon fill="midnightblue" stroke="midnightblue" points="1145.03,-726.09 1135.06,-729.67 1145.09,-733.09 1145.03,-726.09"/>
</g>
<!-- Node24 -->
<g id="node24" class="node">
<title>Node24</title>
<g id="a_node24"><a xlink:href="classKadath_1_1Vector.html" target="_top" xlink:title=" ">
<polygon fill="none" stroke="black" points="1335,-811.5 1335,-830.5 1415,-830.5 1415,-811.5 1335,-811.5"/>
<text text-anchor="middle" x="1375" y="-818.5" font-family="Helvetica,sans-Serif" font-size="10.00">Kadath::Vector</text>
</a>
</g>
</g>
<!-- Node18&#45;&gt;Node24 -->
<g id="edge64" class="edge">
<title>Node18&#45;&gt;Node24</title>
<path fill="none" stroke="midnightblue" d="M1108.53,-747.54C1119.21,-760.06 1135.22,-776.19 1153,-785 1211.69,-814.09 1288.86,-820.48 1334.76,-821.45"/>
<polygon fill="midnightblue" stroke="midnightblue" points="1111.07,-745.12 1102.04,-739.58 1105.65,-749.54 1111.07,-745.12"/>
</g>
<!-- Node19&#45;&gt;Node18 -->
<g id="edge45" class="edge">
<title>Node19&#45;&gt;Node18</title>
<path fill="none" stroke="#9a32cd" stroke-dasharray="5,2" d="M1221.56,-770.41C1200.12,-770.2 1174.96,-768.25 1153,-762 1136.63,-757.34 1119.8,-747.37 1108.52,-739.79"/>
<polygon fill="#9a32cd" stroke="#9a32cd" points="1221.76,-773.91 1231.75,-770.38 1221.74,-766.91 1221.76,-773.91"/>
<text text-anchor="middle" x="1181" y="-773" font-family="Helvetica,sans-Serif" font-size="10.00"> cmp</text>
</g>
<!-- Node19&#45;&gt;Node25 -->
<g id="edge68" class="edge">
<title>Node19&#45;&gt;Node25</title>
<path fill="none" stroke="#9a32cd" stroke-dasharray="5,2" d="M1322.2,-768.11C1407.03,-768.3 1580.01,-768.69 1666.25,-768.88"/>
<polygon fill="#9a32cd" stroke="#9a32cd" points="1322.06,-764.61 1312.06,-768.09 1322.05,-771.61 1322.06,-764.61"/>
<text text-anchor="middle" x="1472.5" y="-782" font-family="Helvetica,sans-Serif" font-size="10.00"> m_eps</text>
<text text-anchor="middle" x="1472.5" y="-771" font-family="Helvetica,sans-Serif" font-size="10.00">m_rho2</text>
</g>
<!-- Node20&#45;&gt;Node1 -->
<g id="edge65" class="edge">
<title>Node20&#45;&gt;Node1</title>
<path fill="none" stroke="#9a32cd" stroke-dasharray="5,2" d="M911.07,-715.49C957.48,-690.08 1059.44,-638.48 1153,-620 1290.91,-592.75 1722.5,-685.58 1858.81,-716.4"/>
<polygon fill="#9a32cd" stroke="#9a32cd" points="909.35,-712.44 902.29,-720.35 912.73,-718.57 909.35,-712.44"/>
<text text-anchor="middle" x="1375" y="-634" font-family="Helvetica,sans-Serif" font-size="10.00"> p_basis</text>
</g>
<!-- Node20&#45;&gt;Node18 -->
<g id="edge49" class="edge">
<title>Node20&#45;&gt;Node18</title>
<path fill="none" stroke="#9a32cd" stroke-dasharray="5,2" d="M948.42,-730C982.37,-730 1023.25,-730 1052.87,-730"/>
<polygon fill="#9a32cd" stroke="#9a32cd" points="948.13,-726.5 938.13,-730 948.13,-733.5 948.13,-726.5"/>
<text text-anchor="middle" x="995.5" y="-733" font-family="Helvetica,sans-Serif" font-size="10.00"> basis</text>
</g>
<!-- Node20&#45;&gt;Node25 -->
<g id="edge69" class="edge">
<title>Node20&#45;&gt;Node25</title>
<path fill="none" stroke="#9a32cd" stroke-dasharray="5,2" d="M900.61,-747.38C932.44,-781.94 1010.28,-856 1093,-856 1093,-856 1093,-856 1473.5,-856 1561.94,-856 1574.8,-811.03 1659,-784 1664.99,-782.08 1671.39,-780.23 1677.67,-778.53"/>
<polygon fill="#9a32cd" stroke="#9a32cd" points="903.16,-744.98 893.86,-739.89 897.95,-749.66 903.16,-744.98"/>
<text text-anchor="middle" x="1272" y="-859" font-family="Helvetica,sans-Serif" font-size="10.00"> p_basis</text>
</g>
<!-- Node21&#45;&gt;Node18 -->
<g id="edge53" class="edge">
<title>Node21&#45;&gt;Node18</title>
<path fill="none" stroke="#9a32cd" stroke-dasharray="5,2" d="M425.52,-803.66C474.72,-804.76 543.56,-806 604,-806 604,-806 604,-806 885.5,-806 961.85,-806 1044.88,-760.08 1078.07,-739.63"/>
<polygon fill="#9a32cd" stroke="#9a32cd" points="425.41,-800.16 415.33,-803.43 425.25,-807.16 425.41,-800.16"/>
<text text-anchor="middle" x="714.5" y="-809" font-family="Helvetica,sans-Serif" font-size="10.00"> parameters</text>
</g>
<!-- Node22&#45;&gt;Node11 -->
<g id="edge57" class="edge">
<title>Node22&#45;&gt;Node11</title>
<path fill="none" stroke="#9a32cd" stroke-dasharray="5,2" d="M2007.71,-372.23C1953.99,-366.25 1869.11,-356.22 1796,-345 1787.33,-343.67 1778.12,-342.11 1769.22,-340.53"/>
<polygon fill="#9a32cd" stroke="#9a32cd" points="2007.38,-375.71 2017.7,-373.34 2008.15,-368.76 2007.38,-375.71"/>
<text text-anchor="middle" x="1901.5" y="-369" font-family="Helvetica,sans-Serif" font-size="10.00"> def</text>
</g>
<!-- Node23&#45;&gt;Node1 -->
<g id="edge61" class="edge">
<title>Node23&#45;&gt;Node1</title>
<path fill="none" stroke="#9a32cd" stroke-dasharray="5,2" d="M1651.26,-726C1708.72,-726 1791.74,-726 1845.91,-726"/>
<polygon fill="#9a32cd" stroke="#9a32cd" points="1651.19,-722.5 1641.19,-726 1651.19,-729.5 1651.19,-722.5"/>
<text text-anchor="middle" x="1718.5" y="-729" font-family="Helvetica,sans-Serif" font-size="10.00"> p_hmet</text>
</g>
<!-- Node24&#45;&gt;Node1 -->
<g id="edge63" class="edge">
<title>Node24&#45;&gt;Node1</title>
<path fill="none" stroke="#9a32cd" stroke-dasharray="5,2" d="M1425.61,-822.42C1502.45,-823.4 1654.28,-820.45 1778,-788 1820.19,-776.93 1864.66,-750.01 1886.59,-735.55"/>
<polygon fill="#9a32cd" stroke="#9a32cd" points="1425.33,-818.91 1415.28,-822.26 1425.22,-825.91 1425.33,-818.91"/>
<text text-anchor="middle" x="1585.5" y="-823" font-family="Helvetica,sans-Serif" font-size="10.00"> p_der_eps</text>
</g>
<!-- Node25&#45;&gt;Node1 -->
<g id="edge66" class="edge">
<title>Node25&#45;&gt;Node1</title>
<path fill="none" stroke="#9a32cd" stroke-dasharray="5,2" d="M1769.5,-757.12C1798.15,-750.31 1833.64,-741.88 1860.44,-735.52"/>
<polygon fill="#9a32cd" stroke="#9a32cd" points="1768.59,-753.74 1759.67,-759.46 1770.21,-760.55 1768.59,-753.74"/>
<text text-anchor="middle" x="1812" y="-753" font-family="Helvetica,sans-Serif" font-size="10.00"> m_ads</text>
</g>
</g>
</svg>
