<?xml version="1.0" encoding="UTF-8" standalone="no"?>
<!DOCTYPE svg PUBLIC "-//W3C//DTD SVG 1.1//EN"
 "http://www.w3.org/Graphics/SVG/1.1/DTD/svg11.dtd">
<!-- Generated by graphviz version 2.47.1 (20210515.0534)
 -->
<!-- Title: Kadath::Metric_conf Pages: 1 -->
<svg width="2047pt" height="844pt"
 viewBox="0.00 0.00 2047.00 844.00" xmlns="http://www.w3.org/2000/svg" xmlns:xlink="http://www.w3.org/1999/xlink">
<g id="graph0" class="graph" transform="scale(1 1) rotate(0) translate(4 840)">
<title>Kadath::Metric_conf</title>
<!-- Node1 -->
<g id="node1" class="node">
<title>Node1</title>
<g id="a_node1"><a xlink:title=" ">
<polygon fill="#bfbfbf" stroke="black" points="1786,-612.5 1786,-631.5 1889,-631.5 1889,-612.5 1786,-612.5"/>
<text text-anchor="middle" x="1837.5" y="-619.5" font-family="Helvetica,sans-Serif" font-size="10.00">Kadath::Metric_conf</text>
</a>
</g>
</g>
<!-- Node2 -->
<g id="node2" class="node">
<title>Node2</title>
<g id="a_node2"><a xlink:href="classKadath_1_1Metric.html" target="_top" xlink:title=" ">
<polygon fill="none" stroke="black" points="1464,-624.5 1464,-643.5 1543,-643.5 1543,-624.5 1464,-624.5"/>
<text text-anchor="middle" x="1503.5" y="-631.5" font-family="Helvetica,sans-Serif" font-size="10.00">Kadath::Metric</text>
</a>
</g>
</g>
<!-- Node2&#45;&gt;Node1 -->
<g id="edge1" class="edge">
<title>Node2&#45;&gt;Node1</title>
<path fill="none" stroke="midnightblue" d="M1544.39,-646.47C1549.95,-648.07 1555.6,-649.63 1561,-651 1633.07,-669.31 1654.7,-673.46 1728,-661 1760.17,-655.53 1795.36,-641.22 1816.68,-631.54"/>
<polygon fill="midnightblue" stroke="midnightblue" points="1545.15,-643.05 1534.57,-643.57 1543.17,-649.76 1545.15,-643.05"/>
</g>
<!-- Node11 -->
<g id="node11" class="node">
<title>Node11</title>
<g id="a_node11"><a xlink:href="classKadath_1_1System__of__eqs.html" target="_top" xlink:title=" ">
<polygon fill="none" stroke="black" points="1609,-252.5 1609,-271.5 1728,-271.5 1728,-252.5 1609,-252.5"/>
<text text-anchor="middle" x="1668.5" y="-259.5" font-family="Helvetica,sans-Serif" font-size="10.00">Kadath::System_of_eqs</text>
</a>
</g>
</g>
<!-- Node2&#45;&gt;Node11 -->
<g id="edge55" class="edge">
<title>Node2&#45;&gt;Node11</title>
<path fill="none" stroke="#9a32cd" stroke-dasharray="5,2" d="M1512.97,-615.11C1534.72,-566.62 1590.8,-441.56 1591,-441 1601.34,-411.95 1597.8,-402.73 1609,-374 1624.47,-334.35 1650.09,-290.48 1661.59,-271.55"/>
<polygon fill="#9a32cd" stroke="#9a32cd" points="1509.68,-613.91 1508.78,-624.46 1516.06,-616.77 1509.68,-613.91"/>
<text text-anchor="middle" x="1576" y="-506" font-family="Helvetica,sans-Serif" font-size="10.00"> met</text>
</g>
<!-- Node24 -->
<g id="node24" class="node">
<title>Node24</title>
<g id="a_node24"><a xlink:href="classKadath_1_1Metric__flat.html" target="_top" xlink:title=" ">
<polygon fill="none" stroke="black" points="1620,-632.5 1620,-651.5 1717,-651.5 1717,-632.5 1620,-632.5"/>
<text text-anchor="middle" x="1668.5" y="-639.5" font-family="Helvetica,sans-Serif" font-size="10.00">Kadath::Metric_flat</text>
</a>
</g>
</g>
<!-- Node2&#45;&gt;Node24 -->
<g id="edge65" class="edge">
<title>Node2&#45;&gt;Node24</title>
<path fill="none" stroke="midnightblue" d="M1553.17,-636.39C1574.25,-637.42 1598.85,-638.63 1619.83,-639.66"/>
<polygon fill="midnightblue" stroke="midnightblue" points="1553.29,-632.89 1543.13,-635.9 1552.95,-639.88 1553.29,-632.89"/>
</g>
<!-- Node3 -->
<g id="node3" class="node">
<title>Node3</title>
<g id="a_node3"><a xlink:href="structKadath_1_1MemoryMappable.html" target="_top" xlink:title=" ">
<polygon fill="none" stroke="black" points="0,-413.5 0,-432.5 128,-432.5 128,-413.5 0,-413.5"/>
<text text-anchor="middle" x="64" y="-420.5" font-family="Helvetica,sans-Serif" font-size="10.00">Kadath::MemoryMappable</text>
</a>
</g>
</g>
<!-- Node3&#45;&gt;Node2 -->
<g id="edge2" class="edge">
<title>Node3&#45;&gt;Node2</title>
<path fill="none" stroke="midnightblue" d="M69.82,-442.25C87.29,-507.09 154.24,-716.72 302,-774 494.28,-848.54 560.6,-792.34 766,-774 973.36,-755.48 1022.08,-727.69 1227,-691 1324.32,-673.57 1350.02,-675.72 1446,-652 1455.59,-649.63 1465.94,-646.5 1475.12,-643.53"/>
<polygon fill="midnightblue" stroke="midnightblue" points="73.19,-441.3 67.28,-432.5 66.41,-443.06 73.19,-441.3"/>
</g>
<!-- Node4 -->
<g id="node4" class="node">
<title>Node4</title>
<g id="a_node4"><a xlink:href="classKadath_1_1Space.html" target="_top" xlink:title=" ">
<polygon fill="none" stroke="black" points="674.5,-529.5 674.5,-548.5 754.5,-548.5 754.5,-529.5 674.5,-529.5"/>
<text text-anchor="middle" x="714.5" y="-536.5" font-family="Helvetica,sans-Serif" font-size="10.00">Kadath::Space</text>
</a>
</g>
</g>
<!-- Node3&#45;&gt;Node4 -->
<g id="edge4" class="edge">
<title>Node3&#45;&gt;Node4</title>
<path fill="none" stroke="midnightblue" d="M75.37,-441.45C88.62,-462.98 113.75,-497.61 146,-513 239.46,-557.6 561.47,-546.52 674.17,-541.1"/>
<polygon fill="midnightblue" stroke="midnightblue" points="78.24,-439.42 70.13,-432.59 72.21,-442.98 78.24,-439.42"/>
</g>
<!-- Node5 -->
<g id="node5" class="node">
<title>Node5</title>
<g id="a_node5"><a xlink:href="classKadath_1_1Domain.html" target="_top" xlink:title=" ">
<polygon fill="none" stroke="black" points="447.5,-312.5 447.5,-331.5 532.5,-331.5 532.5,-312.5 447.5,-312.5"/>
<text text-anchor="middle" x="490" y="-319.5" font-family="Helvetica,sans-Serif" font-size="10.00">Kadath::Domain</text>
</a>
</g>
</g>
<!-- Node3&#45;&gt;Node5 -->
<g id="edge6" class="edge">
<title>Node3&#45;&gt;Node5</title>
<path fill="none" stroke="midnightblue" d="M81.79,-406.31C100.39,-388.96 132.13,-362.6 165,-350 260.94,-313.21 384.23,-314.58 447.48,-318.44"/>
<polygon fill="midnightblue" stroke="midnightblue" points="79.24,-403.91 74.43,-413.35 84.08,-408.96 79.24,-403.91"/>
</g>
<!-- Node6 -->
<g id="node6" class="node">
<title>Node6</title>
<g id="a_node6"><a xlink:href="classKadath_1_1Dim__array.html" target="_top" xlink:title=" ">
<polygon fill="none" stroke="black" points="177,-174.5 177,-193.5 272,-193.5 272,-174.5 177,-174.5"/>
<text text-anchor="middle" x="224.5" y="-181.5" font-family="Helvetica,sans-Serif" font-size="10.00">Kadath::Dim_array</text>
</a>
</g>
</g>
<!-- Node3&#45;&gt;Node6 -->
<g id="edge8" class="edge">
<title>Node3&#45;&gt;Node6</title>
<path fill="none" stroke="midnightblue" d="M66.75,-403.14C71.52,-361.01 88.55,-262.11 146,-208 154.51,-199.99 165.65,-194.64 176.82,-191.09"/>
<polygon fill="midnightblue" stroke="midnightblue" points="63.25,-402.92 65.72,-413.22 70.21,-403.62 63.25,-402.92"/>
</g>
<!-- Node7 -->
<g id="node7" class="node">
<title>Node7</title>
<g id="a_node7"><a xlink:href="classKadath_1_1Array.html" target="_top" xlink:title=" ">
<polygon fill="none" stroke="black" points="165,-359.5 165,-378.5 284,-378.5 284,-359.5 165,-359.5"/>
<text text-anchor="middle" x="224.5" y="-366.5" font-family="Helvetica,sans-Serif" font-size="10.00">Kadath::Array&lt; double &gt;</text>
</a>
</g>
</g>
<!-- Node3&#45;&gt;Node7 -->
<g id="edge10" class="edge">
<title>Node3&#45;&gt;Node7</title>
<path fill="none" stroke="midnightblue" d="M102.6,-410.19C131.13,-400.47 169.71,-387.33 195.54,-378.53"/>
<polygon fill="midnightblue" stroke="midnightblue" points="101.31,-406.93 92.97,-413.47 103.57,-413.56 101.31,-406.93"/>
</g>
<!-- Node8 -->
<g id="node8" class="node">
<title>Node8</title>
<g id="a_node8"><a xlink:href="classKadath_1_1Val__domain.html" target="_top" xlink:title=" ">
<polygon fill="none" stroke="black" points="663,-392.5 663,-411.5 766,-411.5 766,-392.5 663,-392.5"/>
<text text-anchor="middle" x="714.5" y="-399.5" font-family="Helvetica,sans-Serif" font-size="10.00">Kadath::Val_domain</text>
</a>
</g>
</g>
<!-- Node3&#45;&gt;Node8 -->
<g id="edge12" class="edge">
<title>Node3&#45;&gt;Node8</title>
<path fill="none" stroke="midnightblue" d="M138.23,-423.46C232.73,-423.7 402.23,-422.95 547,-416 585.97,-414.13 629.95,-410.36 662.92,-407.2"/>
<polygon fill="midnightblue" stroke="midnightblue" points="138.21,-419.96 128.2,-423.43 138.19,-426.96 138.21,-419.96"/>
</g>
<!-- Node9 -->
<g id="node9" class="node">
<title>Node9</title>
<g id="a_node9"><a xlink:href="classKadath_1_1Base__spectral.html" target="_top" xlink:title=" ">
<polygon fill="none" stroke="black" points="433,-463.5 433,-482.5 547,-482.5 547,-463.5 433,-463.5"/>
<text text-anchor="middle" x="490" y="-470.5" font-family="Helvetica,sans-Serif" font-size="10.00">Kadath::Base_spectral</text>
</a>
</g>
</g>
<!-- Node3&#45;&gt;Node9 -->
<g id="edge16" class="edge">
<title>Node3&#45;&gt;Node9</title>
<path fill="none" stroke="midnightblue" d="M127.15,-434.17C133.51,-435.19 139.88,-436.15 146,-437 246.67,-450.97 364.65,-462.24 432.72,-468.25"/>
<polygon fill="midnightblue" stroke="midnightblue" points="127.64,-430.71 117.21,-432.55 126.51,-437.62 127.64,-430.71"/>
</g>
<!-- Node10 -->
<g id="node10" class="node">
<title>Node10</title>
<g id="a_node10"><a xlink:href="classKadath_1_1Array.html" target="_top" xlink:title=" ">
<polygon fill="none" stroke="black" points="174,-620.5 174,-639.5 275,-639.5 275,-620.5 174,-620.5"/>
<text text-anchor="middle" x="224.5" y="-627.5" font-family="Helvetica,sans-Serif" font-size="10.00">Kadath::Array&lt; int &gt;</text>
</a>
</g>
</g>
<!-- Node3&#45;&gt;Node10 -->
<g id="edge18" class="edge">
<title>Node3&#45;&gt;Node10</title>
<path fill="none" stroke="midnightblue" d="M68.81,-442.87C76.77,-479.21 98.52,-556.69 146,-601 155.45,-609.82 167.84,-616.02 179.92,-620.36"/>
<polygon fill="midnightblue" stroke="midnightblue" points="72.14,-441.7 66.69,-432.62 65.28,-443.12 72.14,-441.7"/>
</g>
<!-- Node12 -->
<g id="node12" class="node">
<title>Node12</title>
<g id="a_node12"><a xlink:href="classKadath_1_1Equation.html" target="_top" xlink:title=" ">
<polygon fill="none" stroke="black" points="1950,-479.5 1950,-498.5 2039,-498.5 2039,-479.5 1950,-479.5"/>
<text text-anchor="middle" x="1994.5" y="-486.5" font-family="Helvetica,sans-Serif" font-size="10.00">Kadath::Equation</text>
</a>
</g>
</g>
<!-- Node3&#45;&gt;Node12 -->
<g id="edge22" class="edge">
<title>Node3&#45;&gt;Node12</title>
<path fill="none" stroke="midnightblue" d="M68.12,-442.86C81.63,-525.26 138.23,-836 223.5,-836 223.5,-836 223.5,-836 1838.5,-836 1990.58,-836 1994.46,-554.69 1993.72,-498.64"/>
<polygon fill="midnightblue" stroke="midnightblue" points="71.55,-442.12 66.5,-432.8 64.64,-443.23 71.55,-442.12"/>
</g>
<!-- Node13 -->
<g id="node13" class="node">
<title>Node13</title>
<g id="a_node13"><a xlink:href="classKadath_1_1Ope__eq.html" target="_top" xlink:title=" ">
<polygon fill="none" stroke="black" points="1794.5,-208.5 1794.5,-227.5 1880.5,-227.5 1880.5,-208.5 1794.5,-208.5"/>
<text text-anchor="middle" x="1837.5" y="-215.5" font-family="Helvetica,sans-Serif" font-size="10.00">Kadath::Ope_eq</text>
</a>
</g>
</g>
<!-- Node3&#45;&gt;Node13 -->
<g id="edge25" class="edge">
<title>Node3&#45;&gt;Node13</title>
<path fill="none" stroke="midnightblue" d="M64.85,-403.25C65.47,-344.52 75.13,-168.82 165,-68 183.7,-47.02 195.4,-44 223.5,-44 223.5,-44 223.5,-44 996.5,-44 1239.8,-44 1307.99,-13.01 1543,-76 1659.73,-107.29 1675.71,-148.59 1786,-198 1794.09,-201.62 1803.05,-205.28 1811.14,-208.46"/>
<polygon fill="midnightblue" stroke="midnightblue" points="61.35,-403.37 64.83,-413.37 68.35,-403.38 61.35,-403.37"/>
</g>
<!-- Node14 -->
<g id="node14" class="node">
<title>Node14</title>
<g id="a_node14"><a xlink:href="classKadath_1_1Eq__int.html" target="_top" xlink:title=" ">
<polygon fill="none" stroke="black" points="1955,-36.5 1955,-55.5 2034,-55.5 2034,-36.5 1955,-36.5"/>
<text text-anchor="middle" x="1994.5" y="-43.5" font-family="Helvetica,sans-Serif" font-size="10.00">Kadath::Eq_int</text>
</a>
</g>
</g>
<!-- Node3&#45;&gt;Node14 -->
<g id="edge30" class="edge">
<title>Node3&#45;&gt;Node14</title>
<path fill="none" stroke="midnightblue" d="M64.79,-403.31C65.14,-342.35 73.94,-154 165,-40 184.66,-15.39 192,0 223.5,0 223.5,0 223.5,0 1838.5,0 1889.31,0 1945.75,-23 1974.47,-36.47"/>
<polygon fill="midnightblue" stroke="midnightblue" points="61.29,-403.46 64.8,-413.45 68.29,-403.45 61.29,-403.46"/>
</g>
<!-- Node15 -->
<g id="node15" class="node">
<title>Node15</title>
<g id="a_node15"><a xlink:href="classKadath_1_1Index.html" target="_top" xlink:title=" ">
<polygon fill="none" stroke="black" points="452.5,-138.5 452.5,-157.5 527.5,-157.5 527.5,-138.5 452.5,-138.5"/>
<text text-anchor="middle" x="490" y="-145.5" font-family="Helvetica,sans-Serif" font-size="10.00">Kadath::Index</text>
</a>
</g>
</g>
<!-- Node3&#45;&gt;Node15 -->
<g id="edge34" class="edge">
<title>Node3&#45;&gt;Node15</title>
<path fill="none" stroke="midnightblue" d="M65.53,-403.2C68.09,-352.75 82.7,-219.51 165,-165 253.76,-106.22 388.06,-124.97 452.28,-138.8"/>
<polygon fill="midnightblue" stroke="midnightblue" points="62.02,-403.28 65.13,-413.41 69.02,-403.55 62.02,-403.28"/>
</g>
<!-- Node16 -->
<g id="node16" class="node">
<title>Node16</title>
<g id="a_node16"><a xlink:href="classKadath_1_1Param.html" target="_top" xlink:title=" ">
<polygon fill="none" stroke="black" points="565,-81.5 565,-100.5 645,-100.5 645,-81.5 565,-81.5"/>
<text text-anchor="middle" x="605" y="-88.5" font-family="Helvetica,sans-Serif" font-size="10.00">Kadath::Param</text>
</a>
</g>
</g>
<!-- Node3&#45;&gt;Node16 -->
<g id="edge38" class="edge">
<title>Node3&#45;&gt;Node16</title>
<path fill="none" stroke="midnightblue" d="M64.64,-403.13C64.83,-347.93 73.78,-192.3 165,-123 286.24,-30.89 484.69,-62.78 566.72,-81.44"/>
<polygon fill="midnightblue" stroke="midnightblue" points="61.14,-403.33 64.7,-413.31 68.14,-403.29 61.14,-403.33"/>
</g>
<!-- Node17 -->
<g id="node17" class="node">
<title>Node17</title>
<g id="a_node17"><a xlink:href="classKadath_1_1Term__eq.html" target="_top" xlink:title=" ">
<polygon fill="none" stroke="black" points="1227,-338.5 1227,-357.5 1317,-357.5 1317,-338.5 1227,-338.5"/>
<text text-anchor="middle" x="1272" y="-345.5" font-family="Helvetica,sans-Serif" font-size="10.00">Kadath::Term_eq</text>
</a>
</g>
</g>
<!-- Node3&#45;&gt;Node17 -->
<g id="edge41" class="edge">
<title>Node3&#45;&gt;Node17</title>
<path fill="none" stroke="midnightblue" d="M78.36,-404.92C110.85,-362.83 198.93,-259.54 302,-229 362.54,-211.06 636.07,-149.34 1035,-240 1123.98,-260.22 1219.86,-316.03 1256.04,-338.47"/>
<polygon fill="midnightblue" stroke="midnightblue" points="75.38,-403.06 72.12,-413.15 80.95,-407.29 75.38,-403.06"/>
</g>
<!-- Node18 -->
<g id="node18" class="node">
<title>Node18</title>
<g id="a_node18"><a xlink:href="classKadath_1_1Tensor.html" target="_top" xlink:title=" ">
<polygon fill="none" stroke="black" points="1053,-475.5 1053,-494.5 1135,-494.5 1135,-475.5 1053,-475.5"/>
<text text-anchor="middle" x="1094" y="-482.5" font-family="Helvetica,sans-Serif" font-size="10.00">Kadath::Tensor</text>
</a>
</g>
</g>
<!-- Node3&#45;&gt;Node18 -->
<g id="edge43" class="edge">
<title>Node3&#45;&gt;Node18</title>
<path fill="none" stroke="midnightblue" d="M95.67,-436.49C115.17,-444.53 141.14,-454.25 165,-460 506.99,-542.46 604.43,-501.48 956,-489 988.58,-487.84 1025.52,-486.78 1052.83,-486.04"/>
<polygon fill="midnightblue" stroke="midnightblue" points="96.96,-433.24 86.39,-432.59 94.25,-439.69 96.96,-433.24"/>
</g>
<!-- Node20 -->
<g id="node20" class="node">
<title>Node20</title>
<g id="a_node20"><a xlink:href="classKadath_1_1Base__tensor.html" target="_top" xlink:title=" ">
<polygon fill="none" stroke="black" points="831,-683.5 831,-702.5 938,-702.5 938,-683.5 831,-683.5"/>
<text text-anchor="middle" x="884.5" y="-690.5" font-family="Helvetica,sans-Serif" font-size="10.00">Kadath::Base_tensor</text>
</a>
</g>
</g>
<!-- Node3&#45;&gt;Node20 -->
<g id="edge50" class="edge">
<title>Node3&#45;&gt;Node20</title>
<path fill="none" stroke="midnightblue" d="M66.1,-442.61C71,-509.13 96.59,-722 223.5,-722 223.5,-722 223.5,-722 715.5,-722 762.12,-722 814.96,-711.02 848.73,-702.58"/>
<polygon fill="midnightblue" stroke="midnightblue" points="69.6,-442.36 65.45,-432.61 62.61,-442.82 69.6,-442.36"/>
</g>
<!-- Node21 -->
<g id="node21" class="node">
<title>Node21</title>
<g id="a_node21"><a xlink:href="classKadath_1_1Param__tensor.html" target="_top" xlink:title=" ">
<polygon fill="none" stroke="black" points="302,-565.5 302,-584.5 415,-584.5 415,-565.5 302,-565.5"/>
<text text-anchor="middle" x="358.5" y="-572.5" font-family="Helvetica,sans-Serif" font-size="10.00">Kadath::Param_tensor</text>
</a>
</g>
</g>
<!-- Node3&#45;&gt;Node21 -->
<g id="edge54" class="edge">
<title>Node3&#45;&gt;Node21</title>
<path fill="none" stroke="midnightblue" d="M69.87,-442.51C78.9,-474.09 101.5,-535.63 146,-563 195.34,-593.35 264.02,-590.9 309.57,-584.52"/>
<polygon fill="midnightblue" stroke="midnightblue" points="73.21,-441.44 67.23,-432.69 66.45,-443.26 73.21,-441.44"/>
</g>
<!-- Node4&#45;&gt;Node2 -->
<g id="edge3" class="edge">
<title>Node4&#45;&gt;Node2</title>
<path fill="none" stroke="#9a32cd" stroke-dasharray="5,2" d="M752.5,-551.86C809.5,-571.46 916.35,-607.22 956,-614 1144.1,-646.18 1373.73,-640.16 1463.71,-636.08"/>
<polygon fill="#9a32cd" stroke="#9a32cd" points="753.39,-548.47 742.8,-548.52 751.11,-555.09 753.39,-548.47"/>
<text text-anchor="middle" x="1094" y="-636" font-family="Helvetica,sans-Serif" font-size="10.00"> espace</text>
</g>
<!-- Node4&#45;&gt;Node11 -->
<g id="edge32" class="edge">
<title>Node4&#45;&gt;Node11</title>
<path fill="none" stroke="#9a32cd" stroke-dasharray="5,2" d="M752.91,-526.11C825.95,-500.68 984.81,-444 1035,-415 1093.29,-381.31 1094.82,-353.88 1153,-320 1228.17,-276.23 1249.55,-264.29 1335,-248 1446.77,-226.7 1477.69,-237.72 1591,-248 1601.49,-248.95 1612.69,-250.62 1623.19,-252.49"/>
<polygon fill="#9a32cd" stroke="#9a32cd" points="751.49,-522.9 743.19,-529.49 753.78,-529.51 751.49,-522.9"/>
<text text-anchor="middle" x="1181" y="-323" font-family="Helvetica,sans-Serif" font-size="10.00"> espace</text>
</g>
<!-- Node4&#45;&gt;Node18 -->
<g id="edge44" class="edge">
<title>Node4&#45;&gt;Node18</title>
<path fill="none" stroke="#9a32cd" stroke-dasharray="5,2" d="M765.04,-531.91C840.65,-521.1 983.38,-500.68 1052.9,-490.74"/>
<polygon fill="#9a32cd" stroke="#9a32cd" points="764.23,-528.49 754.83,-533.37 765.23,-535.42 764.23,-528.49"/>
<text text-anchor="middle" x="884.5" y="-524" font-family="Helvetica,sans-Serif" font-size="10.00"> espace</text>
</g>
<!-- Node4&#45;&gt;Node20 -->
<g id="edge51" class="edge">
<title>Node4&#45;&gt;Node20</title>
<path fill="none" stroke="#9a32cd" stroke-dasharray="5,2" d="M747.37,-553.23C753.79,-556.69 760.31,-560.66 766,-565 814.44,-601.96 859.59,-660.29 876.49,-683.25"/>
<polygon fill="#9a32cd" stroke="#9a32cd" points="748.63,-549.95 738.13,-548.54 745.46,-556.19 748.63,-549.95"/>
<text text-anchor="middle" x="798.5" y="-609" font-family="Helvetica,sans-Serif" font-size="10.00"> space</text>
</g>
<!-- Node5&#45;&gt;Node4 -->
<g id="edge5" class="edge">
<title>Node5&#45;&gt;Node4</title>
<path fill="none" stroke="#9a32cd" stroke-dasharray="5,2" d="M519.69,-336.84C529.24,-342.79 539.37,-350.3 547,-359 559.06,-372.75 553.74,-381.59 565,-396 593.55,-432.55 611.62,-430.81 645,-463 668.27,-485.44 693.08,-514.39 705.47,-529.25"/>
<polygon fill="#9a32cd" stroke="#9a32cd" points="521.21,-333.68 510.82,-331.64 517.67,-339.72 521.21,-333.68"/>
<text text-anchor="middle" x="605" y="-466" font-family="Helvetica,sans-Serif" font-size="10.00"> domains</text>
</g>
<!-- Node5&#45;&gt;Node8 -->
<g id="edge19" class="edge">
<title>Node5&#45;&gt;Node8</title>
<path fill="none" stroke="#9a32cd" stroke-dasharray="5,2" d="M517.55,-336.3C531.43,-343.42 548.85,-351.8 565,-358 599.54,-371.25 609.54,-370.47 645,-381 657.4,-384.68 671.03,-388.84 682.85,-392.48"/>
<polygon fill="#9a32cd" stroke="#9a32cd" points="519.05,-333.13 508.56,-331.61 515.81,-339.34 519.05,-333.13"/>
<text text-anchor="middle" x="605" y="-384" font-family="Helvetica,sans-Serif" font-size="10.00"> zone</text>
</g>
<!-- Node5&#45;&gt;Node12 -->
<g id="edge28" class="edge">
<title>Node5&#45;&gt;Node12</title>
<path fill="none" stroke="#9a32cd" stroke-dasharray="5,2" d="M523.84,-308.9C536.49,-304.51 551.21,-300.18 565,-298 600.12,-292.45 609.56,-295.09 645,-298 795.85,-310.37 1169.7,-374.17 1317,-409 1433.83,-436.63 1454.95,-489 1575,-489 1575,-489 1575,-489 1838.5,-489 1876.04,-489 1918.69,-489 1949.74,-489"/>
<polygon fill="#9a32cd" stroke="#9a32cd" points="522.41,-305.7 514.2,-312.4 524.79,-312.28 522.41,-305.7"/>
<text text-anchor="middle" x="1272" y="-412" font-family="Helvetica,sans-Serif" font-size="10.00"> dom</text>
</g>
<!-- Node6&#45;&gt;Node5 -->
<g id="edge7" class="edge">
<title>Node6&#45;&gt;Node5</title>
<path fill="none" stroke="#9a32cd" stroke-dasharray="5,2" d="M253.03,-198.42C307.02,-226.69 425.49,-288.74 470.84,-312.49"/>
<polygon fill="#9a32cd" stroke="#9a32cd" points="254.51,-195.24 244.03,-193.7 251.26,-201.44 254.51,-195.24"/>
<text text-anchor="middle" x="358.5" y="-295" font-family="Helvetica,sans-Serif" font-size="10.00"> nbr_coefs</text>
<text text-anchor="middle" x="358.5" y="-284" font-family="Helvetica,sans-Serif" font-size="10.00">nbr_points</text>
</g>
<!-- Node6&#45;&gt;Node15 -->
<g id="edge35" class="edge">
<title>Node6&#45;&gt;Node15</title>
<path fill="none" stroke="#9a32cd" stroke-dasharray="5,2" d="M282.52,-176.73C320.15,-171.86 370.54,-165.24 415,-159 427.09,-157.3 440.28,-155.37 452.13,-153.6"/>
<polygon fill="#9a32cd" stroke="#9a32cd" points="281.73,-173.3 272.25,-178.05 282.62,-180.24 281.73,-173.3"/>
<text text-anchor="middle" x="358.5" y="-178" font-family="Helvetica,sans-Serif" font-size="10.00"> sizes</text>
</g>
<!-- Node7&#45;&gt;Node5 -->
<g id="edge9" class="edge">
<title>Node7&#45;&gt;Node5</title>
<path fill="none" stroke="#9a32cd" stroke-dasharray="5,2" d="M288.73,-357.72C337.93,-348.95 404.8,-337.02 447.43,-329.41"/>
<polygon fill="#9a32cd" stroke="#9a32cd" points="288.05,-354.29 278.82,-359.49 289.28,-361.18 288.05,-354.29"/>
<text text-anchor="middle" x="358.5" y="-358" font-family="Helvetica,sans-Serif" font-size="10.00"> coloc</text>
</g>
<!-- Node7&#45;&gt;Node8 -->
<g id="edge13" class="edge">
<title>Node7&#45;&gt;Node8</title>
<path fill="none" stroke="#9a32cd" stroke-dasharray="5,2" d="M294.32,-373.67C362.9,-378.32 471.23,-385.67 565,-392 597.61,-394.2 634.25,-396.67 662.98,-398.6"/>
<polygon fill="#9a32cd" stroke="#9a32cd" points="294.29,-370.16 284.07,-372.98 293.81,-377.14 294.29,-370.16"/>
<text text-anchor="middle" x="490" y="-404" font-family="Helvetica,sans-Serif" font-size="10.00"> c</text>
<text text-anchor="middle" x="490" y="-393" font-family="Helvetica,sans-Serif" font-size="10.00">cf</text>
</g>
<!-- Node7&#45;&gt;Node11 -->
<g id="edge39" class="edge">
<title>Node7&#45;&gt;Node11</title>
<path fill="none" stroke="#9a32cd" stroke-dasharray="5,2" d="M238.84,-351.18C250.97,-334.76 269.2,-309.59 284,-287 292.52,-273.99 288.9,-265.38 302,-257 351.81,-225.15 771.97,-203.17 831,-200 1057.21,-187.85 1345.56,-208.37 1543,-232 1575.45,-235.88 1611.69,-245.2 1636.66,-252.43"/>
<polygon fill="#9a32cd" stroke="#9a32cd" points="235.93,-349.21 232.78,-359.33 241.55,-353.39 235.93,-349.21"/>
<text text-anchor="middle" x="995.5" y="-199" font-family="Helvetica,sans-Serif" font-size="10.00"> val_cst_hard</text>
</g>
<!-- Node8&#45;&gt;Node5 -->
<g id="edge11" class="edge">
<title>Node8&#45;&gt;Node5</title>
<path fill="none" stroke="#9a32cd" stroke-dasharray="5,2" d="M700.23,-384.13C681.44,-358.97 648.93,-315.92 645,-314 605.07,-294.48 552.17,-303.64 519.91,-312.49"/>
<polygon fill="#9a32cd" stroke="#9a32cd" points="697.45,-386.26 706.23,-392.19 703.06,-382.08 697.45,-386.26"/>
<text text-anchor="middle" x="605" y="-350" font-family="Helvetica,sans-Serif" font-size="10.00"> absol</text>
<text text-anchor="middle" x="605" y="-339" font-family="Helvetica,sans-Serif" font-size="10.00">cart</text>
<text text-anchor="middle" x="605" y="-328" font-family="Helvetica,sans-Serif" font-size="10.00">cart_surr</text>
<text text-anchor="middle" x="605" y="-317" font-family="Helvetica,sans-Serif" font-size="10.00">radius</text>
</g>
<!-- Node8&#45;&gt;Node8 -->
<g id="edge14" class="edge">
<title>Node8&#45;&gt;Node8</title>
<path fill="none" stroke="#9a32cd" stroke-dasharray="5,2" d="M699.03,-421.77C700.25,-426.5 705.4,-430 714.5,-430 729.43,-430 733.75,-420.57 727.45,-411.76"/>
<polygon fill="#9a32cd" stroke="#9a32cd" points="702.5,-422.31 701.55,-411.76 695.72,-420.6 702.5,-422.31"/>
<text text-anchor="middle" x="714.5" y="-444" font-family="Helvetica,sans-Serif" font-size="10.00"> p_der_abs</text>
<text text-anchor="middle" x="714.5" y="-433" font-family="Helvetica,sans-Serif" font-size="10.00">p_der_var</text>
</g>
<!-- Node19 -->
<g id="node19" class="node">
<title>Node19</title>
<g id="a_node19"><a xlink:href="classKadath_1_1Scalar.html" target="_top" xlink:title=" ">
<polygon fill="none" stroke="black" points="1232,-429.5 1232,-448.5 1312,-448.5 1312,-429.5 1232,-429.5"/>
<text text-anchor="middle" x="1272" y="-436.5" font-family="Helvetica,sans-Serif" font-size="10.00">Kadath::Scalar</text>
</a>
</g>
</g>
<!-- Node8&#45;&gt;Node19 -->
<g id="edge47" class="edge">
<title>Node8&#45;&gt;Node19</title>
<path fill="none" stroke="#9a32cd" stroke-dasharray="5,2" d="M776.29,-406.05C891.04,-413.69 1136.56,-430.05 1231.96,-436.4"/>
<polygon fill="#9a32cd" stroke="#9a32cd" points="776.48,-402.55 766.27,-405.38 776.01,-409.54 776.48,-402.55"/>
<text text-anchor="middle" x="995.5" y="-426" font-family="Helvetica,sans-Serif" font-size="10.00"> val_zones</text>
</g>
<!-- Node9&#45;&gt;Node8 -->
<g id="edge15" class="edge">
<title>Node9&#45;&gt;Node8</title>
<path fill="none" stroke="#9a32cd" stroke-dasharray="5,2" d="M540.63,-484.23C571.86,-488.87 612.31,-490.29 645,-476 675.48,-462.68 698.45,-428.37 708.27,-411.56"/>
<polygon fill="#9a32cd" stroke="#9a32cd" points="540.85,-480.72 530.41,-482.55 539.71,-487.63 540.85,-480.72"/>
<text text-anchor="middle" x="605" y="-490" font-family="Helvetica,sans-Serif" font-size="10.00"> base</text>
</g>
<!-- Node10&#45;&gt;Node9 -->
<g id="edge17" class="edge">
<title>Node10&#45;&gt;Node9</title>
<path fill="none" stroke="#9a32cd" stroke-dasharray="5,2" d="M268.29,-617.71C279.24,-614.71 291.03,-611.62 302,-609 351.85,-597.1 372.58,-614.77 415,-586 454.01,-559.55 477.38,-504.97 485.62,-482.74"/>
<polygon fill="#9a32cd" stroke="#9a32cd" points="267.21,-614.38 258.51,-620.42 269.08,-621.12 267.21,-614.38"/>
<text text-anchor="middle" x="358.5" y="-612" font-family="Helvetica,sans-Serif" font-size="10.00"> bases_1d</text>
</g>
<!-- Node10&#45;&gt;Node11 -->
<g id="edge36" class="edge">
<title>Node10&#45;&gt;Node11</title>
<path fill="none" stroke="#9a32cd" stroke-dasharray="5,2" d="M241.42,-613.01C277.61,-573.52 366.62,-471.14 415,-370 428.3,-342.18 411.08,-324.69 433,-303 517.16,-219.71 1375.07,-249.62 1608.91,-259.4"/>
<polygon fill="#9a32cd" stroke="#9a32cd" points="238.75,-610.75 234.54,-620.47 243.9,-615.5 238.75,-610.75"/>
<text text-anchor="middle" x="995.5" y="-260" font-family="Helvetica,sans-Serif" font-size="10.00"> assoc_var</text>
<text text-anchor="middle" x="995.5" y="-249" font-family="Helvetica,sans-Serif" font-size="10.00">assoc_var_double</text>
</g>
<!-- Node10&#45;&gt;Node12 -->
<g id="edge23" class="edge">
<title>Node10&#45;&gt;Node12</title>
<path fill="none" stroke="#9a32cd" stroke-dasharray="5,2" d="M265.08,-643.35C271.59,-646.17 278.13,-649.39 284,-653 293.12,-658.6 293.1,-663.05 302,-669 378.82,-720.41 396.57,-760 489,-760 489,-760 489,-760 799.5,-760 969.14,-760 1010.36,-790 1180,-790 1180,-790 1180,-790 1838.5,-790 1972.81,-790 1990.84,-550.19 1993.17,-498.67"/>
<polygon fill="#9a32cd" stroke="#9a32cd" points="266.21,-640.04 255.63,-639.53 263.58,-646.52 266.21,-640.04"/>
<text text-anchor="middle" x="1181" y="-804" font-family="Helvetica,sans-Serif" font-size="10.00"> n_cond</text>
<text text-anchor="middle" x="1181" y="-793" font-family="Helvetica,sans-Serif" font-size="10.00">p_cmp_used</text>
</g>
<!-- Node10&#45;&gt;Node18 -->
<g id="edge48" class="edge">
<title>Node10&#45;&gt;Node18</title>
<path fill="none" stroke="#9a32cd" stroke-dasharray="5,2" d="M285.34,-631.43C338.75,-632.57 419.09,-634 489,-634 489,-634 489,-634 799.5,-634 827.55,-634 1011.59,-558.46 1035,-543 1055.67,-529.34 1075.04,-507.46 1085.32,-494.84"/>
<polygon fill="#9a32cd" stroke="#9a32cd" points="285.11,-627.92 275.03,-631.2 284.95,-634.92 285.11,-627.92"/>
<text text-anchor="middle" x="714.5" y="-648" font-family="Helvetica,sans-Serif" font-size="10.00"> give_indices</text>
<text text-anchor="middle" x="714.5" y="-637" font-family="Helvetica,sans-Serif" font-size="10.00">type_indice</text>
</g>
<!-- Node10&#45;&gt;Node20 -->
<g id="edge52" class="edge">
<title>Node10&#45;&gt;Node20</title>
<path fill="none" stroke="#9a32cd" stroke-dasharray="5,2" d="M270.98,-641.91C281.14,-644.23 291.89,-646.43 302,-648 495.36,-678.05 728.16,-688.37 830.67,-691.63"/>
<polygon fill="#9a32cd" stroke="#9a32cd" points="271.62,-638.47 261.08,-639.57 270.01,-645.28 271.62,-638.47"/>
<text text-anchor="middle" x="605" y="-685" font-family="Helvetica,sans-Serif" font-size="10.00"> basis</text>
</g>
<!-- Node11&#45;&gt;Node2 -->
<g id="edge20" class="edge">
<title>Node11&#45;&gt;Node2</title>
<path fill="none" stroke="#9a32cd" stroke-dasharray="5,2" d="M1653.73,-279.75C1631.36,-309.35 1587.02,-371.36 1561,-430 1529.4,-501.21 1511.39,-594.38 1506.13,-624.3"/>
<polygon fill="#9a32cd" stroke="#9a32cd" points="1656.63,-281.71 1659.92,-271.64 1651.07,-277.46 1656.63,-281.71"/>
<text text-anchor="middle" x="1576" y="-433" font-family="Helvetica,sans-Serif" font-size="10.00"> syst</text>
</g>
<!-- Node11&#45;&gt;Node13 -->
<g id="edge27" class="edge">
<title>Node11&#45;&gt;Node13</title>
<path fill="none" stroke="#9a32cd" stroke-dasharray="5,2" d="M1715.63,-249.85C1742.36,-242.8 1775.51,-234.07 1800.33,-227.53"/>
<polygon fill="#9a32cd" stroke="#9a32cd" points="1714.51,-246.52 1705.74,-252.45 1716.3,-253.29 1714.51,-246.52"/>
<text text-anchor="middle" x="1757" y="-244" font-family="Helvetica,sans-Serif" font-size="10.00"> syst</text>
</g>
<!-- Node12&#45;&gt;Node11 -->
<g id="edge21" class="edge">
<title>Node12&#45;&gt;Node11</title>
<path fill="none" stroke="#9a32cd" stroke-dasharray="5,2" d="M1971.29,-473.44C1909.04,-429.82 1734.1,-307.26 1683.42,-271.75"/>
<polygon fill="#9a32cd" stroke="#9a32cd" points="1969.43,-476.41 1979.63,-479.28 1973.45,-470.68 1969.43,-476.41"/>
<text text-anchor="middle" x="1837.5" y="-415" font-family="Helvetica,sans-Serif" font-size="10.00"> eq</text>
</g>
<!-- Node13&#45;&gt;Node12 -->
<g id="edge24" class="edge">
<title>Node13&#45;&gt;Node12</title>
<path fill="none" stroke="#9a32cd" stroke-dasharray="5,2" d="M1856.94,-234.57C1867.23,-244.46 1879.8,-257.66 1889,-271 1940.02,-344.92 1978.76,-447.59 1990.1,-479.29"/>
<polygon fill="#9a32cd" stroke="#9a32cd" points="1859.3,-231.99 1849.61,-227.71 1854.51,-237.1 1859.3,-231.99"/>
<text text-anchor="middle" x="1919.5" y="-342" font-family="Helvetica,sans-Serif" font-size="10.00"> parts</text>
</g>
<!-- Node13&#45;&gt;Node13 -->
<g id="edge26" class="edge">
<title>Node13&#45;&gt;Node13</title>
<path fill="none" stroke="#9a32cd" stroke-dasharray="5,2" d="M1822.77,-237.77C1823.92,-242.5 1828.84,-246 1837.5,-246 1851.72,-246 1855.83,-236.57 1849.83,-227.76"/>
<polygon fill="#9a32cd" stroke="#9a32cd" points="1826.24,-238.3 1825.17,-227.76 1819.43,-236.66 1826.24,-238.3"/>
<text text-anchor="middle" x="1837.5" y="-249" font-family="Helvetica,sans-Serif" font-size="10.00"> parts</text>
</g>
<!-- Node13&#45;&gt;Node14 -->
<g id="edge31" class="edge">
<title>Node13&#45;&gt;Node14</title>
<path fill="none" stroke="#9a32cd" stroke-dasharray="5,2" d="M1854.23,-200.55C1886.59,-164.64 1959.68,-83.53 1984.82,-55.63"/>
<polygon fill="#9a32cd" stroke="#9a32cd" points="1851.37,-198.49 1847.28,-208.26 1856.57,-203.17 1851.37,-198.49"/>
<text text-anchor="middle" x="1919.5" y="-141" font-family="Helvetica,sans-Serif" font-size="10.00"> parts</text>
</g>
<!-- Node22 -->
<g id="node22" class="node">
<title>Node22</title>
<g id="a_node22"><a xlink:href="classKadath_1_1Ope__def.html" target="_top" xlink:title=" ">
<polygon fill="none" stroke="black" points="1950,-283.5 1950,-302.5 2039,-302.5 2039,-283.5 1950,-283.5"/>
<text text-anchor="middle" x="1994.5" y="-290.5" font-family="Helvetica,sans-Serif" font-size="10.00">Kadath::Ope_def</text>
</a>
</g>
</g>
<!-- Node13&#45;&gt;Node22 -->
<g id="edge58" class="edge">
<title>Node13&#45;&gt;Node22</title>
<path fill="none" stroke="midnightblue" d="M1890.83,-226.4C1904.68,-229.81 1919.3,-234.52 1932,-241 1953.42,-251.92 1973.82,-271.64 1984.9,-283.41"/>
<polygon fill="midnightblue" stroke="midnightblue" points="1891.45,-222.95 1880.93,-224.15 1889.9,-229.78 1891.45,-222.95"/>
</g>
<!-- Node14&#45;&gt;Node11 -->
<g id="edge29" class="edge">
<title>Node14&#45;&gt;Node11</title>
<path fill="none" stroke="#9a32cd" stroke-dasharray="5,2" d="M1970.53,-61.31C1907.8,-103.14 1734.85,-218.43 1683.84,-252.44"/>
<polygon fill="#9a32cd" stroke="#9a32cd" points="1972.58,-64.15 1978.96,-55.69 1968.7,-58.33 1972.58,-64.15"/>
<text text-anchor="middle" x="1837.5" y="-186" font-family="Helvetica,sans-Serif" font-size="10.00"> eq_int</text>
</g>
<!-- Node15&#45;&gt;Node11 -->
<g id="edge33" class="edge">
<title>Node15&#45;&gt;Node11</title>
<path fill="none" stroke="#9a32cd" stroke-dasharray="5,2" d="M537.66,-148C582.68,-148 652.76,-148 713.5,-148 713.5,-148 713.5,-148 1504.5,-148 1544.4,-148 1557.38,-150.52 1591,-172 1624.53,-193.42 1651.17,-234.06 1662.11,-252.49"/>
<polygon fill="#9a32cd" stroke="#9a32cd" points="537.62,-144.5 527.62,-148 537.62,-151.5 537.62,-144.5"/>
<text text-anchor="middle" x="1094" y="-151" font-family="Helvetica,sans-Serif" font-size="10.00"> which_coef</text>
</g>
<!-- Node16&#45;&gt;Node11 -->
<g id="edge37" class="edge">
<title>Node16&#45;&gt;Node11</title>
<path fill="none" stroke="#9a32cd" stroke-dasharray="5,2" d="M655.69,-90.6C694.35,-90.32 749.33,-90 797.5,-90 797.5,-90 797.5,-90 1504.5,-90 1594.6,-90 1649.83,-215.87 1663.92,-252.26"/>
<polygon fill="#9a32cd" stroke="#9a32cd" points="655.22,-87.1 645.24,-90.68 655.27,-94.1 655.22,-87.1"/>
<text text-anchor="middle" x="1094" y="-104" font-family="Helvetica,sans-Serif" font-size="10.00"> paruser</text>
<text text-anchor="middle" x="1094" y="-93" font-family="Helvetica,sans-Serif" font-size="10.00">paruser_bin</text>
</g>
<!-- Node17&#45;&gt;Node2 -->
<g id="edge60" class="edge">
<title>Node17&#45;&gt;Node2</title>
<path fill="none" stroke="#9a32cd" stroke-dasharray="5,2" d="M1305.78,-363.37C1310.13,-366.65 1314.08,-370.51 1317,-375 1349.78,-425.36 1294.04,-465.03 1335,-509 1369.34,-545.86 1405.43,-502.13 1446,-532 1462.55,-544.18 1488.38,-601.18 1498.37,-624.26"/>
<polygon fill="#9a32cd" stroke="#9a32cd" points="1307.41,-360.25 1297.12,-357.75 1303.6,-366.12 1307.41,-360.25"/>
<text text-anchor="middle" x="1390.5" y="-612" font-family="Helvetica,sans-Serif" font-size="10.00"> p_christo</text>
<text text-anchor="middle" x="1390.5" y="-601" font-family="Helvetica,sans-Serif" font-size="10.00">p_det_cov</text>
<text text-anchor="middle" x="1390.5" y="-590" font-family="Helvetica,sans-Serif" font-size="10.00">p_dirac</text>
<text text-anchor="middle" x="1390.5" y="-579" font-family="Helvetica,sans-Serif" font-size="10.00">p_met_con</text>
<text text-anchor="middle" x="1390.5" y="-568" font-family="Helvetica,sans-Serif" font-size="10.00">p_met_cov</text>
<text text-anchor="middle" x="1390.5" y="-557" font-family="Helvetica,sans-Serif" font-size="10.00">p_ricci_scalar</text>
<text text-anchor="middle" x="1390.5" y="-546" font-family="Helvetica,sans-Serif" font-size="10.00">p_ricci_tensor</text>
<text text-anchor="middle" x="1390.5" y="-535" font-family="Helvetica,sans-Serif" font-size="10.00">p_riemann</text>
</g>
<!-- Node17&#45;&gt;Node11 -->
<g id="edge40" class="edge">
<title>Node17&#45;&gt;Node11</title>
<path fill="none" stroke="#9a32cd" stroke-dasharray="5,2" d="M1327.6,-350.09C1392.43,-350.8 1502.87,-346.35 1591,-314 1617.23,-304.37 1643.15,-283.81 1657.06,-271.62"/>
<polygon fill="#9a32cd" stroke="#9a32cd" points="1327.26,-346.58 1317.21,-349.93 1327.15,-353.58 1327.26,-346.58"/>
<text text-anchor="middle" x="1503.5" y="-411" font-family="Helvetica,sans-Serif" font-size="10.00"> cst</text>
<text text-anchor="middle" x="1503.5" y="-400" font-family="Helvetica,sans-Serif" font-size="10.00">cst_hard</text>
<text text-anchor="middle" x="1503.5" y="-389" font-family="Helvetica,sans-Serif" font-size="10.00">opeuser</text>
<text text-anchor="middle" x="1503.5" y="-378" font-family="Helvetica,sans-Serif" font-size="10.00">opeuser_bin</text>
<text text-anchor="middle" x="1503.5" y="-367" font-family="Helvetica,sans-Serif" font-size="10.00">results</text>
<text text-anchor="middle" x="1503.5" y="-356" font-family="Helvetica,sans-Serif" font-size="10.00">term</text>
<text text-anchor="middle" x="1503.5" y="-345" font-family="Helvetica,sans-Serif" font-size="10.00">term_double</text>
</g>
<!-- Node17&#45;&gt;Node22 -->
<g id="edge59" class="edge">
<title>Node17&#45;&gt;Node22</title>
<path fill="none" stroke="#9a32cd" stroke-dasharray="5,2" d="M1299.66,-362.19C1335.73,-380.5 1402.63,-411.38 1464,-423 1498.5,-429.53 1509.59,-433.8 1543,-423 1552.39,-419.96 1552.09,-414.25 1561,-410 1695.11,-346.07 1869.86,-312.41 1949.95,-299.43"/>
<polygon fill="#9a32cd" stroke="#9a32cd" points="1301.25,-359.07 1290.76,-357.6 1298.05,-365.29 1301.25,-359.07"/>
<text text-anchor="middle" x="1668.5" y="-391" font-family="Helvetica,sans-Serif" font-size="10.00"> res</text>
</g>
<!-- Node18&#45;&gt;Node11 -->
<g id="edge56" class="edge">
<title>Node18&#45;&gt;Node11</title>
<path fill="none" stroke="#9a32cd" stroke-dasharray="5,2" d="M1101.42,-465.68C1110.1,-441.87 1127.47,-401.24 1153,-374 1179.32,-345.91 1190.78,-342.04 1227,-329 1380.82,-273.64 1429.68,-302.5 1591,-276 1599.39,-274.62 1608.29,-273.07 1616.93,-271.52"/>
<polygon fill="#9a32cd" stroke="#9a32cd" points="1098.04,-464.73 1098.05,-475.33 1104.65,-467.04 1098.04,-464.73"/>
<text text-anchor="middle" x="1390.5" y="-302" font-family="Helvetica,sans-Serif" font-size="10.00"> var</text>
</g>
<!-- Node18&#45;&gt;Node17 -->
<g id="edge42" class="edge">
<title>Node18&#45;&gt;Node17</title>
<path fill="none" stroke="#9a32cd" stroke-dasharray="5,2" d="M1107.55,-466.78C1118.4,-451.91 1135.12,-430.98 1153,-416 1183.45,-390.49 1224.75,-369.18 1249.55,-357.54"/>
<polygon fill="#9a32cd" stroke="#9a32cd" points="1104.54,-464.97 1101.59,-475.15 1110.24,-469.03 1104.54,-464.97"/>
<text text-anchor="middle" x="1181" y="-430" font-family="Helvetica,sans-Serif" font-size="10.00"> der_t</text>
<text text-anchor="middle" x="1181" y="-419" font-family="Helvetica,sans-Serif" font-size="10.00">val_t</text>
</g>
<!-- Node18&#45;&gt;Node19 -->
<g id="edge46" class="edge">
<title>Node18&#45;&gt;Node19</title>
<path fill="none" stroke="midnightblue" d="M1117.83,-469.72C1128.15,-463.54 1140.76,-456.94 1153,-453 1178.53,-444.79 1208.56,-441.31 1231.94,-439.87"/>
<polygon fill="midnightblue" stroke="midnightblue" points="1115.69,-466.93 1109.07,-475.2 1119.4,-472.87 1115.69,-466.93"/>
</g>
<!-- Node23 -->
<g id="node23" class="node">
<title>Node23</title>
<g id="a_node23"><a xlink:href="classKadath_1_1Metric__tensor.html" target="_top" xlink:title=" ">
<polygon fill="none" stroke="black" points="1335,-488.5 1335,-507.5 1446,-507.5 1446,-488.5 1335,-488.5"/>
<text text-anchor="middle" x="1390.5" y="-495.5" font-family="Helvetica,sans-Serif" font-size="10.00">Kadath::Metric_tensor</text>
</a>
</g>
</g>
<!-- Node18&#45;&gt;Node23 -->
<g id="edge62" class="edge">
<title>Node18&#45;&gt;Node23</title>
<path fill="none" stroke="midnightblue" d="M1145.14,-487.21C1197.83,-489.54 1280.43,-493.19 1334.78,-495.58"/>
<polygon fill="midnightblue" stroke="midnightblue" points="1145.17,-483.71 1135.02,-486.77 1144.86,-490.7 1145.17,-483.71"/>
</g>
<!-- Node19&#45;&gt;Node18 -->
<g id="edge45" class="edge">
<title>Node19&#45;&gt;Node18</title>
<path fill="none" stroke="#9a32cd" stroke-dasharray="5,2" d="M1224.64,-451.12C1195.52,-458.73 1158.49,-468.41 1131.47,-475.47"/>
<polygon fill="#9a32cd" stroke="#9a32cd" points="1225.79,-454.43 1234.58,-448.52 1224.02,-447.66 1225.79,-454.43"/>
<text text-anchor="middle" x="1181" y="-471" font-family="Helvetica,sans-Serif" font-size="10.00"> cmp</text>
</g>
<!-- Node20&#45;&gt;Node1 -->
<g id="edge63" class="edge">
<title>Node20&#45;&gt;Node1</title>
<path fill="none" stroke="#9a32cd" stroke-dasharray="5,2" d="M948.15,-697.03C1007.75,-700.52 1099.94,-705 1180,-705 1180,-705 1180,-705 1504.5,-705 1563.54,-705 1553.24,-642.4 1609,-623 1667.01,-602.82 1738.48,-606.78 1785.66,-613.01"/>
<polygon fill="#9a32cd" stroke="#9a32cd" points="948.33,-693.54 938.14,-696.44 947.92,-700.53 948.33,-693.54"/>
<text text-anchor="middle" x="1390.5" y="-708" font-family="Helvetica,sans-Serif" font-size="10.00"> basis</text>
</g>
<!-- Node20&#45;&gt;Node18 -->
<g id="edge49" class="edge">
<title>Node20&#45;&gt;Node18</title>
<path fill="none" stroke="#9a32cd" stroke-dasharray="5,2" d="M910.58,-678.2C942.27,-658.63 997.24,-621.71 1035,-580 1059.9,-552.5 1080.08,-512.81 1088.61,-494.69"/>
<polygon fill="#9a32cd" stroke="#9a32cd" points="908.63,-675.29 901.91,-683.48 912.27,-681.27 908.63,-675.29"/>
<text text-anchor="middle" x="995.5" y="-649" font-family="Helvetica,sans-Serif" font-size="10.00"> basis</text>
</g>
<!-- Node20&#45;&gt;Node24 -->
<g id="edge66" class="edge">
<title>Node20&#45;&gt;Node24</title>
<path fill="none" stroke="#9a32cd" stroke-dasharray="5,2" d="M914.91,-706.7C954.48,-723.85 1027.48,-751 1093,-751 1093,-751 1093,-751 1504.5,-751 1545.49,-751 1556.52,-741.17 1591,-719 1620.64,-699.94 1647.8,-667.64 1660.28,-651.61"/>
<polygon fill="#9a32cd" stroke="#9a32cd" points="916.15,-703.42 905.59,-702.58 913.32,-709.82 916.15,-703.42"/>
<text text-anchor="middle" x="1272" y="-754" font-family="Helvetica,sans-Serif" font-size="10.00"> basis</text>
</g>
<!-- Node21&#45;&gt;Node18 -->
<g id="edge53" class="edge">
<title>Node21&#45;&gt;Node18</title>
<path fill="none" stroke="#9a32cd" stroke-dasharray="5,2" d="M425.29,-584.45C514,-595.45 676.57,-609.42 813,-587 915.87,-570.09 1030.27,-516.61 1074.32,-494.6"/>
<polygon fill="#9a32cd" stroke="#9a32cd" points="425.47,-580.95 415.11,-583.16 424.59,-587.89 425.47,-580.95"/>
<text text-anchor="middle" x="714.5" y="-601" font-family="Helvetica,sans-Serif" font-size="10.00"> parameters</text>
</g>
<!-- Node22&#45;&gt;Node11 -->
<g id="edge57" class="edge">
<title>Node22&#45;&gt;Node11</title>
<path fill="none" stroke="#9a32cd" stroke-dasharray="5,2" d="M1939.66,-287.85C1881.28,-282.26 1788.38,-273.37 1728.17,-267.61"/>
<polygon fill="#9a32cd" stroke="#9a32cd" points="1939.5,-291.35 1949.79,-288.82 1940.17,-284.38 1939.5,-291.35"/>
<text text-anchor="middle" x="1837.5" y="-285" font-family="Helvetica,sans-Serif" font-size="10.00"> def</text>
</g>
<!-- Node23&#45;&gt;Node1 -->
<g id="edge61" class="edge">
<title>Node23&#45;&gt;Node1</title>
<path fill="none" stroke="#9a32cd" stroke-dasharray="5,2" d="M1454.38,-509.41C1530.04,-524.04 1660.33,-552.11 1768,-590 1785.71,-596.23 1805,-605.49 1818.59,-612.44"/>
<polygon fill="#9a32cd" stroke="#9a32cd" points="1455,-505.97 1444.52,-507.52 1453.69,-512.84 1455,-505.97"/>
<text text-anchor="middle" x="1576" y="-541" font-family="Helvetica,sans-Serif" font-size="10.00"> p_met</text>
</g>
<!-- Node24&#45;&gt;Node1 -->
<g id="edge64" class="edge">
<title>Node24&#45;&gt;Node1</title>
<path fill="none" stroke="#9a32cd" stroke-dasharray="5,2" d="M1727.38,-635.07C1746.36,-632.79 1767.3,-630.29 1785.72,-628.08"/>
<polygon fill="#9a32cd" stroke="#9a32cd" points="1726.87,-631.6 1717.36,-636.27 1727.7,-638.55 1726.87,-631.6"/>
<text text-anchor="middle" x="1757" y="-635" font-family="Helvetica,sans-Serif" font-size="10.00"> fmet</text>
</g>
</g>
</svg>
