<?xml version="1.0" encoding="UTF-8" standalone="no"?>
<!DOCTYPE svg PUBLIC "-//W3C//DTD SVG 1.1//EN"
 "http://www.w3.org/Graphics/SVG/1.1/DTD/svg11.dtd">
<!-- Generated by graphviz version 2.47.1 (20210515.0534)
 -->
<!-- Title: Kadath::Metric Pages: 1 -->
<svg width="1993pt" height="809pt"
 viewBox="0.00 0.00 1993.00 809.00" xmlns="http://www.w3.org/2000/svg" xmlns:xlink="http://www.w3.org/1999/xlink">
<g id="graph0" class="graph" transform="scale(1 1) rotate(0) translate(4 805)">
<title>Kadath::Metric</title>
<!-- Node1 -->
<g id="node1" class="node">
<title>Node1</title>
<g id="a_node1"><a xlink:title=" ">
<polygon fill="#bfbfbf" stroke="black" points="1437,-389.5 1437,-408.5 1516,-408.5 1516,-389.5 1437,-389.5"/>
<text text-anchor="middle" x="1476.5" y="-396.5" font-family="Helvetica,sans-Serif" font-size="10.00">Kadath::Metric</text>
</a>
</g>
</g>
<!-- Node10 -->
<g id="node10" class="node">
<title>Node10</title>
<g id="a_node10"><a xlink:href="classKadath_1_1System__of__eqs.html" target="_top" xlink:title=" ">
<polygon fill="none" stroke="black" points="1573,-340.5 1573,-359.5 1692,-359.5 1692,-340.5 1573,-340.5"/>
<text text-anchor="middle" x="1632.5" y="-347.5" font-family="Helvetica,sans-Serif" font-size="10.00">Kadath::System_of_eqs</text>
</a>
</g>
</g>
<!-- Node1&#45;&gt;Node10 -->
<g id="edge54" class="edge">
<title>Node1&#45;&gt;Node10</title>
<path fill="none" stroke="#9a32cd" stroke-dasharray="5,2" d="M1499.3,-383.74C1509.43,-377.33 1521.89,-370.36 1534,-366 1546.27,-361.58 1559.84,-358.38 1572.87,-356.06"/>
<polygon fill="#9a32cd" stroke="#9a32cd" points="1497.16,-380.95 1490.74,-389.38 1501.01,-386.8 1497.16,-380.95"/>
<text text-anchor="middle" x="1544.5" y="-369" font-family="Helvetica,sans-Serif" font-size="10.00"> met</text>
</g>
<!-- Node2 -->
<g id="node2" class="node">
<title>Node2</title>
<g id="a_node2"><a xlink:href="structKadath_1_1MemoryMappable.html" target="_top" xlink:title=" ">
<polygon fill="none" stroke="black" points="0,-369.5 0,-388.5 128,-388.5 128,-369.5 0,-369.5"/>
<text text-anchor="middle" x="64" y="-376.5" font-family="Helvetica,sans-Serif" font-size="10.00">Kadath::MemoryMappable</text>
</a>
</g>
</g>
<!-- Node2&#45;&gt;Node1 -->
<g id="edge1" class="edge">
<title>Node2&#45;&gt;Node1</title>
<path fill="none" stroke="midnightblue" d="M65.86,-398.76C69.97,-466.76 93.32,-687 223.5,-687 223.5,-687 223.5,-687 1118,-687 1169.05,-687 1196.05,-709.24 1232,-673 1256.73,-648.07 1233.81,-547.16 1250,-516 1274.67,-468.51 1303.36,-475.01 1340,-436 1348.89,-426.54 1346.69,-419.37 1358,-413 1381.9,-399.55 1412.83,-396.32 1436.95,-396.31"/>
<polygon fill="midnightblue" stroke="midnightblue" points="69.34,-398.36 65.32,-388.56 62.35,-398.73 69.34,-398.36"/>
</g>
<!-- Node3 -->
<g id="node3" class="node">
<title>Node3</title>
<g id="a_node3"><a xlink:href="classKadath_1_1Space.html" target="_top" xlink:title=" ">
<polygon fill="none" stroke="black" points="674.5,-349.5 674.5,-368.5 754.5,-368.5 754.5,-349.5 674.5,-349.5"/>
<text text-anchor="middle" x="714.5" y="-356.5" font-family="Helvetica,sans-Serif" font-size="10.00">Kadath::Space</text>
</a>
</g>
</g>
<!-- Node2&#45;&gt;Node3 -->
<g id="edge3" class="edge">
<title>Node2&#45;&gt;Node3</title>
<path fill="none" stroke="midnightblue" d="M138.36,-383.21C248.71,-388.44 463.78,-394.4 645,-374 655.4,-372.83 666.55,-370.75 676.76,-368.51"/>
<polygon fill="midnightblue" stroke="midnightblue" points="138.5,-379.71 128.34,-382.72 138.16,-386.7 138.5,-379.71"/>
</g>
<!-- Node4 -->
<g id="node4" class="node">
<title>Node4</title>
<g id="a_node4"><a xlink:href="classKadath_1_1Domain.html" target="_top" xlink:title=" ">
<polygon fill="none" stroke="black" points="414.5,-280.5 414.5,-299.5 499.5,-299.5 499.5,-280.5 414.5,-280.5"/>
<text text-anchor="middle" x="457" y="-287.5" font-family="Helvetica,sans-Serif" font-size="10.00">Kadath::Domain</text>
</a>
</g>
</g>
<!-- Node2&#45;&gt;Node4 -->
<g id="edge5" class="edge">
<title>Node2&#45;&gt;Node4</title>
<path fill="none" stroke="midnightblue" d="M116.99,-367.17C195.47,-349.3 342.64,-315.8 414.46,-299.46"/>
<polygon fill="midnightblue" stroke="midnightblue" points="115.82,-363.84 106.84,-369.48 117.37,-370.67 115.82,-363.84"/>
</g>
<!-- Node5 -->
<g id="node5" class="node">
<title>Node5</title>
<g id="a_node5"><a xlink:href="classKadath_1_1Dim__array.html" target="_top" xlink:title=" ">
<polygon fill="none" stroke="black" points="177,-217.5 177,-236.5 272,-236.5 272,-217.5 177,-217.5"/>
<text text-anchor="middle" x="224.5" y="-224.5" font-family="Helvetica,sans-Serif" font-size="10.00">Kadath::Dim_array</text>
</a>
</g>
</g>
<!-- Node2&#45;&gt;Node5 -->
<g id="edge7" class="edge">
<title>Node2&#45;&gt;Node5</title>
<path fill="none" stroke="midnightblue" d="M74.17,-360.4C89.23,-331.71 121.89,-276.78 165,-246 170.39,-242.15 176.6,-239.05 182.91,-236.57"/>
<polygon fill="midnightblue" stroke="midnightblue" points="71.02,-358.87 69.59,-369.37 77.25,-362.05 71.02,-358.87"/>
</g>
<!-- Node6 -->
<g id="node6" class="node">
<title>Node6</title>
<g id="a_node6"><a xlink:href="classKadath_1_1Array.html" target="_top" xlink:title=" ">
<polygon fill="none" stroke="black" points="165,-255.5 165,-274.5 284,-274.5 284,-255.5 165,-255.5"/>
<text text-anchor="middle" x="224.5" y="-262.5" font-family="Helvetica,sans-Serif" font-size="10.00">Kadath::Array&lt; double &gt;</text>
</a>
</g>
</g>
<!-- Node2&#45;&gt;Node6 -->
<g id="edge9" class="edge">
<title>Node2&#45;&gt;Node6</title>
<path fill="none" stroke="midnightblue" d="M76.75,-360.92C90.86,-340.6 116.36,-307.96 146,-289 155.73,-282.78 167.18,-278.08 178.24,-274.56"/>
<polygon fill="midnightblue" stroke="midnightblue" points="73.79,-359.06 71.09,-369.3 79.59,-362.97 73.79,-359.06"/>
</g>
<!-- Node7 -->
<g id="node7" class="node">
<title>Node7</title>
<g id="a_node7"><a xlink:href="classKadath_1_1Val__domain.html" target="_top" xlink:title=" ">
<polygon fill="none" stroke="black" points="663,-227.5 663,-246.5 766,-246.5 766,-227.5 663,-227.5"/>
<text text-anchor="middle" x="714.5" y="-234.5" font-family="Helvetica,sans-Serif" font-size="10.00">Kadath::Val_domain</text>
</a>
</g>
</g>
<!-- Node2&#45;&gt;Node7 -->
<g id="edge11" class="edge">
<title>Node2&#45;&gt;Node7</title>
<path fill="none" stroke="midnightblue" d="M72.41,-359.7C86.26,-325.63 118.9,-254.07 165,-208 214.87,-158.16 233.94,-146.42 302,-128 408.3,-99.24 624.81,-178.92 645,-188 667.4,-198.08 689.9,-216.03 702.72,-227.18"/>
<polygon fill="midnightblue" stroke="midnightblue" points="69.01,-358.78 68.58,-369.37 75.52,-361.36 69.01,-358.78"/>
</g>
<!-- Node8 -->
<g id="node8" class="node">
<title>Node8</title>
<g id="a_node8"><a xlink:href="classKadath_1_1Base__spectral.html" target="_top" xlink:title=" ">
<polygon fill="none" stroke="black" points="400,-322.5 400,-341.5 514,-341.5 514,-322.5 400,-322.5"/>
<text text-anchor="middle" x="457" y="-329.5" font-family="Helvetica,sans-Serif" font-size="10.00">Kadath::Base_spectral</text>
</a>
</g>
</g>
<!-- Node2&#45;&gt;Node8 -->
<g id="edge15" class="edge">
<title>Node2&#45;&gt;Node8</title>
<path fill="none" stroke="midnightblue" d="M83.26,-362.89C98.75,-350.36 122.19,-333.99 146,-327 235.35,-300.79 345.51,-312.29 407.55,-322.5"/>
<polygon fill="midnightblue" stroke="midnightblue" points="80.94,-360.26 75.52,-369.37 85.43,-365.63 80.94,-360.26"/>
</g>
<!-- Node9 -->
<g id="node9" class="node">
<title>Node9</title>
<g id="a_node9"><a xlink:href="classKadath_1_1Array.html" target="_top" xlink:title=" ">
<polygon fill="none" stroke="black" points="174,-458.5 174,-477.5 275,-477.5 275,-458.5 174,-458.5"/>
<text text-anchor="middle" x="224.5" y="-465.5" font-family="Helvetica,sans-Serif" font-size="10.00">Kadath::Array&lt; int &gt;</text>
</a>
</g>
</g>
<!-- Node2&#45;&gt;Node9 -->
<g id="edge17" class="edge">
<title>Node2&#45;&gt;Node9</title>
<path fill="none" stroke="midnightblue" d="M87.37,-394.44C103.38,-405.22 125.62,-419.65 146,-431 164.24,-441.15 185.71,-451.27 201.42,-458.35"/>
<polygon fill="midnightblue" stroke="midnightblue" points="88.96,-391.29 78.72,-388.56 85.03,-397.08 88.96,-391.29"/>
</g>
<!-- Node11 -->
<g id="node11" class="node">
<title>Node11</title>
<g id="a_node11"><a xlink:href="classKadath_1_1Equation.html" target="_top" xlink:title=" ">
<polygon fill="none" stroke="black" points="1896,-608.5 1896,-627.5 1985,-627.5 1985,-608.5 1896,-608.5"/>
<text text-anchor="middle" x="1940.5" y="-615.5" font-family="Helvetica,sans-Serif" font-size="10.00">Kadath::Equation</text>
</a>
</g>
</g>
<!-- Node2&#45;&gt;Node11 -->
<g id="edge21" class="edge">
<title>Node2&#45;&gt;Node11</title>
<path fill="none" stroke="midnightblue" d="M67.87,-398.64C76.12,-452.58 102.12,-607.1 146,-729 161.92,-773.24 176.48,-801 223.5,-801 223.5,-801 223.5,-801 1793,-801 1882.74,-801 1926.57,-665.23 1937.01,-627.58"/>
<polygon fill="midnightblue" stroke="midnightblue" points="71.33,-398.07 66.38,-388.7 64.41,-399.11 71.33,-398.07"/>
</g>
<!-- Node12 -->
<g id="node12" class="node">
<title>Node12</title>
<g id="a_node12"><a xlink:href="classKadath_1_1Ope__eq.html" target="_top" xlink:title=" ">
<polygon fill="none" stroke="black" points="1749,-492.5 1749,-511.5 1835,-511.5 1835,-492.5 1749,-492.5"/>
<text text-anchor="middle" x="1792" y="-499.5" font-family="Helvetica,sans-Serif" font-size="10.00">Kadath::Ope_eq</text>
</a>
</g>
</g>
<!-- Node2&#45;&gt;Node12 -->
<g id="edge24" class="edge">
<title>Node2&#45;&gt;Node12</title>
<path fill="none" stroke="midnightblue" d="M66.23,-399C70.28,-453.12 86.57,-605.73 146,-715 165.36,-750.59 182.98,-763 223.5,-763 223.5,-763 223.5,-763 1019.5,-763 1339.77,-763 1697.25,-558.69 1775.39,-511.6"/>
<polygon fill="midnightblue" stroke="midnightblue" points="69.7,-398.47 65.52,-388.73 62.72,-398.95 69.7,-398.47"/>
</g>
<!-- Node13 -->
<g id="node13" class="node">
<title>Node13</title>
<g id="a_node13"><a xlink:href="classKadath_1_1Eq__int.html" target="_top" xlink:title=" ">
<polygon fill="none" stroke="black" points="1901,-340.5 1901,-359.5 1980,-359.5 1980,-340.5 1901,-340.5"/>
<text text-anchor="middle" x="1940.5" y="-347.5" font-family="Helvetica,sans-Serif" font-size="10.00">Kadath::Eq_int</text>
</a>
</g>
</g>
<!-- Node2&#45;&gt;Node13 -->
<g id="edge29" class="edge">
<title>Node2&#45;&gt;Node13</title>
<path fill="none" stroke="midnightblue" d="M68.04,-359.21C76.32,-307.99 101.67,-167.46 146,-58 162.15,-18.12 180.48,0 223.5,0 223.5,0 223.5,0 1793,0 1944.84,0 1942.02,-283.75 1939.95,-340.27"/>
<polygon fill="midnightblue" stroke="midnightblue" points="64.56,-358.82 66.45,-369.24 71.47,-359.91 64.56,-358.82"/>
</g>
<!-- Node14 -->
<g id="node14" class="node">
<title>Node14</title>
<g id="a_node14"><a xlink:href="classKadath_1_1Index.html" target="_top" xlink:title=" ">
<polygon fill="none" stroke="black" points="419.5,-66.5 419.5,-85.5 494.5,-85.5 494.5,-66.5 419.5,-66.5"/>
<text text-anchor="middle" x="457" y="-73.5" font-family="Helvetica,sans-Serif" font-size="10.00">Kadath::Index</text>
</a>
</g>
</g>
<!-- Node2&#45;&gt;Node14 -->
<g id="edge33" class="edge">
<title>Node2&#45;&gt;Node14</title>
<path fill="none" stroke="midnightblue" d="M67.81,-359.23C76.48,-301.24 104.73,-133.56 146,-100 186.99,-66.67 346.55,-70.28 419.38,-73.82"/>
<polygon fill="midnightblue" stroke="midnightblue" points="64.32,-358.89 66.34,-369.29 71.25,-359.9 64.32,-358.89"/>
</g>
<!-- Node15 -->
<g id="node15" class="node">
<title>Node15</title>
<g id="a_node15"><a xlink:href="classKadath_1_1Param.html" target="_top" xlink:title=" ">
<polygon fill="none" stroke="black" points="302,-28.5 302,-47.5 382,-47.5 382,-28.5 302,-28.5"/>
<text text-anchor="middle" x="342" y="-35.5" font-family="Helvetica,sans-Serif" font-size="10.00">Kadath::Param</text>
</a>
</g>
</g>
<!-- Node2&#45;&gt;Node15 -->
<g id="edge37" class="edge">
<title>Node2&#45;&gt;Node15</title>
<path fill="none" stroke="midnightblue" d="M67.17,-359.18C74.5,-296.14 100.43,-102.09 146,-62 188.64,-24.49 258.3,-25.62 301.8,-30.99"/>
<polygon fill="midnightblue" stroke="midnightblue" points="63.67,-359.03 66.02,-369.36 70.62,-359.81 63.67,-359.03"/>
</g>
<!-- Node16 -->
<g id="node16" class="node">
<title>Node16</title>
<g id="a_node16"><a xlink:href="classKadath_1_1Term__eq.html" target="_top" xlink:title=" ">
<polygon fill="none" stroke="black" points="1250,-525.5 1250,-544.5 1340,-544.5 1340,-525.5 1250,-525.5"/>
<text text-anchor="middle" x="1295" y="-532.5" font-family="Helvetica,sans-Serif" font-size="10.00">Kadath::Term_eq</text>
</a>
</g>
</g>
<!-- Node2&#45;&gt;Node16 -->
<g id="edge40" class="edge">
<title>Node2&#45;&gt;Node16</title>
<path fill="none" stroke="midnightblue" d="M67.43,-398.81C75.56,-461.85 103.64,-656.29 146,-701 170.8,-727.17 187.44,-725 223.5,-725 223.5,-725 223.5,-725 1118,-725 1169.78,-725 1196.28,-738.48 1232,-701 1266.78,-664.5 1229.37,-635 1250,-589 1257.92,-571.34 1273.13,-554.66 1283.42,-544.64"/>
<polygon fill="midnightblue" stroke="midnightblue" points="70.87,-398.12 66.15,-388.63 63.93,-398.99 70.87,-398.12"/>
</g>
<!-- Node17 -->
<g id="node17" class="node">
<title>Node17</title>
<g id="a_node17"><a xlink:href="classKadath_1_1Tensor.html" target="_top" xlink:title=" ">
<polygon fill="none" stroke="black" points="1076,-433.5 1076,-452.5 1158,-452.5 1158,-433.5 1076,-433.5"/>
<text text-anchor="middle" x="1117" y="-440.5" font-family="Helvetica,sans-Serif" font-size="10.00">Kadath::Tensor</text>
</a>
</g>
</g>
<!-- Node2&#45;&gt;Node17 -->
<g id="edge42" class="edge">
<title>Node2&#45;&gt;Node17</title>
<path fill="none" stroke="midnightblue" d="M73.34,-398.1C92.95,-439.74 146.26,-535 223.5,-535 223.5,-535 223.5,-535 908.5,-535 988.89,-535 1072.92,-476.58 1103.74,-452.85"/>
<polygon fill="midnightblue" stroke="midnightblue" points="76.41,-396.41 69.08,-388.76 70.04,-399.31 76.41,-396.41"/>
</g>
<!-- Node19 -->
<g id="node19" class="node">
<title>Node19</title>
<g id="a_node19"><a xlink:href="classKadath_1_1Base__tensor.html" target="_top" xlink:title=" ">
<polygon fill="none" stroke="black" points="854,-417.5 854,-436.5 961,-436.5 961,-417.5 854,-417.5"/>
<text text-anchor="middle" x="907.5" y="-424.5" font-family="Helvetica,sans-Serif" font-size="10.00">Kadath::Base_tensor</text>
</a>
</g>
</g>
<!-- Node2&#45;&gt;Node19 -->
<g id="edge49" class="edge">
<title>Node2&#45;&gt;Node19</title>
<path fill="none" stroke="midnightblue" d="M110.96,-390.87C127.83,-394.64 147.16,-398.27 165,-400 422.4,-424.92 732.08,-427.36 853.76,-427.25"/>
<polygon fill="midnightblue" stroke="midnightblue" points="111.34,-387.37 100.81,-388.52 109.76,-394.19 111.34,-387.37"/>
</g>
<!-- Node20 -->
<g id="node20" class="node">
<title>Node20</title>
<g id="a_node20"><a xlink:href="classKadath_1_1Param__tensor.html" target="_top" xlink:title=" ">
<polygon fill="none" stroke="black" points="532,-563.5 532,-582.5 645,-582.5 645,-563.5 532,-563.5"/>
<text text-anchor="middle" x="588.5" y="-570.5" font-family="Helvetica,sans-Serif" font-size="10.00">Kadath::Param_tensor</text>
</a>
</g>
</g>
<!-- Node2&#45;&gt;Node20 -->
<g id="edge53" class="edge">
<title>Node2&#45;&gt;Node20</title>
<path fill="none" stroke="midnightblue" d="M67.87,-398.94C74.34,-435.81 93.82,-514.04 146,-549 273.07,-634.12 469.79,-601.28 550.76,-582.53"/>
<polygon fill="midnightblue" stroke="midnightblue" points="71.3,-398.24 66.25,-388.92 64.39,-399.35 71.3,-398.24"/>
</g>
<!-- Node3&#45;&gt;Node1 -->
<g id="edge2" class="edge">
<title>Node3&#45;&gt;Node1</title>
<path fill="none" stroke="#9a32cd" stroke-dasharray="5,2" d="M764.62,-358.49C786.48,-358.39 812.53,-358.46 836,-359 1095.32,-365 1162.01,-350.78 1419,-386 1425.28,-386.86 1431.89,-388.09 1438.29,-389.44"/>
<polygon fill="#9a32cd" stroke="#9a32cd" points="764.56,-354.99 754.58,-358.54 764.6,-361.99 764.56,-354.99"/>
<text text-anchor="middle" x="1117" y="-365" font-family="Helvetica,sans-Serif" font-size="10.00"> espace</text>
</g>
<!-- Node3&#45;&gt;Node10 -->
<g id="edge31" class="edge">
<title>Node3&#45;&gt;Node10</title>
<path fill="none" stroke="#9a32cd" stroke-dasharray="5,2" d="M757.79,-346.59C859.27,-317.24 1114.7,-246 1203,-246 1203,-246 1203,-246 1477.5,-246 1544.6,-246 1604.33,-314.66 1624.37,-340.4"/>
<polygon fill="#9a32cd" stroke="#9a32cd" points="756.52,-343.32 747.89,-349.46 758.47,-350.04 756.52,-343.32"/>
<text text-anchor="middle" x="1204" y="-251" font-family="Helvetica,sans-Serif" font-size="10.00"> espace</text>
</g>
<!-- Node3&#45;&gt;Node17 -->
<g id="edge43" class="edge">
<title>Node3&#45;&gt;Node17</title>
<path fill="none" stroke="#9a32cd" stroke-dasharray="5,2" d="M764.79,-361.55C786.68,-363.08 812.71,-365.44 836,-369 929.94,-383.35 1037.79,-416.85 1087.81,-433.4"/>
<polygon fill="#9a32cd" stroke="#9a32cd" points="764.94,-358.06 754.73,-360.89 764.48,-365.04 764.94,-358.06"/>
<text text-anchor="middle" x="907.5" y="-398" font-family="Helvetica,sans-Serif" font-size="10.00"> espace</text>
</g>
<!-- Node3&#45;&gt;Node19 -->
<g id="edge50" class="edge">
<title>Node3&#45;&gt;Node19</title>
<path fill="none" stroke="#9a32cd" stroke-dasharray="5,2" d="M764.42,-368.26C786.66,-373.21 813.07,-380.13 836,-389 855.97,-396.73 877.43,-408.91 891.35,-417.39"/>
<polygon fill="#9a32cd" stroke="#9a32cd" points="765.03,-364.81 754.52,-366.13 763.56,-371.66 765.03,-364.81"/>
<text text-anchor="middle" x="810" y="-392" font-family="Helvetica,sans-Serif" font-size="10.00"> space</text>
</g>
<!-- Node4&#45;&gt;Node3 -->
<g id="edge4" class="edge">
<title>Node4&#45;&gt;Node3</title>
<path fill="none" stroke="#9a32cd" stroke-dasharray="5,2" d="M500.74,-304.01C505.5,-306.57 510.04,-309.55 514,-313 526.01,-323.47 518.53,-335.49 532,-344 554.85,-358.44 628.16,-360.28 674.32,-359.91"/>
<polygon fill="#9a32cd" stroke="#9a32cd" points="501.98,-300.72 491.44,-299.58 498.97,-307.04 501.98,-300.72"/>
<text text-anchor="middle" x="588.5" y="-362" font-family="Helvetica,sans-Serif" font-size="10.00"> domains</text>
</g>
<!-- Node4&#45;&gt;Node7 -->
<g id="edge18" class="edge">
<title>Node4&#45;&gt;Node7</title>
<path fill="none" stroke="#9a32cd" stroke-dasharray="5,2" d="M493.83,-275.99C501.02,-272.15 508.15,-267.49 514,-262 525.61,-251.09 518.19,-238.95 532,-231 580.09,-203.31 647.84,-216.53 685.49,-227.5"/>
<polygon fill="#9a32cd" stroke="#9a32cd" points="492.22,-272.88 484.78,-280.42 495.3,-279.17 492.22,-272.88"/>
<text text-anchor="middle" x="588.5" y="-234" font-family="Helvetica,sans-Serif" font-size="10.00"> zone</text>
</g>
<!-- Node4&#45;&gt;Node11 -->
<g id="edge27" class="edge">
<title>Node4&#45;&gt;Node11</title>
<path fill="none" stroke="#9a32cd" stroke-dasharray="5,2" d="M506.07,-304.93C509.08,-307.24 511.79,-309.92 514,-313 550.24,-363.47 488.95,-547.2 532,-592 588.2,-650.48 632.39,-611 713.5,-611 713.5,-611 713.5,-611 1545.5,-611 1672.75,-611 1823.08,-614.7 1895.78,-616.72"/>
<polygon fill="#9a32cd" stroke="#9a32cd" points="507.84,-301.91 497.5,-299.6 504.14,-307.85 507.84,-301.91"/>
<text text-anchor="middle" x="1295" y="-614" font-family="Helvetica,sans-Serif" font-size="10.00"> dom</text>
</g>
<!-- Node5&#45;&gt;Node4 -->
<g id="edge6" class="edge">
<title>Node5&#45;&gt;Node4</title>
<path fill="none" stroke="#9a32cd" stroke-dasharray="5,2" d="M282.09,-227.48C312.69,-229.47 350.54,-234.8 382,-248 391.35,-251.92 391.43,-256.6 400,-262 410.94,-268.9 423.81,-275.43 434.45,-280.45"/>
<polygon fill="#9a32cd" stroke="#9a32cd" points="282.19,-223.98 272.02,-226.93 281.81,-230.97 282.19,-223.98"/>
<text text-anchor="middle" x="342" y="-262" font-family="Helvetica,sans-Serif" font-size="10.00"> nbr_coefs</text>
<text text-anchor="middle" x="342" y="-251" font-family="Helvetica,sans-Serif" font-size="10.00">nbr_points</text>
</g>
<!-- Node5&#45;&gt;Node14 -->
<g id="edge34" class="edge">
<title>Node5&#45;&gt;Node14</title>
<path fill="none" stroke="#9a32cd" stroke-dasharray="5,2" d="M239.42,-209.24C253.69,-191.91 277.25,-165.65 302,-148 342.25,-119.3 395.76,-97.33 427.94,-85.58"/>
<polygon fill="#9a32cd" stroke="#9a32cd" points="236.39,-207.41 232.84,-217.39 241.84,-211.8 236.39,-207.41"/>
<text text-anchor="middle" x="342" y="-151" font-family="Helvetica,sans-Serif" font-size="10.00"> sizes</text>
</g>
<!-- Node6&#45;&gt;Node4 -->
<g id="edge8" class="edge">
<title>Node6&#45;&gt;Node4</title>
<path fill="none" stroke="#9a32cd" stroke-dasharray="5,2" d="M294.51,-272.48C333.55,-276.72 381.08,-281.87 414.43,-285.49"/>
<polygon fill="#9a32cd" stroke="#9a32cd" points="294.58,-268.97 284.26,-271.37 293.83,-275.93 294.58,-268.97"/>
<text text-anchor="middle" x="342" y="-285" font-family="Helvetica,sans-Serif" font-size="10.00"> coloc</text>
</g>
<!-- Node6&#45;&gt;Node7 -->
<g id="edge12" class="edge">
<title>Node6&#45;&gt;Node7</title>
<path fill="none" stroke="#9a32cd" stroke-dasharray="5,2" d="M273.99,-251.53C277.48,-249.88 280.86,-248.04 284,-246 294.03,-239.49 291.23,-231.2 302,-226 439.42,-159.72 494.76,-185.44 645,-212 661.7,-214.95 679.69,-221.66 693.04,-227.39"/>
<polygon fill="#9a32cd" stroke="#9a32cd" points="272.44,-248.38 264.57,-255.48 275.15,-254.84 272.44,-248.38"/>
<text text-anchor="middle" x="457" y="-205" font-family="Helvetica,sans-Serif" font-size="10.00"> c</text>
<text text-anchor="middle" x="457" y="-194" font-family="Helvetica,sans-Serif" font-size="10.00">cf</text>
</g>
<!-- Node6&#45;&gt;Node10 -->
<g id="edge38" class="edge">
<title>Node6&#45;&gt;Node10</title>
<path fill="none" stroke="#9a32cd" stroke-dasharray="5,2" d="M279.25,-250.07C280.93,-248.82 282.52,-247.47 284,-246 301.96,-228.18 283.35,-209.09 302,-192 340.74,-156.49 480.08,-145.16 532,-137 611.93,-124.44 632.59,-123 713.5,-123 713.5,-123 713.5,-123 1477.5,-123 1513.56,-123 1528.75,-122.28 1555,-147 1613.95,-202.51 1627.84,-307.96 1630.78,-340.32"/>
<polygon fill="#9a32cd" stroke="#9a32cd" points="277,-247.34 270.23,-255.48 280.61,-253.34 277,-247.34"/>
<text text-anchor="middle" x="1018.5" y="-126" font-family="Helvetica,sans-Serif" font-size="10.00"> val_cst_hard</text>
</g>
<!-- Node7&#45;&gt;Node4 -->
<g id="edge10" class="edge">
<title>Node7&#45;&gt;Node4</title>
<path fill="none" stroke="#9a32cd" stroke-dasharray="5,2" d="M652.43,-244.35C617,-249.21 571.67,-256.46 532,-266 515.85,-269.88 498.13,-275.58 484.09,-280.44"/>
<polygon fill="#9a32cd" stroke="#9a32cd" points="653.18,-247.78 662.62,-242.98 652.24,-240.84 653.18,-247.78"/>
<text text-anchor="middle" x="588.5" y="-302" font-family="Helvetica,sans-Serif" font-size="10.00"> absol</text>
<text text-anchor="middle" x="588.5" y="-291" font-family="Helvetica,sans-Serif" font-size="10.00">cart</text>
<text text-anchor="middle" x="588.5" y="-280" font-family="Helvetica,sans-Serif" font-size="10.00">cart_surr</text>
<text text-anchor="middle" x="588.5" y="-269" font-family="Helvetica,sans-Serif" font-size="10.00">radius</text>
</g>
<!-- Node7&#45;&gt;Node7 -->
<g id="edge13" class="edge">
<title>Node7&#45;&gt;Node7</title>
<path fill="none" stroke="#9a32cd" stroke-dasharray="5,2" d="M697.09,-256.4C698.26,-261.31 704.06,-265 714.5,-265 731.21,-265 736.04,-255.57 728.99,-246.76"/>
<polygon fill="#9a32cd" stroke="#9a32cd" points="700.47,-257.34 700.01,-246.76 693.77,-255.31 700.47,-257.34"/>
<text text-anchor="middle" x="714.5" y="-279" font-family="Helvetica,sans-Serif" font-size="10.00"> p_der_abs</text>
<text text-anchor="middle" x="714.5" y="-268" font-family="Helvetica,sans-Serif" font-size="10.00">p_der_var</text>
</g>
<!-- Node18 -->
<g id="node18" class="node">
<title>Node18</title>
<g id="a_node18"><a xlink:href="classKadath_1_1Scalar.html" target="_top" xlink:title=" ">
<polygon fill="none" stroke="black" points="1255,-407.5 1255,-426.5 1335,-426.5 1335,-407.5 1255,-407.5"/>
<text text-anchor="middle" x="1295" y="-414.5" font-family="Helvetica,sans-Serif" font-size="10.00">Kadath::Scalar</text>
</a>
</g>
</g>
<!-- Node7&#45;&gt;Node18 -->
<g id="edge46" class="edge">
<title>Node7&#45;&gt;Node18</title>
<path fill="none" stroke="#9a32cd" stroke-dasharray="5,2" d="M776.38,-237.07C864.33,-239.27 1030.4,-251.42 1158,-308 1213.6,-332.65 1265.73,-385.79 1285.56,-407.48"/>
<polygon fill="#9a32cd" stroke="#9a32cd" points="776.38,-233.57 766.3,-236.85 776.22,-240.57 776.38,-233.57"/>
<text text-anchor="middle" x="1018.5" y="-277" font-family="Helvetica,sans-Serif" font-size="10.00"> val_zones</text>
</g>
<!-- Node8&#45;&gt;Node7 -->
<g id="edge14" class="edge">
<title>Node8&#45;&gt;Node7</title>
<path fill="none" stroke="#9a32cd" stroke-dasharray="5,2" d="M524.11,-329C569.18,-326.06 624.31,-320.44 645,-310 674.17,-295.29 697.44,-262.81 707.74,-246.6"/>
<polygon fill="#9a32cd" stroke="#9a32cd" points="523.83,-325.51 514.07,-329.62 524.27,-332.5 523.83,-325.51"/>
<text text-anchor="middle" x="588.5" y="-331" font-family="Helvetica,sans-Serif" font-size="10.00"> base</text>
</g>
<!-- Node9&#45;&gt;Node8 -->
<g id="edge16" class="edge">
<title>Node9&#45;&gt;Node8</title>
<path fill="none" stroke="#9a32cd" stroke-dasharray="5,2" d="M270.76,-455.49C303.35,-445.23 347.47,-428.69 382,-406 409.94,-387.64 435.94,-357.45 448.36,-341.91"/>
<polygon fill="#9a32cd" stroke="#9a32cd" points="269.58,-452.19 261.04,-458.47 271.63,-458.88 269.58,-452.19"/>
<text text-anchor="middle" x="342" y="-447" font-family="Helvetica,sans-Serif" font-size="10.00"> bases_1d</text>
</g>
<!-- Node9&#45;&gt;Node10 -->
<g id="edge35" class="edge">
<title>Node9&#45;&gt;Node10</title>
<path fill="none" stroke="#9a32cd" stroke-dasharray="5,2" d="M246.03,-452.14C280.16,-424.57 348.15,-364.28 382,-297 400.92,-259.39 368.97,-232.46 400,-204 467.35,-142.23 717.61,-161 809,-161 809,-161 809,-161 1477.5,-161 1571.04,-161 1617.85,-301.85 1628.9,-340.37"/>
<polygon fill="#9a32cd" stroke="#9a32cd" points="243.77,-449.47 238.12,-458.43 248.13,-454.94 243.77,-449.47"/>
<text text-anchor="middle" x="1018.5" y="-175" font-family="Helvetica,sans-Serif" font-size="10.00"> assoc_var</text>
<text text-anchor="middle" x="1018.5" y="-164" font-family="Helvetica,sans-Serif" font-size="10.00">assoc_var_double</text>
</g>
<!-- Node9&#45;&gt;Node11 -->
<g id="edge22" class="edge">
<title>Node9&#45;&gt;Node11</title>
<path fill="none" stroke="#9a32cd" stroke-dasharray="5,2" d="M236.71,-486.42C266.31,-532.49 351.5,-649 456,-649 456,-649 456,-649 1019.5,-649 1401.16,-649 1498.25,-667.16 1878,-629 1883.83,-628.41 1889.93,-627.59 1895.94,-626.64"/>
<polygon fill="#9a32cd" stroke="#9a32cd" points="239.53,-484.34 231.25,-477.73 233.61,-488.06 239.53,-484.34"/>
<text text-anchor="middle" x="1204" y="-664" font-family="Helvetica,sans-Serif" font-size="10.00"> n_cond</text>
<text text-anchor="middle" x="1204" y="-653" font-family="Helvetica,sans-Serif" font-size="10.00">p_cmp_used</text>
</g>
<!-- Node9&#45;&gt;Node17 -->
<g id="edge47" class="edge">
<title>Node9&#45;&gt;Node17</title>
<path fill="none" stroke="#9a32cd" stroke-dasharray="5,2" d="M285.34,-474C290.97,-474.41 296.59,-474.75 302,-475 337.52,-476.62 346.45,-475.58 382,-475 682.56,-470.11 758.95,-483.5 1058,-453 1063.79,-452.41 1069.88,-451.59 1075.85,-450.66"/>
<polygon fill="#9a32cd" stroke="#9a32cd" points="285.49,-470.5 275.25,-473.22 284.94,-477.48 285.49,-470.5"/>
<text text-anchor="middle" x="714.5" y="-487" font-family="Helvetica,sans-Serif" font-size="10.00"> give_indices</text>
<text text-anchor="middle" x="714.5" y="-476" font-family="Helvetica,sans-Serif" font-size="10.00">type_indice</text>
</g>
<!-- Node9&#45;&gt;Node19 -->
<g id="edge51" class="edge">
<title>Node9&#45;&gt;Node19</title>
<path fill="none" stroke="#9a32cd" stroke-dasharray="5,2" d="M285.23,-464.61C314.41,-462.95 350.04,-460.89 382,-459 554.57,-448.77 759.06,-436.15 853.65,-430.29"/>
<polygon fill="#9a32cd" stroke="#9a32cd" points="284.98,-461.12 275.19,-465.19 285.38,-468.11 284.98,-461.12"/>
<text text-anchor="middle" x="588.5" y="-452" font-family="Helvetica,sans-Serif" font-size="10.00"> basis</text>
</g>
<!-- Node10&#45;&gt;Node1 -->
<g id="edge19" class="edge">
<title>Node10&#45;&gt;Node1</title>
<path fill="none" stroke="#9a32cd" stroke-dasharray="5,2" d="M1598.95,-363.24C1585.47,-368.49 1569.6,-374.37 1555,-379 1542.55,-382.95 1528.79,-386.7 1516.37,-389.86"/>
<polygon fill="#9a32cd" stroke="#9a32cd" points="1600.28,-366.48 1608.3,-359.56 1597.71,-359.97 1600.28,-366.48"/>
<text text-anchor="middle" x="1544.5" y="-387" font-family="Helvetica,sans-Serif" font-size="10.00"> syst</text>
</g>
<!-- Node10&#45;&gt;Node12 -->
<g id="edge26" class="edge">
<title>Node10&#45;&gt;Node12</title>
<path fill="none" stroke="#9a32cd" stroke-dasharray="5,2" d="M1647.84,-367.39C1662.71,-385.06 1686.97,-412.92 1710,-435 1732.79,-456.85 1761.77,-479.77 1778.16,-492.33"/>
<polygon fill="#9a32cd" stroke="#9a32cd" points="1650.43,-365.03 1641.34,-359.6 1645.06,-369.52 1650.43,-365.03"/>
<text text-anchor="middle" x="1720.5" y="-455" font-family="Helvetica,sans-Serif" font-size="10.00"> syst</text>
</g>
<!-- Node11&#45;&gt;Node10 -->
<g id="edge20" class="edge">
<title>Node11&#45;&gt;Node10</title>
<path fill="none" stroke="#9a32cd" stroke-dasharray="5,2" d="M1894.19,-605.75C1845.31,-591.86 1771.46,-568.72 1749,-550 1683.09,-495.05 1646.66,-392.21 1636.48,-359.95"/>
<polygon fill="#9a32cd" stroke="#9a32cd" points="1893.33,-609.14 1903.91,-608.48 1895.23,-602.41 1893.33,-609.14"/>
<text text-anchor="middle" x="1792" y="-590" font-family="Helvetica,sans-Serif" font-size="10.00"> eq</text>
</g>
<!-- Node12&#45;&gt;Node11 -->
<g id="edge23" class="edge">
<title>Node12&#45;&gt;Node11</title>
<path fill="none" stroke="#9a32cd" stroke-dasharray="5,2" d="M1821.91,-516.3C1839.01,-525.41 1860.65,-538.08 1878,-552 1899.74,-569.45 1920.98,-594.54 1931.91,-608.21"/>
<polygon fill="#9a32cd" stroke="#9a32cd" points="1823.42,-513.14 1812.93,-511.63 1820.19,-519.35 1823.42,-513.14"/>
<text text-anchor="middle" x="1865.5" y="-555" font-family="Helvetica,sans-Serif" font-size="10.00"> parts</text>
</g>
<!-- Node12&#45;&gt;Node12 -->
<g id="edge25" class="edge">
<title>Node12&#45;&gt;Node12</title>
<path fill="none" stroke="#9a32cd" stroke-dasharray="5,2" d="M1779.11,-521.77C1780.12,-526.5 1784.42,-530 1792,-530 1804.44,-530 1808.04,-520.57 1802.79,-511.76"/>
<polygon fill="#9a32cd" stroke="#9a32cd" points="1782.58,-522.26 1781.21,-511.76 1775.73,-520.82 1782.58,-522.26"/>
<text text-anchor="middle" x="1792" y="-533" font-family="Helvetica,sans-Serif" font-size="10.00"> parts</text>
</g>
<!-- Node12&#45;&gt;Node13 -->
<g id="edge30" class="edge">
<title>Node12&#45;&gt;Node13</title>
<path fill="none" stroke="#9a32cd" stroke-dasharray="5,2" d="M1809.19,-485.21C1839.98,-453.26 1906.09,-384.67 1930.34,-359.5"/>
<polygon fill="#9a32cd" stroke="#9a32cd" points="1806.58,-482.86 1802.16,-492.49 1811.62,-487.72 1806.58,-482.86"/>
<text text-anchor="middle" x="1865.5" y="-442" font-family="Helvetica,sans-Serif" font-size="10.00"> parts</text>
</g>
<!-- Node21 -->
<g id="node21" class="node">
<title>Node21</title>
<g id="a_node21"><a xlink:href="classKadath_1_1Ope__def.html" target="_top" xlink:title=" ">
<polygon fill="none" stroke="black" points="1896,-454.5 1896,-473.5 1985,-473.5 1985,-454.5 1896,-454.5"/>
<text text-anchor="middle" x="1940.5" y="-461.5" font-family="Helvetica,sans-Serif" font-size="10.00">Kadath::Ope_def</text>
</a>
</g>
</g>
<!-- Node12&#45;&gt;Node21 -->
<g id="edge57" class="edge">
<title>Node12&#45;&gt;Node21</title>
<path fill="none" stroke="midnightblue" d="M1839.7,-489.89C1860.1,-484.6 1883.68,-478.48 1902.8,-473.52"/>
<polygon fill="midnightblue" stroke="midnightblue" points="1838.77,-486.51 1829.97,-492.41 1840.53,-493.29 1838.77,-486.51"/>
</g>
<!-- Node13&#45;&gt;Node10 -->
<g id="edge28" class="edge">
<title>Node13&#45;&gt;Node10</title>
<path fill="none" stroke="#9a32cd" stroke-dasharray="5,2" d="M1890.92,-350C1836.95,-350 1749.85,-350 1692.14,-350"/>
<polygon fill="#9a32cd" stroke="#9a32cd" points="1890.92,-353.5 1900.92,-350 1890.92,-346.5 1890.92,-353.5"/>
<text text-anchor="middle" x="1792" y="-353" font-family="Helvetica,sans-Serif" font-size="10.00"> eq_int</text>
</g>
<!-- Node14&#45;&gt;Node10 -->
<g id="edge32" class="edge">
<title>Node14&#45;&gt;Node10</title>
<path fill="none" stroke="#9a32cd" stroke-dasharray="5,2" d="M504.9,-78.35C556.14,-80.71 640.63,-84 713.5,-84 713.5,-84 713.5,-84 1477.5,-84 1513.69,-84 1529.47,-83.35 1555,-109 1622.51,-176.83 1630.52,-303.9 1631.41,-340.13"/>
<polygon fill="#9a32cd" stroke="#9a32cd" points="504.95,-74.85 494.8,-77.88 504.62,-81.84 504.95,-74.85"/>
<text text-anchor="middle" x="1117" y="-87" font-family="Helvetica,sans-Serif" font-size="10.00"> which_coef</text>
</g>
<!-- Node15&#45;&gt;Node10 -->
<g id="edge36" class="edge">
<title>Node15&#45;&gt;Node10</title>
<path fill="none" stroke="#9a32cd" stroke-dasharray="5,2" d="M392.47,-38C441.86,-38 519.93,-38 587.5,-38 587.5,-38 587.5,-38 1477.5,-38 1615.83,-38 1629.91,-287.66 1631.34,-340.32"/>
<polygon fill="#9a32cd" stroke="#9a32cd" points="392.38,-34.5 382.38,-38 392.38,-41.5 392.38,-34.5"/>
<text text-anchor="middle" x="1018.5" y="-52" font-family="Helvetica,sans-Serif" font-size="10.00"> paruser</text>
<text text-anchor="middle" x="1018.5" y="-41" font-family="Helvetica,sans-Serif" font-size="10.00">paruser_bin</text>
</g>
<!-- Node16&#45;&gt;Node1 -->
<g id="edge59" class="edge">
<title>Node16&#45;&gt;Node1</title>
<path fill="none" stroke="#9a32cd" stroke-dasharray="5,2" d="M1315.46,-518.41C1323.98,-510.28 1333.51,-499.9 1340,-489 1353.38,-466.54 1339.25,-451.21 1358,-433 1369.31,-422.02 1407.04,-412.33 1436.73,-406.14"/>
<polygon fill="#9a32cd" stroke="#9a32cd" points="1313.05,-515.87 1308.02,-525.2 1317.77,-521.04 1313.05,-515.87"/>
<text text-anchor="middle" x="1388.5" y="-513" font-family="Helvetica,sans-Serif" font-size="10.00"> p_christo</text>
<text text-anchor="middle" x="1388.5" y="-502" font-family="Helvetica,sans-Serif" font-size="10.00">p_det_cov</text>
<text text-anchor="middle" x="1388.5" y="-491" font-family="Helvetica,sans-Serif" font-size="10.00">p_dirac</text>
<text text-anchor="middle" x="1388.5" y="-480" font-family="Helvetica,sans-Serif" font-size="10.00">p_met_con</text>
<text text-anchor="middle" x="1388.5" y="-469" font-family="Helvetica,sans-Serif" font-size="10.00">p_met_cov</text>
<text text-anchor="middle" x="1388.5" y="-458" font-family="Helvetica,sans-Serif" font-size="10.00">p_ricci_scalar</text>
<text text-anchor="middle" x="1388.5" y="-447" font-family="Helvetica,sans-Serif" font-size="10.00">p_ricci_tensor</text>
<text text-anchor="middle" x="1388.5" y="-436" font-family="Helvetica,sans-Serif" font-size="10.00">p_riemann</text>
</g>
<!-- Node16&#45;&gt;Node10 -->
<g id="edge39" class="edge">
<title>Node16&#45;&gt;Node10</title>
<path fill="none" stroke="#9a32cd" stroke-dasharray="5,2" d="M1350.25,-540.49C1373.49,-540.09 1399.67,-535.63 1419,-521 1435.85,-508.25 1423.55,-493.29 1437,-477 1440.4,-472.88 1571.56,-388.49 1616.54,-359.6"/>
<polygon fill="#9a32cd" stroke="#9a32cd" points="1350.19,-536.99 1340.16,-540.43 1350.14,-543.99 1350.19,-536.99"/>
<text text-anchor="middle" x="1476.5" y="-546" font-family="Helvetica,sans-Serif" font-size="10.00"> cst</text>
<text text-anchor="middle" x="1476.5" y="-535" font-family="Helvetica,sans-Serif" font-size="10.00">cst_hard</text>
<text text-anchor="middle" x="1476.5" y="-524" font-family="Helvetica,sans-Serif" font-size="10.00">opeuser</text>
<text text-anchor="middle" x="1476.5" y="-513" font-family="Helvetica,sans-Serif" font-size="10.00">opeuser_bin</text>
<text text-anchor="middle" x="1476.5" y="-502" font-family="Helvetica,sans-Serif" font-size="10.00">results</text>
<text text-anchor="middle" x="1476.5" y="-491" font-family="Helvetica,sans-Serif" font-size="10.00">term</text>
<text text-anchor="middle" x="1476.5" y="-480" font-family="Helvetica,sans-Serif" font-size="10.00">term_double</text>
</g>
<!-- Node16&#45;&gt;Node21 -->
<g id="edge58" class="edge">
<title>Node16&#45;&gt;Node21</title>
<path fill="none" stroke="#9a32cd" stroke-dasharray="5,2" d="M1350.37,-544.16C1376.48,-548.09 1408.27,-552.19 1437,-554 1472.04,-556.21 1481.27,-559.17 1516,-554 1623.07,-538.05 1642.85,-504.25 1749,-483 1798.7,-473.05 1856.79,-468.21 1895.63,-465.93"/>
<polygon fill="#9a32cd" stroke="#9a32cd" points="1350.71,-540.67 1340.29,-542.61 1349.64,-547.59 1350.71,-540.67"/>
<text text-anchor="middle" x="1632.5" y="-544" font-family="Helvetica,sans-Serif" font-size="10.00"> res</text>
</g>
<!-- Node17&#45;&gt;Node10 -->
<g id="edge55" class="edge">
<title>Node17&#45;&gt;Node10</title>
<path fill="none" stroke="#9a32cd" stroke-dasharray="5,2" d="M1139.62,-427.4C1150.14,-420.5 1163.25,-412.86 1176,-408 1326.32,-350.76 1373.66,-367.76 1534,-355 1546.59,-354 1560.11,-353.16 1572.95,-352.47"/>
<polygon fill="#9a32cd" stroke="#9a32cd" points="1137.41,-424.67 1131.12,-433.2 1141.35,-430.46 1137.41,-424.67"/>
<text text-anchor="middle" x="1388.5" y="-367" font-family="Helvetica,sans-Serif" font-size="10.00"> var</text>
</g>
<!-- Node17&#45;&gt;Node16 -->
<g id="edge41" class="edge">
<title>Node17&#45;&gt;Node16</title>
<path fill="none" stroke="#9a32cd" stroke-dasharray="5,2" d="M1145.56,-457.41C1181.89,-476.4 1244.8,-509.28 1275.75,-525.46"/>
<polygon fill="#9a32cd" stroke="#9a32cd" points="1146.99,-454.2 1136.5,-452.67 1143.74,-460.41 1146.99,-454.2"/>
<text text-anchor="middle" x="1204" y="-513" font-family="Helvetica,sans-Serif" font-size="10.00"> der_t</text>
<text text-anchor="middle" x="1204" y="-502" font-family="Helvetica,sans-Serif" font-size="10.00">val_t</text>
</g>
<!-- Node17&#45;&gt;Node18 -->
<g id="edge45" class="edge">
<title>Node17&#45;&gt;Node18</title>
<path fill="none" stroke="midnightblue" d="M1168.28,-437.58C1188.17,-435.24 1211.2,-432.29 1232,-429 1239.36,-427.84 1247.19,-426.44 1254.71,-425.03"/>
<polygon fill="midnightblue" stroke="midnightblue" points="1167.72,-434.12 1158.19,-438.75 1168.53,-441.08 1167.72,-434.12"/>
</g>
<!-- Node18&#45;&gt;Node17 -->
<g id="edge44" class="edge">
<title>Node18&#45;&gt;Node17</title>
<path fill="none" stroke="#9a32cd" stroke-dasharray="5,2" d="M1244.65,-413.08C1223.33,-412.5 1198.22,-413.32 1176,-418 1161.62,-421.03 1146.41,-427.74 1135.17,-433.44"/>
<polygon fill="#9a32cd" stroke="#9a32cd" points="1244.66,-416.59 1254.78,-413.47 1244.93,-409.59 1244.66,-416.59"/>
<text text-anchor="middle" x="1204" y="-421" font-family="Helvetica,sans-Serif" font-size="10.00"> cmp</text>
</g>
<!-- Node19&#45;&gt;Node17 -->
<g id="edge48" class="edge">
<title>Node19&#45;&gt;Node17</title>
<path fill="none" stroke="#9a32cd" stroke-dasharray="5,2" d="M971.42,-431.85C1005.37,-434.47 1046.25,-437.62 1075.87,-439.91"/>
<polygon fill="#9a32cd" stroke="#9a32cd" points="971.37,-428.34 961.13,-431.06 970.83,-435.32 971.37,-428.34"/>
<text text-anchor="middle" x="1018.5" y="-441" font-family="Helvetica,sans-Serif" font-size="10.00"> basis</text>
</g>
<!-- Node20&#45;&gt;Node17 -->
<g id="edge52" class="edge">
<title>Node20&#45;&gt;Node17</title>
<path fill="none" stroke="#9a32cd" stroke-dasharray="5,2" d="M655.41,-577.33C768.29,-583.5 992.79,-589.95 1058,-549 1093.53,-526.69 1108.95,-474.54 1113.99,-452.8"/>
<polygon fill="#9a32cd" stroke="#9a32cd" points="655.35,-573.82 645.17,-576.75 654.96,-580.81 655.35,-573.82"/>
<text text-anchor="middle" x="810" y="-584" font-family="Helvetica,sans-Serif" font-size="10.00"> parameters</text>
</g>
<!-- Node21&#45;&gt;Node10 -->
<g id="edge56" class="edge">
<title>Node21&#45;&gt;Node10</title>
<path fill="none" stroke="#9a32cd" stroke-dasharray="5,2" d="M1904.39,-450.92C1842.11,-427.72 1713.74,-379.89 1659.06,-359.52"/>
<polygon fill="#9a32cd" stroke="#9a32cd" points="1903.2,-454.21 1913.79,-454.42 1905.65,-447.65 1903.2,-454.21"/>
<text text-anchor="middle" x="1792" y="-426" font-family="Helvetica,sans-Serif" font-size="10.00"> def</text>
</g>
</g>
</svg>
