<?xml version="1.0" encoding="UTF-8" standalone="no"?>
<!DOCTYPE svg PUBLIC "-//W3C//DTD SVG 1.1//EN"
 "http://www.w3.org/Graphics/SVG/1.1/DTD/svg11.dtd">
<!-- Generated by graphviz version 2.47.1 (20210515.0534)
 -->
<!-- Title: Kadath::Domain_shell_log Pages: 1 -->
<svg width="452pt" height="324pt"
 viewBox="0.00 0.00 452.41 324.00" xmlns="http://www.w3.org/2000/svg" xmlns:xlink="http://www.w3.org/1999/xlink">
<g id="graph0" class="graph" transform="scale(1 1) rotate(0) translate(4 320)">
<title>Kadath::Domain_shell_log</title>
<!-- Node1 -->
<g id="node1" class="node">
<title>Node1</title>
<g id="a_node1"><a xlink:title=" ">
<polygon fill="#bfbfbf" stroke="black" points="23.91,-0.5 23.91,-19.5 151.91,-19.5 151.91,-0.5 23.91,-0.5"/>
<text text-anchor="middle" x="87.91" y="-7.5" font-family="Helvetica,sans-Serif" font-size="10.00">Kadath::Domain_shell_log</text>
</a>
</g>
</g>
<!-- Node2 -->
<g id="node2" class="node">
<title>Node2</title>
<g id="a_node2"><a xlink:href="classKadath_1_1Domain__shell.html" target="_top" xlink:title=" ">
<polygon fill="none" stroke="black" points="32.91,-58.5 32.91,-77.5 142.91,-77.5 142.91,-58.5 32.91,-58.5"/>
<text text-anchor="middle" x="87.91" y="-65.5" font-family="Helvetica,sans-Serif" font-size="10.00">Kadath::Domain_shell</text>
</a>
</g>
</g>
<!-- Node2&#45;&gt;Node1 -->
<g id="edge1" class="edge">
<title>Node2&#45;&gt;Node1</title>
<path fill="none" stroke="midnightblue" d="M87.91,-47.95C87.91,-38.29 87.91,-27.03 87.91,-19.51"/>
<polygon fill="midnightblue" stroke="midnightblue" points="84.41,-48.25 87.91,-58.25 91.41,-48.25 84.41,-48.25"/>
</g>
<!-- Node3 -->
<g id="node3" class="node">
<title>Node3</title>
<g id="a_node3"><a xlink:href="classKadath_1_1Domain.html" target="_top" xlink:title=" ">
<polygon fill="none" stroke="black" points="61.41,-160.5 61.41,-179.5 146.41,-179.5 146.41,-160.5 61.41,-160.5"/>
<text text-anchor="middle" x="103.91" y="-167.5" font-family="Helvetica,sans-Serif" font-size="10.00">Kadath::Domain</text>
</a>
</g>
</g>
<!-- Node3&#45;&gt;Node2 -->
<g id="edge2" class="edge">
<title>Node3&#45;&gt;Node2</title>
<path fill="none" stroke="midnightblue" d="M100.95,-150.49C97.47,-128.74 91.84,-93.58 89.27,-77.5"/>
<polygon fill="midnightblue" stroke="midnightblue" points="97.51,-151.15 102.55,-160.47 104.42,-150.05 97.51,-151.15"/>
</g>
<!-- Node7 -->
<g id="node7" class="node">
<title>Node7</title>
<g id="a_node7"><a xlink:href="classKadath_1_1Val__domain.html" target="_top" xlink:title=" ">
<polygon fill="none" stroke="black" points="169.41,-58.5 169.41,-77.5 272.41,-77.5 272.41,-58.5 169.41,-58.5"/>
<text text-anchor="middle" x="220.91" y="-65.5" font-family="Helvetica,sans-Serif" font-size="10.00">Kadath::Val_domain</text>
</a>
</g>
</g>
<!-- Node3&#45;&gt;Node7 -->
<g id="edge16" class="edge">
<title>Node3&#45;&gt;Node7</title>
<path fill="none" stroke="#9a32cd" stroke-dasharray="5,2" d="M102.44,-149.8C102.3,-133.69 104.8,-111.11 117.91,-97 125.42,-88.92 148.2,-82.3 170.44,-77.53"/>
<polygon fill="#9a32cd" stroke="#9a32cd" points="98.96,-150.34 102.9,-160.17 105.95,-150.03 98.96,-150.34"/>
<text text-anchor="middle" x="129.41" y="-116.5" font-family="Helvetica,sans-Serif" font-size="10.00"> zone</text>
</g>
<!-- Node4 -->
<g id="node4" class="node">
<title>Node4</title>
<g id="a_node4"><a xlink:href="structKadath_1_1MemoryMappable.html" target="_top" xlink:title=" ">
<polygon fill="none" stroke="black" points="190.91,-296.5 190.91,-315.5 318.91,-315.5 318.91,-296.5 190.91,-296.5"/>
<text text-anchor="middle" x="254.91" y="-303.5" font-family="Helvetica,sans-Serif" font-size="10.00">Kadath::MemoryMappable</text>
</a>
</g>
</g>
<!-- Node4&#45;&gt;Node3 -->
<g id="edge3" class="edge">
<title>Node4&#45;&gt;Node3</title>
<path fill="none" stroke="midnightblue" d="M180.54,-301.42C115.7,-296.55 28.71,-285.21 6.91,-259 -20.27,-226.31 44.01,-194.42 80.65,-179.61"/>
<polygon fill="midnightblue" stroke="midnightblue" points="180.52,-304.93 190.74,-302.14 181.01,-297.94 180.52,-304.93"/>
</g>
<!-- Node5 -->
<g id="node5" class="node">
<title>Node5</title>
<g id="a_node5"><a xlink:href="classKadath_1_1Dim__array.html" target="_top" xlink:title=" ">
<polygon fill="none" stroke="black" points="16.41,-239.5 16.41,-258.5 111.41,-258.5 111.41,-239.5 16.41,-239.5"/>
<text text-anchor="middle" x="63.91" y="-246.5" font-family="Helvetica,sans-Serif" font-size="10.00">Kadath::Dim_array</text>
</a>
</g>
</g>
<!-- Node4&#45;&gt;Node5 -->
<g id="edge5" class="edge">
<title>Node4&#45;&gt;Node5</title>
<path fill="none" stroke="midnightblue" d="M215.32,-293.6C179.08,-283.16 126.26,-267.95 93.55,-258.53"/>
<polygon fill="midnightblue" stroke="midnightblue" points="214.49,-297 225.07,-296.41 216.43,-290.28 214.49,-297"/>
</g>
<!-- Node6 -->
<g id="node6" class="node">
<title>Node6</title>
<g id="a_node6"><a xlink:href="classKadath_1_1Array.html" target="_top" xlink:title=" ">
<polygon fill="none" stroke="black" points="129.41,-239.5 129.41,-258.5 248.41,-258.5 248.41,-239.5 129.41,-239.5"/>
<text text-anchor="middle" x="188.91" y="-246.5" font-family="Helvetica,sans-Serif" font-size="10.00">Kadath::Array&lt; double &gt;</text>
</a>
</g>
</g>
<!-- Node4&#45;&gt;Node6 -->
<g id="edge7" class="edge">
<title>Node4&#45;&gt;Node6</title>
<path fill="none" stroke="midnightblue" d="M236.91,-290C224.87,-279.96 209.44,-267.1 199.37,-258.71"/>
<polygon fill="midnightblue" stroke="midnightblue" points="234.68,-292.69 244.6,-296.41 239.16,-287.32 234.68,-292.69"/>
</g>
<!-- Node4&#45;&gt;Node7 -->
<g id="edge9" class="edge">
<title>Node4&#45;&gt;Node7</title>
<path fill="none" stroke="midnightblue" d="M256.42,-286.07C257.02,-277.77 257.62,-267.91 257.91,-259 258.2,-250.12 258.86,-247.84 257.91,-239 251.16,-176.23 230.77,-102.64 223.51,-77.74"/>
<polygon fill="midnightblue" stroke="midnightblue" points="252.92,-285.95 255.66,-296.19 259.9,-286.48 252.92,-285.95"/>
</g>
<!-- Node8 -->
<g id="node8" class="node">
<title>Node8</title>
<g id="a_node8"><a xlink:href="classKadath_1_1Base__spectral.html" target="_top" xlink:title=" ">
<polygon fill="none" stroke="black" points="304.91,-160.5 304.91,-179.5 418.91,-179.5 418.91,-160.5 304.91,-160.5"/>
<text text-anchor="middle" x="361.91" y="-167.5" font-family="Helvetica,sans-Serif" font-size="10.00">Kadath::Base_spectral</text>
</a>
</g>
</g>
<!-- Node4&#45;&gt;Node8 -->
<g id="edge13" class="edge">
<title>Node4&#45;&gt;Node8</title>
<path fill="none" stroke="midnightblue" d="M276.58,-290.63C281.57,-286.82 286.65,-282.51 290.91,-278 321.37,-245.74 347.38,-198.98 357.45,-179.75"/>
<polygon fill="midnightblue" stroke="midnightblue" points="274.52,-287.8 268.45,-296.49 278.61,-293.48 274.52,-287.8"/>
</g>
<!-- Node9 -->
<g id="node9" class="node">
<title>Node9</title>
<g id="a_node9"><a xlink:href="classKadath_1_1Array.html" target="_top" xlink:title=" ">
<polygon fill="none" stroke="black" points="343.41,-239.5 343.41,-258.5 444.41,-258.5 444.41,-239.5 343.41,-239.5"/>
<text text-anchor="middle" x="393.91" y="-246.5" font-family="Helvetica,sans-Serif" font-size="10.00">Kadath::Array&lt; int &gt;</text>
</a>
</g>
</g>
<!-- Node4&#45;&gt;Node9 -->
<g id="edge15" class="edge">
<title>Node4&#45;&gt;Node9</title>
<path fill="none" stroke="midnightblue" d="M289.04,-293.01C301.63,-288.46 315.98,-283.14 328.91,-278 344.44,-271.83 361.82,-264.31 374.69,-258.62"/>
<polygon fill="midnightblue" stroke="midnightblue" points="287.61,-289.8 279.37,-296.47 289.97,-296.39 287.61,-289.8"/>
</g>
<!-- Node5&#45;&gt;Node3 -->
<g id="edge4" class="edge">
<title>Node5&#45;&gt;Node3</title>
<path fill="none" stroke="#9a32cd" stroke-dasharray="5,2" d="M73.15,-230.22C81.35,-214.44 92.98,-192.04 99.34,-179.81"/>
<polygon fill="#9a32cd" stroke="#9a32cd" points="69.85,-228.98 68.35,-239.47 76.06,-232.2 69.85,-228.98"/>
<text text-anchor="middle" x="111.91" y="-213" font-family="Helvetica,sans-Serif" font-size="10.00"> nbr_coefs</text>
<text text-anchor="middle" x="111.91" y="-202" font-family="Helvetica,sans-Serif" font-size="10.00">nbr_points</text>
</g>
<!-- Node6&#45;&gt;Node3 -->
<g id="edge6" class="edge">
<title>Node6&#45;&gt;Node3</title>
<path fill="none" stroke="#9a32cd" stroke-dasharray="5,2" d="M173.66,-232.26C163.95,-222.44 150.97,-209.68 138.91,-199 131.22,-192.19 122.16,-184.96 115.18,-179.55"/>
<polygon fill="#9a32cd" stroke="#9a32cd" points="171.17,-234.72 180.67,-239.41 176.17,-229.82 171.17,-234.72"/>
<text text-anchor="middle" x="174.91" y="-207.5" font-family="Helvetica,sans-Serif" font-size="10.00"> coloc</text>
</g>
<!-- Node6&#45;&gt;Node7 -->
<g id="edge10" class="edge">
<title>Node6&#45;&gt;Node7</title>
<path fill="none" stroke="#9a32cd" stroke-dasharray="5,2" d="M192.29,-229.09C199.16,-190.68 214.5,-104.89 219.38,-77.55"/>
<polygon fill="#9a32cd" stroke="#9a32cd" points="188.77,-228.91 190.46,-239.37 195.66,-230.14 188.77,-228.91"/>
<text text-anchor="middle" x="209.41" y="-173" font-family="Helvetica,sans-Serif" font-size="10.00"> c</text>
<text text-anchor="middle" x="209.41" y="-162" font-family="Helvetica,sans-Serif" font-size="10.00">cf</text>
</g>
<!-- Node7&#45;&gt;Node3 -->
<g id="edge8" class="edge">
<title>Node7&#45;&gt;Node3</title>
<path fill="none" stroke="#9a32cd" stroke-dasharray="5,2" d="M188.58,-82.12C181.19,-86.13 173.8,-91.09 167.91,-97 152.34,-112.64 159.57,-124.51 144.91,-141 137.93,-148.86 128.29,-155.59 120.11,-160.48"/>
<polygon fill="#9a32cd" stroke="#9a32cd" points="190.41,-85.11 197.81,-77.53 187.3,-78.85 190.41,-85.11"/>
<text text-anchor="middle" x="187.41" y="-133" font-family="Helvetica,sans-Serif" font-size="10.00"> absol</text>
<text text-anchor="middle" x="187.41" y="-122" font-family="Helvetica,sans-Serif" font-size="10.00">cart</text>
<text text-anchor="middle" x="187.41" y="-111" font-family="Helvetica,sans-Serif" font-size="10.00">cart_surr</text>
<text text-anchor="middle" x="187.41" y="-100" font-family="Helvetica,sans-Serif" font-size="10.00">radius</text>
</g>
<!-- Node7&#45;&gt;Node7 -->
<g id="edge11" class="edge">
<title>Node7&#45;&gt;Node7</title>
<path fill="none" stroke="#9a32cd" stroke-dasharray="5,2" d="M282.73,-71.95C287.48,-71.08 290.41,-69.76 290.41,-68 290.41,-65.18 282.91,-63.5 272.44,-62.95"/>
<polygon fill="#9a32cd" stroke="#9a32cd" points="282.01,-68.51 272.44,-73.05 282.75,-75.47 282.01,-68.51"/>
<text text-anchor="middle" x="314.41" y="-71" font-family="Helvetica,sans-Serif" font-size="10.00"> p_der_abs</text>
<text text-anchor="middle" x="314.41" y="-60" font-family="Helvetica,sans-Serif" font-size="10.00">p_der_var</text>
</g>
<!-- Node8&#45;&gt;Node7 -->
<g id="edge12" class="edge">
<title>Node8&#45;&gt;Node7</title>
<path fill="none" stroke="#9a32cd" stroke-dasharray="5,2" d="M348.98,-152.36C335.82,-136.37 314.11,-112.41 290.91,-97 278.37,-88.67 262.98,-82.17 249.82,-77.54"/>
<polygon fill="#9a32cd" stroke="#9a32cd" points="346.38,-154.71 355.36,-160.32 351.84,-150.33 346.38,-154.71"/>
<text text-anchor="middle" x="349.91" y="-116.5" font-family="Helvetica,sans-Serif" font-size="10.00"> base</text>
</g>
<!-- Node9&#45;&gt;Node8 -->
<g id="edge14" class="edge">
<title>Node9&#45;&gt;Node8</title>
<path fill="none" stroke="#9a32cd" stroke-dasharray="5,2" d="M386.52,-230.22C379.97,-214.44 370.66,-192.04 365.57,-179.81"/>
<polygon fill="#9a32cd" stroke="#9a32cd" points="383.3,-231.57 390.37,-239.47 389.76,-228.89 383.3,-231.57"/>
<text text-anchor="middle" x="404.41" y="-207.5" font-family="Helvetica,sans-Serif" font-size="10.00"> bases_1d</text>
</g>
</g>
</svg>
