<?xml version="1.0" encoding="UTF-8" standalone="no"?>
<!DOCTYPE svg PUBLIC "-//W3C//DTD SVG 1.1//EN"
 "http://www.w3.org/Graphics/SVG/1.1/DTD/svg11.dtd">
<!-- Generated by graphviz version 2.47.1 (20210515.0534)
 -->
<!-- Title: Kadath::Equation Pages: 1 -->
<svg width="2105pt" height="820pt"
 viewBox="0.00 0.00 2105.00 820.00" xmlns="http://www.w3.org/2000/svg" xmlns:xlink="http://www.w3.org/1999/xlink">
<g id="graph0" class="graph" transform="scale(1 1) rotate(0) translate(4 816)">
<title>Kadath::Equation</title>
<!-- Node1 -->
<g id="node1" class="node">
<title>Node1</title>
<g id="a_node1"><a xlink:title=" ">
<polygon fill="#bfbfbf" stroke="black" points="1001,-512.5 1001,-531.5 1090,-531.5 1090,-512.5 1001,-512.5"/>
<text text-anchor="middle" x="1045.5" y="-519.5" font-family="Helvetica,sans-Serif" font-size="10.00">Kadath::Equation</text>
</a>
</g>
</g>
<!-- Node5 -->
<g id="node5" class="node">
<title>Node5</title>
<g id="a_node5"><a xlink:href="classKadath_1_1System__of__eqs.html" target="_top" xlink:title=" ">
<polygon fill="none" stroke="black" points="1685,-421.5 1685,-440.5 1804,-440.5 1804,-421.5 1685,-421.5"/>
<text text-anchor="middle" x="1744.5" y="-428.5" font-family="Helvetica,sans-Serif" font-size="10.00">Kadath::System_of_eqs</text>
</a>
</g>
</g>
<!-- Node1&#45;&gt;Node5 -->
<g id="edge8" class="edge">
<title>Node1&#45;&gt;Node5</title>
<path fill="none" stroke="#9a32cd" stroke-dasharray="5,2" d="M1100.6,-520.26C1138.61,-519.18 1190.66,-518 1236.5,-518 1236.5,-518 1236.5,-518 1551,-518 1604.48,-518 1618.76,-509.08 1667,-486 1692.67,-473.72 1718.79,-452.72 1732.88,-440.53"/>
<polygon fill="#9a32cd" stroke="#9a32cd" points="1100.16,-516.77 1090.26,-520.56 1100.36,-523.76 1100.16,-516.77"/>
<text text-anchor="middle" x="1394" y="-521" font-family="Helvetica,sans-Serif" font-size="10.00"> eq</text>
</g>
<!-- Node2 -->
<g id="node2" class="node">
<title>Node2</title>
<g id="a_node2"><a xlink:href="structKadath_1_1MemoryMappable.html" target="_top" xlink:title=" ">
<polygon fill="none" stroke="black" points="0,-337.5 0,-356.5 128,-356.5 128,-337.5 0,-337.5"/>
<text text-anchor="middle" x="64" y="-344.5" font-family="Helvetica,sans-Serif" font-size="10.00">Kadath::MemoryMappable</text>
</a>
</g>
</g>
<!-- Node2&#45;&gt;Node1 -->
<g id="edge1" class="edge">
<title>Node2&#45;&gt;Node1</title>
<path fill="none" stroke="midnightblue" d="M65.7,-366.89C69.19,-433.43 90.07,-644 214.5,-644 214.5,-644 214.5,-644 871.5,-644 949.41,-644 1016.92,-560.33 1037.83,-531.57"/>
<polygon fill="midnightblue" stroke="midnightblue" points="69.18,-366.38 65.24,-356.55 62.19,-366.69 69.18,-366.38"/>
</g>
<!-- Node3 -->
<g id="node3" class="node">
<title>Node3</title>
<g id="a_node3"><a xlink:href="classKadath_1_1Array.html" target="_top" xlink:title=" ">
<polygon fill="none" stroke="black" points="165,-337.5 165,-356.5 266,-356.5 266,-337.5 165,-337.5"/>
<text text-anchor="middle" x="215.5" y="-344.5" font-family="Helvetica,sans-Serif" font-size="10.00">Kadath::Array&lt; int &gt;</text>
</a>
</g>
</g>
<!-- Node2&#45;&gt;Node3 -->
<g id="edge3" class="edge">
<title>Node2&#45;&gt;Node3</title>
<path fill="none" stroke="midnightblue" d="M138.68,-347C147.46,-347 156.26,-347 164.6,-347"/>
<polygon fill="midnightblue" stroke="midnightblue" points="138.4,-343.5 128.4,-347 138.4,-350.5 138.4,-343.5"/>
</g>
<!-- Node4 -->
<g id="node4" class="node">
<title>Node4</title>
<g id="a_node4"><a xlink:href="classKadath_1_1Ope__eq.html" target="_top" xlink:title=" ">
<polygon fill="none" stroke="black" points="1861,-530.5 1861,-549.5 1947,-549.5 1947,-530.5 1861,-530.5"/>
<text text-anchor="middle" x="1904" y="-537.5" font-family="Helvetica,sans-Serif" font-size="10.00">Kadath::Ope_eq</text>
</a>
</g>
</g>
<!-- Node2&#45;&gt;Node4 -->
<g id="edge5" class="edge">
<title>Node2&#45;&gt;Node4</title>
<path fill="none" stroke="midnightblue" d="M65.65,-366.74C68.3,-424.98 81.49,-599.94 146,-726 162.94,-759.09 177.33,-774 214.5,-774 214.5,-774 214.5,-774 1745.5,-774 1855.44,-774 1893.68,-594.04 1901.43,-549.76"/>
<polygon fill="midnightblue" stroke="midnightblue" points="69.15,-366.55 65.25,-356.69 62.15,-366.83 69.15,-366.55"/>
</g>
<!-- Node6 -->
<g id="node6" class="node">
<title>Node6</title>
<g id="a_node6"><a xlink:href="classKadath_1_1Eq__int.html" target="_top" xlink:title=" ">
<polygon fill="none" stroke="black" points="2013,-530.5 2013,-549.5 2092,-549.5 2092,-530.5 2013,-530.5"/>
<text text-anchor="middle" x="2052.5" y="-537.5" font-family="Helvetica,sans-Serif" font-size="10.00">Kadath::Eq_int</text>
</a>
</g>
</g>
<!-- Node2&#45;&gt;Node6 -->
<g id="edge10" class="edge">
<title>Node2&#45;&gt;Node6</title>
<path fill="none" stroke="midnightblue" d="M67.29,-366.7C74.43,-424.99 98.72,-601.21 146,-740 160.24,-781.81 170.33,-812 214.5,-812 214.5,-812 214.5,-812 1905,-812 2026.75,-812 2047.77,-598.13 2050.97,-549.68"/>
<polygon fill="midnightblue" stroke="midnightblue" points="70.75,-366.18 66.09,-356.66 63.8,-367.01 70.75,-366.18"/>
</g>
<!-- Node7 -->
<g id="node7" class="node">
<title>Node7</title>
<g id="a_node7"><a xlink:href="classKadath_1_1Space.html" target="_top" xlink:title=" ">
<polygon fill="none" stroke="black" points="1005.5,-185.5 1005.5,-204.5 1085.5,-204.5 1085.5,-185.5 1005.5,-185.5"/>
<text text-anchor="middle" x="1045.5" y="-192.5" font-family="Helvetica,sans-Serif" font-size="10.00">Kadath::Space</text>
</a>
</g>
</g>
<!-- Node2&#45;&gt;Node7 -->
<g id="edge13" class="edge">
<title>Node2&#45;&gt;Node7</title>
<path fill="none" stroke="midnightblue" d="M72.81,-328.13C91.05,-287.42 140.61,-195 214.5,-195 214.5,-195 214.5,-195 871.5,-195 917.45,-195 970.27,-195 1005.34,-195"/>
<polygon fill="midnightblue" stroke="midnightblue" points="69.52,-326.92 68.76,-337.49 75.94,-329.7 69.52,-326.92"/>
</g>
<!-- Node8 -->
<g id="node8" class="node">
<title>Node8</title>
<g id="a_node8"><a xlink:href="classKadath_1_1Domain.html" target="_top" xlink:title=" ">
<polygon fill="none" stroke="black" points="828,-386.5 828,-405.5 913,-405.5 913,-386.5 828,-386.5"/>
<text text-anchor="middle" x="870.5" y="-393.5" font-family="Helvetica,sans-Serif" font-size="10.00">Kadath::Domain</text>
</a>
</g>
</g>
<!-- Node2&#45;&gt;Node8 -->
<g id="edge15" class="edge">
<title>Node2&#45;&gt;Node8</title>
<path fill="none" stroke="midnightblue" d="M68.53,-366.88C79.43,-421.18 117.84,-568 214.5,-568 214.5,-568 214.5,-568 702.5,-568 793.65,-568 851.06,-442.13 865.76,-405.74"/>
<polygon fill="midnightblue" stroke="midnightblue" points="71.92,-365.95 66.61,-356.78 65.04,-367.26 71.92,-365.95"/>
</g>
<!-- Node9 -->
<g id="node9" class="node">
<title>Node9</title>
<g id="a_node9"><a xlink:href="classKadath_1_1Dim__array.html" target="_top" xlink:title=" ">
<polygon fill="none" stroke="black" points="168,-596.5 168,-615.5 263,-615.5 263,-596.5 168,-596.5"/>
<text text-anchor="middle" x="215.5" y="-603.5" font-family="Helvetica,sans-Serif" font-size="10.00">Kadath::Dim_array</text>
</a>
</g>
</g>
<!-- Node2&#45;&gt;Node9 -->
<g id="edge17" class="edge">
<title>Node2&#45;&gt;Node9</title>
<path fill="none" stroke="midnightblue" d="M66.16,-366.67C69.85,-411.21 84.96,-520.65 146,-582 152.31,-588.34 160.39,-593.01 168.77,-596.45"/>
<polygon fill="midnightblue" stroke="midnightblue" points="69.65,-366.31 65.44,-356.59 62.66,-366.81 69.65,-366.31"/>
</g>
<!-- Node10 -->
<g id="node10" class="node">
<title>Node10</title>
<g id="a_node10"><a xlink:href="classKadath_1_1Array.html" target="_top" xlink:title=" ">
<polygon fill="none" stroke="black" points="382,-383.5 382,-402.5 501,-402.5 501,-383.5 382,-383.5"/>
<text text-anchor="middle" x="441.5" y="-390.5" font-family="Helvetica,sans-Serif" font-size="10.00">Kadath::Array&lt; double &gt;</text>
</a>
</g>
</g>
<!-- Node2&#45;&gt;Node10 -->
<g id="edge19" class="edge">
<title>Node2&#45;&gt;Node10</title>
<path fill="none" stroke="midnightblue" d="M120.87,-358.54C135.21,-361.24 150.64,-363.94 165,-366 239.45,-376.7 325.83,-384.41 381.74,-388.78"/>
<polygon fill="midnightblue" stroke="midnightblue" points="121.14,-355.02 110.66,-356.57 119.81,-361.9 121.14,-355.02"/>
</g>
<!-- Node11 -->
<g id="node11" class="node">
<title>Node11</title>
<g id="a_node11"><a xlink:href="classKadath_1_1Val__domain.html" target="_top" xlink:title=" ">
<polygon fill="none" stroke="black" points="650,-299.5 650,-318.5 753,-318.5 753,-299.5 650,-299.5"/>
<text text-anchor="middle" x="701.5" y="-306.5" font-family="Helvetica,sans-Serif" font-size="10.00">Kadath::Val_domain</text>
</a>
</g>
</g>
<!-- Node2&#45;&gt;Node11 -->
<g id="edge21" class="edge">
<title>Node2&#45;&gt;Node11</title>
<path fill="none" stroke="midnightblue" d="M104.54,-334.63C122.76,-329.47 144.79,-323.99 165,-321 341.62,-294.86 554.53,-301.18 649.94,-305.97"/>
<polygon fill="midnightblue" stroke="midnightblue" points="103.47,-331.29 94.85,-337.44 105.43,-338.01 103.47,-331.29"/>
</g>
<!-- Node12 -->
<g id="node12" class="node">
<title>Node12</title>
<g id="a_node12"><a xlink:href="classKadath_1_1Base__spectral.html" target="_top" xlink:title=" ">
<polygon fill="none" stroke="black" points="384.5,-337.5 384.5,-356.5 498.5,-356.5 498.5,-337.5 384.5,-337.5"/>
<text text-anchor="middle" x="441.5" y="-344.5" font-family="Helvetica,sans-Serif" font-size="10.00">Kadath::Base_spectral</text>
</a>
</g>
</g>
<!-- Node2&#45;&gt;Node12 -->
<g id="edge25" class="edge">
<title>Node2&#45;&gt;Node12</title>
<path fill="none" stroke="midnightblue" d="M115.67,-335.46C131.39,-332.4 148.84,-329.52 165,-328 240.78,-320.87 328.51,-329.89 384.24,-337.77"/>
<polygon fill="midnightblue" stroke="midnightblue" points="114.73,-332.08 105.62,-337.49 116.12,-338.94 114.73,-332.08"/>
</g>
<!-- Node13 -->
<g id="node13" class="node">
<title>Node13</title>
<g id="a_node13"><a xlink:href="classKadath_1_1Index.html" target="_top" xlink:title=" ">
<polygon fill="none" stroke="black" points="404,-672.5 404,-691.5 479,-691.5 479,-672.5 404,-672.5"/>
<text text-anchor="middle" x="441.5" y="-679.5" font-family="Helvetica,sans-Serif" font-size="10.00">Kadath::Index</text>
</a>
</g>
</g>
<!-- Node2&#45;&gt;Node13 -->
<g id="edge29" class="edge">
<title>Node2&#45;&gt;Node13</title>
<path fill="none" stroke="midnightblue" d="M67.22,-366.93C74.62,-429.41 100.56,-619.62 146,-658 219.28,-719.9 342.65,-704.17 403.82,-691.2"/>
<polygon fill="midnightblue" stroke="midnightblue" points="70.68,-366.35 66.06,-356.81 63.72,-367.15 70.68,-366.35"/>
</g>
<!-- Node14 -->
<g id="node14" class="node">
<title>Node14</title>
<g id="a_node14"><a xlink:href="classKadath_1_1Param.html" target="_top" xlink:title=" ">
<polygon fill="none" stroke="black" points="284,-720.5 284,-739.5 364,-739.5 364,-720.5 284,-720.5"/>
<text text-anchor="middle" x="324" y="-727.5" font-family="Helvetica,sans-Serif" font-size="10.00">Kadath::Param</text>
</a>
</g>
</g>
<!-- Node2&#45;&gt;Node14 -->
<g id="edge33" class="edge">
<title>Node2&#45;&gt;Node14</title>
<path fill="none" stroke="midnightblue" d="M66.44,-367.08C71.87,-436.59 93.5,-665.31 146,-712 183.28,-745.15 243.96,-743.64 283.69,-738"/>
<polygon fill="midnightblue" stroke="midnightblue" points="69.9,-366.39 65.66,-356.68 62.92,-366.91 69.9,-366.39"/>
</g>
<!-- Node15 -->
<g id="node15" class="node">
<title>Node15</title>
<g id="a_node15"><a xlink:href="classKadath_1_1Term__eq.html" target="_top" xlink:title=" ">
<polygon fill="none" stroke="black" points="1505,-182.5 1505,-201.5 1595,-201.5 1595,-182.5 1505,-182.5"/>
<text text-anchor="middle" x="1550" y="-189.5" font-family="Helvetica,sans-Serif" font-size="10.00">Kadath::Term_eq</text>
</a>
</g>
</g>
<!-- Node2&#45;&gt;Node15 -->
<g id="edge36" class="edge">
<title>Node2&#45;&gt;Node15</title>
<path fill="none" stroke="midnightblue" d="M65.36,-327.18C67.76,-258.95 85.49,-38 214.5,-38 214.5,-38 214.5,-38 1138,-38 1206.83,-38 1225.47,-40.93 1291,-62 1388.88,-93.48 1495.44,-157.91 1534.02,-182.33"/>
<polygon fill="midnightblue" stroke="midnightblue" points="61.86,-327.32 65.08,-337.41 68.86,-327.51 61.86,-327.32"/>
</g>
<!-- Node16 -->
<g id="node16" class="node">
<title>Node16</title>
<g id="a_node16"><a xlink:href="classKadath_1_1Tensor.html" target="_top" xlink:title=" ">
<polygon fill="none" stroke="black" points="1353,-226.5 1353,-245.5 1435,-245.5 1435,-226.5 1353,-226.5"/>
<text text-anchor="middle" x="1394" y="-233.5" font-family="Helvetica,sans-Serif" font-size="10.00">Kadath::Tensor</text>
</a>
</g>
</g>
<!-- Node2&#45;&gt;Node16 -->
<g id="edge38" class="edge">
<title>Node2&#45;&gt;Node16</title>
<path fill="none" stroke="midnightblue" d="M66.49,-327.25C72.38,-264.84 99.67,-76 214.5,-76 214.5,-76 214.5,-76 1238.5,-76 1322.68,-76 1375.53,-192.03 1389.36,-226.47"/>
<polygon fill="midnightblue" stroke="midnightblue" points="62.99,-327.09 65.63,-337.35 69.97,-327.69 62.99,-327.09"/>
</g>
<!-- Node18 -->
<g id="node18" class="node">
<title>Node18</title>
<g id="a_node18"><a xlink:href="classKadath_1_1Base__tensor.html" target="_top" xlink:title=" ">
<polygon fill="none" stroke="black" points="1184,-180.5 1184,-199.5 1291,-199.5 1291,-180.5 1184,-180.5"/>
<text text-anchor="middle" x="1237.5" y="-187.5" font-family="Helvetica,sans-Serif" font-size="10.00">Kadath::Base_tensor</text>
</a>
</g>
</g>
<!-- Node2&#45;&gt;Node18 -->
<g id="edge45" class="edge">
<title>Node2&#45;&gt;Node18</title>
<path fill="none" stroke="midnightblue" d="M70.19,-327.4C84.34,-278.87 128.44,-157 214.5,-157 214.5,-157 214.5,-157 958,-157 1038.46,-157 1131.09,-170.75 1186.65,-180.5"/>
<polygon fill="midnightblue" stroke="midnightblue" points="66.74,-326.74 67.42,-337.32 73.48,-328.63 66.74,-326.74"/>
</g>
<!-- Node19 -->
<g id="node19" class="node">
<title>Node19</title>
<g id="a_node19"><a xlink:href="classKadath_1_1Param__tensor.html" target="_top" xlink:title=" ">
<polygon fill="none" stroke="black" points="519,-105.5 519,-124.5 632,-124.5 632,-105.5 519,-105.5"/>
<text text-anchor="middle" x="575.5" y="-112.5" font-family="Helvetica,sans-Serif" font-size="10.00">Kadath::Param_tensor</text>
</a>
</g>
</g>
<!-- Node2&#45;&gt;Node19 -->
<g id="edge49" class="edge">
<title>Node2&#45;&gt;Node19</title>
<path fill="none" stroke="midnightblue" d="M66.2,-327.08C69.92,-285.01 85.03,-187.36 146,-143 203.95,-100.84 416.52,-106.21 518.8,-111.5"/>
<polygon fill="midnightblue" stroke="midnightblue" points="62.7,-326.93 65.44,-337.16 69.68,-327.45 62.7,-326.93"/>
</g>
<!-- Node20 -->
<g id="node20" class="node">
<title>Node20</title>
<g id="a_node20"><a xlink:href="classKadath_1_1Metric.html" target="_top" xlink:title=" ">
<polygon fill="none" stroke="black" points="1864.5,-182.5 1864.5,-201.5 1943.5,-201.5 1943.5,-182.5 1864.5,-182.5"/>
<text text-anchor="middle" x="1904" y="-189.5" font-family="Helvetica,sans-Serif" font-size="10.00">Kadath::Metric</text>
</a>
</g>
</g>
<!-- Node2&#45;&gt;Node20 -->
<g id="edge51" class="edge">
<title>Node2&#45;&gt;Node20</title>
<path fill="none" stroke="midnightblue" d="M64.46,-327.14C63.58,-253.47 70.98,0 214.5,0 214.5,0 214.5,0 1745.5,0 1841,0 1889.15,-143.74 1900.39,-182.48"/>
<polygon fill="midnightblue" stroke="midnightblue" points="60.97,-327.42 64.65,-337.36 67.96,-327.29 60.97,-327.42"/>
</g>
<!-- Node3&#45;&gt;Node1 -->
<g id="edge2" class="edge">
<title>Node3&#45;&gt;Node1</title>
<path fill="none" stroke="#9a32cd" stroke-dasharray="5,2" d="M220.22,-366.44C227.13,-396.94 244.94,-455.67 284,-486 340.08,-529.54 369.51,-518 440.5,-518 440.5,-518 440.5,-518 871.5,-518 915.51,-518 965.81,-519.31 1000.78,-520.43"/>
<polygon fill="#9a32cd" stroke="#9a32cd" points="223.63,-365.65 218.15,-356.58 216.78,-367.09 223.63,-365.65"/>
<text text-anchor="middle" x="701.5" y="-532" font-family="Helvetica,sans-Serif" font-size="10.00"> n_cond</text>
<text text-anchor="middle" x="701.5" y="-521" font-family="Helvetica,sans-Serif" font-size="10.00">p_cmp_used</text>
</g>
<!-- Node3&#45;&gt;Node5 -->
<g id="edge31" class="edge">
<title>Node3&#45;&gt;Node5</title>
<path fill="none" stroke="#9a32cd" stroke-dasharray="5,2" d="M233.12,-364.24C268.05,-398.53 353.09,-472 440.5,-472 440.5,-472 440.5,-472 1551,-472 1611.14,-472 1679.57,-452.62 1716.47,-440.51"/>
<polygon fill="#9a32cd" stroke="#9a32cd" points="235.25,-361.42 225.71,-356.81 230.29,-366.36 235.25,-361.42"/>
<text text-anchor="middle" x="1045.5" y="-486" font-family="Helvetica,sans-Serif" font-size="10.00"> assoc_var</text>
<text text-anchor="middle" x="1045.5" y="-475" font-family="Helvetica,sans-Serif" font-size="10.00">assoc_var_double</text>
</g>
<!-- Node3&#45;&gt;Node12 -->
<g id="edge26" class="edge">
<title>Node3&#45;&gt;Node12</title>
<path fill="none" stroke="#9a32cd" stroke-dasharray="5,2" d="M276.33,-347C309.82,-347 351.33,-347 384.22,-347"/>
<polygon fill="#9a32cd" stroke="#9a32cd" points="276.21,-343.5 266.21,-347 276.21,-350.5 276.21,-343.5"/>
<text text-anchor="middle" x="324" y="-350" font-family="Helvetica,sans-Serif" font-size="10.00"> bases_1d</text>
</g>
<!-- Node3&#45;&gt;Node16 -->
<g id="edge43" class="edge">
<title>Node3&#45;&gt;Node16</title>
<path fill="none" stroke="#9a32cd" stroke-dasharray="5,2" d="M276.22,-339.06C337.24,-330.96 434.71,-318.04 519,-307 577.21,-299.37 591.57,-295.7 650,-290 953.66,-260.35 1031.74,-278.42 1335,-245 1340.77,-244.36 1346.85,-243.56 1352.81,-242.71"/>
<polygon fill="#9a32cd" stroke="#9a32cd" points="275.46,-335.63 266.01,-340.42 276.39,-342.57 275.46,-335.63"/>
<text text-anchor="middle" x="870.5" y="-289" font-family="Helvetica,sans-Serif" font-size="10.00"> give_indices</text>
<text text-anchor="middle" x="870.5" y="-278" font-family="Helvetica,sans-Serif" font-size="10.00">type_indice</text>
</g>
<!-- Node3&#45;&gt;Node18 -->
<g id="edge47" class="edge">
<title>Node3&#45;&gt;Node18</title>
<path fill="none" stroke="#9a32cd" stroke-dasharray="5,2" d="M261.16,-332.57C262.85,-331.47 264.47,-330.28 266,-329 278.22,-318.78 270.69,-306.75 284,-298 366.31,-243.88 1068.84,-224.22 1166,-208 1178.46,-205.92 1191.94,-202.72 1203.75,-199.59"/>
<polygon fill="#9a32cd" stroke="#9a32cd" points="259.32,-329.59 252.23,-337.46 262.68,-335.73 259.32,-329.59"/>
<text text-anchor="middle" x="790.5" y="-237" font-family="Helvetica,sans-Serif" font-size="10.00"> basis</text>
</g>
<!-- Node4&#45;&gt;Node1 -->
<g id="edge4" class="edge">
<title>Node4&#45;&gt;Node1</title>
<path fill="none" stroke="#9a32cd" stroke-dasharray="5,2" d="M1850.67,-548.5C1820.1,-552.75 1780.71,-557 1745.5,-557 1236.5,-557 1236.5,-557 1236.5,-557 1180.15,-557 1115.93,-541.93 1078.44,-531.56"/>
<polygon fill="#9a32cd" stroke="#9a32cd" points="1851.28,-551.95 1860.69,-547.06 1850.29,-545.02 1851.28,-551.95"/>
<text text-anchor="middle" x="1470" y="-560" font-family="Helvetica,sans-Serif" font-size="10.00"> parts</text>
</g>
<!-- Node4&#45;&gt;Node4 -->
<g id="edge6" class="edge">
<title>Node4&#45;&gt;Node4</title>
<path fill="none" stroke="#9a32cd" stroke-dasharray="5,2" d="M1891.11,-559.77C1892.12,-564.5 1896.42,-568 1904,-568 1916.44,-568 1920.04,-558.57 1914.79,-549.76"/>
<polygon fill="#9a32cd" stroke="#9a32cd" points="1894.58,-560.26 1893.21,-549.76 1887.73,-558.82 1894.58,-560.26"/>
<text text-anchor="middle" x="1904" y="-571" font-family="Helvetica,sans-Serif" font-size="10.00"> parts</text>
</g>
<!-- Node4&#45;&gt;Node6 -->
<g id="edge11" class="edge">
<title>Node4&#45;&gt;Node6</title>
<path fill="none" stroke="#9a32cd" stroke-dasharray="5,2" d="M1957.55,-540C1975.76,-540 1995.83,-540 2012.73,-540"/>
<polygon fill="#9a32cd" stroke="#9a32cd" points="1957.37,-536.5 1947.37,-540 1957.37,-543.5 1957.37,-536.5"/>
<text text-anchor="middle" x="1977.5" y="-543" font-family="Helvetica,sans-Serif" font-size="10.00"> parts</text>
</g>
<!-- Node21 -->
<g id="node21" class="node">
<title>Node21</title>
<g id="a_node21"><a xlink:href="classKadath_1_1Ope__def.html" target="_top" xlink:title=" ">
<polygon fill="none" stroke="black" points="2008,-421.5 2008,-440.5 2097,-440.5 2097,-421.5 2008,-421.5"/>
<text text-anchor="middle" x="2052.5" y="-428.5" font-family="Helvetica,sans-Serif" font-size="10.00">Kadath::Ope_def</text>
</a>
</g>
</g>
<!-- Node4&#45;&gt;Node21 -->
<g id="edge57" class="edge">
<title>Node4&#45;&gt;Node21</title>
<path fill="none" stroke="midnightblue" d="M1926.32,-524.14C1957.06,-501.27 2012.93,-459.7 2038.32,-440.81"/>
<polygon fill="midnightblue" stroke="midnightblue" points="1923.93,-521.55 1918,-530.33 1928.11,-527.17 1923.93,-521.55"/>
</g>
<!-- Node5&#45;&gt;Node4 -->
<g id="edge7" class="edge">
<title>Node5&#45;&gt;Node4</title>
<path fill="none" stroke="#9a32cd" stroke-dasharray="5,2" d="M1762.68,-448.22C1777.56,-462.58 1800.1,-483.05 1822,-498 1840.97,-510.95 1864.44,-522.7 1881.22,-530.46"/>
<polygon fill="#9a32cd" stroke="#9a32cd" points="1764.84,-445.43 1755.25,-440.94 1759.94,-450.43 1764.84,-445.43"/>
<text text-anchor="middle" x="1832.5" y="-512" font-family="Helvetica,sans-Serif" font-size="10.00"> syst</text>
</g>
<!-- Node5&#45;&gt;Node20 -->
<g id="edge53" class="edge">
<title>Node5&#45;&gt;Node20</title>
<path fill="none" stroke="#9a32cd" stroke-dasharray="5,2" d="M1752.66,-411.97C1764.54,-381.66 1790.19,-321.23 1822,-276 1843.09,-246 1874.85,-216.43 1891.65,-201.68"/>
<polygon fill="#9a32cd" stroke="#9a32cd" points="1749.37,-410.77 1749.05,-421.36 1755.9,-413.28 1749.37,-410.77"/>
<text text-anchor="middle" x="1832.5" y="-279" font-family="Helvetica,sans-Serif" font-size="10.00"> syst</text>
</g>
<!-- Node6&#45;&gt;Node5 -->
<g id="edge9" class="edge">
<title>Node6&#45;&gt;Node5</title>
<path fill="none" stroke="#9a32cd" stroke-dasharray="5,2" d="M2014.99,-527C1952.72,-504.81 1827.37,-460.16 1772.39,-440.58"/>
<polygon fill="#9a32cd" stroke="#9a32cd" points="2014.19,-530.42 2024.78,-530.48 2016.54,-523.83 2014.19,-530.42"/>
<text text-anchor="middle" x="1904" y="-504" font-family="Helvetica,sans-Serif" font-size="10.00"> eq_int</text>
</g>
<!-- Node7&#45;&gt;Node5 -->
<g id="edge12" class="edge">
<title>Node7&#45;&gt;Node5</title>
<path fill="none" stroke="#9a32cd" stroke-dasharray="5,2" d="M1073.64,-209.26C1084.22,-214.54 1096.53,-220.37 1108,-225 1331.44,-315.19 1610.75,-394.66 1708.1,-421.42"/>
<polygon fill="#9a32cd" stroke="#9a32cd" points="1075,-206.02 1064.5,-204.61 1071.82,-212.26 1075,-206.02"/>
<text text-anchor="middle" x="1394" y="-342" font-family="Helvetica,sans-Serif" font-size="10.00"> espace</text>
</g>
<!-- Node7&#45;&gt;Node16 -->
<g id="edge39" class="edge">
<title>Node7&#45;&gt;Node16</title>
<path fill="none" stroke="#9a32cd" stroke-dasharray="5,2" d="M1095.88,-205.93C1099.97,-206.69 1104.05,-207.39 1108,-208 1194.72,-221.38 1297.34,-229.62 1352.71,-233.45"/>
<polygon fill="#9a32cd" stroke="#9a32cd" points="1096.23,-202.44 1085.75,-203.97 1094.9,-209.31 1096.23,-202.44"/>
<text text-anchor="middle" x="1237.5" y="-231" font-family="Helvetica,sans-Serif" font-size="10.00"> espace</text>
</g>
<!-- Node7&#45;&gt;Node18 -->
<g id="edge46" class="edge">
<title>Node7&#45;&gt;Node18</title>
<path fill="none" stroke="#9a32cd" stroke-dasharray="5,2" d="M1095.88,-193.7C1122.88,-192.99 1156.34,-192.11 1183.84,-191.39"/>
<polygon fill="#9a32cd" stroke="#9a32cd" points="1095.77,-190.2 1085.87,-193.96 1095.96,-197.2 1095.77,-190.2"/>
<text text-anchor="middle" x="1137" y="-196" font-family="Helvetica,sans-Serif" font-size="10.00"> space</text>
</g>
<!-- Node7&#45;&gt;Node20 -->
<g id="edge52" class="edge">
<title>Node7&#45;&gt;Node20</title>
<path fill="none" stroke="#9a32cd" stroke-dasharray="5,2" d="M1076.64,-181.31C1135.93,-155.68 1272.43,-103 1393,-103 1393,-103 1393,-103 1641,-103 1690,-103 1827.28,-159.52 1881.03,-182.48"/>
<polygon fill="#9a32cd" stroke="#9a32cd" points="1075.23,-178.11 1067.47,-185.33 1078.04,-184.52 1075.23,-178.11"/>
<text text-anchor="middle" x="1470" y="-106" font-family="Helvetica,sans-Serif" font-size="10.00"> espace</text>
</g>
<!-- Node8&#45;&gt;Node1 -->
<g id="edge59" class="edge">
<title>Node8&#45;&gt;Node1</title>
<path fill="none" stroke="#9a32cd" stroke-dasharray="5,2" d="M890.27,-412.39C914.83,-433.44 959.61,-470.55 1001,-498 1008.76,-503.15 1017.72,-508.23 1025.48,-512.37"/>
<polygon fill="#9a32cd" stroke="#9a32cd" points="892.32,-409.54 882.47,-405.65 887.75,-414.83 892.32,-409.54"/>
<text text-anchor="middle" x="957" y="-488" font-family="Helvetica,sans-Serif" font-size="10.00"> dom</text>
</g>
<!-- Node8&#45;&gt;Node7 -->
<g id="edge14" class="edge">
<title>Node8&#45;&gt;Node7</title>
<path fill="none" stroke="#9a32cd" stroke-dasharray="5,2" d="M886.55,-378.52C921.84,-337.51 1009.01,-236.23 1036.24,-204.6"/>
<polygon fill="#9a32cd" stroke="#9a32cd" points="883.71,-376.44 879.84,-386.31 889.02,-381.01 883.71,-376.44"/>
<text text-anchor="middle" x="957" y="-328" font-family="Helvetica,sans-Serif" font-size="10.00"> domains</text>
</g>
<!-- Node8&#45;&gt;Node11 -->
<g id="edge27" class="edge">
<title>Node8&#45;&gt;Node11</title>
<path fill="none" stroke="#9a32cd" stroke-dasharray="5,2" d="M854.45,-378.56C846.5,-369.26 836.62,-357.59 828,-347 819.8,-336.93 821.25,-330.48 810,-324 793.02,-314.22 772.09,-309.91 753.23,-308.24"/>
<polygon fill="#9a32cd" stroke="#9a32cd" points="851.95,-381.02 861.12,-386.33 857.26,-376.46 851.95,-381.02"/>
<text text-anchor="middle" x="790.5" y="-327" font-family="Helvetica,sans-Serif" font-size="10.00"> zone</text>
</g>
<!-- Node9&#45;&gt;Node8 -->
<g id="edge16" class="edge">
<title>Node9&#45;&gt;Node8</title>
<path fill="none" stroke="#9a32cd" stroke-dasharray="5,2" d="M273.48,-605.45C417.99,-603.82 788.89,-598.08 810,-582 867.72,-538.05 870.52,-437.6 869.88,-405.83"/>
<polygon fill="#9a32cd" stroke="#9a32cd" points="273.02,-601.95 263.06,-605.56 273.1,-608.95 273.02,-601.95"/>
<text text-anchor="middle" x="575.5" y="-614" font-family="Helvetica,sans-Serif" font-size="10.00"> nbr_coefs</text>
<text text-anchor="middle" x="575.5" y="-603" font-family="Helvetica,sans-Serif" font-size="10.00">nbr_points</text>
</g>
<!-- Node9&#45;&gt;Node13 -->
<g id="edge30" class="edge">
<title>Node9&#45;&gt;Node13</title>
<path fill="none" stroke="#9a32cd" stroke-dasharray="5,2" d="M254.5,-618.89C299.22,-634.07 372.43,-658.9 412.36,-672.45"/>
<polygon fill="#9a32cd" stroke="#9a32cd" points="255.46,-615.52 244.87,-615.63 253.21,-622.15 255.46,-615.52"/>
<text text-anchor="middle" x="324" y="-658" font-family="Helvetica,sans-Serif" font-size="10.00"> sizes</text>
</g>
<!-- Node10&#45;&gt;Node5 -->
<g id="edge34" class="edge">
<title>Node10&#45;&gt;Node5</title>
<path fill="none" stroke="#9a32cd" stroke-dasharray="5,2" d="M486.7,-404.93C497.22,-407.34 508.45,-409.57 519,-411 576.74,-418.82 591.76,-414.29 650,-416 865.95,-422.34 919.95,-426 1136,-426 1136,-426 1136,-426 1551,-426 1595.97,-426 1646.82,-427.38 1684.96,-428.69"/>
<polygon fill="#9a32cd" stroke="#9a32cd" points="487.43,-401.5 476.89,-402.58 485.8,-408.31 487.43,-401.5"/>
<text text-anchor="middle" x="1137" y="-429" font-family="Helvetica,sans-Serif" font-size="10.00"> val_cst_hard</text>
</g>
<!-- Node10&#45;&gt;Node8 -->
<g id="edge18" class="edge">
<title>Node10&#45;&gt;Node8</title>
<path fill="none" stroke="#9a32cd" stroke-dasharray="5,2" d="M511.58,-395.44C578.05,-397.66 681.38,-400.77 771,-402 788.33,-402.24 792.69,-402.87 810,-402 815.81,-401.71 821.92,-401.26 827.93,-400.73"/>
<polygon fill="#9a32cd" stroke="#9a32cd" points="511.35,-391.93 501.24,-395.09 511.11,-398.93 511.35,-391.93"/>
<text text-anchor="middle" x="701.5" y="-404" font-family="Helvetica,sans-Serif" font-size="10.00"> coloc</text>
</g>
<!-- Node10&#45;&gt;Node11 -->
<g id="edge22" class="edge">
<title>Node10&#45;&gt;Node11</title>
<path fill="none" stroke="#9a32cd" stroke-dasharray="5,2" d="M472.01,-379.09C489.41,-371.05 509.77,-361.95 519,-359 567.82,-343.39 582.86,-350.56 632,-336 648.06,-331.24 665.62,-324.28 678.94,-318.62"/>
<polygon fill="#9a32cd" stroke="#9a32cd" points="470.33,-376.01 462.74,-383.4 473.28,-382.36 470.33,-376.01"/>
<text text-anchor="middle" x="575.5" y="-373" font-family="Helvetica,sans-Serif" font-size="10.00"> c</text>
<text text-anchor="middle" x="575.5" y="-362" font-family="Helvetica,sans-Serif" font-size="10.00">cf</text>
</g>
<!-- Node11&#45;&gt;Node8 -->
<g id="edge20" class="edge">
<title>Node11&#45;&gt;Node8</title>
<path fill="none" stroke="#9a32cd" stroke-dasharray="5,2" d="M735.41,-322.57C756.99,-331.82 785.62,-344.75 810,-358 826.15,-366.78 843.8,-378.32 855.65,-386.37"/>
<polygon fill="#9a32cd" stroke="#9a32cd" points="736.6,-319.27 726.03,-318.59 733.87,-325.72 736.6,-319.27"/>
<text text-anchor="middle" x="790.5" y="-394" font-family="Helvetica,sans-Serif" font-size="10.00"> absol</text>
<text text-anchor="middle" x="790.5" y="-383" font-family="Helvetica,sans-Serif" font-size="10.00">cart</text>
<text text-anchor="middle" x="790.5" y="-372" font-family="Helvetica,sans-Serif" font-size="10.00">cart_surr</text>
<text text-anchor="middle" x="790.5" y="-361" font-family="Helvetica,sans-Serif" font-size="10.00">radius</text>
</g>
<!-- Node11&#45;&gt;Node11 -->
<g id="edge23" class="edge">
<title>Node11&#45;&gt;Node11</title>
<path fill="none" stroke="#9a32cd" stroke-dasharray="5,2" d="M685.2,-328.4C686.29,-333.31 691.72,-337 701.5,-337 717.14,-337 721.66,-327.57 715.06,-318.76"/>
<polygon fill="#9a32cd" stroke="#9a32cd" points="688.58,-329.33 687.94,-318.76 681.84,-327.42 688.58,-329.33"/>
<text text-anchor="middle" x="701.5" y="-351" font-family="Helvetica,sans-Serif" font-size="10.00"> p_der_abs</text>
<text text-anchor="middle" x="701.5" y="-340" font-family="Helvetica,sans-Serif" font-size="10.00">p_der_var</text>
</g>
<!-- Node17 -->
<g id="node17" class="node">
<title>Node17</title>
<g id="a_node17"><a xlink:href="classKadath_1_1Scalar.html" target="_top" xlink:title=" ">
<polygon fill="none" stroke="black" points="1510,-253.5 1510,-272.5 1590,-272.5 1590,-253.5 1510,-253.5"/>
<text text-anchor="middle" x="1550" y="-260.5" font-family="Helvetica,sans-Serif" font-size="10.00">Kadath::Scalar</text>
</a>
</g>
</g>
<!-- Node11&#45;&gt;Node17 -->
<g id="edge42" class="edge">
<title>Node11&#45;&gt;Node17</title>
<path fill="none" stroke="#9a32cd" stroke-dasharray="5,2" d="M763.53,-304.47C778.74,-304.12 794.99,-304.41 810,-306 864.7,-311.81 876.33,-325.93 931,-332 1117.42,-352.7 1165.44,-335.11 1353,-336 1389.44,-336.17 1400.45,-347.6 1435,-336 1471.99,-323.58 1471.48,-302.97 1505,-283 1511.34,-279.22 1518.53,-275.68 1525.22,-272.65"/>
<polygon fill="#9a32cd" stroke="#9a32cd" points="763.07,-300.98 753.19,-304.81 763.3,-307.98 763.07,-300.98"/>
<text text-anchor="middle" x="1137" y="-345" font-family="Helvetica,sans-Serif" font-size="10.00"> val_zones</text>
</g>
<!-- Node12&#45;&gt;Node11 -->
<g id="edge24" class="edge">
<title>Node12&#45;&gt;Node11</title>
<path fill="none" stroke="#9a32cd" stroke-dasharray="5,2" d="M480.69,-334.46C492.82,-330.9 506.37,-327.35 519,-325 562.69,-316.87 613.1,-312.84 649.68,-310.87"/>
<polygon fill="#9a32cd" stroke="#9a32cd" points="479.44,-331.18 470.89,-337.43 481.47,-337.88 479.44,-331.18"/>
<text text-anchor="middle" x="575.5" y="-328" font-family="Helvetica,sans-Serif" font-size="10.00"> base</text>
</g>
<!-- Node13&#45;&gt;Node5 -->
<g id="edge28" class="edge">
<title>Node13&#45;&gt;Node5</title>
<path fill="none" stroke="#9a32cd" stroke-dasharray="5,2" d="M489.61,-681.54C601.65,-680.49 892.81,-678 1136,-678 1136,-678 1136,-678 1551,-678 1673.6,-678 1729.58,-486.35 1741.17,-440.68"/>
<polygon fill="#9a32cd" stroke="#9a32cd" points="489.31,-678.04 479.34,-681.64 489.37,-685.04 489.31,-678.04"/>
<text text-anchor="middle" x="1137" y="-681" font-family="Helvetica,sans-Serif" font-size="10.00"> which_coef</text>
</g>
<!-- Node14&#45;&gt;Node5 -->
<g id="edge32" class="edge">
<title>Node14&#45;&gt;Node5</title>
<path fill="none" stroke="#9a32cd" stroke-dasharray="5,2" d="M374.59,-728.11C424.93,-726.35 505.13,-724 574.5,-724 574.5,-724 574.5,-724 1551,-724 1689.77,-724 1734.05,-491.59 1742.08,-440.75"/>
<polygon fill="#9a32cd" stroke="#9a32cd" points="374.19,-724.62 364.32,-728.47 374.43,-731.61 374.19,-724.62"/>
<text text-anchor="middle" x="1045.5" y="-738" font-family="Helvetica,sans-Serif" font-size="10.00"> paruser</text>
<text text-anchor="middle" x="1045.5" y="-727" font-family="Helvetica,sans-Serif" font-size="10.00">paruser_bin</text>
</g>
<!-- Node15&#45;&gt;Node5 -->
<g id="edge35" class="edge">
<title>Node15&#45;&gt;Node5</title>
<path fill="none" stroke="#9a32cd" stroke-dasharray="5,2" d="M1598.56,-204.32C1625.97,-212.26 1656.95,-222.94 1667,-233 1683.99,-250 1676.55,-261.5 1685,-284 1704.59,-336.2 1729.9,-398.05 1739.54,-421.42"/>
<polygon fill="#9a32cd" stroke="#9a32cd" points="1599.24,-200.87 1588.66,-201.52 1597.34,-207.61 1599.24,-200.87"/>
<text text-anchor="middle" x="1640" y="-302" font-family="Helvetica,sans-Serif" font-size="10.00"> cst</text>
<text text-anchor="middle" x="1640" y="-291" font-family="Helvetica,sans-Serif" font-size="10.00">cst_hard</text>
<text text-anchor="middle" x="1640" y="-280" font-family="Helvetica,sans-Serif" font-size="10.00">opeuser</text>
<text text-anchor="middle" x="1640" y="-269" font-family="Helvetica,sans-Serif" font-size="10.00">opeuser_bin</text>
<text text-anchor="middle" x="1640" y="-258" font-family="Helvetica,sans-Serif" font-size="10.00">results</text>
<text text-anchor="middle" x="1640" y="-247" font-family="Helvetica,sans-Serif" font-size="10.00">term</text>
<text text-anchor="middle" x="1640" y="-236" font-family="Helvetica,sans-Serif" font-size="10.00">term_double</text>
</g>
<!-- Node15&#45;&gt;Node20 -->
<g id="edge54" class="edge">
<title>Node15&#45;&gt;Node20</title>
<path fill="none" stroke="#9a32cd" stroke-dasharray="5,2" d="M1605.41,-192C1677.13,-192 1801.54,-192 1864.35,-192"/>
<polygon fill="#9a32cd" stroke="#9a32cd" points="1605.22,-188.5 1595.22,-192 1605.22,-195.5 1605.22,-188.5"/>
<text text-anchor="middle" x="1744.5" y="-272" font-family="Helvetica,sans-Serif" font-size="10.00"> p_christo</text>
<text text-anchor="middle" x="1744.5" y="-261" font-family="Helvetica,sans-Serif" font-size="10.00">p_det_cov</text>
<text text-anchor="middle" x="1744.5" y="-250" font-family="Helvetica,sans-Serif" font-size="10.00">p_dirac</text>
<text text-anchor="middle" x="1744.5" y="-239" font-family="Helvetica,sans-Serif" font-size="10.00">p_met_con</text>
<text text-anchor="middle" x="1744.5" y="-228" font-family="Helvetica,sans-Serif" font-size="10.00">p_met_cov</text>
<text text-anchor="middle" x="1744.5" y="-217" font-family="Helvetica,sans-Serif" font-size="10.00">p_ricci_scalar</text>
<text text-anchor="middle" x="1744.5" y="-206" font-family="Helvetica,sans-Serif" font-size="10.00">p_ricci_tensor</text>
<text text-anchor="middle" x="1744.5" y="-195" font-family="Helvetica,sans-Serif" font-size="10.00">p_riemann</text>
</g>
<!-- Node15&#45;&gt;Node21 -->
<g id="edge58" class="edge">
<title>Node15&#45;&gt;Node21</title>
<path fill="none" stroke="#9a32cd" stroke-dasharray="5,2" d="M1583.07,-178.66C1655.2,-150.99 1832.79,-96.04 1947,-173 2035.77,-232.82 2049.16,-382.27 2051.15,-421.46"/>
<polygon fill="#9a32cd" stroke="#9a32cd" points="1581.65,-175.46 1573.61,-182.37 1584.2,-181.98 1581.65,-175.46"/>
<text text-anchor="middle" x="1832.5" y="-140" font-family="Helvetica,sans-Serif" font-size="10.00"> res</text>
</g>
<!-- Node16&#45;&gt;Node5 -->
<g id="edge55" class="edge">
<title>Node16&#45;&gt;Node5</title>
<path fill="none" stroke="#9a32cd" stroke-dasharray="5,2" d="M1422.76,-250.18C1432.3,-254.97 1443.08,-260.3 1453,-265 1547.2,-309.65 1579.88,-303.75 1667,-361 1694.38,-378.99 1721.5,-406.78 1734.88,-421.34"/>
<polygon fill="#9a32cd" stroke="#9a32cd" points="1424.21,-246.99 1413.71,-245.6 1421.06,-253.24 1424.21,-246.99"/>
<text text-anchor="middle" x="1550" y="-323" font-family="Helvetica,sans-Serif" font-size="10.00"> var</text>
</g>
<!-- Node16&#45;&gt;Node15 -->
<g id="edge37" class="edge">
<title>Node16&#45;&gt;Node15</title>
<path fill="none" stroke="#9a32cd" stroke-dasharray="5,2" d="M1420.61,-221.69C1430.48,-216.71 1442.02,-211.49 1453,-208 1469.59,-202.73 1488.37,-199.11 1504.89,-196.67"/>
<polygon fill="#9a32cd" stroke="#9a32cd" points="1418.97,-218.6 1411.73,-226.34 1422.21,-224.8 1418.97,-218.6"/>
<text text-anchor="middle" x="1470" y="-222" font-family="Helvetica,sans-Serif" font-size="10.00"> der_t</text>
<text text-anchor="middle" x="1470" y="-211" font-family="Helvetica,sans-Serif" font-size="10.00">val_t</text>
</g>
<!-- Node16&#45;&gt;Node17 -->
<g id="edge41" class="edge">
<title>Node16&#45;&gt;Node17</title>
<path fill="none" stroke="midnightblue" d="M1444.99,-247.46C1447.7,-248 1450.38,-248.52 1453,-249 1471.55,-252.43 1492.24,-255.53 1509.66,-257.95"/>
<polygon fill="midnightblue" stroke="midnightblue" points="1445.67,-244.02 1435.17,-245.42 1444.25,-250.88 1445.67,-244.02"/>
</g>
<!-- Node17&#45;&gt;Node16 -->
<g id="edge40" class="edge">
<title>Node17&#45;&gt;Node16</title>
<path fill="none" stroke="#9a32cd" stroke-dasharray="5,2" d="M1520.9,-249.17C1510.5,-244.73 1498.46,-240.35 1487,-238 1470.26,-234.56 1451.44,-233.65 1435.2,-233.75"/>
<polygon fill="#9a32cd" stroke="#9a32cd" points="1519.73,-252.48 1530.29,-253.38 1522.6,-246.09 1519.73,-252.48"/>
<text text-anchor="middle" x="1470" y="-241" font-family="Helvetica,sans-Serif" font-size="10.00"> cmp</text>
</g>
<!-- Node18&#45;&gt;Node16 -->
<g id="edge44" class="edge">
<title>Node18&#45;&gt;Node16</title>
<path fill="none" stroke="#9a32cd" stroke-dasharray="5,2" d="M1300.99,-201.75C1312.41,-204.42 1324.14,-207.51 1335,-211 1348.15,-215.22 1362.41,-221.35 1373.5,-226.47"/>
<polygon fill="#9a32cd" stroke="#9a32cd" points="1301.6,-198.3 1291.07,-199.52 1300.06,-205.13 1301.6,-198.3"/>
<text text-anchor="middle" x="1322" y="-214" font-family="Helvetica,sans-Serif" font-size="10.00"> basis</text>
</g>
<!-- Node19&#45;&gt;Node16 -->
<g id="edge48" class="edge">
<title>Node19&#45;&gt;Node16</title>
<path fill="none" stroke="#9a32cd" stroke-dasharray="5,2" d="M642.23,-114.53C684.33,-114.27 740.13,-114 789.5,-114 789.5,-114 789.5,-114 1138,-114 1242.04,-114 1348.64,-197.67 1382.21,-226.43"/>
<polygon fill="#9a32cd" stroke="#9a32cd" points="642.09,-111.03 632.11,-114.6 642.13,-118.03 642.09,-111.03"/>
<text text-anchor="middle" x="957" y="-117" font-family="Helvetica,sans-Serif" font-size="10.00"> parameters</text>
</g>
<!-- Node20&#45;&gt;Node5 -->
<g id="edge50" class="edge">
<title>Node20&#45;&gt;Node5</title>
<path fill="none" stroke="#9a32cd" stroke-dasharray="5,2" d="M1892.31,-210.41C1880.57,-230.45 1860.98,-263.34 1843,-291 1810.54,-340.91 1768.95,-398.75 1752.57,-421.3"/>
<polygon fill="#9a32cd" stroke="#9a32cd" points="1895.39,-212.08 1897.41,-201.68 1889.34,-208.56 1895.39,-212.08"/>
<text text-anchor="middle" x="1832.5" y="-325" font-family="Helvetica,sans-Serif" font-size="10.00"> met</text>
</g>
<!-- Node21&#45;&gt;Node5 -->
<g id="edge56" class="edge">
<title>Node21&#45;&gt;Node5</title>
<path fill="none" stroke="#9a32cd" stroke-dasharray="5,2" d="M1997.79,-431C1943.57,-431 1860.06,-431 1804.14,-431"/>
<polygon fill="#9a32cd" stroke="#9a32cd" points="1997.9,-434.5 2007.9,-431 1997.9,-427.5 1997.9,-434.5"/>
<text text-anchor="middle" x="1904" y="-434" font-family="Helvetica,sans-Serif" font-size="10.00"> def</text>
</g>
</g>
</svg>
