<?xml version="1.0" encoding="UTF-8" standalone="no"?>
<!DOCTYPE svg PUBLIC "-//W3C//DTD SVG 1.1//EN"
 "http://www.w3.org/Graphics/SVG/1.1/DTD/svg11.dtd">
<!-- Generated by graphviz version 2.47.1 (20210515.0534)
 -->
<!-- Title: Kadath::Space Pages: 1 -->
<svg width="521pt" height="267pt"
 viewBox="0.00 0.00 520.50 267.00" xmlns="http://www.w3.org/2000/svg" xmlns:xlink="http://www.w3.org/1999/xlink">
<g id="graph0" class="graph" transform="scale(1 1) rotate(0) translate(4 263)">
<title>Kadath::Space</title>
<!-- Node1 -->
<g id="node1" class="node">
<title>Node1</title>
<g id="a_node1"><a xlink:title=" ">
<polygon fill="#bfbfbf" stroke="black" points="0,-1.5 0,-20.5 80,-20.5 80,-1.5 0,-1.5"/>
<text text-anchor="middle" x="40" y="-8.5" font-family="Helvetica,sans-Serif" font-size="10.00">Kadath::Space</text>
</a>
</g>
</g>
<!-- Node2 -->
<g id="node2" class="node">
<title>Node2</title>
<g id="a_node2"><a xlink:href="structKadath_1_1MemoryMappable.html" target="_top" xlink:title=" ">
<polygon fill="none" stroke="black" points="193,-239.5 193,-258.5 321,-258.5 321,-239.5 193,-239.5"/>
<text text-anchor="middle" x="257" y="-246.5" font-family="Helvetica,sans-Serif" font-size="10.00">Kadath::MemoryMappable</text>
</a>
</g>
</g>
<!-- Node2&#45;&gt;Node1 -->
<g id="edge1" class="edge">
<title>Node2&#45;&gt;Node1</title>
<path fill="none" stroke="midnightblue" d="M182.67,-239.96C135.2,-233.06 80.02,-221.14 66,-202 23.7,-144.25 34.11,-49.49 38.53,-20.62"/>
<polygon fill="midnightblue" stroke="midnightblue" points="182.27,-243.44 192.66,-241.35 183.24,-236.5 182.27,-243.44"/>
</g>
<!-- Node3 -->
<g id="node3" class="node">
<title>Node3</title>
<g id="a_node3"><a xlink:href="classKadath_1_1Domain.html" target="_top" xlink:title=" ">
<polygon fill="none" stroke="black" points="94.5,-103.5 94.5,-122.5 179.5,-122.5 179.5,-103.5 94.5,-103.5"/>
<text text-anchor="middle" x="137" y="-110.5" font-family="Helvetica,sans-Serif" font-size="10.00">Kadath::Domain</text>
</a>
</g>
</g>
<!-- Node2&#45;&gt;Node3 -->
<g id="edge3" class="edge">
<title>Node2&#45;&gt;Node3</title>
<path fill="none" stroke="midnightblue" d="M182.78,-238.56C138.59,-231.25 88.54,-219.39 75,-202 53.07,-173.84 98.38,-138.71 122.8,-122.69"/>
<polygon fill="midnightblue" stroke="midnightblue" points="182.26,-242.02 192.69,-240.14 183.37,-235.11 182.26,-242.02"/>
</g>
<!-- Node4 -->
<g id="node4" class="node">
<title>Node4</title>
<g id="a_node4"><a xlink:href="classKadath_1_1Dim__array.html" target="_top" xlink:title=" ">
<polygon fill="none" stroke="black" points="84.5,-182.5 84.5,-201.5 179.5,-201.5 179.5,-182.5 84.5,-182.5"/>
<text text-anchor="middle" x="132" y="-189.5" font-family="Helvetica,sans-Serif" font-size="10.00">Kadath::Dim_array</text>
</a>
</g>
</g>
<!-- Node2&#45;&gt;Node4 -->
<g id="edge5" class="edge">
<title>Node2&#45;&gt;Node4</title>
<path fill="none" stroke="midnightblue" d="M228.3,-235.37C204.73,-225 171.98,-210.59 151.39,-201.53"/>
<polygon fill="midnightblue" stroke="midnightblue" points="226.91,-238.58 237.47,-239.41 229.73,-232.18 226.91,-238.58"/>
</g>
<!-- Node5 -->
<g id="node5" class="node">
<title>Node5</title>
<g id="a_node5"><a xlink:href="classKadath_1_1Array.html" target="_top" xlink:title=" ">
<polygon fill="none" stroke="black" points="197.5,-182.5 197.5,-201.5 316.5,-201.5 316.5,-182.5 197.5,-182.5"/>
<text text-anchor="middle" x="257" y="-189.5" font-family="Helvetica,sans-Serif" font-size="10.00">Kadath::Array&lt; double &gt;</text>
</a>
</g>
</g>
<!-- Node2&#45;&gt;Node5 -->
<g id="edge7" class="edge">
<title>Node2&#45;&gt;Node5</title>
<path fill="none" stroke="midnightblue" d="M257,-229.12C257,-219.82 257,-209.06 257,-201.71"/>
<polygon fill="midnightblue" stroke="midnightblue" points="253.5,-229.41 257,-239.41 260.5,-229.41 253.5,-229.41"/>
</g>
<!-- Node6 -->
<g id="node6" class="node">
<title>Node6</title>
<g id="a_node6"><a xlink:href="classKadath_1_1Val__domain.html" target="_top" xlink:title=" ">
<polygon fill="none" stroke="black" points="205.5,-1.5 205.5,-20.5 308.5,-20.5 308.5,-1.5 205.5,-1.5"/>
<text text-anchor="middle" x="257" y="-8.5" font-family="Helvetica,sans-Serif" font-size="10.00">Kadath::Val_domain</text>
</a>
</g>
</g>
<!-- Node2&#45;&gt;Node6 -->
<g id="edge9" class="edge">
<title>Node2&#45;&gt;Node6</title>
<path fill="none" stroke="midnightblue" d="M289.49,-234.87C303.37,-227.43 318.16,-216.65 326,-202 330.19,-194.16 327.63,-190.74 326,-182 313.83,-116.87 275.88,-45.35 262.08,-20.82"/>
<polygon fill="midnightblue" stroke="midnightblue" points="287.55,-231.92 280.12,-239.48 290.64,-238.2 287.55,-231.92"/>
</g>
<!-- Node7 -->
<g id="node7" class="node">
<title>Node7</title>
<g id="a_node7"><a xlink:href="classKadath_1_1Base__spectral.html" target="_top" xlink:title=" ">
<polygon fill="none" stroke="black" points="373,-103.5 373,-122.5 487,-122.5 487,-103.5 373,-103.5"/>
<text text-anchor="middle" x="430" y="-110.5" font-family="Helvetica,sans-Serif" font-size="10.00">Kadath::Base_spectral</text>
</a>
</g>
</g>
<!-- Node2&#45;&gt;Node7 -->
<g id="edge13" class="edge">
<title>Node2&#45;&gt;Node7</title>
<path fill="none" stroke="midnightblue" d="M327.91,-236.43C338.94,-232.65 349.73,-227.64 359,-221 395.6,-194.77 418.65,-143.31 426.74,-122.77"/>
<polygon fill="midnightblue" stroke="midnightblue" points="326.7,-233.14 318.19,-239.44 328.77,-239.83 326.7,-233.14"/>
</g>
<!-- Node8 -->
<g id="node8" class="node">
<title>Node8</title>
<g id="a_node8"><a xlink:href="classKadath_1_1Array.html" target="_top" xlink:title=" ">
<polygon fill="none" stroke="black" points="411.5,-182.5 411.5,-201.5 512.5,-201.5 512.5,-182.5 411.5,-182.5"/>
<text text-anchor="middle" x="462" y="-189.5" font-family="Helvetica,sans-Serif" font-size="10.00">Kadath::Array&lt; int &gt;</text>
</a>
</g>
</g>
<!-- Node2&#45;&gt;Node8 -->
<g id="edge15" class="edge">
<title>Node2&#45;&gt;Node8</title>
<path fill="none" stroke="midnightblue" d="M326.22,-237.71C349.02,-233.52 374.33,-227.98 397,-221 413.79,-215.83 432.11,-207.7 445,-201.53"/>
<polygon fill="midnightblue" stroke="midnightblue" points="325.5,-234.28 316.28,-239.49 326.73,-241.18 325.5,-234.28"/>
</g>
<!-- Node3&#45;&gt;Node1 -->
<g id="edge2" class="edge">
<title>Node3&#45;&gt;Node1</title>
<path fill="none" stroke="#9a32cd" stroke-dasharray="5,2" d="M99.83,-99.3C91.65,-95.31 83.5,-90.26 77,-84 57.97,-65.68 46.93,-35.44 42.42,-20.66"/>
<polygon fill="#9a32cd" stroke="#9a32cd" points="98.43,-102.51 108.99,-103.38 101.28,-96.12 98.43,-102.51"/>
<text text-anchor="middle" x="97" y="-59.5" font-family="Helvetica,sans-Serif" font-size="10.00"> domains</text>
</g>
<!-- Node3&#45;&gt;Node6 -->
<g id="edge16" class="edge">
<title>Node3&#45;&gt;Node6</title>
<path fill="none" stroke="#9a32cd" stroke-dasharray="5,2" d="M131.83,-93.54C128.57,-77.59 126.95,-54.82 139,-40 147.6,-29.42 177.7,-22.38 205.34,-18.01"/>
<polygon fill="#9a32cd" stroke="#9a32cd" points="128.45,-94.43 134.21,-103.32 135.25,-92.78 128.45,-94.43"/>
<text text-anchor="middle" x="150.5" y="-59.5" font-family="Helvetica,sans-Serif" font-size="10.00"> zone</text>
</g>
<!-- Node4&#45;&gt;Node3 -->
<g id="edge4" class="edge">
<title>Node4&#45;&gt;Node3</title>
<path fill="none" stroke="#9a32cd" stroke-dasharray="5,2" d="M133.21,-172.31C134.23,-156.59 135.65,-134.81 136.43,-122.81"/>
<polygon fill="#9a32cd" stroke="#9a32cd" points="129.71,-172.26 132.55,-182.47 136.69,-172.71 129.71,-172.26"/>
<text text-anchor="middle" x="159" y="-156" font-family="Helvetica,sans-Serif" font-size="10.00"> nbr_coefs</text>
<text text-anchor="middle" x="159" y="-145" font-family="Helvetica,sans-Serif" font-size="10.00">nbr_points</text>
</g>
<!-- Node5&#45;&gt;Node3 -->
<g id="edge6" class="edge">
<title>Node5&#45;&gt;Node3</title>
<path fill="none" stroke="#9a32cd" stroke-dasharray="5,2" d="M235.63,-176.71C229.58,-172.63 223.02,-168.17 217,-164 203.11,-154.38 200.24,-151.09 186,-142 175.26,-135.15 162.8,-128.03 153.12,-122.69"/>
<polygon fill="#9a32cd" stroke="#9a32cd" points="233.73,-179.65 243.98,-182.32 237.63,-173.84 233.73,-179.65"/>
<text text-anchor="middle" x="230" y="-150.5" font-family="Helvetica,sans-Serif" font-size="10.00"> coloc</text>
</g>
<!-- Node5&#45;&gt;Node6 -->
<g id="edge10" class="edge">
<title>Node5&#45;&gt;Node6</title>
<path fill="none" stroke="#9a32cd" stroke-dasharray="5,2" d="M257,-172.09C257,-133.68 257,-47.89 257,-20.55"/>
<polygon fill="#9a32cd" stroke="#9a32cd" points="253.5,-172.37 257,-182.37 260.5,-172.37 253.5,-172.37"/>
<text text-anchor="middle" x="261.5" y="-116" font-family="Helvetica,sans-Serif" font-size="10.00"> c</text>
<text text-anchor="middle" x="261.5" y="-105" font-family="Helvetica,sans-Serif" font-size="10.00">cf</text>
</g>
<!-- Node6&#45;&gt;Node3 -->
<g id="edge8" class="edge">
<title>Node6&#45;&gt;Node3</title>
<path fill="none" stroke="#9a32cd" stroke-dasharray="5,2" d="M227.46,-25.13C219.47,-29.33 211.08,-34.36 204,-40 183.78,-56.09 183.76,-65.23 166,-84 159.65,-90.71 152.14,-97.95 146.35,-103.38"/>
<polygon fill="#9a32cd" stroke="#9a32cd" points="229.15,-28.19 236.55,-20.61 226.04,-21.93 229.15,-28.19"/>
<text text-anchor="middle" x="223.5" y="-76" font-family="Helvetica,sans-Serif" font-size="10.00"> absol</text>
<text text-anchor="middle" x="223.5" y="-65" font-family="Helvetica,sans-Serif" font-size="10.00">cart</text>
<text text-anchor="middle" x="223.5" y="-54" font-family="Helvetica,sans-Serif" font-size="10.00">cart_surr</text>
<text text-anchor="middle" x="223.5" y="-43" font-family="Helvetica,sans-Serif" font-size="10.00">radius</text>
</g>
<!-- Node6&#45;&gt;Node6 -->
<g id="edge11" class="edge">
<title>Node6&#45;&gt;Node6</title>
<path fill="none" stroke="#9a32cd" stroke-dasharray="5,2" d="M318.46,-18.17C323.42,-16.61 326.5,-14.22 326.5,-11 326.5,-5.97 319,-2.96 308.53,-1.98"/>
<polygon fill="#9a32cd" stroke="#9a32cd" points="317.72,-14.75 308.53,-20.02 319,-21.63 317.72,-14.75"/>
<text text-anchor="middle" x="350.5" y="-14" font-family="Helvetica,sans-Serif" font-size="10.00"> p_der_abs</text>
<text text-anchor="middle" x="350.5" y="-3" font-family="Helvetica,sans-Serif" font-size="10.00">p_der_var</text>
</g>
<!-- Node7&#45;&gt;Node6 -->
<g id="edge12" class="edge">
<title>Node7&#45;&gt;Node6</title>
<path fill="none" stroke="#9a32cd" stroke-dasharray="5,2" d="M417.83,-95.31C404.99,-78.87 383.28,-54.23 359,-40 343.63,-30.99 325.27,-24.79 308.38,-20.56"/>
<polygon fill="#9a32cd" stroke="#9a32cd" points="415.19,-97.61 424.01,-103.47 420.77,-93.39 415.19,-97.61"/>
<text text-anchor="middle" x="419" y="-59.5" font-family="Helvetica,sans-Serif" font-size="10.00"> base</text>
</g>
<!-- Node8&#45;&gt;Node7 -->
<g id="edge14" class="edge">
<title>Node8&#45;&gt;Node7</title>
<path fill="none" stroke="#9a32cd" stroke-dasharray="5,2" d="M454.61,-173.22C448.05,-157.44 438.74,-135.04 433.66,-122.81"/>
<polygon fill="#9a32cd" stroke="#9a32cd" points="451.38,-174.57 458.45,-182.47 457.85,-171.89 451.38,-174.57"/>
<text text-anchor="middle" x="472.5" y="-150.5" font-family="Helvetica,sans-Serif" font-size="10.00"> bases_1d</text>
</g>
</g>
</svg>
