<?xml version="1.0" encoding="UTF-8" standalone="no"?>
<!DOCTYPE svg PUBLIC "-//W3C//DTD SVG 1.1//EN"
 "http://www.w3.org/Graphics/SVG/1.1/DTD/svg11.dtd">
<!-- Generated by graphviz version 2.47.1 (20210515.0534)
 -->
<!-- Title: Kadath::Space_bbh Pages: 1 -->
<svg width="531pt" height="324pt"
 viewBox="0.00 0.00 531.00 324.00" xmlns="http://www.w3.org/2000/svg" xmlns:xlink="http://www.w3.org/1999/xlink">
<g id="graph0" class="graph" transform="scale(1 1) rotate(0) translate(4 320)">
<title>Kadath::Space_bbh</title>
<!-- Node1 -->
<g id="node1" class="node">
<title>Node1</title>
<g id="a_node1"><a xlink:title=" ">
<polygon fill="#bfbfbf" stroke="black" points="0,-0.5 0,-19.5 101,-19.5 101,-0.5 0,-0.5"/>
<text text-anchor="middle" x="50.5" y="-7.5" font-family="Helvetica,sans-Serif" font-size="10.00">Kadath::Space_bbh</text>
</a>
</g>
</g>
<!-- Node2 -->
<g id="node2" class="node">
<title>Node2</title>
<g id="a_node2"><a xlink:href="classKadath_1_1Space.html" target="_top" xlink:title=" ">
<polygon fill="none" stroke="black" points="10.5,-58.5 10.5,-77.5 90.5,-77.5 90.5,-58.5 10.5,-58.5"/>
<text text-anchor="middle" x="50.5" y="-65.5" font-family="Helvetica,sans-Serif" font-size="10.00">Kadath::Space</text>
</a>
</g>
</g>
<!-- Node2&#45;&gt;Node1 -->
<g id="edge1" class="edge">
<title>Node2&#45;&gt;Node1</title>
<path fill="none" stroke="midnightblue" d="M50.5,-47.95C50.5,-38.29 50.5,-27.03 50.5,-19.51"/>
<polygon fill="midnightblue" stroke="midnightblue" points="47,-48.25 50.5,-58.25 54,-48.25 47,-48.25"/>
</g>
<!-- Node3 -->
<g id="node3" class="node">
<title>Node3</title>
<g id="a_node3"><a xlink:href="structKadath_1_1MemoryMappable.html" target="_top" xlink:title=" ">
<polygon fill="none" stroke="black" points="203.5,-296.5 203.5,-315.5 331.5,-315.5 331.5,-296.5 203.5,-296.5"/>
<text text-anchor="middle" x="267.5" y="-303.5" font-family="Helvetica,sans-Serif" font-size="10.00">Kadath::MemoryMappable</text>
</a>
</g>
</g>
<!-- Node3&#45;&gt;Node2 -->
<g id="edge2" class="edge">
<title>Node3&#45;&gt;Node2</title>
<path fill="none" stroke="midnightblue" d="M193.17,-296.96C145.7,-290.06 90.52,-278.14 76.5,-259 34.2,-201.25 44.61,-106.49 49.03,-77.62"/>
<polygon fill="midnightblue" stroke="midnightblue" points="192.77,-300.44 203.16,-298.35 193.74,-293.5 192.77,-300.44"/>
</g>
<!-- Node4 -->
<g id="node4" class="node">
<title>Node4</title>
<g id="a_node4"><a xlink:href="classKadath_1_1Domain.html" target="_top" xlink:title=" ">
<polygon fill="none" stroke="black" points="105,-160.5 105,-179.5 190,-179.5 190,-160.5 105,-160.5"/>
<text text-anchor="middle" x="147.5" y="-167.5" font-family="Helvetica,sans-Serif" font-size="10.00">Kadath::Domain</text>
</a>
</g>
</g>
<!-- Node3&#45;&gt;Node4 -->
<g id="edge4" class="edge">
<title>Node3&#45;&gt;Node4</title>
<path fill="none" stroke="midnightblue" d="M193.28,-295.56C149.09,-288.25 99.04,-276.39 85.5,-259 63.57,-230.84 108.88,-195.71 133.3,-179.69"/>
<polygon fill="midnightblue" stroke="midnightblue" points="192.76,-299.02 203.19,-297.14 193.87,-292.11 192.76,-299.02"/>
</g>
<!-- Node5 -->
<g id="node5" class="node">
<title>Node5</title>
<g id="a_node5"><a xlink:href="classKadath_1_1Dim__array.html" target="_top" xlink:title=" ">
<polygon fill="none" stroke="black" points="95,-239.5 95,-258.5 190,-258.5 190,-239.5 95,-239.5"/>
<text text-anchor="middle" x="142.5" y="-246.5" font-family="Helvetica,sans-Serif" font-size="10.00">Kadath::Dim_array</text>
</a>
</g>
</g>
<!-- Node3&#45;&gt;Node5 -->
<g id="edge6" class="edge">
<title>Node3&#45;&gt;Node5</title>
<path fill="none" stroke="midnightblue" d="M238.8,-292.37C215.23,-282 182.48,-267.59 161.89,-258.53"/>
<polygon fill="midnightblue" stroke="midnightblue" points="237.41,-295.58 247.97,-296.41 240.23,-289.18 237.41,-295.58"/>
</g>
<!-- Node6 -->
<g id="node6" class="node">
<title>Node6</title>
<g id="a_node6"><a xlink:href="classKadath_1_1Array.html" target="_top" xlink:title=" ">
<polygon fill="none" stroke="black" points="208,-239.5 208,-258.5 327,-258.5 327,-239.5 208,-239.5"/>
<text text-anchor="middle" x="267.5" y="-246.5" font-family="Helvetica,sans-Serif" font-size="10.00">Kadath::Array&lt; double &gt;</text>
</a>
</g>
</g>
<!-- Node3&#45;&gt;Node6 -->
<g id="edge8" class="edge">
<title>Node3&#45;&gt;Node6</title>
<path fill="none" stroke="midnightblue" d="M267.5,-286.12C267.5,-276.82 267.5,-266.06 267.5,-258.71"/>
<polygon fill="midnightblue" stroke="midnightblue" points="264,-286.41 267.5,-296.41 271,-286.41 264,-286.41"/>
</g>
<!-- Node7 -->
<g id="node7" class="node">
<title>Node7</title>
<g id="a_node7"><a xlink:href="classKadath_1_1Val__domain.html" target="_top" xlink:title=" ">
<polygon fill="none" stroke="black" points="216,-58.5 216,-77.5 319,-77.5 319,-58.5 216,-58.5"/>
<text text-anchor="middle" x="267.5" y="-65.5" font-family="Helvetica,sans-Serif" font-size="10.00">Kadath::Val_domain</text>
</a>
</g>
</g>
<!-- Node3&#45;&gt;Node7 -->
<g id="edge10" class="edge">
<title>Node3&#45;&gt;Node7</title>
<path fill="none" stroke="midnightblue" d="M299.99,-291.87C313.87,-284.43 328.66,-273.65 336.5,-259 340.69,-251.16 338.13,-247.74 336.5,-239 324.33,-173.87 286.38,-102.35 272.58,-77.82"/>
<polygon fill="midnightblue" stroke="midnightblue" points="298.05,-288.92 290.62,-296.48 301.14,-295.2 298.05,-288.92"/>
</g>
<!-- Node8 -->
<g id="node8" class="node">
<title>Node8</title>
<g id="a_node8"><a xlink:href="classKadath_1_1Base__spectral.html" target="_top" xlink:title=" ">
<polygon fill="none" stroke="black" points="383.5,-160.5 383.5,-179.5 497.5,-179.5 497.5,-160.5 383.5,-160.5"/>
<text text-anchor="middle" x="440.5" y="-167.5" font-family="Helvetica,sans-Serif" font-size="10.00">Kadath::Base_spectral</text>
</a>
</g>
</g>
<!-- Node3&#45;&gt;Node8 -->
<g id="edge14" class="edge">
<title>Node3&#45;&gt;Node8</title>
<path fill="none" stroke="midnightblue" d="M338.41,-293.43C349.44,-289.65 360.23,-284.64 369.5,-278 406.1,-251.77 429.15,-200.31 437.24,-179.77"/>
<polygon fill="midnightblue" stroke="midnightblue" points="337.2,-290.14 328.69,-296.44 339.27,-296.83 337.2,-290.14"/>
</g>
<!-- Node9 -->
<g id="node9" class="node">
<title>Node9</title>
<g id="a_node9"><a xlink:href="classKadath_1_1Array.html" target="_top" xlink:title=" ">
<polygon fill="none" stroke="black" points="422,-239.5 422,-258.5 523,-258.5 523,-239.5 422,-239.5"/>
<text text-anchor="middle" x="472.5" y="-246.5" font-family="Helvetica,sans-Serif" font-size="10.00">Kadath::Array&lt; int &gt;</text>
</a>
</g>
</g>
<!-- Node3&#45;&gt;Node9 -->
<g id="edge16" class="edge">
<title>Node3&#45;&gt;Node9</title>
<path fill="none" stroke="midnightblue" d="M336.72,-294.71C359.52,-290.52 384.83,-284.98 407.5,-278 424.29,-272.83 442.61,-264.7 455.5,-258.53"/>
<polygon fill="midnightblue" stroke="midnightblue" points="336,-291.28 326.78,-296.49 337.23,-298.18 336,-291.28"/>
</g>
<!-- Node4&#45;&gt;Node2 -->
<g id="edge3" class="edge">
<title>Node4&#45;&gt;Node2</title>
<path fill="none" stroke="#9a32cd" stroke-dasharray="5,2" d="M110.33,-156.3C102.15,-152.31 94,-147.26 87.5,-141 68.47,-122.68 57.43,-92.44 52.92,-77.66"/>
<polygon fill="#9a32cd" stroke="#9a32cd" points="108.93,-159.51 119.49,-160.38 111.78,-153.12 108.93,-159.51"/>
<text text-anchor="middle" x="107.5" y="-116.5" font-family="Helvetica,sans-Serif" font-size="10.00"> domains</text>
</g>
<!-- Node4&#45;&gt;Node7 -->
<g id="edge17" class="edge">
<title>Node4&#45;&gt;Node7</title>
<path fill="none" stroke="#9a32cd" stroke-dasharray="5,2" d="M142.33,-150.54C139.07,-134.59 137.45,-111.82 149.5,-97 158.1,-86.42 188.2,-79.38 215.84,-75.01"/>
<polygon fill="#9a32cd" stroke="#9a32cd" points="138.95,-151.43 144.71,-160.32 145.75,-149.78 138.95,-151.43"/>
<text text-anchor="middle" x="161" y="-116.5" font-family="Helvetica,sans-Serif" font-size="10.00"> zone</text>
</g>
<!-- Node5&#45;&gt;Node4 -->
<g id="edge5" class="edge">
<title>Node5&#45;&gt;Node4</title>
<path fill="none" stroke="#9a32cd" stroke-dasharray="5,2" d="M143.71,-229.31C144.73,-213.59 146.15,-191.81 146.93,-179.81"/>
<polygon fill="#9a32cd" stroke="#9a32cd" points="140.21,-229.26 143.05,-239.47 147.19,-229.71 140.21,-229.26"/>
<text text-anchor="middle" x="169.5" y="-213" font-family="Helvetica,sans-Serif" font-size="10.00"> nbr_coefs</text>
<text text-anchor="middle" x="169.5" y="-202" font-family="Helvetica,sans-Serif" font-size="10.00">nbr_points</text>
</g>
<!-- Node6&#45;&gt;Node4 -->
<g id="edge7" class="edge">
<title>Node6&#45;&gt;Node4</title>
<path fill="none" stroke="#9a32cd" stroke-dasharray="5,2" d="M246.13,-233.71C240.08,-229.63 233.52,-225.17 227.5,-221 213.61,-211.38 210.74,-208.09 196.5,-199 185.76,-192.15 173.3,-185.03 163.62,-179.69"/>
<polygon fill="#9a32cd" stroke="#9a32cd" points="244.23,-236.65 254.48,-239.32 248.13,-230.84 244.23,-236.65"/>
<text text-anchor="middle" x="240.5" y="-207.5" font-family="Helvetica,sans-Serif" font-size="10.00"> coloc</text>
</g>
<!-- Node6&#45;&gt;Node7 -->
<g id="edge11" class="edge">
<title>Node6&#45;&gt;Node7</title>
<path fill="none" stroke="#9a32cd" stroke-dasharray="5,2" d="M267.5,-229.09C267.5,-190.68 267.5,-104.89 267.5,-77.55"/>
<polygon fill="#9a32cd" stroke="#9a32cd" points="264,-229.37 267.5,-239.37 271,-229.37 264,-229.37"/>
<text text-anchor="middle" x="272" y="-173" font-family="Helvetica,sans-Serif" font-size="10.00"> c</text>
<text text-anchor="middle" x="272" y="-162" font-family="Helvetica,sans-Serif" font-size="10.00">cf</text>
</g>
<!-- Node7&#45;&gt;Node4 -->
<g id="edge9" class="edge">
<title>Node7&#45;&gt;Node4</title>
<path fill="none" stroke="#9a32cd" stroke-dasharray="5,2" d="M237.96,-82.13C229.97,-86.33 221.58,-91.36 214.5,-97 194.28,-113.09 194.26,-122.23 176.5,-141 170.15,-147.71 162.64,-154.95 156.85,-160.38"/>
<polygon fill="#9a32cd" stroke="#9a32cd" points="239.65,-85.19 247.05,-77.61 236.54,-78.93 239.65,-85.19"/>
<text text-anchor="middle" x="234" y="-133" font-family="Helvetica,sans-Serif" font-size="10.00"> absol</text>
<text text-anchor="middle" x="234" y="-122" font-family="Helvetica,sans-Serif" font-size="10.00">cart</text>
<text text-anchor="middle" x="234" y="-111" font-family="Helvetica,sans-Serif" font-size="10.00">cart_surr</text>
<text text-anchor="middle" x="234" y="-100" font-family="Helvetica,sans-Serif" font-size="10.00">radius</text>
</g>
<!-- Node7&#45;&gt;Node7 -->
<g id="edge12" class="edge">
<title>Node7&#45;&gt;Node7</title>
<path fill="none" stroke="#9a32cd" stroke-dasharray="5,2" d="M329.32,-71.95C334.07,-71.08 337,-69.76 337,-68 337,-65.18 329.5,-63.5 319.03,-62.95"/>
<polygon fill="#9a32cd" stroke="#9a32cd" points="328.6,-68.51 319.03,-73.05 329.34,-75.47 328.6,-68.51"/>
<text text-anchor="middle" x="361" y="-71" font-family="Helvetica,sans-Serif" font-size="10.00"> p_der_abs</text>
<text text-anchor="middle" x="361" y="-60" font-family="Helvetica,sans-Serif" font-size="10.00">p_der_var</text>
</g>
<!-- Node8&#45;&gt;Node7 -->
<g id="edge13" class="edge">
<title>Node8&#45;&gt;Node7</title>
<path fill="none" stroke="#9a32cd" stroke-dasharray="5,2" d="M428.33,-152.31C415.49,-135.87 393.78,-111.23 369.5,-97 354.13,-87.99 335.77,-81.79 318.88,-77.56"/>
<polygon fill="#9a32cd" stroke="#9a32cd" points="425.69,-154.61 434.51,-160.47 431.27,-150.39 425.69,-154.61"/>
<text text-anchor="middle" x="429.5" y="-116.5" font-family="Helvetica,sans-Serif" font-size="10.00"> base</text>
</g>
<!-- Node9&#45;&gt;Node8 -->
<g id="edge15" class="edge">
<title>Node9&#45;&gt;Node8</title>
<path fill="none" stroke="#9a32cd" stroke-dasharray="5,2" d="M465.11,-230.22C458.55,-214.44 449.24,-192.04 444.16,-179.81"/>
<polygon fill="#9a32cd" stroke="#9a32cd" points="461.88,-231.57 468.95,-239.47 468.35,-228.89 461.88,-231.57"/>
<text text-anchor="middle" x="483" y="-207.5" font-family="Helvetica,sans-Serif" font-size="10.00"> bases_1d</text>
</g>
</g>
</svg>
