<?xml version="1.0" encoding="UTF-8" standalone="no"?>
<!DOCTYPE svg PUBLIC "-//W3C//DTD SVG 1.1//EN"
 "http://www.w3.org/Graphics/SVG/1.1/DTD/svg11.dtd">
<!-- Generated by graphviz version 2.47.1 (20210515.0534)
 -->
<!-- Title: Kadath::Eq_matching_import Pages: 1 -->
<svg width="2116pt" height="891pt"
 viewBox="0.00 0.00 2116.00 891.28" xmlns="http://www.w3.org/2000/svg" xmlns:xlink="http://www.w3.org/1999/xlink">
<g id="graph0" class="graph" transform="scale(1 1) rotate(0) translate(4 887.28)">
<title>Kadath::Eq_matching_import</title>
<!-- Node1 -->
<g id="node1" class="node">
<title>Node1</title>
<g id="a_node1"><a xlink:title=" ">
<polygon fill="#bfbfbf" stroke="black" points="1194,-192 1194,-222 1302,-222 1302,-192 1194,-192"/>
<text text-anchor="start" x="1202" y="-210" font-family="Helvetica,sans-Serif" font-size="10.00">Kadath::Eq_matching</text>
<text text-anchor="middle" x="1248" y="-199" font-family="Helvetica,sans-Serif" font-size="10.00">_import</text>
</a>
</g>
</g>
<!-- Node2 -->
<g id="node2" class="node">
<title>Node2</title>
<g id="a_node2"><a xlink:href="classKadath_1_1Equation.html" target="_top" xlink:title=" ">
<polygon fill="none" stroke="black" points="1011,-150.5 1011,-169.5 1100,-169.5 1100,-150.5 1011,-150.5"/>
<text text-anchor="middle" x="1055.5" y="-157.5" font-family="Helvetica,sans-Serif" font-size="10.00">Kadath::Equation</text>
</a>
</g>
</g>
<!-- Node2&#45;&gt;Node1 -->
<g id="edge1" class="edge">
<title>Node2&#45;&gt;Node1</title>
<path fill="none" stroke="midnightblue" d="M1105.07,-171.98C1132.15,-178.66 1165.91,-186.99 1193.71,-193.85"/>
<polygon fill="midnightblue" stroke="midnightblue" points="1105.6,-168.51 1095.05,-169.51 1103.92,-175.3 1105.6,-168.51"/>
</g>
<!-- Node6 -->
<g id="node6" class="node">
<title>Node6</title>
<g id="a_node6"><a xlink:href="classKadath_1_1System__of__eqs.html" target="_top" xlink:title=" ">
<polygon fill="none" stroke="black" points="1696,-406.5 1696,-425.5 1815,-425.5 1815,-406.5 1696,-406.5"/>
<text text-anchor="middle" x="1755.5" y="-413.5" font-family="Helvetica,sans-Serif" font-size="10.00">Kadath::System_of_eqs</text>
</a>
</g>
</g>
<!-- Node2&#45;&gt;Node6 -->
<g id="edge9" class="edge">
<title>Node2&#45;&gt;Node6</title>
<path fill="none" stroke="#9a32cd" stroke-dasharray="5,2" d="M1110.37,-160C1148.52,-160 1200.9,-160 1247,-160 1247,-160 1247,-160 1562,-160 1687.67,-160 1741.48,-359.52 1752.37,-406.28"/>
<polygon fill="#9a32cd" stroke="#9a32cd" points="1110,-156.5 1100,-160 1110,-163.5 1110,-156.5"/>
<text text-anchor="middle" x="1405" y="-163" font-family="Helvetica,sans-Serif" font-size="10.00"> eq</text>
</g>
<!-- Node3 -->
<g id="node3" class="node">
<title>Node3</title>
<g id="a_node3"><a xlink:href="structKadath_1_1MemoryMappable.html" target="_top" xlink:title=" ">
<polygon fill="none" stroke="black" points="0,-436.5 0,-455.5 128,-455.5 128,-436.5 0,-436.5"/>
<text text-anchor="middle" x="64" y="-443.5" font-family="Helvetica,sans-Serif" font-size="10.00">Kadath::MemoryMappable</text>
</a>
</g>
</g>
<!-- Node3&#45;&gt;Node2 -->
<g id="edge2" class="edge">
<title>Node3&#45;&gt;Node2</title>
<path fill="none" stroke="midnightblue" d="M64.8,-426.1C65.19,-354.47 76.78,-114 214.5,-114 214.5,-114 214.5,-114 893.5,-114 946.12,-114 1004.81,-137 1034.69,-150.47"/>
<polygon fill="midnightblue" stroke="midnightblue" points="61.3,-426.43 64.81,-436.42 68.3,-426.42 61.3,-426.43"/>
</g>
<!-- Node4 -->
<g id="node4" class="node">
<title>Node4</title>
<g id="a_node4"><a xlink:href="classKadath_1_1Array.html" target="_top" xlink:title=" ">
<polygon fill="none" stroke="black" points="165,-297.5 165,-316.5 266,-316.5 266,-297.5 165,-297.5"/>
<text text-anchor="middle" x="215.5" y="-304.5" font-family="Helvetica,sans-Serif" font-size="10.00">Kadath::Array&lt; int &gt;</text>
</a>
</g>
</g>
<!-- Node3&#45;&gt;Node4 -->
<g id="edge4" class="edge">
<title>Node3&#45;&gt;Node4</title>
<path fill="none" stroke="midnightblue" d="M73.6,-427.2C86.09,-401.88 111.58,-357.01 146,-331 154.24,-324.77 164.23,-320.07 174.01,-316.56"/>
<polygon fill="midnightblue" stroke="midnightblue" points="70.33,-425.92 69.19,-436.45 76.65,-428.94 70.33,-425.92"/>
</g>
<!-- Node5 -->
<g id="node5" class="node">
<title>Node5</title>
<g id="a_node5"><a xlink:href="classKadath_1_1Ope__eq.html" target="_top" xlink:title=" ">
<polygon fill="none" stroke="black" points="1872,-123.5 1872,-142.5 1958,-142.5 1958,-123.5 1872,-123.5"/>
<text text-anchor="middle" x="1915" y="-130.5" font-family="Helvetica,sans-Serif" font-size="10.00">Kadath::Ope_eq</text>
</a>
</g>
</g>
<!-- Node3&#45;&gt;Node5 -->
<g id="edge6" class="edge">
<title>Node3&#45;&gt;Node5</title>
<path fill="none" stroke="midnightblue" d="M66.88,-426.34C72.64,-371.76 93.02,-214.55 146,-96 162.28,-59.58 174.61,-38 214.5,-38 214.5,-38 214.5,-38 1756.5,-38 1821.96,-38 1883.58,-98.92 1905.53,-123.19"/>
<polygon fill="midnightblue" stroke="midnightblue" points="63.38,-426.08 65.86,-436.38 70.35,-426.78 63.38,-426.08"/>
</g>
<!-- Node7 -->
<g id="node7" class="node">
<title>Node7</title>
<g id="a_node7"><a xlink:href="classKadath_1_1Eq__int.html" target="_top" xlink:title=" ">
<polygon fill="none" stroke="black" points="2024,-123.5 2024,-142.5 2103,-142.5 2103,-123.5 2024,-123.5"/>
<text text-anchor="middle" x="2063.5" y="-130.5" font-family="Helvetica,sans-Serif" font-size="10.00">Kadath::Eq_int</text>
</a>
</g>
</g>
<!-- Node3&#45;&gt;Node7 -->
<g id="edge11" class="edge">
<title>Node3&#45;&gt;Node7</title>
<path fill="none" stroke="midnightblue" d="M68.74,-426.31C79.16,-372.18 110.19,-216.7 146,-90 159.67,-41.63 164.23,0 214.5,0 214.5,0 214.5,0 1916,0 1989.51,0 2042.49,-92.94 2057.9,-123.43"/>
<polygon fill="midnightblue" stroke="midnightblue" points="65.27,-425.8 66.83,-436.28 72.15,-427.12 65.27,-425.8"/>
</g>
<!-- Node8 -->
<g id="node8" class="node">
<title>Node8</title>
<g id="a_node8"><a xlink:href="classKadath_1_1Space.html" target="_top" xlink:title=" ">
<polygon fill="none" stroke="black" points="1015.5,-600.5 1015.5,-619.5 1095.5,-619.5 1095.5,-600.5 1015.5,-600.5"/>
<text text-anchor="middle" x="1055.5" y="-607.5" font-family="Helvetica,sans-Serif" font-size="10.00">Kadath::Space</text>
</a>
</g>
</g>
<!-- Node3&#45;&gt;Node8 -->
<g id="edge14" class="edge">
<title>Node3&#45;&gt;Node8</title>
<path fill="none" stroke="midnightblue" d="M67.25,-465.8C72.9,-506.55 91.42,-600.35 146,-653 169.22,-675.4 182.24,-677 214.5,-677 214.5,-677 214.5,-677 593,-677 751.08,-677 936.48,-638.03 1015.57,-619.53"/>
<polygon fill="midnightblue" stroke="midnightblue" points="70.71,-465.27 65.97,-455.8 63.76,-466.16 70.71,-465.27"/>
</g>
<!-- Node9 -->
<g id="node9" class="node">
<title>Node9</title>
<g id="a_node9"><a xlink:href="classKadath_1_1Domain.html" target="_top" xlink:title=" ">
<polygon fill="none" stroke="black" points="850,-394.5 850,-413.5 935,-413.5 935,-394.5 850,-394.5"/>
<text text-anchor="middle" x="892.5" y="-401.5" font-family="Helvetica,sans-Serif" font-size="10.00">Kadath::Domain</text>
</a>
</g>
</g>
<!-- Node3&#45;&gt;Node9 -->
<g id="edge16" class="edge">
<title>Node3&#45;&gt;Node9</title>
<path fill="none" stroke="midnightblue" d="M98.39,-432.92C117.61,-425.83 142.37,-417.43 165,-412 419.48,-350.97 492.29,-358.32 753,-381 785.78,-383.85 822.5,-390.09 849.9,-395.35"/>
<polygon fill="midnightblue" stroke="midnightblue" points="97.01,-429.7 88.88,-436.49 99.47,-436.25 97.01,-429.7"/>
</g>
<!-- Node10 -->
<g id="node10" class="node">
<title>Node10</title>
<g id="a_node10"><a xlink:href="classKadath_1_1Dim__array.html" target="_top" xlink:title=" ">
<polygon fill="none" stroke="black" points="168,-200.5 168,-219.5 263,-219.5 263,-200.5 168,-200.5"/>
<text text-anchor="middle" x="215.5" y="-207.5" font-family="Helvetica,sans-Serif" font-size="10.00">Kadath::Dim_array</text>
</a>
</g>
</g>
<!-- Node3&#45;&gt;Node10 -->
<g id="edge18" class="edge">
<title>Node3&#45;&gt;Node10</title>
<path fill="none" stroke="midnightblue" d="M76.64,-427.6C95.28,-398.12 132.99,-338.5 165,-288 180.63,-263.34 199.05,-234.32 208.4,-219.6"/>
<polygon fill="midnightblue" stroke="midnightblue" points="73.47,-426.06 71.08,-436.38 79.39,-429.8 73.47,-426.06"/>
</g>
<!-- Node11 -->
<g id="node11" class="node">
<title>Node11</title>
<g id="a_node11"><a xlink:href="classKadath_1_1Array.html" target="_top" xlink:title=" ">
<polygon fill="none" stroke="black" points="415,-468.5 415,-487.5 534,-487.5 534,-468.5 415,-468.5"/>
<text text-anchor="middle" x="474.5" y="-475.5" font-family="Helvetica,sans-Serif" font-size="10.00">Kadath::Array&lt; double &gt;</text>
</a>
</g>
</g>
<!-- Node3&#45;&gt;Node11 -->
<g id="edge20" class="edge">
<title>Node3&#45;&gt;Node11</title>
<path fill="none" stroke="midnightblue" d="M124.88,-457.15C131.98,-458.24 139.14,-459.22 146,-460 239.64,-470.63 349.08,-475.04 414.76,-476.83"/>
<polygon fill="midnightblue" stroke="midnightblue" points="124.99,-453.63 114.56,-455.5 123.88,-460.54 124.99,-453.63"/>
</g>
<!-- Node12 -->
<g id="node12" class="node">
<title>Node12</title>
<g id="a_node12"><a xlink:href="classKadath_1_1Val__domain.html" target="_top" xlink:title=" ">
<polygon fill="none" stroke="black" points="650,-390.5 650,-409.5 753,-409.5 753,-390.5 650,-390.5"/>
<text text-anchor="middle" x="701.5" y="-397.5" font-family="Helvetica,sans-Serif" font-size="10.00">Kadath::Val_domain</text>
</a>
</g>
</g>
<!-- Node3&#45;&gt;Node12 -->
<g id="edge22" class="edge">
<title>Node3&#45;&gt;Node12</title>
<path fill="none" stroke="midnightblue" d="M138.43,-441.06C230.75,-434.84 394.12,-423.77 534,-414 577.56,-410.96 588.5,-410.78 632,-407 637.72,-406.5 643.7,-405.95 649.64,-405.37"/>
<polygon fill="midnightblue" stroke="midnightblue" points="138.09,-437.58 128.35,-441.74 138.56,-444.56 138.09,-437.58"/>
</g>
<!-- Node13 -->
<g id="node13" class="node">
<title>Node13</title>
<g id="a_node13"><a xlink:href="classKadath_1_1Base__spectral.html" target="_top" xlink:title=" ">
<polygon fill="none" stroke="black" points="417.5,-385.5 417.5,-404.5 531.5,-404.5 531.5,-385.5 417.5,-385.5"/>
<text text-anchor="middle" x="474.5" y="-392.5" font-family="Helvetica,sans-Serif" font-size="10.00">Kadath::Base_spectral</text>
</a>
</g>
</g>
<!-- Node3&#45;&gt;Node13 -->
<g id="edge26" class="edge">
<title>Node3&#45;&gt;Node13</title>
<path fill="none" stroke="midnightblue" d="M127.89,-434.76C134,-433.78 140.12,-432.84 146,-432 241.02,-418.43 352.14,-406.76 417.45,-400.32"/>
<polygon fill="midnightblue" stroke="midnightblue" points="126.95,-431.37 117.65,-436.44 128.09,-438.27 126.95,-431.37"/>
</g>
<!-- Node14 -->
<g id="node14" class="node">
<title>Node14</title>
<g id="a_node14"><a xlink:href="classKadath_1_1Index.html" target="_top" xlink:title=" ">
<polygon fill="none" stroke="black" points="437,-66.5 437,-85.5 512,-85.5 512,-66.5 437,-66.5"/>
<text text-anchor="middle" x="474.5" y="-73.5" font-family="Helvetica,sans-Serif" font-size="10.00">Kadath::Index</text>
</a>
</g>
</g>
<!-- Node3&#45;&gt;Node14 -->
<g id="edge30" class="edge">
<title>Node3&#45;&gt;Node14</title>
<path fill="none" stroke="midnightblue" d="M66.6,-426.47C72.5,-359.85 95.34,-143.28 146,-100 188.8,-63.43 360.49,-69 436.72,-73.46"/>
<polygon fill="midnightblue" stroke="midnightblue" points="63.11,-426.2 65.75,-436.46 70.09,-426.8 63.11,-426.2"/>
</g>
<!-- Node15 -->
<g id="node15" class="node">
<title>Node15</title>
<g id="a_node15"><a xlink:href="classKadath_1_1Param.html" target="_top" xlink:title=" ">
<polygon fill="none" stroke="black" points="552,-744.5 552,-763.5 632,-763.5 632,-744.5 552,-744.5"/>
<text text-anchor="middle" x="592" y="-751.5" font-family="Helvetica,sans-Serif" font-size="10.00">Kadath::Param</text>
</a>
</g>
</g>
<!-- Node3&#45;&gt;Node15 -->
<g id="edge34" class="edge">
<title>Node3&#45;&gt;Node15</title>
<path fill="none" stroke="midnightblue" d="M68.45,-465.65C79.44,-525.5 115.85,-702.99 165,-728 293.78,-793.52 473.54,-774.31 551.9,-761.44"/>
<polygon fill="midnightblue" stroke="midnightblue" points="71.86,-464.84 66.64,-455.61 64.97,-466.08 71.86,-464.84"/>
</g>
<!-- Node16 -->
<g id="node16" class="node">
<title>Node16</title>
<g id="a_node16"><a xlink:href="classKadath_1_1Term__eq.html" target="_top" xlink:title=" ">
<polygon fill="none" stroke="black" points="1516,-782.5 1516,-801.5 1606,-801.5 1606,-782.5 1516,-782.5"/>
<text text-anchor="middle" x="1561" y="-789.5" font-family="Helvetica,sans-Serif" font-size="10.00">Kadath::Term_eq</text>
</a>
</g>
</g>
<!-- Node3&#45;&gt;Node16 -->
<g id="edge37" class="edge">
<title>Node3&#45;&gt;Node16</title>
<path fill="none" stroke="midnightblue" d="M64.48,-465.8C63.68,-539.26 71.33,-792 214.5,-792 214.5,-792 214.5,-792 1406,-792 1443.03,-792 1485.07,-792 1515.86,-792"/>
<polygon fill="midnightblue" stroke="midnightblue" points="67.99,-465.68 64.66,-455.62 60.99,-465.55 67.99,-465.68"/>
</g>
<!-- Node17 -->
<g id="node17" class="node">
<title>Node17</title>
<g id="a_node17"><a xlink:href="classKadath_1_1Tensor.html" target="_top" xlink:title=" ">
<polygon fill="none" stroke="black" points="1364,-530.5 1364,-549.5 1446,-549.5 1446,-530.5 1364,-530.5"/>
<text text-anchor="middle" x="1405" y="-537.5" font-family="Helvetica,sans-Serif" font-size="10.00">Kadath::Tensor</text>
</a>
</g>
</g>
<!-- Node3&#45;&gt;Node17 -->
<g id="edge39" class="edge">
<title>Node3&#45;&gt;Node17</title>
<path fill="none" stroke="midnightblue" d="M72.58,-464.98C90.52,-506.35 139.71,-601 214.5,-601 214.5,-601 214.5,-601 593,-601 861.11,-601 926.56,-567.92 1194,-549 1252.97,-544.83 1321.4,-542.33 1363.7,-541.06"/>
<polygon fill="midnightblue" stroke="midnightblue" points="75.79,-463.57 68.7,-455.7 69.33,-466.27 75.79,-463.57"/>
</g>
<!-- Node19 -->
<g id="node19" class="node">
<title>Node19</title>
<g id="a_node19"><a xlink:href="classKadath_1_1Base__tensor.html" target="_top" xlink:title=" ">
<polygon fill="none" stroke="black" points="1194.5,-592.5 1194.5,-611.5 1301.5,-611.5 1301.5,-592.5 1194.5,-592.5"/>
<text text-anchor="middle" x="1248" y="-599.5" font-family="Helvetica,sans-Serif" font-size="10.00">Kadath::Base_tensor</text>
</a>
</g>
</g>
<!-- Node3&#45;&gt;Node19 -->
<g id="edge46" class="edge">
<title>Node3&#45;&gt;Node19</title>
<path fill="none" stroke="midnightblue" d="M69.14,-465.47C77.55,-500.34 99.86,-573.67 146,-615 170.03,-636.52 182.24,-639 214.5,-639 214.5,-639 214.5,-639 593,-639 818.38,-639 875.26,-645.95 1100,-629 1133.97,-626.44 1142.5,-625.2 1176,-619 1187.22,-616.92 1199.32,-614.21 1210.31,-611.56"/>
<polygon fill="midnightblue" stroke="midnightblue" points="72.52,-464.56 66.89,-455.58 65.7,-466.11 72.52,-464.56"/>
</g>
<!-- Node20 -->
<g id="node20" class="node">
<title>Node20</title>
<g id="a_node20"><a xlink:href="classKadath_1_1Param__tensor.html" target="_top" xlink:title=" ">
<polygon fill="none" stroke="black" points="284,-705.5 284,-724.5 397,-724.5 397,-705.5 284,-705.5"/>
<text text-anchor="middle" x="340.5" y="-712.5" font-family="Helvetica,sans-Serif" font-size="10.00">Kadath::Param_tensor</text>
</a>
</g>
</g>
<!-- Node3&#45;&gt;Node20 -->
<g id="edge50" class="edge">
<title>Node3&#45;&gt;Node20</title>
<path fill="none" stroke="midnightblue" d="M64.94,-465.89C65.99,-513.31 75.79,-633.35 146,-691 184.07,-722.25 241.37,-725.73 283.74,-722.92"/>
<polygon fill="midnightblue" stroke="midnightblue" points="68.44,-465.68 64.84,-455.72 61.44,-465.75 68.44,-465.68"/>
</g>
<!-- Node21 -->
<g id="node21" class="node">
<title>Node21</title>
<g id="a_node21"><a xlink:href="classKadath_1_1Metric.html" target="_top" xlink:title=" ">
<polygon fill="none" stroke="black" points="1875.5,-693.5 1875.5,-712.5 1954.5,-712.5 1954.5,-693.5 1875.5,-693.5"/>
<text text-anchor="middle" x="1915" y="-700.5" font-family="Helvetica,sans-Serif" font-size="10.00">Kadath::Metric</text>
</a>
</g>
</g>
<!-- Node3&#45;&gt;Node21 -->
<g id="edge52" class="edge">
<title>Node3&#45;&gt;Node21</title>
<path fill="none" stroke="midnightblue" d="M67.44,-465.96C78.35,-550.9 126.1,-878 214.5,-878 214.5,-878 214.5,-878 1756.5,-878 1783.23,-878 1794.44,-881.09 1815,-864 1862.9,-824.2 1833.73,-785.12 1872,-736 1879.18,-726.78 1889.47,-718.64 1898.06,-712.76"/>
<polygon fill="midnightblue" stroke="midnightblue" points="70.88,-465.32 66.16,-455.83 63.94,-466.19 70.88,-465.32"/>
</g>
<!-- Node4&#45;&gt;Node1 -->
<g id="edge61" class="edge">
<title>Node4&#45;&gt;Node1</title>
<path fill="none" stroke="#9a32cd" stroke-dasharray="5,2" d="M240,-292.15C252.58,-284.9 268.62,-276.74 284,-272 504.95,-203.92 569.3,-210 800.5,-210 800.5,-210 800.5,-210 1056.5,-210 1102.81,-210 1155.44,-209.1 1193.63,-208.29"/>
<polygon fill="#9a32cd" stroke="#9a32cd" points="237.91,-289.32 231.11,-297.45 241.5,-295.33 237.91,-289.32"/>
<text text-anchor="middle" x="801.5" y="-224" font-family="Helvetica,sans-Serif" font-size="10.00"> other_bounds</text>
<text text-anchor="middle" x="801.5" y="-213" font-family="Helvetica,sans-Serif" font-size="10.00">other_doms</text>
</g>
<!-- Node4&#45;&gt;Node2 -->
<g id="edge3" class="edge">
<title>Node4&#45;&gt;Node2</title>
<path fill="none" stroke="#9a32cd" stroke-dasharray="5,2" d="M228.09,-288.71C239.95,-271.63 260.01,-246.9 284,-234 531.05,-101.11 887.52,-135.74 1010.69,-153.05"/>
<polygon fill="#9a32cd" stroke="#9a32cd" points="225.01,-287.02 222.37,-297.28 230.83,-290.9 225.01,-287.02"/>
<text text-anchor="middle" x="701.5" y="-153" font-family="Helvetica,sans-Serif" font-size="10.00"> n_cond</text>
<text text-anchor="middle" x="701.5" y="-142" font-family="Helvetica,sans-Serif" font-size="10.00">p_cmp_used</text>
</g>
<!-- Node4&#45;&gt;Node6 -->
<g id="edge32" class="edge">
<title>Node4&#45;&gt;Node6</title>
<path fill="none" stroke="#9a32cd" stroke-dasharray="5,2" d="M276.45,-302.05C430.24,-289.42 830.94,-257 891.5,-257 891.5,-257 891.5,-257 1562,-257 1656.06,-257 1728.97,-371.24 1749.01,-406.05"/>
<polygon fill="#9a32cd" stroke="#9a32cd" points="275.93,-298.58 266.25,-302.89 276.5,-305.56 275.93,-298.58"/>
<text text-anchor="middle" x="1055.5" y="-271" font-family="Helvetica,sans-Serif" font-size="10.00"> assoc_var</text>
<text text-anchor="middle" x="1055.5" y="-260" font-family="Helvetica,sans-Serif" font-size="10.00">assoc_var_double</text>
</g>
<!-- Node4&#45;&gt;Node13 -->
<g id="edge27" class="edge">
<title>Node4&#45;&gt;Node13</title>
<path fill="none" stroke="#9a32cd" stroke-dasharray="5,2" d="M276.51,-314.47C312.42,-320.28 358.43,-330.09 397,-346 421.64,-356.16 447.09,-374.26 461.54,-385.39"/>
<polygon fill="#9a32cd" stroke="#9a32cd" points="276.6,-310.95 266.19,-312.87 275.53,-317.86 276.6,-310.95"/>
<text text-anchor="middle" x="340.5" y="-349" font-family="Helvetica,sans-Serif" font-size="10.00"> bases_1d</text>
</g>
<!-- Node4&#45;&gt;Node17 -->
<g id="edge44" class="edge">
<title>Node4&#45;&gt;Node17</title>
<path fill="none" stroke="#9a32cd" stroke-dasharray="5,2" d="M235.84,-322.88C248.97,-333.27 266.98,-346.76 284,-357 331.69,-385.7 362.62,-367.22 397,-411 421.12,-441.71 385.51,-471.4 415,-497 461.07,-537.01 491.05,-503.07 552,-506 595.53,-508.1 606.43,-508.33 650,-509 695.77,-509.7 707.3,-511.73 753,-509 842.37,-503.66 863.63,-490.34 953,-485 970.75,-483.94 975.23,-484.55 993,-485 1150.04,-489 1196.37,-455.17 1346,-503 1363.98,-508.75 1381.86,-521.49 1392.91,-530.41"/>
<polygon fill="#9a32cd" stroke="#9a32cd" points="237.96,-320.1 227.97,-316.57 233.58,-325.55 237.96,-320.1"/>
<text text-anchor="middle" x="892.5" y="-511" font-family="Helvetica,sans-Serif" font-size="10.00"> give_indices</text>
<text text-anchor="middle" x="892.5" y="-500" font-family="Helvetica,sans-Serif" font-size="10.00">type_indice</text>
</g>
<!-- Node4&#45;&gt;Node19 -->
<g id="edge48" class="edge">
<title>Node4&#45;&gt;Node19</title>
<path fill="none" stroke="#9a32cd" stroke-dasharray="5,2" d="M226.12,-325.46C250.61,-370.27 320.13,-484.59 415,-532 423.77,-536.38 1012.77,-583.42 1194.32,-597.83"/>
<polygon fill="#9a32cd" stroke="#9a32cd" points="229.15,-323.71 221.35,-316.55 222.98,-327.01 229.15,-323.71"/>
<text text-anchor="middle" x="801.5" y="-571" font-family="Helvetica,sans-Serif" font-size="10.00"> basis</text>
</g>
<!-- Node5&#45;&gt;Node2 -->
<g id="edge5" class="edge">
<title>Node5&#45;&gt;Node2</title>
<path fill="none" stroke="#9a32cd" stroke-dasharray="5,2" d="M1861.66,-132.03C1763.84,-130.53 1546.65,-128.73 1364,-138 1269.79,-142.78 1159.55,-151.41 1100,-156.32"/>
<polygon fill="#9a32cd" stroke="#9a32cd" points="1861.82,-135.53 1871.87,-132.19 1861.93,-128.53 1861.82,-135.53"/>
<text text-anchor="middle" x="1481" y="-137" font-family="Helvetica,sans-Serif" font-size="10.00"> parts</text>
</g>
<!-- Node5&#45;&gt;Node5 -->
<g id="edge7" class="edge">
<title>Node5&#45;&gt;Node5</title>
<path fill="none" stroke="#9a32cd" stroke-dasharray="5,2" d="M1902.11,-152.77C1903.12,-157.5 1907.42,-161 1915,-161 1927.44,-161 1931.04,-151.57 1925.79,-142.76"/>
<polygon fill="#9a32cd" stroke="#9a32cd" points="1905.58,-153.26 1904.21,-142.76 1898.73,-151.82 1905.58,-153.26"/>
<text text-anchor="middle" x="1915" y="-164" font-family="Helvetica,sans-Serif" font-size="10.00"> parts</text>
</g>
<!-- Node5&#45;&gt;Node7 -->
<g id="edge12" class="edge">
<title>Node5&#45;&gt;Node7</title>
<path fill="none" stroke="#9a32cd" stroke-dasharray="5,2" d="M1968.55,-133C1986.76,-133 2006.83,-133 2023.73,-133"/>
<polygon fill="#9a32cd" stroke="#9a32cd" points="1968.37,-129.5 1958.37,-133 1968.37,-136.5 1968.37,-129.5"/>
<text text-anchor="middle" x="1988.5" y="-136" font-family="Helvetica,sans-Serif" font-size="10.00"> parts</text>
</g>
<!-- Node22 -->
<g id="node22" class="node">
<title>Node22</title>
<g id="a_node22"><a xlink:href="classKadath_1_1Ope__def.html" target="_top" xlink:title=" ">
<polygon fill="none" stroke="black" points="2019,-406.5 2019,-425.5 2108,-425.5 2108,-406.5 2019,-406.5"/>
<text text-anchor="middle" x="2063.5" y="-413.5" font-family="Helvetica,sans-Serif" font-size="10.00">Kadath::Ope_def</text>
</a>
</g>
</g>
<!-- Node5&#45;&gt;Node22 -->
<g id="edge58" class="edge">
<title>Node5&#45;&gt;Node22</title>
<path fill="none" stroke="midnightblue" d="M1925.69,-151.71C1954.06,-206.52 2036.3,-365.39 2057.48,-406.3"/>
<polygon fill="midnightblue" stroke="midnightblue" points="1928.75,-150.01 1921.04,-142.74 1922.53,-153.23 1928.75,-150.01"/>
</g>
<!-- Node6&#45;&gt;Node5 -->
<g id="edge8" class="edge">
<title>Node6&#45;&gt;Node5</title>
<path fill="none" stroke="#9a32cd" stroke-dasharray="5,2" d="M1762.48,-396.58C1773.58,-362.03 1799.3,-288.23 1833,-232 1854.46,-196.19 1888.08,-159.58 1904.43,-142.66"/>
<polygon fill="#9a32cd" stroke="#9a32cd" points="1759.07,-395.76 1759.41,-406.35 1765.75,-397.86 1759.07,-395.76"/>
<text text-anchor="middle" x="1843.5" y="-235" font-family="Helvetica,sans-Serif" font-size="10.00"> syst</text>
</g>
<!-- Node6&#45;&gt;Node21 -->
<g id="edge54" class="edge">
<title>Node6&#45;&gt;Node21</title>
<path fill="none" stroke="#9a32cd" stroke-dasharray="5,2" d="M1762.55,-435.48C1773.74,-470.14 1799.61,-544.23 1833,-601 1854.67,-637.84 1888.49,-675.88 1904.71,-693.27"/>
<polygon fill="#9a32cd" stroke="#9a32cd" points="1765.8,-434.15 1759.44,-425.68 1759.13,-436.27 1765.8,-434.15"/>
<text text-anchor="middle" x="1843.5" y="-633" font-family="Helvetica,sans-Serif" font-size="10.00"> syst</text>
</g>
<!-- Node7&#45;&gt;Node6 -->
<g id="edge10" class="edge">
<title>Node7&#45;&gt;Node6</title>
<path fill="none" stroke="#9a32cd" stroke-dasharray="5,2" d="M2044.48,-149.66C1987.44,-202.42 1811.91,-364.76 1767.03,-406.26"/>
<polygon fill="#9a32cd" stroke="#9a32cd" points="2047.05,-152.06 2052.01,-142.7 2042.29,-146.92 2047.05,-152.06"/>
<text text-anchor="middle" x="1915" y="-310" font-family="Helvetica,sans-Serif" font-size="10.00"> eq_int</text>
</g>
<!-- Node8&#45;&gt;Node6 -->
<g id="edge13" class="edge">
<title>Node8&#45;&gt;Node6</title>
<path fill="none" stroke="#9a32cd" stroke-dasharray="5,2" d="M1105.89,-620.12C1109.97,-620.81 1114.05,-621.45 1118,-622 1212.54,-635.16 1236.55,-640 1332,-640 1332,-640 1332,-640 1562,-640 1676.86,-640 1738.1,-468.5 1751.61,-425.62"/>
<polygon fill="#9a32cd" stroke="#9a32cd" points="1106.22,-616.63 1095.76,-618.32 1105,-623.52 1106.22,-616.63"/>
<text text-anchor="middle" x="1405" y="-643" font-family="Helvetica,sans-Serif" font-size="10.00"> espace</text>
</g>
<!-- Node8&#45;&gt;Node17 -->
<g id="edge40" class="edge">
<title>Node8&#45;&gt;Node17</title>
<path fill="none" stroke="#9a32cd" stroke-dasharray="5,2" d="M1096.67,-597.54C1123.93,-589.43 1160.89,-579.07 1194,-572 1252.61,-559.48 1321.43,-549.96 1363.88,-544.68"/>
<polygon fill="#9a32cd" stroke="#9a32cd" points="1095.67,-594.19 1087.1,-600.42 1097.68,-600.9 1095.67,-594.19"/>
<text text-anchor="middle" x="1248" y="-575" font-family="Helvetica,sans-Serif" font-size="10.00"> espace</text>
</g>
<!-- Node8&#45;&gt;Node19 -->
<g id="edge47" class="edge">
<title>Node8&#45;&gt;Node19</title>
<path fill="none" stroke="#9a32cd" stroke-dasharray="5,2" d="M1105.58,-607.94C1132.77,-606.8 1166.57,-605.38 1194.32,-604.21"/>
<polygon fill="#9a32cd" stroke="#9a32cd" points="1105.35,-604.45 1095.51,-608.36 1105.65,-611.44 1105.35,-604.45"/>
<text text-anchor="middle" x="1147" y="-610" font-family="Helvetica,sans-Serif" font-size="10.00"> space</text>
</g>
<!-- Node8&#45;&gt;Node21 -->
<g id="edge53" class="edge">
<title>Node8&#45;&gt;Node21</title>
<path fill="none" stroke="#9a32cd" stroke-dasharray="5,2" d="M1082.07,-624.15C1092.87,-629.56 1105.76,-635.32 1118,-639 1150.68,-648.83 1160.1,-646.01 1194,-650 1384.58,-672.42 1432.57,-675.7 1624,-689 1713.76,-695.23 1819.34,-699.58 1875.04,-701.64"/>
<polygon fill="#9a32cd" stroke="#9a32cd" points="1083.68,-621.04 1073.19,-619.53 1080.45,-627.25 1083.68,-621.04"/>
<text text-anchor="middle" x="1481" y="-683" font-family="Helvetica,sans-Serif" font-size="10.00"> espace</text>
</g>
<!-- Node9&#45;&gt;Node2 -->
<g id="edge60" class="edge">
<title>Node9&#45;&gt;Node2</title>
<path fill="none" stroke="#9a32cd" stroke-dasharray="5,2" d="M905.43,-385.93C937.31,-337.61 1023.74,-206.62 1048.06,-169.76"/>
<polygon fill="#9a32cd" stroke="#9a32cd" points="902.4,-384.16 899.81,-394.43 908.24,-388.02 902.4,-384.16"/>
<text text-anchor="middle" x="973" y="-314" font-family="Helvetica,sans-Serif" font-size="10.00"> dom</text>
</g>
<!-- Node9&#45;&gt;Node8 -->
<g id="edge15" class="edge">
<title>Node9&#45;&gt;Node8</title>
<path fill="none" stroke="#9a32cd" stroke-dasharray="5,2" d="M907.24,-421.58C939.9,-463.37 1021.34,-567.57 1046.78,-600.12"/>
<polygon fill="#9a32cd" stroke="#9a32cd" points="909.97,-419.38 901.05,-413.66 904.45,-423.69 909.97,-419.38"/>
<text text-anchor="middle" x="973" y="-528" font-family="Helvetica,sans-Serif" font-size="10.00"> domains</text>
</g>
<!-- Node9&#45;&gt;Node12 -->
<g id="edge28" class="edge">
<title>Node9&#45;&gt;Node12</title>
<path fill="none" stroke="#9a32cd" stroke-dasharray="5,2" d="M839.76,-398.47C837.14,-398.29 834.54,-398.13 832,-398 806.06,-396.7 777.17,-396.98 753.27,-397.68"/>
<polygon fill="#9a32cd" stroke="#9a32cd" points="839.68,-401.97 849.93,-399.27 840.23,-394.99 839.68,-401.97"/>
<text text-anchor="middle" x="801.5" y="-401" font-family="Helvetica,sans-Serif" font-size="10.00"> zone</text>
</g>
<!-- Node10&#45;&gt;Node9 -->
<g id="edge17" class="edge">
<title>Node10&#45;&gt;Node9</title>
<path fill="none" stroke="#9a32cd" stroke-dasharray="5,2" d="M273.22,-220.04C371.21,-237.5 578.5,-274.97 753,-310 788.21,-317.07 801.62,-307.85 832,-327 859.01,-344.03 878.57,-377.88 886.96,-394.44"/>
<polygon fill="#9a32cd" stroke="#9a32cd" points="273.69,-216.57 263.23,-218.26 272.46,-223.46 273.69,-216.57"/>
<text text-anchor="middle" x="592" y="-299" font-family="Helvetica,sans-Serif" font-size="10.00"> nbr_coefs</text>
<text text-anchor="middle" x="592" y="-288" font-family="Helvetica,sans-Serif" font-size="10.00">nbr_points</text>
</g>
<!-- Node10&#45;&gt;Node14 -->
<g id="edge31" class="edge">
<title>Node10&#45;&gt;Node14</title>
<path fill="none" stroke="#9a32cd" stroke-dasharray="5,2" d="M231.86,-192.65C244.69,-179.01 264.04,-160.32 284,-148 333.11,-117.68 397.07,-96.66 436.7,-85.47"/>
<polygon fill="#9a32cd" stroke="#9a32cd" points="228.94,-190.65 224.77,-200.38 234.11,-195.38 228.94,-190.65"/>
<text text-anchor="middle" x="340.5" y="-151" font-family="Helvetica,sans-Serif" font-size="10.00"> sizes</text>
</g>
<!-- Node11&#45;&gt;Node6 -->
<g id="edge35" class="edge">
<title>Node11&#45;&gt;Node6</title>
<path fill="none" stroke="#9a32cd" stroke-dasharray="5,2" d="M492.09,-460.78C504.06,-448.12 520.45,-430.35 534,-414 542.51,-403.73 540.78,-397.21 552,-390 681.94,-306.54 737.07,-316 891.5,-316 891.5,-316 891.5,-316 1562,-316 1639.96,-316 1717.7,-381.38 1744.61,-406.41"/>
<polygon fill="#9a32cd" stroke="#9a32cd" points="489.29,-458.64 484.93,-468.29 494.36,-463.47 489.29,-458.64"/>
<text text-anchor="middle" x="1147" y="-319" font-family="Helvetica,sans-Serif" font-size="10.00"> val_cst_hard</text>
</g>
<!-- Node11&#45;&gt;Node9 -->
<g id="edge19" class="edge">
<title>Node11&#45;&gt;Node9</title>
<path fill="none" stroke="#9a32cd" stroke-dasharray="5,2" d="M544.21,-488.71C618.59,-497.16 739.04,-501.51 832,-460 855.06,-449.71 874.82,-426.65 884.72,-413.56"/>
<polygon fill="#9a32cd" stroke="#9a32cd" points="544.37,-485.2 534.02,-487.49 543.54,-492.15 544.37,-485.2"/>
<text text-anchor="middle" x="701.5" y="-497" font-family="Helvetica,sans-Serif" font-size="10.00"> coloc</text>
</g>
<!-- Node11&#45;&gt;Node12 -->
<g id="edge23" class="edge">
<title>Node11&#45;&gt;Node12</title>
<path fill="none" stroke="#9a32cd" stroke-dasharray="5,2" d="M516.82,-465.48C528.21,-462.05 540.58,-458.36 552,-455 587.49,-444.56 597.36,-444.98 632,-432 649.33,-425.51 668.35,-416.46 681.94,-409.64"/>
<polygon fill="#9a32cd" stroke="#9a32cd" points="515.68,-462.17 507.11,-468.4 517.7,-468.87 515.68,-462.17"/>
<text text-anchor="middle" x="592" y="-469" font-family="Helvetica,sans-Serif" font-size="10.00"> c</text>
<text text-anchor="middle" x="592" y="-458" font-family="Helvetica,sans-Serif" font-size="10.00">cf</text>
</g>
<!-- Node12&#45;&gt;Node9 -->
<g id="edge21" class="edge">
<title>Node12&#45;&gt;Node9</title>
<path fill="none" stroke="#9a32cd" stroke-dasharray="5,2" d="M763.32,-410.28C765.91,-410.56 768.48,-410.8 771,-411 798.03,-413.16 804.94,-412.59 832,-411 837.81,-410.66 843.93,-410.13 849.94,-409.52"/>
<polygon fill="#9a32cd" stroke="#9a32cd" points="763.61,-406.79 753.26,-409.07 762.78,-413.74 763.61,-406.79"/>
<text text-anchor="middle" x="801.5" y="-448" font-family="Helvetica,sans-Serif" font-size="10.00"> absol</text>
<text text-anchor="middle" x="801.5" y="-437" font-family="Helvetica,sans-Serif" font-size="10.00">cart</text>
<text text-anchor="middle" x="801.5" y="-426" font-family="Helvetica,sans-Serif" font-size="10.00">cart_surr</text>
<text text-anchor="middle" x="801.5" y="-415" font-family="Helvetica,sans-Serif" font-size="10.00">radius</text>
</g>
<!-- Node12&#45;&gt;Node12 -->
<g id="edge24" class="edge">
<title>Node12&#45;&gt;Node12</title>
<path fill="none" stroke="#9a32cd" stroke-dasharray="5,2" d="M682.98,-419.4C684.22,-424.31 690.39,-428 701.5,-428 719.27,-428 724.41,-418.57 716.91,-409.76"/>
<polygon fill="#9a32cd" stroke="#9a32cd" points="686.35,-420.35 686.09,-409.76 679.69,-418.2 686.35,-420.35"/>
<text text-anchor="middle" x="701.5" y="-442" font-family="Helvetica,sans-Serif" font-size="10.00"> p_der_abs</text>
<text text-anchor="middle" x="701.5" y="-431" font-family="Helvetica,sans-Serif" font-size="10.00">p_der_var</text>
</g>
<!-- Node18 -->
<g id="node18" class="node">
<title>Node18</title>
<g id="a_node18"><a xlink:href="classKadath_1_1Scalar.html" target="_top" xlink:title=" ">
<polygon fill="none" stroke="black" points="1521,-471.5 1521,-490.5 1601,-490.5 1601,-471.5 1521,-471.5"/>
<text text-anchor="middle" x="1561" y="-478.5" font-family="Helvetica,sans-Serif" font-size="10.00">Kadath::Scalar</text>
</a>
</g>
</g>
<!-- Node12&#45;&gt;Node18 -->
<g id="edge43" class="edge">
<title>Node12&#45;&gt;Node18</title>
<path fill="none" stroke="#9a32cd" stroke-dasharray="5,2" d="M745.01,-387.89C783.06,-378.12 840.54,-366 891.5,-366 891.5,-366 891.5,-366 1406,-366 1476.07,-366 1534.81,-443.38 1553.66,-471.2"/>
<polygon fill="#9a32cd" stroke="#9a32cd" points="744.08,-384.51 735.3,-390.44 745.86,-391.28 744.08,-384.51"/>
<text text-anchor="middle" x="1147" y="-369" font-family="Helvetica,sans-Serif" font-size="10.00"> val_zones</text>
</g>
<!-- Node13&#45;&gt;Node12 -->
<g id="edge25" class="edge">
<title>Node13&#45;&gt;Node12</title>
<path fill="none" stroke="#9a32cd" stroke-dasharray="5,2" d="M541.69,-394.66C569.57,-394.72 602.37,-395.04 632,-396 637.72,-396.18 643.7,-396.44 649.64,-396.74"/>
<polygon fill="#9a32cd" stroke="#9a32cd" points="541.65,-391.16 531.65,-394.65 541.65,-398.16 541.65,-391.16"/>
<text text-anchor="middle" x="592" y="-399" font-family="Helvetica,sans-Serif" font-size="10.00"> base</text>
</g>
<!-- Node14&#45;&gt;Node6 -->
<g id="edge29" class="edge">
<title>Node14&#45;&gt;Node6</title>
<path fill="none" stroke="#9a32cd" stroke-dasharray="5,2" d="M522.29,-76C567.8,-76 638.89,-76 700.5,-76 700.5,-76 700.5,-76 1334,-76 1493.34,-76 1570.91,-59.01 1678,-177 1741.83,-247.33 1752.42,-371.19 1754.16,-406.41"/>
<polygon fill="#9a32cd" stroke="#9a32cd" points="522.13,-72.5 512.13,-76 522.13,-79.5 522.13,-72.5"/>
<text text-anchor="middle" x="1147" y="-79" font-family="Helvetica,sans-Serif" font-size="10.00"> which_coef</text>
</g>
<!-- Node15&#45;&gt;Node6 -->
<g id="edge33" class="edge">
<title>Node15&#45;&gt;Node6</title>
<path fill="none" stroke="#9a32cd" stroke-dasharray="5,2" d="M642.25,-754C684.29,-754 746.37,-754 800.5,-754 800.5,-754 800.5,-754 1334,-754 1397.63,-754 1404.3,-716.03 1464,-694 1525.51,-671.3 1545.78,-679.92 1606,-654 1640.24,-639.26 1653.9,-639.43 1678,-611 1728.09,-551.91 1747.79,-456.16 1752.99,-425.66"/>
<polygon fill="#9a32cd" stroke="#9a32cd" points="642.01,-750.5 632.01,-754 642.01,-757.5 642.01,-750.5"/>
<text text-anchor="middle" x="1147" y="-768" font-family="Helvetica,sans-Serif" font-size="10.00"> paruser</text>
<text text-anchor="middle" x="1147" y="-757" font-family="Helvetica,sans-Serif" font-size="10.00">paruser_bin</text>
</g>
<!-- Node16&#45;&gt;Node6 -->
<g id="edge36" class="edge">
<title>Node16&#45;&gt;Node6</title>
<path fill="none" stroke="#9a32cd" stroke-dasharray="5,2" d="M1580.62,-775.21C1592.87,-764.24 1609.28,-749.65 1624,-737 1647.69,-716.63 1661.06,-718.25 1678,-692 1737.19,-600.3 1751.12,-462.94 1753.89,-425.64"/>
<polygon fill="#9a32cd" stroke="#9a32cd" points="1577.99,-772.87 1572.89,-782.16 1582.66,-778.08 1577.99,-772.87"/>
<text text-anchor="middle" x="1651" y="-806" font-family="Helvetica,sans-Serif" font-size="10.00"> cst</text>
<text text-anchor="middle" x="1651" y="-795" font-family="Helvetica,sans-Serif" font-size="10.00">cst_hard</text>
<text text-anchor="middle" x="1651" y="-784" font-family="Helvetica,sans-Serif" font-size="10.00">opeuser</text>
<text text-anchor="middle" x="1651" y="-773" font-family="Helvetica,sans-Serif" font-size="10.00">opeuser_bin</text>
<text text-anchor="middle" x="1651" y="-762" font-family="Helvetica,sans-Serif" font-size="10.00">results</text>
<text text-anchor="middle" x="1651" y="-751" font-family="Helvetica,sans-Serif" font-size="10.00">term</text>
<text text-anchor="middle" x="1651" y="-740" font-family="Helvetica,sans-Serif" font-size="10.00">term_double</text>
</g>
<!-- Node16&#45;&gt;Node21 -->
<g id="edge55" class="edge">
<title>Node16&#45;&gt;Node21</title>
<path fill="none" stroke="#9a32cd" stroke-dasharray="5,2" d="M1587.11,-806.41C1612,-818.59 1650.32,-831.51 1678,-814 1693.79,-804.01 1682.02,-788.4 1696,-776 1722.94,-752.09 1820.27,-725.61 1875.33,-712.06"/>
<polygon fill="#9a32cd" stroke="#9a32cd" points="1588.45,-803.16 1577.96,-801.67 1585.23,-809.38 1588.45,-803.16"/>
<text text-anchor="middle" x="1755.5" y="-856" font-family="Helvetica,sans-Serif" font-size="10.00"> p_christo</text>
<text text-anchor="middle" x="1755.5" y="-845" font-family="Helvetica,sans-Serif" font-size="10.00">p_det_cov</text>
<text text-anchor="middle" x="1755.5" y="-834" font-family="Helvetica,sans-Serif" font-size="10.00">p_dirac</text>
<text text-anchor="middle" x="1755.5" y="-823" font-family="Helvetica,sans-Serif" font-size="10.00">p_met_con</text>
<text text-anchor="middle" x="1755.5" y="-812" font-family="Helvetica,sans-Serif" font-size="10.00">p_met_cov</text>
<text text-anchor="middle" x="1755.5" y="-801" font-family="Helvetica,sans-Serif" font-size="10.00">p_ricci_scalar</text>
<text text-anchor="middle" x="1755.5" y="-790" font-family="Helvetica,sans-Serif" font-size="10.00">p_ricci_tensor</text>
<text text-anchor="middle" x="1755.5" y="-779" font-family="Helvetica,sans-Serif" font-size="10.00">p_riemann</text>
</g>
<!-- Node16&#45;&gt;Node22 -->
<g id="edge59" class="edge">
<title>Node16&#45;&gt;Node22</title>
<path fill="none" stroke="#9a32cd" stroke-dasharray="5,2" d="M1584.62,-807.44C1596.2,-815.13 1610.65,-824.39 1624,-832 1699.04,-874.8 1735.36,-901.47 1815,-868 2005.52,-787.92 2053.73,-484.33 2061.33,-425.8"/>
<polygon fill="#9a32cd" stroke="#9a32cd" points="1586.26,-804.33 1576.01,-801.67 1582.36,-810.14 1586.26,-804.33"/>
<text text-anchor="middle" x="1843.5" y="-862" font-family="Helvetica,sans-Serif" font-size="10.00"> res</text>
</g>
<!-- Node17&#45;&gt;Node6 -->
<g id="edge56" class="edge">
<title>Node17&#45;&gt;Node6</title>
<path fill="none" stroke="#9a32cd" stroke-dasharray="5,2" d="M1456.52,-533.1C1470.04,-531.04 1484.61,-528.63 1498,-526 1546.45,-516.5 1560.07,-518.11 1606,-500 1658.36,-479.36 1714.8,-443.09 1740.42,-425.76"/>
<polygon fill="#9a32cd" stroke="#9a32cd" points="1455.81,-529.67 1446.43,-534.61 1456.84,-536.6 1455.81,-529.67"/>
<text text-anchor="middle" x="1561" y="-525" font-family="Helvetica,sans-Serif" font-size="10.00"> var</text>
</g>
<!-- Node17&#45;&gt;Node16 -->
<g id="edge38" class="edge">
<title>Node17&#45;&gt;Node16</title>
<path fill="none" stroke="#9a32cd" stroke-dasharray="5,2" d="M1419.51,-557.76C1438.17,-582.64 1472.43,-629.61 1498,-672 1521.98,-711.76 1545.96,-761.8 1555.59,-782.43"/>
<polygon fill="#9a32cd" stroke="#9a32cd" points="1422.2,-555.51 1413.38,-549.64 1416.61,-559.73 1422.2,-555.51"/>
<text text-anchor="middle" x="1481" y="-686" font-family="Helvetica,sans-Serif" font-size="10.00"> der_t</text>
<text text-anchor="middle" x="1481" y="-675" font-family="Helvetica,sans-Serif" font-size="10.00">val_t</text>
</g>
<!-- Node17&#45;&gt;Node18 -->
<g id="edge42" class="edge">
<title>Node17&#45;&gt;Node18</title>
<path fill="none" stroke="midnightblue" d="M1424.55,-523.76C1435.36,-515.12 1449.66,-505.07 1464,-499 1481.8,-491.47 1502.79,-487.07 1520.59,-484.52"/>
<polygon fill="midnightblue" stroke="midnightblue" points="1422.15,-521.19 1416.69,-530.27 1426.62,-526.58 1422.15,-521.19"/>
</g>
<!-- Node18&#45;&gt;Node17 -->
<g id="edge41" class="edge">
<title>Node18&#45;&gt;Node17</title>
<path fill="none" stroke="#9a32cd" stroke-dasharray="5,2" d="M1521.33,-494.04C1503.74,-500.14 1482.71,-507.66 1464,-515 1451.75,-519.8 1438.24,-525.6 1427.34,-530.4"/>
<polygon fill="#9a32cd" stroke="#9a32cd" points="1522.93,-497.19 1531.25,-490.62 1520.66,-490.57 1522.93,-497.19"/>
<text text-anchor="middle" x="1481" y="-518" font-family="Helvetica,sans-Serif" font-size="10.00"> cmp</text>
</g>
<!-- Node19&#45;&gt;Node17 -->
<g id="edge45" class="edge">
<title>Node19&#45;&gt;Node17</title>
<path fill="none" stroke="#9a32cd" stroke-dasharray="5,2" d="M1308.39,-589.86C1321.05,-586.4 1334.17,-582.14 1346,-577 1362.65,-569.76 1379.98,-558.08 1391.3,-549.77"/>
<polygon fill="#9a32cd" stroke="#9a32cd" points="1307.16,-586.56 1298.36,-592.47 1308.92,-593.34 1307.16,-586.56"/>
<text text-anchor="middle" x="1333" y="-589" font-family="Helvetica,sans-Serif" font-size="10.00"> basis</text>
</g>
<!-- Node20&#45;&gt;Node17 -->
<g id="edge49" class="edge">
<title>Node20&#45;&gt;Node17</title>
<path fill="none" stroke="#9a32cd" stroke-dasharray="5,2" d="M407.58,-715C457.87,-715 528.8,-715 591,-715 591,-715 591,-715 1056.5,-715 1194.78,-715 1233.34,-681.19 1346,-601 1366.95,-586.09 1386.51,-562.85 1396.69,-549.78"/>
<polygon fill="#9a32cd" stroke="#9a32cd" points="407.49,-711.5 397.49,-715 407.49,-718.5 407.49,-711.5"/>
<text text-anchor="middle" x="892.5" y="-718" font-family="Helvetica,sans-Serif" font-size="10.00"> parameters</text>
</g>
<!-- Node21&#45;&gt;Node6 -->
<g id="edge51" class="edge">
<title>Node21&#45;&gt;Node6</title>
<path fill="none" stroke="#9a32cd" stroke-dasharray="5,2" d="M1904.17,-684.18C1892.39,-661.69 1871.99,-622.97 1854,-590 1819.67,-527.08 1777.11,-452.15 1762.08,-425.77"/>
<polygon fill="#9a32cd" stroke="#9a32cd" points="1901.2,-686.05 1908.94,-693.29 1907.4,-682.8 1901.2,-686.05"/>
<text text-anchor="middle" x="1843.5" y="-593" font-family="Helvetica,sans-Serif" font-size="10.00"> met</text>
</g>
<!-- Node22&#45;&gt;Node6 -->
<g id="edge57" class="edge">
<title>Node22&#45;&gt;Node6</title>
<path fill="none" stroke="#9a32cd" stroke-dasharray="5,2" d="M2008.79,-416C1954.57,-416 1871.06,-416 1815.14,-416"/>
<polygon fill="#9a32cd" stroke="#9a32cd" points="2008.9,-419.5 2018.9,-416 2008.9,-412.5 2008.9,-419.5"/>
<text text-anchor="middle" x="1915" y="-419" font-family="Helvetica,sans-Serif" font-size="10.00"> def</text>
</g>
</g>
</svg>
