<?xml version="1.0" encoding="UTF-8" standalone="no"?>
<!DOCTYPE svg PUBLIC "-//W3C//DTD SVG 1.1//EN"
 "http://www.w3.org/Graphics/SVG/1.1/DTD/svg11.dtd">
<!-- Generated by graphviz version 2.47.1 (20210515.0534)
 -->
<!-- Title: Kadath::Eq_int Pages: 1 -->
<svg width="2096pt" height="846pt"
 viewBox="0.00 0.00 2096.00 846.00" xmlns="http://www.w3.org/2000/svg" xmlns:xlink="http://www.w3.org/1999/xlink">
<g id="graph0" class="graph" transform="scale(1 1) rotate(0) translate(4 842)">
<title>Kadath::Eq_int</title>
<!-- Node1 -->
<g id="node1" class="node">
<title>Node1</title>
<g id="a_node1"><a xlink:title=" ">
<polygon fill="#bfbfbf" stroke="black" points="176,-74.5 176,-93.5 255,-93.5 255,-74.5 176,-74.5"/>
<text text-anchor="middle" x="215.5" y="-81.5" font-family="Helvetica,sans-Serif" font-size="10.00">Kadath::Eq_int</text>
</a>
</g>
</g>
<!-- Node4 -->
<g id="node4" class="node">
<title>Node4</title>
<g id="a_node4"><a xlink:href="classKadath_1_1System__of__eqs.html" target="_top" xlink:title=" ">
<polygon fill="none" stroke="black" points="1676,-315.5 1676,-334.5 1795,-334.5 1795,-315.5 1676,-315.5"/>
<text text-anchor="middle" x="1735.5" y="-322.5" font-family="Helvetica,sans-Serif" font-size="10.00">Kadath::System_of_eqs</text>
</a>
</g>
</g>
<!-- Node1&#45;&gt;Node4 -->
<g id="edge25" class="edge">
<title>Node1&#45;&gt;Node4</title>
<path fill="none" stroke="#9a32cd" stroke-dasharray="5,2" d="M265.5,-84C310.88,-84 380.25,-84 440.5,-84 440.5,-84 440.5,-84 1542,-84 1599.44,-84 1618.67,-99.13 1658,-141 1708.21,-194.46 1727.72,-285.56 1732.95,-315.3"/>
<polygon fill="#9a32cd" stroke="#9a32cd" points="265.35,-80.5 255.35,-84 265.35,-87.5 265.35,-80.5"/>
<text text-anchor="middle" x="1041" y="-87" font-family="Helvetica,sans-Serif" font-size="10.00"> eq_int</text>
</g>
<!-- Node2 -->
<g id="node2" class="node">
<title>Node2</title>
<g id="a_node2"><a xlink:href="structKadath_1_1MemoryMappable.html" target="_top" xlink:title=" ">
<polygon fill="none" stroke="black" points="0,-361.5 0,-380.5 128,-380.5 128,-361.5 0,-361.5"/>
<text text-anchor="middle" x="64" y="-368.5" font-family="Helvetica,sans-Serif" font-size="10.00">Kadath::MemoryMappable</text>
</a>
</g>
</g>
<!-- Node2&#45;&gt;Node1 -->
<g id="edge1" class="edge">
<title>Node2&#45;&gt;Node1</title>
<path fill="none" stroke="midnightblue" d="M66.9,-351.4C72.12,-306.86 90.21,-196.42 146,-126 157.61,-111.35 175.83,-100.53 190.57,-93.54"/>
<polygon fill="midnightblue" stroke="midnightblue" points="63.41,-351.15 65.82,-361.47 70.37,-351.9 63.41,-351.15"/>
</g>
<!-- Node3 -->
<g id="node3" class="node">
<title>Node3</title>
<g id="a_node3"><a xlink:href="classKadath_1_1Ope__eq.html" target="_top" xlink:title=" ">
<polygon fill="none" stroke="black" points="1852,-79.5 1852,-98.5 1938,-98.5 1938,-79.5 1852,-79.5"/>
<text text-anchor="middle" x="1895" y="-86.5" font-family="Helvetica,sans-Serif" font-size="10.00">Kadath::Ope_eq</text>
</a>
</g>
</g>
<!-- Node2&#45;&gt;Node3 -->
<g id="edge3" class="edge">
<title>Node2&#45;&gt;Node3</title>
<path fill="none" stroke="midnightblue" d="M68.47,-351.26C82.51,-274.48 138.05,0 214.5,0 214.5,0 214.5,0 1736.5,0 1800.57,0 1862.54,-56.52 1885.08,-79.48"/>
<polygon fill="midnightblue" stroke="midnightblue" points="64.96,-351 66.64,-361.46 71.85,-352.23 64.96,-351"/>
</g>
<!-- Node5 -->
<g id="node5" class="node">
<title>Node5</title>
<g id="a_node5"><a xlink:href="classKadath_1_1Equation.html" target="_top" xlink:title=" ">
<polygon fill="none" stroke="black" points="1999,-659.5 1999,-678.5 2088,-678.5 2088,-659.5 1999,-659.5"/>
<text text-anchor="middle" x="2043.5" y="-666.5" font-family="Helvetica,sans-Serif" font-size="10.00">Kadath::Equation</text>
</a>
</g>
</g>
<!-- Node2&#45;&gt;Node5 -->
<g id="edge7" class="edge">
<title>Node2&#45;&gt;Node5</title>
<path fill="none" stroke="midnightblue" d="M66.93,-390.86C76.14,-479.9 119.08,-838 214.5,-838 214.5,-838 214.5,-838 1896,-838 1981.04,-838 2027.79,-714.32 2039.53,-678.57"/>
<polygon fill="midnightblue" stroke="midnightblue" points="70.4,-390.35 65.92,-380.75 63.44,-391.05 70.4,-390.35"/>
</g>
<!-- Node6 -->
<g id="node6" class="node">
<title>Node6</title>
<g id="a_node6"><a xlink:href="classKadath_1_1Array.html" target="_top" xlink:title=" ">
<polygon fill="none" stroke="black" points="165,-488.5 165,-507.5 266,-507.5 266,-488.5 165,-488.5"/>
<text text-anchor="middle" x="215.5" y="-495.5" font-family="Helvetica,sans-Serif" font-size="10.00">Kadath::Array&lt; int &gt;</text>
</a>
</g>
</g>
<!-- Node2&#45;&gt;Node6 -->
<g id="edge9" class="edge">
<title>Node2&#45;&gt;Node6</title>
<path fill="none" stroke="midnightblue" d="M83.89,-387.05C115.36,-413.78 177.57,-466.63 203.13,-488.34"/>
<polygon fill="midnightblue" stroke="midnightblue" points="86.12,-384.35 76.24,-380.55 81.59,-389.69 86.12,-384.35"/>
</g>
<!-- Node7 -->
<g id="node7" class="node">
<title>Node7</title>
<g id="a_node7"><a xlink:href="classKadath_1_1Domain.html" target="_top" xlink:title=" ">
<polygon fill="none" stroke="black" points="828,-618.5 828,-637.5 913,-637.5 913,-618.5 828,-618.5"/>
<text text-anchor="middle" x="870.5" y="-625.5" font-family="Helvetica,sans-Serif" font-size="10.00">Kadath::Domain</text>
</a>
</g>
</g>
<!-- Node2&#45;&gt;Node7 -->
<g id="edge12" class="edge">
<title>Node2&#45;&gt;Node7</title>
<path fill="none" stroke="midnightblue" d="M64.66,-390.82C64.95,-445.09 74.2,-596.17 165,-658 389.64,-810.96 754.46,-676.07 847.41,-637.54"/>
<polygon fill="midnightblue" stroke="midnightblue" points="68.16,-390.79 64.71,-380.78 61.16,-390.76 68.16,-390.79"/>
</g>
<!-- Node8 -->
<g id="node8" class="node">
<title>Node8</title>
<g id="a_node8"><a xlink:href="classKadath_1_1Dim__array.html" target="_top" xlink:title=" ">
<polygon fill="none" stroke="black" points="168,-361.5 168,-380.5 263,-380.5 263,-361.5 168,-361.5"/>
<text text-anchor="middle" x="215.5" y="-368.5" font-family="Helvetica,sans-Serif" font-size="10.00">Kadath::Dim_array</text>
</a>
</g>
</g>
<!-- Node2&#45;&gt;Node8 -->
<g id="edge14" class="edge">
<title>Node2&#45;&gt;Node8</title>
<path fill="none" stroke="midnightblue" d="M138.69,-371C148.59,-371 158.52,-371 167.78,-371"/>
<polygon fill="midnightblue" stroke="midnightblue" points="138.4,-367.5 128.4,-371 138.4,-374.5 138.4,-367.5"/>
</g>
<!-- Node9 -->
<g id="node9" class="node">
<title>Node9</title>
<g id="a_node9"><a xlink:href="classKadath_1_1Array.html" target="_top" xlink:title=" ">
<polygon fill="none" stroke="black" points="382,-647.5 382,-666.5 501,-666.5 501,-647.5 382,-647.5"/>
<text text-anchor="middle" x="441.5" y="-654.5" font-family="Helvetica,sans-Serif" font-size="10.00">Kadath::Array&lt; double &gt;</text>
</a>
</g>
</g>
<!-- Node2&#45;&gt;Node9 -->
<g id="edge16" class="edge">
<title>Node2&#45;&gt;Node9</title>
<path fill="none" stroke="midnightblue" d="M65.13,-390.84C66.61,-437.65 77.32,-555.38 146,-613 211.94,-668.32 316.68,-670.29 381.86,-664.91"/>
<polygon fill="midnightblue" stroke="midnightblue" points="68.63,-390.47 64.93,-380.54 61.63,-390.61 68.63,-390.47"/>
</g>
<!-- Node10 -->
<g id="node10" class="node">
<title>Node10</title>
<g id="a_node10"><a xlink:href="classKadath_1_1Val__domain.html" target="_top" xlink:title=" ">
<polygon fill="none" stroke="black" points="650,-551.5 650,-570.5 753,-570.5 753,-551.5 650,-551.5"/>
<text text-anchor="middle" x="701.5" y="-558.5" font-family="Helvetica,sans-Serif" font-size="10.00">Kadath::Val_domain</text>
</a>
</g>
</g>
<!-- Node2&#45;&gt;Node10 -->
<g id="edge18" class="edge">
<title>Node2&#45;&gt;Node10</title>
<path fill="none" stroke="midnightblue" d="M70.01,-390.32C80.74,-427.59 109.55,-509.42 165,-551 331.24,-675.66 425.55,-596.51 632,-573 637.88,-572.33 644.02,-571.48 650.1,-570.54"/>
<polygon fill="midnightblue" stroke="midnightblue" points="73.39,-389.38 67.36,-380.66 66.64,-391.23 73.39,-389.38"/>
</g>
<!-- Node11 -->
<g id="node11" class="node">
<title>Node11</title>
<g id="a_node11"><a xlink:href="classKadath_1_1Base__spectral.html" target="_top" xlink:title=" ">
<polygon fill="none" stroke="black" points="384.5,-551.5 384.5,-570.5 498.5,-570.5 498.5,-551.5 384.5,-551.5"/>
<text text-anchor="middle" x="441.5" y="-558.5" font-family="Helvetica,sans-Serif" font-size="10.00">Kadath::Base_spectral</text>
</a>
</g>
</g>
<!-- Node2&#45;&gt;Node11 -->
<g id="edge22" class="edge">
<title>Node2&#45;&gt;Node11</title>
<path fill="none" stroke="midnightblue" d="M73.06,-390.14C87.15,-421.29 119.16,-482.89 165,-517 228.83,-564.49 324.16,-569.15 384.3,-566.4"/>
<polygon fill="midnightblue" stroke="midnightblue" points="76.2,-388.58 68.98,-380.83 69.79,-391.39 76.2,-388.58"/>
</g>
<!-- Node12 -->
<g id="node12" class="node">
<title>Node12</title>
<g id="a_node12"><a xlink:href="classKadath_1_1Space.html" target="_top" xlink:title=" ">
<polygon fill="none" stroke="black" points="1001,-507.5 1001,-526.5 1081,-526.5 1081,-507.5 1001,-507.5"/>
<text text-anchor="middle" x="1041" y="-514.5" font-family="Helvetica,sans-Serif" font-size="10.00">Kadath::Space</text>
</a>
</g>
</g>
<!-- Node2&#45;&gt;Node12 -->
<g id="edge27" class="edge">
<title>Node2&#45;&gt;Node12</title>
<path fill="none" stroke="midnightblue" d="M115.67,-382.54C131.39,-385.6 148.84,-388.48 165,-390 209.69,-394.21 221.11,-390.13 266,-390 507.78,-389.28 573.53,-336.6 810,-387 903.76,-406.98 997.73,-480.99 1029.07,-507.48"/>
<polygon fill="midnightblue" stroke="midnightblue" points="116.12,-379.06 105.62,-380.51 114.73,-385.92 116.12,-379.06"/>
</g>
<!-- Node13 -->
<g id="node13" class="node">
<title>Node13</title>
<g id="a_node13"><a xlink:href="classKadath_1_1Index.html" target="_top" xlink:title=" ">
<polygon fill="none" stroke="black" points="404,-171.5 404,-190.5 479,-190.5 479,-171.5 404,-171.5"/>
<text text-anchor="middle" x="441.5" y="-178.5" font-family="Helvetica,sans-Serif" font-size="10.00">Kadath::Index</text>
</a>
</g>
</g>
<!-- Node2&#45;&gt;Node13 -->
<g id="edge30" class="edge">
<title>Node2&#45;&gt;Node13</title>
<path fill="none" stroke="midnightblue" d="M68.2,-351.18C75.16,-315.18 95.34,-239.59 146,-205 224.59,-151.34 343.91,-162.85 403.68,-173.25"/>
<polygon fill="midnightblue" stroke="midnightblue" points="64.69,-350.91 66.38,-361.37 71.58,-352.14 64.69,-350.91"/>
</g>
<!-- Node14 -->
<g id="node14" class="node">
<title>Node14</title>
<g id="a_node14"><a xlink:href="classKadath_1_1Param.html" target="_top" xlink:title=" ">
<polygon fill="none" stroke="black" points="284,-124.5 284,-143.5 364,-143.5 364,-124.5 284,-124.5"/>
<text text-anchor="middle" x="324" y="-131.5" font-family="Helvetica,sans-Serif" font-size="10.00">Kadath::Param</text>
</a>
</g>
</g>
<!-- Node2&#45;&gt;Node14 -->
<g id="edge34" class="edge">
<title>Node2&#45;&gt;Node14</title>
<path fill="none" stroke="midnightblue" d="M66.66,-351.36C71.24,-310.21 87.91,-214.81 146,-167 184.74,-135.12 244.48,-130.24 283.65,-131.04"/>
<polygon fill="midnightblue" stroke="midnightblue" points="63.16,-351.15 65.66,-361.45 70.13,-351.84 63.16,-351.15"/>
</g>
<!-- Node15 -->
<g id="node15" class="node">
<title>Node15</title>
<g id="a_node15"><a xlink:href="classKadath_1_1Term__eq.html" target="_top" xlink:title=" ">
<polygon fill="none" stroke="black" points="1496,-319.5 1496,-338.5 1586,-338.5 1586,-319.5 1496,-319.5"/>
<text text-anchor="middle" x="1541" y="-326.5" font-family="Helvetica,sans-Serif" font-size="10.00">Kadath::Term_eq</text>
</a>
</g>
</g>
<!-- Node2&#45;&gt;Node15 -->
<g id="edge37" class="edge">
<title>Node2&#45;&gt;Node15</title>
<path fill="none" stroke="midnightblue" d="M72.81,-352.13C91.05,-311.42 140.61,-219 214.5,-219 214.5,-219 214.5,-219 1386,-219 1450.6,-219 1439.96,-281.88 1496,-314 1499.5,-316.01 1503.31,-317.8 1507.18,-319.39"/>
<polygon fill="midnightblue" stroke="midnightblue" points="69.52,-350.92 68.76,-361.49 75.94,-353.7 69.52,-350.92"/>
</g>
<!-- Node16 -->
<g id="node16" class="node">
<title>Node16</title>
<g id="a_node16"><a xlink:href="classKadath_1_1Tensor.html" target="_top" xlink:title=" ">
<polygon fill="none" stroke="black" points="1344,-342.5 1344,-361.5 1426,-361.5 1426,-342.5 1344,-342.5"/>
<text text-anchor="middle" x="1385" y="-349.5" font-family="Helvetica,sans-Serif" font-size="10.00">Kadath::Tensor</text>
</a>
</g>
</g>
<!-- Node2&#45;&gt;Node16 -->
<g id="edge39" class="edge">
<title>Node2&#45;&gt;Node16</title>
<path fill="none" stroke="midnightblue" d="M91.83,-357.01C111.52,-347.42 139.23,-335.33 165,-329 202.81,-319.72 404.61,-295 574.5,-295 574.5,-295 574.5,-295 1229.5,-295 1283.54,-295 1342,-326.07 1368.89,-342.33"/>
<polygon fill="midnightblue" stroke="midnightblue" points="90.24,-353.89 82.84,-361.48 93.35,-360.16 90.24,-353.89"/>
</g>
<!-- Node18 -->
<g id="node18" class="node">
<title>Node18</title>
<g id="a_node18"><a xlink:href="classKadath_1_1Base__tensor.html" target="_top" xlink:title=" ">
<polygon fill="none" stroke="black" points="1175,-342.5 1175,-361.5 1282,-361.5 1282,-342.5 1175,-342.5"/>
<text text-anchor="middle" x="1228.5" y="-349.5" font-family="Helvetica,sans-Serif" font-size="10.00">Kadath::Base_tensor</text>
</a>
</g>
</g>
<!-- Node2&#45;&gt;Node18 -->
<g id="edge46" class="edge">
<title>Node2&#45;&gt;Node18</title>
<path fill="none" stroke="midnightblue" d="M97.34,-357.82C127.22,-346.85 173.12,-333 214.5,-333 214.5,-333 214.5,-333 1042,-333 1087,-333 1137.82,-338.6 1174.87,-343.72"/>
<polygon fill="midnightblue" stroke="midnightblue" points="95.96,-354.6 87.85,-361.41 98.44,-361.15 95.96,-354.6"/>
</g>
<!-- Node19 -->
<g id="node19" class="node">
<title>Node19</title>
<g id="a_node19"><a xlink:href="classKadath_1_1Param__tensor.html" target="_top" xlink:title=" ">
<polygon fill="none" stroke="black" points="519,-247.5 519,-266.5 632,-266.5 632,-247.5 519,-247.5"/>
<text text-anchor="middle" x="575.5" y="-254.5" font-family="Helvetica,sans-Serif" font-size="10.00">Kadath::Param_tensor</text>
</a>
</g>
</g>
<!-- Node2&#45;&gt;Node19 -->
<g id="edge50" class="edge">
<title>Node2&#45;&gt;Node19</title>
<path fill="none" stroke="midnightblue" d="M75.85,-352.76C89.42,-331.72 114.71,-297.87 146,-281 270.28,-213.99 445.36,-233.04 527.94,-247.45"/>
<polygon fill="midnightblue" stroke="midnightblue" points="72.77,-351.08 70.46,-361.42 78.71,-354.78 72.77,-351.08"/>
</g>
<!-- Node20 -->
<g id="node20" class="node">
<title>Node20</title>
<g id="a_node20"><a xlink:href="classKadath_1_1Metric.html" target="_top" xlink:title=" ">
<polygon fill="none" stroke="black" points="1855.5,-408.5 1855.5,-427.5 1934.5,-427.5 1934.5,-408.5 1855.5,-408.5"/>
<text text-anchor="middle" x="1895" y="-415.5" font-family="Helvetica,sans-Serif" font-size="10.00">Kadath::Metric</text>
</a>
</g>
</g>
<!-- Node2&#45;&gt;Node20 -->
<g id="edge52" class="edge">
<title>Node2&#45;&gt;Node20</title>
<path fill="none" stroke="midnightblue" d="M67.46,-390.82C78.49,-475.17 126.65,-800 214.5,-800 214.5,-800 214.5,-800 1229.5,-800 1502.71,-800 1582.51,-730.73 1795,-559 1814.06,-543.59 1819,-539.39 1834,-520 1858.39,-488.48 1880.27,-446.16 1889.44,-427.5"/>
<polygon fill="midnightblue" stroke="midnightblue" points="70.92,-390.24 66.18,-380.77 63.97,-391.13 70.92,-390.24"/>
</g>
<!-- Node3&#45;&gt;Node1 -->
<g id="edge2" class="edge">
<title>Node3&#45;&gt;Node1</title>
<path fill="none" stroke="#9a32cd" stroke-dasharray="5,2" d="M1867.49,-74.78C1836.86,-59.69 1784.48,-38 1736.5,-38 440.5,-38 440.5,-38 440.5,-38 368.64,-38 286.42,-61 244.41,-74.47"/>
<polygon fill="#9a32cd" stroke="#9a32cd" points="1866.14,-78.01 1876.65,-79.41 1869.3,-71.77 1866.14,-78.01"/>
<text text-anchor="middle" x="1128" y="-41" font-family="Helvetica,sans-Serif" font-size="10.00"> parts</text>
</g>
<!-- Node3&#45;&gt;Node3 -->
<g id="edge4" class="edge">
<title>Node3&#45;&gt;Node3</title>
<path fill="none" stroke="#9a32cd" stroke-dasharray="5,2" d="M1882.11,-108.77C1883.12,-113.5 1887.42,-117 1895,-117 1907.44,-117 1911.04,-107.57 1905.79,-98.76"/>
<polygon fill="#9a32cd" stroke="#9a32cd" points="1885.58,-109.26 1884.21,-98.76 1878.73,-107.82 1885.58,-109.26"/>
<text text-anchor="middle" x="1895" y="-120" font-family="Helvetica,sans-Serif" font-size="10.00"> parts</text>
</g>
<!-- Node3&#45;&gt;Node5 -->
<g id="edge10" class="edge">
<title>Node3&#45;&gt;Node5</title>
<path fill="none" stroke="#9a32cd" stroke-dasharray="5,2" d="M1905.42,-108.26C1922.91,-144.78 1960.47,-226.99 1981,-300 2020.28,-439.74 2037.85,-616.74 2041.68,-659.42"/>
<polygon fill="#9a32cd" stroke="#9a32cd" points="1908.37,-106.31 1900.87,-98.83 1902.07,-109.36 1908.37,-106.31"/>
<text text-anchor="middle" x="1968.5" y="-303" font-family="Helvetica,sans-Serif" font-size="10.00"> parts</text>
</g>
<!-- Node21 -->
<g id="node21" class="node">
<title>Node21</title>
<g id="a_node21"><a xlink:href="classKadath_1_1Ope__def.html" target="_top" xlink:title=" ">
<polygon fill="none" stroke="black" points="1999,-146.5 1999,-165.5 2088,-165.5 2088,-146.5 1999,-146.5"/>
<text text-anchor="middle" x="2043.5" y="-153.5" font-family="Helvetica,sans-Serif" font-size="10.00">Kadath::Ope_def</text>
</a>
</g>
</g>
<!-- Node3&#45;&gt;Node21 -->
<g id="edge58" class="edge">
<title>Node3&#45;&gt;Node21</title>
<path fill="none" stroke="midnightblue" d="M1926.45,-102.93C1954.92,-115.94 1996.65,-135.03 2021.55,-146.42"/>
<polygon fill="midnightblue" stroke="midnightblue" points="1927.54,-99.58 1916.99,-98.6 1924.63,-105.94 1927.54,-99.58"/>
</g>
<!-- Node4&#45;&gt;Node3 -->
<g id="edge5" class="edge">
<title>Node4&#45;&gt;Node3</title>
<path fill="none" stroke="#9a32cd" stroke-dasharray="5,2" d="M1738.79,-305.14C1744.38,-265.45 1762.17,-175.67 1813,-123 1824.12,-111.48 1839.75,-103.69 1854.31,-98.51"/>
<polygon fill="#9a32cd" stroke="#9a32cd" points="1735.31,-304.77 1737.5,-315.14 1742.25,-305.67 1735.31,-304.77"/>
<text text-anchor="middle" x="1823.5" y="-126" font-family="Helvetica,sans-Serif" font-size="10.00"> syst</text>
</g>
<!-- Node4&#45;&gt;Node20 -->
<g id="edge54" class="edge">
<title>Node4&#45;&gt;Node20</title>
<path fill="none" stroke="#9a32cd" stroke-dasharray="5,2" d="M1789.85,-337.48C1804.78,-342.28 1820.59,-348.68 1834,-357 1856.47,-370.94 1876.7,-394.99 1886.94,-408.35"/>
<polygon fill="#9a32cd" stroke="#9a32cd" points="1790.78,-334.1 1780.19,-334.55 1788.74,-340.8 1790.78,-334.1"/>
<text text-anchor="middle" x="1823.5" y="-360" font-family="Helvetica,sans-Serif" font-size="10.00"> syst</text>
</g>
<!-- Node5&#45;&gt;Node4 -->
<g id="edge6" class="edge">
<title>Node5&#45;&gt;Node4</title>
<path fill="none" stroke="#9a32cd" stroke-dasharray="5,2" d="M2040.42,-649.26C2034.16,-599.19 2011.15,-465.7 1938,-388 1901.19,-348.9 1840.53,-333.92 1795.36,-328.26"/>
<polygon fill="#9a32cd" stroke="#9a32cd" points="2036.97,-649.85 2041.6,-659.38 2043.92,-649.04 2036.97,-649.85"/>
<text text-anchor="middle" x="1895" y="-391" font-family="Helvetica,sans-Serif" font-size="10.00"> eq</text>
</g>
<!-- Node6&#45;&gt;Node4 -->
<g id="edge32" class="edge">
<title>Node6&#45;&gt;Node4</title>
<path fill="none" stroke="#9a32cd" stroke-dasharray="5,2" d="M276.34,-502.97C457.51,-517.95 998.41,-562.16 1175,-571 1230.5,-573.78 1244.44,-573.14 1300,-574 1379.1,-575.22 1402.99,-600.15 1478,-575 1573.07,-543.12 1589.11,-511.86 1658,-439 1690.42,-404.71 1718.45,-355.27 1729.49,-334.62"/>
<polygon fill="#9a32cd" stroke="#9a32cd" points="276.46,-499.47 266.21,-502.13 275.88,-506.44 276.46,-499.47"/>
<text text-anchor="middle" x="1041" y="-579" font-family="Helvetica,sans-Serif" font-size="10.00"> assoc_var</text>
<text text-anchor="middle" x="1041" y="-568" font-family="Helvetica,sans-Serif" font-size="10.00">assoc_var_double</text>
</g>
<!-- Node6&#45;&gt;Node5 -->
<g id="edge8" class="edge">
<title>Node6&#45;&gt;Node5</title>
<path fill="none" stroke="#9a32cd" stroke-dasharray="5,2" d="M227.09,-516.56C249.83,-554.39 307.38,-639.9 382,-676 755.26,-856.57 897.36,-750 1312,-750 1312,-750 1312,-750 1896,-750 1954.42,-750 2011.41,-700.07 2033.21,-678.61"/>
<polygon fill="#9a32cd" stroke="#9a32cd" points="229.92,-514.47 221.84,-507.63 223.89,-518.02 229.92,-514.47"/>
<text text-anchor="middle" x="1228.5" y="-767" font-family="Helvetica,sans-Serif" font-size="10.00"> n_cond</text>
<text text-anchor="middle" x="1228.5" y="-756" font-family="Helvetica,sans-Serif" font-size="10.00">p_cmp_used</text>
</g>
<!-- Node6&#45;&gt;Node11 -->
<g id="edge23" class="edge">
<title>Node6&#45;&gt;Node11</title>
<path fill="none" stroke="#9a32cd" stroke-dasharray="5,2" d="M252.68,-510.91C262.77,-514.35 273.77,-517.95 284,-521 322.84,-532.56 367.69,-543.82 399.4,-551.43"/>
<polygon fill="#9a32cd" stroke="#9a32cd" points="253.55,-507.51 242.96,-507.55 251.26,-514.12 253.55,-507.51"/>
<text text-anchor="middle" x="324" y="-544" font-family="Helvetica,sans-Serif" font-size="10.00"> bases_1d</text>
</g>
<!-- Node6&#45;&gt;Node16 -->
<g id="edge44" class="edge">
<title>Node6&#45;&gt;Node16</title>
<path fill="none" stroke="#9a32cd" stroke-dasharray="5,2" d="M276.16,-493.94C443.14,-481.93 928.95,-442.61 1326,-367 1333.87,-365.5 1342.25,-363.55 1350.12,-361.55"/>
<polygon fill="#9a32cd" stroke="#9a32cd" points="275.82,-490.45 266.09,-494.66 276.32,-497.44 275.82,-490.45"/>
<text text-anchor="middle" x="870.5" y="-455" font-family="Helvetica,sans-Serif" font-size="10.00"> give_indices</text>
<text text-anchor="middle" x="870.5" y="-444" font-family="Helvetica,sans-Serif" font-size="10.00">type_indice</text>
</g>
<!-- Node6&#45;&gt;Node18 -->
<g id="edge48" class="edge">
<title>Node6&#45;&gt;Node18</title>
<path fill="none" stroke="#9a32cd" stroke-dasharray="5,2" d="M245.67,-484.32C257.35,-479.37 271.08,-474.22 284,-471 434.95,-433.32 477.57,-451.93 632,-433 832.91,-408.37 1071.3,-374.55 1174.99,-359.62"/>
<polygon fill="#9a32cd" stroke="#9a32cd" points="244.16,-481.16 236.4,-488.37 246.97,-487.57 244.16,-481.16"/>
<text text-anchor="middle" x="790.5" y="-418" font-family="Helvetica,sans-Serif" font-size="10.00"> basis</text>
</g>
<!-- Node7&#45;&gt;Node5 -->
<g id="edge11" class="edge">
<title>Node7&#45;&gt;Node5</title>
<path fill="none" stroke="#9a32cd" stroke-dasharray="5,2" d="M923.18,-637.34C956.43,-642.55 1000.62,-648 1040,-648 1040,-648 1040,-648 1462,-648 1662.69,-648 1902.14,-660.69 1998.83,-666.34"/>
<polygon fill="#9a32cd" stroke="#9a32cd" points="923.66,-633.87 913.23,-635.73 922.55,-640.78 923.66,-633.87"/>
<text text-anchor="middle" x="1461" y="-651" font-family="Helvetica,sans-Serif" font-size="10.00"> dom</text>
</g>
<!-- Node7&#45;&gt;Node10 -->
<g id="edge24" class="edge">
<title>Node7&#45;&gt;Node10</title>
<path fill="none" stroke="#9a32cd" stroke-dasharray="5,2" d="M817.82,-620.12C802.39,-616.8 785.69,-612.22 771,-606 749.51,-596.9 727.44,-580.99 714.36,-570.73"/>
<polygon fill="#9a32cd" stroke="#9a32cd" points="817.24,-623.57 827.73,-622.12 818.62,-616.71 817.24,-623.57"/>
<text text-anchor="middle" x="790.5" y="-620" font-family="Helvetica,sans-Serif" font-size="10.00"> zone</text>
</g>
<!-- Node7&#45;&gt;Node12 -->
<g id="edge28" class="edge">
<title>Node7&#45;&gt;Node12</title>
<path fill="none" stroke="#9a32cd" stroke-dasharray="5,2" d="M894.83,-612.63C930.09,-589.41 995.93,-546.03 1025.26,-526.71"/>
<polygon fill="#9a32cd" stroke="#9a32cd" points="892.58,-609.92 886.16,-618.34 896.43,-615.77 892.58,-609.92"/>
<text text-anchor="middle" x="957" y="-588" font-family="Helvetica,sans-Serif" font-size="10.00"> domains</text>
</g>
<!-- Node8&#45;&gt;Node7 -->
<g id="edge13" class="edge">
<title>Node8&#45;&gt;Node7</title>
<path fill="none" stroke="#9a32cd" stroke-dasharray="5,2" d="M273.35,-375.76C354.84,-383.89 508.63,-404.15 632,-449 717.28,-480 741.69,-489.26 810,-549 834.17,-570.14 854.78,-602.55 864.13,-618.48"/>
<polygon fill="#9a32cd" stroke="#9a32cd" points="273.59,-372.27 263.3,-374.78 272.91,-379.24 273.59,-372.27"/>
<text text-anchor="middle" x="575.5" y="-463" font-family="Helvetica,sans-Serif" font-size="10.00"> nbr_coefs</text>
<text text-anchor="middle" x="575.5" y="-452" font-family="Helvetica,sans-Serif" font-size="10.00">nbr_points</text>
</g>
<!-- Node8&#45;&gt;Node13 -->
<g id="edge31" class="edge">
<title>Node8&#45;&gt;Node13</title>
<path fill="none" stroke="#9a32cd" stroke-dasharray="5,2" d="M235.8,-354.63C281.09,-316.22 393.04,-221.26 429.11,-190.66"/>
<polygon fill="#9a32cd" stroke="#9a32cd" points="233.28,-352.18 227.92,-361.32 237.81,-357.52 233.28,-352.18"/>
<text text-anchor="middle" x="324" y="-312" font-family="Helvetica,sans-Serif" font-size="10.00"> sizes</text>
</g>
<!-- Node9&#45;&gt;Node4 -->
<g id="edge35" class="edge">
<title>Node9&#45;&gt;Node4</title>
<path fill="none" stroke="#9a32cd" stroke-dasharray="5,2" d="M511.01,-666.12C580.9,-674.62 692.56,-686 789.5,-686 789.5,-686 789.5,-686 1462,-686 1561.03,-686 1602.49,-662.02 1658,-580 1697.12,-522.2 1653.76,-490.16 1676,-424 1687.96,-388.42 1713.9,-351.71 1726.84,-334.71"/>
<polygon fill="#9a32cd" stroke="#9a32cd" points="511.36,-662.63 501.01,-664.89 510.51,-669.58 511.36,-662.63"/>
<text text-anchor="middle" x="1128" y="-689" font-family="Helvetica,sans-Serif" font-size="10.00"> val_cst_hard</text>
</g>
<!-- Node9&#45;&gt;Node7 -->
<g id="edge15" class="edge">
<title>Node9&#45;&gt;Node7</title>
<path fill="none" stroke="#9a32cd" stroke-dasharray="5,2" d="M511.48,-652.32C600.99,-646.24 754.38,-635.82 827.86,-630.83"/>
<polygon fill="#9a32cd" stroke="#9a32cd" points="511.16,-648.83 501.42,-653 511.64,-655.81 511.16,-648.83"/>
<text text-anchor="middle" x="701.5" y="-645" font-family="Helvetica,sans-Serif" font-size="10.00"> coloc</text>
</g>
<!-- Node9&#45;&gt;Node10 -->
<g id="edge19" class="edge">
<title>Node9&#45;&gt;Node10</title>
<path fill="none" stroke="#9a32cd" stroke-dasharray="5,2" d="M468.52,-642.85C483.03,-635.45 501.63,-626.76 519,-621 567.65,-604.86 583.82,-615.48 632,-598 651.57,-590.9 672.38,-578.95 685.86,-570.56"/>
<polygon fill="#9a32cd" stroke="#9a32cd" points="466.88,-639.76 459.63,-647.48 470.12,-645.96 466.88,-639.76"/>
<text text-anchor="middle" x="575.5" y="-635" font-family="Helvetica,sans-Serif" font-size="10.00"> c</text>
<text text-anchor="middle" x="575.5" y="-624" font-family="Helvetica,sans-Serif" font-size="10.00">cf</text>
</g>
<!-- Node10&#45;&gt;Node7 -->
<g id="edge17" class="edge">
<title>Node10&#45;&gt;Node7</title>
<path fill="none" stroke="#9a32cd" stroke-dasharray="5,2" d="M763.24,-553.02C779.02,-553.21 795.62,-555.52 810,-562 835.88,-573.66 855.3,-602.65 864.17,-618.04"/>
<polygon fill="#9a32cd" stroke="#9a32cd" points="762.96,-549.53 753.01,-553.18 763.07,-556.53 762.96,-549.53"/>
<text text-anchor="middle" x="790.5" y="-598" font-family="Helvetica,sans-Serif" font-size="10.00"> absol</text>
<text text-anchor="middle" x="790.5" y="-587" font-family="Helvetica,sans-Serif" font-size="10.00">cart</text>
<text text-anchor="middle" x="790.5" y="-576" font-family="Helvetica,sans-Serif" font-size="10.00">cart_surr</text>
<text text-anchor="middle" x="790.5" y="-565" font-family="Helvetica,sans-Serif" font-size="10.00">radius</text>
</g>
<!-- Node10&#45;&gt;Node10 -->
<g id="edge20" class="edge">
<title>Node10&#45;&gt;Node10</title>
<path fill="none" stroke="#9a32cd" stroke-dasharray="5,2" d="M685.2,-580.4C686.29,-585.31 691.72,-589 701.5,-589 717.14,-589 721.66,-579.57 715.06,-570.76"/>
<polygon fill="#9a32cd" stroke="#9a32cd" points="688.58,-581.33 687.94,-570.76 681.84,-579.42 688.58,-581.33"/>
<text text-anchor="middle" x="701.5" y="-603" font-family="Helvetica,sans-Serif" font-size="10.00"> p_der_abs</text>
<text text-anchor="middle" x="701.5" y="-592" font-family="Helvetica,sans-Serif" font-size="10.00">p_der_var</text>
</g>
<!-- Node17 -->
<g id="node17" class="node">
<title>Node17</title>
<g id="a_node17"><a xlink:href="classKadath_1_1Scalar.html" target="_top" xlink:title=" ">
<polygon fill="none" stroke="black" points="1501,-390.5 1501,-409.5 1581,-409.5 1581,-390.5 1501,-390.5"/>
<text text-anchor="middle" x="1541" y="-397.5" font-family="Helvetica,sans-Serif" font-size="10.00">Kadath::Scalar</text>
</a>
</g>
</g>
<!-- Node10&#45;&gt;Node17 -->
<g id="edge43" class="edge">
<title>Node10&#45;&gt;Node17</title>
<path fill="none" stroke="#9a32cd" stroke-dasharray="5,2" d="M735.71,-547.53C802.91,-521.08 960.42,-463.18 1099,-443 1124.51,-439.28 1133.18,-433.14 1157,-443 1167.45,-447.33 1164.55,-456.67 1175,-461 1218.94,-479.2 1234.76,-466.51 1282,-461 1365.89,-451.22 1462.08,-424.12 1509.83,-409.55"/>
<polygon fill="#9a32cd" stroke="#9a32cd" points="734.1,-544.4 726.09,-551.34 736.68,-550.91 734.1,-544.4"/>
<text text-anchor="middle" x="1128" y="-446" font-family="Helvetica,sans-Serif" font-size="10.00"> val_zones</text>
</g>
<!-- Node11&#45;&gt;Node10 -->
<g id="edge21" class="edge">
<title>Node11&#45;&gt;Node10</title>
<path fill="none" stroke="#9a32cd" stroke-dasharray="5,2" d="M508.83,-561C552.83,-561 609.67,-561 650,-561"/>
<polygon fill="#9a32cd" stroke="#9a32cd" points="508.8,-557.5 498.8,-561 508.8,-564.5 508.8,-557.5"/>
<text text-anchor="middle" x="575.5" y="-564" font-family="Helvetica,sans-Serif" font-size="10.00"> base</text>
</g>
<!-- Node12&#45;&gt;Node4 -->
<g id="edge26" class="edge">
<title>Node12&#45;&gt;Node4</title>
<path fill="none" stroke="#9a32cd" stroke-dasharray="5,2" d="M1091.23,-519.61C1172.95,-522.66 1341.18,-523.53 1478,-489 1563.06,-467.53 1586.83,-459.29 1658,-408 1688.05,-386.34 1715.42,-351.42 1727.7,-334.63"/>
<polygon fill="#9a32cd" stroke="#9a32cd" points="1091.36,-516.11 1081.23,-519.2 1091.08,-523.1 1091.36,-516.11"/>
<text text-anchor="middle" x="1385" y="-514" font-family="Helvetica,sans-Serif" font-size="10.00"> espace</text>
</g>
<!-- Node12&#45;&gt;Node16 -->
<g id="edge40" class="edge">
<title>Node12&#45;&gt;Node16</title>
<path fill="none" stroke="#9a32cd" stroke-dasharray="5,2" d="M1090.88,-508.23C1111.6,-503.82 1135.81,-497.75 1157,-490 1236.15,-461.05 1256.48,-451.64 1326,-404 1344.74,-391.16 1363.86,-372.78 1374.79,-361.66"/>
<polygon fill="#9a32cd" stroke="#9a32cd" points="1090.1,-504.82 1081.01,-510.26 1091.51,-511.68 1090.1,-504.82"/>
<text text-anchor="middle" x="1228.5" y="-485" font-family="Helvetica,sans-Serif" font-size="10.00"> espace</text>
</g>
<!-- Node12&#45;&gt;Node18 -->
<g id="edge47" class="edge">
<title>Node12&#45;&gt;Node18</title>
<path fill="none" stroke="#9a32cd" stroke-dasharray="5,2" d="M1062.8,-501.6C1073.32,-494.21 1086.49,-485.56 1099,-479 1123.56,-466.13 1137.13,-475.34 1157,-456 1171.56,-441.84 1164.32,-431.27 1175,-414 1187.46,-393.85 1206.18,-373.44 1217.57,-361.8"/>
<polygon fill="#9a32cd" stroke="#9a32cd" points="1060.74,-498.77 1054.65,-507.44 1064.82,-504.46 1060.74,-498.77"/>
<text text-anchor="middle" x="1128" y="-482" font-family="Helvetica,sans-Serif" font-size="10.00"> space</text>
</g>
<!-- Node12&#45;&gt;Node20 -->
<g id="edge53" class="edge">
<title>Node12&#45;&gt;Node20</title>
<path fill="none" stroke="#9a32cd" stroke-dasharray="5,2" d="M1076.52,-529.97C1113.37,-542.63 1173.71,-560 1227.5,-560 1227.5,-560 1227.5,-560 1462,-560 1610.77,-560 1662.05,-592.75 1795,-526 1840.69,-503.06 1875.66,-449.56 1888.58,-427.64"/>
<polygon fill="#9a32cd" stroke="#9a32cd" points="1077.37,-526.56 1066.78,-526.54 1075.05,-533.16 1077.37,-526.56"/>
<text text-anchor="middle" x="1461" y="-563" font-family="Helvetica,sans-Serif" font-size="10.00"> espace</text>
</g>
<!-- Node13&#45;&gt;Node4 -->
<g id="edge29" class="edge">
<title>Node13&#45;&gt;Node4</title>
<path fill="none" stroke="#9a32cd" stroke-dasharray="5,2" d="M489.43,-181C541.14,-181 626.75,-181 700.5,-181 700.5,-181 700.5,-181 1542,-181 1631.73,-181 1706.52,-282.57 1728.17,-315.1"/>
<polygon fill="#9a32cd" stroke="#9a32cd" points="489.24,-177.5 479.24,-181 489.24,-184.5 489.24,-177.5"/>
<text text-anchor="middle" x="1128" y="-184" font-family="Helvetica,sans-Serif" font-size="10.00"> which_coef</text>
</g>
<!-- Node14&#45;&gt;Node4 -->
<g id="edge33" class="edge">
<title>Node14&#45;&gt;Node4</title>
<path fill="none" stroke="#9a32cd" stroke-dasharray="5,2" d="M374.6,-133.05C424.94,-132.17 505.14,-131 574.5,-131 574.5,-131 574.5,-131 1542,-131 1600.67,-131 1615.88,-153.16 1658,-194 1696.39,-231.21 1722,-291.78 1730.96,-315.27"/>
<polygon fill="#9a32cd" stroke="#9a32cd" points="374.26,-129.56 364.32,-133.24 374.38,-136.56 374.26,-129.56"/>
<text text-anchor="middle" x="1041" y="-145" font-family="Helvetica,sans-Serif" font-size="10.00"> paruser</text>
<text text-anchor="middle" x="1041" y="-134" font-family="Helvetica,sans-Serif" font-size="10.00">paruser_bin</text>
</g>
<!-- Node15&#45;&gt;Node4 -->
<g id="edge36" class="edge">
<title>Node15&#45;&gt;Node4</title>
<path fill="none" stroke="#9a32cd" stroke-dasharray="5,2" d="M1596.23,-327.2C1598.85,-327.13 1601.46,-327.06 1604,-327 1627.45,-326.44 1653.26,-326.01 1675.7,-325.69"/>
<polygon fill="#9a32cd" stroke="#9a32cd" points="1595.92,-323.7 1586.03,-327.49 1596.12,-330.7 1595.92,-323.7"/>
<text text-anchor="middle" x="1631" y="-396" font-family="Helvetica,sans-Serif" font-size="10.00"> cst</text>
<text text-anchor="middle" x="1631" y="-385" font-family="Helvetica,sans-Serif" font-size="10.00">cst_hard</text>
<text text-anchor="middle" x="1631" y="-374" font-family="Helvetica,sans-Serif" font-size="10.00">opeuser</text>
<text text-anchor="middle" x="1631" y="-363" font-family="Helvetica,sans-Serif" font-size="10.00">opeuser_bin</text>
<text text-anchor="middle" x="1631" y="-352" font-family="Helvetica,sans-Serif" font-size="10.00">results</text>
<text text-anchor="middle" x="1631" y="-341" font-family="Helvetica,sans-Serif" font-size="10.00">term</text>
<text text-anchor="middle" x="1631" y="-330" font-family="Helvetica,sans-Serif" font-size="10.00">term_double</text>
</g>
<!-- Node15&#45;&gt;Node20 -->
<g id="edge55" class="edge">
<title>Node15&#45;&gt;Node20</title>
<path fill="none" stroke="#9a32cd" stroke-dasharray="5,2" d="M1557.12,-346.54C1565.69,-356.55 1576.55,-369.39 1586,-381 1594.19,-391.07 1592.47,-398.03 1604,-404 1685.25,-446.04 1797.06,-435.51 1855.26,-425.82"/>
<polygon fill="#9a32cd" stroke="#9a32cd" points="1559.72,-344.18 1550.55,-338.87 1554.41,-348.74 1559.72,-344.18"/>
<text text-anchor="middle" x="1735.5" y="-514" font-family="Helvetica,sans-Serif" font-size="10.00"> p_christo</text>
<text text-anchor="middle" x="1735.5" y="-503" font-family="Helvetica,sans-Serif" font-size="10.00">p_det_cov</text>
<text text-anchor="middle" x="1735.5" y="-492" font-family="Helvetica,sans-Serif" font-size="10.00">p_dirac</text>
<text text-anchor="middle" x="1735.5" y="-481" font-family="Helvetica,sans-Serif" font-size="10.00">p_met_con</text>
<text text-anchor="middle" x="1735.5" y="-470" font-family="Helvetica,sans-Serif" font-size="10.00">p_met_cov</text>
<text text-anchor="middle" x="1735.5" y="-459" font-family="Helvetica,sans-Serif" font-size="10.00">p_ricci_scalar</text>
<text text-anchor="middle" x="1735.5" y="-448" font-family="Helvetica,sans-Serif" font-size="10.00">p_ricci_tensor</text>
<text text-anchor="middle" x="1735.5" y="-437" font-family="Helvetica,sans-Serif" font-size="10.00">p_riemann</text>
</g>
<!-- Node15&#45;&gt;Node21 -->
<g id="edge59" class="edge">
<title>Node15&#45;&gt;Node21</title>
<path fill="none" stroke="#9a32cd" stroke-dasharray="5,2" d="M1580.25,-316.07C1582.2,-315.37 1584.12,-314.68 1586,-314 1705.13,-270.65 1731.87,-251.51 1852,-211 1904.84,-193.18 1967.09,-175.89 2005.68,-165.59"/>
<polygon fill="#9a32cd" stroke="#9a32cd" points="1578.75,-312.88 1570.46,-319.49 1581.06,-319.49 1578.75,-312.88"/>
<text text-anchor="middle" x="1823.5" y="-227" font-family="Helvetica,sans-Serif" font-size="10.00"> res</text>
</g>
<!-- Node16&#45;&gt;Node4 -->
<g id="edge56" class="edge">
<title>Node16&#45;&gt;Node4</title>
<path fill="none" stroke="#9a32cd" stroke-dasharray="5,2" d="M1408.82,-336.95C1430.28,-323.8 1463.84,-305.79 1496,-299 1569.56,-283.46 1657.95,-302.76 1703.7,-315.49"/>
<polygon fill="#9a32cd" stroke="#9a32cd" points="1406.73,-334.12 1400.13,-342.41 1410.46,-340.05 1406.73,-334.12"/>
<text text-anchor="middle" x="1541" y="-302" font-family="Helvetica,sans-Serif" font-size="10.00"> var</text>
</g>
<!-- Node16&#45;&gt;Node15 -->
<g id="edge38" class="edge">
<title>Node16&#45;&gt;Node15</title>
<path fill="none" stroke="#9a32cd" stroke-dasharray="5,2" d="M1415.2,-338.63C1424.24,-335.13 1434.36,-331.82 1444,-330 1460.71,-326.85 1479.34,-326.05 1495.71,-326.23"/>
<polygon fill="#9a32cd" stroke="#9a32cd" points="1413.81,-335.42 1405.89,-342.46 1416.47,-341.9 1413.81,-335.42"/>
<text text-anchor="middle" x="1461" y="-344" font-family="Helvetica,sans-Serif" font-size="10.00"> der_t</text>
<text text-anchor="middle" x="1461" y="-333" font-family="Helvetica,sans-Serif" font-size="10.00">val_t</text>
</g>
<!-- Node16&#45;&gt;Node17 -->
<g id="edge42" class="edge">
<title>Node16&#45;&gt;Node17</title>
<path fill="none" stroke="midnightblue" d="M1407.6,-367.36C1418.11,-374.11 1431.22,-381.52 1444,-386 1462.12,-392.36 1483.14,-395.83 1500.88,-397.73"/>
<polygon fill="midnightblue" stroke="midnightblue" points="1409.36,-364.32 1399.1,-361.68 1405.47,-370.14 1409.36,-364.32"/>
</g>
<!-- Node17&#45;&gt;Node16 -->
<g id="edge41" class="edge">
<title>Node17&#45;&gt;Node16</title>
<path fill="none" stroke="#9a32cd" stroke-dasharray="5,2" d="M1509.09,-386.56C1499.25,-382.55 1488.27,-378.34 1478,-375 1461.25,-369.56 1442.42,-364.65 1426.19,-360.77"/>
<polygon fill="#9a32cd" stroke="#9a32cd" points="1507.89,-389.85 1518.46,-390.46 1510.58,-383.39 1507.89,-389.85"/>
<text text-anchor="middle" x="1461" y="-378" font-family="Helvetica,sans-Serif" font-size="10.00"> cmp</text>
</g>
<!-- Node18&#45;&gt;Node16 -->
<g id="edge45" class="edge">
<title>Node18&#45;&gt;Node16</title>
<path fill="none" stroke="#9a32cd" stroke-dasharray="5,2" d="M1292.31,-352C1309.65,-352 1328,-352 1343.69,-352"/>
<polygon fill="#9a32cd" stroke="#9a32cd" points="1292.24,-348.5 1282.24,-352 1292.24,-355.5 1292.24,-348.5"/>
<text text-anchor="middle" x="1313" y="-355" font-family="Helvetica,sans-Serif" font-size="10.00"> basis</text>
</g>
<!-- Node19&#45;&gt;Node16 -->
<g id="edge49" class="edge">
<title>Node19&#45;&gt;Node16</title>
<path fill="none" stroke="#9a32cd" stroke-dasharray="5,2" d="M642.23,-257C684.34,-257 740.14,-257 789.5,-257 789.5,-257 789.5,-257 1229.5,-257 1273.7,-257 1288.67,-257.34 1326,-281 1350.74,-296.68 1369.88,-326.5 1378.69,-342.03"/>
<polygon fill="#9a32cd" stroke="#9a32cd" points="642.11,-253.5 632.11,-257 642.11,-260.5 642.11,-253.5"/>
<text text-anchor="middle" x="957" y="-260" font-family="Helvetica,sans-Serif" font-size="10.00"> parameters</text>
</g>
<!-- Node20&#45;&gt;Node4 -->
<g id="edge51" class="edge">
<title>Node20&#45;&gt;Node4</title>
<path fill="none" stroke="#9a32cd" stroke-dasharray="5,2" d="M1868.65,-403.03C1836.01,-383.76 1780.23,-350.82 1752.76,-334.6"/>
<polygon fill="#9a32cd" stroke="#9a32cd" points="1867.2,-406.24 1877.59,-408.31 1870.76,-400.21 1867.2,-406.24"/>
<text text-anchor="middle" x="1823.5" y="-385" font-family="Helvetica,sans-Serif" font-size="10.00"> met</text>
</g>
<!-- Node21&#45;&gt;Node4 -->
<g id="edge57" class="edge">
<title>Node21&#45;&gt;Node4</title>
<path fill="none" stroke="#9a32cd" stroke-dasharray="5,2" d="M2015.94,-170.67C1954.68,-204.5 1804.83,-287.26 1753.83,-315.43"/>
<polygon fill="#9a32cd" stroke="#9a32cd" points="2017.92,-173.57 2024.98,-165.67 2014.54,-167.45 2017.92,-173.57"/>
<text text-anchor="middle" x="1895" y="-263" font-family="Helvetica,sans-Serif" font-size="10.00"> def</text>
</g>
</g>
</svg>
