<?xml version="1.0" encoding="UTF-8" standalone="no"?>
<!DOCTYPE svg PUBLIC "-//W3C//DTD SVG 1.1//EN"
 "http://www.w3.org/Graphics/SVG/1.1/DTD/svg11.dtd">
<!-- Generated by graphviz version 2.47.1 (20210515.0534)
 -->
<!-- Title: Kadath::Space_Kerr_bbh Pages: 1 -->
<svg width="543pt" height="324pt"
 viewBox="0.00 0.00 542.50 324.00" xmlns="http://www.w3.org/2000/svg" xmlns:xlink="http://www.w3.org/1999/xlink">
<g id="graph0" class="graph" transform="scale(1 1) rotate(0) translate(4 320)">
<title>Kadath::Space_Kerr_bbh</title>
<!-- Node1 -->
<g id="node1" class="node">
<title>Node1</title>
<g id="a_node1"><a xlink:title=" ">
<polygon fill="#bfbfbf" stroke="black" points="0,-0.5 0,-19.5 124,-19.5 124,-0.5 0,-0.5"/>
<text text-anchor="middle" x="62" y="-7.5" font-family="Helvetica,sans-Serif" font-size="10.00">Kadath::Space_Kerr_bbh</text>
</a>
</g>
</g>
<!-- Node2 -->
<g id="node2" class="node">
<title>Node2</title>
<g id="a_node2"><a xlink:href="classKadath_1_1Space.html" target="_top" xlink:title=" ">
<polygon fill="none" stroke="black" points="22,-58.5 22,-77.5 102,-77.5 102,-58.5 22,-58.5"/>
<text text-anchor="middle" x="62" y="-65.5" font-family="Helvetica,sans-Serif" font-size="10.00">Kadath::Space</text>
</a>
</g>
</g>
<!-- Node2&#45;&gt;Node1 -->
<g id="edge1" class="edge">
<title>Node2&#45;&gt;Node1</title>
<path fill="none" stroke="midnightblue" d="M62,-47.95C62,-38.29 62,-27.03 62,-19.51"/>
<polygon fill="midnightblue" stroke="midnightblue" points="58.5,-48.25 62,-58.25 65.5,-48.25 58.5,-48.25"/>
</g>
<!-- Node3 -->
<g id="node3" class="node">
<title>Node3</title>
<g id="a_node3"><a xlink:href="structKadath_1_1MemoryMappable.html" target="_top" xlink:title=" ">
<polygon fill="none" stroke="black" points="215,-296.5 215,-315.5 343,-315.5 343,-296.5 215,-296.5"/>
<text text-anchor="middle" x="279" y="-303.5" font-family="Helvetica,sans-Serif" font-size="10.00">Kadath::MemoryMappable</text>
</a>
</g>
</g>
<!-- Node3&#45;&gt;Node2 -->
<g id="edge2" class="edge">
<title>Node3&#45;&gt;Node2</title>
<path fill="none" stroke="midnightblue" d="M204.67,-296.96C157.2,-290.06 102.02,-278.14 88,-259 45.7,-201.25 56.11,-106.49 60.53,-77.62"/>
<polygon fill="midnightblue" stroke="midnightblue" points="204.27,-300.44 214.66,-298.35 205.24,-293.5 204.27,-300.44"/>
</g>
<!-- Node4 -->
<g id="node4" class="node">
<title>Node4</title>
<g id="a_node4"><a xlink:href="classKadath_1_1Domain.html" target="_top" xlink:title=" ">
<polygon fill="none" stroke="black" points="116.5,-160.5 116.5,-179.5 201.5,-179.5 201.5,-160.5 116.5,-160.5"/>
<text text-anchor="middle" x="159" y="-167.5" font-family="Helvetica,sans-Serif" font-size="10.00">Kadath::Domain</text>
</a>
</g>
</g>
<!-- Node3&#45;&gt;Node4 -->
<g id="edge4" class="edge">
<title>Node3&#45;&gt;Node4</title>
<path fill="none" stroke="midnightblue" d="M204.78,-295.56C160.59,-288.25 110.54,-276.39 97,-259 75.07,-230.84 120.38,-195.71 144.8,-179.69"/>
<polygon fill="midnightblue" stroke="midnightblue" points="204.26,-299.02 214.69,-297.14 205.37,-292.11 204.26,-299.02"/>
</g>
<!-- Node5 -->
<g id="node5" class="node">
<title>Node5</title>
<g id="a_node5"><a xlink:href="classKadath_1_1Dim__array.html" target="_top" xlink:title=" ">
<polygon fill="none" stroke="black" points="106.5,-239.5 106.5,-258.5 201.5,-258.5 201.5,-239.5 106.5,-239.5"/>
<text text-anchor="middle" x="154" y="-246.5" font-family="Helvetica,sans-Serif" font-size="10.00">Kadath::Dim_array</text>
</a>
</g>
</g>
<!-- Node3&#45;&gt;Node5 -->
<g id="edge6" class="edge">
<title>Node3&#45;&gt;Node5</title>
<path fill="none" stroke="midnightblue" d="M250.3,-292.37C226.73,-282 193.98,-267.59 173.39,-258.53"/>
<polygon fill="midnightblue" stroke="midnightblue" points="248.91,-295.58 259.47,-296.41 251.73,-289.18 248.91,-295.58"/>
</g>
<!-- Node6 -->
<g id="node6" class="node">
<title>Node6</title>
<g id="a_node6"><a xlink:href="classKadath_1_1Array.html" target="_top" xlink:title=" ">
<polygon fill="none" stroke="black" points="219.5,-239.5 219.5,-258.5 338.5,-258.5 338.5,-239.5 219.5,-239.5"/>
<text text-anchor="middle" x="279" y="-246.5" font-family="Helvetica,sans-Serif" font-size="10.00">Kadath::Array&lt; double &gt;</text>
</a>
</g>
</g>
<!-- Node3&#45;&gt;Node6 -->
<g id="edge8" class="edge">
<title>Node3&#45;&gt;Node6</title>
<path fill="none" stroke="midnightblue" d="M279,-286.12C279,-276.82 279,-266.06 279,-258.71"/>
<polygon fill="midnightblue" stroke="midnightblue" points="275.5,-286.41 279,-296.41 282.5,-286.41 275.5,-286.41"/>
</g>
<!-- Node7 -->
<g id="node7" class="node">
<title>Node7</title>
<g id="a_node7"><a xlink:href="classKadath_1_1Val__domain.html" target="_top" xlink:title=" ">
<polygon fill="none" stroke="black" points="227.5,-58.5 227.5,-77.5 330.5,-77.5 330.5,-58.5 227.5,-58.5"/>
<text text-anchor="middle" x="279" y="-65.5" font-family="Helvetica,sans-Serif" font-size="10.00">Kadath::Val_domain</text>
</a>
</g>
</g>
<!-- Node3&#45;&gt;Node7 -->
<g id="edge10" class="edge">
<title>Node3&#45;&gt;Node7</title>
<path fill="none" stroke="midnightblue" d="M311.49,-291.87C325.37,-284.43 340.16,-273.65 348,-259 352.19,-251.16 349.63,-247.74 348,-239 335.83,-173.87 297.88,-102.35 284.08,-77.82"/>
<polygon fill="midnightblue" stroke="midnightblue" points="309.55,-288.92 302.12,-296.48 312.64,-295.2 309.55,-288.92"/>
</g>
<!-- Node8 -->
<g id="node8" class="node">
<title>Node8</title>
<g id="a_node8"><a xlink:href="classKadath_1_1Base__spectral.html" target="_top" xlink:title=" ">
<polygon fill="none" stroke="black" points="395,-160.5 395,-179.5 509,-179.5 509,-160.5 395,-160.5"/>
<text text-anchor="middle" x="452" y="-167.5" font-family="Helvetica,sans-Serif" font-size="10.00">Kadath::Base_spectral</text>
</a>
</g>
</g>
<!-- Node3&#45;&gt;Node8 -->
<g id="edge14" class="edge">
<title>Node3&#45;&gt;Node8</title>
<path fill="none" stroke="midnightblue" d="M349.91,-293.43C360.94,-289.65 371.73,-284.64 381,-278 417.6,-251.77 440.65,-200.31 448.74,-179.77"/>
<polygon fill="midnightblue" stroke="midnightblue" points="348.7,-290.14 340.19,-296.44 350.77,-296.83 348.7,-290.14"/>
</g>
<!-- Node9 -->
<g id="node9" class="node">
<title>Node9</title>
<g id="a_node9"><a xlink:href="classKadath_1_1Array.html" target="_top" xlink:title=" ">
<polygon fill="none" stroke="black" points="433.5,-239.5 433.5,-258.5 534.5,-258.5 534.5,-239.5 433.5,-239.5"/>
<text text-anchor="middle" x="484" y="-246.5" font-family="Helvetica,sans-Serif" font-size="10.00">Kadath::Array&lt; int &gt;</text>
</a>
</g>
</g>
<!-- Node3&#45;&gt;Node9 -->
<g id="edge16" class="edge">
<title>Node3&#45;&gt;Node9</title>
<path fill="none" stroke="midnightblue" d="M348.22,-294.71C371.02,-290.52 396.33,-284.98 419,-278 435.79,-272.83 454.11,-264.7 467,-258.53"/>
<polygon fill="midnightblue" stroke="midnightblue" points="347.5,-291.28 338.28,-296.49 348.73,-298.18 347.5,-291.28"/>
</g>
<!-- Node4&#45;&gt;Node2 -->
<g id="edge3" class="edge">
<title>Node4&#45;&gt;Node2</title>
<path fill="none" stroke="#9a32cd" stroke-dasharray="5,2" d="M121.83,-156.3C113.65,-152.31 105.5,-147.26 99,-141 79.97,-122.68 68.93,-92.44 64.42,-77.66"/>
<polygon fill="#9a32cd" stroke="#9a32cd" points="120.43,-159.51 130.99,-160.38 123.28,-153.12 120.43,-159.51"/>
<text text-anchor="middle" x="119" y="-116.5" font-family="Helvetica,sans-Serif" font-size="10.00"> domains</text>
</g>
<!-- Node4&#45;&gt;Node7 -->
<g id="edge17" class="edge">
<title>Node4&#45;&gt;Node7</title>
<path fill="none" stroke="#9a32cd" stroke-dasharray="5,2" d="M153.83,-150.54C150.57,-134.59 148.95,-111.82 161,-97 169.6,-86.42 199.7,-79.38 227.34,-75.01"/>
<polygon fill="#9a32cd" stroke="#9a32cd" points="150.45,-151.43 156.21,-160.32 157.25,-149.78 150.45,-151.43"/>
<text text-anchor="middle" x="172.5" y="-116.5" font-family="Helvetica,sans-Serif" font-size="10.00"> zone</text>
</g>
<!-- Node5&#45;&gt;Node4 -->
<g id="edge5" class="edge">
<title>Node5&#45;&gt;Node4</title>
<path fill="none" stroke="#9a32cd" stroke-dasharray="5,2" d="M155.21,-229.31C156.23,-213.59 157.65,-191.81 158.43,-179.81"/>
<polygon fill="#9a32cd" stroke="#9a32cd" points="151.71,-229.26 154.55,-239.47 158.69,-229.71 151.71,-229.26"/>
<text text-anchor="middle" x="181" y="-213" font-family="Helvetica,sans-Serif" font-size="10.00"> nbr_coefs</text>
<text text-anchor="middle" x="181" y="-202" font-family="Helvetica,sans-Serif" font-size="10.00">nbr_points</text>
</g>
<!-- Node6&#45;&gt;Node4 -->
<g id="edge7" class="edge">
<title>Node6&#45;&gt;Node4</title>
<path fill="none" stroke="#9a32cd" stroke-dasharray="5,2" d="M257.63,-233.71C251.58,-229.63 245.02,-225.17 239,-221 225.11,-211.38 222.24,-208.09 208,-199 197.26,-192.15 184.8,-185.03 175.12,-179.69"/>
<polygon fill="#9a32cd" stroke="#9a32cd" points="255.73,-236.65 265.98,-239.32 259.63,-230.84 255.73,-236.65"/>
<text text-anchor="middle" x="252" y="-207.5" font-family="Helvetica,sans-Serif" font-size="10.00"> coloc</text>
</g>
<!-- Node6&#45;&gt;Node7 -->
<g id="edge11" class="edge">
<title>Node6&#45;&gt;Node7</title>
<path fill="none" stroke="#9a32cd" stroke-dasharray="5,2" d="M279,-229.09C279,-190.68 279,-104.89 279,-77.55"/>
<polygon fill="#9a32cd" stroke="#9a32cd" points="275.5,-229.37 279,-239.37 282.5,-229.37 275.5,-229.37"/>
<text text-anchor="middle" x="283.5" y="-173" font-family="Helvetica,sans-Serif" font-size="10.00"> c</text>
<text text-anchor="middle" x="283.5" y="-162" font-family="Helvetica,sans-Serif" font-size="10.00">cf</text>
</g>
<!-- Node7&#45;&gt;Node4 -->
<g id="edge9" class="edge">
<title>Node7&#45;&gt;Node4</title>
<path fill="none" stroke="#9a32cd" stroke-dasharray="5,2" d="M249.46,-82.13C241.47,-86.33 233.08,-91.36 226,-97 205.78,-113.09 205.76,-122.23 188,-141 181.65,-147.71 174.14,-154.95 168.35,-160.38"/>
<polygon fill="#9a32cd" stroke="#9a32cd" points="251.15,-85.19 258.55,-77.61 248.04,-78.93 251.15,-85.19"/>
<text text-anchor="middle" x="245.5" y="-133" font-family="Helvetica,sans-Serif" font-size="10.00"> absol</text>
<text text-anchor="middle" x="245.5" y="-122" font-family="Helvetica,sans-Serif" font-size="10.00">cart</text>
<text text-anchor="middle" x="245.5" y="-111" font-family="Helvetica,sans-Serif" font-size="10.00">cart_surr</text>
<text text-anchor="middle" x="245.5" y="-100" font-family="Helvetica,sans-Serif" font-size="10.00">radius</text>
</g>
<!-- Node7&#45;&gt;Node7 -->
<g id="edge12" class="edge">
<title>Node7&#45;&gt;Node7</title>
<path fill="none" stroke="#9a32cd" stroke-dasharray="5,2" d="M340.82,-71.95C345.57,-71.08 348.5,-69.76 348.5,-68 348.5,-65.18 341,-63.5 330.53,-62.95"/>
<polygon fill="#9a32cd" stroke="#9a32cd" points="340.1,-68.51 330.53,-73.05 340.84,-75.47 340.1,-68.51"/>
<text text-anchor="middle" x="372.5" y="-71" font-family="Helvetica,sans-Serif" font-size="10.00"> p_der_abs</text>
<text text-anchor="middle" x="372.5" y="-60" font-family="Helvetica,sans-Serif" font-size="10.00">p_der_var</text>
</g>
<!-- Node8&#45;&gt;Node7 -->
<g id="edge13" class="edge">
<title>Node8&#45;&gt;Node7</title>
<path fill="none" stroke="#9a32cd" stroke-dasharray="5,2" d="M439.83,-152.31C426.99,-135.87 405.28,-111.23 381,-97 365.63,-87.99 347.27,-81.79 330.38,-77.56"/>
<polygon fill="#9a32cd" stroke="#9a32cd" points="437.19,-154.61 446.01,-160.47 442.77,-150.39 437.19,-154.61"/>
<text text-anchor="middle" x="441" y="-116.5" font-family="Helvetica,sans-Serif" font-size="10.00"> base</text>
</g>
<!-- Node9&#45;&gt;Node8 -->
<g id="edge15" class="edge">
<title>Node9&#45;&gt;Node8</title>
<path fill="none" stroke="#9a32cd" stroke-dasharray="5,2" d="M476.61,-230.22C470.05,-214.44 460.74,-192.04 455.66,-179.81"/>
<polygon fill="#9a32cd" stroke="#9a32cd" points="473.38,-231.57 480.45,-239.47 479.85,-228.89 473.38,-231.57"/>
<text text-anchor="middle" x="494.5" y="-207.5" font-family="Helvetica,sans-Serif" font-size="10.00"> bases_1d</text>
</g>
</g>
</svg>
