<?xml version="1.0" encoding="UTF-8" standalone="no"?>
<!DOCTYPE svg PUBLIC "-//W3C//DTD SVG 1.1//EN"
 "http://www.w3.org/Graphics/SVG/1.1/DTD/svg11.dtd">
<!-- Generated by graphviz version 2.47.1 (20210515.0534)
 -->
<!-- Title: Kadath::Metric_flat_nophi Pages: 1 -->
<svg width="1993pt" height="898pt"
 viewBox="0.00 0.00 1993.00 897.96" xmlns="http://www.w3.org/2000/svg" xmlns:xlink="http://www.w3.org/1999/xlink">
<g id="graph0" class="graph" transform="scale(1 1) rotate(0) translate(4 893.96)">
<title>Kadath::Metric_flat_nophi</title>
<!-- Node1 -->
<g id="node1" class="node">
<title>Node1</title>
<g id="a_node1"><a xlink:title=" ">
<polygon fill="#bfbfbf" stroke="black" points="1584,-723 1584,-753 1681,-753 1681,-723 1584,-723"/>
<text text-anchor="start" x="1592" y="-741" font-family="Helvetica,sans-Serif" font-size="10.00">Kadath::Metric_flat</text>
<text text-anchor="middle" x="1632.5" y="-730" font-family="Helvetica,sans-Serif" font-size="10.00">_nophi</text>
</a>
</g>
</g>
<!-- Node2 -->
<g id="node2" class="node">
<title>Node2</title>
<g id="a_node2"><a xlink:href="classKadath_1_1Metric.html" target="_top" xlink:title=" ">
<polygon fill="none" stroke="black" points="1437,-377.5 1437,-396.5 1516,-396.5 1516,-377.5 1437,-377.5"/>
<text text-anchor="middle" x="1476.5" y="-384.5" font-family="Helvetica,sans-Serif" font-size="10.00">Kadath::Metric</text>
</a>
</g>
</g>
<!-- Node2&#45;&gt;Node1 -->
<g id="edge1" class="edge">
<title>Node2&#45;&gt;Node1</title>
<path fill="none" stroke="midnightblue" d="M1481.36,-406.73C1493.79,-468.68 1534.22,-658.1 1573,-706 1578.54,-712.84 1585.94,-718.44 1593.62,-722.93"/>
<polygon fill="midnightblue" stroke="midnightblue" points="1484.75,-405.83 1479.37,-396.7 1477.88,-407.19 1484.75,-405.83"/>
</g>
<!-- Node11 -->
<g id="node11" class="node">
<title>Node11</title>
<g id="a_node11"><a xlink:href="classKadath_1_1System__of__eqs.html" target="_top" xlink:title=" ">
<polygon fill="none" stroke="black" points="1573,-336.5 1573,-355.5 1692,-355.5 1692,-336.5 1573,-336.5"/>
<text text-anchor="middle" x="1632.5" y="-343.5" font-family="Helvetica,sans-Serif" font-size="10.00">Kadath::System_of_eqs</text>
</a>
</g>
</g>
<!-- Node2&#45;&gt;Node11 -->
<g id="edge55" class="edge">
<title>Node2&#45;&gt;Node11</title>
<path fill="none" stroke="#9a32cd" stroke-dasharray="5,2" d="M1525.98,-381.09C1535.67,-379.46 1545.72,-377.45 1555,-375 1573.95,-370 1594.7,-361.96 1609.8,-355.62"/>
<polygon fill="#9a32cd" stroke="#9a32cd" points="1525.4,-377.64 1516.06,-382.65 1526.49,-384.55 1525.4,-377.64"/>
<text text-anchor="middle" x="1544.5" y="-382" font-family="Helvetica,sans-Serif" font-size="10.00"> met</text>
</g>
<!-- Node3 -->
<g id="node3" class="node">
<title>Node3</title>
<g id="a_node3"><a xlink:href="structKadath_1_1MemoryMappable.html" target="_top" xlink:title=" ">
<polygon fill="none" stroke="black" points="0,-415.5 0,-434.5 128,-434.5 128,-415.5 0,-415.5"/>
<text text-anchor="middle" x="64" y="-422.5" font-family="Helvetica,sans-Serif" font-size="10.00">Kadath::MemoryMappable</text>
</a>
</g>
</g>
<!-- Node3&#45;&gt;Node2 -->
<g id="edge2" class="edge">
<title>Node3&#45;&gt;Node2</title>
<path fill="none" stroke="midnightblue" d="M72.33,-406.11C85.52,-375.04 116.5,-314 165,-288 218.72,-259.21 241.08,-283.76 302,-282 359.72,-280.34 1080.09,-270.16 1250,-269 1290,-268.73 1302.54,-254.98 1340,-269 1399.89,-291.42 1450.75,-353.6 1468.64,-377.49"/>
<polygon fill="midnightblue" stroke="midnightblue" points="69.07,-404.83 68.53,-415.41 75.55,-407.47 69.07,-404.83"/>
</g>
<!-- Node4 -->
<g id="node4" class="node">
<title>Node4</title>
<g id="a_node4"><a xlink:href="classKadath_1_1Space.html" target="_top" xlink:title=" ">
<polygon fill="none" stroke="black" points="674.5,-343.5 674.5,-362.5 754.5,-362.5 754.5,-343.5 674.5,-343.5"/>
<text text-anchor="middle" x="714.5" y="-350.5" font-family="Helvetica,sans-Serif" font-size="10.00">Kadath::Space</text>
</a>
</g>
</g>
<!-- Node3&#45;&gt;Node4 -->
<g id="edge4" class="edge">
<title>Node3&#45;&gt;Node4</title>
<path fill="none" stroke="midnightblue" d="M77.38,-407C94.37,-383.71 127.16,-343.58 165,-322 219.41,-290.97 239.81,-296.38 302,-289 447.03,-271.78 619.39,-321.58 685.65,-343.36"/>
<polygon fill="midnightblue" stroke="midnightblue" points="74.42,-405.12 71.47,-415.3 80.12,-409.18 74.42,-405.12"/>
</g>
<!-- Node5 -->
<g id="node5" class="node">
<title>Node5</title>
<g id="a_node5"><a xlink:href="classKadath_1_1Domain.html" target="_top" xlink:title=" ">
<polygon fill="none" stroke="black" points="414.5,-374.5 414.5,-393.5 499.5,-393.5 499.5,-374.5 414.5,-374.5"/>
<text text-anchor="middle" x="457" y="-381.5" font-family="Helvetica,sans-Serif" font-size="10.00">Kadath::Domain</text>
</a>
</g>
</g>
<!-- Node3&#45;&gt;Node5 -->
<g id="edge6" class="edge">
<title>Node3&#45;&gt;Node5</title>
<path fill="none" stroke="midnightblue" d="M138.34,-428.05C203.08,-429.26 299.7,-427.43 382,-411 400.51,-407.31 420.57,-399.75 435.12,-393.57"/>
<polygon fill="midnightblue" stroke="midnightblue" points="138.3,-424.55 128.23,-427.83 138.15,-431.55 138.3,-424.55"/>
</g>
<!-- Node6 -->
<g id="node6" class="node">
<title>Node6</title>
<g id="a_node6"><a xlink:href="classKadath_1_1Dim__array.html" target="_top" xlink:title=" ">
<polygon fill="none" stroke="black" points="177,-377.5 177,-396.5 272,-396.5 272,-377.5 177,-377.5"/>
<text text-anchor="middle" x="224.5" y="-384.5" font-family="Helvetica,sans-Serif" font-size="10.00">Kadath::Dim_array</text>
</a>
</g>
</g>
<!-- Node3&#45;&gt;Node6 -->
<g id="edge8" class="edge">
<title>Node3&#45;&gt;Node6</title>
<path fill="none" stroke="midnightblue" d="M114.92,-413.03C137.13,-407.71 162.92,-401.52 183.79,-396.52"/>
<polygon fill="midnightblue" stroke="midnightblue" points="113.9,-409.68 105,-415.41 115.54,-416.48 113.9,-409.68"/>
</g>
<!-- Node7 -->
<g id="node7" class="node">
<title>Node7</title>
<g id="a_node7"><a xlink:href="classKadath_1_1Array.html" target="_top" xlink:title=" ">
<polygon fill="none" stroke="black" points="165,-331.5 165,-350.5 284,-350.5 284,-331.5 165,-331.5"/>
<text text-anchor="middle" x="224.5" y="-338.5" font-family="Helvetica,sans-Serif" font-size="10.00">Kadath::Array&lt; double &gt;</text>
</a>
</g>
</g>
<!-- Node3&#45;&gt;Node7 -->
<g id="edge10" class="edge">
<title>Node3&#45;&gt;Node7</title>
<path fill="none" stroke="midnightblue" d="M89.49,-410.26C109.54,-398.38 138.77,-381.5 165,-368 176.94,-361.86 190.54,-355.54 201.62,-350.56"/>
<polygon fill="midnightblue" stroke="midnightblue" points="87.5,-407.37 80.7,-415.49 91.09,-413.38 87.5,-407.37"/>
</g>
<!-- Node8 -->
<g id="node8" class="node">
<title>Node8</title>
<g id="a_node8"><a xlink:href="classKadath_1_1Val__domain.html" target="_top" xlink:title=" ">
<polygon fill="none" stroke="black" points="663,-416.5 663,-435.5 766,-435.5 766,-416.5 663,-416.5"/>
<text text-anchor="middle" x="714.5" y="-423.5" font-family="Helvetica,sans-Serif" font-size="10.00">Kadath::Val_domain</text>
</a>
</g>
</g>
<!-- Node3&#45;&gt;Node8 -->
<g id="edge12" class="edge">
<title>Node3&#45;&gt;Node8</title>
<path fill="none" stroke="midnightblue" d="M113.48,-436.66C124.13,-438.81 135.4,-440.76 146,-442 316.45,-461.93 360.4,-449.78 532,-452 582.22,-452.65 595.6,-461.06 645,-452 662.14,-448.86 680.55,-441.63 693.97,-435.59"/>
<polygon fill="midnightblue" stroke="midnightblue" points="114,-433.2 103.49,-434.56 112.56,-440.05 114,-433.2"/>
</g>
<!-- Node9 -->
<g id="node9" class="node">
<title>Node9</title>
<g id="a_node9"><a xlink:href="classKadath_1_1Base__spectral.html" target="_top" xlink:title=" ">
<polygon fill="none" stroke="black" points="400,-491.5 400,-510.5 514,-510.5 514,-491.5 400,-491.5"/>
<text text-anchor="middle" x="457" y="-498.5" font-family="Helvetica,sans-Serif" font-size="10.00">Kadath::Base_spectral</text>
</a>
</g>
</g>
<!-- Node3&#45;&gt;Node9 -->
<g id="edge16" class="edge">
<title>Node3&#45;&gt;Node9</title>
<path fill="none" stroke="midnightblue" d="M83.68,-440.84C99.25,-453.05 122.61,-469.14 146,-477 231.07,-505.57 336.39,-507.15 399.78,-504.75"/>
<polygon fill="midnightblue" stroke="midnightblue" points="85.85,-438.09 75.87,-434.53 81.45,-443.54 85.85,-438.09"/>
</g>
<!-- Node10 -->
<g id="node10" class="node">
<title>Node10</title>
<g id="a_node10"><a xlink:href="classKadath_1_1Array.html" target="_top" xlink:title=" ">
<polygon fill="none" stroke="black" points="174,-624.5 174,-643.5 275,-643.5 275,-624.5 174,-624.5"/>
<text text-anchor="middle" x="224.5" y="-631.5" font-family="Helvetica,sans-Serif" font-size="10.00">Kadath::Array&lt; int &gt;</text>
</a>
</g>
</g>
<!-- Node3&#45;&gt;Node10 -->
<g id="edge18" class="edge">
<title>Node3&#45;&gt;Node10</title>
<path fill="none" stroke="midnightblue" d="M70.36,-444.78C80.33,-478.41 104.56,-547.32 146,-591 160.3,-606.07 181.07,-617.2 197.51,-624.36"/>
<polygon fill="midnightblue" stroke="midnightblue" points="73.63,-443.47 67.52,-434.81 66.9,-445.39 73.63,-443.47"/>
</g>
<!-- Node12 -->
<g id="node12" class="node">
<title>Node12</title>
<g id="a_node12"><a xlink:href="classKadath_1_1Equation.html" target="_top" xlink:title=" ">
<polygon fill="none" stroke="black" points="1896,-193.5 1896,-212.5 1985,-212.5 1985,-193.5 1896,-193.5"/>
<text text-anchor="middle" x="1940.5" y="-200.5" font-family="Helvetica,sans-Serif" font-size="10.00">Kadath::Equation</text>
</a>
</g>
</g>
<!-- Node3&#45;&gt;Node12 -->
<g id="edge22" class="edge">
<title>Node3&#45;&gt;Node12</title>
<path fill="none" stroke="midnightblue" d="M65.05,-405.07C66.37,-332.28 81.32,-85 223.5,-85 223.5,-85 223.5,-85 1793,-85 1831.29,-85 1846.4,-77.38 1878,-99 1912.45,-122.57 1930.5,-172.34 1936.83,-193.33"/>
<polygon fill="midnightblue" stroke="midnightblue" points="61.55,-405.15 64.94,-415.19 68.55,-405.23 61.55,-405.15"/>
</g>
<!-- Node13 -->
<g id="node13" class="node">
<title>Node13</title>
<g id="a_node13"><a xlink:href="classKadath_1_1Ope__eq.html" target="_top" xlink:title=" ">
<polygon fill="none" stroke="black" points="1749,-126.5 1749,-145.5 1835,-145.5 1835,-126.5 1749,-126.5"/>
<text text-anchor="middle" x="1792" y="-133.5" font-family="Helvetica,sans-Serif" font-size="10.00">Kadath::Ope_eq</text>
</a>
</g>
</g>
<!-- Node3&#45;&gt;Node13 -->
<g id="edge25" class="edge">
<title>Node3&#45;&gt;Node13</title>
<path fill="none" stroke="midnightblue" d="M66.03,-405.19C70.69,-338.01 95.6,-123 223.5,-123 223.5,-123 223.5,-123 1633.5,-123 1672.73,-123 1717.28,-127.06 1748.96,-130.64"/>
<polygon fill="midnightblue" stroke="midnightblue" points="62.53,-405.1 65.41,-415.29 69.52,-405.53 62.53,-405.1"/>
</g>
<!-- Node14 -->
<g id="node14" class="node">
<title>Node14</title>
<g id="a_node14"><a xlink:href="classKadath_1_1Eq__int.html" target="_top" xlink:title=" ">
<polygon fill="none" stroke="black" points="1901,-36.5 1901,-55.5 1980,-55.5 1980,-36.5 1901,-36.5"/>
<text text-anchor="middle" x="1940.5" y="-43.5" font-family="Helvetica,sans-Serif" font-size="10.00">Kadath::Eq_int</text>
</a>
</g>
</g>
<!-- Node3&#45;&gt;Node14 -->
<g id="edge30" class="edge">
<title>Node3&#45;&gt;Node14</title>
<path fill="none" stroke="midnightblue" d="M67.89,-405.37C80.71,-321.8 135.79,0 223.5,0 223.5,0 223.5,0 1793,0 1841.25,0 1894.51,-23 1921.57,-36.47"/>
<polygon fill="midnightblue" stroke="midnightblue" points="64.41,-404.92 66.39,-415.32 71.34,-405.96 64.41,-404.92"/>
</g>
<!-- Node15 -->
<g id="node15" class="node">
<title>Node15</title>
<g id="a_node15"><a xlink:href="classKadath_1_1Index.html" target="_top" xlink:title=" ">
<polygon fill="none" stroke="black" points="419.5,-189.5 419.5,-208.5 494.5,-208.5 494.5,-189.5 419.5,-189.5"/>
<text text-anchor="middle" x="457" y="-196.5" font-family="Helvetica,sans-Serif" font-size="10.00">Kadath::Index</text>
</a>
</g>
</g>
<!-- Node3&#45;&gt;Node15 -->
<g id="edge34" class="edge">
<title>Node3&#45;&gt;Node15</title>
<path fill="none" stroke="midnightblue" d="M65.71,-404.9C68.46,-361.08 81.77,-257.22 146,-211 229.71,-150.75 361.65,-173.93 422.82,-189.43"/>
<polygon fill="midnightblue" stroke="midnightblue" points="62.2,-404.96 65.2,-415.12 69.19,-405.31 62.2,-404.96"/>
</g>
<!-- Node16 -->
<g id="node16" class="node">
<title>Node16</title>
<g id="a_node16"><a xlink:href="classKadath_1_1Param.html" target="_top" xlink:title=" ">
<polygon fill="none" stroke="black" points="302,-833.5 302,-852.5 382,-852.5 382,-833.5 302,-833.5"/>
<text text-anchor="middle" x="342" y="-840.5" font-family="Helvetica,sans-Serif" font-size="10.00">Kadath::Param</text>
</a>
</g>
</g>
<!-- Node3&#45;&gt;Node16 -->
<g id="edge38" class="edge">
<title>Node3&#45;&gt;Node16</title>
<path fill="none" stroke="midnightblue" d="M66.11,-444.73C70.6,-517.23 89.98,-767.3 146,-819 187.86,-857.63 258.09,-856.07 301.86,-850.32"/>
<polygon fill="midnightblue" stroke="midnightblue" points="69.6,-444.46 65.51,-434.68 62.61,-444.87 69.6,-444.46"/>
</g>
<!-- Node17 -->
<g id="node17" class="node">
<title>Node17</title>
<g id="a_node17"><a xlink:href="classKadath_1_1Term__eq.html" target="_top" xlink:title=" ">
<polygon fill="none" stroke="black" points="1250,-586.5 1250,-605.5 1340,-605.5 1340,-586.5 1250,-586.5"/>
<text text-anchor="middle" x="1295" y="-593.5" font-family="Helvetica,sans-Serif" font-size="10.00">Kadath::Term_eq</text>
</a>
</g>
</g>
<!-- Node3&#45;&gt;Node17 -->
<g id="edge41" class="edge">
<title>Node3&#45;&gt;Node17</title>
<path fill="none" stroke="midnightblue" d="M66.87,-444.75C72.44,-497.01 92.05,-642.18 146,-749 165.16,-786.93 181,-805 223.5,-805 223.5,-805 223.5,-805 1019.5,-805 1153.07,-805 1262.23,-646.41 1288.15,-605.52"/>
<polygon fill="midnightblue" stroke="midnightblue" points="70.32,-444.14 65.84,-434.55 63.36,-444.85 70.32,-444.14"/>
</g>
<!-- Node18 -->
<g id="node18" class="node">
<title>Node18</title>
<g id="a_node18"><a xlink:href="classKadath_1_1Tensor.html" target="_top" xlink:title=" ">
<polygon fill="none" stroke="black" points="1076,-510.5 1076,-529.5 1158,-529.5 1158,-510.5 1076,-510.5"/>
<text text-anchor="middle" x="1117" y="-517.5" font-family="Helvetica,sans-Serif" font-size="10.00">Kadath::Tensor</text>
</a>
</g>
</g>
<!-- Node3&#45;&gt;Node18 -->
<g id="edge43" class="edge">
<title>Node3&#45;&gt;Node18</title>
<path fill="none" stroke="midnightblue" d="M75.56,-443.26C91.45,-468.92 124.05,-515.1 165,-538 218.95,-568.17 240.44,-556.33 302,-562 598.27,-589.28 956.95,-543.42 1075.69,-526.16"/>
<polygon fill="midnightblue" stroke="midnightblue" points="78.46,-441.28 70.31,-434.51 72.46,-444.89 78.46,-441.28"/>
</g>
<!-- Node20 -->
<g id="node20" class="node">
<title>Node20</title>
<g id="a_node20"><a xlink:href="classKadath_1_1Base__tensor.html" target="_top" xlink:title=" ">
<polygon fill="none" stroke="black" points="854,-681.5 854,-700.5 961,-700.5 961,-681.5 854,-681.5"/>
<text text-anchor="middle" x="907.5" y="-688.5" font-family="Helvetica,sans-Serif" font-size="10.00">Kadath::Base_tensor</text>
</a>
</g>
</g>
<!-- Node3&#45;&gt;Node20 -->
<g id="edge50" class="edge">
<title>Node3&#45;&gt;Node20</title>
<path fill="none" stroke="midnightblue" d="M65,-444.57C66.1,-517.18 80.32,-767 223.5,-767 223.5,-767 223.5,-767 715.5,-767 786.52,-767 862.54,-721.08 892.87,-700.63"/>
<polygon fill="midnightblue" stroke="midnightblue" points="68.5,-444.47 64.91,-434.5 61.5,-444.53 68.5,-444.47"/>
</g>
<!-- Node21 -->
<g id="node21" class="node">
<title>Node21</title>
<g id="a_node21"><a xlink:href="classKadath_1_1Param__tensor.html" target="_top" xlink:title=" ">
<polygon fill="none" stroke="black" points="532,-527.5 532,-546.5 645,-546.5 645,-527.5 532,-527.5"/>
<text text-anchor="middle" x="588.5" y="-534.5" font-family="Helvetica,sans-Serif" font-size="10.00">Kadath::Param_tensor</text>
</a>
</g>
</g>
<!-- Node3&#45;&gt;Node21 -->
<g id="edge54" class="edge">
<title>Node3&#45;&gt;Node21</title>
<path fill="none" stroke="midnightblue" d="M80.5,-442.04C98.78,-461.02 131.01,-491.11 165,-507 285.91,-563.51 447.75,-554.97 531.7,-545.21"/>
<polygon fill="midnightblue" stroke="midnightblue" points="82.96,-439.55 73.55,-434.66 77.86,-444.34 82.96,-439.55"/>
</g>
<!-- Node4&#45;&gt;Node2 -->
<g id="edge3" class="edge">
<title>Node4&#45;&gt;Node2</title>
<path fill="none" stroke="#9a32cd" stroke-dasharray="5,2" d="M764.74,-362.22C803.2,-368.62 858.06,-376 906.5,-376 906.5,-376 906.5,-376 1296,-376 1344.55,-376 1400.35,-380.06 1436.68,-383.25"/>
<polygon fill="#9a32cd" stroke="#9a32cd" points="765.29,-358.76 754.84,-360.53 764.11,-365.66 765.29,-358.76"/>
<text text-anchor="middle" x="1117" y="-379" font-family="Helvetica,sans-Serif" font-size="10.00"> espace</text>
</g>
<!-- Node4&#45;&gt;Node11 -->
<g id="edge32" class="edge">
<title>Node4&#45;&gt;Node11</title>
<path fill="none" stroke="#9a32cd" stroke-dasharray="5,2" d="M764.74,-343.78C803.2,-337.38 858.06,-330 906.5,-330 906.5,-330 906.5,-330 1477.5,-330 1509.08,-330 1544.12,-333.37 1572.78,-337.02"/>
<polygon fill="#9a32cd" stroke="#9a32cd" points="764.11,-340.34 754.84,-345.47 765.29,-347.24 764.11,-340.34"/>
<text text-anchor="middle" x="1204" y="-333" font-family="Helvetica,sans-Serif" font-size="10.00"> espace</text>
</g>
<!-- Node4&#45;&gt;Node18 -->
<g id="edge44" class="edge">
<title>Node4&#45;&gt;Node18</title>
<path fill="none" stroke="#9a32cd" stroke-dasharray="5,2" d="M742.55,-367.22C755.03,-373.57 770.13,-380.97 784,-387 903.31,-438.88 939.13,-437.13 1058,-490 1071.98,-496.22 1087.35,-504.22 1098.75,-510.4"/>
<polygon fill="#9a32cd" stroke="#9a32cd" points="744.07,-364.06 733.58,-362.6 740.87,-370.29 744.07,-364.06"/>
<text text-anchor="middle" x="907.5" y="-454" font-family="Helvetica,sans-Serif" font-size="10.00"> espace</text>
</g>
<!-- Node4&#45;&gt;Node20 -->
<g id="edge51" class="edge">
<title>Node4&#45;&gt;Node20</title>
<path fill="none" stroke="#9a32cd" stroke-dasharray="5,2" d="M735.84,-369.43C746.53,-379.2 758.86,-392.5 766,-407 787.7,-451.04 765.46,-470.53 784,-516 812.71,-586.4 873.99,-656.27 897.27,-681.31"/>
<polygon fill="#9a32cd" stroke="#9a32cd" points="737.93,-366.62 728.09,-362.68 733.33,-371.89 737.93,-366.62"/>
<text text-anchor="middle" x="810" y="-604" font-family="Helvetica,sans-Serif" font-size="10.00"> space</text>
</g>
<!-- Node5&#45;&gt;Node4 -->
<g id="edge5" class="edge">
<title>Node5&#45;&gt;Node4</title>
<path fill="none" stroke="#9a32cd" stroke-dasharray="5,2" d="M491.02,-370.51C498.64,-367.22 506.65,-363.6 514,-360 522.22,-355.97 523.14,-352.3 532,-350 579.74,-337.63 636.94,-341.5 674.2,-346.39"/>
<polygon fill="#9a32cd" stroke="#9a32cd" points="489.51,-367.35 481.67,-374.48 492.25,-373.79 489.51,-367.35"/>
<text text-anchor="middle" x="588.5" y="-353" font-family="Helvetica,sans-Serif" font-size="10.00"> domains</text>
</g>
<!-- Node5&#45;&gt;Node8 -->
<g id="edge19" class="edge">
<title>Node5&#45;&gt;Node8</title>
<path fill="none" stroke="#9a32cd" stroke-dasharray="5,2" d="M477.65,-399.69C491.84,-409.97 511.95,-422.49 532,-428 575,-439.82 625.91,-437.96 662.86,-433.93"/>
<polygon fill="#9a32cd" stroke="#9a32cd" points="479.73,-396.88 469.64,-393.66 475.52,-402.47 479.73,-396.88"/>
<text text-anchor="middle" x="588.5" y="-440" font-family="Helvetica,sans-Serif" font-size="10.00"> zone</text>
</g>
<!-- Node5&#45;&gt;Node12 -->
<g id="edge28" class="edge">
<title>Node5&#45;&gt;Node12</title>
<path fill="none" stroke="#9a32cd" stroke-dasharray="5,2" d="M508.89,-372.42C510.67,-371.38 512.38,-370.24 514,-369 526.65,-359.32 519.31,-347.63 532,-338 598.38,-287.63 630.17,-291 713.5,-291 713.5,-291 713.5,-291 1205,-291 1431.84,-291 1484.37,-240.37 1710,-217 1774.52,-210.32 1849.6,-206.48 1895.84,-204.56"/>
<polygon fill="#9a32cd" stroke="#9a32cd" points="507.03,-369.42 499.51,-376.89 510.05,-375.74 507.03,-369.42"/>
<text text-anchor="middle" x="1295" y="-294" font-family="Helvetica,sans-Serif" font-size="10.00"> dom</text>
</g>
<!-- Node6&#45;&gt;Node5 -->
<g id="edge7" class="edge">
<title>Node6&#45;&gt;Node5</title>
<path fill="none" stroke="#9a32cd" stroke-dasharray="5,2" d="M282.24,-386.26C323.18,-385.73 377.52,-385.02 414.45,-384.54"/>
<polygon fill="#9a32cd" stroke="#9a32cd" points="282.1,-382.76 272.15,-386.39 282.19,-389.76 282.1,-382.76"/>
<text text-anchor="middle" x="342" y="-399" font-family="Helvetica,sans-Serif" font-size="10.00"> nbr_coefs</text>
<text text-anchor="middle" x="342" y="-388" font-family="Helvetica,sans-Serif" font-size="10.00">nbr_points</text>
</g>
<!-- Node6&#45;&gt;Node15 -->
<g id="edge35" class="edge">
<title>Node6&#45;&gt;Node15</title>
<path fill="none" stroke="#9a32cd" stroke-dasharray="5,2" d="M261.73,-373.23C269.44,-369.51 277.28,-365.08 284,-360 293.81,-352.59 293.44,-347.82 302,-339 328.31,-311.91 414.3,-235.74 444.99,-208.69"/>
<polygon fill="#9a32cd" stroke="#9a32cd" points="260.15,-370.11 252.47,-377.42 263.03,-376.49 260.15,-370.11"/>
<text text-anchor="middle" x="342" y="-342" font-family="Helvetica,sans-Serif" font-size="10.00"> sizes</text>
</g>
<!-- Node7&#45;&gt;Node5 -->
<g id="edge9" class="edge">
<title>Node7&#45;&gt;Node5</title>
<path fill="none" stroke="#9a32cd" stroke-dasharray="5,2" d="M290.71,-352.32C318.82,-357.29 352.06,-363.29 382,-369 392.43,-370.99 403.67,-373.22 414.16,-375.34"/>
<polygon fill="#9a32cd" stroke="#9a32cd" points="291.06,-348.83 280.6,-350.54 289.84,-355.72 291.06,-348.83"/>
<text text-anchor="middle" x="342" y="-372" font-family="Helvetica,sans-Serif" font-size="10.00"> coloc</text>
</g>
<!-- Node7&#45;&gt;Node8 -->
<g id="edge13" class="edge">
<title>Node7&#45;&gt;Node8</title>
<path fill="none" stroke="#9a32cd" stroke-dasharray="5,2" d="M294.49,-337.83C353.06,-336.01 439.26,-335.39 514,-343 573.05,-349.01 591.42,-343.45 645,-369 669.58,-380.72 692.74,-403.27 704.81,-416.21"/>
<polygon fill="#9a32cd" stroke="#9a32cd" points="294.12,-334.34 284.25,-338.17 294.36,-341.34 294.12,-334.34"/>
<text text-anchor="middle" x="457" y="-357" font-family="Helvetica,sans-Serif" font-size="10.00"> c</text>
<text text-anchor="middle" x="457" y="-346" font-family="Helvetica,sans-Serif" font-size="10.00">cf</text>
</g>
<!-- Node7&#45;&gt;Node11 -->
<g id="edge39" class="edge">
<title>Node7&#45;&gt;Node11</title>
<path fill="none" stroke="#9a32cd" stroke-dasharray="5,2" d="M238.07,-323.12C263.79,-288.19 326.27,-211.59 400,-180 476.99,-147.01 503.74,-161 587.5,-161 587.5,-161 587.5,-161 1019.5,-161 1242.54,-161 1320.94,-125.84 1516,-234 1565.1,-261.23 1608.3,-314.74 1624.6,-336.48"/>
<polygon fill="#9a32cd" stroke="#9a32cd" points="235.09,-321.26 232.07,-331.42 240.77,-325.36 235.09,-321.26"/>
<text text-anchor="middle" x="1018.5" y="-164" font-family="Helvetica,sans-Serif" font-size="10.00"> val_cst_hard</text>
</g>
<!-- Node8&#45;&gt;Node5 -->
<g id="edge11" class="edge">
<title>Node8&#45;&gt;Node5</title>
<path fill="none" stroke="#9a32cd" stroke-dasharray="5,2" d="M694.17,-410.12C681.15,-400.49 663.11,-389.11 645,-384 596.57,-370.33 538.23,-373.22 499.74,-377.62"/>
<polygon fill="#9a32cd" stroke="#9a32cd" points="692.26,-413.07 702.32,-416.41 696.54,-407.53 692.26,-413.07"/>
<text text-anchor="middle" x="588.5" y="-420" font-family="Helvetica,sans-Serif" font-size="10.00"> absol</text>
<text text-anchor="middle" x="588.5" y="-409" font-family="Helvetica,sans-Serif" font-size="10.00">cart</text>
<text text-anchor="middle" x="588.5" y="-398" font-family="Helvetica,sans-Serif" font-size="10.00">cart_surr</text>
<text text-anchor="middle" x="588.5" y="-387" font-family="Helvetica,sans-Serif" font-size="10.00">radius</text>
</g>
<!-- Node8&#45;&gt;Node8 -->
<g id="edge14" class="edge">
<title>Node8&#45;&gt;Node8</title>
<path fill="none" stroke="#9a32cd" stroke-dasharray="5,2" d="M697.09,-445.4C698.26,-450.31 704.06,-454 714.5,-454 731.21,-454 736.04,-444.57 728.99,-435.76"/>
<polygon fill="#9a32cd" stroke="#9a32cd" points="700.47,-446.34 700.01,-435.76 693.77,-444.31 700.47,-446.34"/>
<text text-anchor="middle" x="714.5" y="-468" font-family="Helvetica,sans-Serif" font-size="10.00"> p_der_abs</text>
<text text-anchor="middle" x="714.5" y="-457" font-family="Helvetica,sans-Serif" font-size="10.00">p_der_var</text>
</g>
<!-- Node19 -->
<g id="node19" class="node">
<title>Node19</title>
<g id="a_node19"><a xlink:href="classKadath_1_1Scalar.html" target="_top" xlink:title=" ">
<polygon fill="none" stroke="black" points="1255,-451.5 1255,-470.5 1335,-470.5 1335,-451.5 1255,-451.5"/>
<text text-anchor="middle" x="1295" y="-458.5" font-family="Helvetica,sans-Serif" font-size="10.00">Kadath::Scalar</text>
</a>
</g>
</g>
<!-- Node8&#45;&gt;Node19 -->
<g id="edge47" class="edge">
<title>Node8&#45;&gt;Node19</title>
<path fill="none" stroke="#9a32cd" stroke-dasharray="5,2" d="M776.57,-426.8C826.27,-427.68 898.2,-429.47 961,-433 1067.44,-438.99 1192.64,-450.81 1254.83,-457"/>
<polygon fill="#9a32cd" stroke="#9a32cd" points="776.37,-423.3 766.31,-426.63 776.25,-430.3 776.37,-423.3"/>
<text text-anchor="middle" x="1018.5" y="-442" font-family="Helvetica,sans-Serif" font-size="10.00"> val_zones</text>
</g>
<!-- Node9&#45;&gt;Node8 -->
<g id="edge15" class="edge">
<title>Node9&#45;&gt;Node8</title>
<path fill="none" stroke="#9a32cd" stroke-dasharray="5,2" d="M524.35,-506.23C561.24,-506.67 607.19,-503.04 645,-487 671.68,-475.68 695.05,-449.63 706.33,-435.51"/>
<polygon fill="#9a32cd" stroke="#9a32cd" points="524.28,-502.72 514.2,-506 524.12,-509.72 524.28,-502.72"/>
<text text-anchor="middle" x="588.5" y="-509" font-family="Helvetica,sans-Serif" font-size="10.00"> base</text>
</g>
<!-- Node10&#45;&gt;Node9 -->
<g id="edge17" class="edge">
<title>Node10&#45;&gt;Node9</title>
<path fill="none" stroke="#9a32cd" stroke-dasharray="5,2" d="M250.82,-619.39C298.25,-592.02 399.33,-533.7 439.26,-510.66"/>
<polygon fill="#9a32cd" stroke="#9a32cd" points="248.99,-616.41 242.08,-624.43 252.49,-622.47 248.99,-616.41"/>
<text text-anchor="middle" x="342" y="-590" font-family="Helvetica,sans-Serif" font-size="10.00"> bases_1d</text>
</g>
<!-- Node10&#45;&gt;Node11 -->
<g id="edge36" class="edge">
<title>Node10&#45;&gt;Node11</title>
<path fill="none" stroke="#9a32cd" stroke-dasharray="5,2" d="M285.36,-638.29C290.98,-638.58 296.6,-638.82 302,-639 337.54,-640.16 346.44,-639.14 382,-639 571.16,-638.26 1058.46,-668.29 1232,-593 1241.82,-588.74 1240.62,-582.15 1250,-577 1318.46,-539.45 1346.03,-556.8 1419,-529 1463.77,-511.95 1477.82,-510.93 1516,-482 1566.37,-443.84 1609.81,-380.14 1625.37,-355.83"/>
<polygon fill="#9a32cd" stroke="#9a32cd" points="285.45,-634.79 275.27,-637.73 285.06,-641.78 285.45,-634.79"/>
<text text-anchor="middle" x="1018.5" y="-651" font-family="Helvetica,sans-Serif" font-size="10.00"> assoc_var</text>
<text text-anchor="middle" x="1018.5" y="-640" font-family="Helvetica,sans-Serif" font-size="10.00">assoc_var_double</text>
</g>
<!-- Node10&#45;&gt;Node12 -->
<g id="edge23" class="edge">
<title>Node10&#45;&gt;Node12</title>
<path fill="none" stroke="#9a32cd" stroke-dasharray="5,2" d="M243.73,-650.5C258.4,-662.84 280.11,-679.05 302,-688 397.26,-726.96 429.3,-708.17 532,-715 660.72,-723.55 1583.91,-833.41 1692,-763 1744.44,-728.84 1909.85,-283.63 1936,-212.54"/>
<polygon fill="#9a32cd" stroke="#9a32cd" points="245.81,-647.67 235.96,-643.78 241.23,-652.97 245.81,-647.67"/>
<text text-anchor="middle" x="1204" y="-790" font-family="Helvetica,sans-Serif" font-size="10.00"> n_cond</text>
<text text-anchor="middle" x="1204" y="-779" font-family="Helvetica,sans-Serif" font-size="10.00">p_cmp_used</text>
</g>
<!-- Node10&#45;&gt;Node18 -->
<g id="edge48" class="edge">
<title>Node10&#45;&gt;Node18</title>
<path fill="none" stroke="#9a32cd" stroke-dasharray="5,2" d="M285.17,-631.14C470.02,-622.12 1022.89,-593.95 1058,-578 1081.08,-567.52 1100.1,-543.57 1109.56,-529.95"/>
<polygon fill="#9a32cd" stroke="#9a32cd" points="284.9,-627.65 275.09,-631.63 285.24,-634.64 284.9,-627.65"/>
<text text-anchor="middle" x="714.5" y="-624" font-family="Helvetica,sans-Serif" font-size="10.00"> give_indices</text>
<text text-anchor="middle" x="714.5" y="-613" font-family="Helvetica,sans-Serif" font-size="10.00">type_indice</text>
</g>
<!-- Node10&#45;&gt;Node20 -->
<g id="edge52" class="edge">
<title>Node10&#45;&gt;Node20</title>
<path fill="none" stroke="#9a32cd" stroke-dasharray="5,2" d="M251.77,-648.19C266.16,-655.22 284.58,-663.04 302,-667 501.72,-712.39 747.92,-702.56 853.91,-695.29"/>
<polygon fill="#9a32cd" stroke="#9a32cd" points="253.01,-644.89 242.5,-643.5 249.85,-651.14 253.01,-644.89"/>
<text text-anchor="middle" x="588.5" y="-704" font-family="Helvetica,sans-Serif" font-size="10.00"> basis</text>
</g>
<!-- Node11&#45;&gt;Node2 -->
<g id="edge20" class="edge">
<title>Node11&#45;&gt;Node2</title>
<path fill="none" stroke="#9a32cd" stroke-dasharray="5,2" d="M1562.72,-356.87C1553,-358.94 1543.2,-361.31 1534,-364 1521.8,-367.57 1508.63,-372.84 1498.07,-377.44"/>
<polygon fill="#9a32cd" stroke="#9a32cd" points="1563.68,-360.25 1572.78,-354.83 1562.29,-353.39 1563.68,-360.25"/>
<text text-anchor="middle" x="1544.5" y="-367" font-family="Helvetica,sans-Serif" font-size="10.00"> syst</text>
</g>
<!-- Node11&#45;&gt;Node13 -->
<g id="edge27" class="edge">
<title>Node11&#45;&gt;Node13</title>
<path fill="none" stroke="#9a32cd" stroke-dasharray="5,2" d="M1646.72,-328.38C1678.66,-285.79 1759.22,-178.37 1783.78,-145.63"/>
<polygon fill="#9a32cd" stroke="#9a32cd" points="1643.88,-326.33 1640.68,-336.43 1649.48,-330.53 1643.88,-326.33"/>
<text text-anchor="middle" x="1720.5" y="-244" font-family="Helvetica,sans-Serif" font-size="10.00"> syst</text>
</g>
<!-- Node12&#45;&gt;Node11 -->
<g id="edge21" class="edge">
<title>Node12&#45;&gt;Node11</title>
<path fill="none" stroke="#9a32cd" stroke-dasharray="5,2" d="M1909.83,-216.87C1848.05,-245.74 1706.97,-311.67 1654.05,-336.4"/>
<polygon fill="#9a32cd" stroke="#9a32cd" points="1911.46,-219.97 1919.04,-212.56 1908.5,-213.63 1911.46,-219.97"/>
<text text-anchor="middle" x="1792" y="-295" font-family="Helvetica,sans-Serif" font-size="10.00"> eq</text>
</g>
<!-- Node13&#45;&gt;Node12 -->
<g id="edge24" class="edge">
<title>Node13&#45;&gt;Node12</title>
<path fill="none" stroke="#9a32cd" stroke-dasharray="5,2" d="M1845.4,-142.34C1856.49,-144.81 1867.89,-148.24 1878,-153 1899.16,-162.96 1919.34,-181.74 1930.51,-193.24"/>
<polygon fill="#9a32cd" stroke="#9a32cd" points="1845.85,-138.86 1835.35,-140.33 1844.47,-145.72 1845.85,-138.86"/>
<text text-anchor="middle" x="1865.5" y="-156" font-family="Helvetica,sans-Serif" font-size="10.00"> parts</text>
</g>
<!-- Node13&#45;&gt;Node13 -->
<g id="edge26" class="edge">
<title>Node13&#45;&gt;Node13</title>
<path fill="none" stroke="#9a32cd" stroke-dasharray="5,2" d="M1779.11,-155.77C1780.12,-160.5 1784.42,-164 1792,-164 1804.44,-164 1808.04,-154.57 1802.79,-145.76"/>
<polygon fill="#9a32cd" stroke="#9a32cd" points="1782.58,-156.26 1781.21,-145.76 1775.73,-154.82 1782.58,-156.26"/>
<text text-anchor="middle" x="1792" y="-167" font-family="Helvetica,sans-Serif" font-size="10.00"> parts</text>
</g>
<!-- Node13&#45;&gt;Node14 -->
<g id="edge31" class="edge">
<title>Node13&#45;&gt;Node14</title>
<path fill="none" stroke="#9a32cd" stroke-dasharray="5,2" d="M1817.37,-121.03C1847.66,-102.42 1898.46,-71.22 1923.93,-55.56"/>
<polygon fill="#9a32cd" stroke="#9a32cd" points="1815.37,-118.15 1808.68,-126.37 1819.03,-124.12 1815.37,-118.15"/>
<text text-anchor="middle" x="1865.5" y="-103" font-family="Helvetica,sans-Serif" font-size="10.00"> parts</text>
</g>
<!-- Node22 -->
<g id="node22" class="node">
<title>Node22</title>
<g id="a_node22"><a xlink:href="classKadath_1_1Ope__def.html" target="_top" xlink:title=" ">
<polygon fill="none" stroke="black" points="1896,-336.5 1896,-355.5 1985,-355.5 1985,-336.5 1896,-336.5"/>
<text text-anchor="middle" x="1940.5" y="-343.5" font-family="Helvetica,sans-Serif" font-size="10.00">Kadath::Ope_def</text>
</a>
</g>
</g>
<!-- Node13&#45;&gt;Node22 -->
<g id="edge58" class="edge">
<title>Node13&#45;&gt;Node22</title>
<path fill="none" stroke="midnightblue" d="M1805.48,-153.89C1835.32,-196.66 1909.99,-303.7 1932.79,-336.37"/>
<polygon fill="midnightblue" stroke="midnightblue" points="1808.27,-151.77 1799.68,-145.57 1802.53,-155.77 1808.27,-151.77"/>
</g>
<!-- Node14&#45;&gt;Node11 -->
<g id="edge29" class="edge">
<title>Node14&#45;&gt;Node11</title>
<path fill="none" stroke="#9a32cd" stroke-dasharray="5,2" d="M1890.64,-50.34C1848.6,-56.42 1788.62,-71.01 1749,-106 1673.44,-172.73 1642.81,-299.85 1635.38,-336.12"/>
<polygon fill="#9a32cd" stroke="#9a32cd" points="1891.21,-53.79 1900.66,-49 1890.28,-46.85 1891.21,-53.79"/>
<text text-anchor="middle" x="1792" y="-109" font-family="Helvetica,sans-Serif" font-size="10.00"> eq_int</text>
</g>
<!-- Node15&#45;&gt;Node11 -->
<g id="edge33" class="edge">
<title>Node15&#45;&gt;Node11</title>
<path fill="none" stroke="#9a32cd" stroke-dasharray="5,2" d="M504.9,-201.35C556.14,-203.71 640.63,-207 713.5,-207 713.5,-207 713.5,-207 1296,-207 1431.55,-207 1576.06,-305.04 1618.87,-336.45"/>
<polygon fill="#9a32cd" stroke="#9a32cd" points="504.95,-197.85 494.8,-200.88 504.62,-204.84 504.95,-197.85"/>
<text text-anchor="middle" x="1117" y="-210" font-family="Helvetica,sans-Serif" font-size="10.00"> which_coef</text>
</g>
<!-- Node16&#45;&gt;Node11 -->
<g id="edge37" class="edge">
<title>Node16&#45;&gt;Node11</title>
<path fill="none" stroke="#9a32cd" stroke-dasharray="5,2" d="M392.47,-843C441.86,-843 519.93,-843 587.5,-843 587.5,-843 587.5,-843 1205,-843 1239.31,-843 1216.08,-1021.89 1516,-680 1606.63,-576.68 1627.09,-398.45 1630.79,-355.51"/>
<polygon fill="#9a32cd" stroke="#9a32cd" points="392.38,-839.5 382.38,-843 392.38,-846.5 392.38,-839.5"/>
<text text-anchor="middle" x="1018.5" y="-857" font-family="Helvetica,sans-Serif" font-size="10.00"> paruser</text>
<text text-anchor="middle" x="1018.5" y="-846" font-family="Helvetica,sans-Serif" font-size="10.00">paruser_bin</text>
</g>
<!-- Node17&#45;&gt;Node2 -->
<g id="edge60" class="edge">
<title>Node17&#45;&gt;Node2</title>
<path fill="none" stroke="#9a32cd" stroke-dasharray="5,2" d="M1304.09,-576.67C1313.47,-553.83 1329.04,-514.56 1340,-480 1349.71,-449.38 1334.63,-432.04 1358,-410 1369.27,-399.37 1407.22,-393.33 1436.98,-390.13"/>
<polygon fill="#9a32cd" stroke="#9a32cd" points="1300.73,-575.62 1300.14,-586.2 1307.2,-578.3 1300.73,-575.62"/>
<text text-anchor="middle" x="1388.5" y="-490" font-family="Helvetica,sans-Serif" font-size="10.00"> p_christo</text>
<text text-anchor="middle" x="1388.5" y="-479" font-family="Helvetica,sans-Serif" font-size="10.00">p_det_cov</text>
<text text-anchor="middle" x="1388.5" y="-468" font-family="Helvetica,sans-Serif" font-size="10.00">p_dirac</text>
<text text-anchor="middle" x="1388.5" y="-457" font-family="Helvetica,sans-Serif" font-size="10.00">p_met_con</text>
<text text-anchor="middle" x="1388.5" y="-446" font-family="Helvetica,sans-Serif" font-size="10.00">p_met_cov</text>
<text text-anchor="middle" x="1388.5" y="-435" font-family="Helvetica,sans-Serif" font-size="10.00">p_ricci_scalar</text>
<text text-anchor="middle" x="1388.5" y="-424" font-family="Helvetica,sans-Serif" font-size="10.00">p_ricci_tensor</text>
<text text-anchor="middle" x="1388.5" y="-413" font-family="Helvetica,sans-Serif" font-size="10.00">p_riemann</text>
</g>
<!-- Node17&#45;&gt;Node11 -->
<g id="edge40" class="edge">
<title>Node17&#45;&gt;Node11</title>
<path fill="none" stroke="#9a32cd" stroke-dasharray="5,2" d="M1350.68,-602.08C1408.01,-605.37 1497.6,-601.34 1555,-554 1619.12,-501.13 1629.5,-389.4 1631.18,-355.77"/>
<polygon fill="#9a32cd" stroke="#9a32cd" points="1350.57,-598.57 1340.36,-601.39 1350.1,-605.55 1350.57,-598.57"/>
<text text-anchor="middle" x="1476.5" y="-668" font-family="Helvetica,sans-Serif" font-size="10.00"> cst</text>
<text text-anchor="middle" x="1476.5" y="-657" font-family="Helvetica,sans-Serif" font-size="10.00">cst_hard</text>
<text text-anchor="middle" x="1476.5" y="-646" font-family="Helvetica,sans-Serif" font-size="10.00">opeuser</text>
<text text-anchor="middle" x="1476.5" y="-635" font-family="Helvetica,sans-Serif" font-size="10.00">opeuser_bin</text>
<text text-anchor="middle" x="1476.5" y="-624" font-family="Helvetica,sans-Serif" font-size="10.00">results</text>
<text text-anchor="middle" x="1476.5" y="-613" font-family="Helvetica,sans-Serif" font-size="10.00">term</text>
<text text-anchor="middle" x="1476.5" y="-602" font-family="Helvetica,sans-Serif" font-size="10.00">term_double</text>
</g>
<!-- Node17&#45;&gt;Node22 -->
<g id="edge59" class="edge">
<title>Node17&#45;&gt;Node22</title>
<path fill="none" stroke="#9a32cd" stroke-dasharray="5,2" d="M1313.53,-612.82C1343.91,-640.1 1409.43,-691 1475.5,-691 1475.5,-691 1475.5,-691 1793,-691 1942.99,-691 1941.65,-411.31 1939.89,-355.59"/>
<polygon fill="#9a32cd" stroke="#9a32cd" points="1315.65,-610.01 1305.93,-605.81 1310.91,-615.16 1315.65,-610.01"/>
<text text-anchor="middle" x="1632.5" y="-694" font-family="Helvetica,sans-Serif" font-size="10.00"> res</text>
</g>
<!-- Node18&#45;&gt;Node11 -->
<g id="edge56" class="edge">
<title>Node18&#45;&gt;Node11</title>
<path fill="none" stroke="#9a32cd" stroke-dasharray="5,2" d="M1168.56,-524.46C1229.79,-528.05 1335.16,-528.31 1419,-498 1508.58,-465.61 1594.19,-384.08 1622.06,-355.82"/>
<polygon fill="#9a32cd" stroke="#9a32cd" points="1168.59,-520.96 1158.38,-523.81 1168.14,-527.94 1168.59,-520.96"/>
<text text-anchor="middle" x="1388.5" y="-517" font-family="Helvetica,sans-Serif" font-size="10.00"> var</text>
</g>
<!-- Node18&#45;&gt;Node17 -->
<g id="edge42" class="edge">
<title>Node18&#45;&gt;Node17</title>
<path fill="none" stroke="#9a32cd" stroke-dasharray="5,2" d="M1149.65,-533.67C1184.92,-548.9 1241.04,-573.13 1271.89,-586.45"/>
<polygon fill="#9a32cd" stroke="#9a32cd" points="1150.86,-530.38 1140.29,-529.63 1148.08,-536.8 1150.86,-530.38"/>
<text text-anchor="middle" x="1204" y="-581" font-family="Helvetica,sans-Serif" font-size="10.00"> der_t</text>
<text text-anchor="middle" x="1204" y="-570" font-family="Helvetica,sans-Serif" font-size="10.00">val_t</text>
</g>
<!-- Node18&#45;&gt;Node19 -->
<g id="edge46" class="edge">
<title>Node18&#45;&gt;Node19</title>
<path fill="none" stroke="midnightblue" d="M1134.62,-503.11C1145.44,-493.19 1160.4,-481.39 1176,-475 1201.01,-464.75 1231.32,-461.33 1254.96,-460.42"/>
<polygon fill="midnightblue" stroke="midnightblue" points="1132.01,-500.76 1127.21,-510.2 1136.85,-505.81 1132.01,-500.76"/>
</g>
<!-- Node19&#45;&gt;Node18 -->
<g id="edge45" class="edge">
<title>Node19&#45;&gt;Node18</title>
<path fill="none" stroke="#9a32cd" stroke-dasharray="5,2" d="M1246.75,-473.14C1225,-479.11 1198.98,-486.78 1176,-495 1163.3,-499.55 1149.42,-505.49 1138.42,-510.45"/>
<polygon fill="#9a32cd" stroke="#9a32cd" points="1247.68,-476.52 1256.41,-470.53 1245.85,-469.76 1247.68,-476.52"/>
<text text-anchor="middle" x="1204" y="-498" font-family="Helvetica,sans-Serif" font-size="10.00"> cmp</text>
</g>
<!-- Node20&#45;&gt;Node1 -->
<g id="edge61" class="edge">
<title>Node20&#45;&gt;Node1</title>
<path fill="none" stroke="#9a32cd" stroke-dasharray="5,2" d="M950.3,-703.25C991.91,-714.36 1057.81,-729 1116,-729 1116,-729 1116,-729 1389.5,-729 1456.98,-729 1534.97,-732.54 1583.77,-735.18"/>
<polygon fill="#9a32cd" stroke="#9a32cd" points="951.08,-699.84 940.51,-700.59 949.24,-706.59 951.08,-699.84"/>
<text text-anchor="middle" x="1295" y="-732" font-family="Helvetica,sans-Serif" font-size="10.00"> basis</text>
</g>
<!-- Node20&#45;&gt;Node18 -->
<g id="edge49" class="edge">
<title>Node20&#45;&gt;Node18</title>
<path fill="none" stroke="#9a32cd" stroke-dasharray="5,2" d="M971.19,-694.52C1000.38,-693.01 1033.9,-686.37 1058,-667 1102.48,-631.25 1112.97,-556.55 1115.34,-529.8"/>
<polygon fill="#9a32cd" stroke="#9a32cd" points="970.95,-691.03 961.07,-694.86 971.18,-698.03 970.95,-691.03"/>
<text text-anchor="middle" x="1018.5" y="-696" font-family="Helvetica,sans-Serif" font-size="10.00"> basis</text>
</g>
<!-- Node21&#45;&gt;Node18 -->
<g id="edge53" class="edge">
<title>Node21&#45;&gt;Node18</title>
<path fill="none" stroke="#9a32cd" stroke-dasharray="5,2" d="M641.77,-525.33C680.75,-517.25 735.41,-507.22 784,-503 889.08,-493.88 1013.32,-506.45 1075.82,-514.38"/>
<polygon fill="#9a32cd" stroke="#9a32cd" points="640.78,-521.96 631.72,-527.44 642.22,-528.81 640.78,-521.96"/>
<text text-anchor="middle" x="810" y="-506" font-family="Helvetica,sans-Serif" font-size="10.00"> parameters</text>
</g>
<!-- Node22&#45;&gt;Node11 -->
<g id="edge57" class="edge">
<title>Node22&#45;&gt;Node11</title>
<path fill="none" stroke="#9a32cd" stroke-dasharray="5,2" d="M1885.79,-346C1831.57,-346 1748.06,-346 1692.14,-346"/>
<polygon fill="#9a32cd" stroke="#9a32cd" points="1885.9,-349.5 1895.9,-346 1885.9,-342.5 1885.9,-349.5"/>
<text text-anchor="middle" x="1792" y="-349" font-family="Helvetica,sans-Serif" font-size="10.00"> def</text>
</g>
</g>
</svg>
