<?xml version="1.0" encoding="UTF-8" standalone="no"?>
<!DOCTYPE svg PUBLIC "-//W3C//DTD SVG 1.1//EN"
 "http://www.w3.org/Graphics/SVG/1.1/DTD/svg11.dtd">
<!-- Generated by graphviz version 2.47.1 (20210515.0534)
 -->
<!-- Title: Kadath::Space_spheric_symphi Pages: 1 -->
<svg width="539pt" height="335pt"
 viewBox="0.00 0.00 538.50 335.00" xmlns="http://www.w3.org/2000/svg" xmlns:xlink="http://www.w3.org/1999/xlink">
<g id="graph0" class="graph" transform="scale(1 1) rotate(0) translate(4 331)">
<title>Kadath::Space_spheric_symphi</title>
<!-- Node1 -->
<g id="node1" class="node">
<title>Node1</title>
<g id="a_node1"><a xlink:title=" ">
<polygon fill="#bfbfbf" stroke="black" points="0,-0.5 0,-30.5 116,-30.5 116,-0.5 0,-0.5"/>
<text text-anchor="start" x="8" y="-18.5" font-family="Helvetica,sans-Serif" font-size="10.00">Kadath::Space_spheric</text>
<text text-anchor="middle" x="58" y="-7.5" font-family="Helvetica,sans-Serif" font-size="10.00">_symphi</text>
</a>
</g>
</g>
<!-- Node2 -->
<g id="node2" class="node">
<title>Node2</title>
<g id="a_node2"><a xlink:href="classKadath_1_1Space.html" target="_top" xlink:title=" ">
<polygon fill="none" stroke="black" points="18,-69.5 18,-88.5 98,-88.5 98,-69.5 18,-69.5"/>
<text text-anchor="middle" x="58" y="-76.5" font-family="Helvetica,sans-Serif" font-size="10.00">Kadath::Space</text>
</a>
</g>
</g>
<!-- Node2&#45;&gt;Node1 -->
<g id="edge1" class="edge">
<title>Node2&#45;&gt;Node1</title>
<path fill="none" stroke="midnightblue" d="M58,-59.33C58,-50.11 58,-39.17 58,-30.65"/>
<polygon fill="midnightblue" stroke="midnightblue" points="54.5,-59.45 58,-69.45 61.5,-59.45 54.5,-59.45"/>
</g>
<!-- Node3 -->
<g id="node3" class="node">
<title>Node3</title>
<g id="a_node3"><a xlink:href="structKadath_1_1MemoryMappable.html" target="_top" xlink:title=" ">
<polygon fill="none" stroke="black" points="211,-307.5 211,-326.5 339,-326.5 339,-307.5 211,-307.5"/>
<text text-anchor="middle" x="275" y="-314.5" font-family="Helvetica,sans-Serif" font-size="10.00">Kadath::MemoryMappable</text>
</a>
</g>
</g>
<!-- Node3&#45;&gt;Node2 -->
<g id="edge2" class="edge">
<title>Node3&#45;&gt;Node2</title>
<path fill="none" stroke="midnightblue" d="M200.67,-307.96C153.2,-301.06 98.02,-289.14 84,-270 41.7,-212.25 52.11,-117.49 56.53,-88.62"/>
<polygon fill="midnightblue" stroke="midnightblue" points="200.27,-311.44 210.66,-309.35 201.24,-304.5 200.27,-311.44"/>
</g>
<!-- Node4 -->
<g id="node4" class="node">
<title>Node4</title>
<g id="a_node4"><a xlink:href="classKadath_1_1Domain.html" target="_top" xlink:title=" ">
<polygon fill="none" stroke="black" points="112.5,-171.5 112.5,-190.5 197.5,-190.5 197.5,-171.5 112.5,-171.5"/>
<text text-anchor="middle" x="155" y="-178.5" font-family="Helvetica,sans-Serif" font-size="10.00">Kadath::Domain</text>
</a>
</g>
</g>
<!-- Node3&#45;&gt;Node4 -->
<g id="edge4" class="edge">
<title>Node3&#45;&gt;Node4</title>
<path fill="none" stroke="midnightblue" d="M200.78,-306.56C156.59,-299.25 106.54,-287.39 93,-270 71.07,-241.84 116.38,-206.71 140.8,-190.69"/>
<polygon fill="midnightblue" stroke="midnightblue" points="200.26,-310.02 210.69,-308.14 201.37,-303.11 200.26,-310.02"/>
</g>
<!-- Node5 -->
<g id="node5" class="node">
<title>Node5</title>
<g id="a_node5"><a xlink:href="classKadath_1_1Dim__array.html" target="_top" xlink:title=" ">
<polygon fill="none" stroke="black" points="102.5,-250.5 102.5,-269.5 197.5,-269.5 197.5,-250.5 102.5,-250.5"/>
<text text-anchor="middle" x="150" y="-257.5" font-family="Helvetica,sans-Serif" font-size="10.00">Kadath::Dim_array</text>
</a>
</g>
</g>
<!-- Node3&#45;&gt;Node5 -->
<g id="edge6" class="edge">
<title>Node3&#45;&gt;Node5</title>
<path fill="none" stroke="midnightblue" d="M246.3,-303.37C222.73,-293 189.98,-278.59 169.39,-269.53"/>
<polygon fill="midnightblue" stroke="midnightblue" points="244.91,-306.58 255.47,-307.41 247.73,-300.18 244.91,-306.58"/>
</g>
<!-- Node6 -->
<g id="node6" class="node">
<title>Node6</title>
<g id="a_node6"><a xlink:href="classKadath_1_1Array.html" target="_top" xlink:title=" ">
<polygon fill="none" stroke="black" points="215.5,-250.5 215.5,-269.5 334.5,-269.5 334.5,-250.5 215.5,-250.5"/>
<text text-anchor="middle" x="275" y="-257.5" font-family="Helvetica,sans-Serif" font-size="10.00">Kadath::Array&lt; double &gt;</text>
</a>
</g>
</g>
<!-- Node3&#45;&gt;Node6 -->
<g id="edge8" class="edge">
<title>Node3&#45;&gt;Node6</title>
<path fill="none" stroke="midnightblue" d="M275,-297.12C275,-287.82 275,-277.06 275,-269.71"/>
<polygon fill="midnightblue" stroke="midnightblue" points="271.5,-297.41 275,-307.41 278.5,-297.41 271.5,-297.41"/>
</g>
<!-- Node7 -->
<g id="node7" class="node">
<title>Node7</title>
<g id="a_node7"><a xlink:href="classKadath_1_1Val__domain.html" target="_top" xlink:title=" ">
<polygon fill="none" stroke="black" points="223.5,-69.5 223.5,-88.5 326.5,-88.5 326.5,-69.5 223.5,-69.5"/>
<text text-anchor="middle" x="275" y="-76.5" font-family="Helvetica,sans-Serif" font-size="10.00">Kadath::Val_domain</text>
</a>
</g>
</g>
<!-- Node3&#45;&gt;Node7 -->
<g id="edge10" class="edge">
<title>Node3&#45;&gt;Node7</title>
<path fill="none" stroke="midnightblue" d="M307.49,-302.87C321.37,-295.43 336.16,-284.65 344,-270 348.19,-262.16 345.63,-258.74 344,-250 331.83,-184.87 293.88,-113.35 280.08,-88.82"/>
<polygon fill="midnightblue" stroke="midnightblue" points="305.55,-299.92 298.12,-307.48 308.64,-306.2 305.55,-299.92"/>
</g>
<!-- Node8 -->
<g id="node8" class="node">
<title>Node8</title>
<g id="a_node8"><a xlink:href="classKadath_1_1Base__spectral.html" target="_top" xlink:title=" ">
<polygon fill="none" stroke="black" points="391,-171.5 391,-190.5 505,-190.5 505,-171.5 391,-171.5"/>
<text text-anchor="middle" x="448" y="-178.5" font-family="Helvetica,sans-Serif" font-size="10.00">Kadath::Base_spectral</text>
</a>
</g>
</g>
<!-- Node3&#45;&gt;Node8 -->
<g id="edge14" class="edge">
<title>Node3&#45;&gt;Node8</title>
<path fill="none" stroke="midnightblue" d="M345.91,-304.43C356.94,-300.65 367.73,-295.64 377,-289 413.6,-262.77 436.65,-211.31 444.74,-190.77"/>
<polygon fill="midnightblue" stroke="midnightblue" points="344.7,-301.14 336.19,-307.44 346.77,-307.83 344.7,-301.14"/>
</g>
<!-- Node9 -->
<g id="node9" class="node">
<title>Node9</title>
<g id="a_node9"><a xlink:href="classKadath_1_1Array.html" target="_top" xlink:title=" ">
<polygon fill="none" stroke="black" points="429.5,-250.5 429.5,-269.5 530.5,-269.5 530.5,-250.5 429.5,-250.5"/>
<text text-anchor="middle" x="480" y="-257.5" font-family="Helvetica,sans-Serif" font-size="10.00">Kadath::Array&lt; int &gt;</text>
</a>
</g>
</g>
<!-- Node3&#45;&gt;Node9 -->
<g id="edge16" class="edge">
<title>Node3&#45;&gt;Node9</title>
<path fill="none" stroke="midnightblue" d="M344.22,-305.71C367.02,-301.52 392.33,-295.98 415,-289 431.79,-283.83 450.11,-275.7 463,-269.53"/>
<polygon fill="midnightblue" stroke="midnightblue" points="343.5,-302.28 334.28,-307.49 344.73,-309.18 343.5,-302.28"/>
</g>
<!-- Node4&#45;&gt;Node2 -->
<g id="edge3" class="edge">
<title>Node4&#45;&gt;Node2</title>
<path fill="none" stroke="#9a32cd" stroke-dasharray="5,2" d="M117.83,-167.3C109.65,-163.31 101.5,-158.26 95,-152 75.97,-133.68 64.93,-103.44 60.42,-88.66"/>
<polygon fill="#9a32cd" stroke="#9a32cd" points="116.43,-170.51 126.99,-171.38 119.28,-164.12 116.43,-170.51"/>
<text text-anchor="middle" x="115" y="-127.5" font-family="Helvetica,sans-Serif" font-size="10.00"> domains</text>
</g>
<!-- Node4&#45;&gt;Node7 -->
<g id="edge17" class="edge">
<title>Node4&#45;&gt;Node7</title>
<path fill="none" stroke="#9a32cd" stroke-dasharray="5,2" d="M149.83,-161.54C146.57,-145.59 144.95,-122.82 157,-108 165.6,-97.42 195.7,-90.38 223.34,-86.01"/>
<polygon fill="#9a32cd" stroke="#9a32cd" points="146.45,-162.43 152.21,-171.32 153.25,-160.78 146.45,-162.43"/>
<text text-anchor="middle" x="168.5" y="-127.5" font-family="Helvetica,sans-Serif" font-size="10.00"> zone</text>
</g>
<!-- Node5&#45;&gt;Node4 -->
<g id="edge5" class="edge">
<title>Node5&#45;&gt;Node4</title>
<path fill="none" stroke="#9a32cd" stroke-dasharray="5,2" d="M151.21,-240.31C152.23,-224.59 153.65,-202.81 154.43,-190.81"/>
<polygon fill="#9a32cd" stroke="#9a32cd" points="147.71,-240.26 150.55,-250.47 154.69,-240.71 147.71,-240.26"/>
<text text-anchor="middle" x="177" y="-224" font-family="Helvetica,sans-Serif" font-size="10.00"> nbr_coefs</text>
<text text-anchor="middle" x="177" y="-213" font-family="Helvetica,sans-Serif" font-size="10.00">nbr_points</text>
</g>
<!-- Node6&#45;&gt;Node4 -->
<g id="edge7" class="edge">
<title>Node6&#45;&gt;Node4</title>
<path fill="none" stroke="#9a32cd" stroke-dasharray="5,2" d="M253.63,-244.71C247.58,-240.63 241.02,-236.17 235,-232 221.11,-222.38 218.24,-219.09 204,-210 193.26,-203.15 180.8,-196.03 171.12,-190.69"/>
<polygon fill="#9a32cd" stroke="#9a32cd" points="251.73,-247.65 261.98,-250.32 255.63,-241.84 251.73,-247.65"/>
<text text-anchor="middle" x="248" y="-218.5" font-family="Helvetica,sans-Serif" font-size="10.00"> coloc</text>
</g>
<!-- Node6&#45;&gt;Node7 -->
<g id="edge11" class="edge">
<title>Node6&#45;&gt;Node7</title>
<path fill="none" stroke="#9a32cd" stroke-dasharray="5,2" d="M275,-240.09C275,-201.68 275,-115.89 275,-88.55"/>
<polygon fill="#9a32cd" stroke="#9a32cd" points="271.5,-240.37 275,-250.37 278.5,-240.37 271.5,-240.37"/>
<text text-anchor="middle" x="279.5" y="-184" font-family="Helvetica,sans-Serif" font-size="10.00"> c</text>
<text text-anchor="middle" x="279.5" y="-173" font-family="Helvetica,sans-Serif" font-size="10.00">cf</text>
</g>
<!-- Node7&#45;&gt;Node4 -->
<g id="edge9" class="edge">
<title>Node7&#45;&gt;Node4</title>
<path fill="none" stroke="#9a32cd" stroke-dasharray="5,2" d="M245.46,-93.13C237.47,-97.33 229.08,-102.36 222,-108 201.78,-124.09 201.76,-133.23 184,-152 177.65,-158.71 170.14,-165.95 164.35,-171.38"/>
<polygon fill="#9a32cd" stroke="#9a32cd" points="247.15,-96.19 254.55,-88.61 244.04,-89.93 247.15,-96.19"/>
<text text-anchor="middle" x="241.5" y="-144" font-family="Helvetica,sans-Serif" font-size="10.00"> absol</text>
<text text-anchor="middle" x="241.5" y="-133" font-family="Helvetica,sans-Serif" font-size="10.00">cart</text>
<text text-anchor="middle" x="241.5" y="-122" font-family="Helvetica,sans-Serif" font-size="10.00">cart_surr</text>
<text text-anchor="middle" x="241.5" y="-111" font-family="Helvetica,sans-Serif" font-size="10.00">radius</text>
</g>
<!-- Node7&#45;&gt;Node7 -->
<g id="edge12" class="edge">
<title>Node7&#45;&gt;Node7</title>
<path fill="none" stroke="#9a32cd" stroke-dasharray="5,2" d="M336.82,-82.95C341.57,-82.08 344.5,-80.76 344.5,-79 344.5,-76.18 337,-74.5 326.53,-73.95"/>
<polygon fill="#9a32cd" stroke="#9a32cd" points="336.1,-79.51 326.53,-84.05 336.84,-86.47 336.1,-79.51"/>
<text text-anchor="middle" x="368.5" y="-82" font-family="Helvetica,sans-Serif" font-size="10.00"> p_der_abs</text>
<text text-anchor="middle" x="368.5" y="-71" font-family="Helvetica,sans-Serif" font-size="10.00">p_der_var</text>
</g>
<!-- Node8&#45;&gt;Node7 -->
<g id="edge13" class="edge">
<title>Node8&#45;&gt;Node7</title>
<path fill="none" stroke="#9a32cd" stroke-dasharray="5,2" d="M435.83,-163.31C422.99,-146.87 401.28,-122.23 377,-108 361.63,-98.99 343.27,-92.79 326.38,-88.56"/>
<polygon fill="#9a32cd" stroke="#9a32cd" points="433.19,-165.61 442.01,-171.47 438.77,-161.39 433.19,-165.61"/>
<text text-anchor="middle" x="437" y="-127.5" font-family="Helvetica,sans-Serif" font-size="10.00"> base</text>
</g>
<!-- Node9&#45;&gt;Node8 -->
<g id="edge15" class="edge">
<title>Node9&#45;&gt;Node8</title>
<path fill="none" stroke="#9a32cd" stroke-dasharray="5,2" d="M472.61,-241.22C466.05,-225.44 456.74,-203.04 451.66,-190.81"/>
<polygon fill="#9a32cd" stroke="#9a32cd" points="469.38,-242.57 476.45,-250.47 475.85,-239.89 469.38,-242.57"/>
<text text-anchor="middle" x="490.5" y="-218.5" font-family="Helvetica,sans-Serif" font-size="10.00"> bases_1d</text>
</g>
</g>
</svg>
