<?xml version="1.0" encoding="UTF-8" standalone="no"?>
<!DOCTYPE svg PUBLIC "-//W3C//DTD SVG 1.1//EN"
 "http://www.w3.org/Graphics/SVG/1.1/DTD/svg11.dtd">
<!-- Generated by graphviz version 2.47.1 (20210515.0534)
 -->
<!-- Title: Kadath::FUKA_Solvers::Solver&lt; config_t, space_t &gt; Pages: 1 -->
<svg width="492pt" height="350pt"
 viewBox="0.00 0.00 492.00 350.00" xmlns="http://www.w3.org/2000/svg" xmlns:xlink="http://www.w3.org/1999/xlink">
<g id="graph0" class="graph" transform="scale(1 1) rotate(0) translate(4 346)">
<title>Kadath::FUKA_Solvers::Solver&lt; config_t, space_t &gt;</title>
<!-- Node1 -->
<g id="node1" class="node">
<title>Node1</title>
<g id="a_node1"><a xlink:title="Solver base for FUKA solvers.">
<polygon fill="#bfbfbf" stroke="black" points="0,-156 0,-186 139,-186 139,-156 0,-156"/>
<text text-anchor="start" x="8" y="-174" font-family="Helvetica,sans-Serif" font-size="10.00">Kadath::FUKA_Solvers</text>
<text text-anchor="middle" x="69.5" y="-163" font-family="Helvetica,sans-Serif" font-size="10.00">::Solver&lt; config_t, space_t &gt;</text>
</a>
</g>
</g>
<!-- Node2 -->
<g id="node2" class="node">
<title>Node2</title>
<g id="a_node2"><a xlink:href="classKadath_1_1FUKA__Solvers_1_1XCTS__Solver.html" target="_top" xlink:title=" ">
<polygon fill="none" stroke="black" points="179,-300.5 179,-341.5 314,-341.5 314,-300.5 179,-300.5"/>
<text text-anchor="start" x="187" y="-329.5" font-family="Helvetica,sans-Serif" font-size="10.00">Kadath::FUKA_Solvers</text>
<text text-anchor="start" x="187" y="-318.5" font-family="Helvetica,sans-Serif" font-size="10.00">::XCTS_Solver&lt; config</text>
<text text-anchor="middle" x="246.5" y="-307.5" font-family="Helvetica,sans-Serif" font-size="10.00">_t, Kadath::Space_bin_ns &gt;</text>
</a>
</g>
</g>
<!-- Node1&#45;&gt;Node2 -->
<g id="edge1" class="edge">
<title>Node1&#45;&gt;Node2</title>
<path fill="none" stroke="midnightblue" d="M86.04,-194.54C104.53,-221.02 137.65,-263.86 175,-291 179.73,-294.44 184.92,-297.58 190.27,-300.43"/>
<polygon fill="midnightblue" stroke="midnightblue" points="88.88,-192.5 80.34,-186.24 83.11,-196.46 88.88,-192.5"/>
</g>
<!-- Node4 -->
<g id="node4" class="node">
<title>Node4</title>
<g id="a_node4"><a xlink:href="classKadath_1_1FUKA__Solvers_1_1XCTS__Solver.html" target="_top" xlink:title=" ">
<polygon fill="none" stroke="black" points="179,-240.5 179,-281.5 314,-281.5 314,-240.5 179,-240.5"/>
<text text-anchor="start" x="187" y="-269.5" font-family="Helvetica,sans-Serif" font-size="10.00">Kadath::FUKA_Solvers</text>
<text text-anchor="start" x="187" y="-258.5" font-family="Helvetica,sans-Serif" font-size="10.00">::XCTS_Solver&lt; config</text>
<text text-anchor="middle" x="246.5" y="-247.5" font-family="Helvetica,sans-Serif" font-size="10.00">_t, Kadath::Space_bin_bh &gt;</text>
</a>
</g>
</g>
<!-- Node1&#45;&gt;Node4 -->
<g id="edge3" class="edge">
<title>Node1&#45;&gt;Node4</title>
<path fill="none" stroke="midnightblue" d="M103.79,-191.47C124.05,-203.58 150.64,-218.88 175,-231 181.43,-234.2 188.29,-237.39 195.1,-240.42"/>
<polygon fill="midnightblue" stroke="midnightblue" points="105.33,-188.31 94.96,-186.15 101.72,-194.31 105.33,-188.31"/>
</g>
<!-- Node6 -->
<g id="node6" class="node">
<title>Node6</title>
<g id="a_node6"><a xlink:href="classKadath_1_1FUKA__Solvers_1_1XCTS__Solver.html" target="_top" xlink:title=" ">
<polygon fill="none" stroke="black" points="175,-180.5 175,-221.5 318,-221.5 318,-180.5 175,-180.5"/>
<text text-anchor="start" x="183" y="-209.5" font-family="Helvetica,sans-Serif" font-size="10.00">Kadath::FUKA_Solvers</text>
<text text-anchor="start" x="183" y="-198.5" font-family="Helvetica,sans-Serif" font-size="10.00">::XCTS_Solver&lt; config</text>
<text text-anchor="middle" x="246.5" y="-187.5" font-family="Helvetica,sans-Serif" font-size="10.00">_t, Space_spheric_adapted &gt;</text>
</a>
</g>
</g>
<!-- Node1&#45;&gt;Node6 -->
<g id="edge5" class="edge">
<title>Node1&#45;&gt;Node6</title>
<path fill="none" stroke="midnightblue" d="M149.11,-184.48C157.65,-185.94 166.3,-187.42 174.73,-188.87"/>
<polygon fill="midnightblue" stroke="midnightblue" points="149.61,-181.01 139.16,-182.77 148.43,-187.91 149.61,-181.01"/>
</g>
<!-- Node8 -->
<g id="node8" class="node">
<title>Node8</title>
<g id="a_node8"><a xlink:href="classKadath_1_1FUKA__Solvers_1_1XCTS__Solver.html" target="_top" xlink:title=" ">
<polygon fill="none" stroke="black" points="182.5,-120.5 182.5,-161.5 310.5,-161.5 310.5,-120.5 182.5,-120.5"/>
<text text-anchor="start" x="190.5" y="-149.5" font-family="Helvetica,sans-Serif" font-size="10.00">Kadath::FUKA_Solvers</text>
<text text-anchor="start" x="190.5" y="-138.5" font-family="Helvetica,sans-Serif" font-size="10.00">::XCTS_Solver&lt; config</text>
<text text-anchor="middle" x="246.5" y="-127.5" font-family="Helvetica,sans-Serif" font-size="10.00">_t, Kadath::Space_bhns &gt;</text>
</a>
</g>
</g>
<!-- Node1&#45;&gt;Node8 -->
<g id="edge7" class="edge">
<title>Node1&#45;&gt;Node8</title>
<path fill="none" stroke="midnightblue" d="M149.29,-157.49C160.4,-155.59 171.69,-153.65 182.45,-151.81"/>
<polygon fill="midnightblue" stroke="midnightblue" points="148.43,-154.09 139.16,-159.23 149.61,-160.99 148.43,-154.09"/>
</g>
<!-- Node10 -->
<g id="node10" class="node">
<title>Node10</title>
<g id="a_node10"><a xlink:href="classKadath_1_1FUKA__Solvers_1_1XCTS__Solver.html" target="_top" xlink:title=" ">
<polygon fill="none" stroke="black" points="185.5,-60.5 185.5,-101.5 307.5,-101.5 307.5,-60.5 185.5,-60.5"/>
<text text-anchor="start" x="193.5" y="-89.5" font-family="Helvetica,sans-Serif" font-size="10.00">Kadath::FUKA_Solvers</text>
<text text-anchor="start" x="193.5" y="-78.5" font-family="Helvetica,sans-Serif" font-size="10.00">::XCTS_Solver&lt; config</text>
<text text-anchor="middle" x="246.5" y="-67.5" font-family="Helvetica,sans-Serif" font-size="10.00">_t, Space_adapted_bh &gt;</text>
</a>
</g>
</g>
<!-- Node1&#45;&gt;Node10 -->
<g id="edge9" class="edge">
<title>Node1&#45;&gt;Node10</title>
<path fill="none" stroke="midnightblue" d="M103.79,-150.53C124.05,-138.42 150.64,-123.12 175,-111 181.43,-107.8 188.29,-104.61 195.1,-101.58"/>
<polygon fill="midnightblue" stroke="midnightblue" points="101.72,-147.69 94.96,-155.85 105.33,-153.69 101.72,-147.69"/>
</g>
<!-- Node12 -->
<g id="node12" class="node">
<title>Node12</title>
<g id="a_node12"><a xlink:href="classKadath_1_1FUKA__Solvers_1_1XCTS__Solver.html" target="_top" xlink:title="Solver base for FUKA solvers.">
<polygon fill="none" stroke="black" points="188,-0.5 188,-41.5 305,-41.5 305,-0.5 188,-0.5"/>
<text text-anchor="start" x="196" y="-29.5" font-family="Helvetica,sans-Serif" font-size="10.00">Kadath::FUKA_Solvers</text>
<text text-anchor="start" x="196" y="-18.5" font-family="Helvetica,sans-Serif" font-size="10.00">::XCTS_Solver&lt; config</text>
<text text-anchor="middle" x="246.5" y="-7.5" font-family="Helvetica,sans-Serif" font-size="10.00">_t, space_t &gt;</text>
</a>
</g>
</g>
<!-- Node1&#45;&gt;Node12 -->
<g id="edge11" class="edge">
<title>Node1&#45;&gt;Node12</title>
<path fill="none" stroke="midnightblue" d="M86.04,-147.46C104.53,-120.98 137.65,-78.14 175,-51 179.73,-47.56 184.92,-44.42 190.27,-41.57"/>
<polygon fill="midnightblue" stroke="midnightblue" points="83.11,-145.54 80.34,-155.76 88.88,-149.5 83.11,-145.54"/>
</g>
<!-- Node3 -->
<g id="node3" class="node">
<title>Node3</title>
<g id="a_node3"><a xlink:href="classKadath_1_1FUKA__Solvers_1_1bns__xcts__solver.html" target="_top" xlink:title=" ">
<polygon fill="none" stroke="black" points="360.5,-300.5 360.5,-341.5 477.5,-341.5 477.5,-300.5 360.5,-300.5"/>
<text text-anchor="start" x="368.5" y="-329.5" font-family="Helvetica,sans-Serif" font-size="10.00">Kadath::FUKA_Solvers</text>
<text text-anchor="start" x="368.5" y="-318.5" font-family="Helvetica,sans-Serif" font-size="10.00">::bns_xcts_solver&lt; eos</text>
<text text-anchor="middle" x="419" y="-307.5" font-family="Helvetica,sans-Serif" font-size="10.00">_t, config_t, space_t &gt;</text>
</a>
</g>
</g>
<!-- Node2&#45;&gt;Node3 -->
<g id="edge2" class="edge">
<title>Node2&#45;&gt;Node3</title>
<path fill="none" stroke="#8b1a1a" d="M324.47,-321C336.56,-321 348.86,-321 360.41,-321"/>
<polygon fill="#8b1a1a" stroke="#8b1a1a" points="324.4,-317.5 314.4,-321 324.4,-324.5 324.4,-317.5"/>
</g>
<!-- Node5 -->
<g id="node5" class="node">
<title>Node5</title>
<g id="a_node5"><a xlink:href="classKadath_1_1FUKA__Solvers_1_1bbh__xcts__solver.html" target="_top" xlink:title=" ">
<polygon fill="none" stroke="black" points="356.5,-240.5 356.5,-281.5 481.5,-281.5 481.5,-240.5 356.5,-240.5"/>
<text text-anchor="start" x="364.5" y="-269.5" font-family="Helvetica,sans-Serif" font-size="10.00">Kadath::FUKA_Solvers</text>
<text text-anchor="start" x="364.5" y="-258.5" font-family="Helvetica,sans-Serif" font-size="10.00">::bbh_xcts_solver&lt; config</text>
<text text-anchor="middle" x="419" y="-247.5" font-family="Helvetica,sans-Serif" font-size="10.00">_t, space_t &gt;</text>
</a>
</g>
</g>
<!-- Node4&#45;&gt;Node5 -->
<g id="edge4" class="edge">
<title>Node4&#45;&gt;Node5</title>
<path fill="none" stroke="#8b1a1a" d="M324.53,-261C335.17,-261 345.98,-261 356.3,-261"/>
<polygon fill="#8b1a1a" stroke="#8b1a1a" points="324.4,-257.5 314.4,-261 324.4,-264.5 324.4,-257.5"/>
</g>
<!-- Node7 -->
<g id="node7" class="node">
<title>Node7</title>
<g id="a_node7"><a xlink:href="classKadath_1_1FUKA__Solvers_1_1ns__3d__xcts__solver.html" target="_top" xlink:title=" ">
<polygon fill="none" stroke="black" points="354,-180.5 354,-221.5 484,-221.5 484,-180.5 354,-180.5"/>
<text text-anchor="start" x="362" y="-209.5" font-family="Helvetica,sans-Serif" font-size="10.00">Kadath::FUKA_Solvers</text>
<text text-anchor="start" x="362" y="-198.5" font-family="Helvetica,sans-Serif" font-size="10.00">::ns_3d_xcts_solver&lt;</text>
<text text-anchor="middle" x="419" y="-187.5" font-family="Helvetica,sans-Serif" font-size="10.00"> eos_t, config_t, space_t &gt;</text>
</a>
</g>
</g>
<!-- Node6&#45;&gt;Node7 -->
<g id="edge6" class="edge">
<title>Node6&#45;&gt;Node7</title>
<path fill="none" stroke="midnightblue" d="M328.35,-201C336.94,-201 345.58,-201 353.93,-201"/>
<polygon fill="midnightblue" stroke="midnightblue" points="328.33,-197.5 318.33,-201 328.33,-204.5 328.33,-197.5"/>
</g>
<!-- Node9 -->
<g id="node9" class="node">
<title>Node9</title>
<g id="a_node9"><a xlink:href="classKadath_1_1FUKA__Solvers_1_1bhns__xcts__solver.html" target="_top" xlink:title=" ">
<polygon fill="none" stroke="black" points="358.5,-120.5 358.5,-161.5 479.5,-161.5 479.5,-120.5 358.5,-120.5"/>
<text text-anchor="start" x="366.5" y="-149.5" font-family="Helvetica,sans-Serif" font-size="10.00">Kadath::FUKA_Solvers</text>
<text text-anchor="start" x="366.5" y="-138.5" font-family="Helvetica,sans-Serif" font-size="10.00">::bhns_xcts_solver&lt; eos</text>
<text text-anchor="middle" x="419" y="-127.5" font-family="Helvetica,sans-Serif" font-size="10.00">_t, config_t, space_t &gt;</text>
</a>
</g>
</g>
<!-- Node8&#45;&gt;Node9 -->
<g id="edge8" class="edge">
<title>Node8&#45;&gt;Node9</title>
<path fill="none" stroke="#8b1a1a" d="M320.53,-141C333.16,-141 346.15,-141 358.37,-141"/>
<polygon fill="#8b1a1a" stroke="#8b1a1a" points="320.5,-137.5 310.5,-141 320.5,-144.5 320.5,-137.5"/>
</g>
<!-- Node11 -->
<g id="node11" class="node">
<title>Node11</title>
<g id="a_node11"><a xlink:href="classKadath_1_1FUKA__Solvers_1_1bh__3d__xcts__solver.html" target="_top" xlink:title=" ">
<polygon fill="none" stroke="black" points="360.5,-60.5 360.5,-101.5 477.5,-101.5 477.5,-60.5 360.5,-60.5"/>
<text text-anchor="start" x="368.5" y="-89.5" font-family="Helvetica,sans-Serif" font-size="10.00">Kadath::FUKA_Solvers</text>
<text text-anchor="start" x="368.5" y="-78.5" font-family="Helvetica,sans-Serif" font-size="10.00">::bh_3d_xcts_solver&lt;</text>
<text text-anchor="middle" x="419" y="-67.5" font-family="Helvetica,sans-Serif" font-size="10.00"> config_t, space_t &gt;</text>
</a>
</g>
</g>
<!-- Node10&#45;&gt;Node11 -->
<g id="edge10" class="edge">
<title>Node10&#45;&gt;Node11</title>
<path fill="none" stroke="midnightblue" d="M317.81,-81C332,-81 346.75,-81 360.43,-81"/>
<polygon fill="midnightblue" stroke="midnightblue" points="317.61,-77.5 307.61,-81 317.61,-84.5 317.61,-77.5"/>
</g>
</g>
</svg>
