<?xml version="1.0" encoding="UTF-8" standalone="no"?>
<!DOCTYPE svg PUBLIC "-//W3C//DTD SVG 1.1//EN"
 "http://www.w3.org/Graphics/SVG/1.1/DTD/svg11.dtd">
<!-- Generated by graphviz version 2.47.1 (20210515.0534)
 -->
<!-- Title: Kadath::Space_polar_periodic Pages: 1 -->
<svg width="534pt" height="335pt"
 viewBox="0.00 0.00 533.50 335.00" xmlns="http://www.w3.org/2000/svg" xmlns:xlink="http://www.w3.org/1999/xlink">
<g id="graph0" class="graph" transform="scale(1 1) rotate(0) translate(4 331)">
<title>Kadath::Space_polar_periodic</title>
<!-- Node1 -->
<g id="node1" class="node">
<title>Node1</title>
<g id="a_node1"><a xlink:title=" ">
<polygon fill="#bfbfbf" stroke="black" points="0,-0.5 0,-30.5 106,-30.5 106,-0.5 0,-0.5"/>
<text text-anchor="start" x="8" y="-18.5" font-family="Helvetica,sans-Serif" font-size="10.00">Kadath::Space_polar</text>
<text text-anchor="middle" x="53" y="-7.5" font-family="Helvetica,sans-Serif" font-size="10.00">_periodic</text>
</a>
</g>
</g>
<!-- Node2 -->
<g id="node2" class="node">
<title>Node2</title>
<g id="a_node2"><a xlink:href="classKadath_1_1Space.html" target="_top" xlink:title=" ">
<polygon fill="none" stroke="black" points="13,-69.5 13,-88.5 93,-88.5 93,-69.5 13,-69.5"/>
<text text-anchor="middle" x="53" y="-76.5" font-family="Helvetica,sans-Serif" font-size="10.00">Kadath::Space</text>
</a>
</g>
</g>
<!-- Node2&#45;&gt;Node1 -->
<g id="edge1" class="edge">
<title>Node2&#45;&gt;Node1</title>
<path fill="none" stroke="midnightblue" d="M53,-59.33C53,-50.11 53,-39.17 53,-30.65"/>
<polygon fill="midnightblue" stroke="midnightblue" points="49.5,-59.45 53,-69.45 56.5,-59.45 49.5,-59.45"/>
</g>
<!-- Node3 -->
<g id="node3" class="node">
<title>Node3</title>
<g id="a_node3"><a xlink:href="structKadath_1_1MemoryMappable.html" target="_top" xlink:title=" ">
<polygon fill="none" stroke="black" points="206,-307.5 206,-326.5 334,-326.5 334,-307.5 206,-307.5"/>
<text text-anchor="middle" x="270" y="-314.5" font-family="Helvetica,sans-Serif" font-size="10.00">Kadath::MemoryMappable</text>
</a>
</g>
</g>
<!-- Node3&#45;&gt;Node2 -->
<g id="edge2" class="edge">
<title>Node3&#45;&gt;Node2</title>
<path fill="none" stroke="midnightblue" d="M195.67,-307.96C148.2,-301.06 93.02,-289.14 79,-270 36.7,-212.25 47.11,-117.49 51.53,-88.62"/>
<polygon fill="midnightblue" stroke="midnightblue" points="195.27,-311.44 205.66,-309.35 196.24,-304.5 195.27,-311.44"/>
</g>
<!-- Node4 -->
<g id="node4" class="node">
<title>Node4</title>
<g id="a_node4"><a xlink:href="classKadath_1_1Domain.html" target="_top" xlink:title=" ">
<polygon fill="none" stroke="black" points="107.5,-171.5 107.5,-190.5 192.5,-190.5 192.5,-171.5 107.5,-171.5"/>
<text text-anchor="middle" x="150" y="-178.5" font-family="Helvetica,sans-Serif" font-size="10.00">Kadath::Domain</text>
</a>
</g>
</g>
<!-- Node3&#45;&gt;Node4 -->
<g id="edge4" class="edge">
<title>Node3&#45;&gt;Node4</title>
<path fill="none" stroke="midnightblue" d="M195.78,-306.56C151.59,-299.25 101.54,-287.39 88,-270 66.07,-241.84 111.38,-206.71 135.8,-190.69"/>
<polygon fill="midnightblue" stroke="midnightblue" points="195.26,-310.02 205.69,-308.14 196.37,-303.11 195.26,-310.02"/>
</g>
<!-- Node5 -->
<g id="node5" class="node">
<title>Node5</title>
<g id="a_node5"><a xlink:href="classKadath_1_1Dim__array.html" target="_top" xlink:title=" ">
<polygon fill="none" stroke="black" points="97.5,-250.5 97.5,-269.5 192.5,-269.5 192.5,-250.5 97.5,-250.5"/>
<text text-anchor="middle" x="145" y="-257.5" font-family="Helvetica,sans-Serif" font-size="10.00">Kadath::Dim_array</text>
</a>
</g>
</g>
<!-- Node3&#45;&gt;Node5 -->
<g id="edge6" class="edge">
<title>Node3&#45;&gt;Node5</title>
<path fill="none" stroke="midnightblue" d="M241.3,-303.37C217.73,-293 184.98,-278.59 164.39,-269.53"/>
<polygon fill="midnightblue" stroke="midnightblue" points="239.91,-306.58 250.47,-307.41 242.73,-300.18 239.91,-306.58"/>
</g>
<!-- Node6 -->
<g id="node6" class="node">
<title>Node6</title>
<g id="a_node6"><a xlink:href="classKadath_1_1Array.html" target="_top" xlink:title=" ">
<polygon fill="none" stroke="black" points="210.5,-250.5 210.5,-269.5 329.5,-269.5 329.5,-250.5 210.5,-250.5"/>
<text text-anchor="middle" x="270" y="-257.5" font-family="Helvetica,sans-Serif" font-size="10.00">Kadath::Array&lt; double &gt;</text>
</a>
</g>
</g>
<!-- Node3&#45;&gt;Node6 -->
<g id="edge8" class="edge">
<title>Node3&#45;&gt;Node6</title>
<path fill="none" stroke="midnightblue" d="M270,-297.12C270,-287.82 270,-277.06 270,-269.71"/>
<polygon fill="midnightblue" stroke="midnightblue" points="266.5,-297.41 270,-307.41 273.5,-297.41 266.5,-297.41"/>
</g>
<!-- Node7 -->
<g id="node7" class="node">
<title>Node7</title>
<g id="a_node7"><a xlink:href="classKadath_1_1Val__domain.html" target="_top" xlink:title=" ">
<polygon fill="none" stroke="black" points="218.5,-69.5 218.5,-88.5 321.5,-88.5 321.5,-69.5 218.5,-69.5"/>
<text text-anchor="middle" x="270" y="-76.5" font-family="Helvetica,sans-Serif" font-size="10.00">Kadath::Val_domain</text>
</a>
</g>
</g>
<!-- Node3&#45;&gt;Node7 -->
<g id="edge10" class="edge">
<title>Node3&#45;&gt;Node7</title>
<path fill="none" stroke="midnightblue" d="M302.49,-302.87C316.37,-295.43 331.16,-284.65 339,-270 343.19,-262.16 340.63,-258.74 339,-250 326.83,-184.87 288.88,-113.35 275.08,-88.82"/>
<polygon fill="midnightblue" stroke="midnightblue" points="300.55,-299.92 293.12,-307.48 303.64,-306.2 300.55,-299.92"/>
</g>
<!-- Node8 -->
<g id="node8" class="node">
<title>Node8</title>
<g id="a_node8"><a xlink:href="classKadath_1_1Base__spectral.html" target="_top" xlink:title=" ">
<polygon fill="none" stroke="black" points="386,-171.5 386,-190.5 500,-190.5 500,-171.5 386,-171.5"/>
<text text-anchor="middle" x="443" y="-178.5" font-family="Helvetica,sans-Serif" font-size="10.00">Kadath::Base_spectral</text>
</a>
</g>
</g>
<!-- Node3&#45;&gt;Node8 -->
<g id="edge14" class="edge">
<title>Node3&#45;&gt;Node8</title>
<path fill="none" stroke="midnightblue" d="M340.91,-304.43C351.94,-300.65 362.73,-295.64 372,-289 408.6,-262.77 431.65,-211.31 439.74,-190.77"/>
<polygon fill="midnightblue" stroke="midnightblue" points="339.7,-301.14 331.19,-307.44 341.77,-307.83 339.7,-301.14"/>
</g>
<!-- Node9 -->
<g id="node9" class="node">
<title>Node9</title>
<g id="a_node9"><a xlink:href="classKadath_1_1Array.html" target="_top" xlink:title=" ">
<polygon fill="none" stroke="black" points="424.5,-250.5 424.5,-269.5 525.5,-269.5 525.5,-250.5 424.5,-250.5"/>
<text text-anchor="middle" x="475" y="-257.5" font-family="Helvetica,sans-Serif" font-size="10.00">Kadath::Array&lt; int &gt;</text>
</a>
</g>
</g>
<!-- Node3&#45;&gt;Node9 -->
<g id="edge16" class="edge">
<title>Node3&#45;&gt;Node9</title>
<path fill="none" stroke="midnightblue" d="M339.22,-305.71C362.02,-301.52 387.33,-295.98 410,-289 426.79,-283.83 445.11,-275.7 458,-269.53"/>
<polygon fill="midnightblue" stroke="midnightblue" points="338.5,-302.28 329.28,-307.49 339.73,-309.18 338.5,-302.28"/>
</g>
<!-- Node4&#45;&gt;Node2 -->
<g id="edge3" class="edge">
<title>Node4&#45;&gt;Node2</title>
<path fill="none" stroke="#9a32cd" stroke-dasharray="5,2" d="M112.83,-167.3C104.65,-163.31 96.5,-158.26 90,-152 70.97,-133.68 59.93,-103.44 55.42,-88.66"/>
<polygon fill="#9a32cd" stroke="#9a32cd" points="111.43,-170.51 121.99,-171.38 114.28,-164.12 111.43,-170.51"/>
<text text-anchor="middle" x="110" y="-127.5" font-family="Helvetica,sans-Serif" font-size="10.00"> domains</text>
</g>
<!-- Node4&#45;&gt;Node7 -->
<g id="edge17" class="edge">
<title>Node4&#45;&gt;Node7</title>
<path fill="none" stroke="#9a32cd" stroke-dasharray="5,2" d="M144.83,-161.54C141.57,-145.59 139.95,-122.82 152,-108 160.6,-97.42 190.7,-90.38 218.34,-86.01"/>
<polygon fill="#9a32cd" stroke="#9a32cd" points="141.45,-162.43 147.21,-171.32 148.25,-160.78 141.45,-162.43"/>
<text text-anchor="middle" x="163.5" y="-127.5" font-family="Helvetica,sans-Serif" font-size="10.00"> zone</text>
</g>
<!-- Node5&#45;&gt;Node4 -->
<g id="edge5" class="edge">
<title>Node5&#45;&gt;Node4</title>
<path fill="none" stroke="#9a32cd" stroke-dasharray="5,2" d="M146.21,-240.31C147.23,-224.59 148.65,-202.81 149.43,-190.81"/>
<polygon fill="#9a32cd" stroke="#9a32cd" points="142.71,-240.26 145.55,-250.47 149.69,-240.71 142.71,-240.26"/>
<text text-anchor="middle" x="172" y="-224" font-family="Helvetica,sans-Serif" font-size="10.00"> nbr_coefs</text>
<text text-anchor="middle" x="172" y="-213" font-family="Helvetica,sans-Serif" font-size="10.00">nbr_points</text>
</g>
<!-- Node6&#45;&gt;Node4 -->
<g id="edge7" class="edge">
<title>Node6&#45;&gt;Node4</title>
<path fill="none" stroke="#9a32cd" stroke-dasharray="5,2" d="M248.63,-244.71C242.58,-240.63 236.02,-236.17 230,-232 216.11,-222.38 213.24,-219.09 199,-210 188.26,-203.15 175.8,-196.03 166.12,-190.69"/>
<polygon fill="#9a32cd" stroke="#9a32cd" points="246.73,-247.65 256.98,-250.32 250.63,-241.84 246.73,-247.65"/>
<text text-anchor="middle" x="243" y="-218.5" font-family="Helvetica,sans-Serif" font-size="10.00"> coloc</text>
</g>
<!-- Node6&#45;&gt;Node7 -->
<g id="edge11" class="edge">
<title>Node6&#45;&gt;Node7</title>
<path fill="none" stroke="#9a32cd" stroke-dasharray="5,2" d="M270,-240.09C270,-201.68 270,-115.89 270,-88.55"/>
<polygon fill="#9a32cd" stroke="#9a32cd" points="266.5,-240.37 270,-250.37 273.5,-240.37 266.5,-240.37"/>
<text text-anchor="middle" x="274.5" y="-184" font-family="Helvetica,sans-Serif" font-size="10.00"> c</text>
<text text-anchor="middle" x="274.5" y="-173" font-family="Helvetica,sans-Serif" font-size="10.00">cf</text>
</g>
<!-- Node7&#45;&gt;Node4 -->
<g id="edge9" class="edge">
<title>Node7&#45;&gt;Node4</title>
<path fill="none" stroke="#9a32cd" stroke-dasharray="5,2" d="M240.46,-93.13C232.47,-97.33 224.08,-102.36 217,-108 196.78,-124.09 196.76,-133.23 179,-152 172.65,-158.71 165.14,-165.95 159.35,-171.38"/>
<polygon fill="#9a32cd" stroke="#9a32cd" points="242.15,-96.19 249.55,-88.61 239.04,-89.93 242.15,-96.19"/>
<text text-anchor="middle" x="236.5" y="-144" font-family="Helvetica,sans-Serif" font-size="10.00"> absol</text>
<text text-anchor="middle" x="236.5" y="-133" font-family="Helvetica,sans-Serif" font-size="10.00">cart</text>
<text text-anchor="middle" x="236.5" y="-122" font-family="Helvetica,sans-Serif" font-size="10.00">cart_surr</text>
<text text-anchor="middle" x="236.5" y="-111" font-family="Helvetica,sans-Serif" font-size="10.00">radius</text>
</g>
<!-- Node7&#45;&gt;Node7 -->
<g id="edge12" class="edge">
<title>Node7&#45;&gt;Node7</title>
<path fill="none" stroke="#9a32cd" stroke-dasharray="5,2" d="M331.82,-82.95C336.57,-82.08 339.5,-80.76 339.5,-79 339.5,-76.18 332,-74.5 321.53,-73.95"/>
<polygon fill="#9a32cd" stroke="#9a32cd" points="331.1,-79.51 321.53,-84.05 331.84,-86.47 331.1,-79.51"/>
<text text-anchor="middle" x="363.5" y="-82" font-family="Helvetica,sans-Serif" font-size="10.00"> p_der_abs</text>
<text text-anchor="middle" x="363.5" y="-71" font-family="Helvetica,sans-Serif" font-size="10.00">p_der_var</text>
</g>
<!-- Node8&#45;&gt;Node7 -->
<g id="edge13" class="edge">
<title>Node8&#45;&gt;Node7</title>
<path fill="none" stroke="#9a32cd" stroke-dasharray="5,2" d="M430.83,-163.31C417.99,-146.87 396.28,-122.23 372,-108 356.63,-98.99 338.27,-92.79 321.38,-88.56"/>
<polygon fill="#9a32cd" stroke="#9a32cd" points="428.19,-165.61 437.01,-171.47 433.77,-161.39 428.19,-165.61"/>
<text text-anchor="middle" x="432" y="-127.5" font-family="Helvetica,sans-Serif" font-size="10.00"> base</text>
</g>
<!-- Node9&#45;&gt;Node8 -->
<g id="edge15" class="edge">
<title>Node9&#45;&gt;Node8</title>
<path fill="none" stroke="#9a32cd" stroke-dasharray="5,2" d="M467.61,-241.22C461.05,-225.44 451.74,-203.04 446.66,-190.81"/>
<polygon fill="#9a32cd" stroke="#9a32cd" points="464.38,-242.57 471.45,-250.47 470.85,-239.89 464.38,-242.57"/>
<text text-anchor="middle" x="485.5" y="-218.5" font-family="Helvetica,sans-Serif" font-size="10.00"> bases_1d</text>
</g>
</g>
</svg>
