<?xml version="1.0" encoding="UTF-8" standalone="no"?>
<!DOCTYPE svg PUBLIC "-//W3C//DTD SVG 1.1//EN"
 "http://www.w3.org/Graphics/SVG/1.1/DTD/svg11.dtd">
<!-- Generated by graphviz version 2.47.1 (20210515.0534)
 -->
<!-- Title: Kadath::Space_bin_bh Pages: 1 -->
<svg width="537pt" height="324pt"
 viewBox="0.00 0.00 537.00 324.00" xmlns="http://www.w3.org/2000/svg" xmlns:xlink="http://www.w3.org/1999/xlink">
<g id="graph0" class="graph" transform="scale(1 1) rotate(0) translate(4 320)">
<title>Kadath::Space_bin_bh</title>
<!-- Node1 -->
<g id="node1" class="node">
<title>Node1</title>
<g id="a_node1"><a xlink:title=" ">
<polygon fill="#bfbfbf" stroke="black" points="0,-0.5 0,-19.5 113,-19.5 113,-0.5 0,-0.5"/>
<text text-anchor="middle" x="56.5" y="-7.5" font-family="Helvetica,sans-Serif" font-size="10.00">Kadath::Space_bin_bh</text>
</a>
</g>
</g>
<!-- Node2 -->
<g id="node2" class="node">
<title>Node2</title>
<g id="a_node2"><a xlink:href="classKadath_1_1Space.html" target="_top" xlink:title=" ">
<polygon fill="none" stroke="black" points="16.5,-58.5 16.5,-77.5 96.5,-77.5 96.5,-58.5 16.5,-58.5"/>
<text text-anchor="middle" x="56.5" y="-65.5" font-family="Helvetica,sans-Serif" font-size="10.00">Kadath::Space</text>
</a>
</g>
</g>
<!-- Node2&#45;&gt;Node1 -->
<g id="edge1" class="edge">
<title>Node2&#45;&gt;Node1</title>
<path fill="none" stroke="midnightblue" d="M56.5,-47.95C56.5,-38.29 56.5,-27.03 56.5,-19.51"/>
<polygon fill="midnightblue" stroke="midnightblue" points="53,-48.25 56.5,-58.25 60,-48.25 53,-48.25"/>
</g>
<!-- Node3 -->
<g id="node3" class="node">
<title>Node3</title>
<g id="a_node3"><a xlink:href="structKadath_1_1MemoryMappable.html" target="_top" xlink:title=" ">
<polygon fill="none" stroke="black" points="209.5,-296.5 209.5,-315.5 337.5,-315.5 337.5,-296.5 209.5,-296.5"/>
<text text-anchor="middle" x="273.5" y="-303.5" font-family="Helvetica,sans-Serif" font-size="10.00">Kadath::MemoryMappable</text>
</a>
</g>
</g>
<!-- Node3&#45;&gt;Node2 -->
<g id="edge2" class="edge">
<title>Node3&#45;&gt;Node2</title>
<path fill="none" stroke="midnightblue" d="M199.17,-296.96C151.7,-290.06 96.52,-278.14 82.5,-259 40.2,-201.25 50.61,-106.49 55.03,-77.62"/>
<polygon fill="midnightblue" stroke="midnightblue" points="198.77,-300.44 209.16,-298.35 199.74,-293.5 198.77,-300.44"/>
</g>
<!-- Node4 -->
<g id="node4" class="node">
<title>Node4</title>
<g id="a_node4"><a xlink:href="classKadath_1_1Domain.html" target="_top" xlink:title=" ">
<polygon fill="none" stroke="black" points="111,-160.5 111,-179.5 196,-179.5 196,-160.5 111,-160.5"/>
<text text-anchor="middle" x="153.5" y="-167.5" font-family="Helvetica,sans-Serif" font-size="10.00">Kadath::Domain</text>
</a>
</g>
</g>
<!-- Node3&#45;&gt;Node4 -->
<g id="edge4" class="edge">
<title>Node3&#45;&gt;Node4</title>
<path fill="none" stroke="midnightblue" d="M199.28,-295.56C155.09,-288.25 105.04,-276.39 91.5,-259 69.57,-230.84 114.88,-195.71 139.3,-179.69"/>
<polygon fill="midnightblue" stroke="midnightblue" points="198.76,-299.02 209.19,-297.14 199.87,-292.11 198.76,-299.02"/>
</g>
<!-- Node5 -->
<g id="node5" class="node">
<title>Node5</title>
<g id="a_node5"><a xlink:href="classKadath_1_1Dim__array.html" target="_top" xlink:title=" ">
<polygon fill="none" stroke="black" points="101,-239.5 101,-258.5 196,-258.5 196,-239.5 101,-239.5"/>
<text text-anchor="middle" x="148.5" y="-246.5" font-family="Helvetica,sans-Serif" font-size="10.00">Kadath::Dim_array</text>
</a>
</g>
</g>
<!-- Node3&#45;&gt;Node5 -->
<g id="edge6" class="edge">
<title>Node3&#45;&gt;Node5</title>
<path fill="none" stroke="midnightblue" d="M244.8,-292.37C221.23,-282 188.48,-267.59 167.89,-258.53"/>
<polygon fill="midnightblue" stroke="midnightblue" points="243.41,-295.58 253.97,-296.41 246.23,-289.18 243.41,-295.58"/>
</g>
<!-- Node6 -->
<g id="node6" class="node">
<title>Node6</title>
<g id="a_node6"><a xlink:href="classKadath_1_1Array.html" target="_top" xlink:title=" ">
<polygon fill="none" stroke="black" points="214,-239.5 214,-258.5 333,-258.5 333,-239.5 214,-239.5"/>
<text text-anchor="middle" x="273.5" y="-246.5" font-family="Helvetica,sans-Serif" font-size="10.00">Kadath::Array&lt; double &gt;</text>
</a>
</g>
</g>
<!-- Node3&#45;&gt;Node6 -->
<g id="edge8" class="edge">
<title>Node3&#45;&gt;Node6</title>
<path fill="none" stroke="midnightblue" d="M273.5,-286.12C273.5,-276.82 273.5,-266.06 273.5,-258.71"/>
<polygon fill="midnightblue" stroke="midnightblue" points="270,-286.41 273.5,-296.41 277,-286.41 270,-286.41"/>
</g>
<!-- Node7 -->
<g id="node7" class="node">
<title>Node7</title>
<g id="a_node7"><a xlink:href="classKadath_1_1Val__domain.html" target="_top" xlink:title=" ">
<polygon fill="none" stroke="black" points="222,-58.5 222,-77.5 325,-77.5 325,-58.5 222,-58.5"/>
<text text-anchor="middle" x="273.5" y="-65.5" font-family="Helvetica,sans-Serif" font-size="10.00">Kadath::Val_domain</text>
</a>
</g>
</g>
<!-- Node3&#45;&gt;Node7 -->
<g id="edge10" class="edge">
<title>Node3&#45;&gt;Node7</title>
<path fill="none" stroke="midnightblue" d="M305.99,-291.87C319.87,-284.43 334.66,-273.65 342.5,-259 346.69,-251.16 344.13,-247.74 342.5,-239 330.33,-173.87 292.38,-102.35 278.58,-77.82"/>
<polygon fill="midnightblue" stroke="midnightblue" points="304.05,-288.92 296.62,-296.48 307.14,-295.2 304.05,-288.92"/>
</g>
<!-- Node8 -->
<g id="node8" class="node">
<title>Node8</title>
<g id="a_node8"><a xlink:href="classKadath_1_1Base__spectral.html" target="_top" xlink:title=" ">
<polygon fill="none" stroke="black" points="389.5,-160.5 389.5,-179.5 503.5,-179.5 503.5,-160.5 389.5,-160.5"/>
<text text-anchor="middle" x="446.5" y="-167.5" font-family="Helvetica,sans-Serif" font-size="10.00">Kadath::Base_spectral</text>
</a>
</g>
</g>
<!-- Node3&#45;&gt;Node8 -->
<g id="edge14" class="edge">
<title>Node3&#45;&gt;Node8</title>
<path fill="none" stroke="midnightblue" d="M344.41,-293.43C355.44,-289.65 366.23,-284.64 375.5,-278 412.1,-251.77 435.15,-200.31 443.24,-179.77"/>
<polygon fill="midnightblue" stroke="midnightblue" points="343.2,-290.14 334.69,-296.44 345.27,-296.83 343.2,-290.14"/>
</g>
<!-- Node9 -->
<g id="node9" class="node">
<title>Node9</title>
<g id="a_node9"><a xlink:href="classKadath_1_1Array.html" target="_top" xlink:title=" ">
<polygon fill="none" stroke="black" points="428,-239.5 428,-258.5 529,-258.5 529,-239.5 428,-239.5"/>
<text text-anchor="middle" x="478.5" y="-246.5" font-family="Helvetica,sans-Serif" font-size="10.00">Kadath::Array&lt; int &gt;</text>
</a>
</g>
</g>
<!-- Node3&#45;&gt;Node9 -->
<g id="edge16" class="edge">
<title>Node3&#45;&gt;Node9</title>
<path fill="none" stroke="midnightblue" d="M342.72,-294.71C365.52,-290.52 390.83,-284.98 413.5,-278 430.29,-272.83 448.61,-264.7 461.5,-258.53"/>
<polygon fill="midnightblue" stroke="midnightblue" points="342,-291.28 332.78,-296.49 343.23,-298.18 342,-291.28"/>
</g>
<!-- Node4&#45;&gt;Node2 -->
<g id="edge3" class="edge">
<title>Node4&#45;&gt;Node2</title>
<path fill="none" stroke="#9a32cd" stroke-dasharray="5,2" d="M116.33,-156.3C108.15,-152.31 100,-147.26 93.5,-141 74.47,-122.68 63.43,-92.44 58.92,-77.66"/>
<polygon fill="#9a32cd" stroke="#9a32cd" points="114.93,-159.51 125.49,-160.38 117.78,-153.12 114.93,-159.51"/>
<text text-anchor="middle" x="113.5" y="-116.5" font-family="Helvetica,sans-Serif" font-size="10.00"> domains</text>
</g>
<!-- Node4&#45;&gt;Node7 -->
<g id="edge17" class="edge">
<title>Node4&#45;&gt;Node7</title>
<path fill="none" stroke="#9a32cd" stroke-dasharray="5,2" d="M148.33,-150.54C145.07,-134.59 143.45,-111.82 155.5,-97 164.1,-86.42 194.2,-79.38 221.84,-75.01"/>
<polygon fill="#9a32cd" stroke="#9a32cd" points="144.95,-151.43 150.71,-160.32 151.75,-149.78 144.95,-151.43"/>
<text text-anchor="middle" x="167" y="-116.5" font-family="Helvetica,sans-Serif" font-size="10.00"> zone</text>
</g>
<!-- Node5&#45;&gt;Node4 -->
<g id="edge5" class="edge">
<title>Node5&#45;&gt;Node4</title>
<path fill="none" stroke="#9a32cd" stroke-dasharray="5,2" d="M149.71,-229.31C150.73,-213.59 152.15,-191.81 152.93,-179.81"/>
<polygon fill="#9a32cd" stroke="#9a32cd" points="146.21,-229.26 149.05,-239.47 153.19,-229.71 146.21,-229.26"/>
<text text-anchor="middle" x="175.5" y="-213" font-family="Helvetica,sans-Serif" font-size="10.00"> nbr_coefs</text>
<text text-anchor="middle" x="175.5" y="-202" font-family="Helvetica,sans-Serif" font-size="10.00">nbr_points</text>
</g>
<!-- Node6&#45;&gt;Node4 -->
<g id="edge7" class="edge">
<title>Node6&#45;&gt;Node4</title>
<path fill="none" stroke="#9a32cd" stroke-dasharray="5,2" d="M252.13,-233.71C246.08,-229.63 239.52,-225.17 233.5,-221 219.61,-211.38 216.74,-208.09 202.5,-199 191.76,-192.15 179.3,-185.03 169.62,-179.69"/>
<polygon fill="#9a32cd" stroke="#9a32cd" points="250.23,-236.65 260.48,-239.32 254.13,-230.84 250.23,-236.65"/>
<text text-anchor="middle" x="246.5" y="-207.5" font-family="Helvetica,sans-Serif" font-size="10.00"> coloc</text>
</g>
<!-- Node6&#45;&gt;Node7 -->
<g id="edge11" class="edge">
<title>Node6&#45;&gt;Node7</title>
<path fill="none" stroke="#9a32cd" stroke-dasharray="5,2" d="M273.5,-229.09C273.5,-190.68 273.5,-104.89 273.5,-77.55"/>
<polygon fill="#9a32cd" stroke="#9a32cd" points="270,-229.37 273.5,-239.37 277,-229.37 270,-229.37"/>
<text text-anchor="middle" x="278" y="-173" font-family="Helvetica,sans-Serif" font-size="10.00"> c</text>
<text text-anchor="middle" x="278" y="-162" font-family="Helvetica,sans-Serif" font-size="10.00">cf</text>
</g>
<!-- Node7&#45;&gt;Node4 -->
<g id="edge9" class="edge">
<title>Node7&#45;&gt;Node4</title>
<path fill="none" stroke="#9a32cd" stroke-dasharray="5,2" d="M243.96,-82.13C235.97,-86.33 227.58,-91.36 220.5,-97 200.28,-113.09 200.26,-122.23 182.5,-141 176.15,-147.71 168.64,-154.95 162.85,-160.38"/>
<polygon fill="#9a32cd" stroke="#9a32cd" points="245.65,-85.19 253.05,-77.61 242.54,-78.93 245.65,-85.19"/>
<text text-anchor="middle" x="240" y="-133" font-family="Helvetica,sans-Serif" font-size="10.00"> absol</text>
<text text-anchor="middle" x="240" y="-122" font-family="Helvetica,sans-Serif" font-size="10.00">cart</text>
<text text-anchor="middle" x="240" y="-111" font-family="Helvetica,sans-Serif" font-size="10.00">cart_surr</text>
<text text-anchor="middle" x="240" y="-100" font-family="Helvetica,sans-Serif" font-size="10.00">radius</text>
</g>
<!-- Node7&#45;&gt;Node7 -->
<g id="edge12" class="edge">
<title>Node7&#45;&gt;Node7</title>
<path fill="none" stroke="#9a32cd" stroke-dasharray="5,2" d="M335.32,-71.95C340.07,-71.08 343,-69.76 343,-68 343,-65.18 335.5,-63.5 325.03,-62.95"/>
<polygon fill="#9a32cd" stroke="#9a32cd" points="334.6,-68.51 325.03,-73.05 335.34,-75.47 334.6,-68.51"/>
<text text-anchor="middle" x="367" y="-71" font-family="Helvetica,sans-Serif" font-size="10.00"> p_der_abs</text>
<text text-anchor="middle" x="367" y="-60" font-family="Helvetica,sans-Serif" font-size="10.00">p_der_var</text>
</g>
<!-- Node8&#45;&gt;Node7 -->
<g id="edge13" class="edge">
<title>Node8&#45;&gt;Node7</title>
<path fill="none" stroke="#9a32cd" stroke-dasharray="5,2" d="M434.33,-152.31C421.49,-135.87 399.78,-111.23 375.5,-97 360.13,-87.99 341.77,-81.79 324.88,-77.56"/>
<polygon fill="#9a32cd" stroke="#9a32cd" points="431.69,-154.61 440.51,-160.47 437.27,-150.39 431.69,-154.61"/>
<text text-anchor="middle" x="435.5" y="-116.5" font-family="Helvetica,sans-Serif" font-size="10.00"> base</text>
</g>
<!-- Node9&#45;&gt;Node8 -->
<g id="edge15" class="edge">
<title>Node9&#45;&gt;Node8</title>
<path fill="none" stroke="#9a32cd" stroke-dasharray="5,2" d="M471.11,-230.22C464.55,-214.44 455.24,-192.04 450.16,-179.81"/>
<polygon fill="#9a32cd" stroke="#9a32cd" points="467.88,-231.57 474.95,-239.47 474.35,-228.89 467.88,-231.57"/>
<text text-anchor="middle" x="489" y="-207.5" font-family="Helvetica,sans-Serif" font-size="10.00"> bases_1d</text>
</g>
</g>
</svg>
