<?xml version="1.0" encoding="UTF-8" standalone="no"?>
<!DOCTYPE svg PUBLIC "-//W3C//DTD SVG 1.1//EN"
 "http://www.w3.org/Graphics/SVG/1.1/DTD/svg11.dtd">
<!-- Generated by graphviz version 2.47.1 (20210515.0534)
 -->
<!-- Title: Kadath::Domain Pages: 1 -->
<svg width="453pt" height="267pt"
 viewBox="0.00 0.00 452.61 267.00" xmlns="http://www.w3.org/2000/svg" xmlns:xlink="http://www.w3.org/1999/xlink">
<g id="graph0" class="graph" transform="scale(1 1) rotate(0) translate(4 263)">
<title>Kadath::Domain</title>
<!-- Node1 -->
<g id="node1" class="node">
<title>Node1</title>
<g id="a_node1"><a xlink:title=" ">
<polygon fill="#bfbfbf" stroke="black" points="70.61,-103.5 70.61,-122.5 155.61,-122.5 155.61,-103.5 70.61,-103.5"/>
<text text-anchor="middle" x="113.11" y="-110.5" font-family="Helvetica,sans-Serif" font-size="10.00">Kadath::Domain</text>
</a>
</g>
</g>
<!-- Node5 -->
<g id="node5" class="node">
<title>Node5</title>
<g id="a_node5"><a xlink:href="classKadath_1_1Val__domain.html" target="_top" xlink:title=" ">
<polygon fill="none" stroke="black" points="161.61,-1.5 161.61,-20.5 264.61,-20.5 264.61,-1.5 161.61,-1.5"/>
<text text-anchor="middle" x="213.11" y="-8.5" font-family="Helvetica,sans-Serif" font-size="10.00">Kadath::Val_domain</text>
</a>
</g>
</g>
<!-- Node1&#45;&gt;Node5 -->
<g id="edge14" class="edge">
<title>Node1&#45;&gt;Node5</title>
<path fill="none" stroke="#9a32cd" stroke-dasharray="5,2" d="M106.38,-93.72C101.82,-77.88 98.51,-55.18 110.11,-40 116.75,-31.31 139.16,-24.69 161.38,-20.07"/>
<polygon fill="#9a32cd" stroke="#9a32cd" points="103.12,-95.01 109.57,-103.41 109.77,-92.82 103.12,-95.01"/>
<text text-anchor="middle" x="121.61" y="-59.5" font-family="Helvetica,sans-Serif" font-size="10.00"> zone</text>
</g>
<!-- Node2 -->
<g id="node2" class="node">
<title>Node2</title>
<g id="a_node2"><a xlink:href="structKadath_1_1MemoryMappable.html" target="_top" xlink:title=" ">
<polygon fill="none" stroke="black" points="191.11,-239.5 191.11,-258.5 319.11,-258.5 319.11,-239.5 191.11,-239.5"/>
<text text-anchor="middle" x="255.11" y="-246.5" font-family="Helvetica,sans-Serif" font-size="10.00">Kadath::MemoryMappable</text>
</a>
</g>
</g>
<!-- Node2&#45;&gt;Node1 -->
<g id="edge1" class="edge">
<title>Node2&#45;&gt;Node1</title>
<path fill="none" stroke="midnightblue" d="M180.74,-244.42C115.9,-239.55 28.91,-228.21 7.11,-202 -21.25,-167.89 47.15,-137.01 86.97,-122.58"/>
<polygon fill="midnightblue" stroke="midnightblue" points="180.72,-247.93 190.94,-245.14 181.22,-240.94 180.72,-247.93"/>
</g>
<!-- Node3 -->
<g id="node3" class="node">
<title>Node3</title>
<g id="a_node3"><a xlink:href="classKadath_1_1Dim__array.html" target="_top" xlink:title=" ">
<polygon fill="none" stroke="black" points="16.61,-182.5 16.61,-201.5 111.61,-201.5 111.61,-182.5 16.61,-182.5"/>
<text text-anchor="middle" x="64.11" y="-189.5" font-family="Helvetica,sans-Serif" font-size="10.00">Kadath::Dim_array</text>
</a>
</g>
</g>
<!-- Node2&#45;&gt;Node3 -->
<g id="edge3" class="edge">
<title>Node2&#45;&gt;Node3</title>
<path fill="none" stroke="midnightblue" d="M215.52,-236.6C179.28,-226.16 126.46,-210.95 93.75,-201.53"/>
<polygon fill="midnightblue" stroke="midnightblue" points="214.69,-240 225.27,-239.41 216.63,-233.28 214.69,-240"/>
</g>
<!-- Node4 -->
<g id="node4" class="node">
<title>Node4</title>
<g id="a_node4"><a xlink:href="classKadath_1_1Array.html" target="_top" xlink:title=" ">
<polygon fill="none" stroke="black" points="129.61,-182.5 129.61,-201.5 248.61,-201.5 248.61,-182.5 129.61,-182.5"/>
<text text-anchor="middle" x="189.11" y="-189.5" font-family="Helvetica,sans-Serif" font-size="10.00">Kadath::Array&lt; double &gt;</text>
</a>
</g>
</g>
<!-- Node2&#45;&gt;Node4 -->
<g id="edge5" class="edge">
<title>Node2&#45;&gt;Node4</title>
<path fill="none" stroke="midnightblue" d="M237.11,-233C225.07,-222.96 209.64,-210.1 199.57,-201.71"/>
<polygon fill="midnightblue" stroke="midnightblue" points="234.88,-235.69 244.8,-239.41 239.36,-230.32 234.88,-235.69"/>
</g>
<!-- Node2&#45;&gt;Node5 -->
<g id="edge7" class="edge">
<title>Node2&#45;&gt;Node5</title>
<path fill="none" stroke="midnightblue" d="M257.18,-229.22C258.28,-215.97 259.04,-197.84 257.11,-182 249.43,-118.75 224.97,-45.47 216.24,-20.69"/>
<polygon fill="midnightblue" stroke="midnightblue" points="253.68,-229.13 256.2,-239.42 260.64,-229.8 253.68,-229.13"/>
</g>
<!-- Node6 -->
<g id="node6" class="node">
<title>Node6</title>
<g id="a_node6"><a xlink:href="classKadath_1_1Base__spectral.html" target="_top" xlink:title=" ">
<polygon fill="none" stroke="black" points="305.11,-103.5 305.11,-122.5 419.11,-122.5 419.11,-103.5 305.11,-103.5"/>
<text text-anchor="middle" x="362.11" y="-110.5" font-family="Helvetica,sans-Serif" font-size="10.00">Kadath::Base_spectral</text>
</a>
</g>
</g>
<!-- Node2&#45;&gt;Node6 -->
<g id="edge11" class="edge">
<title>Node2&#45;&gt;Node6</title>
<path fill="none" stroke="midnightblue" d="M276.79,-233.63C281.77,-229.82 286.85,-225.51 291.11,-221 321.57,-188.74 347.58,-141.98 357.65,-122.75"/>
<polygon fill="midnightblue" stroke="midnightblue" points="274.72,-230.8 268.65,-239.49 278.81,-236.48 274.72,-230.8"/>
</g>
<!-- Node7 -->
<g id="node7" class="node">
<title>Node7</title>
<g id="a_node7"><a xlink:href="classKadath_1_1Array.html" target="_top" xlink:title=" ">
<polygon fill="none" stroke="black" points="343.61,-182.5 343.61,-201.5 444.61,-201.5 444.61,-182.5 343.61,-182.5"/>
<text text-anchor="middle" x="394.11" y="-189.5" font-family="Helvetica,sans-Serif" font-size="10.00">Kadath::Array&lt; int &gt;</text>
</a>
</g>
</g>
<!-- Node2&#45;&gt;Node7 -->
<g id="edge13" class="edge">
<title>Node2&#45;&gt;Node7</title>
<path fill="none" stroke="midnightblue" d="M289.24,-236.01C301.83,-231.46 316.18,-226.14 329.11,-221 344.64,-214.83 362.02,-207.31 374.89,-201.62"/>
<polygon fill="midnightblue" stroke="midnightblue" points="287.81,-232.8 279.58,-239.47 290.17,-239.39 287.81,-232.8"/>
</g>
<!-- Node3&#45;&gt;Node1 -->
<g id="edge2" class="edge">
<title>Node3&#45;&gt;Node1</title>
<path fill="none" stroke="#9a32cd" stroke-dasharray="5,2" d="M75.14,-173.67C85.2,-157.87 99.65,-135.16 107.51,-122.81"/>
<polygon fill="#9a32cd" stroke="#9a32cd" points="71.96,-172.15 69.54,-182.47 77.87,-175.91 71.96,-172.15"/>
<text text-anchor="middle" x="118.11" y="-156" font-family="Helvetica,sans-Serif" font-size="10.00"> nbr_coefs</text>
<text text-anchor="middle" x="118.11" y="-145" font-family="Helvetica,sans-Serif" font-size="10.00">nbr_points</text>
</g>
<!-- Node4&#45;&gt;Node1 -->
<g id="edge4" class="edge">
<title>Node4&#45;&gt;Node1</title>
<path fill="none" stroke="#9a32cd" stroke-dasharray="5,2" d="M174.13,-174.5C165.26,-164.87 153.72,-152.58 143.11,-142 136.45,-135.36 128.69,-128.12 122.72,-122.67"/>
<polygon fill="#9a32cd" stroke="#9a32cd" points="171.81,-177.15 181.14,-182.16 176.97,-172.42 171.81,-177.15"/>
<text text-anchor="middle" x="177.11" y="-150.5" font-family="Helvetica,sans-Serif" font-size="10.00"> coloc</text>
</g>
<!-- Node4&#45;&gt;Node5 -->
<g id="edge8" class="edge">
<title>Node4&#45;&gt;Node5</title>
<path fill="none" stroke="#9a32cd" stroke-dasharray="5,2" d="M192.75,-172.14C193.24,-169.41 193.7,-166.64 194.11,-164 202.54,-109.6 209.76,-43.79 212.22,-20.6"/>
<polygon fill="#9a32cd" stroke="#9a32cd" points="189.3,-171.55 190.91,-182.02 196.18,-172.83 189.3,-171.55"/>
<text text-anchor="middle" x="207.61" y="-116" font-family="Helvetica,sans-Serif" font-size="10.00"> c</text>
<text text-anchor="middle" x="207.61" y="-105" font-family="Helvetica,sans-Serif" font-size="10.00">cf</text>
</g>
<!-- Node5&#45;&gt;Node1 -->
<g id="edge6" class="edge">
<title>Node5&#45;&gt;Node1</title>
<path fill="none" stroke="#9a32cd" stroke-dasharray="5,2" d="M180.78,-25.12C173.4,-29.13 166,-34.09 160.11,-40 144.54,-55.64 149.48,-65.73 137.11,-84 132.52,-90.79 126.52,-97.79 121.67,-103.09"/>
<polygon fill="#9a32cd" stroke="#9a32cd" points="182.61,-28.11 190.01,-20.53 179.5,-21.85 182.61,-28.11"/>
<text text-anchor="middle" x="179.61" y="-76" font-family="Helvetica,sans-Serif" font-size="10.00"> absol</text>
<text text-anchor="middle" x="179.61" y="-65" font-family="Helvetica,sans-Serif" font-size="10.00">cart</text>
<text text-anchor="middle" x="179.61" y="-54" font-family="Helvetica,sans-Serif" font-size="10.00">cart_surr</text>
<text text-anchor="middle" x="179.61" y="-43" font-family="Helvetica,sans-Serif" font-size="10.00">radius</text>
</g>
<!-- Node5&#45;&gt;Node5 -->
<g id="edge9" class="edge">
<title>Node5&#45;&gt;Node5</title>
<path fill="none" stroke="#9a32cd" stroke-dasharray="5,2" d="M274.57,-18.17C279.54,-16.61 282.61,-14.22 282.61,-11 282.61,-5.97 275.11,-2.96 264.64,-1.98"/>
<polygon fill="#9a32cd" stroke="#9a32cd" points="273.83,-14.75 264.64,-20.02 275.11,-21.63 273.83,-14.75"/>
<text text-anchor="middle" x="306.61" y="-14" font-family="Helvetica,sans-Serif" font-size="10.00"> p_der_abs</text>
<text text-anchor="middle" x="306.61" y="-3" font-family="Helvetica,sans-Serif" font-size="10.00">p_der_var</text>
</g>
<!-- Node6&#45;&gt;Node5 -->
<g id="edge10" class="edge">
<title>Node6&#45;&gt;Node5</title>
<path fill="none" stroke="#9a32cd" stroke-dasharray="5,2" d="M349.3,-95.18C336.23,-79.05 314.58,-54.99 291.11,-40 277.78,-31.48 261.5,-25.11 247.27,-20.62"/>
<polygon fill="#9a32cd" stroke="#9a32cd" points="346.69,-97.53 355.63,-103.22 352.19,-93.2 346.69,-97.53"/>
<text text-anchor="middle" x="351.11" y="-59.5" font-family="Helvetica,sans-Serif" font-size="10.00"> base</text>
</g>
<!-- Node7&#45;&gt;Node6 -->
<g id="edge12" class="edge">
<title>Node7&#45;&gt;Node6</title>
<path fill="none" stroke="#9a32cd" stroke-dasharray="5,2" d="M386.73,-173.22C380.17,-157.44 370.86,-135.04 365.77,-122.81"/>
<polygon fill="#9a32cd" stroke="#9a32cd" points="383.5,-174.57 390.57,-182.47 389.96,-171.89 383.5,-174.57"/>
<text text-anchor="middle" x="404.61" y="-150.5" font-family="Helvetica,sans-Serif" font-size="10.00"> bases_1d</text>
</g>
</g>
</svg>
