<?xml version="1.0" encoding="UTF-8" standalone="no"?>
<!DOCTYPE svg PUBLIC "-//W3C//DTD SVG 1.1//EN"
 "http://www.w3.org/Graphics/SVG/1.1/DTD/svg11.dtd">
<!-- Generated by graphviz version 2.47.1 (20210515.0534)
 -->
<!-- Title: Kadath::FUKA_Solvers::XCTS_Solver&lt; config_t, space_t &gt; Pages: 1 -->
<svg width="1063pt" height="375pt"
 viewBox="0.00 0.00 1063.00 374.74" xmlns="http://www.w3.org/2000/svg" xmlns:xlink="http://www.w3.org/1999/xlink">
<g id="graph0" class="graph" transform="scale(1 1) rotate(0) translate(4 370.74)">
<title>Kadath::FUKA_Solvers::XCTS_Solver&lt; config_t, space_t &gt;</title>
<!-- Node1 -->
<g id="node1" class="node">
<title>Node1</title>
<g id="a_node1"><a xlink:title="Solver base for FUKA solvers.">
<polygon fill="#bfbfbf" stroke="black" points="938,-279.24 938,-320.24 1055,-320.24 1055,-279.24 938,-279.24"/>
<text text-anchor="start" x="946" y="-308.24" font-family="Helvetica,sans-Serif" font-size="10.00">Kadath::FUKA_Solvers</text>
<text text-anchor="start" x="946" y="-297.24" font-family="Helvetica,sans-Serif" font-size="10.00">::XCTS_Solver&lt; config</text>
<text text-anchor="middle" x="996.5" y="-286.24" font-family="Helvetica,sans-Serif" font-size="10.00">_t, space_t &gt;</text>
</a>
</g>
</g>
<!-- Node2 -->
<g id="node2" class="node">
<title>Node2</title>
<g id="a_node2"><a xlink:href="classKadath_1_1FUKA__Solvers_1_1Solver.html" target="_top" xlink:title="Solver base for FUKA solvers.">
<polygon fill="none" stroke="black" points="737,-313.74 737,-343.74 876,-343.74 876,-313.74 737,-313.74"/>
<text text-anchor="start" x="745" y="-331.74" font-family="Helvetica,sans-Serif" font-size="10.00">Kadath::FUKA_Solvers</text>
<text text-anchor="middle" x="806.5" y="-320.74" font-family="Helvetica,sans-Serif" font-size="10.00">::Solver&lt; config_t, space_t &gt;</text>
</a>
</g>
</g>
<!-- Node2&#45;&gt;Node1 -->
<g id="edge1" class="edge">
<title>Node2&#45;&gt;Node1</title>
<path fill="none" stroke="midnightblue" d="M886.25,-316.59C903.55,-313.93 921.55,-311.15 937.83,-308.64"/>
<polygon fill="midnightblue" stroke="midnightblue" points="885.52,-313.17 876.17,-318.15 886.59,-320.08 885.52,-313.17"/>
</g>
<!-- Node3 -->
<g id="node3" class="node">
<title>Node3</title>
<g id="a_node3"><a xlink:href="classKadath_1_1FUKA__Config_1_1kadath__config__boost.html" target="_top" xlink:title=" ">
<polygon fill="none" stroke="black" points="556,-325.24 556,-366.24 667,-366.24 667,-325.24 556,-325.24"/>
<text text-anchor="start" x="564" y="-354.24" font-family="Helvetica,sans-Serif" font-size="10.00">Kadath::FUKA_Config</text>
<text text-anchor="start" x="564" y="-343.24" font-family="Helvetica,sans-Serif" font-size="10.00">::kadath_config_boost</text>
<text text-anchor="middle" x="611.5" y="-332.24" font-family="Helvetica,sans-Serif" font-size="10.00">&lt; ParamC &gt;</text>
</a>
</g>
</g>
<!-- Node3&#45;&gt;Node2 -->
<g id="edge2" class="edge">
<title>Node3&#45;&gt;Node2</title>
<path fill="none" stroke="#9a32cd" stroke-dasharray="5,2" d="M677.19,-340.04C696.41,-338.35 717.53,-336.49 736.99,-334.78"/>
<polygon fill="#9a32cd" stroke="#9a32cd" points="676.69,-336.57 667.03,-340.94 677.3,-343.55 676.69,-336.57"/>
<text text-anchor="middle" x="702" y="-341.74" font-family="Helvetica,sans-Serif" font-size="10.00"> bconfig</text>
</g>
<!-- Node4 -->
<g id="node4" class="node">
<title>Node4</title>
<g id="a_node4"><a xlink:href="classKadath_1_1FUKA__Config_1_1configurator__base.html" target="_top" xlink:title=" ">
<polygon fill="none" stroke="black" points="367.5,-330.74 367.5,-360.74 478.5,-360.74 478.5,-330.74 367.5,-330.74"/>
<text text-anchor="start" x="375.5" y="-348.74" font-family="Helvetica,sans-Serif" font-size="10.00">Kadath::FUKA_Config</text>
<text text-anchor="middle" x="423" y="-337.74" font-family="Helvetica,sans-Serif" font-size="10.00">::configurator_base</text>
</a>
</g>
</g>
<!-- Node4&#45;&gt;Node3 -->
<g id="edge3" class="edge">
<title>Node4&#45;&gt;Node3</title>
<path fill="none" stroke="midnightblue" d="M488.87,-345.74C510.71,-345.74 534.84,-345.74 555.8,-345.74"/>
<polygon fill="midnightblue" stroke="midnightblue" points="488.7,-342.24 478.7,-345.74 488.7,-349.24 488.7,-342.24"/>
</g>
<!-- Node5 -->
<g id="node5" class="node">
<title>Node5</title>
<g id="a_node5"><a xlink:href="classKadath_1_1Base__tensor.html" target="_top" xlink:title=" ">
<polygon fill="none" stroke="black" points="753,-268.24 753,-287.24 860,-287.24 860,-268.24 753,-268.24"/>
<text text-anchor="middle" x="806.5" y="-275.24" font-family="Helvetica,sans-Serif" font-size="10.00">Kadath::Base_tensor</text>
</a>
</g>
</g>
<!-- Node5&#45;&gt;Node1 -->
<g id="edge4" class="edge">
<title>Node5&#45;&gt;Node1</title>
<path fill="none" stroke="#9a32cd" stroke-dasharray="5,2" d="M870.29,-285.09C892.14,-287.65 916.54,-290.5 937.95,-293.01"/>
<polygon fill="#9a32cd" stroke="#9a32cd" points="870.46,-281.59 860.12,-283.9 869.64,-288.54 870.46,-281.59"/>
<text text-anchor="middle" x="907" y="-292.74" font-family="Helvetica,sans-Serif" font-size="10.00"> basis</text>
</g>
<!-- Node6 -->
<g id="node6" class="node">
<title>Node6</title>
<g id="a_node6"><a xlink:href="structKadath_1_1MemoryMappable.html" target="_top" xlink:title=" ">
<polygon fill="none" stroke="black" points="0,-157.24 0,-176.24 128,-176.24 128,-157.24 0,-157.24"/>
<text text-anchor="middle" x="64" y="-164.24" font-family="Helvetica,sans-Serif" font-size="10.00">Kadath::MemoryMappable</text>
</a>
</g>
</g>
<!-- Node6&#45;&gt;Node5 -->
<g id="edge5" class="edge">
<title>Node6&#45;&gt;Node5</title>
<path fill="none" stroke="midnightblue" d="M75.71,-185.08C98.16,-220.91 153.91,-296.74 223.5,-296.74 223.5,-296.74 223.5,-296.74 612.5,-296.74 660.14,-296.74 714.08,-290.94 752.8,-285.74"/>
<polygon fill="midnightblue" stroke="midnightblue" points="78.68,-183.24 70.5,-176.51 72.7,-186.88 78.68,-183.24"/>
</g>
<!-- Node7 -->
<g id="node7" class="node">
<title>Node7</title>
<g id="a_node7"><a xlink:href="classKadath_1_1Space.html" target="_top" xlink:title=" ">
<polygon fill="none" stroke="black" points="571.5,-249.24 571.5,-268.24 651.5,-268.24 651.5,-249.24 571.5,-249.24"/>
<text text-anchor="middle" x="611.5" y="-256.24" font-family="Helvetica,sans-Serif" font-size="10.00">Kadath::Space</text>
</a>
</g>
</g>
<!-- Node6&#45;&gt;Node7 -->
<g id="edge7" class="edge">
<title>Node6&#45;&gt;Node7</title>
<path fill="none" stroke="midnightblue" d="M86.48,-182.22C105.94,-195.32 135.93,-213.27 165,-221.74 310.29,-264.1 492.73,-263.4 571.42,-260.66"/>
<polygon fill="midnightblue" stroke="midnightblue" points="88.29,-179.22 78.07,-176.42 84.32,-184.98 88.29,-179.22"/>
</g>
<!-- Node8 -->
<g id="node8" class="node">
<title>Node8</title>
<g id="a_node8"><a xlink:href="classKadath_1_1Domain.html" target="_top" xlink:title=" ">
<polygon fill="none" stroke="black" points="380.5,-181.24 380.5,-200.24 465.5,-200.24 465.5,-181.24 380.5,-181.24"/>
<text text-anchor="middle" x="423" y="-188.24" font-family="Helvetica,sans-Serif" font-size="10.00">Kadath::Domain</text>
</a>
</g>
</g>
<!-- Node6&#45;&gt;Node8 -->
<g id="edge9" class="edge">
<title>Node6&#45;&gt;Node8</title>
<path fill="none" stroke="midnightblue" d="M95.6,-180.15C115.07,-187.99 141.03,-197.22 165,-201.74 244.95,-216.83 267.1,-215.39 348,-206.74 360.29,-205.43 373.53,-202.92 385.36,-200.28"/>
<polygon fill="midnightblue" stroke="midnightblue" points="96.91,-176.9 86.33,-176.32 94.24,-183.37 96.91,-176.9"/>
</g>
<!-- Node9 -->
<g id="node9" class="node">
<title>Node9</title>
<g id="a_node9"><a xlink:href="classKadath_1_1Dim__array.html" target="_top" xlink:title=" ">
<polygon fill="none" stroke="black" points="177,-173.24 177,-192.24 272,-192.24 272,-173.24 177,-173.24"/>
<text text-anchor="middle" x="224.5" y="-180.24" font-family="Helvetica,sans-Serif" font-size="10.00">Kadath::Dim_array</text>
</a>
</g>
</g>
<!-- Node6&#45;&gt;Node9 -->
<g id="edge11" class="edge">
<title>Node6&#45;&gt;Node9</title>
<path fill="none" stroke="midnightblue" d="M138.08,-174.12C151.23,-175.45 164.6,-176.8 176.74,-178.02"/>
<polygon fill="midnightblue" stroke="midnightblue" points="138.4,-170.63 128.1,-173.11 137.7,-177.6 138.4,-170.63"/>
</g>
<!-- Node10 -->
<g id="node10" class="node">
<title>Node10</title>
<g id="a_node10"><a xlink:href="classKadath_1_1Array.html" target="_top" xlink:title=" ">
<polygon fill="none" stroke="black" points="165,-135.24 165,-154.24 284,-154.24 284,-135.24 165,-135.24"/>
<text text-anchor="middle" x="224.5" y="-142.24" font-family="Helvetica,sans-Serif" font-size="10.00">Kadath::Array&lt; double &gt;</text>
</a>
</g>
</g>
<!-- Node6&#45;&gt;Node10 -->
<g id="edge13" class="edge">
<title>Node6&#45;&gt;Node10</title>
<path fill="none" stroke="midnightblue" d="M138.18,-156.58C147.17,-155.34 156.26,-154.07 164.99,-152.86"/>
<polygon fill="midnightblue" stroke="midnightblue" points="137.52,-153.14 128.1,-157.98 138.49,-160.08 137.52,-153.14"/>
</g>
<!-- Node11 -->
<g id="node11" class="node">
<title>Node11</title>
<g id="a_node11"><a xlink:href="classKadath_1_1Val__domain.html" target="_top" xlink:title=" ">
<polygon fill="none" stroke="black" points="560,-89.24 560,-108.24 663,-108.24 663,-89.24 560,-89.24"/>
<text text-anchor="middle" x="611.5" y="-96.24" font-family="Helvetica,sans-Serif" font-size="10.00">Kadath::Val_domain</text>
</a>
</g>
</g>
<!-- Node6&#45;&gt;Node11 -->
<g id="edge15" class="edge">
<title>Node6&#45;&gt;Node11</title>
<path fill="none" stroke="midnightblue" d="M92.47,-152.68C112.13,-143.32 139.52,-131.69 165,-125.74 305.16,-93.02 476.47,-93.57 559.93,-96.33"/>
<polygon fill="midnightblue" stroke="midnightblue" points="90.67,-149.67 83.21,-157.19 93.73,-155.96 90.67,-149.67"/>
</g>
<!-- Node12 -->
<g id="node12" class="node">
<title>Node12</title>
<g id="a_node12"><a xlink:href="classKadath_1_1Base__spectral.html" target="_top" xlink:title=" ">
<polygon fill="none" stroke="black" points="366,-23.24 366,-42.24 480,-42.24 480,-23.24 366,-23.24"/>
<text text-anchor="middle" x="423" y="-30.24" font-family="Helvetica,sans-Serif" font-size="10.00">Kadath::Base_spectral</text>
</a>
</g>
</g>
<!-- Node6&#45;&gt;Node12 -->
<g id="edge19" class="edge">
<title>Node6&#45;&gt;Node12</title>
<path fill="none" stroke="midnightblue" d="M76.14,-148.44C89.83,-127.67 115.1,-94.5 146,-77.74 164.96,-67.45 290.65,-49.76 365.72,-39.9"/>
<polygon fill="midnightblue" stroke="midnightblue" points="73.1,-146.7 70.68,-157.01 79.01,-150.46 73.1,-146.7"/>
</g>
<!-- Node13 -->
<g id="node13" class="node">
<title>Node13</title>
<g id="a_node13"><a xlink:href="classKadath_1_1Array.html" target="_top" xlink:title=" ">
<polygon fill="none" stroke="black" points="174,-6.24 174,-25.24 275,-25.24 275,-6.24 174,-6.24"/>
<text text-anchor="middle" x="224.5" y="-13.24" font-family="Helvetica,sans-Serif" font-size="10.00">Kadath::Array&lt; int &gt;</text>
</a>
</g>
</g>
<!-- Node6&#45;&gt;Node13 -->
<g id="edge21" class="edge">
<title>Node6&#45;&gt;Node13</title>
<path fill="none" stroke="midnightblue" d="M72.11,-147.77C83.49,-119.99 108.39,-68.43 146,-39.74 154.29,-33.42 164.26,-28.75 174.25,-25.3"/>
<polygon fill="midnightblue" stroke="midnightblue" points="68.82,-146.57 68.42,-157.16 75.34,-149.13 68.82,-146.57"/>
</g>
<!-- Node7&#45;&gt;Node5 -->
<g id="edge6" class="edge">
<title>Node7&#45;&gt;Node5</title>
<path fill="none" stroke="#9a32cd" stroke-dasharray="5,2" d="M661.87,-263.6C689.75,-266.35 724.58,-269.78 752.97,-272.57"/>
<polygon fill="#9a32cd" stroke="#9a32cd" points="661.85,-260.08 651.56,-262.59 661.17,-267.05 661.85,-260.08"/>
<text text-anchor="middle" x="702" y="-271.74" font-family="Helvetica,sans-Serif" font-size="10.00"> space</text>
</g>
<!-- Node8&#45;&gt;Node7 -->
<g id="edge8" class="edge">
<title>Node8&#45;&gt;Node7</title>
<path fill="none" stroke="#9a32cd" stroke-dasharray="5,2" d="M460.06,-203.89C496.49,-217.17 551.88,-237.37 584.31,-249.19"/>
<polygon fill="#9a32cd" stroke="#9a32cd" points="460.92,-200.48 450.33,-200.34 458.52,-207.05 460.92,-200.48"/>
<text text-anchor="middle" x="518" y="-233.74" font-family="Helvetica,sans-Serif" font-size="10.00"> domains</text>
</g>
<!-- Node8&#45;&gt;Node11 -->
<g id="edge22" class="edge">
<title>Node8&#45;&gt;Node11</title>
<path fill="none" stroke="#9a32cd" stroke-dasharray="5,2" d="M475.63,-191.89C495.99,-190.48 519.01,-186.44 538,-176.74 569.29,-160.77 594.07,-125.54 604.77,-108.44"/>
<polygon fill="#9a32cd" stroke="#9a32cd" points="475.38,-188.4 465.56,-192.4 475.73,-195.39 475.38,-188.4"/>
<text text-anchor="middle" x="518" y="-192.74" font-family="Helvetica,sans-Serif" font-size="10.00"> zone</text>
</g>
<!-- Node9&#45;&gt;Node8 -->
<g id="edge10" class="edge">
<title>Node9&#45;&gt;Node8</title>
<path fill="none" stroke="#9a32cd" stroke-dasharray="5,2" d="M282.28,-182.91C302.97,-183.17 326.55,-183.7 348,-184.74 358.43,-185.25 369.67,-186.04 380.16,-186.87"/>
<polygon fill="#9a32cd" stroke="#9a32cd" points="282.1,-179.4 272.06,-182.8 282.02,-186.4 282.1,-179.4"/>
<text text-anchor="middle" x="325" y="-198.74" font-family="Helvetica,sans-Serif" font-size="10.00"> nbr_coefs</text>
<text text-anchor="middle" x="325" y="-187.74" font-family="Helvetica,sans-Serif" font-size="10.00">nbr_points</text>
</g>
<!-- Node10&#45;&gt;Node8 -->
<g id="edge12" class="edge">
<title>Node10&#45;&gt;Node8</title>
<path fill="none" stroke="#9a32cd" stroke-dasharray="5,2" d="M289.96,-156.17C308.76,-159.83 329.27,-164.13 348,-168.74 362.71,-172.36 378.85,-177.07 392.29,-181.2"/>
<polygon fill="#9a32cd" stroke="#9a32cd" points="290.5,-152.71 280.02,-154.27 289.18,-159.59 290.5,-152.71"/>
<text text-anchor="middle" x="325" y="-171.74" font-family="Helvetica,sans-Serif" font-size="10.00"> coloc</text>
</g>
<!-- Node10&#45;&gt;Node11 -->
<g id="edge16" class="edge">
<title>Node10&#45;&gt;Node11</title>
<path fill="none" stroke="#9a32cd" stroke-dasharray="5,2" d="M294.39,-136.51C370.69,-127.39 491.89,-112.91 559.91,-104.79"/>
<polygon fill="#9a32cd" stroke="#9a32cd" points="293.91,-133.04 284.39,-137.71 294.74,-139.99 293.91,-133.04"/>
<text text-anchor="middle" x="423" y="-142.74" font-family="Helvetica,sans-Serif" font-size="10.00"> c</text>
<text text-anchor="middle" x="423" y="-131.74" font-family="Helvetica,sans-Serif" font-size="10.00">cf</text>
</g>
<!-- Node11&#45;&gt;Node8 -->
<g id="edge14" class="edge">
<title>Node11&#45;&gt;Node8</title>
<path fill="none" stroke="#9a32cd" stroke-dasharray="5,2" d="M555.8,-110.88C536.9,-116.2 515.96,-123.41 498,-132.74 472.51,-145.99 447.09,-168.43 433.69,-181.17"/>
<polygon fill="#9a32cd" stroke="#9a32cd" points="556.74,-114.25 565.48,-108.26 554.91,-107.49 556.74,-114.25"/>
<text text-anchor="middle" x="518" y="-168.74" font-family="Helvetica,sans-Serif" font-size="10.00"> absol</text>
<text text-anchor="middle" x="518" y="-157.74" font-family="Helvetica,sans-Serif" font-size="10.00">cart</text>
<text text-anchor="middle" x="518" y="-146.74" font-family="Helvetica,sans-Serif" font-size="10.00">cart_surr</text>
<text text-anchor="middle" x="518" y="-135.74" font-family="Helvetica,sans-Serif" font-size="10.00">radius</text>
</g>
<!-- Node11&#45;&gt;Node11 -->
<g id="edge17" class="edge">
<title>Node11&#45;&gt;Node11</title>
<path fill="none" stroke="#9a32cd" stroke-dasharray="5,2" d="M594.83,-118.14C595.95,-123.06 601.5,-126.74 611.5,-126.74 627.5,-126.74 632.12,-117.31 625.37,-108.5"/>
<polygon fill="#9a32cd" stroke="#9a32cd" points="598.21,-119.08 597.63,-108.5 591.48,-117.13 598.21,-119.08"/>
<text text-anchor="middle" x="611.5" y="-140.74" font-family="Helvetica,sans-Serif" font-size="10.00"> p_der_abs</text>
<text text-anchor="middle" x="611.5" y="-129.74" font-family="Helvetica,sans-Serif" font-size="10.00">p_der_var</text>
</g>
<!-- Node12&#45;&gt;Node11 -->
<g id="edge18" class="edge">
<title>Node12&#45;&gt;Node11</title>
<path fill="none" stroke="#9a32cd" stroke-dasharray="5,2" d="M490.52,-34.51C506.47,-36.5 523.16,-39.94 538,-45.74 563.27,-55.61 587.68,-76.55 600.73,-88.95"/>
<polygon fill="#9a32cd" stroke="#9a32cd" points="490.5,-30.98 480.18,-33.39 489.75,-37.94 490.5,-30.98"/>
<text text-anchor="middle" x="518" y="-48.74" font-family="Helvetica,sans-Serif" font-size="10.00"> base</text>
</g>
<!-- Node13&#45;&gt;Node5 -->
<g id="edge23" class="edge">
<title>Node13&#45;&gt;Node5</title>
<path fill="none" stroke="#9a32cd" stroke-dasharray="5,2" d="M285.23,-6.36C378.09,4.66 557.74,11.29 667,-79.74 735.97,-137.21 786.41,-236.96 801.11,-268.14"/>
<polygon fill="#9a32cd" stroke="#9a32cd" points="284.65,-2.91 275.16,-7.62 285.51,-9.86 284.65,-2.91"/>
<text text-anchor="middle" x="518" y="-20.74" font-family="Helvetica,sans-Serif" font-size="10.00"> basis</text>
</g>
<!-- Node13&#45;&gt;Node12 -->
<g id="edge20" class="edge">
<title>Node13&#45;&gt;Node12</title>
<path fill="none" stroke="#9a32cd" stroke-dasharray="5,2" d="M285.06,-20.89C310.72,-23.11 340.56,-25.7 365.83,-27.88"/>
<polygon fill="#9a32cd" stroke="#9a32cd" points="285.35,-17.41 275.09,-20.03 284.75,-24.38 285.35,-17.41"/>
<text text-anchor="middle" x="325" y="-29.74" font-family="Helvetica,sans-Serif" font-size="10.00"> bases_1d</text>
</g>
</g>
</svg>
