<?xml version="1.0" encoding="UTF-8" standalone="no"?>
<!DOCTYPE svg PUBLIC "-//W3C//DTD SVG 1.1//EN"
 "http://www.w3.org/Graphics/SVG/1.1/DTD/svg11.dtd">
<!-- Generated by graphviz version 2.47.1 (20210515.0534)
 -->
<!-- Title: Kadath::Metric_dirac_const Pages: 1 -->
<svg width="2205pt" height="874pt"
 viewBox="0.00 0.00 2205.00 874.01" xmlns="http://www.w3.org/2000/svg" xmlns:xlink="http://www.w3.org/1999/xlink">
<g id="graph0" class="graph" transform="scale(1 1) rotate(0) translate(4 870.01)">
<title>Kadath::Metric_dirac_const</title>
<!-- Node1 -->
<g id="node1" class="node">
<title>Node1</title>
<g id="a_node1"><a xlink:title=" ">
<polygon fill="#bfbfbf" stroke="black" points="2092,-212.01 2092,-242.01 2197,-242.01 2197,-212.01 2092,-212.01"/>
<text text-anchor="start" x="2100" y="-230.01" font-family="Helvetica,sans-Serif" font-size="10.00">Kadath::Metric_dirac</text>
<text text-anchor="middle" x="2144.5" y="-219.01" font-family="Helvetica,sans-Serif" font-size="10.00">_const</text>
</a>
</g>
</g>
<!-- Node2 -->
<g id="node2" class="node">
<title>Node2</title>
<g id="a_node2"><a xlink:href="classKadath_1_1Metric__dirac.html" target="_top" xlink:title=" ">
<polygon fill="none" stroke="black" points="1950,-217.51 1950,-236.51 2055,-236.51 2055,-217.51 1950,-217.51"/>
<text text-anchor="middle" x="2002.5" y="-224.51" font-family="Helvetica,sans-Serif" font-size="10.00">Kadath::Metric_dirac</text>
</a>
</g>
</g>
<!-- Node2&#45;&gt;Node1 -->
<g id="edge1" class="edge">
<title>Node2&#45;&gt;Node1</title>
<path fill="none" stroke="midnightblue" d="M2065.5,-227.01C2074.35,-227.01 2083.36,-227.01 2091.98,-227.01"/>
<polygon fill="midnightblue" stroke="midnightblue" points="2065.23,-223.51 2055.23,-227.01 2065.23,-230.51 2065.23,-223.51"/>
</g>
<!-- Node3 -->
<g id="node3" class="node">
<title>Node3</title>
<g id="a_node3"><a xlink:href="classKadath_1_1Metric__conf.html" target="_top" xlink:title=" ">
<polygon fill="none" stroke="black" points="1786,-217.51 1786,-236.51 1889,-236.51 1889,-217.51 1786,-217.51"/>
<text text-anchor="middle" x="1837.5" y="-224.51" font-family="Helvetica,sans-Serif" font-size="10.00">Kadath::Metric_conf</text>
</a>
</g>
</g>
<!-- Node3&#45;&gt;Node2 -->
<g id="edge2" class="edge">
<title>Node3&#45;&gt;Node2</title>
<path fill="none" stroke="midnightblue" d="M1899.32,-227.01C1915.9,-227.01 1933.7,-227.01 1949.73,-227.01"/>
<polygon fill="midnightblue" stroke="midnightblue" points="1899.18,-223.51 1889.18,-227.01 1899.18,-230.51 1899.18,-223.51"/>
</g>
<!-- Node4 -->
<g id="node4" class="node">
<title>Node4</title>
<g id="a_node4"><a xlink:href="classKadath_1_1Metric.html" target="_top" xlink:title=" ">
<polygon fill="none" stroke="black" points="1464,-253.51 1464,-272.51 1543,-272.51 1543,-253.51 1464,-253.51"/>
<text text-anchor="middle" x="1503.5" y="-260.51" font-family="Helvetica,sans-Serif" font-size="10.00">Kadath::Metric</text>
</a>
</g>
</g>
<!-- Node4&#45;&gt;Node3 -->
<g id="edge3" class="edge">
<title>Node4&#45;&gt;Node3</title>
<path fill="none" stroke="midnightblue" d="M1553.42,-258.22C1598.71,-253.72 1667.94,-246.7 1728,-240.01 1746.85,-237.91 1767.54,-235.47 1785.74,-233.27"/>
<polygon fill="midnightblue" stroke="midnightblue" points="1552.89,-254.75 1543.28,-259.22 1553.58,-261.72 1552.89,-254.75"/>
</g>
<!-- Node13 -->
<g id="node13" class="node">
<title>Node13</title>
<g id="a_node13"><a xlink:href="classKadath_1_1System__of__eqs.html" target="_top" xlink:title=" ">
<polygon fill="none" stroke="black" points="1609,-480.51 1609,-499.51 1728,-499.51 1728,-480.51 1609,-480.51"/>
<text text-anchor="middle" x="1668.5" y="-487.51" font-family="Helvetica,sans-Serif" font-size="10.00">Kadath::System_of_eqs</text>
</a>
</g>
</g>
<!-- Node4&#45;&gt;Node13 -->
<g id="edge57" class="edge">
<title>Node4&#45;&gt;Node13</title>
<path fill="none" stroke="#9a32cd" stroke-dasharray="5,2" d="M1531.32,-278.24C1535.38,-280.97 1539.41,-283.93 1543,-287.01 1552.32,-295.02 1552.07,-299.56 1561,-308.01 1573.2,-319.56 1580.4,-317.98 1591,-331.01 1631,-380.22 1656.33,-453.81 1664.56,-480.18"/>
<polygon fill="#9a32cd" stroke="#9a32cd" points="1532.86,-275.07 1522.53,-272.7 1529.12,-281 1532.86,-275.07"/>
<text text-anchor="middle" x="1576" y="-334.01" font-family="Helvetica,sans-Serif" font-size="10.00"> met</text>
</g>
<!-- Node26 -->
<g id="node26" class="node">
<title>Node26</title>
<g id="a_node26"><a xlink:href="classKadath_1_1Metric__flat.html" target="_top" xlink:title=" ">
<polygon fill="none" stroke="black" points="1620,-169.51 1620,-188.51 1717,-188.51 1717,-169.51 1620,-169.51"/>
<text text-anchor="middle" x="1668.5" y="-176.51" font-family="Helvetica,sans-Serif" font-size="10.00">Kadath::Metric_flat</text>
</a>
</g>
</g>
<!-- Node4&#45;&gt;Node26 -->
<g id="edge67" class="edge">
<title>Node4&#45;&gt;Node26</title>
<path fill="none" stroke="midnightblue" d="M1528.26,-248.17C1549.13,-235.42 1580.52,-216.96 1609,-203.01 1619.65,-197.8 1631.72,-192.71 1642.13,-188.58"/>
<polygon fill="midnightblue" stroke="midnightblue" points="1526.42,-245.19 1519.73,-253.42 1530.08,-251.15 1526.42,-245.19"/>
</g>
<!-- Node5 -->
<g id="node5" class="node">
<title>Node5</title>
<g id="a_node5"><a xlink:href="structKadath_1_1MemoryMappable.html" target="_top" xlink:title=" ">
<polygon fill="none" stroke="black" points="0,-486.51 0,-505.51 128,-505.51 128,-486.51 0,-486.51"/>
<text text-anchor="middle" x="64" y="-493.51" font-family="Helvetica,sans-Serif" font-size="10.00">Kadath::MemoryMappable</text>
</a>
</g>
</g>
<!-- Node5&#45;&gt;Node4 -->
<g id="edge4" class="edge">
<title>Node5&#45;&gt;Node4</title>
<path fill="none" stroke="midnightblue" d="M67.49,-476.41C74.65,-423.88 97.9,-276.28 146,-163.01 163.46,-121.9 178.83,-99.01 223.5,-99.01 223.5,-99.01 223.5,-99.01 885.5,-99.01 915.77,-99.01 1343.85,-218.49 1468.61,-253.49"/>
<polygon fill="midnightblue" stroke="midnightblue" points="64.02,-476.01 66.17,-486.39 70.96,-476.93 64.02,-476.01"/>
</g>
<!-- Node6 -->
<g id="node6" class="node">
<title>Node6</title>
<g id="a_node6"><a xlink:href="classKadath_1_1Space.html" target="_top" xlink:title=" ">
<polygon fill="none" stroke="black" points="674.5,-435.51 674.5,-454.51 754.5,-454.51 754.5,-435.51 674.5,-435.51"/>
<text text-anchor="middle" x="714.5" y="-442.51" font-family="Helvetica,sans-Serif" font-size="10.00">Kadath::Space</text>
</a>
</g>
</g>
<!-- Node5&#45;&gt;Node6 -->
<g id="edge6" class="edge">
<title>Node5&#45;&gt;Node6</title>
<path fill="none" stroke="midnightblue" d="M138.3,-489.3C147.29,-488.51 156.35,-487.73 165,-487.01 355.83,-471.12 584.19,-454.36 674.25,-447.84"/>
<polygon fill="midnightblue" stroke="midnightblue" points="137.86,-485.83 128.2,-490.2 138.47,-492.8 137.86,-485.83"/>
</g>
<!-- Node7 -->
<g id="node7" class="node">
<title>Node7</title>
<g id="a_node7"><a xlink:href="classKadath_1_1Domain.html" target="_top" xlink:title=" ">
<polygon fill="none" stroke="black" points="447.5,-612.51 447.5,-631.51 532.5,-631.51 532.5,-612.51 447.5,-612.51"/>
<text text-anchor="middle" x="490" y="-619.51" font-family="Helvetica,sans-Serif" font-size="10.00">Kadath::Domain</text>
</a>
</g>
</g>
<!-- Node5&#45;&gt;Node7 -->
<g id="edge8" class="edge">
<title>Node5&#45;&gt;Node7</title>
<path fill="none" stroke="midnightblue" d="M84.51,-512.17C103.82,-527.39 134.8,-549.76 165,-563.01 260.3,-604.81 383.85,-617 447.32,-620.55"/>
<polygon fill="midnightblue" stroke="midnightblue" points="86.49,-509.27 76.51,-505.74 82.11,-514.73 86.49,-509.27"/>
</g>
<!-- Node8 -->
<g id="node8" class="node">
<title>Node8</title>
<g id="a_node8"><a xlink:href="classKadath_1_1Dim__array.html" target="_top" xlink:title=" ">
<polygon fill="none" stroke="black" points="177,-638.51 177,-657.51 272,-657.51 272,-638.51 177,-638.51"/>
<text text-anchor="middle" x="224.5" y="-645.51" font-family="Helvetica,sans-Serif" font-size="10.00">Kadath::Dim_array</text>
</a>
</g>
</g>
<!-- Node5&#45;&gt;Node8 -->
<g id="edge10" class="edge">
<title>Node5&#45;&gt;Node8</title>
<path fill="none" stroke="midnightblue" d="M72.07,-515.13C83.39,-543.13 108.23,-595.09 146,-624.01 154.95,-630.86 165.87,-635.78 176.66,-639.29"/>
<polygon fill="midnightblue" stroke="midnightblue" points="75.28,-513.73 68.4,-505.67 68.76,-516.26 75.28,-513.73"/>
</g>
<!-- Node9 -->
<g id="node9" class="node">
<title>Node9</title>
<g id="a_node9"><a xlink:href="classKadath_1_1Array.html" target="_top" xlink:title=" ">
<polygon fill="none" stroke="black" points="165,-534.51 165,-553.51 284,-553.51 284,-534.51 165,-534.51"/>
<text text-anchor="middle" x="224.5" y="-541.51" font-family="Helvetica,sans-Serif" font-size="10.00">Kadath::Array&lt; double &gt;</text>
</a>
</g>
</g>
<!-- Node5&#45;&gt;Node9 -->
<g id="edge12" class="edge">
<title>Node5&#45;&gt;Node9</title>
<path fill="none" stroke="midnightblue" d="M106.52,-508.59C133.22,-516.67 167.36,-527.01 191.86,-534.43"/>
<polygon fill="midnightblue" stroke="midnightblue" points="107.28,-505.16 96.69,-505.61 105.25,-511.86 107.28,-505.16"/>
</g>
<!-- Node10 -->
<g id="node10" class="node">
<title>Node10</title>
<g id="a_node10"><a xlink:href="classKadath_1_1Val__domain.html" target="_top" xlink:title=" ">
<polygon fill="none" stroke="black" points="663,-578.51 663,-597.51 766,-597.51 766,-578.51 663,-578.51"/>
<text text-anchor="middle" x="714.5" y="-585.51" font-family="Helvetica,sans-Serif" font-size="10.00">Kadath::Val_domain</text>
</a>
</g>
</g>
<!-- Node5&#45;&gt;Node10 -->
<g id="edge14" class="edge">
<title>Node5&#45;&gt;Node10</title>
<path fill="none" stroke="midnightblue" d="M70.48,-515.53C81.72,-551.71 110.98,-628.97 165,-667.01 216.21,-703.08 239.81,-692.63 302,-700.01 453.88,-718.05 511.06,-745.87 645,-672.01 676.8,-654.48 699.59,-615.64 708.87,-597.58"/>
<polygon fill="midnightblue" stroke="midnightblue" points="73.77,-514.3 67.56,-505.71 67.06,-516.29 73.77,-514.3"/>
</g>
<!-- Node11 -->
<g id="node11" class="node">
<title>Node11</title>
<g id="a_node11"><a xlink:href="classKadath_1_1Base__spectral.html" target="_top" xlink:title=" ">
<polygon fill="none" stroke="black" points="433,-478.51 433,-497.51 547,-497.51 547,-478.51 433,-478.51"/>
<text text-anchor="middle" x="490" y="-485.51" font-family="Helvetica,sans-Serif" font-size="10.00">Kadath::Base_spectral</text>
</a>
</g>
</g>
<!-- Node5&#45;&gt;Node11 -->
<g id="edge18" class="edge">
<title>Node5&#45;&gt;Node11</title>
<path fill="none" stroke="midnightblue" d="M138.21,-494.63C221.86,-493.05 356.95,-490.5 432.76,-489.07"/>
<polygon fill="midnightblue" stroke="midnightblue" points="137.95,-491.14 128.02,-494.82 138.08,-498.13 137.95,-491.14"/>
</g>
<!-- Node12 -->
<g id="node12" class="node">
<title>Node12</title>
<g id="a_node12"><a xlink:href="classKadath_1_1Array.html" target="_top" xlink:title=" ">
<polygon fill="none" stroke="black" points="174,-377.51 174,-396.51 275,-396.51 275,-377.51 174,-377.51"/>
<text text-anchor="middle" x="224.5" y="-384.51" font-family="Helvetica,sans-Serif" font-size="10.00">Kadath::Array&lt; int &gt;</text>
</a>
</g>
</g>
<!-- Node5&#45;&gt;Node12 -->
<g id="edge20" class="edge">
<title>Node5&#45;&gt;Node12</title>
<path fill="none" stroke="midnightblue" d="M87.64,-480.45C120.8,-457.64 181.66,-415.79 209.24,-396.82"/>
<polygon fill="midnightblue" stroke="midnightblue" points="85.32,-477.79 79.07,-486.34 89.29,-483.56 85.32,-477.79"/>
</g>
<!-- Node14 -->
<g id="node14" class="node">
<title>Node14</title>
<g id="a_node14"><a xlink:href="classKadath_1_1Equation.html" target="_top" xlink:title=" ">
<polygon fill="none" stroke="black" points="1958,-716.51 1958,-735.51 2047,-735.51 2047,-716.51 1958,-716.51"/>
<text text-anchor="middle" x="2002.5" y="-723.51" font-family="Helvetica,sans-Serif" font-size="10.00">Kadath::Equation</text>
</a>
</g>
</g>
<!-- Node5&#45;&gt;Node14 -->
<g id="edge24" class="edge">
<title>Node5&#45;&gt;Node14</title>
<path fill="none" stroke="midnightblue" d="M64.4,-515.7C63.19,-592.27 69.62,-866.01 223.5,-866.01 223.5,-866.01 223.5,-866.01 1838.5,-866.01 1918.7,-866.01 1979.16,-767.27 1996.47,-735.64"/>
<polygon fill="midnightblue" stroke="midnightblue" points="67.91,-515.61 64.63,-505.53 60.91,-515.45 67.91,-515.61"/>
</g>
<!-- Node15 -->
<g id="node15" class="node">
<title>Node15</title>
<g id="a_node15"><a xlink:href="classKadath_1_1Ope__eq.html" target="_top" xlink:title=" ">
<polygon fill="none" stroke="black" points="1794.5,-603.51 1794.5,-622.51 1880.5,-622.51 1880.5,-603.51 1794.5,-603.51"/>
<text text-anchor="middle" x="1837.5" y="-610.51" font-family="Helvetica,sans-Serif" font-size="10.00">Kadath::Ope_eq</text>
</a>
</g>
</g>
<!-- Node5&#45;&gt;Node15 -->
<g id="edge27" class="edge">
<title>Node5&#45;&gt;Node15</title>
<path fill="none" stroke="midnightblue" d="M65.24,-515.91C67.25,-587.54 84.34,-828.01 223.5,-828.01 223.5,-828.01 223.5,-828.01 1095,-828.01 1394.57,-828.01 1736.24,-664.14 1818.17,-622.53"/>
<polygon fill="midnightblue" stroke="midnightblue" points="68.73,-515.52 65.03,-505.59 61.73,-515.66 68.73,-515.52"/>
</g>
<!-- Node16 -->
<g id="node16" class="node">
<title>Node16</title>
<g id="a_node16"><a xlink:href="classKadath_1_1Eq__int.html" target="_top" xlink:title=" ">
<polygon fill="none" stroke="black" points="1963,-429.51 1963,-448.51 2042,-448.51 2042,-429.51 1963,-429.51"/>
<text text-anchor="middle" x="2002.5" y="-436.51" font-family="Helvetica,sans-Serif" font-size="10.00">Kadath::Eq_int</text>
</a>
</g>
</g>
<!-- Node5&#45;&gt;Node16 -->
<g id="edge32" class="edge">
<title>Node5&#45;&gt;Node16</title>
<path fill="none" stroke="midnightblue" d="M64.52,-476.24C64.02,-413.39 70.42,-215.27 165,-95.01 183.59,-71.38 193.43,-61.01 223.5,-61.01 223.5,-61.01 223.5,-61.01 1838.5,-61.01 1879.86,-61.01 1979.71,-370.12 1998.44,-429.29"/>
<polygon fill="midnightblue" stroke="midnightblue" points="61.02,-476.41 64.68,-486.35 68.02,-476.3 61.02,-476.41"/>
</g>
<!-- Node17 -->
<g id="node17" class="node">
<title>Node17</title>
<g id="a_node17"><a xlink:href="classKadath_1_1Index.html" target="_top" xlink:title=" ">
<polygon fill="none" stroke="black" points="452.5,-742.51 452.5,-761.51 527.5,-761.51 527.5,-742.51 452.5,-742.51"/>
<text text-anchor="middle" x="490" y="-749.51" font-family="Helvetica,sans-Serif" font-size="10.00">Kadath::Index</text>
</a>
</g>
</g>
<!-- Node5&#45;&gt;Node17 -->
<g id="edge36" class="edge">
<title>Node5&#45;&gt;Node17</title>
<path fill="none" stroke="midnightblue" d="M65.15,-515.72C66.69,-561.62 77.56,-675.73 146,-728.01 193.14,-764.03 373.83,-758.59 452.28,-754.35"/>
<polygon fill="midnightblue" stroke="midnightblue" points="68.65,-515.52 64.93,-505.6 61.65,-515.67 68.65,-515.52"/>
</g>
<!-- Node18 -->
<g id="node18" class="node">
<title>Node18</title>
<g id="a_node18"><a xlink:href="classKadath_1_1Param.html" target="_top" xlink:title=" ">
<polygon fill="none" stroke="black" points="565,-774.51 565,-793.51 645,-793.51 645,-774.51 565,-774.51"/>
<text text-anchor="middle" x="605" y="-781.51" font-family="Helvetica,sans-Serif" font-size="10.00">Kadath::Param</text>
</a>
</g>
</g>
<!-- Node5&#45;&gt;Node18 -->
<g id="edge40" class="edge">
<title>Node5&#45;&gt;Node18</title>
<path fill="none" stroke="midnightblue" d="M64.4,-515.84C64.03,-569.92 71.74,-718.75 165,-761.01 300.9,-822.6 485.26,-803.54 564.8,-791.09"/>
<polygon fill="midnightblue" stroke="midnightblue" points="67.91,-515.61 64.59,-505.55 60.91,-515.48 67.91,-515.61"/>
</g>
<!-- Node19 -->
<g id="node19" class="node">
<title>Node19</title>
<g id="a_node19"><a xlink:href="classKadath_1_1Term__eq.html" target="_top" xlink:title=" ">
<polygon fill="none" stroke="black" points="1227,-248.51 1227,-267.51 1317,-267.51 1317,-248.51 1227,-248.51"/>
<text text-anchor="middle" x="1272" y="-255.51" font-family="Helvetica,sans-Serif" font-size="10.00">Kadath::Term_eq</text>
</a>
</g>
</g>
<!-- Node5&#45;&gt;Node19 -->
<g id="edge43" class="edge">
<title>Node5&#45;&gt;Node19</title>
<path fill="none" stroke="midnightblue" d="M64.63,-475.96C64.35,-400.39 74.11,-137.01 223.5,-137.01 223.5,-137.01 223.5,-137.01 799.5,-137.01 905.82,-137.01 949.7,-115.55 1035,-179.01 1049.03,-189.45 1039.05,-203.46 1053,-214.01 1079.87,-234.33 1171.4,-247.39 1226.95,-253.65"/>
<polygon fill="midnightblue" stroke="midnightblue" points="61.13,-476.45 64.74,-486.41 68.13,-476.37 61.13,-476.45"/>
</g>
<!-- Node20 -->
<g id="node20" class="node">
<title>Node20</title>
<g id="a_node20"><a xlink:href="classKadath_1_1Tensor.html" target="_top" xlink:title=" ">
<polygon fill="none" stroke="black" points="1053,-304.51 1053,-323.51 1135,-323.51 1135,-304.51 1053,-304.51"/>
<text text-anchor="middle" x="1094" y="-311.51" font-family="Helvetica,sans-Serif" font-size="10.00">Kadath::Tensor</text>
</a>
</g>
</g>
<!-- Node5&#45;&gt;Node20 -->
<g id="edge45" class="edge">
<title>Node5&#45;&gt;Node20</title>
<path fill="none" stroke="midnightblue" d="M65.51,-476.32C68.45,-406.5 88.38,-175.01 223.5,-175.01 223.5,-175.01 223.5,-175.01 885.5,-175.01 956.3,-175.01 979.05,-186.63 1035,-230.01 1042,-235.44 1073.46,-283.66 1086.89,-304.49"/>
<polygon fill="midnightblue" stroke="midnightblue" points="62.01,-476.29 65.16,-486.41 69,-476.53 62.01,-476.29"/>
</g>
<!-- Node22 -->
<g id="node22" class="node">
<title>Node22</title>
<g id="a_node22"><a xlink:href="classKadath_1_1Base__tensor.html" target="_top" xlink:title=" ">
<polygon fill="none" stroke="black" points="831,-261.51 831,-280.51 938,-280.51 938,-261.51 831,-261.51"/>
<text text-anchor="middle" x="884.5" y="-268.51" font-family="Helvetica,sans-Serif" font-size="10.00">Kadath::Base_tensor</text>
</a>
</g>
</g>
<!-- Node5&#45;&gt;Node22 -->
<g id="edge52" class="edge">
<title>Node5&#45;&gt;Node22</title>
<path fill="none" stroke="midnightblue" d="M65.36,-476.41C67.26,-397.31 78.8,-103.17 146,-47.01 333.72,109.88 426.22,-174.48 663,-236.01 719.46,-250.69 785.74,-260.2 830.79,-265.56"/>
<polygon fill="midnightblue" stroke="midnightblue" points="61.86,-476.39 65.14,-486.47 68.86,-476.54 61.86,-476.39"/>
</g>
<!-- Node23 -->
<g id="node23" class="node">
<title>Node23</title>
<g id="a_node23"><a xlink:href="classKadath_1_1Param__tensor.html" target="_top" xlink:title=" ">
<polygon fill="none" stroke="black" points="302,-237.51 302,-256.51 415,-256.51 415,-237.51 302,-237.51"/>
<text text-anchor="middle" x="358.5" y="-244.51" font-family="Helvetica,sans-Serif" font-size="10.00">Kadath::Param_tensor</text>
</a>
</g>
</g>
<!-- Node5&#45;&gt;Node23 -->
<g id="edge56" class="edge">
<title>Node5&#45;&gt;Node23</title>
<path fill="none" stroke="midnightblue" d="M76.27,-477.82C93.23,-451.44 127.34,-402.01 165,-368.01 221.11,-317.36 300.99,-274.78 337.68,-256.54"/>
<polygon fill="midnightblue" stroke="midnightblue" points="73.22,-476.1 70.83,-486.43 79.13,-479.85 73.22,-476.1"/>
</g>
<!-- Node6&#45;&gt;Node4 -->
<g id="edge5" class="edge">
<title>Node6&#45;&gt;Node4</title>
<path fill="none" stroke="#9a32cd" stroke-dasharray="5,2" d="M764.99,-443.94C827.89,-442.21 939.75,-437.95 1035,-428.01 1161.16,-414.85 1193.13,-411.33 1317,-384.01 1375.25,-371.17 1397.77,-382.1 1446,-347.01 1473.14,-327.26 1491.24,-290.22 1498.67,-272.69"/>
<polygon fill="#9a32cd" stroke="#9a32cd" points="764.85,-440.44 754.95,-444.2 765.04,-447.44 764.85,-440.44"/>
<text text-anchor="middle" x="1094" y="-428.01" font-family="Helvetica,sans-Serif" font-size="10.00"> espace</text>
</g>
<!-- Node6&#45;&gt;Node13 -->
<g id="edge34" class="edge">
<title>Node6&#45;&gt;Node13</title>
<path fill="none" stroke="#9a32cd" stroke-dasharray="5,2" d="M764.73,-453.77C897.97,-476.29 1276.79,-532.53 1591,-504.01 1601.49,-503.06 1612.69,-501.39 1623.19,-499.53"/>
<polygon fill="#9a32cd" stroke="#9a32cd" points="765.26,-450.31 754.82,-452.08 764.09,-457.21 765.26,-450.31"/>
<text text-anchor="middle" x="1181" y="-508.01" font-family="Helvetica,sans-Serif" font-size="10.00"> espace</text>
</g>
<!-- Node6&#45;&gt;Node20 -->
<g id="edge46" class="edge">
<title>Node6&#45;&gt;Node20</title>
<path fill="none" stroke="#9a32cd" stroke-dasharray="5,2" d="M752.54,-432.16C828.12,-405.93 998.58,-346.78 1065.4,-323.59"/>
<polygon fill="#9a32cd" stroke="#9a32cd" points="751.25,-428.9 742.95,-435.49 753.55,-435.51 751.25,-428.9"/>
<text text-anchor="middle" x="884.5" y="-406.01" font-family="Helvetica,sans-Serif" font-size="10.00"> espace</text>
</g>
<!-- Node6&#45;&gt;Node22 -->
<g id="edge53" class="edge">
<title>Node6&#45;&gt;Node22</title>
<path fill="none" stroke="#9a32cd" stroke-dasharray="5,2" d="M727.19,-427.05C740.01,-407.98 761.75,-377.41 784,-354.01 812.06,-324.51 850.18,-295.24 870.11,-280.61"/>
<polygon fill="#9a32cd" stroke="#9a32cd" points="724.26,-425.15 721.65,-435.41 730.09,-429.01 724.26,-425.15"/>
<text text-anchor="middle" x="798.5" y="-357.01" font-family="Helvetica,sans-Serif" font-size="10.00"> space</text>
</g>
<!-- Node7&#45;&gt;Node6 -->
<g id="edge7" class="edge">
<title>Node7&#45;&gt;Node6</title>
<path fill="none" stroke="#9a32cd" stroke-dasharray="5,2" d="M527.96,-608.38C534.51,-605.35 541.12,-601.87 547,-598.01 556.2,-591.97 556.35,-587.82 565,-581.01 598.33,-554.79 613.44,-557.34 645,-529.01 671.33,-505.38 695.93,-471.16 707.14,-454.64"/>
<polygon fill="#9a32cd" stroke="#9a32cd" points="526.26,-605.3 518.48,-612.49 529.04,-611.72 526.26,-605.3"/>
<text text-anchor="middle" x="605" y="-584.01" font-family="Helvetica,sans-Serif" font-size="10.00"> domains</text>
</g>
<!-- Node7&#45;&gt;Node10 -->
<g id="edge21" class="edge">
<title>Node7&#45;&gt;Node10</title>
<path fill="none" stroke="#9a32cd" stroke-dasharray="5,2" d="M518.59,-636.09C550.07,-650.16 602.69,-667.51 645,-651.01 672.7,-640.21 695.97,-612.39 706.87,-597.6"/>
<polygon fill="#9a32cd" stroke="#9a32cd" points="519.69,-632.74 509.15,-631.69 516.73,-639.09 519.69,-632.74"/>
<text text-anchor="middle" x="605" y="-660.01" font-family="Helvetica,sans-Serif" font-size="10.00"> zone</text>
</g>
<!-- Node7&#45;&gt;Node14 -->
<g id="edge30" class="edge">
<title>Node7&#45;&gt;Node14</title>
<path fill="none" stroke="#9a32cd" stroke-dasharray="5,2" d="M509.44,-638.56C523.56,-650.16 544.12,-664.83 565,-672.01 805.12,-754.6 882.99,-679.86 1135,-711.01 1332.18,-735.39 1376.32,-790.01 1575,-790.01 1575,-790.01 1575,-790.01 1838.5,-790.01 1897.18,-790.01 1960.02,-753.64 1987.4,-735.73"/>
<polygon fill="#9a32cd" stroke="#9a32cd" points="511.41,-635.64 501.53,-631.83 506.87,-640.98 511.41,-635.64"/>
<text text-anchor="middle" x="1272" y="-751.01" font-family="Helvetica,sans-Serif" font-size="10.00"> dom</text>
</g>
<!-- Node8&#45;&gt;Node7 -->
<g id="edge9" class="edge">
<title>Node8&#45;&gt;Node7</title>
<path fill="none" stroke="#9a32cd" stroke-dasharray="5,2" d="M282.25,-642.41C331.86,-637.52 402.75,-630.52 447.3,-626.13"/>
<polygon fill="#9a32cd" stroke="#9a32cd" points="281.61,-638.96 272,-643.42 282.3,-645.93 281.61,-638.96"/>
<text text-anchor="middle" x="358.5" y="-654.01" font-family="Helvetica,sans-Serif" font-size="10.00"> nbr_coefs</text>
<text text-anchor="middle" x="358.5" y="-643.01" font-family="Helvetica,sans-Serif" font-size="10.00">nbr_points</text>
</g>
<!-- Node8&#45;&gt;Node17 -->
<g id="edge37" class="edge">
<title>Node8&#45;&gt;Node17</title>
<path fill="none" stroke="#9a32cd" stroke-dasharray="5,2" d="M259.28,-661.34C313.22,-682.64 417.53,-723.81 464.74,-742.44"/>
<polygon fill="#9a32cd" stroke="#9a32cd" points="260.4,-658.03 249.82,-657.61 257.83,-664.54 260.4,-658.03"/>
<text text-anchor="middle" x="358.5" y="-724.01" font-family="Helvetica,sans-Serif" font-size="10.00"> sizes</text>
</g>
<!-- Node9&#45;&gt;Node7 -->
<g id="edge11" class="edge">
<title>Node9&#45;&gt;Node7</title>
<path fill="none" stroke="#9a32cd" stroke-dasharray="5,2" d="M275.08,-555.91C284.03,-557.99 293.29,-560.1 302,-562.01 352.06,-572.99 368.06,-564.44 415,-585.01 424.04,-588.97 424.41,-593.15 433,-598.01 442.57,-603.43 453.61,-608.41 463.34,-612.41"/>
<polygon fill="#9a32cd" stroke="#9a32cd" points="275.69,-552.46 265.15,-553.58 274.09,-559.27 275.69,-552.46"/>
<text text-anchor="middle" x="358.5" y="-588.01" font-family="Helvetica,sans-Serif" font-size="10.00"> coloc</text>
</g>
<!-- Node9&#45;&gt;Node10 -->
<g id="edge15" class="edge">
<title>Node9&#45;&gt;Node10</title>
<path fill="none" stroke="#9a32cd" stroke-dasharray="5,2" d="M294.31,-543.81C404.63,-543.73 612.08,-544.71 645,-553.01 665.2,-558.1 686.22,-569.99 699.56,-578.49"/>
<polygon fill="#9a32cd" stroke="#9a32cd" points="294.27,-540.31 284.27,-543.82 294.27,-547.31 294.27,-540.31"/>
<text text-anchor="middle" x="490" y="-560.01" font-family="Helvetica,sans-Serif" font-size="10.00"> c</text>
<text text-anchor="middle" x="490" y="-549.01" font-family="Helvetica,sans-Serif" font-size="10.00">cf</text>
</g>
<!-- Node9&#45;&gt;Node13 -->
<g id="edge41" class="edge">
<title>Node9&#45;&gt;Node13</title>
<path fill="none" stroke="#9a32cd" stroke-dasharray="5,2" d="M294.38,-540.24C296.95,-540.16 299.5,-540.08 302,-540.01 410.85,-537.17 438.12,-538.35 547,-540.01 590.57,-540.68 601.59,-539.19 645,-543.01 801.37,-556.77 837.52,-594.01 994.5,-594.01 994.5,-594.01 994.5,-594.01 1504.5,-594.01 1574.32,-594.01 1638.29,-525.36 1659.82,-499.61"/>
<polygon fill="#9a32cd" stroke="#9a32cd" points="294.24,-536.75 284.38,-540.62 294.5,-543.74 294.24,-536.75"/>
<text text-anchor="middle" x="995.5" y="-597.01" font-family="Helvetica,sans-Serif" font-size="10.00"> val_cst_hard</text>
</g>
<!-- Node10&#45;&gt;Node7 -->
<g id="edge13" class="edge">
<title>Node10&#45;&gt;Node7</title>
<path fill="none" stroke="#9a32cd" stroke-dasharray="5,2" d="M652.79,-594.77C625.83,-598.03 593.77,-602.26 565,-607.01 554.52,-608.74 543.27,-610.88 532.78,-612.99"/>
<polygon fill="#9a32cd" stroke="#9a32cd" points="653.33,-598.23 662.85,-593.57 652.5,-591.28 653.33,-598.23"/>
<text text-anchor="middle" x="605" y="-643.01" font-family="Helvetica,sans-Serif" font-size="10.00"> absol</text>
<text text-anchor="middle" x="605" y="-632.01" font-family="Helvetica,sans-Serif" font-size="10.00">cart</text>
<text text-anchor="middle" x="605" y="-621.01" font-family="Helvetica,sans-Serif" font-size="10.00">cart_surr</text>
<text text-anchor="middle" x="605" y="-610.01" font-family="Helvetica,sans-Serif" font-size="10.00">radius</text>
</g>
<!-- Node10&#45;&gt;Node10 -->
<g id="edge16" class="edge">
<title>Node10&#45;&gt;Node10</title>
<path fill="none" stroke="#9a32cd" stroke-dasharray="5,2" d="M699.03,-607.78C700.25,-612.51 705.4,-616.01 714.5,-616.01 729.43,-616.01 733.75,-606.58 727.45,-597.77"/>
<polygon fill="#9a32cd" stroke="#9a32cd" points="702.5,-608.32 701.55,-597.77 695.72,-606.61 702.5,-608.32"/>
<text text-anchor="middle" x="714.5" y="-630.01" font-family="Helvetica,sans-Serif" font-size="10.00"> p_der_abs</text>
<text text-anchor="middle" x="714.5" y="-619.01" font-family="Helvetica,sans-Serif" font-size="10.00">p_der_var</text>
</g>
<!-- Node21 -->
<g id="node21" class="node">
<title>Node21</title>
<g id="a_node21"><a xlink:href="classKadath_1_1Scalar.html" target="_top" xlink:title=" ">
<polygon fill="none" stroke="black" points="1232,-355.51 1232,-374.51 1312,-374.51 1312,-355.51 1232,-355.51"/>
<text text-anchor="middle" x="1272" y="-362.51" font-family="Helvetica,sans-Serif" font-size="10.00">Kadath::Scalar</text>
</a>
</g>
</g>
<!-- Node10&#45;&gt;Node21 -->
<g id="edge49" class="edge">
<title>Node10&#45;&gt;Node21</title>
<path fill="none" stroke="#9a32cd" stroke-dasharray="5,2" d="M748.9,-574.61C851.28,-533.5 1159.14,-409.92 1247.22,-374.56"/>
<polygon fill="#9a32cd" stroke="#9a32cd" points="747.35,-571.46 739.37,-578.43 749.95,-577.95 747.35,-571.46"/>
<text text-anchor="middle" x="995.5" y="-492.01" font-family="Helvetica,sans-Serif" font-size="10.00"> val_zones</text>
</g>
<!-- Node11&#45;&gt;Node10 -->
<g id="edge17" class="edge">
<title>Node11&#45;&gt;Node10</title>
<path fill="none" stroke="#9a32cd" stroke-dasharray="5,2" d="M557.52,-489.78C585.86,-492.87 618.45,-499.66 645,-514.01 673.95,-529.67 697.32,-562.24 707.7,-578.44"/>
<polygon fill="#9a32cd" stroke="#9a32cd" points="557.57,-486.27 547.28,-488.81 556.91,-493.24 557.57,-486.27"/>
<text text-anchor="middle" x="605" y="-517.01" font-family="Helvetica,sans-Serif" font-size="10.00"> base</text>
</g>
<!-- Node12&#45;&gt;Node11 -->
<g id="edge19" class="edge">
<title>Node12&#45;&gt;Node11</title>
<path fill="none" stroke="#9a32cd" stroke-dasharray="5,2" d="M259.74,-400.14C313.57,-420.77 416.71,-460.3 464.08,-478.46"/>
<polygon fill="#9a32cd" stroke="#9a32cd" points="260.88,-396.83 250.29,-396.51 258.37,-403.36 260.88,-396.83"/>
<text text-anchor="middle" x="358.5" y="-461.01" font-family="Helvetica,sans-Serif" font-size="10.00"> bases_1d</text>
</g>
<!-- Node12&#45;&gt;Node13 -->
<g id="edge38" class="edge">
<title>Node12&#45;&gt;Node13</title>
<path fill="none" stroke="#9a32cd" stroke-dasharray="5,2" d="M285.59,-386.28C322.86,-386.09 371.73,-386.3 415,-388.01 659.49,-397.68 1246.19,-466.37 1335,-473.01 1430.83,-480.18 1542.42,-485.21 1608.89,-487.85"/>
<polygon fill="#9a32cd" stroke="#9a32cd" points="285.37,-382.78 275.39,-386.34 285.42,-389.78 285.37,-382.78"/>
<text text-anchor="middle" x="995.5" y="-455.01" font-family="Helvetica,sans-Serif" font-size="10.00"> assoc_var</text>
<text text-anchor="middle" x="995.5" y="-444.01" font-family="Helvetica,sans-Serif" font-size="10.00">assoc_var_double</text>
</g>
<!-- Node12&#45;&gt;Node14 -->
<g id="edge25" class="edge">
<title>Node12&#45;&gt;Node14</title>
<path fill="none" stroke="#9a32cd" stroke-dasharray="5,2" d="M285.39,-393.85C322.78,-398.47 371.85,-405.14 415,-413.01 671.99,-459.92 1303.53,-630.81 1561,-675.01 1705.36,-699.79 1878.44,-715.91 1957.82,-722.55"/>
<polygon fill="#9a32cd" stroke="#9a32cd" points="285.52,-390.34 275.17,-392.61 284.67,-397.29 285.52,-390.34"/>
<text text-anchor="middle" x="1181" y="-612.01" font-family="Helvetica,sans-Serif" font-size="10.00"> n_cond</text>
<text text-anchor="middle" x="1181" y="-601.01" font-family="Helvetica,sans-Serif" font-size="10.00">p_cmp_used</text>
</g>
<!-- Node12&#45;&gt;Node20 -->
<g id="edge50" class="edge">
<title>Node12&#45;&gt;Node20</title>
<path fill="none" stroke="#9a32cd" stroke-dasharray="5,2" d="M256.86,-373.7C270.48,-368.51 286.78,-363.08 302,-360.01 585.19,-302.99 936.05,-308.57 1052.99,-312.41"/>
<polygon fill="#9a32cd" stroke="#9a32cd" points="255.48,-370.48 247.46,-377.4 258.05,-376.99 255.48,-370.48"/>
<text text-anchor="middle" x="714.5" y="-330.01" font-family="Helvetica,sans-Serif" font-size="10.00"> give_indices</text>
<text text-anchor="middle" x="714.5" y="-319.01" font-family="Helvetica,sans-Serif" font-size="10.00">type_indice</text>
</g>
<!-- Node12&#45;&gt;Node22 -->
<g id="edge54" class="edge">
<title>Node12&#45;&gt;Node22</title>
<path fill="none" stroke="#9a32cd" stroke-dasharray="5,2" d="M246.44,-371.08C257.8,-362.22 271.94,-350.83 284,-340.01 292.42,-332.46 291.75,-326.8 302,-322.01 349.24,-299.98 696.17,-280.42 830.54,-273.59"/>
<polygon fill="#9a32cd" stroke="#9a32cd" points="244.15,-368.43 238.38,-377.31 248.43,-373.97 244.15,-368.43"/>
<text text-anchor="middle" x="605" y="-292.01" font-family="Helvetica,sans-Serif" font-size="10.00"> basis</text>
</g>
<!-- Node13&#45;&gt;Node4 -->
<g id="edge22" class="edge">
<title>Node13&#45;&gt;Node4</title>
<path fill="none" stroke="#9a32cd" stroke-dasharray="5,2" d="M1664.91,-470.14C1658.89,-431.64 1640.48,-346.35 1591,-297.01 1578.09,-284.14 1559.72,-276.01 1543.23,-270.94"/>
<polygon fill="#9a32cd" stroke="#9a32cd" points="1661.46,-470.7 1666.35,-480.09 1668.38,-469.7 1661.46,-470.7"/>
<text text-anchor="middle" x="1576" y="-300.01" font-family="Helvetica,sans-Serif" font-size="10.00"> syst</text>
</g>
<!-- Node13&#45;&gt;Node15 -->
<g id="edge29" class="edge">
<title>Node13&#45;&gt;Node15</title>
<path fill="none" stroke="#9a32cd" stroke-dasharray="5,2" d="M1679.11,-508.58C1691.56,-530.79 1715.35,-567.55 1746,-588.01 1760.37,-597.61 1778.35,-603.54 1794.5,-607.2"/>
<polygon fill="#9a32cd" stroke="#9a32cd" points="1682.18,-506.9 1674.34,-499.77 1676.02,-510.23 1682.18,-506.9"/>
<text text-anchor="middle" x="1757" y="-601.01" font-family="Helvetica,sans-Serif" font-size="10.00"> syst</text>
</g>
<!-- Node14&#45;&gt;Node13 -->
<g id="edge23" class="edge">
<title>Node14&#45;&gt;Node13</title>
<path fill="none" stroke="#9a32cd" stroke-dasharray="5,2" d="M1991.08,-707.34C1973.54,-677.42 1935.45,-618.51 1889,-583.01 1832.44,-539.79 1752.8,-512.67 1706.62,-499.52"/>
<polygon fill="#9a32cd" stroke="#9a32cd" points="1988.21,-709.37 1996.22,-716.3 1994.28,-705.88 1988.21,-709.37"/>
<text text-anchor="middle" x="1837.5" y="-586.01" font-family="Helvetica,sans-Serif" font-size="10.00"> eq</text>
</g>
<!-- Node15&#45;&gt;Node14 -->
<g id="edge26" class="edge">
<title>Node15&#45;&gt;Node14</title>
<path fill="none" stroke="#9a32cd" stroke-dasharray="5,2" d="M1860.79,-628.47C1894.99,-652.18 1959.4,-696.83 1987.64,-716.4"/>
<polygon fill="#9a32cd" stroke="#9a32cd" points="1862.61,-625.47 1852.4,-622.65 1858.62,-631.22 1862.61,-625.47"/>
<text text-anchor="middle" x="1919.5" y="-679.01" font-family="Helvetica,sans-Serif" font-size="10.00"> parts</text>
</g>
<!-- Node15&#45;&gt;Node15 -->
<g id="edge28" class="edge">
<title>Node15&#45;&gt;Node15</title>
<path fill="none" stroke="#9a32cd" stroke-dasharray="5,2" d="M1822.77,-632.78C1823.92,-637.51 1828.84,-641.01 1837.5,-641.01 1851.72,-641.01 1855.83,-631.58 1849.83,-622.77"/>
<polygon fill="#9a32cd" stroke="#9a32cd" points="1826.24,-633.31 1825.17,-622.77 1819.43,-631.68 1826.24,-633.31"/>
<text text-anchor="middle" x="1837.5" y="-644.01" font-family="Helvetica,sans-Serif" font-size="10.00"> parts</text>
</g>
<!-- Node15&#45;&gt;Node16 -->
<g id="edge33" class="edge">
<title>Node15&#45;&gt;Node16</title>
<path fill="none" stroke="#9a32cd" stroke-dasharray="5,2" d="M1877.33,-598.51C1881.62,-595.81 1885.65,-592.66 1889,-589.01 1904.41,-572.23 1896.99,-561.48 1907,-541.01 1923.04,-508.21 1924.25,-496.9 1950,-471.01 1959.13,-461.83 1971.38,-454.09 1981.64,-448.52"/>
<polygon fill="#9a32cd" stroke="#9a32cd" points="1875.37,-595.6 1868.26,-603.45 1878.72,-601.74 1875.37,-595.6"/>
<text text-anchor="middle" x="1919.5" y="-544.01" font-family="Helvetica,sans-Serif" font-size="10.00"> parts</text>
</g>
<!-- Node24 -->
<g id="node24" class="node">
<title>Node24</title>
<g id="a_node24"><a xlink:href="classKadath_1_1Ope__def.html" target="_top" xlink:title=" ">
<polygon fill="none" stroke="black" points="1958,-480.51 1958,-499.51 2047,-499.51 2047,-480.51 1958,-480.51"/>
<text text-anchor="middle" x="2002.5" y="-487.51" font-family="Helvetica,sans-Serif" font-size="10.00">Kadath::Ope_def</text>
</a>
</g>
</g>
<!-- Node15&#45;&gt;Node24 -->
<g id="edge60" class="edge">
<title>Node15&#45;&gt;Node24</title>
<path fill="none" stroke="midnightblue" d="M1871.39,-599.02C1877.41,-596 1883.52,-592.62 1889,-589.01 1931.15,-561.24 1974.02,-518.71 1992.32,-499.73"/>
<polygon fill="midnightblue" stroke="midnightblue" points="1869.63,-595.98 1862.11,-603.44 1872.64,-602.3 1869.63,-595.98"/>
</g>
<!-- Node16&#45;&gt;Node13 -->
<g id="edge31" class="edge">
<title>Node16&#45;&gt;Node13</title>
<path fill="none" stroke="#9a32cd" stroke-dasharray="5,2" d="M1952.75,-446.5C1893.03,-455.67 1791.97,-471.2 1728.09,-481.01"/>
<polygon fill="#9a32cd" stroke="#9a32cd" points="1953.33,-449.95 1962.68,-444.98 1952.26,-443.04 1953.33,-449.95"/>
<text text-anchor="middle" x="1837.5" y="-475.01" font-family="Helvetica,sans-Serif" font-size="10.00"> eq_int</text>
</g>
<!-- Node17&#45;&gt;Node13 -->
<g id="edge35" class="edge">
<title>Node17&#45;&gt;Node13</title>
<path fill="none" stroke="#9a32cd" stroke-dasharray="5,2" d="M537.52,-751.21C723.66,-747.22 1413.2,-724.67 1591,-608.01 1632.44,-580.82 1656.26,-522.56 1664.35,-499.6"/>
<polygon fill="#9a32cd" stroke="#9a32cd" points="537.44,-747.71 527.51,-751.42 537.58,-754.71 537.44,-747.71"/>
<text text-anchor="middle" x="1094" y="-726.01" font-family="Helvetica,sans-Serif" font-size="10.00"> which_coef</text>
</g>
<!-- Node18&#45;&gt;Node13 -->
<g id="edge39" class="edge">
<title>Node18&#45;&gt;Node13</title>
<path fill="none" stroke="#9a32cd" stroke-dasharray="5,2" d="M655.16,-783.89C833.53,-782.47 1443.86,-769.01 1591,-652.01 1642.12,-611.36 1660.85,-528.39 1665.93,-499.89"/>
<polygon fill="#9a32cd" stroke="#9a32cd" points="655,-780.39 645.02,-783.96 655.05,-787.39 655,-780.39"/>
<text text-anchor="middle" x="1094" y="-781.01" font-family="Helvetica,sans-Serif" font-size="10.00"> paruser</text>
<text text-anchor="middle" x="1094" y="-770.01" font-family="Helvetica,sans-Serif" font-size="10.00">paruser_bin</text>
</g>
<!-- Node19&#45;&gt;Node4 -->
<g id="edge62" class="edge">
<title>Node19&#45;&gt;Node4</title>
<path fill="none" stroke="#9a32cd" stroke-dasharray="5,2" d="M1327.32,-257.42C1361.41,-257.28 1406.29,-257.49 1446,-259.01 1451.8,-259.23 1457.92,-259.57 1463.92,-259.95"/>
<polygon fill="#9a32cd" stroke="#9a32cd" points="1327.08,-253.93 1317.1,-257.48 1327.12,-260.92 1327.08,-253.93"/>
<text text-anchor="middle" x="1390.5" y="-339.01" font-family="Helvetica,sans-Serif" font-size="10.00"> p_christo</text>
<text text-anchor="middle" x="1390.5" y="-328.01" font-family="Helvetica,sans-Serif" font-size="10.00">p_det_cov</text>
<text text-anchor="middle" x="1390.5" y="-317.01" font-family="Helvetica,sans-Serif" font-size="10.00">p_dirac</text>
<text text-anchor="middle" x="1390.5" y="-306.01" font-family="Helvetica,sans-Serif" font-size="10.00">p_met_con</text>
<text text-anchor="middle" x="1390.5" y="-295.01" font-family="Helvetica,sans-Serif" font-size="10.00">p_met_cov</text>
<text text-anchor="middle" x="1390.5" y="-284.01" font-family="Helvetica,sans-Serif" font-size="10.00">p_ricci_scalar</text>
<text text-anchor="middle" x="1390.5" y="-273.01" font-family="Helvetica,sans-Serif" font-size="10.00">p_ricci_tensor</text>
<text text-anchor="middle" x="1390.5" y="-262.01" font-family="Helvetica,sans-Serif" font-size="10.00">p_riemann</text>
</g>
<!-- Node19&#45;&gt;Node13 -->
<g id="edge42" class="edge">
<title>Node19&#45;&gt;Node13</title>
<path fill="none" stroke="#9a32cd" stroke-dasharray="5,2" d="M1291.46,-274.56C1300.08,-283.02 1309.97,-293.87 1317,-305.01 1328.71,-323.58 1317.17,-338.2 1335,-351.01 1410.17,-405.01 1454.88,-332.71 1543,-361.01 1567.18,-368.78 1572.26,-374.88 1591,-392.01 1621.74,-420.12 1649.61,-461.55 1661.47,-480.24"/>
<polygon fill="#9a32cd" stroke="#9a32cd" points="1293.69,-271.84 1284.02,-267.52 1288.88,-276.93 1293.69,-271.84"/>
<text text-anchor="middle" x="1503.5" y="-430.01" font-family="Helvetica,sans-Serif" font-size="10.00"> cst</text>
<text text-anchor="middle" x="1503.5" y="-419.01" font-family="Helvetica,sans-Serif" font-size="10.00">cst_hard</text>
<text text-anchor="middle" x="1503.5" y="-408.01" font-family="Helvetica,sans-Serif" font-size="10.00">opeuser</text>
<text text-anchor="middle" x="1503.5" y="-397.01" font-family="Helvetica,sans-Serif" font-size="10.00">opeuser_bin</text>
<text text-anchor="middle" x="1503.5" y="-386.01" font-family="Helvetica,sans-Serif" font-size="10.00">results</text>
<text text-anchor="middle" x="1503.5" y="-375.01" font-family="Helvetica,sans-Serif" font-size="10.00">term</text>
<text text-anchor="middle" x="1503.5" y="-364.01" font-family="Helvetica,sans-Serif" font-size="10.00">term_double</text>
</g>
<!-- Node19&#45;&gt;Node24 -->
<g id="edge61" class="edge">
<title>Node19&#45;&gt;Node24</title>
<path fill="none" stroke="#9a32cd" stroke-dasharray="5,2" d="M1322.55,-246.47C1386.48,-233.86 1500.27,-219.27 1591,-250.01 1634.78,-264.85 1916.24,-437.47 1985.91,-480.4"/>
<polygon fill="#9a32cd" stroke="#9a32cd" points="1321.83,-243.04 1312.73,-248.47 1323.23,-249.9 1321.83,-243.04"/>
<text text-anchor="middle" x="1668.5" y="-327.01" font-family="Helvetica,sans-Serif" font-size="10.00"> res</text>
</g>
<!-- Node20&#45;&gt;Node13 -->
<g id="edge58" class="edge">
<title>Node20&#45;&gt;Node13</title>
<path fill="none" stroke="#9a32cd" stroke-dasharray="5,2" d="M1107.86,-331.92C1118.52,-345.55 1134.83,-363.82 1153,-375.01 1323.1,-479.78 1394.43,-440.37 1591,-476.01 1598.97,-477.46 1607.41,-479 1615.65,-480.5"/>
<polygon fill="#9a32cd" stroke="#9a32cd" points="1110.52,-329.63 1101.7,-323.75 1104.93,-333.84 1110.52,-329.63"/>
<text text-anchor="middle" x="1390.5" y="-461.01" font-family="Helvetica,sans-Serif" font-size="10.00"> var</text>
</g>
<!-- Node20&#45;&gt;Node19 -->
<g id="edge44" class="edge">
<title>Node20&#45;&gt;Node19</title>
<path fill="none" stroke="#9a32cd" stroke-dasharray="5,2" d="M1114.8,-297.97C1125.5,-290.12 1139.3,-281.26 1153,-276.01 1176.51,-267.01 1204.29,-262.5 1226.98,-260.24"/>
<polygon fill="#9a32cd" stroke="#9a32cd" points="1112.43,-295.37 1106.61,-304.22 1116.68,-300.94 1112.43,-295.37"/>
<text text-anchor="middle" x="1181" y="-290.01" font-family="Helvetica,sans-Serif" font-size="10.00"> der_t</text>
<text text-anchor="middle" x="1181" y="-279.01" font-family="Helvetica,sans-Serif" font-size="10.00">val_t</text>
</g>
<!-- Node20&#45;&gt;Node21 -->
<g id="edge48" class="edge">
<title>Node20&#45;&gt;Node21</title>
<path fill="none" stroke="midnightblue" d="M1137.74,-326.4C1168.61,-335.34 1209.7,-347.25 1238.04,-355.46"/>
<polygon fill="midnightblue" stroke="midnightblue" points="1138.68,-323.03 1128.1,-323.61 1136.73,-329.75 1138.68,-323.03"/>
</g>
<!-- Node25 -->
<g id="node25" class="node">
<title>Node25</title>
<g id="a_node25"><a xlink:href="classKadath_1_1Metric__tensor.html" target="_top" xlink:title=" ">
<polygon fill="none" stroke="black" points="1335,-402.51 1335,-421.51 1446,-421.51 1446,-402.51 1335,-402.51"/>
<text text-anchor="middle" x="1390.5" y="-409.51" font-family="Helvetica,sans-Serif" font-size="10.00">Kadath::Metric_tensor</text>
</a>
</g>
</g>
<!-- Node20&#45;&gt;Node25 -->
<g id="edge64" class="edge">
<title>Node20&#45;&gt;Node25</title>
<path fill="none" stroke="midnightblue" d="M1145.57,-307.06C1195.05,-303.21 1269.69,-305.69 1317,-346.01 1335.61,-361.88 1317.01,-381.44 1335,-398.01 1336.8,-399.67 1338.76,-401.13 1340.85,-402.43"/>
<polygon fill="midnightblue" stroke="midnightblue" points="1145.06,-303.59 1135.41,-307.97 1145.68,-310.57 1145.06,-303.59"/>
</g>
<!-- Node21&#45;&gt;Node20 -->
<g id="edge47" class="edge">
<title>Node21&#45;&gt;Node20</title>
<path fill="none" stroke="#9a32cd" stroke-dasharray="5,2" d="M1221.6,-362.18C1200.07,-359.86 1174.83,-355.65 1153,-348.01 1136.47,-342.23 1119.4,-331.55 1108.1,-323.7"/>
<polygon fill="#9a32cd" stroke="#9a32cd" points="1221.55,-365.69 1231.84,-363.17 1222.22,-358.72 1221.55,-365.69"/>
<text text-anchor="middle" x="1181" y="-363.01" font-family="Helvetica,sans-Serif" font-size="10.00"> cmp</text>
</g>
<!-- Node22&#45;&gt;Node3 -->
<g id="edge65" class="edge">
<title>Node22&#45;&gt;Node3</title>
<path fill="none" stroke="#9a32cd" stroke-dasharray="5,2" d="M936.34,-259.02C965.42,-251.84 1002.47,-242.16 1035,-232.01 1193.39,-182.6 1223.59,-115.01 1389.5,-115.01 1389.5,-115.01 1389.5,-115.01 1669.5,-115.01 1742.81,-115.01 1808.22,-190.38 1829.36,-217.46"/>
<polygon fill="#9a32cd" stroke="#9a32cd" points="935.28,-255.67 926.4,-261.45 936.95,-262.47 935.28,-255.67"/>
<text text-anchor="middle" x="1390.5" y="-121.01" font-family="Helvetica,sans-Serif" font-size="10.00"> basis</text>
</g>
<!-- Node22&#45;&gt;Node20 -->
<g id="edge51" class="edge">
<title>Node22&#45;&gt;Node20</title>
<path fill="none" stroke="#9a32cd" stroke-dasharray="5,2" d="M948.26,-278.12C975.18,-281.82 1006.86,-287.06 1035,-294.01 1046.17,-296.77 1058.23,-300.76 1068.46,-304.46"/>
<polygon fill="#9a32cd" stroke="#9a32cd" points="948.57,-274.63 938.19,-276.77 947.64,-281.57 948.57,-274.63"/>
<text text-anchor="middle" x="995.5" y="-297.01" font-family="Helvetica,sans-Serif" font-size="10.00"> basis</text>
</g>
<!-- Node22&#45;&gt;Node26 -->
<g id="edge68" class="edge">
<title>Node22&#45;&gt;Node26</title>
<path fill="none" stroke="#9a32cd" stroke-dasharray="5,2" d="M908.3,-256.11C921.72,-247.94 939.28,-238.24 956,-232.01 1192.24,-144.09 1502.49,-162.46 1619.81,-173.69"/>
<polygon fill="#9a32cd" stroke="#9a32cd" points="906.37,-253.2 899.74,-261.46 910.08,-259.13 906.37,-253.2"/>
<text text-anchor="middle" x="1272" y="-175.01" font-family="Helvetica,sans-Serif" font-size="10.00"> basis</text>
</g>
<!-- Node23&#45;&gt;Node20 -->
<g id="edge55" class="edge">
<title>Node23&#45;&gt;Node20</title>
<path fill="none" stroke="#9a32cd" stroke-dasharray="5,2" d="M425.33,-236.19C474.43,-229.05 543.22,-221.01 604,-221.01 604,-221.01 604,-221.01 885.5,-221.01 966.43,-221.01 1050.8,-280.65 1081.21,-304.41"/>
<polygon fill="#9a32cd" stroke="#9a32cd" points="424.54,-232.77 415.16,-237.7 425.56,-239.7 424.54,-232.77"/>
<text text-anchor="middle" x="714.5" y="-224.01" font-family="Helvetica,sans-Serif" font-size="10.00"> parameters</text>
</g>
<!-- Node24&#45;&gt;Node13 -->
<g id="edge59" class="edge">
<title>Node24&#45;&gt;Node13</title>
<path fill="none" stroke="#9a32cd" stroke-dasharray="5,2" d="M1947.72,-490.01C1887.49,-490.01 1790.21,-490.01 1728.09,-490.01"/>
<polygon fill="#9a32cd" stroke="#9a32cd" points="1947.79,-493.51 1957.79,-490.01 1947.79,-486.51 1947.79,-493.51"/>
<text text-anchor="middle" x="1837.5" y="-493.01" font-family="Helvetica,sans-Serif" font-size="10.00"> def</text>
</g>
<!-- Node25&#45;&gt;Node3 -->
<g id="edge63" class="edge">
<title>Node25&#45;&gt;Node3</title>
<path fill="none" stroke="#9a32cd" stroke-dasharray="5,2" d="M1456.48,-413.27C1483.74,-412.16 1515.45,-408.71 1543,-400.01 1663.42,-361.99 1787.12,-267.06 1824.88,-236.59"/>
<polygon fill="#9a32cd" stroke="#9a32cd" points="1456.16,-409.78 1446.27,-413.58 1456.37,-416.77 1456.16,-409.78"/>
<text text-anchor="middle" x="1576" y="-396.01" font-family="Helvetica,sans-Serif" font-size="10.00"> p_met</text>
</g>
<!-- Node26&#45;&gt;Node3 -->
<g id="edge66" class="edge">
<title>Node26&#45;&gt;Node3</title>
<path fill="none" stroke="#9a32cd" stroke-dasharray="5,2" d="M1713,-191.31C1730.15,-196.17 1750.01,-201.83 1768,-207.01 1779.79,-210.41 1792.7,-214.17 1804.11,-217.5"/>
<polygon fill="#9a32cd" stroke="#9a32cd" points="1713.83,-187.9 1703.25,-188.54 1711.92,-194.64 1713.83,-187.9"/>
<text text-anchor="middle" x="1757" y="-210.01" font-family="Helvetica,sans-Serif" font-size="10.00"> fmet</text>
</g>
</g>
</svg>
