<?xml version="1.0" encoding="UTF-8" standalone="no"?>
<!DOCTYPE svg PUBLIC "-//W3C//DTD SVG 1.1//EN"
 "http://www.w3.org/Graphics/SVG/1.1/DTD/svg11.dtd">
<!-- Generated by graphviz version 2.47.1 (20210515.0534)
 -->
<!-- Title: Kadath::Ope_minus Pages: 1 -->
<svg width="2130pt" height="836pt"
 viewBox="0.00 0.00 2130.00 836.00" xmlns="http://www.w3.org/2000/svg" xmlns:xlink="http://www.w3.org/1999/xlink">
<g id="graph0" class="graph" transform="scale(1 1) rotate(0) translate(4 832)">
<title>Kadath::Ope_minus</title>
<!-- Node1 -->
<g id="node1" class="node">
<title>Node1</title>
<g id="a_node1"><a xlink:title=" ">
<polygon fill="#bfbfbf" stroke="black" points="1002,-704.5 1002,-723.5 1103,-723.5 1103,-704.5 1002,-704.5"/>
<text text-anchor="middle" x="1052.5" y="-711.5" font-family="Helvetica,sans-Serif" font-size="10.00">Kadath::Ope_minus</text>
</a>
</g>
</g>
<!-- Node2 -->
<g id="node2" class="node">
<title>Node2</title>
<g id="a_node2"><a xlink:href="classKadath_1_1Ope__eq.html" target="_top" xlink:title=" ">
<polygon fill="none" stroke="black" points="828,-675.5 828,-694.5 914,-694.5 914,-675.5 828,-675.5"/>
<text text-anchor="middle" x="871" y="-682.5" font-family="Helvetica,sans-Serif" font-size="10.00">Kadath::Ope_eq</text>
</a>
</g>
</g>
<!-- Node2&#45;&gt;Node1 -->
<g id="edge1" class="edge">
<title>Node2&#45;&gt;Node1</title>
<path fill="none" stroke="midnightblue" d="M920.17,-696.7C924.16,-697.53 928.14,-698.31 932,-699 954.85,-703.09 980.35,-706.45 1001.91,-708.95"/>
<polygon fill="midnightblue" stroke="midnightblue" points="920.8,-693.26 910.29,-694.56 919.32,-700.1 920.8,-693.26"/>
</g>
<!-- Node2&#45;&gt;Node2 -->
<g id="edge3" class="edge">
<title>Node2&#45;&gt;Node2</title>
<path fill="none" stroke="#9a32cd" stroke-dasharray="5,2" d="M856.27,-704.77C857.42,-709.5 862.34,-713 871,-713 885.22,-713 889.33,-703.57 883.33,-694.76"/>
<polygon fill="#9a32cd" stroke="#9a32cd" points="859.74,-705.3 858.67,-694.76 852.93,-703.66 859.74,-705.3"/>
<text text-anchor="middle" x="871" y="-716" font-family="Helvetica,sans-Serif" font-size="10.00"> parts</text>
</g>
<!-- Node5 -->
<g id="node5" class="node">
<title>Node5</title>
<g id="a_node5"><a xlink:href="classKadath_1_1Equation.html" target="_top" xlink:title=" ">
<polygon fill="none" stroke="black" points="1008,-532.5 1008,-551.5 1097,-551.5 1097,-532.5 1008,-532.5"/>
<text text-anchor="middle" x="1052.5" y="-539.5" font-family="Helvetica,sans-Serif" font-size="10.00">Kadath::Equation</text>
</a>
</g>
</g>
<!-- Node2&#45;&gt;Node5 -->
<g id="edge9" class="edge">
<title>Node2&#45;&gt;Node5</title>
<path fill="none" stroke="#9a32cd" stroke-dasharray="5,2" d="M905.39,-669.68C908.65,-667.15 911.62,-664.27 914,-661 936.76,-629.8 905.65,-604.22 932,-576 942.45,-564.81 978.08,-555.57 1007.73,-549.56"/>
<polygon fill="#9a32cd" stroke="#9a32cd" points="903.33,-666.85 896.9,-675.27 907.18,-672.7 903.33,-666.85"/>
<text text-anchor="middle" x="958" y="-579" font-family="Helvetica,sans-Serif" font-size="10.00"> parts</text>
</g>
<!-- Node12 -->
<g id="node12" class="node">
<title>Node12</title>
<g id="a_node12"><a xlink:href="classKadath_1_1Eq__int.html" target="_top" xlink:title=" ">
<polygon fill="none" stroke="black" points="1013,-616.5 1013,-635.5 1092,-635.5 1092,-616.5 1013,-616.5"/>
<text text-anchor="middle" x="1052.5" y="-623.5" font-family="Helvetica,sans-Serif" font-size="10.00">Kadath::Eq_int</text>
</a>
</g>
</g>
<!-- Node2&#45;&gt;Node12 -->
<g id="edge26" class="edge">
<title>Node2&#45;&gt;Node12</title>
<path fill="none" stroke="#9a32cd" stroke-dasharray="5,2" d="M902.47,-671.49C911.86,-667.55 922.27,-663.4 932,-660 958.98,-650.58 990.05,-641.8 1013.74,-635.52"/>
<polygon fill="#9a32cd" stroke="#9a32cd" points="900.97,-668.33 893.15,-675.47 903.72,-674.76 900.97,-668.33"/>
<text text-anchor="middle" x="958" y="-663" font-family="Helvetica,sans-Serif" font-size="10.00"> parts</text>
</g>
<!-- Node22 -->
<g id="node22" class="node">
<title>Node22</title>
<g id="a_node22"><a xlink:href="classKadath_1_1Ope__def.html" target="_top" xlink:title=" ">
<polygon fill="none" stroke="black" points="1681,-436.5 1681,-455.5 1770,-455.5 1770,-436.5 1681,-436.5"/>
<text text-anchor="middle" x="1725.5" y="-443.5" font-family="Helvetica,sans-Serif" font-size="10.00">Kadath::Ope_def</text>
</a>
</g>
</g>
<!-- Node2&#45;&gt;Node22 -->
<g id="edge59" class="edge">
<title>Node2&#45;&gt;Node22</title>
<path fill="none" stroke="midnightblue" d="M891.43,-668.84C902.84,-659.76 917.78,-648.56 932,-640 961.47,-622.26 969.63,-618.64 1002,-607 1233.78,-523.66 1297.09,-516.33 1539,-470 1587.16,-460.78 1643.04,-454.08 1680.79,-450.15"/>
<polygon fill="midnightblue" stroke="midnightblue" points="889.02,-666.28 883.46,-675.3 893.43,-671.72 889.02,-666.28"/>
</g>
<!-- Node3 -->
<g id="node3" class="node">
<title>Node3</title>
<g id="a_node3"><a xlink:href="structKadath_1_1MemoryMappable.html" target="_top" xlink:title=" ">
<polygon fill="none" stroke="black" points="0,-430.5 0,-449.5 128,-449.5 128,-430.5 0,-430.5"/>
<text text-anchor="middle" x="64" y="-437.5" font-family="Helvetica,sans-Serif" font-size="10.00">Kadath::MemoryMappable</text>
</a>
</g>
</g>
<!-- Node3&#45;&gt;Node2 -->
<g id="edge2" class="edge">
<title>Node3&#45;&gt;Node2</title>
<path fill="none" stroke="midnightblue" d="M70.06,-459.57C79.36,-491.36 102.34,-553.81 146,-585 201.92,-624.94 681.61,-668.89 827.85,-681.47"/>
<polygon fill="midnightblue" stroke="midnightblue" points="73.37,-458.41 67.33,-449.7 66.62,-460.28 73.37,-458.41"/>
</g>
<!-- Node3&#45;&gt;Node5 -->
<g id="edge6" class="edge">
<title>Node3&#45;&gt;Node5</title>
<path fill="none" stroke="midnightblue" d="M66.36,-459.67C70.8,-506.34 89.34,-623.04 165,-666 283.6,-733.34 675.1,-642.1 753,-623 835.5,-602.77 849.44,-575.98 932,-556 956.77,-550.01 985.07,-546.55 1007.91,-544.57"/>
<polygon fill="midnightblue" stroke="midnightblue" points="69.84,-459.31 65.52,-449.64 62.87,-459.89 69.84,-459.31"/>
</g>
<!-- Node6 -->
<g id="node6" class="node">
<title>Node6</title>
<g id="a_node6"><a xlink:href="classKadath_1_1Array.html" target="_top" xlink:title=" ">
<polygon fill="none" stroke="black" points="165,-278.5 165,-297.5 266,-297.5 266,-278.5 165,-278.5"/>
<text text-anchor="middle" x="215.5" y="-285.5" font-family="Helvetica,sans-Serif" font-size="10.00">Kadath::Array&lt; int &gt;</text>
</a>
</g>
</g>
<!-- Node3&#45;&gt;Node6 -->
<g id="edge8" class="edge">
<title>Node3&#45;&gt;Node6</title>
<path fill="none" stroke="midnightblue" d="M79.71,-422.61C95.57,-404.13 121.8,-374.27 146,-350 165.25,-330.69 189.14,-309.69 203.02,-297.75"/>
<polygon fill="midnightblue" stroke="midnightblue" points="77.03,-420.37 73.2,-430.25 82.36,-424.91 77.03,-420.37"/>
</g>
<!-- Node7 -->
<g id="node7" class="node">
<title>Node7</title>
<g id="a_node7"><a xlink:href="classKadath_1_1Domain.html" target="_top" xlink:title=" ">
<polygon fill="none" stroke="black" points="828.5,-461.5 828.5,-480.5 913.5,-480.5 913.5,-461.5 828.5,-461.5"/>
<text text-anchor="middle" x="871" y="-468.5" font-family="Helvetica,sans-Serif" font-size="10.00">Kadath::Domain</text>
</a>
</g>
</g>
<!-- Node3&#45;&gt;Node7 -->
<g id="edge11" class="edge">
<title>Node3&#45;&gt;Node7</title>
<path fill="none" stroke="midnightblue" d="M138.54,-440.18C246.72,-440.77 455.05,-443.07 632,-452 700.93,-455.48 780.87,-462.47 828.34,-466.93"/>
<polygon fill="midnightblue" stroke="midnightblue" points="138.41,-436.68 128.39,-440.13 138.38,-443.68 138.41,-436.68"/>
</g>
<!-- Node8 -->
<g id="node8" class="node">
<title>Node8</title>
<g id="a_node8"><a xlink:href="classKadath_1_1Dim__array.html" target="_top" xlink:title=" ">
<polygon fill="none" stroke="black" points="168,-637.5 168,-656.5 263,-656.5 263,-637.5 168,-637.5"/>
<text text-anchor="middle" x="215.5" y="-644.5" font-family="Helvetica,sans-Serif" font-size="10.00">Kadath::Dim_array</text>
</a>
</g>
</g>
<!-- Node3&#45;&gt;Node8 -->
<g id="edge13" class="edge">
<title>Node3&#45;&gt;Node8</title>
<path fill="none" stroke="midnightblue" d="M68.35,-459.51C75.71,-496.57 96.73,-577.5 146,-623 152.85,-629.33 161.47,-634 170.25,-637.45"/>
<polygon fill="midnightblue" stroke="midnightblue" points="71.76,-458.7 66.49,-449.51 64.87,-459.98 71.76,-458.7"/>
</g>
<!-- Node9 -->
<g id="node9" class="node">
<title>Node9</title>
<g id="a_node9"><a xlink:href="classKadath_1_1Array.html" target="_top" xlink:title=" ">
<polygon fill="none" stroke="black" points="382,-491.5 382,-510.5 501,-510.5 501,-491.5 382,-491.5"/>
<text text-anchor="middle" x="441.5" y="-498.5" font-family="Helvetica,sans-Serif" font-size="10.00">Kadath::Array&lt; double &gt;</text>
</a>
</g>
</g>
<!-- Node3&#45;&gt;Node9 -->
<g id="edge15" class="edge">
<title>Node3&#45;&gt;Node9</title>
<path fill="none" stroke="midnightblue" d="M129.48,-451.22C135.07,-452.17 140.63,-453.11 146,-454 227.72,-467.58 322.33,-482.55 381.79,-491.86"/>
<polygon fill="midnightblue" stroke="midnightblue" points="129.89,-447.74 119.45,-449.51 128.72,-454.64 129.89,-447.74"/>
</g>
<!-- Node10 -->
<g id="node10" class="node">
<title>Node10</title>
<g id="a_node10"><a xlink:href="classKadath_1_1Val__domain.html" target="_top" xlink:title=" ">
<polygon fill="none" stroke="black" points="650,-360.5 650,-379.5 753,-379.5 753,-360.5 650,-360.5"/>
<text text-anchor="middle" x="701.5" y="-367.5" font-family="Helvetica,sans-Serif" font-size="10.00">Kadath::Val_domain</text>
</a>
</g>
</g>
<!-- Node3&#45;&gt;Node10 -->
<g id="edge17" class="edge">
<title>Node3&#45;&gt;Node10</title>
<path fill="none" stroke="midnightblue" d="M126.56,-428.81C133.11,-427.79 139.69,-426.82 146,-426 361.02,-397.95 417.21,-412.81 632,-383 639.07,-382.02 646.53,-380.8 653.81,-379.5"/>
<polygon fill="midnightblue" stroke="midnightblue" points="125.63,-425.42 116.32,-430.47 126.75,-432.33 125.63,-425.42"/>
</g>
<!-- Node11 -->
<g id="node11" class="node">
<title>Node11</title>
<g id="a_node11"><a xlink:href="classKadath_1_1Base__spectral.html" target="_top" xlink:title=" ">
<polygon fill="none" stroke="black" points="384.5,-354.5 384.5,-373.5 498.5,-373.5 498.5,-354.5 384.5,-354.5"/>
<text text-anchor="middle" x="441.5" y="-361.5" font-family="Helvetica,sans-Serif" font-size="10.00">Kadath::Base_spectral</text>
</a>
</g>
</g>
<!-- Node3&#45;&gt;Node11 -->
<g id="edge21" class="edge">
<title>Node3&#45;&gt;Node11</title>
<path fill="none" stroke="midnightblue" d="M83.68,-424.19C99.27,-411.99 122.62,-395.9 146,-388 225.58,-361.1 323.85,-358.79 384.34,-360.62"/>
<polygon fill="midnightblue" stroke="midnightblue" points="81.46,-421.49 75.88,-430.49 85.86,-426.93 81.46,-421.49"/>
</g>
<!-- Node3&#45;&gt;Node12 -->
<g id="edge25" class="edge">
<title>Node3&#45;&gt;Node12</title>
<path fill="none" stroke="midnightblue" d="M97.63,-453.25C117.09,-461.02 142.34,-470.88 165,-479 320.85,-534.88 356.33,-564.15 519,-595 701.42,-629.59 924.74,-629.01 1012.99,-627.14"/>
<polygon fill="midnightblue" stroke="midnightblue" points="98.88,-449.98 88.3,-449.51 96.28,-456.48 98.88,-449.98"/>
</g>
<!-- Node13 -->
<g id="node13" class="node">
<title>Node13</title>
<g id="a_node13"><a xlink:href="classKadath_1_1Space.html" target="_top" xlink:title=" ">
<polygon fill="none" stroke="black" points="1012.5,-287.5 1012.5,-306.5 1092.5,-306.5 1092.5,-287.5 1012.5,-287.5"/>
<text text-anchor="middle" x="1052.5" y="-294.5" font-family="Helvetica,sans-Serif" font-size="10.00">Kadath::Space</text>
</a>
</g>
</g>
<!-- Node3&#45;&gt;Node13 -->
<g id="edge28" class="edge">
<title>Node3&#45;&gt;Node13</title>
<path fill="none" stroke="midnightblue" d="M66.59,-420.24C72.36,-353.81 94.68,-140.53 146,-100 150.23,-96.66 908.93,-212.17 914,-214 964.38,-232.12 1016.53,-269.75 1039.46,-287.43"/>
<polygon fill="midnightblue" stroke="midnightblue" points="63.1,-419.97 65.75,-430.23 70.07,-420.55 63.1,-419.97"/>
</g>
<!-- Node14 -->
<g id="node14" class="node">
<title>Node14</title>
<g id="a_node14"><a xlink:href="classKadath_1_1Index.html" target="_top" xlink:title=" ">
<polygon fill="none" stroke="black" points="404,-713.5 404,-732.5 479,-732.5 479,-713.5 404,-713.5"/>
<text text-anchor="middle" x="441.5" y="-720.5" font-family="Helvetica,sans-Serif" font-size="10.00">Kadath::Index</text>
</a>
</g>
</g>
<!-- Node3&#45;&gt;Node14 -->
<g id="edge31" class="edge">
<title>Node3&#45;&gt;Node14</title>
<path fill="none" stroke="midnightblue" d="M64.38,-459.85C64.03,-509.39 70.72,-638.8 146,-699 220.72,-758.75 342.87,-744.18 403.69,-731.86"/>
<polygon fill="midnightblue" stroke="midnightblue" points="67.88,-459.62 64.57,-449.55 60.89,-459.49 67.88,-459.62"/>
</g>
<!-- Node15 -->
<g id="node15" class="node">
<title>Node15</title>
<g id="a_node15"><a xlink:href="classKadath_1_1Param.html" target="_top" xlink:title=" ">
<polygon fill="none" stroke="black" points="284,-773.5 284,-792.5 364,-792.5 364,-773.5 284,-773.5"/>
<text text-anchor="middle" x="324" y="-780.5" font-family="Helvetica,sans-Serif" font-size="10.00">Kadath::Param</text>
</a>
</g>
</g>
<!-- Node3&#45;&gt;Node15 -->
<g id="edge35" class="edge">
<title>Node3&#45;&gt;Node15</title>
<path fill="none" stroke="midnightblue" d="M67.75,-459.51C76.51,-519.1 105.64,-697.12 146,-737 182.59,-773.15 243.75,-781.97 283.73,-783.57"/>
<polygon fill="midnightblue" stroke="midnightblue" points="71.2,-458.93 66.31,-449.53 64.27,-459.93 71.2,-458.93"/>
</g>
<!-- Node16 -->
<g id="node16" class="node">
<title>Node16</title>
<g id="a_node16"><a xlink:href="classKadath_1_1Term__eq.html" target="_top" xlink:title=" ">
<polygon fill="none" stroke="black" points="1539,-158.5 1539,-177.5 1629,-177.5 1629,-158.5 1539,-158.5"/>
<text text-anchor="middle" x="1584" y="-165.5" font-family="Helvetica,sans-Serif" font-size="10.00">Kadath::Term_eq</text>
</a>
</g>
</g>
<!-- Node3&#45;&gt;Node16 -->
<g id="edge38" class="edge">
<title>Node3&#45;&gt;Node16</title>
<path fill="none" stroke="midnightblue" d="M64.67,-420.16C64.62,-357.07 72.22,-157.9 165,-34 181,-12.64 187.81,0 214.5,0 214.5,0 214.5,0 1429,0 1515.65,0 1566.75,-122.95 1579.71,-158.49"/>
<polygon fill="midnightblue" stroke="midnightblue" points="61.17,-420.34 64.75,-430.31 68.17,-420.28 61.17,-420.34"/>
</g>
<!-- Node17 -->
<g id="node17" class="node">
<title>Node17</title>
<g id="a_node17"><a xlink:href="classKadath_1_1Tensor.html" target="_top" xlink:title=" ">
<polygon fill="none" stroke="black" points="1387,-155.5 1387,-174.5 1469,-174.5 1469,-155.5 1387,-155.5"/>
<text text-anchor="middle" x="1428" y="-162.5" font-family="Helvetica,sans-Serif" font-size="10.00">Kadath::Tensor</text>
</a>
</g>
</g>
<!-- Node3&#45;&gt;Node17 -->
<g id="edge40" class="edge">
<title>Node3&#45;&gt;Node17</title>
<path fill="none" stroke="midnightblue" d="M65.42,-420.26C67.45,-364.91 79.11,-205.16 146,-96 166.84,-61.99 174.61,-38 214.5,-38 214.5,-38 214.5,-38 1272.5,-38 1346.46,-38 1404.3,-125.92 1421.65,-155.45"/>
<polygon fill="midnightblue" stroke="midnightblue" points="61.92,-420.33 65.12,-430.43 68.92,-420.54 61.92,-420.33"/>
</g>
<!-- Node19 -->
<g id="node19" class="node">
<title>Node19</title>
<g id="a_node19"><a xlink:href="classKadath_1_1Base__tensor.html" target="_top" xlink:title=" ">
<polygon fill="none" stroke="black" points="1218,-142.5 1218,-161.5 1325,-161.5 1325,-142.5 1218,-142.5"/>
<text text-anchor="middle" x="1271.5" y="-149.5" font-family="Helvetica,sans-Serif" font-size="10.00">Kadath::Base_tensor</text>
</a>
</g>
</g>
<!-- Node3&#45;&gt;Node19 -->
<g id="edge47" class="edge">
<title>Node3&#45;&gt;Node19</title>
<path fill="none" stroke="midnightblue" d="M65.91,-420.34C69.4,-368.77 86.04,-228.5 165,-154 367.29,36.87 511.38,-114 789.5,-114 789.5,-114 789.5,-114 1053.5,-114 1119.28,-114 1194.63,-131.15 1236.99,-142.41"/>
<polygon fill="midnightblue" stroke="midnightblue" points="62.41,-420.26 65.33,-430.45 69.4,-420.67 62.41,-420.26"/>
</g>
<!-- Node20 -->
<g id="node20" class="node">
<title>Node20</title>
<g id="a_node20"><a xlink:href="classKadath_1_1Param__tensor.html" target="_top" xlink:title=" ">
<polygon fill="none" stroke="black" points="519,-105.5 519,-124.5 632,-124.5 632,-105.5 519,-105.5"/>
<text text-anchor="middle" x="575.5" y="-112.5" font-family="Helvetica,sans-Serif" font-size="10.00">Kadath::Param_tensor</text>
</a>
</g>
</g>
<!-- Node3&#45;&gt;Node20 -->
<g id="edge51" class="edge">
<title>Node3&#45;&gt;Node20</title>
<path fill="none" stroke="midnightblue" d="M72.06,-420.68C93.55,-365.17 164.13,-205.46 284,-147 359.25,-110.3 458.18,-107.62 519,-110.34"/>
<polygon fill="midnightblue" stroke="midnightblue" points="68.67,-419.74 68.42,-430.33 75.22,-422.21 68.67,-419.74"/>
</g>
<!-- Node21 -->
<g id="node21" class="node">
<title>Node21</title>
<g id="a_node21"><a xlink:href="classKadath_1_1Metric.html" target="_top" xlink:title=" ">
<polygon fill="none" stroke="black" points="2043,-459.5 2043,-478.5 2122,-478.5 2122,-459.5 2043,-459.5"/>
<text text-anchor="middle" x="2082.5" y="-466.5" font-family="Helvetica,sans-Serif" font-size="10.00">Kadath::Metric</text>
</a>
</g>
</g>
<!-- Node3&#45;&gt;Node21 -->
<g id="edge53" class="edge">
<title>Node3&#45;&gt;Node21</title>
<path fill="none" stroke="midnightblue" d="M68.12,-459.64C81.21,-538.51 134.69,-828 214.5,-828 214.5,-828 214.5,-828 1927.5,-828 2084.16,-828 2083.49,-535.69 2081.86,-478.6"/>
<polygon fill="midnightblue" stroke="midnightblue" points="71.55,-458.9 66.49,-449.59 64.64,-460.02 71.55,-458.9"/>
</g>
<!-- Node4 -->
<g id="node4" class="node">
<title>Node4</title>
<g id="a_node4"><a xlink:href="classKadath_1_1System__of__eqs.html" target="_top" xlink:title=" ">
<polygon fill="none" stroke="black" points="1867,-493.5 1867,-512.5 1986,-512.5 1986,-493.5 1867,-493.5"/>
<text text-anchor="middle" x="1926.5" y="-500.5" font-family="Helvetica,sans-Serif" font-size="10.00">Kadath::System_of_eqs</text>
</a>
</g>
</g>
<!-- Node4&#45;&gt;Node2 -->
<g id="edge4" class="edge">
<title>Node4&#45;&gt;Node2</title>
<path fill="none" stroke="#9a32cd" stroke-dasharray="5,2" d="M1915.79,-521.47C1890.85,-566.07 1819.92,-676 1726.5,-676 1159.5,-676 1159.5,-676 1159.5,-676 1072.36,-676 970.43,-680.18 914.37,-682.84"/>
<polygon fill="#9a32cd" stroke="#9a32cd" points="1918.94,-523 1920.65,-512.55 1912.79,-519.66 1918.94,-523"/>
<text text-anchor="middle" x="1428" y="-679" font-family="Helvetica,sans-Serif" font-size="10.00"> syst</text>
</g>
<!-- Node4&#45;&gt;Node21 -->
<g id="edge55" class="edge">
<title>Node4&#45;&gt;Node21</title>
<path fill="none" stroke="#9a32cd" stroke-dasharray="5,2" d="M1952.06,-488.48C1966.62,-480.73 1985.74,-471.98 2004,-468 2016.49,-465.28 2030.38,-464.71 2042.92,-465.08"/>
<polygon fill="#9a32cd" stroke="#9a32cd" points="1950.27,-485.47 1943.21,-493.37 1953.65,-491.6 1950.27,-485.47"/>
<text text-anchor="middle" x="2014.5" y="-471" font-family="Helvetica,sans-Serif" font-size="10.00"> syst</text>
</g>
<!-- Node5&#45;&gt;Node4 -->
<g id="edge5" class="edge">
<title>Node5&#45;&gt;Node4</title>
<path fill="none" stroke="#9a32cd" stroke-dasharray="5,2" d="M1107.21,-548.94C1151.06,-554.01 1214.68,-560 1270.5,-560 1270.5,-560 1270.5,-560 1726.5,-560 1781.98,-560 1796,-552.41 1849,-536 1869.17,-529.75 1891.22,-519.9 1906.44,-512.58"/>
<polygon fill="#9a32cd" stroke="#9a32cd" points="1107.4,-545.44 1097.05,-547.74 1106.57,-552.39 1107.4,-545.44"/>
<text text-anchor="middle" x="1504" y="-563" font-family="Helvetica,sans-Serif" font-size="10.00"> eq</text>
</g>
<!-- Node6&#45;&gt;Node4 -->
<g id="edge33" class="edge">
<title>Node6&#45;&gt;Node4</title>
<path fill="none" stroke="#9a32cd" stroke-dasharray="5,2" d="M276.12,-287.08C333.69,-286.4 423.33,-285.93 501,-288 613.28,-291 642.12,-289.09 753,-307 856.89,-323.78 881.51,-335.12 984,-359 1215.07,-412.83 1265.74,-484 1503,-484 1503,-484 1503,-484 1726.5,-484 1773.87,-484 1827.3,-489.4 1866.86,-494.44"/>
<polygon fill="#9a32cd" stroke="#9a32cd" points="276.06,-283.58 266.11,-287.2 276.15,-290.58 276.06,-283.58"/>
<text text-anchor="middle" x="1160.5" y="-440" font-family="Helvetica,sans-Serif" font-size="10.00"> assoc_var</text>
<text text-anchor="middle" x="1160.5" y="-429" font-family="Helvetica,sans-Serif" font-size="10.00">assoc_var_double</text>
</g>
<!-- Node6&#45;&gt;Node5 -->
<g id="edge7" class="edge">
<title>Node6&#45;&gt;Node5</title>
<path fill="none" stroke="#9a32cd" stroke-dasharray="5,2" d="M276.17,-289.22C396.76,-292.24 665.43,-301.86 753,-329 885.57,-370.09 1008.82,-495.66 1042.48,-532.03"/>
<polygon fill="#9a32cd" stroke="#9a32cd" points="276.1,-285.72 266.01,-288.98 275.93,-292.72 276.1,-285.72"/>
<text text-anchor="middle" x="701.5" y="-343" font-family="Helvetica,sans-Serif" font-size="10.00"> n_cond</text>
<text text-anchor="middle" x="701.5" y="-332" font-family="Helvetica,sans-Serif" font-size="10.00">p_cmp_used</text>
</g>
<!-- Node6&#45;&gt;Node11 -->
<g id="edge22" class="edge">
<title>Node6&#45;&gt;Node11</title>
<path fill="none" stroke="#9a32cd" stroke-dasharray="5,2" d="M247.36,-301.66C258.76,-306.48 271.87,-311.75 284,-316 318.92,-328.22 328.63,-328.14 364,-339 380.03,-343.92 397.84,-349.72 412.24,-354.5"/>
<polygon fill="#9a32cd" stroke="#9a32cd" points="248.41,-298.31 237.84,-297.58 245.65,-304.74 248.41,-298.31"/>
<text text-anchor="middle" x="324" y="-342" font-family="Helvetica,sans-Serif" font-size="10.00"> bases_1d</text>
</g>
<!-- Node6&#45;&gt;Node17 -->
<g id="edge45" class="edge">
<title>Node6&#45;&gt;Node17</title>
<path fill="none" stroke="#9a32cd" stroke-dasharray="5,2" d="M245.44,-274.19C257.18,-269.07 271.02,-263.63 284,-260 351.77,-241.05 370.13,-236 440.5,-236 440.5,-236 440.5,-236 791.5,-236 823.76,-236 1337.08,-180.68 1369,-176 1374.78,-175.15 1380.86,-174.14 1386.82,-173.07"/>
<polygon fill="#9a32cd" stroke="#9a32cd" points="243.82,-271.08 236.14,-278.37 246.69,-277.47 243.82,-271.08"/>
<text text-anchor="middle" x="871" y="-247" font-family="Helvetica,sans-Serif" font-size="10.00"> give_indices</text>
<text text-anchor="middle" x="871" y="-236" font-family="Helvetica,sans-Serif" font-size="10.00">type_indice</text>
</g>
<!-- Node6&#45;&gt;Node19 -->
<g id="edge49" class="edge">
<title>Node6&#45;&gt;Node19</title>
<path fill="none" stroke="#9a32cd" stroke-dasharray="5,2" d="M229.31,-270.05C241.48,-254.52 261.27,-232.89 284,-222 451.13,-141.91 1037.88,-147.12 1217.71,-150.72"/>
<polygon fill="#9a32cd" stroke="#9a32cd" points="226.27,-268.27 223.06,-278.37 231.87,-272.48 226.27,-268.27"/>
<text text-anchor="middle" x="790.5" y="-157" font-family="Helvetica,sans-Serif" font-size="10.00"> basis</text>
</g>
<!-- Node7&#45;&gt;Node5 -->
<g id="edge10" class="edge">
<title>Node7&#45;&gt;Node5</title>
<path fill="none" stroke="#9a32cd" stroke-dasharray="5,2" d="M905.65,-484.31C941.1,-498.33 996.04,-520.06 1027.39,-532.46"/>
<polygon fill="#9a32cd" stroke="#9a32cd" points="906.79,-481 896.21,-480.58 904.22,-487.51 906.79,-481"/>
<text text-anchor="middle" x="958" y="-517" font-family="Helvetica,sans-Serif" font-size="10.00"> dom</text>
</g>
<!-- Node7&#45;&gt;Node10 -->
<g id="edge23" class="edge">
<title>Node7&#45;&gt;Node10</title>
<path fill="none" stroke="#9a32cd" stroke-dasharray="5,2" d="M837.67,-457.37C817.88,-448.54 792.35,-436.23 771,-423 749.53,-409.69 726.74,-391.02 713.61,-379.76"/>
<polygon fill="#9a32cd" stroke="#9a32cd" points="836.32,-460.6 846.88,-461.42 839.13,-454.19 836.32,-460.6"/>
<text text-anchor="middle" x="790.5" y="-446" font-family="Helvetica,sans-Serif" font-size="10.00"> zone</text>
</g>
<!-- Node7&#45;&gt;Node13 -->
<g id="edge29" class="edge">
<title>Node7&#45;&gt;Node13</title>
<path fill="none" stroke="#9a32cd" stroke-dasharray="5,2" d="M889.43,-454.1C926.48,-418.19 1012.05,-335.24 1041.4,-306.79"/>
<polygon fill="#9a32cd" stroke="#9a32cd" points="886.65,-451.92 881.91,-461.4 891.52,-456.95 886.65,-451.92"/>
<text text-anchor="middle" x="958" y="-412" font-family="Helvetica,sans-Serif" font-size="10.00"> domains</text>
</g>
<!-- Node8&#45;&gt;Node7 -->
<g id="edge12" class="edge">
<title>Node8&#45;&gt;Node7</title>
<path fill="none" stroke="#9a32cd" stroke-dasharray="5,2" d="M264.54,-635.03C324.17,-620.23 428.99,-594.36 519,-573 648.95,-542.16 684.34,-543.26 810,-498 823.97,-492.97 839.22,-486.08 850.86,-480.53"/>
<polygon fill="#9a32cd" stroke="#9a32cd" points="263.52,-631.68 254.66,-637.49 265.21,-638.47 263.52,-631.68"/>
<text text-anchor="middle" x="575.5" y="-587" font-family="Helvetica,sans-Serif" font-size="10.00"> nbr_coefs</text>
<text text-anchor="middle" x="575.5" y="-576" font-family="Helvetica,sans-Serif" font-size="10.00">nbr_points</text>
</g>
<!-- Node8&#45;&gt;Node14 -->
<g id="edge32" class="edge">
<title>Node8&#45;&gt;Node14</title>
<path fill="none" stroke="#9a32cd" stroke-dasharray="5,2" d="M254.5,-659.89C299.22,-675.07 372.43,-699.9 412.36,-713.45"/>
<polygon fill="#9a32cd" stroke="#9a32cd" points="255.46,-656.52 244.87,-656.63 253.21,-663.15 255.46,-656.52"/>
<text text-anchor="middle" x="324" y="-699" font-family="Helvetica,sans-Serif" font-size="10.00"> sizes</text>
</g>
<!-- Node9&#45;&gt;Node4 -->
<g id="edge36" class="edge">
<title>Node9&#45;&gt;Node4</title>
<path fill="none" stroke="#9a32cd" stroke-dasharray="5,2" d="M511.34,-511.37C513.92,-511.61 516.48,-511.82 519,-512 622.74,-519.42 649.1,-514.63 753,-510 832.69,-506.45 852.29,-499.89 932,-497 1185.85,-487.79 1248.98,-522 1503,-522 1503,-522 1503,-522 1726.5,-522 1773.87,-522 1827.3,-516.6 1866.86,-511.56"/>
<polygon fill="#9a32cd" stroke="#9a32cd" points="511.61,-507.88 501.3,-510.32 510.88,-514.84 511.61,-507.88"/>
<text text-anchor="middle" x="1271.5" y="-518" font-family="Helvetica,sans-Serif" font-size="10.00"> val_cst_hard</text>
</g>
<!-- Node9&#45;&gt;Node7 -->
<g id="edge14" class="edge">
<title>Node9&#45;&gt;Node7</title>
<path fill="none" stroke="#9a32cd" stroke-dasharray="5,2" d="M511.42,-500.42C585.46,-499.1 706.47,-494.94 810,-482 815.99,-481.25 822.29,-480.29 828.46,-479.25"/>
<polygon fill="#9a32cd" stroke="#9a32cd" points="511.23,-496.92 501.29,-500.59 511.34,-503.92 511.23,-496.92"/>
<text text-anchor="middle" x="701.5" y="-498" font-family="Helvetica,sans-Serif" font-size="10.00"> coloc</text>
</g>
<!-- Node9&#45;&gt;Node10 -->
<g id="edge18" class="edge">
<title>Node9&#45;&gt;Node10</title>
<path fill="none" stroke="#9a32cd" stroke-dasharray="5,2" d="M477.1,-487.55C515.76,-472.06 579.76,-444.98 632,-416 652.04,-404.88 673.79,-389.69 687.28,-379.86"/>
<polygon fill="#9a32cd" stroke="#9a32cd" points="475.37,-484.47 467.37,-491.42 477.96,-490.98 475.37,-484.47"/>
<text text-anchor="middle" x="575.5" y="-483" font-family="Helvetica,sans-Serif" font-size="10.00"> c</text>
<text text-anchor="middle" x="575.5" y="-472" font-family="Helvetica,sans-Serif" font-size="10.00">cf</text>
</g>
<!-- Node10&#45;&gt;Node7 -->
<g id="edge16" class="edge">
<title>Node10&#45;&gt;Node7</title>
<path fill="none" stroke="#9a32cd" stroke-dasharray="5,2" d="M763.62,-365.73C779.61,-367.04 796.22,-370.77 810,-379 842.09,-398.16 860.21,-441.91 866.95,-461.36"/>
<polygon fill="#9a32cd" stroke="#9a32cd" points="763.4,-362.21 753.23,-365.18 763.03,-369.2 763.4,-362.21"/>
<text text-anchor="middle" x="790.5" y="-415" font-family="Helvetica,sans-Serif" font-size="10.00"> absol</text>
<text text-anchor="middle" x="790.5" y="-404" font-family="Helvetica,sans-Serif" font-size="10.00">cart</text>
<text text-anchor="middle" x="790.5" y="-393" font-family="Helvetica,sans-Serif" font-size="10.00">cart_surr</text>
<text text-anchor="middle" x="790.5" y="-382" font-family="Helvetica,sans-Serif" font-size="10.00">radius</text>
</g>
<!-- Node10&#45;&gt;Node10 -->
<g id="edge19" class="edge">
<title>Node10&#45;&gt;Node10</title>
<path fill="none" stroke="#9a32cd" stroke-dasharray="5,2" d="M685.2,-389.4C686.29,-394.31 691.72,-398 701.5,-398 717.14,-398 721.66,-388.57 715.06,-379.76"/>
<polygon fill="#9a32cd" stroke="#9a32cd" points="688.58,-390.33 687.94,-379.76 681.84,-388.42 688.58,-390.33"/>
<text text-anchor="middle" x="701.5" y="-412" font-family="Helvetica,sans-Serif" font-size="10.00"> p_der_abs</text>
<text text-anchor="middle" x="701.5" y="-401" font-family="Helvetica,sans-Serif" font-size="10.00">p_der_var</text>
</g>
<!-- Node18 -->
<g id="node18" class="node">
<title>Node18</title>
<g id="a_node18"><a xlink:href="classKadath_1_1Scalar.html" target="_top" xlink:title=" ">
<polygon fill="none" stroke="black" points="1544,-225.5 1544,-244.5 1624,-244.5 1624,-225.5 1544,-225.5"/>
<text text-anchor="middle" x="1584" y="-232.5" font-family="Helvetica,sans-Serif" font-size="10.00">Kadath::Scalar</text>
</a>
</g>
</g>
<!-- Node10&#45;&gt;Node18 -->
<g id="edge44" class="edge">
<title>Node10&#45;&gt;Node18</title>
<path fill="none" stroke="#9a32cd" stroke-dasharray="5,2" d="M763.35,-362.43C841.92,-352.52 982.84,-334.23 1103,-316 1267.19,-291.09 1462.13,-256.7 1543.87,-242.06"/>
<polygon fill="#9a32cd" stroke="#9a32cd" points="762.64,-358.99 753.15,-363.72 763.51,-365.94 762.64,-358.99"/>
<text text-anchor="middle" x="1160.5" y="-316" font-family="Helvetica,sans-Serif" font-size="10.00"> val_zones</text>
</g>
<!-- Node11&#45;&gt;Node10 -->
<g id="edge20" class="edge">
<title>Node11&#45;&gt;Node10</title>
<path fill="none" stroke="#9a32cd" stroke-dasharray="5,2" d="M508.83,-365.54C552.83,-366.57 609.67,-367.89 650,-368.83"/>
<polygon fill="#9a32cd" stroke="#9a32cd" points="508.88,-362.04 498.8,-365.31 508.72,-369.04 508.88,-362.04"/>
<text text-anchor="middle" x="575.5" y="-371" font-family="Helvetica,sans-Serif" font-size="10.00"> base</text>
</g>
<!-- Node12&#45;&gt;Node4 -->
<g id="edge24" class="edge">
<title>Node12&#45;&gt;Node4</title>
<path fill="none" stroke="#9a32cd" stroke-dasharray="5,2" d="M1102.42,-623.17C1146.39,-620.87 1212.74,-618 1270.5,-618 1270.5,-618 1270.5,-618 1726.5,-618 1810.3,-618 1890.52,-540.62 1916.65,-512.8"/>
<polygon fill="#9a32cd" stroke="#9a32cd" points="1102.09,-619.68 1092.29,-623.71 1102.46,-626.67 1102.09,-619.68"/>
<text text-anchor="middle" x="1504" y="-621" font-family="Helvetica,sans-Serif" font-size="10.00"> eq_int</text>
</g>
<!-- Node13&#45;&gt;Node4 -->
<g id="edge27" class="edge">
<title>Node13&#45;&gt;Node4</title>
<path fill="none" stroke="#9a32cd" stroke-dasharray="5,2" d="M1075.03,-312.65C1112.68,-338.43 1193.8,-387 1270.5,-387 1270.5,-387 1270.5,-387 1585,-387 1640.04,-387 1812.84,-425.82 1849,-443 1876.14,-455.89 1902.52,-479.87 1916.08,-493.28"/>
<polygon fill="#9a32cd" stroke="#9a32cd" points="1076.62,-309.49 1066.42,-306.63 1072.61,-315.23 1076.62,-309.49"/>
<text text-anchor="middle" x="1504" y="-390" font-family="Helvetica,sans-Serif" font-size="10.00"> espace</text>
</g>
<!-- Node13&#45;&gt;Node17 -->
<g id="edge41" class="edge">
<title>Node13&#45;&gt;Node17</title>
<path fill="none" stroke="#9a32cd" stroke-dasharray="5,2" d="M1102.91,-287.34C1166.49,-273.83 1279.41,-246.1 1369,-204 1386.13,-195.95 1403.92,-183.23 1415.21,-174.52"/>
<polygon fill="#9a32cd" stroke="#9a32cd" points="1101.83,-283.99 1092.76,-289.47 1103.27,-290.84 1101.83,-283.99"/>
<text text-anchor="middle" x="1271.5" y="-261" font-family="Helvetica,sans-Serif" font-size="10.00"> espace</text>
</g>
<!-- Node13&#45;&gt;Node19 -->
<g id="edge48" class="edge">
<title>Node13&#45;&gt;Node19</title>
<path fill="none" stroke="#9a32cd" stroke-dasharray="5,2" d="M1066.62,-279.38C1079.21,-263.39 1099.45,-239.93 1121,-224 1159.8,-195.31 1211.83,-173.34 1243.16,-161.58"/>
<polygon fill="#9a32cd" stroke="#9a32cd" points="1063.77,-277.34 1060.45,-287.41 1069.32,-281.61 1063.77,-277.34"/>
<text text-anchor="middle" x="1160.5" y="-227" font-family="Helvetica,sans-Serif" font-size="10.00"> space</text>
</g>
<!-- Node13&#45;&gt;Node21 -->
<g id="edge54" class="edge">
<title>Node13&#45;&gt;Node21</title>
<path fill="none" stroke="#9a32cd" stroke-dasharray="5,2" d="M1103.15,-304.72C1162.8,-313.31 1265.96,-326 1355,-326 1355,-326 1355,-326 1585,-326 1634.17,-326 1633.48,-283.65 1681,-271 1719.22,-260.83 1732.02,-259.95 1770,-271 1903.52,-309.84 2034.5,-425.1 2071.31,-459.32"/>
<polygon fill="#9a32cd" stroke="#9a32cd" points="1103.29,-301.2 1092.89,-303.22 1102.28,-308.13 1103.29,-301.2"/>
<text text-anchor="middle" x="1584" y="-329" font-family="Helvetica,sans-Serif" font-size="10.00"> espace</text>
</g>
<!-- Node14&#45;&gt;Node4 -->
<g id="edge30" class="edge">
<title>Node14&#45;&gt;Node4</title>
<path fill="none" stroke="#9a32cd" stroke-dasharray="5,2" d="M489.25,-731.44C540.8,-740 626.28,-752 700.5,-752 700.5,-752 700.5,-752 1053.5,-752 1187.5,-752 1221,-751 1355,-751 1355,-751 1355,-751 1726.5,-751 1850.98,-751 1910.57,-558.57 1923,-512.72"/>
<polygon fill="#9a32cd" stroke="#9a32cd" points="489.54,-727.94 479.1,-729.73 488.38,-734.84 489.54,-727.94"/>
<text text-anchor="middle" x="1271.5" y="-754" font-family="Helvetica,sans-Serif" font-size="10.00"> which_coef</text>
</g>
<!-- Node15&#45;&gt;Node4 -->
<g id="edge34" class="edge">
<title>Node15&#45;&gt;Node4</title>
<path fill="none" stroke="#9a32cd" stroke-dasharray="5,2" d="M374.59,-785.21C424.93,-787.26 505.12,-790 574.5,-790 574.5,-790 574.5,-790 1726.5,-790 1739.94,-790 1828.23,-744.07 1849,-719 1903.57,-653.14 1920.44,-545.55 1924.44,-512.78"/>
<polygon fill="#9a32cd" stroke="#9a32cd" points="374.45,-781.7 364.31,-784.78 374.16,-788.7 374.45,-781.7"/>
<text text-anchor="middle" x="1160.5" y="-804" font-family="Helvetica,sans-Serif" font-size="10.00"> paruser</text>
<text text-anchor="middle" x="1160.5" y="-793" font-family="Helvetica,sans-Serif" font-size="10.00">paruser_bin</text>
</g>
<!-- Node16&#45;&gt;Node4 -->
<g id="edge37" class="edge">
<title>Node16&#45;&gt;Node4</title>
<path fill="none" stroke="#9a32cd" stroke-dasharray="5,2" d="M1607.43,-183.42C1655.73,-217.39 1771.49,-302.92 1849,-394 1878.22,-428.33 1907.31,-473.61 1919.52,-493.23"/>
<polygon fill="#9a32cd" stroke="#9a32cd" points="1609.16,-180.36 1598.96,-177.51 1605.15,-186.1 1609.16,-180.36"/>
<text text-anchor="middle" x="1725.5" y="-379" font-family="Helvetica,sans-Serif" font-size="10.00"> cst</text>
<text text-anchor="middle" x="1725.5" y="-368" font-family="Helvetica,sans-Serif" font-size="10.00">cst_hard</text>
<text text-anchor="middle" x="1725.5" y="-357" font-family="Helvetica,sans-Serif" font-size="10.00">opeuser</text>
<text text-anchor="middle" x="1725.5" y="-346" font-family="Helvetica,sans-Serif" font-size="10.00">opeuser_bin</text>
<text text-anchor="middle" x="1725.5" y="-335" font-family="Helvetica,sans-Serif" font-size="10.00">results</text>
<text text-anchor="middle" x="1725.5" y="-324" font-family="Helvetica,sans-Serif" font-size="10.00">term</text>
<text text-anchor="middle" x="1725.5" y="-313" font-family="Helvetica,sans-Serif" font-size="10.00">term_double</text>
</g>
<!-- Node16&#45;&gt;Node21 -->
<g id="edge56" class="edge">
<title>Node16&#45;&gt;Node21</title>
<path fill="none" stroke="#9a32cd" stroke-dasharray="5,2" d="M1639.26,-159.78C1734.74,-148.78 1931.53,-142.31 2025,-257 2076.74,-320.48 2081.42,-426.87 2081.6,-459.31"/>
<polygon fill="#9a32cd" stroke="#9a32cd" points="1638.74,-156.32 1629.23,-160.99 1639.58,-163.27 1638.74,-156.32"/>
<text text-anchor="middle" x="1818.5" y="-244" font-family="Helvetica,sans-Serif" font-size="10.00"> p_christo</text>
<text text-anchor="middle" x="1818.5" y="-233" font-family="Helvetica,sans-Serif" font-size="10.00">p_det_cov</text>
<text text-anchor="middle" x="1818.5" y="-222" font-family="Helvetica,sans-Serif" font-size="10.00">p_dirac</text>
<text text-anchor="middle" x="1818.5" y="-211" font-family="Helvetica,sans-Serif" font-size="10.00">p_met_con</text>
<text text-anchor="middle" x="1818.5" y="-200" font-family="Helvetica,sans-Serif" font-size="10.00">p_met_cov</text>
<text text-anchor="middle" x="1818.5" y="-189" font-family="Helvetica,sans-Serif" font-size="10.00">p_ricci_scalar</text>
<text text-anchor="middle" x="1818.5" y="-178" font-family="Helvetica,sans-Serif" font-size="10.00">p_ricci_tensor</text>
<text text-anchor="middle" x="1818.5" y="-167" font-family="Helvetica,sans-Serif" font-size="10.00">p_riemann</text>
</g>
<!-- Node16&#45;&gt;Node22 -->
<g id="edge60" class="edge">
<title>Node16&#45;&gt;Node22</title>
<path fill="none" stroke="#9a32cd" stroke-dasharray="5,2" d="M1604.5,-184.49C1613.33,-193 1623.09,-204.1 1629,-216 1648.89,-256.05 1632.98,-272.53 1647,-315 1657.72,-347.46 1663.58,-354.59 1681,-384 1692.39,-403.23 1707.84,-424.26 1716.93,-436.22"/>
<polygon fill="#9a32cd" stroke="#9a32cd" points="1606.84,-181.88 1597.1,-177.71 1602.11,-187.04 1606.84,-181.88"/>
<text text-anchor="middle" x="1655" y="-355" font-family="Helvetica,sans-Serif" font-size="10.00"> res</text>
</g>
<!-- Node17&#45;&gt;Node4 -->
<g id="edge57" class="edge">
<title>Node17&#45;&gt;Node4</title>
<path fill="none" stroke="#9a32cd" stroke-dasharray="5,2" d="M1460.63,-151.5C1537.47,-121.06 1735.98,-56.9 1849,-153 1903.14,-199.03 1921.58,-441.73 1924.92,-493.34"/>
<polygon fill="#9a32cd" stroke="#9a32cd" points="1458.99,-148.39 1451.03,-155.38 1461.61,-154.88 1458.99,-148.39"/>
<text text-anchor="middle" x="1655" y="-108" font-family="Helvetica,sans-Serif" font-size="10.00"> var</text>
</g>
<!-- Node17&#45;&gt;Node16 -->
<g id="edge39" class="edge">
<title>Node17&#45;&gt;Node16</title>
<path fill="none" stroke="#9a32cd" stroke-dasharray="5,2" d="M1479.39,-165.35C1492.91,-165.5 1507.51,-165.71 1521,-166 1526.81,-166.13 1532.93,-166.29 1538.97,-166.46"/>
<polygon fill="#9a32cd" stroke="#9a32cd" points="1479.34,-161.85 1469.31,-165.25 1479.27,-168.85 1479.34,-161.85"/>
<text text-anchor="middle" x="1504" y="-180" font-family="Helvetica,sans-Serif" font-size="10.00"> der_t</text>
<text text-anchor="middle" x="1504" y="-169" font-family="Helvetica,sans-Serif" font-size="10.00">val_t</text>
</g>
<!-- Node17&#45;&gt;Node18 -->
<g id="edge43" class="edge">
<title>Node17&#45;&gt;Node18</title>
<path fill="none" stroke="midnightblue" d="M1459.31,-178.78C1489.51,-192.5 1535.09,-213.22 1561.67,-225.3"/>
<polygon fill="midnightblue" stroke="midnightblue" points="1460.64,-175.54 1450.09,-174.59 1457.75,-181.91 1460.64,-175.54"/>
</g>
<!-- Node18&#45;&gt;Node17 -->
<g id="edge42" class="edge">
<title>Node18&#45;&gt;Node17</title>
<path fill="none" stroke="#9a32cd" stroke-dasharray="5,2" d="M1533.81,-228.3C1518.31,-225 1501.47,-220.14 1487,-213 1467.31,-203.28 1448.48,-185.65 1437.87,-174.67"/>
<polygon fill="#9a32cd" stroke="#9a32cd" points="1533.28,-231.76 1543.76,-230.25 1534.62,-224.89 1533.28,-231.76"/>
<text text-anchor="middle" x="1504" y="-227" font-family="Helvetica,sans-Serif" font-size="10.00"> cmp</text>
</g>
<!-- Node19&#45;&gt;Node17 -->
<g id="edge46" class="edge">
<title>Node19&#45;&gt;Node17</title>
<path fill="none" stroke="#9a32cd" stroke-dasharray="5,2" d="M1335.31,-157.28C1352.65,-158.74 1371,-160.29 1386.69,-161.61"/>
<polygon fill="#9a32cd" stroke="#9a32cd" points="1335.5,-153.79 1325.24,-156.44 1334.91,-160.76 1335.5,-153.79"/>
<text text-anchor="middle" x="1356" y="-164" font-family="Helvetica,sans-Serif" font-size="10.00"> basis</text>
</g>
<!-- Node20&#45;&gt;Node17 -->
<g id="edge50" class="edge">
<title>Node20&#45;&gt;Node17</title>
<path fill="none" stroke="#9a32cd" stroke-dasharray="5,2" d="M618.02,-102.79C660.65,-91.35 729.12,-76 789.5,-76 789.5,-76 789.5,-76 1272.5,-76 1335.65,-76 1396.26,-132.52 1418.28,-155.48"/>
<polygon fill="#9a32cd" stroke="#9a32cd" points="617,-99.44 608.28,-105.46 618.85,-106.19 617,-99.44"/>
<text text-anchor="middle" x="958" y="-79" font-family="Helvetica,sans-Serif" font-size="10.00"> parameters</text>
</g>
<!-- Node21&#45;&gt;Node4 -->
<g id="edge52" class="edge">
<title>Node21&#45;&gt;Node4</title>
<path fill="none" stroke="#9a32cd" stroke-dasharray="5,2" d="M2033.14,-479.68C2013.18,-484.08 1990.21,-489.15 1970.81,-493.44"/>
<polygon fill="#9a32cd" stroke="#9a32cd" points="2033.97,-483.08 2042.98,-477.51 2032.46,-476.24 2033.97,-483.08"/>
<text text-anchor="middle" x="2014.5" y="-489" font-family="Helvetica,sans-Serif" font-size="10.00"> met</text>
</g>
<!-- Node22&#45;&gt;Node4 -->
<g id="edge58" class="edge">
<title>Node22&#45;&gt;Node4</title>
<path fill="none" stroke="#9a32cd" stroke-dasharray="5,2" d="M1780.28,-446.88C1802.04,-448.47 1827.14,-451.9 1849,-459 1873.19,-466.85 1898.18,-483.02 1912.75,-493.42"/>
<polygon fill="#9a32cd" stroke="#9a32cd" points="1780.41,-443.39 1770.21,-446.26 1779.98,-450.37 1780.41,-443.39"/>
<text text-anchor="middle" x="1818.5" y="-462" font-family="Helvetica,sans-Serif" font-size="10.00"> def</text>
</g>
</g>
</svg>
