<?xml version="1.0" encoding="UTF-8" standalone="no"?>
<!DOCTYPE svg PUBLIC "-//W3C//DTD SVG 1.1//EN"
 "http://www.w3.org/Graphics/SVG/1.1/DTD/svg11.dtd">
<!-- Generated by graphviz version 2.47.1 (20210515.0534)
 -->
<!-- Title: Kadath::FUKA_Solvers::Initialize_Solver&lt; config_t &gt; Pages: 1 -->
<svg width="125pt" height="207pt"
 viewBox="0.00 0.00 125.00 207.00" xmlns="http://www.w3.org/2000/svg" xmlns:xlink="http://www.w3.org/1999/xlink">
<g id="graph0" class="graph" transform="scale(1 1) rotate(0) translate(4 203)">
<title>Kadath::FUKA_Solvers::Initialize_Solver&lt; config_t &gt;</title>
<!-- Node1 -->
<g id="node1" class="node">
<title>Node1</title>
<g id="a_node1"><a xlink:title=" ">
<polygon fill="#bfbfbf" stroke="black" points="0,-0.5 0,-41.5 117,-41.5 117,-0.5 0,-0.5"/>
<text text-anchor="start" x="8" y="-29.5" font-family="Helvetica,sans-Serif" font-size="10.00">Kadath::FUKA_Solvers</text>
<text text-anchor="start" x="8" y="-18.5" font-family="Helvetica,sans-Serif" font-size="10.00">::Initialize_Solver&lt;</text>
<text text-anchor="middle" x="58.5" y="-7.5" font-family="Helvetica,sans-Serif" font-size="10.00"> config_t &gt;</text>
</a>
</g>
</g>
<!-- Node2 -->
<g id="node2" class="node">
<title>Node2</title>
<g id="a_node2"><a xlink:href="classKadath_1_1FUKA__Config_1_1kadath__config__boost.html" target="_top" xlink:title=" ">
<polygon fill="none" stroke="black" points="3,-89.5 3,-130.5 114,-130.5 114,-89.5 3,-89.5"/>
<text text-anchor="start" x="11" y="-118.5" font-family="Helvetica,sans-Serif" font-size="10.00">Kadath::FUKA_Config</text>
<text text-anchor="start" x="11" y="-107.5" font-family="Helvetica,sans-Serif" font-size="10.00">::kadath_config_boost</text>
<text text-anchor="middle" x="58.5" y="-96.5" font-family="Helvetica,sans-Serif" font-size="10.00">&lt; ParamC &gt;</text>
</a>
</g>
</g>
<!-- Node2&#45;&gt;Node1 -->
<g id="edge1" class="edge">
<title>Node2&#45;&gt;Node1</title>
<path fill="none" stroke="#9a32cd" stroke-dasharray="5,2" d="M58.5,-78.94C58.5,-66.6 58.5,-52.66 58.5,-41.66"/>
<polygon fill="#9a32cd" stroke="#9a32cd" points="55,-79.26 58.5,-89.26 62,-79.26 55,-79.26"/>
<text text-anchor="middle" x="75.5" y="-63" font-family="Helvetica,sans-Serif" font-size="10.00"> bconfig</text>
</g>
<!-- Node3 -->
<g id="node3" class="node">
<title>Node3</title>
<g id="a_node3"><a xlink:href="classKadath_1_1FUKA__Config_1_1configurator__base.html" target="_top" xlink:title=" ">
<polygon fill="none" stroke="black" points="3,-168.5 3,-198.5 114,-198.5 114,-168.5 3,-168.5"/>
<text text-anchor="start" x="11" y="-186.5" font-family="Helvetica,sans-Serif" font-size="10.00">Kadath::FUKA_Config</text>
<text text-anchor="middle" x="58.5" y="-175.5" font-family="Helvetica,sans-Serif" font-size="10.00">::configurator_base</text>
</a>
</g>
</g>
<!-- Node3&#45;&gt;Node2 -->
<g id="edge2" class="edge">
<title>Node3&#45;&gt;Node2</title>
<path fill="none" stroke="midnightblue" d="M58.5,-158.1C58.5,-149.1 58.5,-139.02 58.5,-130.51"/>
<polygon fill="midnightblue" stroke="midnightblue" points="55,-158.37 58.5,-168.37 62,-158.37 55,-158.37"/>
</g>
</g>
</svg>
