<?xml version="1.0" encoding="UTF-8" standalone="no"?>
<!DOCTYPE svg PUBLIC "-//W3C//DTD SVG 1.1//EN"
 "http://www.w3.org/Graphics/SVG/1.1/DTD/svg11.dtd">
<!-- Generated by graphviz version 2.47.1 (20210515.0534)
 -->
<!-- Title: Kadath::FUKA_Solvers::Solver&lt; config_t, space_t &gt; Pages: 1 -->
<svg width="1065pt" height="370pt"
 viewBox="0.00 0.00 1065.00 369.50" xmlns="http://www.w3.org/2000/svg" xmlns:xlink="http://www.w3.org/1999/xlink">
<g id="graph0" class="graph" transform="scale(1 1) rotate(0) translate(4 365.5)">
<title>Kadath::FUKA_Solvers::Solver&lt; config_t, space_t &gt;</title>
<!-- Node1 -->
<g id="node1" class="node">
<title>Node1</title>
<g id="a_node1"><a xlink:title="Solver base for FUKA solvers.">
<polygon fill="#bfbfbf" stroke="black" points="918,-238.5 918,-268.5 1057,-268.5 1057,-238.5 918,-238.5"/>
<text text-anchor="start" x="926" y="-256.5" font-family="Helvetica,sans-Serif" font-size="10.00">Kadath::FUKA_Solvers</text>
<text text-anchor="middle" x="987.5" y="-245.5" font-family="Helvetica,sans-Serif" font-size="10.00">::Solver&lt; config_t, space_t &gt;</text>
</a>
</g>
</g>
<!-- Node2 -->
<g id="node2" class="node">
<title>Node2</title>
<g id="a_node2"><a xlink:href="classKadath_1_1Base__tensor.html" target="_top" xlink:title=" ">
<polygon fill="none" stroke="black" points="736.5,-288 736.5,-307 843.5,-307 843.5,-288 736.5,-288"/>
<text text-anchor="middle" x="790" y="-295" font-family="Helvetica,sans-Serif" font-size="10.00">Kadath::Base_tensor</text>
</a>
</g>
</g>
<!-- Node2&#45;&gt;Node1 -->
<g id="edge1" class="edge">
<title>Node2&#45;&gt;Node1</title>
<path fill="none" stroke="#9a32cd" stroke-dasharray="5,2" d="M843.49,-285.69C866.88,-280.42 894.7,-274.16 919.56,-268.57"/>
<polygon fill="#9a32cd" stroke="#9a32cd" points="842.41,-282.34 833.42,-287.95 843.95,-289.17 842.41,-282.34"/>
<text text-anchor="middle" x="883" y="-281.5" font-family="Helvetica,sans-Serif" font-size="10.00"> basis</text>
</g>
<!-- Node3 -->
<g id="node3" class="node">
<title>Node3</title>
<g id="a_node3"><a xlink:href="structKadath_1_1MemoryMappable.html" target="_top" xlink:title=" ">
<polygon fill="none" stroke="black" points="0,-222 0,-241 128,-241 128,-222 0,-222"/>
<text text-anchor="middle" x="64" y="-229" font-family="Helvetica,sans-Serif" font-size="10.00">Kadath::MemoryMappable</text>
</a>
</g>
</g>
<!-- Node3&#45;&gt;Node2 -->
<g id="edge2" class="edge">
<title>Node3&#45;&gt;Node2</title>
<path fill="none" stroke="midnightblue" d="M75.71,-249.84C98.16,-285.66 153.91,-361.5 223.5,-361.5 223.5,-361.5 223.5,-361.5 612.5,-361.5 675.41,-361.5 743.78,-325.12 773.62,-307.22"/>
<polygon fill="midnightblue" stroke="midnightblue" points="78.68,-248 70.5,-241.27 72.7,-251.63 78.68,-248"/>
</g>
<!-- Node4 -->
<g id="node4" class="node">
<title>Node4</title>
<g id="a_node4"><a xlink:href="classKadath_1_1Space.html" target="_top" xlink:title=" ">
<polygon fill="none" stroke="black" points="571.5,-288 571.5,-307 651.5,-307 651.5,-288 571.5,-288"/>
<text text-anchor="middle" x="611.5" y="-295" font-family="Helvetica,sans-Serif" font-size="10.00">Kadath::Space</text>
</a>
</g>
</g>
<!-- Node3&#45;&gt;Node4 -->
<g id="edge4" class="edge">
<title>Node3&#45;&gt;Node4</title>
<path fill="none" stroke="midnightblue" d="M86.45,-246.97C105.89,-260.01 135.87,-277.74 165,-285.5 310.61,-324.27 492.5,-311 571.2,-302.43"/>
<polygon fill="midnightblue" stroke="midnightblue" points="88.27,-243.98 78.05,-241.19 84.3,-249.74 88.27,-243.98"/>
</g>
<!-- Node5 -->
<g id="node5" class="node">
<title>Node5</title>
<g id="a_node5"><a xlink:href="classKadath_1_1Domain.html" target="_top" xlink:title=" ">
<polygon fill="none" stroke="black" points="380.5,-246 380.5,-265 465.5,-265 465.5,-246 380.5,-246"/>
<text text-anchor="middle" x="423" y="-253" font-family="Helvetica,sans-Serif" font-size="10.00">Kadath::Domain</text>
</a>
</g>
</g>
<!-- Node3&#45;&gt;Node5 -->
<g id="edge6" class="edge">
<title>Node3&#45;&gt;Node5</title>
<path fill="none" stroke="midnightblue" d="M95.6,-244.9C115.07,-252.75 141.03,-261.98 165,-266.5 244.95,-281.59 267.1,-280.15 348,-271.5 360.29,-270.19 373.53,-267.68 385.36,-265.04"/>
<polygon fill="midnightblue" stroke="midnightblue" points="96.91,-241.66 86.33,-241.08 94.24,-248.13 96.91,-241.66"/>
</g>
<!-- Node6 -->
<g id="node6" class="node">
<title>Node6</title>
<g id="a_node6"><a xlink:href="classKadath_1_1Dim__array.html" target="_top" xlink:title=" ">
<polygon fill="none" stroke="black" points="177,-238 177,-257 272,-257 272,-238 177,-238"/>
<text text-anchor="middle" x="224.5" y="-245" font-family="Helvetica,sans-Serif" font-size="10.00">Kadath::Dim_array</text>
</a>
</g>
</g>
<!-- Node3&#45;&gt;Node6 -->
<g id="edge8" class="edge">
<title>Node3&#45;&gt;Node6</title>
<path fill="none" stroke="midnightblue" d="M138.08,-238.88C151.23,-240.2 164.6,-241.55 176.74,-242.78"/>
<polygon fill="midnightblue" stroke="midnightblue" points="138.4,-235.39 128.1,-237.87 137.7,-242.36 138.4,-235.39"/>
</g>
<!-- Node7 -->
<g id="node7" class="node">
<title>Node7</title>
<g id="a_node7"><a xlink:href="classKadath_1_1Array.html" target="_top" xlink:title=" ">
<polygon fill="none" stroke="black" points="165,-200 165,-219 284,-219 284,-200 165,-200"/>
<text text-anchor="middle" x="224.5" y="-207" font-family="Helvetica,sans-Serif" font-size="10.00">Kadath::Array&lt; double &gt;</text>
</a>
</g>
</g>
<!-- Node3&#45;&gt;Node7 -->
<g id="edge10" class="edge">
<title>Node3&#45;&gt;Node7</title>
<path fill="none" stroke="midnightblue" d="M138.18,-221.34C147.17,-220.1 156.26,-218.83 164.99,-217.62"/>
<polygon fill="midnightblue" stroke="midnightblue" points="137.52,-217.9 128.1,-222.74 138.49,-224.83 137.52,-217.9"/>
</g>
<!-- Node8 -->
<g id="node8" class="node">
<title>Node8</title>
<g id="a_node8"><a xlink:href="classKadath_1_1Val__domain.html" target="_top" xlink:title=" ">
<polygon fill="none" stroke="black" points="560,-154 560,-173 663,-173 663,-154 560,-154"/>
<text text-anchor="middle" x="611.5" y="-161" font-family="Helvetica,sans-Serif" font-size="10.00">Kadath::Val_domain</text>
</a>
</g>
</g>
<!-- Node3&#45;&gt;Node8 -->
<g id="edge12" class="edge">
<title>Node3&#45;&gt;Node8</title>
<path fill="none" stroke="midnightblue" d="M92.48,-217.48C112.14,-208.14 139.54,-196.51 165,-190.5 305.08,-157.44 476.42,-158.14 559.91,-161.01"/>
<polygon fill="midnightblue" stroke="midnightblue" points="90.68,-214.46 83.22,-221.98 93.74,-220.76 90.68,-214.46"/>
</g>
<!-- Node9 -->
<g id="node9" class="node">
<title>Node9</title>
<g id="a_node9"><a xlink:href="classKadath_1_1Base__spectral.html" target="_top" xlink:title=" ">
<polygon fill="none" stroke="black" points="366,-88 366,-107 480,-107 480,-88 366,-88"/>
<text text-anchor="middle" x="423" y="-95" font-family="Helvetica,sans-Serif" font-size="10.00">Kadath::Base_spectral</text>
</a>
</g>
</g>
<!-- Node3&#45;&gt;Node9 -->
<g id="edge16" class="edge">
<title>Node3&#45;&gt;Node9</title>
<path fill="none" stroke="midnightblue" d="M76.14,-213.2C89.83,-192.43 115.1,-159.26 146,-142.5 164.96,-132.21 290.65,-114.52 365.72,-104.66"/>
<polygon fill="midnightblue" stroke="midnightblue" points="73.1,-211.45 70.68,-221.77 79.01,-215.21 73.1,-211.45"/>
</g>
<!-- Node10 -->
<g id="node10" class="node">
<title>Node10</title>
<g id="a_node10"><a xlink:href="classKadath_1_1Array.html" target="_top" xlink:title=" ">
<polygon fill="none" stroke="black" points="174,-71 174,-90 275,-90 275,-71 174,-71"/>
<text text-anchor="middle" x="224.5" y="-78" font-family="Helvetica,sans-Serif" font-size="10.00">Kadath::Array&lt; int &gt;</text>
</a>
</g>
</g>
<!-- Node3&#45;&gt;Node10 -->
<g id="edge18" class="edge">
<title>Node3&#45;&gt;Node10</title>
<path fill="none" stroke="midnightblue" d="M72.11,-212.53C83.49,-184.75 108.39,-133.19 146,-104.5 154.29,-98.18 164.26,-93.51 174.25,-90.06"/>
<polygon fill="midnightblue" stroke="midnightblue" points="68.82,-211.33 68.42,-221.91 75.34,-213.89 68.82,-211.33"/>
</g>
<!-- Node4&#45;&gt;Node2 -->
<g id="edge3" class="edge">
<title>Node4&#45;&gt;Node2</title>
<path fill="none" stroke="#9a32cd" stroke-dasharray="5,2" d="M661.96,-297.5C685.09,-297.5 712.67,-297.5 736.21,-297.5"/>
<polygon fill="#9a32cd" stroke="#9a32cd" points="661.67,-294 651.67,-297.5 661.67,-301 661.67,-294"/>
<text text-anchor="middle" x="699.5" y="-300.5" font-family="Helvetica,sans-Serif" font-size="10.00"> space</text>
</g>
<!-- Node11 -->
<g id="node11" class="node">
<title>Node11</title>
<g id="a_node11"><a xlink:href="classKadath_1_1Space__spheric__adapted.html" target="_top" xlink:title=" ">
<polygon fill="none" stroke="black" points="732,-238.5 732,-268.5 848,-268.5 848,-238.5 732,-238.5"/>
<text text-anchor="start" x="740" y="-256.5" font-family="Helvetica,sans-Serif" font-size="10.00">Kadath::Space_spheric</text>
<text text-anchor="middle" x="790" y="-245.5" font-family="Helvetica,sans-Serif" font-size="10.00">_adapted</text>
</a>
</g>
</g>
<!-- Node4&#45;&gt;Node11 -->
<g id="edge22" class="edge">
<title>Node4&#45;&gt;Node11</title>
<path fill="none" stroke="midnightblue" d="M660.6,-285.51C682.66,-280.01 708.96,-273.45 732,-267.71"/>
<polygon fill="midnightblue" stroke="midnightblue" points="659.65,-282.14 650.8,-287.95 661.35,-288.93 659.65,-282.14"/>
</g>
<!-- Node5&#45;&gt;Node4 -->
<g id="edge5" class="edge">
<title>Node5&#45;&gt;Node4</title>
<path fill="none" stroke="#9a32cd" stroke-dasharray="5,2" d="M467.21,-267.73C477.28,-270.43 487.99,-273.17 498,-275.5 522.23,-281.14 549.62,-286.51 571.31,-290.54"/>
<polygon fill="#9a32cd" stroke="#9a32cd" points="467.96,-264.31 457.4,-265.06 466.13,-271.06 467.96,-264.31"/>
<text text-anchor="middle" x="518" y="-285.5" font-family="Helvetica,sans-Serif" font-size="10.00"> domains</text>
</g>
<!-- Node5&#45;&gt;Node8 -->
<g id="edge19" class="edge">
<title>Node5&#45;&gt;Node8</title>
<path fill="none" stroke="#9a32cd" stroke-dasharray="5,2" d="M475.63,-256.65C495.99,-255.23 519.01,-251.2 538,-241.5 569.29,-225.53 594.07,-190.3 604.77,-173.2"/>
<polygon fill="#9a32cd" stroke="#9a32cd" points="475.38,-253.16 465.56,-257.16 475.73,-260.15 475.38,-253.16"/>
<text text-anchor="middle" x="518" y="-256.5" font-family="Helvetica,sans-Serif" font-size="10.00"> zone</text>
</g>
<!-- Node6&#45;&gt;Node5 -->
<g id="edge7" class="edge">
<title>Node6&#45;&gt;Node5</title>
<path fill="none" stroke="#9a32cd" stroke-dasharray="5,2" d="M282.28,-247.66C302.97,-247.93 326.55,-248.46 348,-249.5 358.43,-250.01 369.67,-250.79 380.16,-251.63"/>
<polygon fill="#9a32cd" stroke="#9a32cd" points="282.1,-244.16 272.06,-247.55 282.02,-251.16 282.1,-244.16"/>
<text text-anchor="middle" x="325" y="-263.5" font-family="Helvetica,sans-Serif" font-size="10.00"> nbr_coefs</text>
<text text-anchor="middle" x="325" y="-252.5" font-family="Helvetica,sans-Serif" font-size="10.00">nbr_points</text>
</g>
<!-- Node7&#45;&gt;Node5 -->
<g id="edge9" class="edge">
<title>Node7&#45;&gt;Node5</title>
<path fill="none" stroke="#9a32cd" stroke-dasharray="5,2" d="M293.99,-220.91C311.68,-224.25 330.62,-228.18 348,-232.5 363.41,-236.33 380.33,-241.51 394.1,-245.99"/>
<polygon fill="#9a32cd" stroke="#9a32cd" points="294.22,-217.39 283.75,-219.01 292.95,-224.28 294.22,-217.39"/>
<text text-anchor="middle" x="325" y="-235.5" font-family="Helvetica,sans-Serif" font-size="10.00"> coloc</text>
</g>
<!-- Node7&#45;&gt;Node8 -->
<g id="edge13" class="edge">
<title>Node7&#45;&gt;Node8</title>
<path fill="none" stroke="#9a32cd" stroke-dasharray="5,2" d="M294.39,-201.27C370.69,-192.15 491.89,-177.67 559.91,-169.54"/>
<polygon fill="#9a32cd" stroke="#9a32cd" points="293.91,-197.8 284.39,-202.46 294.74,-204.75 293.91,-197.8"/>
<text text-anchor="middle" x="423" y="-206.5" font-family="Helvetica,sans-Serif" font-size="10.00"> c</text>
<text text-anchor="middle" x="423" y="-195.5" font-family="Helvetica,sans-Serif" font-size="10.00">cf</text>
</g>
<!-- Node8&#45;&gt;Node5 -->
<g id="edge11" class="edge">
<title>Node8&#45;&gt;Node5</title>
<path fill="none" stroke="#9a32cd" stroke-dasharray="5,2" d="M555.8,-175.64C536.9,-180.96 515.96,-188.17 498,-197.5 472.51,-210.74 447.09,-233.19 433.69,-245.93"/>
<polygon fill="#9a32cd" stroke="#9a32cd" points="556.74,-179.01 565.48,-173.02 554.91,-172.25 556.74,-179.01"/>
<text text-anchor="middle" x="518" y="-233.5" font-family="Helvetica,sans-Serif" font-size="10.00"> absol</text>
<text text-anchor="middle" x="518" y="-222.5" font-family="Helvetica,sans-Serif" font-size="10.00">cart</text>
<text text-anchor="middle" x="518" y="-211.5" font-family="Helvetica,sans-Serif" font-size="10.00">cart_surr</text>
<text text-anchor="middle" x="518" y="-200.5" font-family="Helvetica,sans-Serif" font-size="10.00">radius</text>
</g>
<!-- Node8&#45;&gt;Node8 -->
<g id="edge14" class="edge">
<title>Node8&#45;&gt;Node8</title>
<path fill="none" stroke="#9a32cd" stroke-dasharray="5,2" d="M595.2,-182.9C596.29,-187.81 601.72,-191.5 611.5,-191.5 627.14,-191.5 631.66,-182.07 625.06,-173.26"/>
<polygon fill="#9a32cd" stroke="#9a32cd" points="598.58,-183.83 597.94,-173.26 591.84,-181.92 598.58,-183.83"/>
<text text-anchor="middle" x="611.5" y="-205.5" font-family="Helvetica,sans-Serif" font-size="10.00"> p_der_abs</text>
<text text-anchor="middle" x="611.5" y="-194.5" font-family="Helvetica,sans-Serif" font-size="10.00">p_der_var</text>
</g>
<!-- Node9&#45;&gt;Node8 -->
<g id="edge15" class="edge">
<title>Node9&#45;&gt;Node8</title>
<path fill="none" stroke="#9a32cd" stroke-dasharray="5,2" d="M490.52,-99.26C506.47,-101.26 523.16,-104.7 538,-110.5 563.27,-120.37 587.68,-141.31 600.73,-153.71"/>
<polygon fill="#9a32cd" stroke="#9a32cd" points="490.5,-95.74 480.18,-98.15 489.75,-102.7 490.5,-95.74"/>
<text text-anchor="middle" x="518" y="-113.5" font-family="Helvetica,sans-Serif" font-size="10.00"> base</text>
</g>
<!-- Node10&#45;&gt;Node2 -->
<g id="edge20" class="edge">
<title>Node10&#45;&gt;Node2</title>
<path fill="none" stroke="#9a32cd" stroke-dasharray="5,2" d="M285.36,-72.53C349.24,-66.06 452.78,-61.5 538,-85.5 598.68,-102.59 621.92,-100.43 667,-144.5 714.33,-190.77 682.26,-234.83 732,-278.5 736.39,-282.35 741.59,-285.43 747.03,-287.89"/>
<polygon fill="#9a32cd" stroke="#9a32cd" points="284.64,-69.08 275.07,-73.62 285.38,-76.04 284.64,-69.08"/>
<text text-anchor="middle" x="518" y="-88.5" font-family="Helvetica,sans-Serif" font-size="10.00"> basis</text>
</g>
<!-- Node10&#45;&gt;Node9 -->
<g id="edge17" class="edge">
<title>Node10&#45;&gt;Node9</title>
<path fill="none" stroke="#9a32cd" stroke-dasharray="5,2" d="M285.06,-85.65C310.72,-87.87 340.56,-90.45 365.83,-92.64"/>
<polygon fill="#9a32cd" stroke="#9a32cd" points="285.35,-82.16 275.09,-84.79 284.75,-89.14 285.35,-82.16"/>
<text text-anchor="middle" x="325" y="-94.5" font-family="Helvetica,sans-Serif" font-size="10.00"> bases_1d</text>
</g>
<!-- Node11&#45;&gt;Node1 -->
<g id="edge21" class="edge">
<title>Node11&#45;&gt;Node1</title>
<path fill="none" stroke="#9a32cd" stroke-dasharray="5,2" d="M858.28,-253.5C877.55,-253.5 898.58,-253.5 917.94,-253.5"/>
<polygon fill="#9a32cd" stroke="#9a32cd" points="858.07,-250 848.07,-253.5 858.07,-257 858.07,-250"/>
<text text-anchor="middle" x="883" y="-256.5" font-family="Helvetica,sans-Serif" font-size="10.00"> space</text>
</g>
<!-- Node12 -->
<g id="node12" class="node">
<title>Node12</title>
<g id="a_node12"><a xlink:href="classKadath_1_1FUKA__Config_1_1kadath__config__boost.html" target="_top" xlink:title=" ">
<polygon fill="none" stroke="black" points="734.5,-87 734.5,-128 845.5,-128 845.5,-87 734.5,-87"/>
<text text-anchor="start" x="742.5" y="-116" font-family="Helvetica,sans-Serif" font-size="10.00">Kadath::FUKA_Config</text>
<text text-anchor="start" x="742.5" y="-105" font-family="Helvetica,sans-Serif" font-size="10.00">::kadath_config_boost</text>
<text text-anchor="middle" x="790" y="-94" font-family="Helvetica,sans-Serif" font-size="10.00">&lt; ParamC &gt;</text>
</a>
</g>
</g>
<!-- Node12&#45;&gt;Node1 -->
<g id="edge23" class="edge">
<title>Node12&#45;&gt;Node1</title>
<path fill="none" stroke="#9a32cd" stroke-dasharray="5,2" d="M826.68,-134.14C867.58,-164.69 933.21,-213.7 966.19,-238.33"/>
<polygon fill="#9a32cd" stroke="#9a32cd" points="828.7,-131.29 818.6,-128.11 824.51,-136.9 828.7,-131.29"/>
<text text-anchor="middle" x="883" y="-187.5" font-family="Helvetica,sans-Serif" font-size="10.00"> bconfig</text>
</g>
<!-- Node13 -->
<g id="node13" class="node">
<title>Node13</title>
<g id="a_node13"><a xlink:href="classKadath_1_1FUKA__Config_1_1configurator__base.html" target="_top" xlink:title=" ">
<polygon fill="none" stroke="black" points="556,-0.5 556,-30.5 667,-30.5 667,-0.5 556,-0.5"/>
<text text-anchor="start" x="564" y="-18.5" font-family="Helvetica,sans-Serif" font-size="10.00">Kadath::FUKA_Config</text>
<text text-anchor="middle" x="611.5" y="-7.5" font-family="Helvetica,sans-Serif" font-size="10.00">::configurator_base</text>
</a>
</g>
</g>
<!-- Node13&#45;&gt;Node12 -->
<g id="edge24" class="edge">
<title>Node13&#45;&gt;Node12</title>
<path fill="none" stroke="midnightblue" d="M676.69,-30.2C689.43,-34.29 702.43,-39.34 714,-45.5 734.43,-56.37 754.47,-73.37 768.69,-86.81"/>
<polygon fill="midnightblue" stroke="midnightblue" points="677.62,-26.82 667.03,-27.26 675.58,-33.52 677.62,-26.82"/>
</g>
</g>
</svg>
