<?xml version="1.0" encoding="UTF-8" standalone="no"?>
<!DOCTYPE svg PUBLIC "-//W3C//DTD SVG 1.1//EN"
 "http://www.w3.org/Graphics/SVG/1.1/DTD/svg11.dtd">
<!-- Generated by graphviz version 2.47.1 (20210515.0534)
 -->
<!-- Title: Kadath::Space_critic Pages: 1 -->
<svg width="534pt" height="324pt"
 viewBox="0.00 0.00 533.50 324.00" xmlns="http://www.w3.org/2000/svg" xmlns:xlink="http://www.w3.org/1999/xlink">
<g id="graph0" class="graph" transform="scale(1 1) rotate(0) translate(4 320)">
<title>Kadath::Space_critic</title>
<!-- Node1 -->
<g id="node1" class="node">
<title>Node1</title>
<g id="a_node1"><a xlink:title=" ">
<polygon fill="#bfbfbf" stroke="black" points="0,-0.5 0,-19.5 106,-19.5 106,-0.5 0,-0.5"/>
<text text-anchor="middle" x="53" y="-7.5" font-family="Helvetica,sans-Serif" font-size="10.00">Kadath::Space_critic</text>
</a>
</g>
</g>
<!-- Node2 -->
<g id="node2" class="node">
<title>Node2</title>
<g id="a_node2"><a xlink:href="classKadath_1_1Space.html" target="_top" xlink:title=" ">
<polygon fill="none" stroke="black" points="13,-58.5 13,-77.5 93,-77.5 93,-58.5 13,-58.5"/>
<text text-anchor="middle" x="53" y="-65.5" font-family="Helvetica,sans-Serif" font-size="10.00">Kadath::Space</text>
</a>
</g>
</g>
<!-- Node2&#45;&gt;Node1 -->
<g id="edge1" class="edge">
<title>Node2&#45;&gt;Node1</title>
<path fill="none" stroke="midnightblue" d="M53,-47.95C53,-38.29 53,-27.03 53,-19.51"/>
<polygon fill="midnightblue" stroke="midnightblue" points="49.5,-48.25 53,-58.25 56.5,-48.25 49.5,-48.25"/>
</g>
<!-- Node3 -->
<g id="node3" class="node">
<title>Node3</title>
<g id="a_node3"><a xlink:href="structKadath_1_1MemoryMappable.html" target="_top" xlink:title=" ">
<polygon fill="none" stroke="black" points="206,-296.5 206,-315.5 334,-315.5 334,-296.5 206,-296.5"/>
<text text-anchor="middle" x="270" y="-303.5" font-family="Helvetica,sans-Serif" font-size="10.00">Kadath::MemoryMappable</text>
</a>
</g>
</g>
<!-- Node3&#45;&gt;Node2 -->
<g id="edge2" class="edge">
<title>Node3&#45;&gt;Node2</title>
<path fill="none" stroke="midnightblue" d="M195.67,-296.96C148.2,-290.06 93.02,-278.14 79,-259 36.7,-201.25 47.11,-106.49 51.53,-77.62"/>
<polygon fill="midnightblue" stroke="midnightblue" points="195.27,-300.44 205.66,-298.35 196.24,-293.5 195.27,-300.44"/>
</g>
<!-- Node4 -->
<g id="node4" class="node">
<title>Node4</title>
<g id="a_node4"><a xlink:href="classKadath_1_1Domain.html" target="_top" xlink:title=" ">
<polygon fill="none" stroke="black" points="107.5,-160.5 107.5,-179.5 192.5,-179.5 192.5,-160.5 107.5,-160.5"/>
<text text-anchor="middle" x="150" y="-167.5" font-family="Helvetica,sans-Serif" font-size="10.00">Kadath::Domain</text>
</a>
</g>
</g>
<!-- Node3&#45;&gt;Node4 -->
<g id="edge4" class="edge">
<title>Node3&#45;&gt;Node4</title>
<path fill="none" stroke="midnightblue" d="M195.78,-295.56C151.59,-288.25 101.54,-276.39 88,-259 66.07,-230.84 111.38,-195.71 135.8,-179.69"/>
<polygon fill="midnightblue" stroke="midnightblue" points="195.26,-299.02 205.69,-297.14 196.37,-292.11 195.26,-299.02"/>
</g>
<!-- Node5 -->
<g id="node5" class="node">
<title>Node5</title>
<g id="a_node5"><a xlink:href="classKadath_1_1Dim__array.html" target="_top" xlink:title=" ">
<polygon fill="none" stroke="black" points="97.5,-239.5 97.5,-258.5 192.5,-258.5 192.5,-239.5 97.5,-239.5"/>
<text text-anchor="middle" x="145" y="-246.5" font-family="Helvetica,sans-Serif" font-size="10.00">Kadath::Dim_array</text>
</a>
</g>
</g>
<!-- Node3&#45;&gt;Node5 -->
<g id="edge6" class="edge">
<title>Node3&#45;&gt;Node5</title>
<path fill="none" stroke="midnightblue" d="M241.3,-292.37C217.73,-282 184.98,-267.59 164.39,-258.53"/>
<polygon fill="midnightblue" stroke="midnightblue" points="239.91,-295.58 250.47,-296.41 242.73,-289.18 239.91,-295.58"/>
</g>
<!-- Node6 -->
<g id="node6" class="node">
<title>Node6</title>
<g id="a_node6"><a xlink:href="classKadath_1_1Array.html" target="_top" xlink:title=" ">
<polygon fill="none" stroke="black" points="210.5,-239.5 210.5,-258.5 329.5,-258.5 329.5,-239.5 210.5,-239.5"/>
<text text-anchor="middle" x="270" y="-246.5" font-family="Helvetica,sans-Serif" font-size="10.00">Kadath::Array&lt; double &gt;</text>
</a>
</g>
</g>
<!-- Node3&#45;&gt;Node6 -->
<g id="edge8" class="edge">
<title>Node3&#45;&gt;Node6</title>
<path fill="none" stroke="midnightblue" d="M270,-286.12C270,-276.82 270,-266.06 270,-258.71"/>
<polygon fill="midnightblue" stroke="midnightblue" points="266.5,-286.41 270,-296.41 273.5,-286.41 266.5,-286.41"/>
</g>
<!-- Node7 -->
<g id="node7" class="node">
<title>Node7</title>
<g id="a_node7"><a xlink:href="classKadath_1_1Val__domain.html" target="_top" xlink:title=" ">
<polygon fill="none" stroke="black" points="218.5,-58.5 218.5,-77.5 321.5,-77.5 321.5,-58.5 218.5,-58.5"/>
<text text-anchor="middle" x="270" y="-65.5" font-family="Helvetica,sans-Serif" font-size="10.00">Kadath::Val_domain</text>
</a>
</g>
</g>
<!-- Node3&#45;&gt;Node7 -->
<g id="edge10" class="edge">
<title>Node3&#45;&gt;Node7</title>
<path fill="none" stroke="midnightblue" d="M302.49,-291.87C316.37,-284.43 331.16,-273.65 339,-259 343.19,-251.16 340.63,-247.74 339,-239 326.83,-173.87 288.88,-102.35 275.08,-77.82"/>
<polygon fill="midnightblue" stroke="midnightblue" points="300.55,-288.92 293.12,-296.48 303.64,-295.2 300.55,-288.92"/>
</g>
<!-- Node8 -->
<g id="node8" class="node">
<title>Node8</title>
<g id="a_node8"><a xlink:href="classKadath_1_1Base__spectral.html" target="_top" xlink:title=" ">
<polygon fill="none" stroke="black" points="386,-160.5 386,-179.5 500,-179.5 500,-160.5 386,-160.5"/>
<text text-anchor="middle" x="443" y="-167.5" font-family="Helvetica,sans-Serif" font-size="10.00">Kadath::Base_spectral</text>
</a>
</g>
</g>
<!-- Node3&#45;&gt;Node8 -->
<g id="edge14" class="edge">
<title>Node3&#45;&gt;Node8</title>
<path fill="none" stroke="midnightblue" d="M340.91,-293.43C351.94,-289.65 362.73,-284.64 372,-278 408.6,-251.77 431.65,-200.31 439.74,-179.77"/>
<polygon fill="midnightblue" stroke="midnightblue" points="339.7,-290.14 331.19,-296.44 341.77,-296.83 339.7,-290.14"/>
</g>
<!-- Node9 -->
<g id="node9" class="node">
<title>Node9</title>
<g id="a_node9"><a xlink:href="classKadath_1_1Array.html" target="_top" xlink:title=" ">
<polygon fill="none" stroke="black" points="424.5,-239.5 424.5,-258.5 525.5,-258.5 525.5,-239.5 424.5,-239.5"/>
<text text-anchor="middle" x="475" y="-246.5" font-family="Helvetica,sans-Serif" font-size="10.00">Kadath::Array&lt; int &gt;</text>
</a>
</g>
</g>
<!-- Node3&#45;&gt;Node9 -->
<g id="edge16" class="edge">
<title>Node3&#45;&gt;Node9</title>
<path fill="none" stroke="midnightblue" d="M339.22,-294.71C362.02,-290.52 387.33,-284.98 410,-278 426.79,-272.83 445.11,-264.7 458,-258.53"/>
<polygon fill="midnightblue" stroke="midnightblue" points="338.5,-291.28 329.28,-296.49 339.73,-298.18 338.5,-291.28"/>
</g>
<!-- Node4&#45;&gt;Node2 -->
<g id="edge3" class="edge">
<title>Node4&#45;&gt;Node2</title>
<path fill="none" stroke="#9a32cd" stroke-dasharray="5,2" d="M112.83,-156.3C104.65,-152.31 96.5,-147.26 90,-141 70.97,-122.68 59.93,-92.44 55.42,-77.66"/>
<polygon fill="#9a32cd" stroke="#9a32cd" points="111.43,-159.51 121.99,-160.38 114.28,-153.12 111.43,-159.51"/>
<text text-anchor="middle" x="110" y="-116.5" font-family="Helvetica,sans-Serif" font-size="10.00"> domains</text>
</g>
<!-- Node4&#45;&gt;Node7 -->
<g id="edge17" class="edge">
<title>Node4&#45;&gt;Node7</title>
<path fill="none" stroke="#9a32cd" stroke-dasharray="5,2" d="M144.83,-150.54C141.57,-134.59 139.95,-111.82 152,-97 160.6,-86.42 190.7,-79.38 218.34,-75.01"/>
<polygon fill="#9a32cd" stroke="#9a32cd" points="141.45,-151.43 147.21,-160.32 148.25,-149.78 141.45,-151.43"/>
<text text-anchor="middle" x="163.5" y="-116.5" font-family="Helvetica,sans-Serif" font-size="10.00"> zone</text>
</g>
<!-- Node5&#45;&gt;Node4 -->
<g id="edge5" class="edge">
<title>Node5&#45;&gt;Node4</title>
<path fill="none" stroke="#9a32cd" stroke-dasharray="5,2" d="M146.21,-229.31C147.23,-213.59 148.65,-191.81 149.43,-179.81"/>
<polygon fill="#9a32cd" stroke="#9a32cd" points="142.71,-229.26 145.55,-239.47 149.69,-229.71 142.71,-229.26"/>
<text text-anchor="middle" x="172" y="-213" font-family="Helvetica,sans-Serif" font-size="10.00"> nbr_coefs</text>
<text text-anchor="middle" x="172" y="-202" font-family="Helvetica,sans-Serif" font-size="10.00">nbr_points</text>
</g>
<!-- Node6&#45;&gt;Node4 -->
<g id="edge7" class="edge">
<title>Node6&#45;&gt;Node4</title>
<path fill="none" stroke="#9a32cd" stroke-dasharray="5,2" d="M248.63,-233.71C242.58,-229.63 236.02,-225.17 230,-221 216.11,-211.38 213.24,-208.09 199,-199 188.26,-192.15 175.8,-185.03 166.12,-179.69"/>
<polygon fill="#9a32cd" stroke="#9a32cd" points="246.73,-236.65 256.98,-239.32 250.63,-230.84 246.73,-236.65"/>
<text text-anchor="middle" x="243" y="-207.5" font-family="Helvetica,sans-Serif" font-size="10.00"> coloc</text>
</g>
<!-- Node6&#45;&gt;Node7 -->
<g id="edge11" class="edge">
<title>Node6&#45;&gt;Node7</title>
<path fill="none" stroke="#9a32cd" stroke-dasharray="5,2" d="M270,-229.09C270,-190.68 270,-104.89 270,-77.55"/>
<polygon fill="#9a32cd" stroke="#9a32cd" points="266.5,-229.37 270,-239.37 273.5,-229.37 266.5,-229.37"/>
<text text-anchor="middle" x="274.5" y="-173" font-family="Helvetica,sans-Serif" font-size="10.00"> c</text>
<text text-anchor="middle" x="274.5" y="-162" font-family="Helvetica,sans-Serif" font-size="10.00">cf</text>
</g>
<!-- Node7&#45;&gt;Node4 -->
<g id="edge9" class="edge">
<title>Node7&#45;&gt;Node4</title>
<path fill="none" stroke="#9a32cd" stroke-dasharray="5,2" d="M240.46,-82.13C232.47,-86.33 224.08,-91.36 217,-97 196.78,-113.09 196.76,-122.23 179,-141 172.65,-147.71 165.14,-154.95 159.35,-160.38"/>
<polygon fill="#9a32cd" stroke="#9a32cd" points="242.15,-85.19 249.55,-77.61 239.04,-78.93 242.15,-85.19"/>
<text text-anchor="middle" x="236.5" y="-133" font-family="Helvetica,sans-Serif" font-size="10.00"> absol</text>
<text text-anchor="middle" x="236.5" y="-122" font-family="Helvetica,sans-Serif" font-size="10.00">cart</text>
<text text-anchor="middle" x="236.5" y="-111" font-family="Helvetica,sans-Serif" font-size="10.00">cart_surr</text>
<text text-anchor="middle" x="236.5" y="-100" font-family="Helvetica,sans-Serif" font-size="10.00">radius</text>
</g>
<!-- Node7&#45;&gt;Node7 -->
<g id="edge12" class="edge">
<title>Node7&#45;&gt;Node7</title>
<path fill="none" stroke="#9a32cd" stroke-dasharray="5,2" d="M331.82,-71.95C336.57,-71.08 339.5,-69.76 339.5,-68 339.5,-65.18 332,-63.5 321.53,-62.95"/>
<polygon fill="#9a32cd" stroke="#9a32cd" points="331.1,-68.51 321.53,-73.05 331.84,-75.47 331.1,-68.51"/>
<text text-anchor="middle" x="363.5" y="-71" font-family="Helvetica,sans-Serif" font-size="10.00"> p_der_abs</text>
<text text-anchor="middle" x="363.5" y="-60" font-family="Helvetica,sans-Serif" font-size="10.00">p_der_var</text>
</g>
<!-- Node8&#45;&gt;Node7 -->
<g id="edge13" class="edge">
<title>Node8&#45;&gt;Node7</title>
<path fill="none" stroke="#9a32cd" stroke-dasharray="5,2" d="M430.83,-152.31C417.99,-135.87 396.28,-111.23 372,-97 356.63,-87.99 338.27,-81.79 321.38,-77.56"/>
<polygon fill="#9a32cd" stroke="#9a32cd" points="428.19,-154.61 437.01,-160.47 433.77,-150.39 428.19,-154.61"/>
<text text-anchor="middle" x="432" y="-116.5" font-family="Helvetica,sans-Serif" font-size="10.00"> base</text>
</g>
<!-- Node9&#45;&gt;Node8 -->
<g id="edge15" class="edge">
<title>Node9&#45;&gt;Node8</title>
<path fill="none" stroke="#9a32cd" stroke-dasharray="5,2" d="M467.61,-230.22C461.05,-214.44 451.74,-192.04 446.66,-179.81"/>
<polygon fill="#9a32cd" stroke="#9a32cd" points="464.38,-231.57 471.45,-239.47 470.85,-228.89 464.38,-231.57"/>
<text text-anchor="middle" x="485.5" y="-207.5" font-family="Helvetica,sans-Serif" font-size="10.00"> bases_1d</text>
</g>
</g>
</svg>
