<?xml version="1.0" encoding="UTF-8" standalone="no"?>
<!DOCTYPE svg PUBLIC "-//W3C//DTD SVG 1.1//EN"
 "http://www.w3.org/Graphics/SVG/1.1/DTD/svg11.dtd">
<!-- Generated by graphviz version 2.47.1 (20210515.0534)
 -->
<!-- Title: Kadath::Domain Pages: 1 -->
<svg width="612pt" height="1436pt"
 viewBox="0.00 0.00 612.00 1436.00" xmlns="http://www.w3.org/2000/svg" xmlns:xlink="http://www.w3.org/1999/xlink">
<g id="graph0" class="graph" transform="scale(1 1) rotate(0) translate(4 1432)">
<title>Kadath::Domain</title>
<!-- Node1 -->
<g id="node1" class="node">
<title>Node1</title>
<g id="a_node1"><a xlink:title=" ">
<polygon fill="#bfbfbf" stroke="black" points="164,-731 164,-750 249,-750 249,-731 164,-731"/>
<text text-anchor="middle" x="206.5" y="-738" font-family="Helvetica,sans-Serif" font-size="10.00">Kadath::Domain</text>
</a>
</g>
</g>
<!-- Node3 -->
<g id="node3" class="node">
<title>Node3</title>
<g id="a_node3"><a xlink:href="classKadath_1_1Domain__bispheric__chi__first.html" target="_top" xlink:title=" ">
<polygon fill="none" stroke="black" points="296,-1397.5 296,-1427.5 425,-1427.5 425,-1397.5 296,-1397.5"/>
<text text-anchor="start" x="304" y="-1415.5" font-family="Helvetica,sans-Serif" font-size="10.00">Kadath::Domain_bispheric</text>
<text text-anchor="middle" x="360.5" y="-1404.5" font-family="Helvetica,sans-Serif" font-size="10.00">_chi_first</text>
</a>
</g>
</g>
<!-- Node1&#45;&gt;Node3 -->
<g id="edge2" class="edge">
<title>Node1&#45;&gt;Node3</title>
<path fill="none" stroke="midnightblue" d="M207.1,-760.35C205.53,-858.3 203.4,-1289.45 285,-1388.5 288.11,-1392.28 291.82,-1395.46 295.9,-1398.16"/>
<polygon fill="midnightblue" stroke="midnightblue" points="210.6,-760.38 207.28,-750.32 203.6,-760.26 210.6,-760.38"/>
</g>
<!-- Node4 -->
<g id="node4" class="node">
<title>Node4</title>
<g id="a_node4"><a xlink:href="classKadath_1_1Domain__bispheric__eta__first.html" target="_top" xlink:title=" ">
<polygon fill="none" stroke="black" points="296,-1348.5 296,-1378.5 425,-1378.5 425,-1348.5 296,-1348.5"/>
<text text-anchor="start" x="304" y="-1366.5" font-family="Helvetica,sans-Serif" font-size="10.00">Kadath::Domain_bispheric</text>
<text text-anchor="middle" x="360.5" y="-1355.5" font-family="Helvetica,sans-Serif" font-size="10.00">_eta_first</text>
</a>
</g>
</g>
<!-- Node1&#45;&gt;Node4 -->
<g id="edge3" class="edge">
<title>Node1&#45;&gt;Node4</title>
<path fill="none" stroke="midnightblue" d="M207.34,-760.54C207.02,-854.14 210.18,-1247.47 285,-1338.5 288.21,-1342.4 292.04,-1345.69 296.26,-1348.48"/>
<polygon fill="midnightblue" stroke="midnightblue" points="210.85,-760.46 207.4,-750.44 203.85,-760.42 210.85,-760.46"/>
</g>
<!-- Node5 -->
<g id="node5" class="node">
<title>Node5</title>
<g id="a_node5"><a xlink:href="classKadath_1_1Domain__bispheric__rect.html" target="_top" xlink:title=" ">
<polygon fill="none" stroke="black" points="285,-1310 285,-1329 436,-1329 436,-1310 285,-1310"/>
<text text-anchor="middle" x="360.5" y="-1317" font-family="Helvetica,sans-Serif" font-size="10.00">Kadath::Domain_bispheric_rect</text>
</a>
</g>
</g>
<!-- Node1&#45;&gt;Node5 -->
<g id="edge4" class="edge">
<title>Node1&#45;&gt;Node5</title>
<path fill="none" stroke="midnightblue" d="M207.4,-760.51C207.34,-850.69 211.69,-1218.47 285,-1300.5 288.38,-1304.28 292.4,-1307.36 296.79,-1309.86"/>
<polygon fill="midnightblue" stroke="midnightblue" points="210.9,-760.31 207.42,-750.3 203.9,-760.29 210.9,-760.31"/>
</g>
<!-- Node6 -->
<g id="node6" class="node">
<title>Node6</title>
<g id="a_node6"><a xlink:href="classKadath_1_1Domain__compact.html" target="_top" xlink:title=" ">
<polygon fill="none" stroke="black" points="296.5,-1272 296.5,-1291 424.5,-1291 424.5,-1272 296.5,-1272"/>
<text text-anchor="middle" x="360.5" y="-1279" font-family="Helvetica,sans-Serif" font-size="10.00">Kadath::Domain_compact</text>
</a>
</g>
</g>
<!-- Node1&#45;&gt;Node6 -->
<g id="edge5" class="edge">
<title>Node1&#45;&gt;Node6</title>
<path fill="none" stroke="midnightblue" d="M207.62,-760.23C208.53,-846.13 216.48,-1186.59 285,-1262.5 288.4,-1266.27 292.43,-1269.33 296.83,-1271.82"/>
<polygon fill="midnightblue" stroke="midnightblue" points="211.11,-760.02 207.53,-750.05 204.12,-760.08 211.11,-760.02"/>
</g>
<!-- Node7 -->
<g id="node7" class="node">
<title>Node7</title>
<g id="a_node7"><a xlink:href="classKadath_1_1Domain__compact__symphi.html" target="_top" xlink:title=" ">
<polygon fill="none" stroke="black" points="296.5,-1222.5 296.5,-1252.5 424.5,-1252.5 424.5,-1222.5 296.5,-1222.5"/>
<text text-anchor="start" x="304.5" y="-1240.5" font-family="Helvetica,sans-Serif" font-size="10.00">Kadath::Domain_compact</text>
<text text-anchor="middle" x="360.5" y="-1229.5" font-family="Helvetica,sans-Serif" font-size="10.00">_symphi</text>
</a>
</g>
</g>
<!-- Node1&#45;&gt;Node7 -->
<g id="edge6" class="edge">
<title>Node1&#45;&gt;Node7</title>
<path fill="none" stroke="midnightblue" d="M208.08,-760.56C210.82,-841.6 224.98,-1143.78 285,-1213.5 288.28,-1217.31 292.17,-1220.52 296.42,-1223.22"/>
<polygon fill="midnightblue" stroke="midnightblue" points="211.57,-760.15 207.76,-750.26 204.57,-760.37 211.57,-760.15"/>
</g>
<!-- Node8 -->
<g id="node8" class="node">
<title>Node8</title>
<g id="a_node8"><a xlink:href="classKadath_1_1Domain__critic__inner.html" target="_top" xlink:title=" ">
<polygon fill="none" stroke="black" points="305,-1173.5 305,-1203.5 416,-1203.5 416,-1173.5 305,-1173.5"/>
<text text-anchor="start" x="313" y="-1191.5" font-family="Helvetica,sans-Serif" font-size="10.00">Kadath::Domain_critic</text>
<text text-anchor="middle" x="360.5" y="-1180.5" font-family="Helvetica,sans-Serif" font-size="10.00">_inner</text>
</a>
</g>
</g>
<!-- Node1&#45;&gt;Node8 -->
<g id="edge7" class="edge">
<title>Node1&#45;&gt;Node8</title>
<path fill="none" stroke="midnightblue" d="M208.49,-760.4C212.63,-835.8 230.91,-1102.83 285,-1164.5 290.38,-1170.63 297.32,-1175.2 304.81,-1178.62"/>
<polygon fill="midnightblue" stroke="midnightblue" points="211.98,-760.16 207.96,-750.35 204.99,-760.52 211.98,-760.16"/>
</g>
<!-- Node9 -->
<g id="node9" class="node">
<title>Node9</title>
<g id="a_node9"><a xlink:href="classKadath_1_1Domain__critic__outer.html" target="_top" xlink:title=" ">
<polygon fill="none" stroke="black" points="305,-1124.5 305,-1154.5 416,-1154.5 416,-1124.5 305,-1124.5"/>
<text text-anchor="start" x="313" y="-1142.5" font-family="Helvetica,sans-Serif" font-size="10.00">Kadath::Domain_critic</text>
<text text-anchor="middle" x="360.5" y="-1131.5" font-family="Helvetica,sans-Serif" font-size="10.00">_outer</text>
</a>
</g>
</g>
<!-- Node1&#45;&gt;Node9 -->
<g id="edge8" class="edge">
<title>Node1&#45;&gt;Node9</title>
<path fill="none" stroke="midnightblue" d="M209,-760.29C214.65,-829.86 236.84,-1061.84 285,-1115.5 290.45,-1121.57 297.43,-1126.11 304.94,-1129.51"/>
<polygon fill="midnightblue" stroke="midnightblue" points="212.48,-759.94 208.21,-750.24 205.5,-760.49 212.48,-759.94"/>
</g>
<!-- Node10 -->
<g id="node10" class="node">
<title>Node10</title>
<g id="a_node10"><a xlink:href="classKadath_1_1Domain__fourD__periodic__nucleus.html" target="_top" xlink:title=" ">
<polygon fill="none" stroke="black" points="304,-1075.5 304,-1105.5 417,-1105.5 417,-1075.5 304,-1075.5"/>
<text text-anchor="start" x="312" y="-1093.5" font-family="Helvetica,sans-Serif" font-size="10.00">Kadath::Domain_fourD</text>
<text text-anchor="middle" x="360.5" y="-1082.5" font-family="Helvetica,sans-Serif" font-size="10.00">_periodic_nucleus</text>
</a>
</g>
</g>
<!-- Node1&#45;&gt;Node10 -->
<g id="edge9" class="edge">
<title>Node1&#45;&gt;Node10</title>
<path fill="none" stroke="midnightblue" d="M209.69,-760.52C217.05,-824.25 242.8,-1020.86 285,-1066.5 290.26,-1072.19 296.87,-1076.53 303.97,-1079.85"/>
<polygon fill="midnightblue" stroke="midnightblue" points="213.13,-759.78 208.53,-750.24 206.17,-760.57 213.13,-759.78"/>
</g>
<!-- Node11 -->
<g id="node11" class="node">
<title>Node11</title>
<g id="a_node11"><a xlink:href="classKadath_1_1Domain__fourD__periodic__shell.html" target="_top" xlink:title=" ">
<polygon fill="none" stroke="black" points="304,-1026.5 304,-1056.5 417,-1056.5 417,-1026.5 304,-1026.5"/>
<text text-anchor="start" x="312" y="-1044.5" font-family="Helvetica,sans-Serif" font-size="10.00">Kadath::Domain_fourD</text>
<text text-anchor="middle" x="360.5" y="-1033.5" font-family="Helvetica,sans-Serif" font-size="10.00">_periodic_shell</text>
</a>
</g>
</g>
<!-- Node1&#45;&gt;Node11 -->
<g id="edge10" class="edge">
<title>Node1&#45;&gt;Node11</title>
<path fill="none" stroke="midnightblue" d="M207.13,-760.17C207.28,-810.02 214.67,-942.56 285,-1016.5 290.27,-1022.04 296.79,-1026.35 303.78,-1029.7"/>
<polygon fill="midnightblue" stroke="midnightblue" points="210.63,-760.12 207.2,-750.1 203.63,-760.07 210.63,-760.12"/>
</g>
<!-- Node12 -->
<g id="node12" class="node">
<title>Node12</title>
<g id="a_node12"><a xlink:href="classKadath_1_1Domain__nucleus.html" target="_top" xlink:title=" ">
<polygon fill="none" stroke="black" points="298.5,-988 298.5,-1007 422.5,-1007 422.5,-988 298.5,-988"/>
<text text-anchor="middle" x="360.5" y="-995" font-family="Helvetica,sans-Serif" font-size="10.00">Kadath::Domain_nucleus</text>
</a>
</g>
</g>
<!-- Node1&#45;&gt;Node12 -->
<g id="edge11" class="edge">
<title>Node1&#45;&gt;Node12</title>
<path fill="none" stroke="midnightblue" d="M207.95,-760.35C210.09,-805.71 221.85,-917.66 285,-977.5 289.57,-981.83 294.97,-985.24 300.75,-987.93"/>
<polygon fill="midnightblue" stroke="midnightblue" points="211.45,-760.19 207.59,-750.32 204.45,-760.44 211.45,-760.19"/>
</g>
<!-- Node13 -->
<g id="node13" class="node">
<title>Node13</title>
<g id="a_node13"><a xlink:href="classKadath_1_1Domain__nucleus__symphi.html" target="_top" xlink:title=" ">
<polygon fill="none" stroke="black" points="298.5,-938.5 298.5,-968.5 422.5,-968.5 422.5,-938.5 298.5,-938.5"/>
<text text-anchor="start" x="306.5" y="-956.5" font-family="Helvetica,sans-Serif" font-size="10.00">Kadath::Domain_nucleus</text>
<text text-anchor="middle" x="360.5" y="-945.5" font-family="Helvetica,sans-Serif" font-size="10.00">_symphi</text>
</a>
</g>
</g>
<!-- Node1&#45;&gt;Node13 -->
<g id="edge12" class="edge">
<title>Node1&#45;&gt;Node13</title>
<path fill="none" stroke="midnightblue" d="M210.22,-760.58C216.45,-798.72 235.22,-881.96 285,-928.5 289.09,-932.32 293.77,-935.56 298.77,-938.3"/>
<polygon fill="midnightblue" stroke="midnightblue" points="213.62,-759.65 208.68,-750.28 206.7,-760.69 213.62,-759.65"/>
</g>
<!-- Node14 -->
<g id="node14" class="node">
<title>Node14</title>
<g id="a_node14"><a xlink:href="classKadath_1_1Domain__oned__inf.html" target="_top" xlink:title=" ">
<polygon fill="none" stroke="black" points="297,-900 297,-919 424,-919 424,-900 297,-900"/>
<text text-anchor="middle" x="360.5" y="-907" font-family="Helvetica,sans-Serif" font-size="10.00">Kadath::Domain_oned_inf</text>
</a>
</g>
</g>
<!-- Node1&#45;&gt;Node14 -->
<g id="edge13" class="edge">
<title>Node1&#45;&gt;Node14</title>
<path fill="none" stroke="midnightblue" d="M212.13,-760.37C220.74,-792.72 242.31,-856.55 285,-890.5 289.91,-894.4 295.53,-897.52 301.43,-899.99"/>
<polygon fill="midnightblue" stroke="midnightblue" points="215.45,-759.19 209.62,-750.34 208.66,-760.89 215.45,-759.19"/>
</g>
<!-- Node15 -->
<g id="node15" class="node">
<title>Node15</title>
<g id="a_node15"><a xlink:href="classKadath_1_1Domain__oned__ori.html" target="_top" xlink:title=" ">
<polygon fill="none" stroke="black" points="297,-862 297,-881 424,-881 424,-862 297,-862"/>
<text text-anchor="middle" x="360.5" y="-869" font-family="Helvetica,sans-Serif" font-size="10.00">Kadath::Domain_oned_ori</text>
</a>
</g>
</g>
<!-- Node1&#45;&gt;Node15 -->
<g id="edge14" class="edge">
<title>Node1&#45;&gt;Node15</title>
<path fill="none" stroke="midnightblue" d="M215.34,-759.23C226.84,-784.38 250.7,-828.65 285,-852.5 290.59,-856.39 296.91,-859.48 303.44,-861.94"/>
<polygon fill="midnightblue" stroke="midnightblue" points="218.52,-757.78 211.29,-750.03 212.11,-760.59 218.52,-757.78"/>
</g>
<!-- Node16 -->
<g id="node16" class="node">
<title>Node16</title>
<g id="a_node16"><a xlink:href="classKadath_1_1Domain__oned__qcq.html" target="_top" xlink:title=" ">
<polygon fill="none" stroke="black" points="294.5,-824 294.5,-843 426.5,-843 426.5,-824 294.5,-824"/>
<text text-anchor="middle" x="360.5" y="-831" font-family="Helvetica,sans-Serif" font-size="10.00">Kadath::Domain_oned_qcq</text>
</a>
</g>
</g>
<!-- Node1&#45;&gt;Node16 -->
<g id="edge15" class="edge">
<title>Node1&#45;&gt;Node16</title>
<path fill="none" stroke="midnightblue" d="M221.56,-758.02C235.84,-774.68 259.43,-799.24 285,-813.5 292.72,-817.81 301.41,-821.22 310.06,-823.92"/>
<polygon fill="midnightblue" stroke="midnightblue" points="224.07,-755.57 214.98,-750.13 218.69,-760.05 224.07,-755.57"/>
</g>
<!-- Node17 -->
<g id="node17" class="node">
<title>Node17</title>
<g id="a_node17"><a xlink:href="classKadath_1_1Domain__polar__compact.html" target="_top" xlink:title=" ">
<polygon fill="none" stroke="black" points="305,-774.5 305,-804.5 416,-804.5 416,-774.5 305,-774.5"/>
<text text-anchor="start" x="313" y="-792.5" font-family="Helvetica,sans-Serif" font-size="10.00">Kadath::Domain_polar</text>
<text text-anchor="middle" x="360.5" y="-781.5" font-family="Helvetica,sans-Serif" font-size="10.00">_compact</text>
</a>
</g>
</g>
<!-- Node1&#45;&gt;Node17 -->
<g id="edge16" class="edge">
<title>Node1&#45;&gt;Node17</title>
<path fill="none" stroke="midnightblue" d="M246.96,-753.22C267.11,-759.72 291.77,-767.66 312.85,-774.46"/>
<polygon fill="midnightblue" stroke="midnightblue" points="247.76,-749.8 237.17,-750.06 245.61,-756.46 247.76,-749.8"/>
</g>
<!-- Node18 -->
<g id="node18" class="node">
<title>Node18</title>
<g id="a_node18"><a xlink:href="classKadath_1_1Domain__polar__nucleus.html" target="_top" xlink:title=" ">
<polygon fill="none" stroke="black" points="305,-725.5 305,-755.5 416,-755.5 416,-725.5 305,-725.5"/>
<text text-anchor="start" x="313" y="-743.5" font-family="Helvetica,sans-Serif" font-size="10.00">Kadath::Domain_polar</text>
<text text-anchor="middle" x="360.5" y="-732.5" font-family="Helvetica,sans-Serif" font-size="10.00">_nucleus</text>
</a>
</g>
</g>
<!-- Node1&#45;&gt;Node18 -->
<g id="edge17" class="edge">
<title>Node1&#45;&gt;Node18</title>
<path fill="none" stroke="midnightblue" d="M259.44,-740.5C274.09,-740.5 290.08,-740.5 304.89,-740.5"/>
<polygon fill="midnightblue" stroke="midnightblue" points="259.03,-737 249.03,-740.5 259.03,-744 259.03,-737"/>
</g>
<!-- Node19 -->
<g id="node19" class="node">
<title>Node19</title>
<g id="a_node19"><a xlink:href="classKadath_1_1Domain__polar__periodic__nucleus.html" target="_top" xlink:title=" ">
<polygon fill="none" stroke="black" points="305,-676.5 305,-706.5 416,-706.5 416,-676.5 305,-676.5"/>
<text text-anchor="start" x="313" y="-694.5" font-family="Helvetica,sans-Serif" font-size="10.00">Kadath::Domain_polar</text>
<text text-anchor="middle" x="360.5" y="-683.5" font-family="Helvetica,sans-Serif" font-size="10.00">_periodic_nucleus</text>
</a>
</g>
</g>
<!-- Node1&#45;&gt;Node19 -->
<g id="edge18" class="edge">
<title>Node1&#45;&gt;Node19</title>
<path fill="none" stroke="midnightblue" d="M247.16,-727.7C259.3,-723.79 272.7,-719.46 285,-715.5 293.92,-712.62 303.45,-709.55 312.6,-706.6"/>
<polygon fill="midnightblue" stroke="midnightblue" points="245.75,-724.48 237.31,-730.88 247.9,-731.14 245.75,-724.48"/>
</g>
<!-- Node20 -->
<g id="node20" class="node">
<title>Node20</title>
<g id="a_node20"><a xlink:href="classKadath_1_1Domain__polar__periodic__shell.html" target="_top" xlink:title=" ">
<polygon fill="none" stroke="black" points="305,-627.5 305,-657.5 416,-657.5 416,-627.5 305,-627.5"/>
<text text-anchor="start" x="313" y="-645.5" font-family="Helvetica,sans-Serif" font-size="10.00">Kadath::Domain_polar</text>
<text text-anchor="middle" x="360.5" y="-634.5" font-family="Helvetica,sans-Serif" font-size="10.00">_periodic_shell</text>
</a>
</g>
</g>
<!-- Node1&#45;&gt;Node20 -->
<g id="edge19" class="edge">
<title>Node1&#45;&gt;Node20</title>
<path fill="none" stroke="midnightblue" d="M221.67,-723C236.02,-706.32 259.68,-681.57 285,-666.5 291.19,-662.82 298.01,-659.63 304.93,-656.89"/>
<polygon fill="midnightblue" stroke="midnightblue" points="218.79,-720.99 215.05,-730.9 224.15,-725.48 218.79,-720.99"/>
</g>
<!-- Node21 -->
<g id="node21" class="node">
<title>Node21</title>
<g id="a_node21"><a xlink:href="classKadath_1_1Domain__polar__shell.html" target="_top" xlink:title=" ">
<polygon fill="none" stroke="black" points="305,-578.5 305,-608.5 416,-608.5 416,-578.5 305,-578.5"/>
<text text-anchor="start" x="313" y="-596.5" font-family="Helvetica,sans-Serif" font-size="10.00">Kadath::Domain_polar</text>
<text text-anchor="middle" x="360.5" y="-585.5" font-family="Helvetica,sans-Serif" font-size="10.00">_shell</text>
</a>
</g>
</g>
<!-- Node1&#45;&gt;Node21 -->
<g id="edge20" class="edge">
<title>Node1&#45;&gt;Node21</title>
<path fill="none" stroke="midnightblue" d="M214.59,-721.43C225.59,-694.42 249.27,-645.24 285,-617.5 290.9,-612.92 297.71,-609.2 304.76,-606.18"/>
<polygon fill="midnightblue" stroke="midnightblue" points="211.27,-720.32 210.89,-730.91 217.79,-722.87 211.27,-720.32"/>
</g>
<!-- Node22 -->
<g id="node22" class="node">
<title>Node22</title>
<g id="a_node22"><a xlink:href="classKadath_1_1Domain__polar__shell__inner__adapted.html" target="_top" xlink:title=" ">
<polygon fill="none" stroke="black" points="305,-529.5 305,-559.5 416,-559.5 416,-529.5 305,-529.5"/>
<text text-anchor="start" x="313" y="-547.5" font-family="Helvetica,sans-Serif" font-size="10.00">Kadath::Domain_polar</text>
<text text-anchor="middle" x="360.5" y="-536.5" font-family="Helvetica,sans-Serif" font-size="10.00">_shell_inner_adapted</text>
</a>
</g>
</g>
<!-- Node1&#45;&gt;Node22 -->
<g id="edge21" class="edge">
<title>Node1&#45;&gt;Node22</title>
<path fill="none" stroke="midnightblue" d="M211,-720.59C218.31,-684.94 238.51,-610.06 285,-568.5 290.77,-563.34 297.67,-559.28 304.9,-556.1"/>
<polygon fill="midnightblue" stroke="midnightblue" points="207.51,-720.21 209.07,-730.69 214.39,-721.53 207.51,-720.21"/>
</g>
<!-- Node23 -->
<g id="node23" class="node">
<title>Node23</title>
<g id="a_node23"><a xlink:href="classKadath_1_1Domain__polar__shell__outer__adapted.html" target="_top" xlink:title=" ">
<polygon fill="none" stroke="black" points="305,-480.5 305,-510.5 416,-510.5 416,-480.5 305,-480.5"/>
<text text-anchor="start" x="313" y="-498.5" font-family="Helvetica,sans-Serif" font-size="10.00">Kadath::Domain_polar</text>
<text text-anchor="middle" x="360.5" y="-487.5" font-family="Helvetica,sans-Serif" font-size="10.00">_shell_outer_adapted</text>
</a>
</g>
</g>
<!-- Node1&#45;&gt;Node23 -->
<g id="edge22" class="edge">
<title>Node1&#45;&gt;Node23</title>
<path fill="none" stroke="midnightblue" d="M208.71,-720.76C212.4,-677.96 227.12,-575.91 285,-519.5 290.64,-514 297.55,-509.76 304.87,-506.49"/>
<polygon fill="midnightblue" stroke="midnightblue" points="205.2,-720.73 207.95,-730.96 212.18,-721.25 205.2,-720.73"/>
</g>
<!-- Node24 -->
<g id="node24" class="node">
<title>Node24</title>
<g id="a_node24"><a xlink:href="classKadath_1_1Domain__shell.html" target="_top" xlink:title=" ">
<polygon fill="none" stroke="black" points="305.5,-442 305.5,-461 415.5,-461 415.5,-442 305.5,-442"/>
<text text-anchor="middle" x="360.5" y="-449" font-family="Helvetica,sans-Serif" font-size="10.00">Kadath::Domain_shell</text>
</a>
</g>
</g>
<!-- Node1&#45;&gt;Node24 -->
<g id="edge23" class="edge">
<title>Node1&#45;&gt;Node24</title>
<path fill="none" stroke="midnightblue" d="M206.96,-720.93C206.72,-671.42 213.25,-540.14 285,-470.5 290.75,-464.92 297.89,-460.91 305.47,-458.05"/>
<polygon fill="midnightblue" stroke="midnightblue" points="203.46,-721 207.11,-730.95 210.46,-720.9 203.46,-721"/>
</g>
<!-- Node27 -->
<g id="node27" class="node">
<title>Node27</title>
<g id="a_node27"><a xlink:href="classKadath_1_1Domain__shell__inner__adapted.html" target="_top" xlink:title=" ">
<polygon fill="none" stroke="black" points="305.5,-392.5 305.5,-422.5 415.5,-422.5 415.5,-392.5 305.5,-392.5"/>
<text text-anchor="start" x="313.5" y="-410.5" font-family="Helvetica,sans-Serif" font-size="10.00">Kadath::Domain_shell</text>
<text text-anchor="middle" x="360.5" y="-399.5" font-family="Helvetica,sans-Serif" font-size="10.00">_inner_adapted</text>
</a>
</g>
</g>
<!-- Node1&#45;&gt;Node27 -->
<g id="edge26" class="edge">
<title>Node1&#45;&gt;Node27</title>
<path fill="none" stroke="midnightblue" d="M209.97,-720.81C218,-659.83 245.15,-475.55 285,-432.5 290.56,-426.49 297.61,-421.93 305.14,-418.46"/>
<polygon fill="midnightblue" stroke="midnightblue" points="206.47,-720.63 208.66,-731 213.41,-721.53 206.47,-720.63"/>
</g>
<!-- Node29 -->
<g id="node29" class="node">
<title>Node29</title>
<g id="a_node29"><a xlink:href="classKadath_1_1Domain__shell__outer__adapted.html" target="_top" xlink:title=" ">
<polygon fill="none" stroke="black" points="305.5,-343.5 305.5,-373.5 415.5,-373.5 415.5,-343.5 305.5,-343.5"/>
<text text-anchor="start" x="313.5" y="-361.5" font-family="Helvetica,sans-Serif" font-size="10.00">Kadath::Domain_shell</text>
<text text-anchor="middle" x="360.5" y="-350.5" font-family="Helvetica,sans-Serif" font-size="10.00">_outer_adapted</text>
</a>
</g>
</g>
<!-- Node1&#45;&gt;Node29 -->
<g id="edge28" class="edge">
<title>Node1&#45;&gt;Node29</title>
<path fill="none" stroke="midnightblue" d="M209.21,-720.74C215.41,-653.28 238.88,-433.4 285,-382.5 290.57,-376.36 297.71,-371.78 305.36,-368.37"/>
<polygon fill="midnightblue" stroke="midnightblue" points="205.71,-720.59 208.3,-730.86 212.68,-721.21 205.71,-720.59"/>
</g>
<!-- Node31 -->
<g id="node31" class="node">
<title>Node31</title>
<g id="a_node31"><a xlink:href="classKadath_1_1Domain__shell__symphi.html" target="_top" xlink:title=" ">
<polygon fill="none" stroke="black" points="305.5,-294.5 305.5,-324.5 415.5,-324.5 415.5,-294.5 305.5,-294.5"/>
<text text-anchor="start" x="313.5" y="-312.5" font-family="Helvetica,sans-Serif" font-size="10.00">Kadath::Domain_shell</text>
<text text-anchor="middle" x="360.5" y="-301.5" font-family="Helvetica,sans-Serif" font-size="10.00">_symphi</text>
</a>
</g>
</g>
<!-- Node1&#45;&gt;Node31 -->
<g id="edge30" class="edge">
<title>Node1&#45;&gt;Node31</title>
<path fill="none" stroke="midnightblue" d="M208.66,-720.47C213.33,-646.83 233.01,-392.34 285,-333.5 290.49,-327.29 297.59,-322.67 305.23,-319.25"/>
<polygon fill="midnightblue" stroke="midnightblue" points="205.16,-720.48 208.04,-730.68 212.14,-720.91 205.16,-720.48"/>
</g>
<!-- Node32 -->
<g id="node32" class="node">
<title>Node32</title>
<g id="a_node32"><a xlink:href="classKadath_1_1Domain__spheric__periodic__compact.html" target="_top" xlink:title=" ">
<polygon fill="none" stroke="black" points="299.5,-245.5 299.5,-275.5 421.5,-275.5 421.5,-245.5 299.5,-245.5"/>
<text text-anchor="start" x="307.5" y="-263.5" font-family="Helvetica,sans-Serif" font-size="10.00">Kadath::Domain_spheric</text>
<text text-anchor="middle" x="360.5" y="-252.5" font-family="Helvetica,sans-Serif" font-size="10.00">_periodic_compact</text>
</a>
</g>
</g>
<!-- Node1&#45;&gt;Node32 -->
<g id="edge31" class="edge">
<title>Node1&#45;&gt;Node32</title>
<path fill="none" stroke="midnightblue" d="M208.21,-720.65C211.41,-641.75 227,-351.47 285,-284.5 289,-279.88 293.9,-276.14 299.26,-273.12"/>
<polygon fill="midnightblue" stroke="midnightblue" points="204.71,-720.57 207.82,-730.7 211.7,-720.84 204.71,-720.57"/>
</g>
<!-- Node33 -->
<g id="node33" class="node">
<title>Node33</title>
<g id="a_node33"><a xlink:href="classKadath_1_1Domain__spheric__periodic__nucleus.html" target="_top" xlink:title=" ">
<polygon fill="none" stroke="black" points="299.5,-196.5 299.5,-226.5 421.5,-226.5 421.5,-196.5 299.5,-196.5"/>
<text text-anchor="start" x="307.5" y="-214.5" font-family="Helvetica,sans-Serif" font-size="10.00">Kadath::Domain_spheric</text>
<text text-anchor="middle" x="360.5" y="-203.5" font-family="Helvetica,sans-Serif" font-size="10.00">_periodic_nucleus</text>
</a>
</g>
</g>
<!-- Node1&#45;&gt;Node33 -->
<g id="edge32" class="edge">
<title>Node1&#45;&gt;Node33</title>
<path fill="none" stroke="midnightblue" d="M207.85,-720.72C209.7,-636.73 220.99,-310.62 285,-235.5 288.97,-230.85 293.84,-227.09 299.18,-224.05"/>
<polygon fill="midnightblue" stroke="midnightblue" points="204.34,-720.84 207.64,-730.91 211.34,-720.98 204.34,-720.84"/>
</g>
<!-- Node34 -->
<g id="node34" class="node">
<title>Node34</title>
<g id="a_node34"><a xlink:href="classKadath_1_1Domain__spheric__periodic__shell.html" target="_top" xlink:title=" ">
<polygon fill="none" stroke="black" points="299.5,-147.5 299.5,-177.5 421.5,-177.5 421.5,-147.5 299.5,-147.5"/>
<text text-anchor="start" x="307.5" y="-165.5" font-family="Helvetica,sans-Serif" font-size="10.00">Kadath::Domain_spheric</text>
<text text-anchor="middle" x="360.5" y="-154.5" font-family="Helvetica,sans-Serif" font-size="10.00">_periodic_shell</text>
</a>
</g>
</g>
<!-- Node1&#45;&gt;Node34 -->
<g id="edge33" class="edge">
<title>Node1&#45;&gt;Node34</title>
<path fill="none" stroke="midnightblue" d="M207.55,-720.81C208.15,-632.03 214.95,-269.82 285,-186.5 289.02,-181.72 294,-177.88 299.47,-174.79"/>
<polygon fill="midnightblue" stroke="midnightblue" points="204.05,-720.84 207.5,-730.86 211.05,-720.87 204.05,-720.84"/>
</g>
<!-- Node35 -->
<g id="node35" class="node">
<title>Node35</title>
<g id="a_node35"><a xlink:href="classKadath_1_1Domain__spheric__time__compact.html" target="_top" xlink:title=" ">
<polygon fill="none" stroke="black" points="299.5,-98.5 299.5,-128.5 421.5,-128.5 421.5,-98.5 299.5,-98.5"/>
<text text-anchor="start" x="307.5" y="-116.5" font-family="Helvetica,sans-Serif" font-size="10.00">Kadath::Domain_spheric</text>
<text text-anchor="middle" x="360.5" y="-105.5" font-family="Helvetica,sans-Serif" font-size="10.00">_time_compact</text>
</a>
</g>
</g>
<!-- Node1&#45;&gt;Node35 -->
<g id="edge34" class="edge">
<title>Node1&#45;&gt;Node35</title>
<path fill="none" stroke="midnightblue" d="M207.3,-720.87C206.74,-627.5 208.9,-229.06 285,-137.5 289,-132.69 293.96,-128.84 299.42,-125.75"/>
<polygon fill="midnightblue" stroke="midnightblue" points="203.8,-720.95 207.38,-730.92 210.8,-720.89 203.8,-720.95"/>
</g>
<!-- Node36 -->
<g id="node36" class="node">
<title>Node36</title>
<g id="a_node36"><a xlink:href="classKadath_1_1Domain__spheric__time__nucleus.html" target="_top" xlink:title=" ">
<polygon fill="none" stroke="black" points="299.5,-49.5 299.5,-79.5 421.5,-79.5 421.5,-49.5 299.5,-49.5"/>
<text text-anchor="start" x="307.5" y="-67.5" font-family="Helvetica,sans-Serif" font-size="10.00">Kadath::Domain_spheric</text>
<text text-anchor="middle" x="360.5" y="-56.5" font-family="Helvetica,sans-Serif" font-size="10.00">_time_nucleus</text>
</a>
</g>
</g>
<!-- Node1&#45;&gt;Node36 -->
<g id="edge35" class="edge">
<title>Node1&#45;&gt;Node36</title>
<path fill="none" stroke="midnightblue" d="M207.08,-720.53C205.42,-621.98 202.94,-188.18 285,-88.5 288.97,-83.67 293.92,-79.81 299.37,-76.71"/>
<polygon fill="midnightblue" stroke="midnightblue" points="203.58,-720.69 207.27,-730.62 210.58,-720.56 203.58,-720.69"/>
</g>
<!-- Node37 -->
<g id="node37" class="node">
<title>Node37</title>
<g id="a_node37"><a xlink:href="classKadath_1_1Domain__spheric__time__shell.html" target="_top" xlink:title=" ">
<polygon fill="none" stroke="black" points="299.5,-0.5 299.5,-30.5 421.5,-30.5 421.5,-0.5 299.5,-0.5"/>
<text text-anchor="start" x="307.5" y="-18.5" font-family="Helvetica,sans-Serif" font-size="10.00">Kadath::Domain_spheric</text>
<text text-anchor="middle" x="360.5" y="-7.5" font-family="Helvetica,sans-Serif" font-size="10.00">_time_shell</text>
</a>
</g>
</g>
<!-- Node1&#45;&gt;Node37 -->
<g id="edge36" class="edge">
<title>Node1&#45;&gt;Node37</title>
<path fill="none" stroke="midnightblue" d="M208.41,-720.78C213.6,-612.57 240.64,-93.84 285,-39.5 288.95,-34.66 293.89,-30.78 299.33,-27.68"/>
<polygon fill="midnightblue" stroke="midnightblue" points="204.91,-720.77 207.94,-730.93 211.9,-721.11 204.91,-720.77"/>
</g>
<!-- Node2 -->
<g id="node2" class="node">
<title>Node2</title>
<g id="a_node2"><a xlink:href="structKadath_1_1MemoryMappable.html" target="_top" xlink:title=" ">
<polygon fill="none" stroke="black" points="0,-731 0,-750 128,-750 128,-731 0,-731"/>
<text text-anchor="middle" x="64" y="-738" font-family="Helvetica,sans-Serif" font-size="10.00">Kadath::MemoryMappable</text>
</a>
</g>
</g>
<!-- Node2&#45;&gt;Node1 -->
<g id="edge1" class="edge">
<title>Node2&#45;&gt;Node1</title>
<path fill="none" stroke="midnightblue" d="M138.5,-740.5C147.22,-740.5 155.87,-740.5 163.92,-740.5"/>
<polygon fill="midnightblue" stroke="midnightblue" points="138.26,-737 128.26,-740.5 138.26,-744 138.26,-737"/>
</g>
<!-- Node25 -->
<g id="node25" class="node">
<title>Node25</title>
<g id="a_node25"><a xlink:href="classKadath_1_1Domain__shell__log.html" target="_top" xlink:title=" ">
<polygon fill="none" stroke="black" points="474,-480 474,-499 602,-499 602,-480 474,-480"/>
<text text-anchor="middle" x="538" y="-487" font-family="Helvetica,sans-Serif" font-size="10.00">Kadath::Domain_shell_log</text>
</a>
</g>
</g>
<!-- Node24&#45;&gt;Node25 -->
<g id="edge24" class="edge">
<title>Node24&#45;&gt;Node25</title>
<path fill="none" stroke="midnightblue" d="M415.78,-463.25C440.59,-468.63 469.61,-474.91 493.03,-479.98"/>
<polygon fill="midnightblue" stroke="midnightblue" points="416.3,-459.78 405.79,-461.09 414.82,-466.63 416.3,-459.78"/>
</g>
<!-- Node26 -->
<g id="node26" class="node">
<title>Node26</title>
<g id="a_node26"><a xlink:href="classKadath_1_1Domain__shell__surr.html" target="_top" xlink:title=" ">
<polygon fill="none" stroke="black" points="472,-442 472,-461 604,-461 604,-442 472,-442"/>
<text text-anchor="middle" x="538" y="-449" font-family="Helvetica,sans-Serif" font-size="10.00">Kadath::Domain_shell_surr</text>
</a>
</g>
</g>
<!-- Node24&#45;&gt;Node26 -->
<g id="edge25" class="edge">
<title>Node24&#45;&gt;Node26</title>
<path fill="none" stroke="midnightblue" d="M425.82,-451.5C440.87,-451.5 456.9,-451.5 471.98,-451.5"/>
<polygon fill="midnightblue" stroke="midnightblue" points="425.59,-448 415.59,-451.5 425.59,-455 425.59,-448"/>
</g>
<!-- Node28 -->
<g id="node28" class="node">
<title>Node28</title>
<g id="a_node28"><a xlink:href="classKadath_1_1Domain__shell__inner__homothetic.html" target="_top" xlink:title=" ">
<polygon fill="none" stroke="black" points="483,-392.5 483,-422.5 593,-422.5 593,-392.5 483,-392.5"/>
<text text-anchor="start" x="491" y="-410.5" font-family="Helvetica,sans-Serif" font-size="10.00">Kadath::Domain_shell</text>
<text text-anchor="middle" x="538" y="-399.5" font-family="Helvetica,sans-Serif" font-size="10.00">_inner_homothetic</text>
</a>
</g>
</g>
<!-- Node27&#45;&gt;Node28 -->
<g id="edge27" class="edge">
<title>Node27&#45;&gt;Node28</title>
<path fill="none" stroke="midnightblue" d="M425.8,-407.5C444.51,-407.5 464.76,-407.5 482.79,-407.5"/>
<polygon fill="midnightblue" stroke="midnightblue" points="425.59,-404 415.59,-407.5 425.59,-411 425.59,-404"/>
</g>
<!-- Node30 -->
<g id="node30" class="node">
<title>Node30</title>
<g id="a_node30"><a xlink:href="classKadath_1_1Domain__shell__outer__homothetic.html" target="_top" xlink:title=" ">
<polygon fill="none" stroke="black" points="483,-343.5 483,-373.5 593,-373.5 593,-343.5 483,-343.5"/>
<text text-anchor="start" x="491" y="-361.5" font-family="Helvetica,sans-Serif" font-size="10.00">Kadath::Domain_shell</text>
<text text-anchor="middle" x="538" y="-350.5" font-family="Helvetica,sans-Serif" font-size="10.00">_outer_homothetic</text>
</a>
</g>
</g>
<!-- Node29&#45;&gt;Node30 -->
<g id="edge29" class="edge">
<title>Node29&#45;&gt;Node30</title>
<path fill="none" stroke="midnightblue" d="M425.8,-358.5C444.51,-358.5 464.76,-358.5 482.79,-358.5"/>
<polygon fill="midnightblue" stroke="midnightblue" points="425.59,-355 415.59,-358.5 425.59,-362 425.59,-355"/>
</g>
</g>
</svg>
