<?xml version="1.0" encoding="UTF-8" standalone="no"?>
<!DOCTYPE svg PUBLIC "-//W3C//DTD SVG 1.1//EN"
 "http://www.w3.org/Graphics/SVG/1.1/DTD/svg11.dtd">
<!-- Generated by graphviz version 2.47.1 (20210515.0534)
 -->
<!-- Title: Kadath::Ope_id Pages: 1 -->
<svg width="2118pt" height="944pt"
 viewBox="0.00 0.00 2118.00 944.16" xmlns="http://www.w3.org/2000/svg" xmlns:xlink="http://www.w3.org/1999/xlink">
<g id="graph0" class="graph" transform="scale(1 1) rotate(0) translate(4 940.16)">
<title>Kadath::Ope_id</title>
<!-- Node1 -->
<g id="node1" class="node">
<title>Node1</title>
<g id="a_node1"><a xlink:title=" ">
<polygon fill="#bfbfbf" stroke="black" points="1672,-583.5 1672,-602.5 1755,-602.5 1755,-583.5 1672,-583.5"/>
<text text-anchor="middle" x="1713.5" y="-590.5" font-family="Helvetica,sans-Serif" font-size="10.00">Kadath::Ope_id</text>
</a>
</g>
</g>
<!-- Node2 -->
<g id="node2" class="node">
<title>Node2</title>
<g id="a_node2"><a xlink:href="classKadath_1_1Ope__eq.html" target="_top" xlink:title=" ">
<polygon fill="none" stroke="black" points="828,-721.5 828,-740.5 914,-740.5 914,-721.5 828,-721.5"/>
<text text-anchor="middle" x="871" y="-728.5" font-family="Helvetica,sans-Serif" font-size="10.00">Kadath::Ope_eq</text>
</a>
</g>
</g>
<!-- Node2&#45;&gt;Node1 -->
<g id="edge1" class="edge">
<title>Node2&#45;&gt;Node1</title>
<path fill="none" stroke="midnightblue" d="M924.19,-732.8C1048.37,-736.19 1357.56,-739.1 1445,-688 1457.45,-680.72 1451.3,-669.43 1463,-661 1526.38,-615.33 1618.86,-600.33 1671.61,-595.4"/>
<polygon fill="midnightblue" stroke="midnightblue" points="924.26,-729.3 914.17,-732.52 924.06,-736.3 924.26,-729.3"/>
</g>
<!-- Node2&#45;&gt;Node2 -->
<g id="edge3" class="edge">
<title>Node2&#45;&gt;Node2</title>
<path fill="none" stroke="#9a32cd" stroke-dasharray="5,2" d="M856.27,-750.77C857.42,-755.5 862.34,-759 871,-759 885.22,-759 889.33,-749.57 883.33,-740.76"/>
<polygon fill="#9a32cd" stroke="#9a32cd" points="859.74,-751.3 858.67,-740.76 852.93,-749.66 859.74,-751.3"/>
<text text-anchor="middle" x="871" y="-762" font-family="Helvetica,sans-Serif" font-size="10.00"> parts</text>
</g>
<!-- Node5 -->
<g id="node5" class="node">
<title>Node5</title>
<g id="a_node5"><a xlink:href="classKadath_1_1Equation.html" target="_top" xlink:title=" ">
<polygon fill="none" stroke="black" points="990,-626.5 990,-645.5 1079,-645.5 1079,-626.5 990,-626.5"/>
<text text-anchor="middle" x="1034.5" y="-633.5" font-family="Helvetica,sans-Serif" font-size="10.00">Kadath::Equation</text>
</a>
</g>
</g>
<!-- Node2&#45;&gt;Node5 -->
<g id="edge9" class="edge">
<title>Node2&#45;&gt;Node5</title>
<path fill="none" stroke="#9a32cd" stroke-dasharray="5,2" d="M889.49,-714.19C900.95,-703.76 916.62,-690.56 932,-681 955.9,-666.15 985.56,-653.6 1006.62,-645.56"/>
<polygon fill="#9a32cd" stroke="#9a32cd" points="886.88,-711.84 881.94,-721.21 891.65,-716.96 886.88,-711.84"/>
<text text-anchor="middle" x="952" y="-684" font-family="Helvetica,sans-Serif" font-size="10.00"> parts</text>
</g>
<!-- Node12 -->
<g id="node12" class="node">
<title>Node12</title>
<g id="a_node12"><a xlink:href="classKadath_1_1Eq__int.html" target="_top" xlink:title=" ">
<polygon fill="none" stroke="black" points="995,-831.5 995,-850.5 1074,-850.5 1074,-831.5 995,-831.5"/>
<text text-anchor="middle" x="1034.5" y="-838.5" font-family="Helvetica,sans-Serif" font-size="10.00">Kadath::Eq_int</text>
</a>
</g>
</g>
<!-- Node2&#45;&gt;Node12 -->
<g id="edge26" class="edge">
<title>Node2&#45;&gt;Node12</title>
<path fill="none" stroke="#9a32cd" stroke-dasharray="5,2" d="M894.36,-746.23C928.15,-769.25 991.26,-812.23 1019.37,-831.37"/>
<polygon fill="#9a32cd" stroke="#9a32cd" points="896.28,-743.31 886.05,-740.57 892.34,-749.09 896.28,-743.31"/>
<text text-anchor="middle" x="952" y="-802" font-family="Helvetica,sans-Serif" font-size="10.00"> parts</text>
</g>
<!-- Node22 -->
<g id="node22" class="node">
<title>Node22</title>
<g id="a_node22"><a xlink:href="classKadath_1_1Ope__def.html" target="_top" xlink:title=" ">
<polygon fill="none" stroke="black" points="1669,-545.5 1669,-564.5 1758,-564.5 1758,-545.5 1669,-545.5"/>
<text text-anchor="middle" x="1713.5" y="-552.5" font-family="Helvetica,sans-Serif" font-size="10.00">Kadath::Ope_def</text>
</a>
</g>
</g>
<!-- Node2&#45;&gt;Node22 -->
<g id="edge59" class="edge">
<title>Node2&#45;&gt;Node22</title>
<path fill="none" stroke="midnightblue" d="M924.02,-725.12C1005.14,-715.44 1166.45,-694.18 1301,-664 1397.74,-642.3 1419.12,-626.26 1515,-601 1567.6,-587.14 1628.64,-573.26 1668.78,-564.43"/>
<polygon fill="midnightblue" stroke="midnightblue" points="923.58,-721.64 914.06,-726.29 924.4,-728.59 923.58,-721.64"/>
</g>
<!-- Node3 -->
<g id="node3" class="node">
<title>Node3</title>
<g id="a_node3"><a xlink:href="structKadath_1_1MemoryMappable.html" target="_top" xlink:title=" ">
<polygon fill="none" stroke="black" points="0,-438.5 0,-457.5 128,-457.5 128,-438.5 0,-438.5"/>
<text text-anchor="middle" x="64" y="-445.5" font-family="Helvetica,sans-Serif" font-size="10.00">Kadath::MemoryMappable</text>
</a>
</g>
</g>
<!-- Node3&#45;&gt;Node2 -->
<g id="edge2" class="edge">
<title>Node3&#45;&gt;Node2</title>
<path fill="none" stroke="midnightblue" d="M66.06,-467.94C70.66,-532.7 94.59,-733 214.5,-733 214.5,-733 214.5,-733 702.5,-733 745.11,-733 793.8,-732.35 827.66,-731.78"/>
<polygon fill="midnightblue" stroke="midnightblue" points="69.54,-467.57 65.42,-457.81 62.55,-468.01 69.54,-467.57"/>
</g>
<!-- Node3&#45;&gt;Node5 -->
<g id="edge6" class="edge">
<title>Node3&#45;&gt;Node5</title>
<path fill="none" stroke="midnightblue" d="M70.51,-467.54C81.66,-502.94 110.59,-576.91 165,-608 307.37,-689.34 834.15,-652.73 989.88,-639.84"/>
<polygon fill="midnightblue" stroke="midnightblue" points="73.72,-466.08 67.5,-457.5 67.02,-468.09 73.72,-466.08"/>
</g>
<!-- Node6 -->
<g id="node6" class="node">
<title>Node6</title>
<g id="a_node6"><a xlink:href="classKadath_1_1Array.html" target="_top" xlink:title=" ">
<polygon fill="none" stroke="black" points="165,-264.5 165,-283.5 266,-283.5 266,-264.5 165,-264.5"/>
<text text-anchor="middle" x="215.5" y="-271.5" font-family="Helvetica,sans-Serif" font-size="10.00">Kadath::Array&lt; int &gt;</text>
</a>
</g>
</g>
<!-- Node3&#45;&gt;Node6 -->
<g id="edge8" class="edge">
<title>Node3&#45;&gt;Node6</title>
<path fill="none" stroke="midnightblue" d="M70.45,-428.53C80.32,-396.77 104.11,-333.74 146,-298 153.38,-291.7 162.52,-287.02 171.69,-283.56"/>
<polygon fill="midnightblue" stroke="midnightblue" points="67.02,-427.79 67.54,-438.37 73.73,-429.78 67.02,-427.79"/>
</g>
<!-- Node7 -->
<g id="node7" class="node">
<title>Node7</title>
<g id="a_node7"><a xlink:href="classKadath_1_1Domain.html" target="_top" xlink:title=" ">
<polygon fill="none" stroke="black" points="828.5,-478.5 828.5,-497.5 913.5,-497.5 913.5,-478.5 828.5,-478.5"/>
<text text-anchor="middle" x="871" y="-485.5" font-family="Helvetica,sans-Serif" font-size="10.00">Kadath::Domain</text>
</a>
</g>
</g>
<!-- Node3&#45;&gt;Node7 -->
<g id="edge11" class="edge">
<title>Node3&#45;&gt;Node7</title>
<path fill="none" stroke="midnightblue" d="M78.31,-465.71C102.11,-495.16 155.09,-551 214.5,-551 214.5,-551 214.5,-551 593,-551 688.18,-551 797.29,-515.19 845.22,-497.57"/>
<polygon fill="midnightblue" stroke="midnightblue" points="80.81,-463.22 71.88,-457.51 75.3,-467.54 80.81,-463.22"/>
</g>
<!-- Node8 -->
<g id="node8" class="node">
<title>Node8</title>
<g id="a_node8"><a xlink:href="classKadath_1_1Dim__array.html" target="_top" xlink:title=" ">
<polygon fill="none" stroke="black" points="168,-579.5 168,-598.5 263,-598.5 263,-579.5 168,-579.5"/>
<text text-anchor="middle" x="215.5" y="-586.5" font-family="Helvetica,sans-Serif" font-size="10.00">Kadath::Dim_array</text>
</a>
</g>
</g>
<!-- Node3&#45;&gt;Node8 -->
<g id="edge13" class="edge">
<title>Node3&#45;&gt;Node8</title>
<path fill="none" stroke="midnightblue" d="M73.51,-467.13C85.91,-492.89 111.29,-538.55 146,-565 154.22,-571.26 164.2,-575.98 173.97,-579.49"/>
<polygon fill="midnightblue" stroke="midnightblue" points="76.53,-465.31 69.14,-457.71 70.18,-468.26 76.53,-465.31"/>
</g>
<!-- Node9 -->
<g id="node9" class="node">
<title>Node9</title>
<g id="a_node9"><a xlink:href="classKadath_1_1Array.html" target="_top" xlink:title=" ">
<polygon fill="none" stroke="black" points="415,-465.5 415,-484.5 534,-484.5 534,-465.5 415,-465.5"/>
<text text-anchor="middle" x="474.5" y="-472.5" font-family="Helvetica,sans-Serif" font-size="10.00">Kadath::Array&lt; double &gt;</text>
</a>
</g>
</g>
<!-- Node3&#45;&gt;Node9 -->
<g id="edge15" class="edge">
<title>Node3&#45;&gt;Node9</title>
<path fill="none" stroke="midnightblue" d="M124.07,-459.14C131.43,-460.25 138.88,-461.25 146,-462 239.65,-471.91 349.09,-474.44 414.76,-474.99"/>
<polygon fill="midnightblue" stroke="midnightblue" points="124.54,-455.67 114.12,-457.55 123.44,-462.58 124.54,-455.67"/>
</g>
<!-- Node10 -->
<g id="node10" class="node">
<title>Node10</title>
<g id="a_node10"><a xlink:href="classKadath_1_1Val__domain.html" target="_top" xlink:title=" ">
<polygon fill="none" stroke="black" points="650,-340.5 650,-359.5 753,-359.5 753,-340.5 650,-340.5"/>
<text text-anchor="middle" x="701.5" y="-347.5" font-family="Helvetica,sans-Serif" font-size="10.00">Kadath::Val_domain</text>
</a>
</g>
</g>
<!-- Node3&#45;&gt;Node10 -->
<g id="edge17" class="edge">
<title>Node3&#45;&gt;Node10</title>
<path fill="none" stroke="midnightblue" d="M138.02,-440.51C176.21,-436.37 223.69,-430.89 266,-425 429.27,-402.29 470.1,-395.97 632,-365 640.61,-363.35 649.79,-361.45 658.55,-359.56"/>
<polygon fill="midnightblue" stroke="midnightblue" points="137.59,-437.03 128.02,-441.58 138.34,-443.99 137.59,-437.03"/>
</g>
<!-- Node11 -->
<g id="node11" class="node">
<title>Node11</title>
<g id="a_node11"><a xlink:href="classKadath_1_1Base__spectral.html" target="_top" xlink:title=" ">
<polygon fill="none" stroke="black" points="417.5,-340.5 417.5,-359.5 531.5,-359.5 531.5,-340.5 417.5,-340.5"/>
<text text-anchor="middle" x="474.5" y="-347.5" font-family="Helvetica,sans-Serif" font-size="10.00">Kadath::Base_spectral</text>
</a>
</g>
</g>
<!-- Node3&#45;&gt;Node11 -->
<g id="edge21" class="edge">
<title>Node3&#45;&gt;Node11</title>
<path fill="none" stroke="midnightblue" d="M114.75,-436.07C196.77,-416.39 358.77,-377.52 433.73,-359.54"/>
<polygon fill="midnightblue" stroke="midnightblue" points="113.82,-432.69 104.91,-438.42 115.45,-439.5 113.82,-432.69"/>
</g>
<!-- Node3&#45;&gt;Node12 -->
<g id="edge25" class="edge">
<title>Node3&#45;&gt;Node12</title>
<path fill="none" stroke="midnightblue" d="M67.76,-467.67C79.76,-549.27 130.56,-857 214.5,-857 214.5,-857 214.5,-857 872,-857 914.12,-857 962.12,-851.54 994.77,-847"/>
<polygon fill="midnightblue" stroke="midnightblue" points="71.22,-467.11 66.33,-457.71 64.29,-468.1 71.22,-467.11"/>
</g>
<!-- Node13 -->
<g id="node13" class="node">
<title>Node13</title>
<g id="a_node13"><a xlink:href="classKadath_1_1Space.html" target="_top" xlink:title=" ">
<polygon fill="none" stroke="black" points="994.5,-280.5 994.5,-299.5 1074.5,-299.5 1074.5,-280.5 994.5,-280.5"/>
<text text-anchor="middle" x="1034.5" y="-287.5" font-family="Helvetica,sans-Serif" font-size="10.00">Kadath::Space</text>
</a>
</g>
</g>
<!-- Node3&#45;&gt;Node13 -->
<g id="edge28" class="edge">
<title>Node3&#45;&gt;Node13</title>
<path fill="none" stroke="midnightblue" d="M65.95,-428.28C70.24,-363.3 93.33,-160 214.5,-160 214.5,-160 214.5,-160 593,-160 763.24,-160 955.91,-250.42 1015.18,-280.44"/>
<polygon fill="midnightblue" stroke="midnightblue" points="62.45,-428.23 65.36,-438.42 69.44,-428.64 62.45,-428.23"/>
</g>
<!-- Node14 -->
<g id="node14" class="node">
<title>Node14</title>
<g id="a_node14"><a xlink:href="classKadath_1_1Index.html" target="_top" xlink:title=" ">
<polygon fill="none" stroke="black" points="437,-761.5 437,-780.5 512,-780.5 512,-761.5 437,-761.5"/>
<text text-anchor="middle" x="474.5" y="-768.5" font-family="Helvetica,sans-Serif" font-size="10.00">Kadath::Index</text>
</a>
</g>
</g>
<!-- Node3&#45;&gt;Node14 -->
<g id="edge31" class="edge">
<title>Node3&#45;&gt;Node14</title>
<path fill="none" stroke="midnightblue" d="M67.42,-467.97C75.25,-528.94 101.96,-710.67 146,-747 230,-816.29 370.96,-795.54 437.13,-780.54"/>
<polygon fill="midnightblue" stroke="midnightblue" points="70.86,-467.25 66.14,-457.76 63.91,-468.12 70.86,-467.25"/>
</g>
<!-- Node15 -->
<g id="node15" class="node">
<title>Node15</title>
<g id="a_node15"><a xlink:href="classKadath_1_1Param.html" target="_top" xlink:title=" ">
<polygon fill="none" stroke="black" points="552,-885.5 552,-904.5 632,-904.5 632,-885.5 552,-885.5"/>
<text text-anchor="middle" x="592" y="-892.5" font-family="Helvetica,sans-Serif" font-size="10.00">Kadath::Param</text>
</a>
</g>
</g>
<!-- Node3&#45;&gt;Node15 -->
<g id="edge35" class="edge">
<title>Node3&#45;&gt;Node15</title>
<path fill="none" stroke="midnightblue" d="M65.69,-467.82C68.79,-544.08 84.12,-816.97 146,-871 266.21,-975.95 481.57,-927.37 560.73,-904.52"/>
<polygon fill="midnightblue" stroke="midnightblue" points="69.18,-467.55 65.31,-457.69 62.19,-467.82 69.18,-467.55"/>
</g>
<!-- Node16 -->
<g id="node16" class="node">
<title>Node16</title>
<g id="a_node16"><a xlink:href="classKadath_1_1Term__eq.html" target="_top" xlink:title=" ">
<polygon fill="none" stroke="black" points="1515,-432.5 1515,-451.5 1605,-451.5 1605,-432.5 1515,-432.5"/>
<text text-anchor="middle" x="1560" y="-439.5" font-family="Helvetica,sans-Serif" font-size="10.00">Kadath::Term_eq</text>
</a>
</g>
</g>
<!-- Node3&#45;&gt;Node16 -->
<g id="edge38" class="edge">
<title>Node3&#45;&gt;Node16</title>
<path fill="none" stroke="midnightblue" d="M74.32,-429.34C94.4,-392.08 145.57,-312 214.5,-312 214.5,-312 214.5,-312 702.5,-312 726.48,-312 730.79,-321.95 753,-331 786.72,-344.75 792.9,-354.28 828,-364 1081.08,-434.07 1399.54,-441.89 1514.81,-442.26"/>
<polygon fill="midnightblue" stroke="midnightblue" points="71.21,-427.73 69.69,-438.22 77.42,-430.97 71.21,-427.73"/>
</g>
<!-- Node17 -->
<g id="node17" class="node">
<title>Node17</title>
<g id="a_node17"><a xlink:href="classKadath_1_1Tensor.html" target="_top" xlink:title=" ">
<polygon fill="none" stroke="black" points="1363,-170.5 1363,-189.5 1445,-189.5 1445,-170.5 1363,-170.5"/>
<text text-anchor="middle" x="1404" y="-177.5" font-family="Helvetica,sans-Serif" font-size="10.00">Kadath::Tensor</text>
</a>
</g>
</g>
<!-- Node3&#45;&gt;Node17 -->
<g id="edge40" class="edge">
<title>Node3&#45;&gt;Node17</title>
<path fill="none" stroke="midnightblue" d="M67.6,-428.22C75.08,-374.55 99.2,-222.26 146,-104 161.56,-64.69 172.22,-38 214.5,-38 214.5,-38 214.5,-38 1248.5,-38 1326.83,-38 1382.56,-138.16 1398.41,-170.24"/>
<polygon fill="midnightblue" stroke="midnightblue" points="64.1,-428.01 66.22,-438.39 71.03,-428.95 64.1,-428.01"/>
</g>
<!-- Node19 -->
<g id="node19" class="node">
<title>Node19</title>
<g id="a_node19"><a xlink:href="classKadath_1_1Base__tensor.html" target="_top" xlink:title=" ">
<polygon fill="none" stroke="black" points="1194,-170.5 1194,-189.5 1301,-189.5 1301,-170.5 1194,-170.5"/>
<text text-anchor="middle" x="1247.5" y="-177.5" font-family="Helvetica,sans-Serif" font-size="10.00">Kadath::Base_tensor</text>
</a>
</g>
</g>
<!-- Node3&#45;&gt;Node19 -->
<g id="edge47" class="edge">
<title>Node3&#45;&gt;Node19</title>
<path fill="none" stroke="midnightblue" d="M64.94,-428C65.86,-357.1 79.14,-122 214.5,-122 214.5,-122 214.5,-122 593,-122 817.1,-122 1082.74,-156.26 1193.7,-172.12"/>
<polygon fill="midnightblue" stroke="midnightblue" points="61.44,-428.22 64.88,-438.24 68.44,-428.26 61.44,-428.22"/>
</g>
<!-- Node20 -->
<g id="node20" class="node">
<title>Node20</title>
<g id="a_node20"><a xlink:href="classKadath_1_1Param__tensor.html" target="_top" xlink:title=" ">
<polygon fill="none" stroke="black" points="284,-74.5 284,-93.5 397,-93.5 397,-74.5 284,-74.5"/>
<text text-anchor="middle" x="340.5" y="-81.5" font-family="Helvetica,sans-Serif" font-size="10.00">Kadath::Param_tensor</text>
</a>
</g>
</g>
<!-- Node3&#45;&gt;Node20 -->
<g id="edge51" class="edge">
<title>Node3&#45;&gt;Node20</title>
<path fill="none" stroke="midnightblue" d="M66.82,-428.06C73.28,-361.92 97.38,-151.53 146,-108 182.95,-74.92 240.98,-71.84 283.86,-75.26"/>
<polygon fill="midnightblue" stroke="midnightblue" points="63.3,-428.06 65.85,-438.34 70.27,-428.72 63.3,-428.06"/>
</g>
<!-- Node21 -->
<g id="node21" class="node">
<title>Node21</title>
<g id="a_node21"><a xlink:href="classKadath_1_1Metric.html" target="_top" xlink:title=" ">
<polygon fill="none" stroke="black" points="2031,-351.5 2031,-370.5 2110,-370.5 2110,-351.5 2031,-351.5"/>
<text text-anchor="middle" x="2070.5" y="-358.5" font-family="Helvetica,sans-Serif" font-size="10.00">Kadath::Metric</text>
</a>
</g>
</g>
<!-- Node3&#45;&gt;Node21 -->
<g id="edge53" class="edge">
<title>Node3&#45;&gt;Node21</title>
<path fill="none" stroke="midnightblue" d="M64.68,-428.29C64.6,-364.72 72.07,-161.79 165,-34 180.7,-12.41 187.81,0 214.5,0 214.5,0 214.5,0 1915.5,0 2072.9,0 2071.63,-293.93 2069.88,-351.34"/>
<polygon fill="midnightblue" stroke="midnightblue" points="61.18,-428.52 64.76,-438.49 68.18,-428.46 61.18,-428.52"/>
</g>
<!-- Node4 -->
<g id="node4" class="node">
<title>Node4</title>
<g id="a_node4"><a xlink:href="classKadath_1_1System__of__eqs.html" target="_top" xlink:title=" ">
<polygon fill="none" stroke="black" points="1855,-545.5 1855,-564.5 1974,-564.5 1974,-545.5 1855,-545.5"/>
<text text-anchor="middle" x="1914.5" y="-552.5" font-family="Helvetica,sans-Serif" font-size="10.00">Kadath::System_of_eqs</text>
</a>
</g>
</g>
<!-- Node4&#45;&gt;Node2 -->
<g id="edge4" class="edge">
<title>Node4&#45;&gt;Node2</title>
<path fill="none" stroke="#9a32cd" stroke-dasharray="5,2" d="M1905.88,-573.93C1884.19,-624.34 1817.02,-758 1714.5,-758 1479,-758 1479,-758 1479,-758 1235.78,-758 1173.87,-767.56 932,-742 926.21,-741.39 920.13,-740.53 914.17,-739.56"/>
<polygon fill="#9a32cd" stroke="#9a32cd" points="1909.18,-575.1 1909.81,-564.52 1902.73,-572.4 1909.18,-575.1"/>
<text text-anchor="middle" x="1404" y="-761" font-family="Helvetica,sans-Serif" font-size="10.00"> syst</text>
</g>
<!-- Node4&#45;&gt;Node21 -->
<g id="edge55" class="edge">
<title>Node4&#45;&gt;Node21</title>
<path fill="none" stroke="#9a32cd" stroke-dasharray="5,2" d="M1924.24,-535.96C1936.89,-509.59 1962.09,-461.22 1992,-426 2011.21,-403.38 2038.83,-382.3 2055.39,-370.58"/>
<polygon fill="#9a32cd" stroke="#9a32cd" points="1920.98,-534.68 1919.88,-545.22 1927.31,-537.66 1920.98,-534.68"/>
<text text-anchor="middle" x="2002.5" y="-429" font-family="Helvetica,sans-Serif" font-size="10.00"> syst</text>
</g>
<!-- Node5&#45;&gt;Node4 -->
<g id="edge5" class="edge">
<title>Node5&#45;&gt;Node4</title>
<path fill="none" stroke="#9a32cd" stroke-dasharray="5,2" d="M1089.16,-640.22C1257.89,-653.1 1770.5,-689.05 1837,-656 1876.4,-636.42 1900.93,-585.79 1909.78,-564.57"/>
<polygon fill="#9a32cd" stroke="#9a32cd" points="1089.26,-636.72 1079.02,-639.44 1088.72,-643.7 1089.26,-636.72"/>
<text text-anchor="middle" x="1480" y="-668" font-family="Helvetica,sans-Serif" font-size="10.00"> eq</text>
</g>
<!-- Node6&#45;&gt;Node1 -->
<g id="edge61" class="edge">
<title>Node6&#45;&gt;Node1</title>
<path fill="none" stroke="#9a32cd" stroke-dasharray="5,2" d="M229.99,-291.92C242.37,-307.06 262.07,-328.13 284,-340 336.45,-368.38 356.48,-357.55 415,-369 518.97,-389.34 545.25,-393.1 650,-409 792.75,-430.67 829.47,-428.93 972,-452 1240.06,-495.39 1560.07,-561.07 1671.7,-584.41"/>
<polygon fill="#9a32cd" stroke="#9a32cd" points="232.52,-289.48 223.58,-283.8 227.03,-293.82 232.52,-289.48"/>
<text text-anchor="middle" x="1034.5" y="-472" font-family="Helvetica,sans-Serif" font-size="10.00"> type_ind</text>
</g>
<!-- Node6&#45;&gt;Node4 -->
<g id="edge33" class="edge">
<title>Node6&#45;&gt;Node4</title>
<path fill="none" stroke="#9a32cd" stroke-dasharray="5,2" d="M276.29,-274.9C375.51,-276.8 580.36,-282.4 753,-298 809.12,-303.07 1706.44,-412.27 1758,-435 1767.53,-439.2 1767.19,-444.45 1776,-450 1801.23,-465.91 1812.54,-460.92 1837,-478 1865.74,-498.06 1893.1,-529.62 1905.91,-545.38"/>
<polygon fill="#9a32cd" stroke="#9a32cd" points="276.22,-271.4 266.16,-274.72 276.09,-278.4 276.22,-271.4"/>
<text text-anchor="middle" x="1136.5" y="-363" font-family="Helvetica,sans-Serif" font-size="10.00"> assoc_var</text>
<text text-anchor="middle" x="1136.5" y="-352" font-family="Helvetica,sans-Serif" font-size="10.00">assoc_var_double</text>
</g>
<!-- Node6&#45;&gt;Node5 -->
<g id="edge7" class="edge">
<title>Node6&#45;&gt;Node5</title>
<path fill="none" stroke="#9a32cd" stroke-dasharray="5,2" d="M222.49,-293.29C231.94,-321.32 252.55,-373.82 284,-409 330.25,-460.74 352.4,-464.03 415,-494 433.78,-502.99 750.62,-606.74 771,-611 846.95,-626.89 937.4,-632.7 989.86,-634.81"/>
<polygon fill="#9a32cd" stroke="#9a32cd" points="225.73,-291.94 219.31,-283.51 219.07,-294.11 225.73,-291.94"/>
<text text-anchor="middle" x="701.5" y="-619" font-family="Helvetica,sans-Serif" font-size="10.00"> n_cond</text>
<text text-anchor="middle" x="701.5" y="-608" font-family="Helvetica,sans-Serif" font-size="10.00">p_cmp_used</text>
</g>
<!-- Node6&#45;&gt;Node11 -->
<g id="edge22" class="edge">
<title>Node6&#45;&gt;Node11</title>
<path fill="none" stroke="#9a32cd" stroke-dasharray="5,2" d="M258.54,-286.43C309.66,-301.55 394.84,-326.74 441.14,-340.43"/>
<polygon fill="#9a32cd" stroke="#9a32cd" points="259.37,-283.03 248.79,-283.55 257.39,-289.74 259.37,-283.03"/>
<text text-anchor="middle" x="340.5" y="-328" font-family="Helvetica,sans-Serif" font-size="10.00"> bases_1d</text>
</g>
<!-- Node6&#45;&gt;Node17 -->
<g id="edge45" class="edge">
<title>Node6&#45;&gt;Node17</title>
<path fill="none" stroke="#9a32cd" stroke-dasharray="5,2" d="M242.57,-259.71C254.81,-253.62 269.8,-247 284,-243 459.12,-193.64 915.37,-156.77 1097,-146 1187.75,-140.62 1211.13,-147.25 1301,-161 1321.48,-164.13 1344.14,-168.28 1362.89,-171.91"/>
<polygon fill="#9a32cd" stroke="#9a32cd" points="240.7,-256.74 233.42,-264.43 243.91,-262.96 240.7,-256.74"/>
<text text-anchor="middle" x="871" y="-181" font-family="Helvetica,sans-Serif" font-size="10.00"> give_indices</text>
<text text-anchor="middle" x="871" y="-170" font-family="Helvetica,sans-Serif" font-size="10.00">type_indice</text>
</g>
<!-- Node6&#45;&gt;Node19 -->
<g id="edge49" class="edge">
<title>Node6&#45;&gt;Node19</title>
<path fill="none" stroke="#9a32cd" stroke-dasharray="5,2" d="M268.48,-262.56C273.7,-261.61 278.95,-260.73 284,-260 462.29,-234.2 1019.38,-195.35 1193.77,-183.53"/>
<polygon fill="#9a32cd" stroke="#9a32cd" points="267.65,-259.15 258.49,-264.47 268.97,-266.03 267.65,-259.15"/>
<text text-anchor="middle" x="790.5" y="-217" font-family="Helvetica,sans-Serif" font-size="10.00"> basis</text>
</g>
<!-- Node7&#45;&gt;Node5 -->
<g id="edge10" class="edge">
<title>Node7&#45;&gt;Node5</title>
<path fill="none" stroke="#9a32cd" stroke-dasharray="5,2" d="M890.39,-504.85C924.42,-536.04 996.22,-601.84 1023.07,-626.45"/>
<polygon fill="#9a32cd" stroke="#9a32cd" points="892.33,-501.89 882.6,-497.71 887.6,-507.05 892.33,-501.89"/>
<text text-anchor="middle" x="952" y="-582" font-family="Helvetica,sans-Serif" font-size="10.00"> dom</text>
</g>
<!-- Node7&#45;&gt;Node10 -->
<g id="edge23" class="edge">
<title>Node7&#45;&gt;Node10</title>
<path fill="none" stroke="#9a32cd" stroke-dasharray="5,2" d="M838,-474.43C813.45,-463.66 781.96,-448.97 771,-440 741.82,-416.12 717.88,-377.44 707.73,-359.59"/>
<polygon fill="#9a32cd" stroke="#9a32cd" points="836.78,-477.71 847.35,-478.49 839.57,-471.29 836.78,-477.71"/>
<text text-anchor="middle" x="790.5" y="-464" font-family="Helvetica,sans-Serif" font-size="10.00"> zone</text>
</g>
<!-- Node7&#45;&gt;Node13 -->
<g id="edge29" class="edge">
<title>Node7&#45;&gt;Node13</title>
<path fill="none" stroke="#9a32cd" stroke-dasharray="5,2" d="M886.22,-470.56C919.12,-430.23 999.62,-331.54 1025.41,-299.92"/>
<polygon fill="#9a32cd" stroke="#9a32cd" points="883.4,-468.49 879.79,-478.45 888.82,-472.91 883.4,-468.49"/>
<text text-anchor="middle" x="952" y="-415" font-family="Helvetica,sans-Serif" font-size="10.00"> domains</text>
</g>
<!-- Node8&#45;&gt;Node7 -->
<g id="edge12" class="edge">
<title>Node8&#45;&gt;Node7</title>
<path fill="none" stroke="#9a32cd" stroke-dasharray="5,2" d="M273.51,-587.9C371.61,-585.68 578.64,-579.58 753,-565 778.43,-562.87 787.51,-570.06 810,-558 836.24,-543.93 856.02,-513.35 864.88,-497.68"/>
<polygon fill="#9a32cd" stroke="#9a32cd" points="273.14,-584.41 263.22,-588.13 273.3,-591.41 273.14,-584.41"/>
<text text-anchor="middle" x="592" y="-591" font-family="Helvetica,sans-Serif" font-size="10.00"> nbr_coefs</text>
<text text-anchor="middle" x="592" y="-580" font-family="Helvetica,sans-Serif" font-size="10.00">nbr_points</text>
</g>
<!-- Node8&#45;&gt;Node14 -->
<g id="edge32" class="edge">
<title>Node8&#45;&gt;Node14</title>
<path fill="none" stroke="#9a32cd" stroke-dasharray="5,2" d="M238.38,-604.49C289.93,-641 417.83,-731.57 459.87,-761.35"/>
<polygon fill="#9a32cd" stroke="#9a32cd" points="240.14,-601.45 229.96,-598.53 236.09,-607.16 240.14,-601.45"/>
<text text-anchor="middle" x="340.5" y="-715" font-family="Helvetica,sans-Serif" font-size="10.00"> sizes</text>
</g>
<!-- Node9&#45;&gt;Node4 -->
<g id="edge36" class="edge">
<title>Node9&#45;&gt;Node4</title>
<path fill="none" stroke="#9a32cd" stroke-dasharray="5,2" d="M523.76,-487.14C527.23,-488.09 530.67,-489.04 534,-490 571.66,-500.81 830.82,-597 870,-597 870,-597 870,-597 1405,-597 1562.03,-597 1603.39,-639.44 1758,-612 1808.96,-602.95 1865.13,-578.45 1894,-564.7"/>
<polygon fill="#9a32cd" stroke="#9a32cd" points="524.54,-483.73 513.98,-484.53 522.74,-490.49 524.54,-483.73"/>
<text text-anchor="middle" x="1247.5" y="-600" font-family="Helvetica,sans-Serif" font-size="10.00"> val_cst_hard</text>
</g>
<!-- Node9&#45;&gt;Node7 -->
<g id="edge14" class="edge">
<title>Node9&#45;&gt;Node7</title>
<path fill="none" stroke="#9a32cd" stroke-dasharray="5,2" d="M544.36,-477.27C626.34,-479.97 760.66,-484.4 828.3,-486.63"/>
<polygon fill="#9a32cd" stroke="#9a32cd" points="544.24,-473.76 534.13,-476.93 544.01,-480.76 544.24,-473.76"/>
<text text-anchor="middle" x="701.5" y="-487" font-family="Helvetica,sans-Serif" font-size="10.00"> coloc</text>
</g>
<!-- Node9&#45;&gt;Node10 -->
<g id="edge18" class="edge">
<title>Node9&#45;&gt;Node10</title>
<path fill="none" stroke="#9a32cd" stroke-dasharray="5,2" d="M510.18,-461.43C518.14,-457.97 526.47,-454.07 534,-450 542.46,-445.42 543.8,-443.03 552,-438 586.77,-416.67 596.94,-413.85 632,-393 650.71,-381.88 671.87,-368.46 685.66,-359.6"/>
<polygon fill="#9a32cd" stroke="#9a32cd" points="508.6,-458.3 500.74,-465.4 511.32,-464.75 508.6,-458.3"/>
<text text-anchor="middle" x="592" y="-452" font-family="Helvetica,sans-Serif" font-size="10.00"> c</text>
<text text-anchor="middle" x="592" y="-441" font-family="Helvetica,sans-Serif" font-size="10.00">cf</text>
</g>
<!-- Node10&#45;&gt;Node7 -->
<g id="edge16" class="edge">
<title>Node10&#45;&gt;Node7</title>
<path fill="none" stroke="#9a32cd" stroke-dasharray="5,2" d="M748.01,-362.78C768.51,-370.13 792.09,-380.95 810,-396 838.18,-419.67 857.97,-459.94 866.01,-478.33"/>
<polygon fill="#9a32cd" stroke="#9a32cd" points="749.13,-359.46 738.53,-359.55 746.87,-366.09 749.13,-359.46"/>
<text text-anchor="middle" x="790.5" y="-432" font-family="Helvetica,sans-Serif" font-size="10.00"> absol</text>
<text text-anchor="middle" x="790.5" y="-421" font-family="Helvetica,sans-Serif" font-size="10.00">cart</text>
<text text-anchor="middle" x="790.5" y="-410" font-family="Helvetica,sans-Serif" font-size="10.00">cart_surr</text>
<text text-anchor="middle" x="790.5" y="-399" font-family="Helvetica,sans-Serif" font-size="10.00">radius</text>
</g>
<!-- Node10&#45;&gt;Node10 -->
<g id="edge19" class="edge">
<title>Node10&#45;&gt;Node10</title>
<path fill="none" stroke="#9a32cd" stroke-dasharray="5,2" d="M685.2,-369.4C686.29,-374.31 691.72,-378 701.5,-378 717.14,-378 721.66,-368.57 715.06,-359.76"/>
<polygon fill="#9a32cd" stroke="#9a32cd" points="688.58,-370.33 687.94,-359.76 681.84,-368.42 688.58,-370.33"/>
<text text-anchor="middle" x="701.5" y="-392" font-family="Helvetica,sans-Serif" font-size="10.00"> p_der_abs</text>
<text text-anchor="middle" x="701.5" y="-381" font-family="Helvetica,sans-Serif" font-size="10.00">p_der_var</text>
</g>
<!-- Node18 -->
<g id="node18" class="node">
<title>Node18</title>
<g id="a_node18"><a xlink:href="classKadath_1_1Scalar.html" target="_top" xlink:title=" ">
<polygon fill="none" stroke="black" points="1520,-182.5 1520,-201.5 1600,-201.5 1600,-182.5 1520,-182.5"/>
<text text-anchor="middle" x="1560" y="-189.5" font-family="Helvetica,sans-Serif" font-size="10.00">Kadath::Scalar</text>
</a>
</g>
</g>
<!-- Node10&#45;&gt;Node18 -->
<g id="edge44" class="edge">
<title>Node10&#45;&gt;Node18</title>
<path fill="none" stroke="#9a32cd" stroke-dasharray="5,2" d="M733.02,-336.29C798.22,-307.76 956.65,-242.55 1097,-217 1272.01,-185.14 1320.1,-221.69 1497,-203 1504.39,-202.22 1512.23,-201.08 1519.76,-199.82"/>
<polygon fill="#9a32cd" stroke="#9a32cd" points="731.47,-333.15 723.73,-340.38 734.29,-339.55 731.47,-333.15"/>
<text text-anchor="middle" x="1136.5" y="-220" font-family="Helvetica,sans-Serif" font-size="10.00"> val_zones</text>
</g>
<!-- Node11&#45;&gt;Node10 -->
<g id="edge20" class="edge">
<title>Node11&#45;&gt;Node10</title>
<path fill="none" stroke="#9a32cd" stroke-dasharray="5,2" d="M542.13,-350C576.53,-350 617.83,-350 649.63,-350"/>
<polygon fill="#9a32cd" stroke="#9a32cd" points="541.7,-346.5 531.7,-350 541.7,-353.5 541.7,-346.5"/>
<text text-anchor="middle" x="592" y="-353" font-family="Helvetica,sans-Serif" font-size="10.00"> base</text>
</g>
<!-- Node12&#45;&gt;Node4 -->
<g id="edge24" class="edge">
<title>Node12&#45;&gt;Node4</title>
<path fill="none" stroke="#9a32cd" stroke-dasharray="5,2" d="M1084.13,-841C1126.9,-841 1190.83,-841 1246.5,-841 1246.5,-841 1246.5,-841 1714.5,-841 1770.07,-841 1796.1,-853.61 1837,-816 1913.64,-745.53 1915.01,-602.82 1913.92,-564.6"/>
<polygon fill="#9a32cd" stroke="#9a32cd" points="1084,-837.5 1074,-841 1084,-844.5 1084,-837.5"/>
<text text-anchor="middle" x="1480" y="-844" font-family="Helvetica,sans-Serif" font-size="10.00"> eq_int</text>
</g>
<!-- Node13&#45;&gt;Node4 -->
<g id="edge27" class="edge">
<title>Node13&#45;&gt;Node4</title>
<path fill="none" stroke="#9a32cd" stroke-dasharray="5,2" d="M1061.54,-304.13C1072.21,-309.2 1084.88,-314.31 1097,-317 1257.96,-352.67 1706.12,-269.74 1837,-370 1896.04,-415.23 1909.83,-514.12 1912.77,-545.35"/>
<polygon fill="#9a32cd" stroke="#9a32cd" points="1062.89,-300.89 1052.38,-299.57 1059.77,-307.16 1062.89,-300.89"/>
<text text-anchor="middle" x="1480" y="-322" font-family="Helvetica,sans-Serif" font-size="10.00"> espace</text>
</g>
<!-- Node13&#45;&gt;Node17 -->
<g id="edge41" class="edge">
<title>Node13&#45;&gt;Node17</title>
<path fill="none" stroke="#9a32cd" stroke-dasharray="5,2" d="M1084.72,-283.01C1111.89,-278.63 1146.1,-272.23 1176,-264 1253.18,-242.75 1341.19,-206.61 1381.18,-189.51"/>
<polygon fill="#9a32cd" stroke="#9a32cd" points="1084,-279.58 1074.67,-284.6 1085.09,-286.5 1084,-279.58"/>
<text text-anchor="middle" x="1247.5" y="-260" font-family="Helvetica,sans-Serif" font-size="10.00"> espace</text>
</g>
<!-- Node13&#45;&gt;Node19 -->
<g id="edge48" class="edge">
<title>Node13&#45;&gt;Node19</title>
<path fill="none" stroke="#9a32cd" stroke-dasharray="5,2" d="M1057.55,-274.83C1068.95,-267.49 1083.31,-258.99 1097,-253 1130.5,-238.34 1143.07,-245.91 1176,-230 1198.7,-219.03 1221.97,-200.93 1235.28,-189.77"/>
<polygon fill="#9a32cd" stroke="#9a32cd" points="1055.53,-271.97 1049.11,-280.4 1059.39,-277.81 1055.53,-271.97"/>
<text text-anchor="middle" x="1136.5" y="-256" font-family="Helvetica,sans-Serif" font-size="10.00"> space</text>
</g>
<!-- Node13&#45;&gt;Node21 -->
<g id="edge54" class="edge">
<title>Node13&#45;&gt;Node21</title>
<path fill="none" stroke="#9a32cd" stroke-dasharray="5,2" d="M1084.91,-289.86C1187.57,-289.59 1431.39,-289 1636,-289 1636,-289 1636,-289 1915.5,-289 1973.64,-289 2033.5,-331.64 2058,-351.29"/>
<polygon fill="#9a32cd" stroke="#9a32cd" points="1084.84,-286.36 1074.85,-289.89 1084.85,-293.36 1084.84,-286.36"/>
<text text-anchor="middle" x="1560" y="-292" font-family="Helvetica,sans-Serif" font-size="10.00"> espace</text>
</g>
<!-- Node14&#45;&gt;Node4 -->
<g id="edge30" class="edge">
<title>Node14&#45;&gt;Node4</title>
<path fill="none" stroke="#9a32cd" stroke-dasharray="5,2" d="M522.47,-773.9C651.52,-781.6 1022.37,-802 1331,-802 1331,-802 1331,-802 1714.5,-802 1777.65,-802 1795.09,-777.24 1837,-730 1883.22,-677.92 1905.09,-593.52 1911.45,-564.88"/>
<polygon fill="#9a32cd" stroke="#9a32cd" points="522.36,-770.39 512.17,-773.28 521.94,-777.37 522.36,-770.39"/>
<text text-anchor="middle" x="1247.5" y="-804" font-family="Helvetica,sans-Serif" font-size="10.00"> which_coef</text>
</g>
<!-- Node15&#45;&gt;Node4 -->
<g id="edge34" class="edge">
<title>Node15&#45;&gt;Node4</title>
<path fill="none" stroke="#9a32cd" stroke-dasharray="5,2" d="M642.36,-895C682.1,-895 739.39,-895 789.5,-895 789.5,-895 789.5,-895 1714.5,-895 1773.65,-895 1798.25,-887.68 1837,-843 1912.08,-756.44 1914.51,-604.06 1913.8,-564.57"/>
<polygon fill="#9a32cd" stroke="#9a32cd" points="642.15,-891.5 632.15,-895 642.15,-898.5 642.15,-891.5"/>
<text text-anchor="middle" x="1247.5" y="-909" font-family="Helvetica,sans-Serif" font-size="10.00"> paruser</text>
<text text-anchor="middle" x="1247.5" y="-898" font-family="Helvetica,sans-Serif" font-size="10.00">paruser_bin</text>
</g>
<!-- Node16&#45;&gt;Node1 -->
<g id="edge62" class="edge">
<title>Node16&#45;&gt;Node1</title>
<path fill="none" stroke="#9a32cd" stroke-dasharray="5,2" d="M1580.68,-458.18C1607.16,-479.96 1651,-516 1651,-516 1666.06,-538.4 1651,-553.89 1669,-574 1672.41,-577.81 1676.72,-580.89 1681.29,-583.36"/>
<polygon fill="#9a32cd" stroke="#9a32cd" points="1582.71,-455.32 1572.77,-451.67 1578.27,-460.73 1582.71,-455.32"/>
<text text-anchor="middle" x="1637" y="-519" font-family="Helvetica,sans-Serif" font-size="10.00"> target</text>
</g>
<!-- Node16&#45;&gt;Node4 -->
<g id="edge37" class="edge">
<title>Node16&#45;&gt;Node4</title>
<path fill="none" stroke="#9a32cd" stroke-dasharray="5,2" d="M1615.21,-437.69C1656.08,-436.53 1712.65,-439.49 1758,-459 1767.83,-463.23 1767.33,-468.72 1776,-475 1815.82,-503.83 1866.74,-531.25 1894.07,-545.28"/>
<polygon fill="#9a32cd" stroke="#9a32cd" points="1615.04,-434.19 1605.18,-438.07 1615.3,-441.19 1615.04,-434.19"/>
<text text-anchor="middle" x="1713.5" y="-528" font-family="Helvetica,sans-Serif" font-size="10.00"> cst</text>
<text text-anchor="middle" x="1713.5" y="-517" font-family="Helvetica,sans-Serif" font-size="10.00">cst_hard</text>
<text text-anchor="middle" x="1713.5" y="-506" font-family="Helvetica,sans-Serif" font-size="10.00">opeuser</text>
<text text-anchor="middle" x="1713.5" y="-495" font-family="Helvetica,sans-Serif" font-size="10.00">opeuser_bin</text>
<text text-anchor="middle" x="1713.5" y="-484" font-family="Helvetica,sans-Serif" font-size="10.00">results</text>
<text text-anchor="middle" x="1713.5" y="-473" font-family="Helvetica,sans-Serif" font-size="10.00">term</text>
<text text-anchor="middle" x="1713.5" y="-462" font-family="Helvetica,sans-Serif" font-size="10.00">term_double</text>
</g>
<!-- Node16&#45;&gt;Node21 -->
<g id="edge56" class="edge">
<title>Node16&#45;&gt;Node21</title>
<path fill="none" stroke="#9a32cd" stroke-dasharray="5,2" d="M1598.78,-429.24C1641.33,-415.44 1712.8,-393.94 1776,-383 1866.38,-367.36 1974.31,-362.84 2030.75,-361.53"/>
<polygon fill="#9a32cd" stroke="#9a32cd" points="1597.54,-425.97 1589.12,-432.4 1599.72,-432.62 1597.54,-425.97"/>
<text text-anchor="middle" x="1806.5" y="-463" font-family="Helvetica,sans-Serif" font-size="10.00"> p_christo</text>
<text text-anchor="middle" x="1806.5" y="-452" font-family="Helvetica,sans-Serif" font-size="10.00">p_det_cov</text>
<text text-anchor="middle" x="1806.5" y="-441" font-family="Helvetica,sans-Serif" font-size="10.00">p_dirac</text>
<text text-anchor="middle" x="1806.5" y="-430" font-family="Helvetica,sans-Serif" font-size="10.00">p_met_con</text>
<text text-anchor="middle" x="1806.5" y="-419" font-family="Helvetica,sans-Serif" font-size="10.00">p_met_cov</text>
<text text-anchor="middle" x="1806.5" y="-408" font-family="Helvetica,sans-Serif" font-size="10.00">p_ricci_scalar</text>
<text text-anchor="middle" x="1806.5" y="-397" font-family="Helvetica,sans-Serif" font-size="10.00">p_ricci_tensor</text>
<text text-anchor="middle" x="1806.5" y="-386" font-family="Helvetica,sans-Serif" font-size="10.00">p_riemann</text>
</g>
<!-- Node16&#45;&gt;Node22 -->
<g id="edge60" class="edge">
<title>Node16&#45;&gt;Node22</title>
<path fill="none" stroke="#9a32cd" stroke-dasharray="5,2" d="M1609.39,-455.3C1624.33,-461.4 1639.79,-470.02 1651,-482 1666.85,-498.94 1653.89,-513.4 1669,-531 1674.17,-537.02 1681.24,-541.81 1688.18,-545.48"/>
<polygon fill="#9a32cd" stroke="#9a32cd" points="1610.29,-451.9 1599.7,-451.65 1607.82,-458.45 1610.29,-451.9"/>
<text text-anchor="middle" x="1637" y="-485" font-family="Helvetica,sans-Serif" font-size="10.00"> res</text>
</g>
<!-- Node17&#45;&gt;Node4 -->
<g id="edge57" class="edge">
<title>Node17&#45;&gt;Node4</title>
<path fill="none" stroke="#9a32cd" stroke-dasharray="5,2" d="M1437.13,-193.33C1445.49,-196.64 1454.54,-200.07 1463,-203 1626.86,-259.68 1713.25,-192.56 1837,-314 1905.3,-381.03 1912.75,-508.66 1913.46,-545.08"/>
<polygon fill="#9a32cd" stroke="#9a32cd" points="1438.27,-190.02 1427.69,-189.54 1435.66,-196.51 1438.27,-190.02"/>
<text text-anchor="middle" x="1637" y="-236" font-family="Helvetica,sans-Serif" font-size="10.00"> var</text>
</g>
<!-- Node17&#45;&gt;Node16 -->
<g id="edge39" class="edge">
<title>Node17&#45;&gt;Node16</title>
<path fill="none" stroke="#9a32cd" stroke-dasharray="5,2" d="M1409.43,-199.54C1417.07,-230.69 1434.69,-292.82 1463,-339 1487.02,-378.18 1527.53,-415.36 1547.36,-432.35"/>
<polygon fill="#9a32cd" stroke="#9a32cd" points="1412.78,-198.47 1407.07,-189.55 1405.96,-200.08 1412.78,-198.47"/>
<text text-anchor="middle" x="1480" y="-395" font-family="Helvetica,sans-Serif" font-size="10.00"> der_t</text>
<text text-anchor="middle" x="1480" y="-384" font-family="Helvetica,sans-Serif" font-size="10.00">val_t</text>
</g>
<!-- Node17&#45;&gt;Node18 -->
<g id="edge43" class="edge">
<title>Node17&#45;&gt;Node18</title>
<path fill="none" stroke="midnightblue" d="M1455.47,-179.05C1468.98,-179.21 1483.57,-179.74 1497,-181 1504.4,-181.69 1512.25,-182.79 1519.77,-184.04"/>
<polygon fill="midnightblue" stroke="midnightblue" points="1455.4,-175.55 1445.38,-179 1455.36,-182.55 1455.4,-175.55"/>
</g>
<!-- Node18&#45;&gt;Node17 -->
<g id="edge42" class="edge">
<title>Node18&#45;&gt;Node17</title>
<path fill="none" stroke="#9a32cd" stroke-dasharray="5,2" d="M1509.95,-188.18C1489.02,-186.55 1464.9,-184.67 1445.06,-183.12"/>
<polygon fill="#9a32cd" stroke="#9a32cd" points="1509.7,-191.67 1519.94,-188.96 1510.24,-184.69 1509.7,-191.67"/>
<text text-anchor="middle" x="1480" y="-191" font-family="Helvetica,sans-Serif" font-size="10.00"> cmp</text>
</g>
<!-- Node19&#45;&gt;Node17 -->
<g id="edge46" class="edge">
<title>Node19&#45;&gt;Node17</title>
<path fill="none" stroke="#9a32cd" stroke-dasharray="5,2" d="M1311.31,-180C1328.65,-180 1347,-180 1362.69,-180"/>
<polygon fill="#9a32cd" stroke="#9a32cd" points="1311.24,-176.5 1301.24,-180 1311.24,-183.5 1311.24,-176.5"/>
<text text-anchor="middle" x="1332" y="-183" font-family="Helvetica,sans-Serif" font-size="10.00"> basis</text>
</g>
<!-- Node20&#45;&gt;Node17 -->
<g id="edge50" class="edge">
<title>Node20&#45;&gt;Node17</title>
<path fill="none" stroke="#9a32cd" stroke-dasharray="5,2" d="M407.58,-84C457.87,-84 528.8,-84 591,-84 591,-84 591,-84 1248.5,-84 1292.7,-84 1307.75,-84.22 1345,-108 1370.16,-124.07 1389.38,-154.79 1398.01,-170.4"/>
<polygon fill="#9a32cd" stroke="#9a32cd" points="407.49,-80.5 397.49,-84 407.49,-87.5 407.49,-80.5"/>
<text text-anchor="middle" x="871" y="-87" font-family="Helvetica,sans-Serif" font-size="10.00"> parameters</text>
</g>
<!-- Node21&#45;&gt;Node4 -->
<g id="edge52" class="edge">
<title>Node21&#45;&gt;Node4</title>
<path fill="none" stroke="#9a32cd" stroke-dasharray="5,2" d="M2057.36,-379.2C2046.22,-395.64 2029.06,-420.36 2013,-441 1981.81,-481.08 1941.57,-526.25 1924.16,-545.49"/>
<polygon fill="#9a32cd" stroke="#9a32cd" points="2060.49,-380.82 2063.17,-370.57 2054.68,-376.91 2060.49,-380.82"/>
<text text-anchor="middle" x="2002.5" y="-469" font-family="Helvetica,sans-Serif" font-size="10.00"> met</text>
</g>
<!-- Node22&#45;&gt;Node4 -->
<g id="edge58" class="edge">
<title>Node22&#45;&gt;Node4</title>
<path fill="none" stroke="#9a32cd" stroke-dasharray="5,2" d="M1768.49,-555C1795.21,-555 1827.5,-555 1854.83,-555"/>
<polygon fill="#9a32cd" stroke="#9a32cd" points="1768.17,-551.5 1758.17,-555 1768.17,-558.5 1768.17,-551.5"/>
<text text-anchor="middle" x="1806.5" y="-558" font-family="Helvetica,sans-Serif" font-size="10.00"> def</text>
</g>
</g>
</svg>
