<?xml version="1.0" encoding="UTF-8" standalone="no"?>
<!DOCTYPE svg PUBLIC "-//W3C//DTD SVG 1.1//EN"
 "http://www.w3.org/Graphics/SVG/1.1/DTD/svg11.dtd">
<!-- Generated by graphviz version 2.47.1 (20210515.0534)
 -->
<!-- Title: Kadath::Space_fourD_periodic Pages: 1 -->
<svg width="535pt" height="335pt"
 viewBox="0.00 0.00 534.50 335.00" xmlns="http://www.w3.org/2000/svg" xmlns:xlink="http://www.w3.org/1999/xlink">
<g id="graph0" class="graph" transform="scale(1 1) rotate(0) translate(4 331)">
<title>Kadath::Space_fourD_periodic</title>
<!-- Node1 -->
<g id="node1" class="node">
<title>Node1</title>
<g id="a_node1"><a xlink:title=" ">
<polygon fill="#bfbfbf" stroke="black" points="0,-0.5 0,-30.5 108,-30.5 108,-0.5 0,-0.5"/>
<text text-anchor="start" x="8" y="-18.5" font-family="Helvetica,sans-Serif" font-size="10.00">Kadath::Space_fourD</text>
<text text-anchor="middle" x="54" y="-7.5" font-family="Helvetica,sans-Serif" font-size="10.00">_periodic</text>
</a>
</g>
</g>
<!-- Node2 -->
<g id="node2" class="node">
<title>Node2</title>
<g id="a_node2"><a xlink:href="classKadath_1_1Space.html" target="_top" xlink:title=" ">
<polygon fill="none" stroke="black" points="14,-69.5 14,-88.5 94,-88.5 94,-69.5 14,-69.5"/>
<text text-anchor="middle" x="54" y="-76.5" font-family="Helvetica,sans-Serif" font-size="10.00">Kadath::Space</text>
</a>
</g>
</g>
<!-- Node2&#45;&gt;Node1 -->
<g id="edge1" class="edge">
<title>Node2&#45;&gt;Node1</title>
<path fill="none" stroke="midnightblue" d="M54,-59.33C54,-50.11 54,-39.17 54,-30.65"/>
<polygon fill="midnightblue" stroke="midnightblue" points="50.5,-59.45 54,-69.45 57.5,-59.45 50.5,-59.45"/>
</g>
<!-- Node3 -->
<g id="node3" class="node">
<title>Node3</title>
<g id="a_node3"><a xlink:href="structKadath_1_1MemoryMappable.html" target="_top" xlink:title=" ">
<polygon fill="none" stroke="black" points="207,-307.5 207,-326.5 335,-326.5 335,-307.5 207,-307.5"/>
<text text-anchor="middle" x="271" y="-314.5" font-family="Helvetica,sans-Serif" font-size="10.00">Kadath::MemoryMappable</text>
</a>
</g>
</g>
<!-- Node3&#45;&gt;Node2 -->
<g id="edge2" class="edge">
<title>Node3&#45;&gt;Node2</title>
<path fill="none" stroke="midnightblue" d="M196.67,-307.96C149.2,-301.06 94.02,-289.14 80,-270 37.7,-212.25 48.11,-117.49 52.53,-88.62"/>
<polygon fill="midnightblue" stroke="midnightblue" points="196.27,-311.44 206.66,-309.35 197.24,-304.5 196.27,-311.44"/>
</g>
<!-- Node4 -->
<g id="node4" class="node">
<title>Node4</title>
<g id="a_node4"><a xlink:href="classKadath_1_1Domain.html" target="_top" xlink:title=" ">
<polygon fill="none" stroke="black" points="108.5,-171.5 108.5,-190.5 193.5,-190.5 193.5,-171.5 108.5,-171.5"/>
<text text-anchor="middle" x="151" y="-178.5" font-family="Helvetica,sans-Serif" font-size="10.00">Kadath::Domain</text>
</a>
</g>
</g>
<!-- Node3&#45;&gt;Node4 -->
<g id="edge4" class="edge">
<title>Node3&#45;&gt;Node4</title>
<path fill="none" stroke="midnightblue" d="M196.78,-306.56C152.59,-299.25 102.54,-287.39 89,-270 67.07,-241.84 112.38,-206.71 136.8,-190.69"/>
<polygon fill="midnightblue" stroke="midnightblue" points="196.26,-310.02 206.69,-308.14 197.37,-303.11 196.26,-310.02"/>
</g>
<!-- Node5 -->
<g id="node5" class="node">
<title>Node5</title>
<g id="a_node5"><a xlink:href="classKadath_1_1Dim__array.html" target="_top" xlink:title=" ">
<polygon fill="none" stroke="black" points="98.5,-250.5 98.5,-269.5 193.5,-269.5 193.5,-250.5 98.5,-250.5"/>
<text text-anchor="middle" x="146" y="-257.5" font-family="Helvetica,sans-Serif" font-size="10.00">Kadath::Dim_array</text>
</a>
</g>
</g>
<!-- Node3&#45;&gt;Node5 -->
<g id="edge6" class="edge">
<title>Node3&#45;&gt;Node5</title>
<path fill="none" stroke="midnightblue" d="M242.3,-303.37C218.73,-293 185.98,-278.59 165.39,-269.53"/>
<polygon fill="midnightblue" stroke="midnightblue" points="240.91,-306.58 251.47,-307.41 243.73,-300.18 240.91,-306.58"/>
</g>
<!-- Node6 -->
<g id="node6" class="node">
<title>Node6</title>
<g id="a_node6"><a xlink:href="classKadath_1_1Array.html" target="_top" xlink:title=" ">
<polygon fill="none" stroke="black" points="211.5,-250.5 211.5,-269.5 330.5,-269.5 330.5,-250.5 211.5,-250.5"/>
<text text-anchor="middle" x="271" y="-257.5" font-family="Helvetica,sans-Serif" font-size="10.00">Kadath::Array&lt; double &gt;</text>
</a>
</g>
</g>
<!-- Node3&#45;&gt;Node6 -->
<g id="edge8" class="edge">
<title>Node3&#45;&gt;Node6</title>
<path fill="none" stroke="midnightblue" d="M271,-297.12C271,-287.82 271,-277.06 271,-269.71"/>
<polygon fill="midnightblue" stroke="midnightblue" points="267.5,-297.41 271,-307.41 274.5,-297.41 267.5,-297.41"/>
</g>
<!-- Node7 -->
<g id="node7" class="node">
<title>Node7</title>
<g id="a_node7"><a xlink:href="classKadath_1_1Val__domain.html" target="_top" xlink:title=" ">
<polygon fill="none" stroke="black" points="219.5,-69.5 219.5,-88.5 322.5,-88.5 322.5,-69.5 219.5,-69.5"/>
<text text-anchor="middle" x="271" y="-76.5" font-family="Helvetica,sans-Serif" font-size="10.00">Kadath::Val_domain</text>
</a>
</g>
</g>
<!-- Node3&#45;&gt;Node7 -->
<g id="edge10" class="edge">
<title>Node3&#45;&gt;Node7</title>
<path fill="none" stroke="midnightblue" d="M303.49,-302.87C317.37,-295.43 332.16,-284.65 340,-270 344.19,-262.16 341.63,-258.74 340,-250 327.83,-184.87 289.88,-113.35 276.08,-88.82"/>
<polygon fill="midnightblue" stroke="midnightblue" points="301.55,-299.92 294.12,-307.48 304.64,-306.2 301.55,-299.92"/>
</g>
<!-- Node8 -->
<g id="node8" class="node">
<title>Node8</title>
<g id="a_node8"><a xlink:href="classKadath_1_1Base__spectral.html" target="_top" xlink:title=" ">
<polygon fill="none" stroke="black" points="387,-171.5 387,-190.5 501,-190.5 501,-171.5 387,-171.5"/>
<text text-anchor="middle" x="444" y="-178.5" font-family="Helvetica,sans-Serif" font-size="10.00">Kadath::Base_spectral</text>
</a>
</g>
</g>
<!-- Node3&#45;&gt;Node8 -->
<g id="edge14" class="edge">
<title>Node3&#45;&gt;Node8</title>
<path fill="none" stroke="midnightblue" d="M341.91,-304.43C352.94,-300.65 363.73,-295.64 373,-289 409.6,-262.77 432.65,-211.31 440.74,-190.77"/>
<polygon fill="midnightblue" stroke="midnightblue" points="340.7,-301.14 332.19,-307.44 342.77,-307.83 340.7,-301.14"/>
</g>
<!-- Node9 -->
<g id="node9" class="node">
<title>Node9</title>
<g id="a_node9"><a xlink:href="classKadath_1_1Array.html" target="_top" xlink:title=" ">
<polygon fill="none" stroke="black" points="425.5,-250.5 425.5,-269.5 526.5,-269.5 526.5,-250.5 425.5,-250.5"/>
<text text-anchor="middle" x="476" y="-257.5" font-family="Helvetica,sans-Serif" font-size="10.00">Kadath::Array&lt; int &gt;</text>
</a>
</g>
</g>
<!-- Node3&#45;&gt;Node9 -->
<g id="edge16" class="edge">
<title>Node3&#45;&gt;Node9</title>
<path fill="none" stroke="midnightblue" d="M340.22,-305.71C363.02,-301.52 388.33,-295.98 411,-289 427.79,-283.83 446.11,-275.7 459,-269.53"/>
<polygon fill="midnightblue" stroke="midnightblue" points="339.5,-302.28 330.28,-307.49 340.73,-309.18 339.5,-302.28"/>
</g>
<!-- Node4&#45;&gt;Node2 -->
<g id="edge3" class="edge">
<title>Node4&#45;&gt;Node2</title>
<path fill="none" stroke="#9a32cd" stroke-dasharray="5,2" d="M113.83,-167.3C105.65,-163.31 97.5,-158.26 91,-152 71.97,-133.68 60.93,-103.44 56.42,-88.66"/>
<polygon fill="#9a32cd" stroke="#9a32cd" points="112.43,-170.51 122.99,-171.38 115.28,-164.12 112.43,-170.51"/>
<text text-anchor="middle" x="111" y="-127.5" font-family="Helvetica,sans-Serif" font-size="10.00"> domains</text>
</g>
<!-- Node4&#45;&gt;Node7 -->
<g id="edge17" class="edge">
<title>Node4&#45;&gt;Node7</title>
<path fill="none" stroke="#9a32cd" stroke-dasharray="5,2" d="M145.83,-161.54C142.57,-145.59 140.95,-122.82 153,-108 161.6,-97.42 191.7,-90.38 219.34,-86.01"/>
<polygon fill="#9a32cd" stroke="#9a32cd" points="142.45,-162.43 148.21,-171.32 149.25,-160.78 142.45,-162.43"/>
<text text-anchor="middle" x="164.5" y="-127.5" font-family="Helvetica,sans-Serif" font-size="10.00"> zone</text>
</g>
<!-- Node5&#45;&gt;Node4 -->
<g id="edge5" class="edge">
<title>Node5&#45;&gt;Node4</title>
<path fill="none" stroke="#9a32cd" stroke-dasharray="5,2" d="M147.21,-240.31C148.23,-224.59 149.65,-202.81 150.43,-190.81"/>
<polygon fill="#9a32cd" stroke="#9a32cd" points="143.71,-240.26 146.55,-250.47 150.69,-240.71 143.71,-240.26"/>
<text text-anchor="middle" x="173" y="-224" font-family="Helvetica,sans-Serif" font-size="10.00"> nbr_coefs</text>
<text text-anchor="middle" x="173" y="-213" font-family="Helvetica,sans-Serif" font-size="10.00">nbr_points</text>
</g>
<!-- Node6&#45;&gt;Node4 -->
<g id="edge7" class="edge">
<title>Node6&#45;&gt;Node4</title>
<path fill="none" stroke="#9a32cd" stroke-dasharray="5,2" d="M249.63,-244.71C243.58,-240.63 237.02,-236.17 231,-232 217.11,-222.38 214.24,-219.09 200,-210 189.26,-203.15 176.8,-196.03 167.12,-190.69"/>
<polygon fill="#9a32cd" stroke="#9a32cd" points="247.73,-247.65 257.98,-250.32 251.63,-241.84 247.73,-247.65"/>
<text text-anchor="middle" x="244" y="-218.5" font-family="Helvetica,sans-Serif" font-size="10.00"> coloc</text>
</g>
<!-- Node6&#45;&gt;Node7 -->
<g id="edge11" class="edge">
<title>Node6&#45;&gt;Node7</title>
<path fill="none" stroke="#9a32cd" stroke-dasharray="5,2" d="M271,-240.09C271,-201.68 271,-115.89 271,-88.55"/>
<polygon fill="#9a32cd" stroke="#9a32cd" points="267.5,-240.37 271,-250.37 274.5,-240.37 267.5,-240.37"/>
<text text-anchor="middle" x="275.5" y="-184" font-family="Helvetica,sans-Serif" font-size="10.00"> c</text>
<text text-anchor="middle" x="275.5" y="-173" font-family="Helvetica,sans-Serif" font-size="10.00">cf</text>
</g>
<!-- Node7&#45;&gt;Node4 -->
<g id="edge9" class="edge">
<title>Node7&#45;&gt;Node4</title>
<path fill="none" stroke="#9a32cd" stroke-dasharray="5,2" d="M241.46,-93.13C233.47,-97.33 225.08,-102.36 218,-108 197.78,-124.09 197.76,-133.23 180,-152 173.65,-158.71 166.14,-165.95 160.35,-171.38"/>
<polygon fill="#9a32cd" stroke="#9a32cd" points="243.15,-96.19 250.55,-88.61 240.04,-89.93 243.15,-96.19"/>
<text text-anchor="middle" x="237.5" y="-144" font-family="Helvetica,sans-Serif" font-size="10.00"> absol</text>
<text text-anchor="middle" x="237.5" y="-133" font-family="Helvetica,sans-Serif" font-size="10.00">cart</text>
<text text-anchor="middle" x="237.5" y="-122" font-family="Helvetica,sans-Serif" font-size="10.00">cart_surr</text>
<text text-anchor="middle" x="237.5" y="-111" font-family="Helvetica,sans-Serif" font-size="10.00">radius</text>
</g>
<!-- Node7&#45;&gt;Node7 -->
<g id="edge12" class="edge">
<title>Node7&#45;&gt;Node7</title>
<path fill="none" stroke="#9a32cd" stroke-dasharray="5,2" d="M332.82,-82.95C337.57,-82.08 340.5,-80.76 340.5,-79 340.5,-76.18 333,-74.5 322.53,-73.95"/>
<polygon fill="#9a32cd" stroke="#9a32cd" points="332.1,-79.51 322.53,-84.05 332.84,-86.47 332.1,-79.51"/>
<text text-anchor="middle" x="364.5" y="-82" font-family="Helvetica,sans-Serif" font-size="10.00"> p_der_abs</text>
<text text-anchor="middle" x="364.5" y="-71" font-family="Helvetica,sans-Serif" font-size="10.00">p_der_var</text>
</g>
<!-- Node8&#45;&gt;Node7 -->
<g id="edge13" class="edge">
<title>Node8&#45;&gt;Node7</title>
<path fill="none" stroke="#9a32cd" stroke-dasharray="5,2" d="M431.83,-163.31C418.99,-146.87 397.28,-122.23 373,-108 357.63,-98.99 339.27,-92.79 322.38,-88.56"/>
<polygon fill="#9a32cd" stroke="#9a32cd" points="429.19,-165.61 438.01,-171.47 434.77,-161.39 429.19,-165.61"/>
<text text-anchor="middle" x="433" y="-127.5" font-family="Helvetica,sans-Serif" font-size="10.00"> base</text>
</g>
<!-- Node9&#45;&gt;Node8 -->
<g id="edge15" class="edge">
<title>Node9&#45;&gt;Node8</title>
<path fill="none" stroke="#9a32cd" stroke-dasharray="5,2" d="M468.61,-241.22C462.05,-225.44 452.74,-203.04 447.66,-190.81"/>
<polygon fill="#9a32cd" stroke="#9a32cd" points="465.38,-242.57 472.45,-250.47 471.85,-239.89 465.38,-242.57"/>
<text text-anchor="middle" x="486.5" y="-218.5" font-family="Helvetica,sans-Serif" font-size="10.00"> bases_1d</text>
</g>
</g>
</svg>
