<?xml version="1.0" encoding="UTF-8" standalone="no"?>
<!DOCTYPE svg PUBLIC "-//W3C//DTD SVG 1.1//EN"
 "http://www.w3.org/Graphics/SVG/1.1/DTD/svg11.dtd">
<!-- Generated by graphviz version 2.47.1 (20210515.0534)
 -->
<!-- Title: Kadath::Metric_nophi_const Pages: 1 -->
<svg width="2092pt" height="851pt"
 viewBox="0.00 0.00 2092.00 850.70" xmlns="http://www.w3.org/2000/svg" xmlns:xlink="http://www.w3.org/1999/xlink">
<g id="graph0" class="graph" transform="scale(1 1) rotate(0) translate(4 846.7)">
<title>Kadath::Metric_nophi_const</title>
<!-- Node1 -->
<g id="node1" class="node">
<title>Node1</title>
<g id="a_node1"><a xlink:title=" ">
<polygon fill="#bfbfbf" stroke="black" points="1977,-190.7 1977,-220.7 2084,-220.7 2084,-190.7 1977,-190.7"/>
<text text-anchor="start" x="1985" y="-208.7" font-family="Helvetica,sans-Serif" font-size="10.00">Kadath::Metric_nophi</text>
<text text-anchor="middle" x="2030.5" y="-197.7" font-family="Helvetica,sans-Serif" font-size="10.00">_const</text>
</a>
</g>
</g>
<!-- Node2 -->
<g id="node2" class="node">
<title>Node2</title>
<g id="a_node2"><a xlink:href="classKadath_1_1Metric__nophi.html" target="_top" xlink:title=" ">
<polygon fill="none" stroke="black" points="1809,-196.2 1809,-215.2 1916,-215.2 1916,-196.2 1809,-196.2"/>
<text text-anchor="middle" x="1862.5" y="-203.2" font-family="Helvetica,sans-Serif" font-size="10.00">Kadath::Metric_nophi</text>
</a>
</g>
</g>
<!-- Node2&#45;&gt;Node1 -->
<g id="edge1" class="edge">
<title>Node2&#45;&gt;Node1</title>
<path fill="none" stroke="midnightblue" d="M1926.22,-205.7C1942.87,-205.7 1960.69,-205.7 1976.75,-205.7"/>
<polygon fill="midnightblue" stroke="midnightblue" points="1926.02,-202.2 1916.02,-205.7 1926.02,-209.2 1926.02,-202.2"/>
</g>
<!-- Node3 -->
<g id="node3" class="node">
<title>Node3</title>
<g id="a_node3"><a xlink:href="classKadath_1_1Metric.html" target="_top" xlink:title=" ">
<polygon fill="none" stroke="black" points="1487,-234.2 1487,-253.2 1566,-253.2 1566,-234.2 1487,-234.2"/>
<text text-anchor="middle" x="1526.5" y="-241.2" font-family="Helvetica,sans-Serif" font-size="10.00">Kadath::Metric</text>
</a>
</g>
</g>
<!-- Node3&#45;&gt;Node2 -->
<g id="edge2" class="edge">
<title>Node3&#45;&gt;Node2</title>
<path fill="none" stroke="midnightblue" d="M1576.44,-239.12C1621.76,-234.78 1690.99,-227.86 1751,-220.7 1769.94,-218.44 1790.66,-215.7 1808.99,-213.18"/>
<polygon fill="midnightblue" stroke="midnightblue" points="1575.93,-235.66 1566.3,-240.09 1576.59,-242.63 1575.93,-235.66"/>
</g>
<!-- Node12 -->
<g id="node12" class="node">
<title>Node12</title>
<g id="a_node12"><a xlink:href="classKadath_1_1System__of__eqs.html" target="_top" xlink:title=" ">
<polygon fill="none" stroke="black" points="1632,-461.2 1632,-480.2 1751,-480.2 1751,-461.2 1632,-461.2"/>
<text text-anchor="middle" x="1691.5" y="-468.2" font-family="Helvetica,sans-Serif" font-size="10.00">Kadath::System_of_eqs</text>
</a>
</g>
</g>
<!-- Node3&#45;&gt;Node12 -->
<g id="edge56" class="edge">
<title>Node3&#45;&gt;Node12</title>
<path fill="none" stroke="#9a32cd" stroke-dasharray="5,2" d="M1554.32,-258.93C1558.38,-261.65 1562.41,-264.62 1566,-267.7 1575.32,-275.71 1575.07,-280.25 1584,-288.7 1596.2,-300.25 1603.4,-298.66 1614,-311.7 1654,-360.9 1679.33,-434.5 1687.56,-460.86"/>
<polygon fill="#9a32cd" stroke="#9a32cd" points="1555.86,-255.76 1545.53,-253.39 1552.12,-261.68 1555.86,-255.76"/>
<text text-anchor="middle" x="1599" y="-314.7" font-family="Helvetica,sans-Serif" font-size="10.00"> met</text>
</g>
<!-- Node25 -->
<g id="node25" class="node">
<title>Node25</title>
<g id="a_node25"><a xlink:href="classKadath_1_1Metric__flat__nophi.html" target="_top" xlink:title=" ">
<polygon fill="none" stroke="black" points="1643,-138.7 1643,-168.7 1740,-168.7 1740,-138.7 1643,-138.7"/>
<text text-anchor="start" x="1651" y="-156.7" font-family="Helvetica,sans-Serif" font-size="10.00">Kadath::Metric_flat</text>
<text text-anchor="middle" x="1691.5" y="-145.7" font-family="Helvetica,sans-Serif" font-size="10.00">_nophi</text>
</a>
</g>
</g>
<!-- Node3&#45;&gt;Node25 -->
<g id="edge66" class="edge">
<title>Node3&#45;&gt;Node25</title>
<path fill="none" stroke="midnightblue" d="M1552.3,-229.02C1573.36,-216.66 1604.46,-198.66 1632,-183.7 1641.13,-178.74 1651.16,-173.52 1660.3,-168.85"/>
<polygon fill="midnightblue" stroke="midnightblue" points="1550.5,-226.02 1543.66,-234.11 1554.05,-232.05 1550.5,-226.02"/>
</g>
<!-- Node4 -->
<g id="node4" class="node">
<title>Node4</title>
<g id="a_node4"><a xlink:href="structKadath_1_1MemoryMappable.html" target="_top" xlink:title=" ">
<polygon fill="none" stroke="black" points="0,-463.2 0,-482.2 128,-482.2 128,-463.2 0,-463.2"/>
<text text-anchor="middle" x="64" y="-470.2" font-family="Helvetica,sans-Serif" font-size="10.00">Kadath::MemoryMappable</text>
</a>
</g>
</g>
<!-- Node4&#45;&gt;Node3 -->
<g id="edge3" class="edge">
<title>Node4&#45;&gt;Node3</title>
<path fill="none" stroke="midnightblue" d="M67.89,-453.16C75.89,-401.98 100.75,-260.44 146,-150.7 163.25,-108.88 178.26,-84.7 223.5,-84.7 223.5,-84.7 223.5,-84.7 908.5,-84.7 968.72,-84.7 1372.89,-199.74 1492.33,-234.11"/>
<polygon fill="midnightblue" stroke="midnightblue" points="64.41,-452.75 66.36,-463.16 71.33,-453.81 64.41,-452.75"/>
</g>
<!-- Node5 -->
<g id="node5" class="node">
<title>Node5</title>
<g id="a_node5"><a xlink:href="classKadath_1_1Space.html" target="_top" xlink:title=" ">
<polygon fill="none" stroke="black" points="674.5,-415.2 674.5,-434.2 754.5,-434.2 754.5,-415.2 674.5,-415.2"/>
<text text-anchor="middle" x="714.5" y="-422.2" font-family="Helvetica,sans-Serif" font-size="10.00">Kadath::Space</text>
</a>
</g>
</g>
<!-- Node4&#45;&gt;Node5 -->
<g id="edge5" class="edge">
<title>Node4&#45;&gt;Node5</title>
<path fill="none" stroke="midnightblue" d="M138.3,-465.99C147.29,-465.2 156.35,-464.42 165,-463.7 355.75,-447.81 584.16,-432.89 674.23,-427.17"/>
<polygon fill="midnightblue" stroke="midnightblue" points="137.86,-462.52 128.2,-466.88 138.47,-469.49 137.86,-462.52"/>
</g>
<!-- Node6 -->
<g id="node6" class="node">
<title>Node6</title>
<g id="a_node6"><a xlink:href="classKadath_1_1Domain.html" target="_top" xlink:title=" ">
<polygon fill="none" stroke="black" points="414.5,-589.2 414.5,-608.2 499.5,-608.2 499.5,-589.2 414.5,-589.2"/>
<text text-anchor="middle" x="457" y="-596.2" font-family="Helvetica,sans-Serif" font-size="10.00">Kadath::Domain</text>
</a>
</g>
</g>
<!-- Node4&#45;&gt;Node6 -->
<g id="edge7" class="edge">
<title>Node4&#45;&gt;Node6</title>
<path fill="none" stroke="midnightblue" d="M84.51,-488.86C103.82,-504.07 134.8,-526.45 165,-539.7 248.79,-576.45 356.29,-590.61 414.33,-595.83"/>
<polygon fill="midnightblue" stroke="midnightblue" points="86.49,-485.96 76.51,-482.43 82.11,-491.42 86.49,-485.96"/>
</g>
<!-- Node7 -->
<g id="node7" class="node">
<title>Node7</title>
<g id="a_node7"><a xlink:href="classKadath_1_1Dim__array.html" target="_top" xlink:title=" ">
<polygon fill="none" stroke="black" points="177,-615.2 177,-634.2 272,-634.2 272,-615.2 177,-615.2"/>
<text text-anchor="middle" x="224.5" y="-622.2" font-family="Helvetica,sans-Serif" font-size="10.00">Kadath::Dim_array</text>
</a>
</g>
</g>
<!-- Node4&#45;&gt;Node7 -->
<g id="edge9" class="edge">
<title>Node4&#45;&gt;Node7</title>
<path fill="none" stroke="midnightblue" d="M72.07,-491.82C83.39,-519.82 108.23,-571.78 146,-600.7 154.95,-607.55 165.87,-612.46 176.66,-615.98"/>
<polygon fill="midnightblue" stroke="midnightblue" points="75.28,-490.42 68.4,-482.36 68.76,-492.95 75.28,-490.42"/>
</g>
<!-- Node8 -->
<g id="node8" class="node">
<title>Node8</title>
<g id="a_node8"><a xlink:href="classKadath_1_1Array.html" target="_top" xlink:title=" ">
<polygon fill="none" stroke="black" points="165,-511.2 165,-530.2 284,-530.2 284,-511.2 165,-511.2"/>
<text text-anchor="middle" x="224.5" y="-518.2" font-family="Helvetica,sans-Serif" font-size="10.00">Kadath::Array&lt; double &gt;</text>
</a>
</g>
</g>
<!-- Node4&#45;&gt;Node8 -->
<g id="edge11" class="edge">
<title>Node4&#45;&gt;Node8</title>
<path fill="none" stroke="midnightblue" d="M106.52,-485.28C133.22,-493.36 167.36,-503.7 191.86,-511.12"/>
<polygon fill="midnightblue" stroke="midnightblue" points="107.28,-481.85 96.69,-482.3 105.25,-488.55 107.28,-481.85"/>
</g>
<!-- Node9 -->
<g id="node9" class="node">
<title>Node9</title>
<g id="a_node9"><a xlink:href="classKadath_1_1Val__domain.html" target="_top" xlink:title=" ">
<polygon fill="none" stroke="black" points="663,-560.2 663,-579.2 766,-579.2 766,-560.2 663,-560.2"/>
<text text-anchor="middle" x="714.5" y="-567.2" font-family="Helvetica,sans-Serif" font-size="10.00">Kadath::Val_domain</text>
</a>
</g>
</g>
<!-- Node4&#45;&gt;Node9 -->
<g id="edge13" class="edge">
<title>Node4&#45;&gt;Node9</title>
<path fill="none" stroke="midnightblue" d="M70.48,-492.22C81.72,-528.4 110.98,-605.66 165,-643.7 216.21,-679.76 239.81,-669.32 302,-676.7 400.83,-688.44 619.46,-673.4 645,-659.7 678.91,-641.51 701.05,-598.42 709.56,-579.22"/>
<polygon fill="midnightblue" stroke="midnightblue" points="73.77,-490.99 67.56,-482.4 67.06,-492.98 73.77,-490.99"/>
</g>
<!-- Node10 -->
<g id="node10" class="node">
<title>Node10</title>
<g id="a_node10"><a xlink:href="classKadath_1_1Base__spectral.html" target="_top" xlink:title=" ">
<polygon fill="none" stroke="black" points="400,-455.2 400,-474.2 514,-474.2 514,-455.2 400,-455.2"/>
<text text-anchor="middle" x="457" y="-462.2" font-family="Helvetica,sans-Serif" font-size="10.00">Kadath::Base_spectral</text>
</a>
</g>
</g>
<!-- Node4&#45;&gt;Node10 -->
<g id="edge17" class="edge">
<title>Node4&#45;&gt;Node10</title>
<path fill="none" stroke="midnightblue" d="M138.68,-471.19C214.54,-469.64 331.08,-467.26 399.81,-465.85"/>
<polygon fill="midnightblue" stroke="midnightblue" points="138.18,-467.7 128.26,-471.41 138.33,-474.7 138.18,-467.7"/>
</g>
<!-- Node11 -->
<g id="node11" class="node">
<title>Node11</title>
<g id="a_node11"><a xlink:href="classKadath_1_1Array.html" target="_top" xlink:title=" ">
<polygon fill="none" stroke="black" points="174,-354.2 174,-373.2 275,-373.2 275,-354.2 174,-354.2"/>
<text text-anchor="middle" x="224.5" y="-361.2" font-family="Helvetica,sans-Serif" font-size="10.00">Kadath::Array&lt; int &gt;</text>
</a>
</g>
</g>
<!-- Node4&#45;&gt;Node11 -->
<g id="edge19" class="edge">
<title>Node4&#45;&gt;Node11</title>
<path fill="none" stroke="midnightblue" d="M87.64,-457.13C120.8,-434.33 181.66,-392.48 209.24,-373.51"/>
<polygon fill="midnightblue" stroke="midnightblue" points="85.32,-454.48 79.07,-463.03 89.29,-460.25 85.32,-454.48"/>
</g>
<!-- Node13 -->
<g id="node13" class="node">
<title>Node13</title>
<g id="a_node13"><a xlink:href="classKadath_1_1Equation.html" target="_top" xlink:title=" ">
<polygon fill="none" stroke="black" points="1986,-695.2 1986,-714.2 2075,-714.2 2075,-695.2 1986,-695.2"/>
<text text-anchor="middle" x="2030.5" y="-702.2" font-family="Helvetica,sans-Serif" font-size="10.00">Kadath::Equation</text>
</a>
</g>
</g>
<!-- Node4&#45;&gt;Node13 -->
<g id="edge23" class="edge">
<title>Node4&#45;&gt;Node13</title>
<path fill="none" stroke="midnightblue" d="M64.4,-492.39C63.19,-568.96 69.62,-842.7 223.5,-842.7 223.5,-842.7 223.5,-842.7 1863.5,-842.7 1943.7,-842.7 2005.82,-746.27 2024.04,-714.63"/>
<polygon fill="midnightblue" stroke="midnightblue" points="67.91,-492.3 64.63,-482.22 60.91,-492.14 67.91,-492.3"/>
</g>
<!-- Node14 -->
<g id="node14" class="node">
<title>Node14</title>
<g id="a_node14"><a xlink:href="classKadath_1_1Ope__eq.html" target="_top" xlink:title=" ">
<polygon fill="none" stroke="black" points="1819.5,-584.2 1819.5,-603.2 1905.5,-603.2 1905.5,-584.2 1819.5,-584.2"/>
<text text-anchor="middle" x="1862.5" y="-591.2" font-family="Helvetica,sans-Serif" font-size="10.00">Kadath::Ope_eq</text>
</a>
</g>
</g>
<!-- Node4&#45;&gt;Node14 -->
<g id="edge26" class="edge">
<title>Node4&#45;&gt;Node14</title>
<path fill="none" stroke="midnightblue" d="M65.24,-492.6C67.25,-564.23 84.34,-804.7 223.5,-804.7 223.5,-804.7 223.5,-804.7 1118,-804.7 1417.22,-804.7 1759.31,-644.59 1842.54,-603.32"/>
<polygon fill="midnightblue" stroke="midnightblue" points="68.73,-492.21 65.03,-482.28 61.73,-492.35 68.73,-492.21"/>
</g>
<!-- Node15 -->
<g id="node15" class="node">
<title>Node15</title>
<g id="a_node15"><a xlink:href="classKadath_1_1Eq__int.html" target="_top" xlink:title=" ">
<polygon fill="none" stroke="black" points="1991,-410.2 1991,-429.2 2070,-429.2 2070,-410.2 1991,-410.2"/>
<text text-anchor="middle" x="2030.5" y="-417.2" font-family="Helvetica,sans-Serif" font-size="10.00">Kadath::Eq_int</text>
</a>
</g>
</g>
<!-- Node4&#45;&gt;Node15 -->
<g id="edge31" class="edge">
<title>Node4&#45;&gt;Node15</title>
<path fill="none" stroke="midnightblue" d="M64.73,-452.63C64.92,-390.47 73.3,-198.29 165,-80.7 183.49,-56.99 193.43,-46.7 223.5,-46.7 223.5,-46.7 223.5,-46.7 1863.5,-46.7 1904.52,-46.7 2007.1,-351.72 2026.36,-410.11"/>
<polygon fill="midnightblue" stroke="midnightblue" points="61.23,-452.99 64.78,-462.97 68.23,-452.95 61.23,-452.99"/>
</g>
<!-- Node16 -->
<g id="node16" class="node">
<title>Node16</title>
<g id="a_node16"><a xlink:href="classKadath_1_1Index.html" target="_top" xlink:title=" ">
<polygon fill="none" stroke="black" points="419.5,-719.2 419.5,-738.2 494.5,-738.2 494.5,-719.2 419.5,-719.2"/>
<text text-anchor="middle" x="457" y="-726.2" font-family="Helvetica,sans-Serif" font-size="10.00">Kadath::Index</text>
</a>
</g>
</g>
<!-- Node4&#45;&gt;Node16 -->
<g id="edge35" class="edge">
<title>Node4&#45;&gt;Node16</title>
<path fill="none" stroke="midnightblue" d="M65.18,-492.37C66.77,-538.2 77.75,-652.16 146,-704.7 187.81,-736.89 346.55,-733.91 419.25,-730.71"/>
<polygon fill="midnightblue" stroke="midnightblue" points="68.68,-492.18 64.95,-482.27 61.68,-492.35 68.68,-492.18"/>
</g>
<!-- Node17 -->
<g id="node17" class="node">
<title>Node17</title>
<g id="a_node17"><a xlink:href="classKadath_1_1Param.html" target="_top" xlink:title=" ">
<polygon fill="none" stroke="black" points="302,-757.2 302,-776.2 382,-776.2 382,-757.2 302,-757.2"/>
<text text-anchor="middle" x="342" y="-764.2" font-family="Helvetica,sans-Serif" font-size="10.00">Kadath::Param</text>
</a>
</g>
</g>
<!-- Node4&#45;&gt;Node17 -->
<g id="edge39" class="edge">
<title>Node4&#45;&gt;Node17</title>
<path fill="none" stroke="midnightblue" d="M64.24,-492.51C63.48,-543.14 69.14,-677.85 146,-742.7 189.27,-779.22 258.42,-778.47 301.69,-773.43"/>
<polygon fill="midnightblue" stroke="midnightblue" points="67.74,-492.37 64.5,-482.28 60.75,-492.19 67.74,-492.37"/>
</g>
<!-- Node18 -->
<g id="node18" class="node">
<title>Node18</title>
<g id="a_node18"><a xlink:href="classKadath_1_1Term__eq.html" target="_top" xlink:title=" ">
<polygon fill="none" stroke="black" points="1250,-230.2 1250,-249.2 1340,-249.2 1340,-230.2 1250,-230.2"/>
<text text-anchor="middle" x="1295" y="-237.2" font-family="Helvetica,sans-Serif" font-size="10.00">Kadath::Term_eq</text>
</a>
</g>
</g>
<!-- Node4&#45;&gt;Node18 -->
<g id="edge42" class="edge">
<title>Node4&#45;&gt;Node18</title>
<path fill="none" stroke="midnightblue" d="M64.82,-452.67C65.3,-378.36 77.55,-122.7 223.5,-122.7 223.5,-122.7 223.5,-122.7 811,-122.7 922.83,-122.7 965.37,-108.05 1058,-170.7 1069.34,-178.37 1064.5,-188.28 1076,-195.7 1129.05,-229.92 1203.26,-238.38 1249.96,-240.02"/>
<polygon fill="midnightblue" stroke="midnightblue" points="61.32,-452.98 64.83,-462.98 68.32,-452.97 61.32,-452.98"/>
</g>
<!-- Node19 -->
<g id="node19" class="node">
<title>Node19</title>
<g id="a_node19"><a xlink:href="classKadath_1_1Tensor.html" target="_top" xlink:title=" ">
<polygon fill="none" stroke="black" points="1076,-289.2 1076,-308.2 1158,-308.2 1158,-289.2 1076,-289.2"/>
<text text-anchor="middle" x="1117" y="-296.2" font-family="Helvetica,sans-Serif" font-size="10.00">Kadath::Tensor</text>
</a>
</g>
</g>
<!-- Node4&#45;&gt;Node19 -->
<g id="edge44" class="edge">
<title>Node4&#45;&gt;Node19</title>
<path fill="none" stroke="midnightblue" d="M65.76,-452.69C69.55,-383.8 91.98,-160.7 223.5,-160.7 223.5,-160.7 223.5,-160.7 908.5,-160.7 981.68,-160.7 999.84,-185.29 1058,-229.7 1080.64,-246.99 1100.4,-274.57 1109.94,-289.07"/>
<polygon fill="midnightblue" stroke="midnightblue" points="62.25,-452.87 65.27,-463.02 69.24,-453.2 62.25,-452.87"/>
</g>
<!-- Node21 -->
<g id="node21" class="node">
<title>Node21</title>
<g id="a_node21"><a xlink:href="classKadath_1_1Base__tensor.html" target="_top" xlink:title=" ">
<polygon fill="none" stroke="black" points="854,-250.2 854,-269.2 961,-269.2 961,-250.2 854,-250.2"/>
<text text-anchor="middle" x="907.5" y="-257.2" font-family="Helvetica,sans-Serif" font-size="10.00">Kadath::Base_tensor</text>
</a>
</g>
</g>
<!-- Node4&#45;&gt;Node21 -->
<g id="edge51" class="edge">
<title>Node4&#45;&gt;Node21</title>
<path fill="none" stroke="midnightblue" d="M65.45,-452.5C67.69,-373.54 80.28,-87.42 146,-32.7 292.19,89.03 349.16,-165.16 532,-217.7 547.25,-222.08 754.45,-243.94 853.92,-254.28"/>
<polygon fill="midnightblue" stroke="midnightblue" points="61.94,-452.88 65.19,-462.96 68.94,-453.06 61.94,-452.88"/>
</g>
<!-- Node22 -->
<g id="node22" class="node">
<title>Node22</title>
<g id="a_node22"><a xlink:href="classKadath_1_1Param__tensor.html" target="_top" xlink:title=" ">
<polygon fill="none" stroke="black" points="532,-189.2 532,-208.2 645,-208.2 645,-189.2 532,-189.2"/>
<text text-anchor="middle" x="588.5" y="-196.2" font-family="Helvetica,sans-Serif" font-size="10.00">Kadath::Param_tensor</text>
</a>
</g>
</g>
<!-- Node4&#45;&gt;Node22 -->
<g id="edge55" class="edge">
<title>Node4&#45;&gt;Node22</title>
<path fill="none" stroke="midnightblue" d="M76.22,-454.45C93.11,-428 127.15,-378.49 165,-344.7 218.28,-297.14 235.72,-287.32 302,-260.7 378.6,-229.93 473.19,-213.23 531.94,-205.14"/>
<polygon fill="midnightblue" stroke="midnightblue" points="73.16,-452.75 70.8,-463.08 79.08,-456.48 73.16,-452.75"/>
</g>
<!-- Node5&#45;&gt;Node3 -->
<g id="edge4" class="edge">
<title>Node5&#45;&gt;Node3</title>
<path fill="none" stroke="#9a32cd" stroke-dasharray="5,2" d="M764.85,-424.07C831.52,-422.83 954,-419.21 1058,-408.7 1184.21,-395.95 1216.03,-391.57 1340,-364.7 1398.17,-352.09 1420.84,-363.68 1469,-328.7 1496.53,-308.71 1514.54,-270.89 1521.83,-253.23"/>
<polygon fill="#9a32cd" stroke="#9a32cd" points="764.58,-420.57 754.64,-424.25 764.7,-427.57 764.58,-420.57"/>
<text text-anchor="middle" x="1117" y="-409.7" font-family="Helvetica,sans-Serif" font-size="10.00"> espace</text>
</g>
<!-- Node5&#45;&gt;Node12 -->
<g id="edge33" class="edge">
<title>Node5&#45;&gt;Node12</title>
<path fill="none" stroke="#9a32cd" stroke-dasharray="5,2" d="M764.65,-433.67C771.15,-434.75 777.73,-435.79 784,-436.7 990.06,-466.55 1041.84,-480.48 1250,-484.7 1411.74,-487.98 1452.88,-499.32 1614,-484.7 1624.49,-483.75 1635.69,-482.08 1646.19,-480.21"/>
<polygon fill="#9a32cd" stroke="#9a32cd" points="765,-430.18 754.56,-431.95 763.83,-437.08 765,-430.18"/>
<text text-anchor="middle" x="1204" y="-486.7" font-family="Helvetica,sans-Serif" font-size="10.00"> espace</text>
</g>
<!-- Node5&#45;&gt;Node19 -->
<g id="edge45" class="edge">
<title>Node5&#45;&gt;Node19</title>
<path fill="none" stroke="#9a32cd" stroke-dasharray="5,2" d="M755.67,-412.06C835.86,-386.83 1014.24,-330.72 1085.62,-308.26"/>
<polygon fill="#9a32cd" stroke="#9a32cd" points="754.42,-408.79 745.93,-415.13 756.52,-415.47 754.42,-408.79"/>
<text text-anchor="middle" x="907.5" y="-382.7" font-family="Helvetica,sans-Serif" font-size="10.00"> espace</text>
</g>
<!-- Node5&#45;&gt;Node21 -->
<g id="edge52" class="edge">
<title>Node5&#45;&gt;Node21</title>
<path fill="none" stroke="#9a32cd" stroke-dasharray="5,2" d="M726.32,-406.36C738.55,-386.72 759.91,-355.45 784,-333.7 815.53,-305.23 859.6,-281.77 885.38,-269.34"/>
<polygon fill="#9a32cd" stroke="#9a32cd" points="723.29,-404.61 721.08,-414.98 729.27,-408.25 723.29,-404.61"/>
<text text-anchor="middle" x="810" y="-336.7" font-family="Helvetica,sans-Serif" font-size="10.00"> space</text>
</g>
<!-- Node6&#45;&gt;Node5 -->
<g id="edge6" class="edge">
<title>Node6&#45;&gt;Node5</title>
<path fill="none" stroke="#9a32cd" stroke-dasharray="5,2" d="M493.08,-585.08C500.15,-581.94 507.42,-578.43 514,-574.7 522.59,-569.84 523.44,-566.61 532,-561.7 579.63,-534.36 601.62,-545.38 645,-511.7 674,-489.18 697.86,-451.84 708.1,-434.32"/>
<polygon fill="#9a32cd" stroke="#9a32cd" points="491.48,-581.95 483.66,-589.1 494.23,-588.39 491.48,-581.95"/>
<text text-anchor="middle" x="588.5" y="-564.7" font-family="Helvetica,sans-Serif" font-size="10.00"> domains</text>
</g>
<!-- Node6&#45;&gt;Node9 -->
<g id="edge20" class="edge">
<title>Node6&#45;&gt;Node9</title>
<path fill="none" stroke="#9a32cd" stroke-dasharray="5,2" d="M482.1,-613.44C496.11,-621.14 514.42,-629.75 532,-633.7 581,-644.71 598.28,-652.13 645,-633.7 672.86,-622.71 696.06,-594.46 706.9,-579.43"/>
<polygon fill="#9a32cd" stroke="#9a32cd" points="483.57,-610.25 473.15,-608.33 480.1,-616.33 483.57,-610.25"/>
<text text-anchor="middle" x="588.5" y="-647.7" font-family="Helvetica,sans-Serif" font-size="10.00"> zone</text>
</g>
<!-- Node6&#45;&gt;Node13 -->
<g id="edge29" class="edge">
<title>Node6&#45;&gt;Node13</title>
<path fill="none" stroke="#9a32cd" stroke-dasharray="5,2" d="M473.62,-616.22C487.45,-630.49 508.97,-649.83 532,-659.7 606.68,-691.72 632.24,-681.7 713.5,-681.7 713.5,-681.7 713.5,-681.7 1019.5,-681.7 1279.5,-681.7 1338,-768.7 1598,-768.7 1598,-768.7 1598,-768.7 1863.5,-768.7 1923.11,-768.7 1987.19,-732.33 2015.12,-714.42"/>
<polygon fill="#9a32cd" stroke="#9a32cd" points="475.8,-613.43 466.41,-608.52 470.69,-618.21 475.8,-613.43"/>
<text text-anchor="middle" x="1295" y="-735.7" font-family="Helvetica,sans-Serif" font-size="10.00"> dom</text>
</g>
<!-- Node7&#45;&gt;Node6 -->
<g id="edge8" class="edge">
<title>Node7&#45;&gt;Node6</title>
<path fill="none" stroke="#9a32cd" stroke-dasharray="5,2" d="M282.24,-618.3C323.18,-613.68 377.52,-607.55 414.45,-603.39"/>
<polygon fill="#9a32cd" stroke="#9a32cd" points="281.69,-614.84 272.15,-619.44 282.47,-621.8 281.69,-614.84"/>
<text text-anchor="middle" x="342" y="-628.7" font-family="Helvetica,sans-Serif" font-size="10.00"> nbr_coefs</text>
<text text-anchor="middle" x="342" y="-617.7" font-family="Helvetica,sans-Serif" font-size="10.00">nbr_points</text>
</g>
<!-- Node7&#45;&gt;Node16 -->
<g id="edge36" class="edge">
<title>Node7&#45;&gt;Node16</title>
<path fill="none" stroke="#9a32cd" stroke-dasharray="5,2" d="M255.93,-638.43C303.37,-659.84 393.74,-700.61 434.78,-719.13"/>
<polygon fill="#9a32cd" stroke="#9a32cd" points="257.33,-635.22 246.77,-634.3 254.45,-641.6 257.33,-635.22"/>
<text text-anchor="middle" x="342" y="-697.7" font-family="Helvetica,sans-Serif" font-size="10.00"> sizes</text>
</g>
<!-- Node8&#45;&gt;Node6 -->
<g id="edge10" class="edge">
<title>Node8&#45;&gt;Node6</title>
<path fill="none" stroke="#9a32cd" stroke-dasharray="5,2" d="M274.71,-532.63C316.81,-542.99 372.15,-557.06 382,-561.7 390.92,-565.91 391.41,-569.84 400,-574.7 409.57,-580.12 420.61,-585.1 430.34,-589.1"/>
<polygon fill="#9a32cd" stroke="#9a32cd" points="275.41,-529.2 264.86,-530.21 273.74,-536 275.41,-529.2"/>
<text text-anchor="middle" x="342" y="-564.7" font-family="Helvetica,sans-Serif" font-size="10.00"> coloc</text>
</g>
<!-- Node8&#45;&gt;Node9 -->
<g id="edge14" class="edge">
<title>Node8&#45;&gt;Node9</title>
<path fill="none" stroke="#9a32cd" stroke-dasharray="5,2" d="M294.28,-519.65C395.81,-518.7 580.72,-519.41 645,-535.7 664.69,-540.69 685.31,-551.86 698.72,-560.04"/>
<polygon fill="#9a32cd" stroke="#9a32cd" points="294.09,-516.15 284.12,-519.76 294.16,-523.15 294.09,-516.15"/>
<text text-anchor="middle" x="457" y="-535.7" font-family="Helvetica,sans-Serif" font-size="10.00"> c</text>
<text text-anchor="middle" x="457" y="-524.7" font-family="Helvetica,sans-Serif" font-size="10.00">cf</text>
</g>
<!-- Node8&#45;&gt;Node12 -->
<g id="edge40" class="edge">
<title>Node8&#45;&gt;Node12</title>
<path fill="none" stroke="#9a32cd" stroke-dasharray="5,2" d="M294.38,-516.93C296.95,-516.84 299.5,-516.77 302,-516.7 396.19,-514.24 419.78,-515.98 514,-516.7 572.23,-517.15 586.97,-513.92 645,-518.7 811.85,-532.45 850.08,-574.7 1017.5,-574.7 1017.5,-574.7 1017.5,-574.7 1527.5,-574.7 1597.32,-574.7 1661.29,-506.05 1682.82,-480.3"/>
<polygon fill="#9a32cd" stroke="#9a32cd" points="294.24,-513.43 284.38,-517.31 294.5,-520.43 294.24,-513.43"/>
<text text-anchor="middle" x="1018.5" y="-577.7" font-family="Helvetica,sans-Serif" font-size="10.00"> val_cst_hard</text>
</g>
<!-- Node9&#45;&gt;Node6 -->
<g id="edge12" class="edge">
<title>Node9&#45;&gt;Node6</title>
<path fill="none" stroke="#9a32cd" stroke-dasharray="5,2" d="M652.5,-576.25C617.27,-580.07 572.13,-585.05 532,-589.7 521.59,-590.91 510.35,-592.25 499.86,-593.53"/>
<polygon fill="#9a32cd" stroke="#9a32cd" points="653.07,-579.71 662.63,-575.15 652.31,-572.75 653.07,-579.71"/>
<text text-anchor="middle" x="588.5" y="-625.7" font-family="Helvetica,sans-Serif" font-size="10.00"> absol</text>
<text text-anchor="middle" x="588.5" y="-614.7" font-family="Helvetica,sans-Serif" font-size="10.00">cart</text>
<text text-anchor="middle" x="588.5" y="-603.7" font-family="Helvetica,sans-Serif" font-size="10.00">cart_surr</text>
<text text-anchor="middle" x="588.5" y="-592.7" font-family="Helvetica,sans-Serif" font-size="10.00">radius</text>
</g>
<!-- Node9&#45;&gt;Node9 -->
<g id="edge15" class="edge">
<title>Node9&#45;&gt;Node9</title>
<path fill="none" stroke="#9a32cd" stroke-dasharray="5,2" d="M697.09,-589.1C698.26,-594.02 704.06,-597.7 714.5,-597.7 731.21,-597.7 736.04,-588.27 728.99,-579.46"/>
<polygon fill="#9a32cd" stroke="#9a32cd" points="700.47,-590.04 700.01,-579.46 693.77,-588.02 700.47,-590.04"/>
<text text-anchor="middle" x="714.5" y="-611.7" font-family="Helvetica,sans-Serif" font-size="10.00"> p_der_abs</text>
<text text-anchor="middle" x="714.5" y="-600.7" font-family="Helvetica,sans-Serif" font-size="10.00">p_der_var</text>
</g>
<!-- Node20 -->
<g id="node20" class="node">
<title>Node20</title>
<g id="a_node20"><a xlink:href="classKadath_1_1Scalar.html" target="_top" xlink:title=" ">
<polygon fill="none" stroke="black" points="1255,-336.2 1255,-355.2 1335,-355.2 1335,-336.2 1255,-336.2"/>
<text text-anchor="middle" x="1295" y="-343.2" font-family="Helvetica,sans-Serif" font-size="10.00">Kadath::Scalar</text>
</a>
</g>
</g>
<!-- Node9&#45;&gt;Node20 -->
<g id="edge48" class="edge">
<title>Node9&#45;&gt;Node20</title>
<path fill="none" stroke="#9a32cd" stroke-dasharray="5,2" d="M749.82,-556.48C824.21,-527.8 1005.89,-457.73 1158,-398.7 1196.98,-383.57 1242.21,-365.93 1269.44,-355.3"/>
<polygon fill="#9a32cd" stroke="#9a32cd" points="748.53,-553.22 740.46,-560.08 751.05,-559.75 748.53,-553.22"/>
<text text-anchor="middle" x="1018.5" y="-469.7" font-family="Helvetica,sans-Serif" font-size="10.00"> val_zones</text>
</g>
<!-- Node10&#45;&gt;Node9 -->
<g id="edge16" class="edge">
<title>Node10&#45;&gt;Node9</title>
<path fill="none" stroke="#9a32cd" stroke-dasharray="5,2" d="M524.48,-465.79C561.81,-468.85 608.14,-476.88 645,-496.7 673.62,-512.09 696.98,-543.95 707.49,-560"/>
<polygon fill="#9a32cd" stroke="#9a32cd" points="524.43,-462.28 514.21,-465.06 523.93,-469.26 524.43,-462.28"/>
<text text-anchor="middle" x="588.5" y="-499.7" font-family="Helvetica,sans-Serif" font-size="10.00"> base</text>
</g>
<!-- Node11&#45;&gt;Node10 -->
<g id="edge18" class="edge">
<title>Node11&#45;&gt;Node10</title>
<path fill="none" stroke="#9a32cd" stroke-dasharray="5,2" d="M256.63,-377.34C304.03,-398.11 393.1,-437.14 434.2,-455.15"/>
<polygon fill="#9a32cd" stroke="#9a32cd" points="257.75,-374.01 247.18,-373.2 254.94,-380.42 257.75,-374.01"/>
<text text-anchor="middle" x="342" y="-434.7" font-family="Helvetica,sans-Serif" font-size="10.00"> bases_1d</text>
</g>
<!-- Node11&#45;&gt;Node12 -->
<g id="edge37" class="edge">
<title>Node11&#45;&gt;Node12</title>
<path fill="none" stroke="#9a32cd" stroke-dasharray="5,2" d="M285.24,-363.27C314.43,-363.27 350.06,-363.57 382,-364.7 816.92,-380.13 924.33,-407.24 1358,-443.7 1453.95,-451.77 1565.5,-460.74 1631.93,-466.05"/>
<polygon fill="#9a32cd" stroke="#9a32cd" points="285.2,-359.77 275.21,-363.28 285.21,-366.77 285.2,-359.77"/>
<text text-anchor="middle" x="1018.5" y="-428.7" font-family="Helvetica,sans-Serif" font-size="10.00"> assoc_var</text>
<text text-anchor="middle" x="1018.5" y="-417.7" font-family="Helvetica,sans-Serif" font-size="10.00">assoc_var_double</text>
</g>
<!-- Node11&#45;&gt;Node13 -->
<g id="edge24" class="edge">
<title>Node11&#45;&gt;Node13</title>
<path fill="none" stroke="#9a32cd" stroke-dasharray="5,2" d="M283.89,-375.22C509.48,-419.68 1324.35,-580.04 1584,-627.7 1731.07,-654.7 1905.95,-684.15 1985.81,-697.46"/>
<polygon fill="#9a32cd" stroke="#9a32cd" points="284.4,-371.75 273.91,-373.25 283.05,-378.62 284.4,-371.75"/>
<text text-anchor="middle" x="1204" y="-573.7" font-family="Helvetica,sans-Serif" font-size="10.00"> n_cond</text>
<text text-anchor="middle" x="1204" y="-562.7" font-family="Helvetica,sans-Serif" font-size="10.00">p_cmp_used</text>
</g>
<!-- Node11&#45;&gt;Node19 -->
<g id="edge49" class="edge">
<title>Node11&#45;&gt;Node19</title>
<path fill="none" stroke="#9a32cd" stroke-dasharray="5,2" d="M256.54,-350.43C270.22,-345.19 286.65,-339.71 302,-336.7 594.24,-279.44 956.25,-290.65 1075.69,-296.45"/>
<polygon fill="#9a32cd" stroke="#9a32cd" points="255.13,-347.22 247.12,-354.16 257.71,-353.73 255.13,-347.22"/>
<text text-anchor="middle" x="714.5" y="-310.7" font-family="Helvetica,sans-Serif" font-size="10.00"> give_indices</text>
<text text-anchor="middle" x="714.5" y="-299.7" font-family="Helvetica,sans-Serif" font-size="10.00">type_indice</text>
</g>
<!-- Node11&#45;&gt;Node21 -->
<g id="edge53" class="edge">
<title>Node11&#45;&gt;Node21</title>
<path fill="none" stroke="#9a32cd" stroke-dasharray="5,2" d="M249.11,-348.37C260.22,-340.67 273.32,-330.84 284,-320.7 293.16,-312 290.76,-304.48 302,-298.7 397.41,-249.67 724.62,-254.02 853.62,-257.81"/>
<polygon fill="#9a32cd" stroke="#9a32cd" points="247.04,-345.55 240.73,-354.06 250.97,-351.35 247.04,-345.55"/>
<text text-anchor="middle" x="588.5" y="-263.7" font-family="Helvetica,sans-Serif" font-size="10.00"> basis</text>
</g>
<!-- Node12&#45;&gt;Node3 -->
<g id="edge21" class="edge">
<title>Node12&#45;&gt;Node3</title>
<path fill="none" stroke="#9a32cd" stroke-dasharray="5,2" d="M1687.91,-450.83C1681.89,-412.33 1663.48,-327.04 1614,-277.7 1601.09,-264.83 1582.72,-256.69 1566.23,-251.62"/>
<polygon fill="#9a32cd" stroke="#9a32cd" points="1684.46,-451.39 1689.35,-460.78 1691.38,-450.39 1684.46,-451.39"/>
<text text-anchor="middle" x="1599" y="-280.7" font-family="Helvetica,sans-Serif" font-size="10.00"> syst</text>
</g>
<!-- Node12&#45;&gt;Node14 -->
<g id="edge28" class="edge">
<title>Node12&#45;&gt;Node14</title>
<path fill="none" stroke="#9a32cd" stroke-dasharray="5,2" d="M1702.09,-489.29C1714.52,-511.54 1738.3,-548.32 1769,-568.7 1783.83,-578.54 1802.42,-584.53 1819.04,-588.16"/>
<polygon fill="#9a32cd" stroke="#9a32cd" points="1705.16,-487.61 1697.33,-480.47 1699,-490.94 1705.16,-487.61"/>
<text text-anchor="middle" x="1780" y="-581.7" font-family="Helvetica,sans-Serif" font-size="10.00"> syst</text>
</g>
<!-- Node13&#45;&gt;Node12 -->
<g id="edge22" class="edge">
<title>Node13&#45;&gt;Node12</title>
<path fill="none" stroke="#9a32cd" stroke-dasharray="5,2" d="M2018.9,-686.27C2001.1,-656.74 1962.52,-598.61 1916,-563.7 1858.35,-520.45 1777.63,-493.41 1730.63,-480.27"/>
<polygon fill="#9a32cd" stroke="#9a32cd" points="2016.03,-688.28 2024.13,-695.11 2022.06,-684.72 2016.03,-688.28"/>
<text text-anchor="middle" x="1862.5" y="-566.7" font-family="Helvetica,sans-Serif" font-size="10.00"> eq</text>
</g>
<!-- Node14&#45;&gt;Node13 -->
<g id="edge25" class="edge">
<title>Node14&#45;&gt;Node13</title>
<path fill="none" stroke="#9a32cd" stroke-dasharray="5,2" d="M1886.48,-609.07C1921.22,-632.29 1986.08,-675.67 2014.97,-694.99"/>
<polygon fill="#9a32cd" stroke="#9a32cd" points="1888.2,-606.01 1877.94,-603.36 1884.31,-611.83 1888.2,-606.01"/>
<text text-anchor="middle" x="1946.5" y="-658.7" font-family="Helvetica,sans-Serif" font-size="10.00"> parts</text>
</g>
<!-- Node14&#45;&gt;Node14 -->
<g id="edge27" class="edge">
<title>Node14&#45;&gt;Node14</title>
<path fill="none" stroke="#9a32cd" stroke-dasharray="5,2" d="M1847.4,-613.47C1848.59,-618.2 1853.62,-621.7 1862.5,-621.7 1877.07,-621.7 1881.29,-612.27 1875.14,-603.46"/>
<polygon fill="#9a32cd" stroke="#9a32cd" points="1850.87,-614.01 1849.86,-603.46 1844.07,-612.33 1850.87,-614.01"/>
<text text-anchor="middle" x="1862.5" y="-624.7" font-family="Helvetica,sans-Serif" font-size="10.00"> parts</text>
</g>
<!-- Node14&#45;&gt;Node15 -->
<g id="edge32" class="edge">
<title>Node14&#45;&gt;Node15</title>
<path fill="none" stroke="#9a32cd" stroke-dasharray="5,2" d="M1903.59,-579.42C1908.14,-576.68 1912.42,-573.46 1916,-569.7 1930.86,-554.11 1924.51,-544.04 1934,-524.7 1950.6,-490.9 1950.58,-478.53 1977,-451.7 1986.06,-442.5 1998.29,-434.85 2008.66,-429.34"/>
<polygon fill="#9a32cd" stroke="#9a32cd" points="1901.84,-576.39 1894.61,-584.14 1905.09,-582.59 1901.84,-576.39"/>
<text text-anchor="middle" x="1946.5" y="-527.7" font-family="Helvetica,sans-Serif" font-size="10.00"> parts</text>
</g>
<!-- Node23 -->
<g id="node23" class="node">
<title>Node23</title>
<g id="a_node23"><a xlink:href="classKadath_1_1Ope__def.html" target="_top" xlink:title=" ">
<polygon fill="none" stroke="black" points="1986,-461.2 1986,-480.2 2075,-480.2 2075,-461.2 1986,-461.2"/>
<text text-anchor="middle" x="2030.5" y="-468.2" font-family="Helvetica,sans-Serif" font-size="10.00">Kadath::Ope_def</text>
</a>
</g>
</g>
<!-- Node14&#45;&gt;Node23 -->
<g id="edge59" class="edge">
<title>Node14&#45;&gt;Node23</title>
<path fill="none" stroke="midnightblue" d="M1897.44,-579.93C1903.79,-576.88 1910.23,-573.43 1916,-569.7 1958.62,-542.2 2001.83,-499.53 2020.25,-480.47"/>
<polygon fill="midnightblue" stroke="midnightblue" points="1895.95,-576.77 1888.31,-584.11 1898.86,-583.13 1895.95,-576.77"/>
</g>
<!-- Node15&#45;&gt;Node12 -->
<g id="edge30" class="edge">
<title>Node15&#45;&gt;Node12</title>
<path fill="none" stroke="#9a32cd" stroke-dasharray="5,2" d="M1980.78,-427.08C1920.03,-436.27 1816.27,-451.97 1751.2,-461.82"/>
<polygon fill="#9a32cd" stroke="#9a32cd" points="1981.51,-430.5 1990.87,-425.55 1980.46,-423.58 1981.51,-430.5"/>
<text text-anchor="middle" x="1862.5" y="-455.7" font-family="Helvetica,sans-Serif" font-size="10.00"> eq_int</text>
</g>
<!-- Node16&#45;&gt;Node12 -->
<g id="edge34" class="edge">
<title>Node16&#45;&gt;Node12</title>
<path fill="none" stroke="#9a32cd" stroke-dasharray="5,2" d="M504.88,-728.28C606.2,-726.88 852.99,-720.95 1058,-695.7 1089.22,-691.86 1587.91,-606.28 1614,-588.7 1655.1,-561.01 1679.12,-503.04 1687.31,-480.22"/>
<polygon fill="#9a32cd" stroke="#9a32cd" points="504.63,-724.78 494.68,-728.41 504.72,-731.78 504.63,-724.78"/>
<text text-anchor="middle" x="1117" y="-695.7" font-family="Helvetica,sans-Serif" font-size="10.00"> which_coef</text>
</g>
<!-- Node17&#45;&gt;Node12 -->
<g id="edge38" class="edge">
<title>Node17&#45;&gt;Node12</title>
<path fill="none" stroke="#9a32cd" stroke-dasharray="5,2" d="M392.47,-766.7C441.86,-766.7 519.93,-766.7 587.5,-766.7 587.5,-766.7 587.5,-766.7 1019.5,-766.7 1087.91,-766.7 1562.06,-651.22 1614,-606.7 1656.17,-570.56 1679.86,-505.09 1687.62,-480.44"/>
<polygon fill="#9a32cd" stroke="#9a32cd" points="392.38,-763.2 382.38,-766.7 392.38,-770.2 392.38,-763.2"/>
<text text-anchor="middle" x="1018.5" y="-780.7" font-family="Helvetica,sans-Serif" font-size="10.00"> paruser</text>
<text text-anchor="middle" x="1018.5" y="-769.7" font-family="Helvetica,sans-Serif" font-size="10.00">paruser_bin</text>
</g>
<!-- Node18&#45;&gt;Node3 -->
<g id="edge61" class="edge">
<title>Node18&#45;&gt;Node3</title>
<path fill="none" stroke="#9a32cd" stroke-dasharray="5,2" d="M1350.31,-239.36C1384.4,-239.3 1429.28,-239.53 1469,-240.7 1474.79,-240.87 1480.92,-241.12 1486.91,-241.41"/>
<polygon fill="#9a32cd" stroke="#9a32cd" points="1350.09,-235.86 1340.1,-239.38 1350.1,-242.86 1350.09,-235.86"/>
<text text-anchor="middle" x="1413.5" y="-320.7" font-family="Helvetica,sans-Serif" font-size="10.00"> p_christo</text>
<text text-anchor="middle" x="1413.5" y="-309.7" font-family="Helvetica,sans-Serif" font-size="10.00">p_det_cov</text>
<text text-anchor="middle" x="1413.5" y="-298.7" font-family="Helvetica,sans-Serif" font-size="10.00">p_dirac</text>
<text text-anchor="middle" x="1413.5" y="-287.7" font-family="Helvetica,sans-Serif" font-size="10.00">p_met_con</text>
<text text-anchor="middle" x="1413.5" y="-276.7" font-family="Helvetica,sans-Serif" font-size="10.00">p_met_cov</text>
<text text-anchor="middle" x="1413.5" y="-265.7" font-family="Helvetica,sans-Serif" font-size="10.00">p_ricci_scalar</text>
<text text-anchor="middle" x="1413.5" y="-254.7" font-family="Helvetica,sans-Serif" font-size="10.00">p_ricci_tensor</text>
<text text-anchor="middle" x="1413.5" y="-243.7" font-family="Helvetica,sans-Serif" font-size="10.00">p_riemann</text>
</g>
<!-- Node18&#45;&gt;Node12 -->
<g id="edge41" class="edge">
<title>Node18&#45;&gt;Node12</title>
<path fill="none" stroke="#9a32cd" stroke-dasharray="5,2" d="M1313.75,-256.51C1322.48,-265.46 1332.67,-277.01 1340,-288.7 1351.22,-306.6 1340.72,-320.55 1358,-332.7 1433.69,-385.93 1477.83,-313.62 1566,-341.7 1590.2,-349.41 1595.26,-355.56 1614,-372.7 1644.74,-400.81 1672.61,-442.24 1684.47,-460.92"/>
<polygon fill="#9a32cd" stroke="#9a32cd" points="1316.12,-253.93 1306.56,-249.37 1311.19,-258.9 1316.12,-253.93"/>
<text text-anchor="middle" x="1526.5" y="-410.7" font-family="Helvetica,sans-Serif" font-size="10.00"> cst</text>
<text text-anchor="middle" x="1526.5" y="-399.7" font-family="Helvetica,sans-Serif" font-size="10.00">cst_hard</text>
<text text-anchor="middle" x="1526.5" y="-388.7" font-family="Helvetica,sans-Serif" font-size="10.00">opeuser</text>
<text text-anchor="middle" x="1526.5" y="-377.7" font-family="Helvetica,sans-Serif" font-size="10.00">opeuser_bin</text>
<text text-anchor="middle" x="1526.5" y="-366.7" font-family="Helvetica,sans-Serif" font-size="10.00">results</text>
<text text-anchor="middle" x="1526.5" y="-355.7" font-family="Helvetica,sans-Serif" font-size="10.00">term</text>
<text text-anchor="middle" x="1526.5" y="-344.7" font-family="Helvetica,sans-Serif" font-size="10.00">term_double</text>
</g>
<!-- Node18&#45;&gt;Node23 -->
<g id="edge60" class="edge">
<title>Node18&#45;&gt;Node23</title>
<path fill="none" stroke="#9a32cd" stroke-dasharray="5,2" d="M1344.83,-228.13C1408.68,-215.28 1523.1,-200.22 1614,-231.7 1658.04,-246.95 1943.13,-418.5 2013.71,-461.15"/>
<polygon fill="#9a32cd" stroke="#9a32cd" points="1344.11,-224.7 1335.03,-230.16 1345.53,-231.55 1344.11,-224.7"/>
<text text-anchor="middle" x="1691.5" y="-307.7" font-family="Helvetica,sans-Serif" font-size="10.00"> res</text>
</g>
<!-- Node19&#45;&gt;Node12 -->
<g id="edge57" class="edge">
<title>Node19&#45;&gt;Node12</title>
<path fill="none" stroke="#9a32cd" stroke-dasharray="5,2" d="M1130.83,-316.46C1141.47,-329.95 1157.78,-347.96 1176,-358.7 1248.16,-401.24 1276.34,-389 1358,-407.7 1384.99,-413.88 1552.51,-445.12 1638.97,-461.16"/>
<polygon fill="#9a32cd" stroke="#9a32cd" points="1133.52,-314.22 1124.68,-308.37 1127.94,-318.45 1133.52,-314.22"/>
<text text-anchor="middle" x="1413.5" y="-431.7" font-family="Helvetica,sans-Serif" font-size="10.00"> var</text>
</g>
<!-- Node19&#45;&gt;Node18 -->
<g id="edge43" class="edge">
<title>Node19&#45;&gt;Node18</title>
<path fill="none" stroke="#9a32cd" stroke-dasharray="5,2" d="M1138.34,-282.98C1149.02,-275.47 1162.63,-266.98 1176,-261.7 1199.45,-252.44 1227.1,-247.02 1249.73,-243.88"/>
<polygon fill="#9a32cd" stroke="#9a32cd" points="1136.15,-280.25 1130.14,-288.98 1140.28,-285.91 1136.15,-280.25"/>
<text text-anchor="middle" x="1204" y="-275.7" font-family="Helvetica,sans-Serif" font-size="10.00"> der_t</text>
<text text-anchor="middle" x="1204" y="-264.7" font-family="Helvetica,sans-Serif" font-size="10.00">val_t</text>
</g>
<!-- Node19&#45;&gt;Node20 -->
<g id="edge47" class="edge">
<title>Node19&#45;&gt;Node20</title>
<path fill="none" stroke="midnightblue" d="M1163.65,-310.89C1193.1,-318.76 1230.85,-328.84 1258.14,-336.12"/>
<polygon fill="midnightblue" stroke="midnightblue" points="1164.18,-307.41 1153.62,-308.21 1162.37,-314.17 1164.18,-307.41"/>
</g>
<!-- Node24 -->
<g id="node24" class="node">
<title>Node24</title>
<g id="a_node24"><a xlink:href="classKadath_1_1Metric__tensor.html" target="_top" xlink:title=" ">
<polygon fill="none" stroke="black" points="1358,-384.2 1358,-403.2 1469,-403.2 1469,-384.2 1358,-384.2"/>
<text text-anchor="middle" x="1413.5" y="-391.2" font-family="Helvetica,sans-Serif" font-size="10.00">Kadath::Metric_tensor</text>
</a>
</g>
</g>
<!-- Node19&#45;&gt;Node24 -->
<g id="edge63" class="edge">
<title>Node19&#45;&gt;Node24</title>
<path fill="none" stroke="midnightblue" d="M1168.36,-290.82C1217.68,-286.07 1292.2,-287.19 1340,-326.7 1359.18,-342.55 1339.75,-362.79 1358,-379.7 1359.79,-381.36 1361.75,-382.83 1363.83,-384.13"/>
<polygon fill="midnightblue" stroke="midnightblue" points="1167.8,-287.36 1158.24,-291.92 1168.55,-294.32 1167.8,-287.36"/>
</g>
<!-- Node20&#45;&gt;Node19 -->
<g id="edge46" class="edge">
<title>Node20&#45;&gt;Node19</title>
<path fill="none" stroke="#9a32cd" stroke-dasharray="5,2" d="M1244.6,-345.5C1223.07,-344.2 1197.82,-340.98 1176,-333.7 1158.82,-327.97 1141.32,-316.47 1130.1,-308.21"/>
<polygon fill="#9a32cd" stroke="#9a32cd" points="1244.68,-349.01 1254.84,-346 1245.02,-342.02 1244.68,-349.01"/>
<text text-anchor="middle" x="1204" y="-346.7" font-family="Helvetica,sans-Serif" font-size="10.00"> cmp</text>
</g>
<!-- Node21&#45;&gt;Node2 -->
<g id="edge64" class="edge">
<title>Node21&#45;&gt;Node2</title>
<path fill="none" stroke="#9a32cd" stroke-dasharray="5,2" d="M948.49,-246.98C978.72,-237.2 1021.16,-223.14 1058,-209.7 1213.35,-153.02 1247.13,-96.7 1412.5,-96.7 1412.5,-96.7 1412.5,-96.7 1692.5,-96.7 1765.47,-96.7 1831.94,-169.35 1853.88,-196.03"/>
<polygon fill="#9a32cd" stroke="#9a32cd" points="947.18,-243.72 938.73,-250.12 949.32,-250.39 947.18,-243.72"/>
<text text-anchor="middle" x="1413.5" y="-102.7" font-family="Helvetica,sans-Serif" font-size="10.00"> basis</text>
</g>
<!-- Node21&#45;&gt;Node19 -->
<g id="edge50" class="edge">
<title>Node21&#45;&gt;Node19</title>
<path fill="none" stroke="#9a32cd" stroke-dasharray="5,2" d="M971.14,-261.9C998.17,-263.9 1029.96,-267.66 1058,-274.7 1071.42,-278.07 1085.8,-284.01 1096.88,-289.13"/>
<polygon fill="#9a32cd" stroke="#9a32cd" points="971.25,-258.4 961.04,-261.22 970.78,-265.39 971.25,-258.4"/>
<text text-anchor="middle" x="1018.5" y="-277.7" font-family="Helvetica,sans-Serif" font-size="10.00"> basis</text>
</g>
<!-- Node21&#45;&gt;Node25 -->
<g id="edge67" class="edge">
<title>Node21&#45;&gt;Node25</title>
<path fill="none" stroke="#9a32cd" stroke-dasharray="5,2" d="M927.07,-243.17C940.57,-232.05 959.77,-217.95 979,-209.7 1211.03,-110.23 1524.42,-133.62 1642.68,-147.32"/>
<polygon fill="#9a32cd" stroke="#9a32cd" points="924.44,-240.82 919.09,-249.97 928.97,-246.16 924.44,-240.82"/>
<text text-anchor="middle" x="1295" y="-146.7" font-family="Helvetica,sans-Serif" font-size="10.00"> basis</text>
</g>
<!-- Node22&#45;&gt;Node19 -->
<g id="edge54" class="edge">
<title>Node22&#45;&gt;Node19</title>
<path fill="none" stroke="#9a32cd" stroke-dasharray="5,2" d="M655.19,-196.32C748.55,-195.32 923.24,-202.34 1058,-259.7 1075.42,-267.12 1093.14,-279.98 1104.34,-288.89"/>
<polygon fill="#9a32cd" stroke="#9a32cd" points="654.99,-192.82 645.04,-196.47 655.09,-199.82 654.99,-192.82"/>
<text text-anchor="middle" x="810" y="-208.7" font-family="Helvetica,sans-Serif" font-size="10.00"> parameters</text>
</g>
<!-- Node23&#45;&gt;Node12 -->
<g id="edge58" class="edge">
<title>Node23&#45;&gt;Node12</title>
<path fill="none" stroke="#9a32cd" stroke-dasharray="5,2" d="M1975.69,-470.7C1914.37,-470.7 1814.49,-470.7 1751.2,-470.7"/>
<polygon fill="#9a32cd" stroke="#9a32cd" points="1975.93,-474.2 1985.93,-470.7 1975.93,-467.2 1975.93,-474.2"/>
<text text-anchor="middle" x="1862.5" y="-473.7" font-family="Helvetica,sans-Serif" font-size="10.00"> def</text>
</g>
<!-- Node24&#45;&gt;Node2 -->
<g id="edge62" class="edge">
<title>Node24&#45;&gt;Node2</title>
<path fill="none" stroke="#9a32cd" stroke-dasharray="5,2" d="M1479.51,-394.47C1506.77,-393.18 1538.47,-389.52 1566,-380.7 1687.22,-341.85 1811.78,-246.08 1849.79,-215.36"/>
<polygon fill="#9a32cd" stroke="#9a32cd" points="1479.15,-390.98 1469.29,-394.86 1479.42,-397.98 1479.15,-390.98"/>
<text text-anchor="middle" x="1599" y="-376.7" font-family="Helvetica,sans-Serif" font-size="10.00"> p_met</text>
</g>
<!-- Node25&#45;&gt;Node2 -->
<g id="edge65" class="edge">
<title>Node25&#45;&gt;Node2</title>
<path fill="none" stroke="#9a32cd" stroke-dasharray="5,2" d="M1749.78,-171.32C1776.82,-179.65 1808.02,-189.25 1830.57,-196.18"/>
<polygon fill="#9a32cd" stroke="#9a32cd" points="1750.61,-167.92 1740.03,-168.32 1748.55,-174.61 1750.61,-167.92"/>
<text text-anchor="middle" x="1780" y="-186.7" font-family="Helvetica,sans-Serif" font-size="10.00"> fmet</text>
</g>
</g>
</svg>
