<?xml version="1.0" encoding="UTF-8" standalone="no"?>
<!DOCTYPE svg PUBLIC "-//W3C//DTD SVG 1.1//EN"
 "http://www.w3.org/Graphics/SVG/1.1/DTD/svg11.dtd">
<!-- Generated by graphviz version 2.47.1 (20210515.0534)
 -->
<!-- Title: Kadath::Domain_shell_outer_homothetic Pages: 1 -->
<svg width="1630pt" height="523pt"
 viewBox="0.00 0.00 1630.00 523.00" xmlns="http://www.w3.org/2000/svg" xmlns:xlink="http://www.w3.org/1999/xlink">
<g id="graph0" class="graph" transform="scale(1 1) rotate(0) translate(4 519)">
<title>Kadath::Domain_shell_outer_homothetic</title>
<!-- Node1 -->
<g id="node1" class="node">
<title>Node1</title>
<g id="a_node1"><a xlink:title=" ">
<polygon fill="#bfbfbf" stroke="black" points="1512,-336 1512,-366 1622,-366 1622,-336 1512,-336"/>
<text text-anchor="start" x="1520" y="-354" font-family="Helvetica,sans-Serif" font-size="10.00">Kadath::Domain_shell</text>
<text text-anchor="middle" x="1567" y="-343" font-family="Helvetica,sans-Serif" font-size="10.00">_outer_homothetic</text>
</a>
</g>
</g>
<!-- Node2 -->
<g id="node2" class="node">
<title>Node2</title>
<g id="a_node2"><a xlink:href="classKadath_1_1Domain__shell__outer__adapted.html" target="_top" xlink:title=" ">
<polygon fill="none" stroke="black" points="1365,-336 1365,-366 1475,-366 1475,-336 1365,-336"/>
<text text-anchor="start" x="1373" y="-354" font-family="Helvetica,sans-Serif" font-size="10.00">Kadath::Domain_shell</text>
<text text-anchor="middle" x="1420" y="-343" font-family="Helvetica,sans-Serif" font-size="10.00">_outer_adapted</text>
</a>
</g>
</g>
<!-- Node2&#45;&gt;Node1 -->
<g id="edge1" class="edge">
<title>Node2&#45;&gt;Node1</title>
<path fill="none" stroke="midnightblue" d="M1485.57,-351C1494.32,-351 1503.23,-351 1511.77,-351"/>
<polygon fill="midnightblue" stroke="midnightblue" points="1485.41,-347.5 1475.41,-351 1485.41,-354.5 1485.41,-347.5"/>
</g>
<!-- Node3 -->
<g id="node3" class="node">
<title>Node3</title>
<g id="a_node3"><a xlink:href="classKadath_1_1Domain.html" target="_top" xlink:title=" ">
<polygon fill="none" stroke="black" points="408.5,-445.5 408.5,-464.5 493.5,-464.5 493.5,-445.5 408.5,-445.5"/>
<text text-anchor="middle" x="451" y="-452.5" font-family="Helvetica,sans-Serif" font-size="10.00">Kadath::Domain</text>
</a>
</g>
</g>
<!-- Node3&#45;&gt;Node2 -->
<g id="edge2" class="edge">
<title>Node3&#45;&gt;Node2</title>
<path fill="none" stroke="midnightblue" d="M479.67,-468.97C493.32,-475.33 510.2,-482.45 526,-487 604.43,-509.6 625.88,-515 707.5,-515 707.5,-515 707.5,-515 1206,-515 1303.07,-515 1383.02,-406.73 1409.58,-366.13"/>
<polygon fill="midnightblue" stroke="midnightblue" points="480.9,-465.68 470.37,-464.51 477.88,-471.99 480.9,-465.68"/>
</g>
<!-- Node7 -->
<g id="node7" class="node">
<title>Node7</title>
<g id="a_node7"><a xlink:href="classKadath_1_1Val__domain.html" target="_top" xlink:title=" ">
<polygon fill="none" stroke="black" points="657,-341.5 657,-360.5 760,-360.5 760,-341.5 657,-341.5"/>
<text text-anchor="middle" x="708.5" y="-348.5" font-family="Helvetica,sans-Serif" font-size="10.00">Kadath::Val_domain</text>
</a>
</g>
</g>
<!-- Node3&#45;&gt;Node7 -->
<g id="edge16" class="edge">
<title>Node3&#45;&gt;Node7</title>
<path fill="none" stroke="#9a32cd" stroke-dasharray="5,2" d="M503.74,-453.17C550.84,-450.75 616.37,-445.25 639,-433 647.12,-428.61 684.01,-381.49 700.03,-360.73"/>
<polygon fill="#9a32cd" stroke="#9a32cd" points="503.51,-449.68 493.7,-453.66 503.85,-456.67 503.51,-449.68"/>
<text text-anchor="middle" x="582.5" y="-454" font-family="Helvetica,sans-Serif" font-size="10.00"> zone</text>
</g>
<!-- Node10 -->
<g id="node10" class="node">
<title>Node10</title>
<g id="a_node10"><a xlink:href="classKadath_1_1Space.html" target="_top" xlink:title=" ">
<polygon fill="none" stroke="black" points="668.5,-426.5 668.5,-445.5 748.5,-445.5 748.5,-426.5 668.5,-426.5"/>
<text text-anchor="middle" x="708.5" y="-433.5" font-family="Helvetica,sans-Serif" font-size="10.00">Kadath::Space</text>
</a>
</g>
</g>
<!-- Node3&#45;&gt;Node10 -->
<g id="edge19" class="edge">
<title>Node3&#45;&gt;Node10</title>
<path fill="none" stroke="#9a32cd" stroke-dasharray="5,2" d="M503.98,-465.92C541.82,-472.04 594.09,-476.69 639,-467 658.01,-462.9 678.1,-453.07 691.57,-445.57"/>
<polygon fill="#9a32cd" stroke="#9a32cd" points="504.15,-462.4 493.71,-464.16 502.98,-469.3 504.15,-462.4"/>
<text text-anchor="middle" x="582.5" y="-475" font-family="Helvetica,sans-Serif" font-size="10.00"> domains</text>
</g>
<!-- Node4 -->
<g id="node4" class="node">
<title>Node4</title>
<g id="a_node4"><a xlink:href="structKadath_1_1MemoryMappable.html" target="_top" xlink:title=" ">
<polygon fill="none" stroke="black" points="0,-263.5 0,-282.5 128,-282.5 128,-263.5 0,-263.5"/>
<text text-anchor="middle" x="64" y="-270.5" font-family="Helvetica,sans-Serif" font-size="10.00">Kadath::MemoryMappable</text>
</a>
</g>
</g>
<!-- Node4&#45;&gt;Node3 -->
<g id="edge3" class="edge">
<title>Node4&#45;&gt;Node3</title>
<path fill="none" stroke="midnightblue" d="M69.99,-292.72C80.55,-329.98 108.92,-410.36 165,-448 242.67,-500.13 361,-479.1 417.61,-464.53"/>
<polygon fill="midnightblue" stroke="midnightblue" points="73.26,-291.38 67.28,-282.64 66.5,-293.2 73.26,-291.38"/>
</g>
<!-- Node5 -->
<g id="node5" class="node">
<title>Node5</title>
<g id="a_node5"><a xlink:href="classKadath_1_1Dim__array.html" target="_top" xlink:title=" ">
<polygon fill="none" stroke="black" points="177,-419.5 177,-438.5 272,-438.5 272,-419.5 177,-419.5"/>
<text text-anchor="middle" x="224.5" y="-426.5" font-family="Helvetica,sans-Serif" font-size="10.00">Kadath::Dim_array</text>
</a>
</g>
</g>
<!-- Node4&#45;&gt;Node5 -->
<g id="edge5" class="edge">
<title>Node4&#45;&gt;Node5</title>
<path fill="none" stroke="midnightblue" d="M76.79,-291.18C93.95,-316.64 127.84,-363.36 165,-395 176.54,-404.82 191.3,-413.38 203.11,-419.45"/>
<polygon fill="midnightblue" stroke="midnightblue" points="79.5,-288.93 71.06,-282.53 73.67,-292.8 79.5,-288.93"/>
</g>
<!-- Node6 -->
<g id="node6" class="node">
<title>Node6</title>
<g id="a_node6"><a xlink:href="classKadath_1_1Array.html" target="_top" xlink:title=" ">
<polygon fill="none" stroke="black" points="165,-366.5 165,-385.5 284,-385.5 284,-366.5 165,-366.5"/>
<text text-anchor="middle" x="224.5" y="-373.5" font-family="Helvetica,sans-Serif" font-size="10.00">Kadath::Array&lt; double &gt;</text>
</a>
</g>
</g>
<!-- Node4&#45;&gt;Node6 -->
<g id="edge7" class="edge">
<title>Node4&#45;&gt;Node6</title>
<path fill="none" stroke="midnightblue" d="M81.38,-290.3C96.88,-305.91 121.38,-328.71 146,-344 160.96,-353.29 179.1,-360.95 194.06,-366.44"/>
<polygon fill="midnightblue" stroke="midnightblue" points="83.63,-287.59 74.14,-282.87 78.61,-292.47 83.63,-287.59"/>
</g>
<!-- Node4&#45;&gt;Node7 -->
<g id="edge9" class="edge">
<title>Node4&#45;&gt;Node7</title>
<path fill="none" stroke="midnightblue" d="M113.54,-284.75C129.81,-288.27 148.1,-291.78 165,-294 345.51,-317.72 560.86,-337.96 656.91,-346.57"/>
<polygon fill="midnightblue" stroke="midnightblue" points="114.23,-281.32 103.7,-282.57 112.71,-288.15 114.23,-281.32"/>
</g>
<!-- Node8 -->
<g id="node8" class="node">
<title>Node8</title>
<g id="a_node8"><a xlink:href="classKadath_1_1Base__spectral.html" target="_top" xlink:title=" ">
<polygon fill="none" stroke="black" points="394,-282.5 394,-301.5 508,-301.5 508,-282.5 394,-282.5"/>
<text text-anchor="middle" x="451" y="-289.5" font-family="Helvetica,sans-Serif" font-size="10.00">Kadath::Base_spectral</text>
</a>
</g>
</g>
<!-- Node4&#45;&gt;Node8 -->
<g id="edge13" class="edge">
<title>Node4&#45;&gt;Node8</title>
<path fill="none" stroke="midnightblue" d="M138.37,-276.62C212.73,-280.29 326.17,-285.89 393.72,-289.22"/>
<polygon fill="midnightblue" stroke="midnightblue" points="138.3,-273.11 128.14,-276.12 137.96,-280.1 138.3,-273.11"/>
</g>
<!-- Node9 -->
<g id="node9" class="node">
<title>Node9</title>
<g id="a_node9"><a xlink:href="classKadath_1_1Array.html" target="_top" xlink:title=" ">
<polygon fill="none" stroke="black" points="174,-193.5 174,-212.5 275,-212.5 275,-193.5 174,-193.5"/>
<text text-anchor="middle" x="224.5" y="-200.5" font-family="Helvetica,sans-Serif" font-size="10.00">Kadath::Array&lt; int &gt;</text>
</a>
</g>
</g>
<!-- Node4&#45;&gt;Node9 -->
<g id="edge15" class="edge">
<title>Node4&#45;&gt;Node9</title>
<path fill="none" stroke="midnightblue" d="M96.22,-259.21C127.4,-245.44 174.49,-224.64 201.8,-212.58"/>
<polygon fill="midnightblue" stroke="midnightblue" points="94.44,-256.17 86.71,-263.41 97.27,-262.58 94.44,-256.17"/>
</g>
<!-- Node4&#45;&gt;Node10 -->
<g id="edge18" class="edge">
<title>Node4&#45;&gt;Node10</title>
<path fill="none" stroke="midnightblue" d="M67.7,-292.63C74.75,-335.35 98.07,-436.25 165,-478 239.71,-524.61 637.55,-487.49 639,-487 663.43,-478.7 686.29,-458.12 698.44,-445.79"/>
<polygon fill="midnightblue" stroke="midnightblue" points="71.15,-292.02 66.18,-282.66 64.23,-293.07 71.15,-292.02"/>
</g>
<!-- Node11 -->
<g id="node11" class="node">
<title>Node11</title>
<g id="a_node11"><a xlink:href="classKadath_1_1Point.html" target="_top" xlink:title=" ">
<polygon fill="none" stroke="black" points="302,-0.5 302,-19.5 376,-19.5 376,-0.5 302,-0.5"/>
<text text-anchor="middle" x="339" y="-7.5" font-family="Helvetica,sans-Serif" font-size="10.00">Kadath::Point</text>
</a>
</g>
</g>
<!-- Node4&#45;&gt;Node11 -->
<g id="edge21" class="edge">
<title>Node4&#45;&gt;Node11</title>
<path fill="none" stroke="midnightblue" d="M65.14,-252.97C66.65,-206.28 77.46,-89.91 146,-34 189.99,1.88 259.58,0.85 301.79,-4"/>
<polygon fill="midnightblue" stroke="midnightblue" points="61.63,-253.2 64.93,-263.27 68.63,-253.34 61.63,-253.2"/>
</g>
<!-- Node12 -->
<g id="node12" class="node">
<title>Node12</title>
<g id="a_node12"><a xlink:href="classKadath_1_1Term__eq.html" target="_top" xlink:title=" ">
<polygon fill="none" stroke="black" points="1160,-207.5 1160,-226.5 1250,-226.5 1250,-207.5 1160,-207.5"/>
<text text-anchor="middle" x="1205" y="-214.5" font-family="Helvetica,sans-Serif" font-size="10.00">Kadath::Term_eq</text>
</a>
</g>
</g>
<!-- Node4&#45;&gt;Node12 -->
<g id="edge23" class="edge">
<title>Node4&#45;&gt;Node12</title>
<path fill="none" stroke="midnightblue" d="M68.87,-253.48C80.96,-198.78 123.37,-48 223.5,-48 223.5,-48 223.5,-48 1059,-48 1143.66,-48 1189.59,-171.68 1201.09,-207.43"/>
<polygon fill="midnightblue" stroke="midnightblue" points="65.43,-252.83 66.79,-263.33 72.28,-254.27 65.43,-252.83"/>
</g>
<!-- Node13 -->
<g id="node13" class="node">
<title>Node13</title>
<g id="a_node13"><a xlink:href="classKadath_1_1Tensor.html" target="_top" xlink:title=" ">
<polygon fill="none" stroke="black" points="1017,-207.5 1017,-226.5 1099,-226.5 1099,-207.5 1017,-207.5"/>
<text text-anchor="middle" x="1058" y="-214.5" font-family="Helvetica,sans-Serif" font-size="10.00">Kadath::Tensor</text>
</a>
</g>
</g>
<!-- Node4&#45;&gt;Node13 -->
<g id="edge25" class="edge">
<title>Node4&#45;&gt;Node13</title>
<path fill="none" stroke="midnightblue" d="M73.86,-254.2C94.19,-214.15 148.3,-124 223.5,-124 223.5,-124 223.5,-124 902.5,-124 966.68,-124 1027.15,-183.64 1048.69,-207.4"/>
<polygon fill="midnightblue" stroke="midnightblue" points="70.69,-252.71 69.42,-263.22 76.98,-255.79 70.69,-252.71"/>
</g>
<!-- Node15 -->
<g id="node15" class="node">
<title>Node15</title>
<g id="a_node15"><a xlink:href="classKadath_1_1Base__tensor.html" target="_top" xlink:title=" ">
<polygon fill="none" stroke="black" points="848,-220.5 848,-239.5 955,-239.5 955,-220.5 848,-220.5"/>
<text text-anchor="middle" x="901.5" y="-227.5" font-family="Helvetica,sans-Serif" font-size="10.00">Kadath::Base_tensor</text>
</a>
</g>
</g>
<!-- Node4&#45;&gt;Node15 -->
<g id="edge32" class="edge">
<title>Node4&#45;&gt;Node15</title>
<path fill="none" stroke="midnightblue" d="M138.44,-272.22C274.92,-270.24 576.81,-263.36 830,-240 835.79,-239.47 841.82,-238.79 847.83,-238.05"/>
<polygon fill="midnightblue" stroke="midnightblue" points="138.06,-268.72 128.11,-272.36 138.16,-275.72 138.06,-268.72"/>
</g>
<!-- Node16 -->
<g id="node16" class="node">
<title>Node16</title>
<g id="a_node16"><a xlink:href="classKadath_1_1Param__tensor.html" target="_top" xlink:title=" ">
<polygon fill="none" stroke="black" points="526,-76.5 526,-95.5 639,-95.5 639,-76.5 526,-76.5"/>
<text text-anchor="middle" x="582.5" y="-83.5" font-family="Helvetica,sans-Serif" font-size="10.00">Kadath::Param_tensor</text>
</a>
</g>
</g>
<!-- Node4&#45;&gt;Node16 -->
<g id="edge36" class="edge">
<title>Node4&#45;&gt;Node16</title>
<path fill="none" stroke="midnightblue" d="M68.23,-253.4C75.25,-217.82 95.51,-143.25 146,-110 206.87,-69.92 422.44,-76.54 525.64,-82.3"/>
<polygon fill="midnightblue" stroke="midnightblue" points="64.75,-253.01 66.4,-263.47 71.63,-254.26 64.75,-253.01"/>
</g>
<!-- Node5&#45;&gt;Node3 -->
<g id="edge4" class="edge">
<title>Node5&#45;&gt;Node3</title>
<path fill="none" stroke="#9a32cd" stroke-dasharray="5,2" d="M282.1,-433.99C310.35,-436.65 345.02,-440.16 376,-444 386.44,-445.3 397.68,-446.87 408.17,-448.42"/>
<polygon fill="#9a32cd" stroke="#9a32cd" points="282.29,-430.49 272.01,-433.05 281.64,-437.46 282.29,-430.49"/>
<text text-anchor="middle" x="339" y="-458" font-family="Helvetica,sans-Serif" font-size="10.00"> nbr_coefs</text>
<text text-anchor="middle" x="339" y="-447" font-family="Helvetica,sans-Serif" font-size="10.00">nbr_points</text>
</g>
<!-- Node6&#45;&gt;Node3 -->
<g id="edge6" class="edge">
<title>Node6&#45;&gt;Node3</title>
<path fill="none" stroke="#9a32cd" stroke-dasharray="5,2" d="M274.14,-388.14C303.93,-396.08 342.62,-407.32 376,-420 395.53,-427.42 417.03,-437.86 431.8,-445.4"/>
<polygon fill="#9a32cd" stroke="#9a32cd" points="274.96,-384.73 264.4,-385.57 273.18,-391.5 274.96,-384.73"/>
<text text-anchor="middle" x="339" y="-423" font-family="Helvetica,sans-Serif" font-size="10.00"> coloc</text>
</g>
<!-- Node6&#45;&gt;Node7 -->
<g id="edge10" class="edge">
<title>Node6&#45;&gt;Node7</title>
<path fill="none" stroke="#9a32cd" stroke-dasharray="5,2" d="M294.22,-372.44C392.28,-367.35 570.06,-358.13 656.95,-353.62"/>
<polygon fill="#9a32cd" stroke="#9a32cd" points="293.93,-368.95 284.12,-372.96 294.29,-375.94 293.93,-368.95"/>
<text text-anchor="middle" x="451" y="-381" font-family="Helvetica,sans-Serif" font-size="10.00"> c</text>
<text text-anchor="middle" x="451" y="-370" font-family="Helvetica,sans-Serif" font-size="10.00">cf</text>
</g>
<!-- Node7&#45;&gt;Node2 -->
<g id="edge37" class="edge">
<title>Node7&#45;&gt;Node2</title>
<path fill="none" stroke="#9a32cd" stroke-dasharray="5,2" d="M770.43,-351C807.94,-351 857.01,-351 900.5,-351 900.5,-351 900.5,-351 1206,-351 1259.99,-351 1321.68,-351 1364.72,-351"/>
<polygon fill="#9a32cd" stroke="#9a32cd" points="770.17,-347.5 760.17,-351 770.17,-354.5 770.17,-347.5"/>
<text text-anchor="middle" x="1058" y="-354" font-family="Helvetica,sans-Serif" font-size="10.00"> outer_radius</text>
</g>
<!-- Node7&#45;&gt;Node3 -->
<g id="edge8" class="edge">
<title>Node7&#45;&gt;Node3</title>
<path fill="none" stroke="#9a32cd" stroke-dasharray="5,2" d="M654.43,-362.7C649.22,-363.83 644.01,-364.94 639,-366 588.85,-376.59 571.82,-366.04 526,-389 518.61,-392.7 480.68,-427.98 462.18,-445.38"/>
<polygon fill="#9a32cd" stroke="#9a32cd" points="655.37,-366.08 664.4,-360.54 653.89,-359.24 655.37,-366.08"/>
<text text-anchor="middle" x="582.5" y="-425" font-family="Helvetica,sans-Serif" font-size="10.00"> absol</text>
<text text-anchor="middle" x="582.5" y="-414" font-family="Helvetica,sans-Serif" font-size="10.00">cart</text>
<text text-anchor="middle" x="582.5" y="-403" font-family="Helvetica,sans-Serif" font-size="10.00">cart_surr</text>
<text text-anchor="middle" x="582.5" y="-392" font-family="Helvetica,sans-Serif" font-size="10.00">radius</text>
</g>
<!-- Node7&#45;&gt;Node7 -->
<g id="edge11" class="edge">
<title>Node7&#45;&gt;Node7</title>
<path fill="none" stroke="#9a32cd" stroke-dasharray="5,2" d="M691.09,-370.4C692.26,-375.31 698.06,-379 708.5,-379 725.21,-379 730.04,-369.57 722.99,-360.76"/>
<polygon fill="#9a32cd" stroke="#9a32cd" points="694.47,-371.34 694.01,-360.76 687.77,-369.31 694.47,-371.34"/>
<text text-anchor="middle" x="708.5" y="-393" font-family="Helvetica,sans-Serif" font-size="10.00"> p_der_abs</text>
<text text-anchor="middle" x="708.5" y="-382" font-family="Helvetica,sans-Serif" font-size="10.00">p_der_var</text>
</g>
<!-- Node14 -->
<g id="node14" class="node">
<title>Node14</title>
<g id="a_node14"><a xlink:href="classKadath_1_1Scalar.html" target="_top" xlink:title=" ">
<polygon fill="none" stroke="black" points="861.5,-267.5 861.5,-286.5 941.5,-286.5 941.5,-267.5 861.5,-267.5"/>
<text text-anchor="middle" x="901.5" y="-274.5" font-family="Helvetica,sans-Serif" font-size="10.00">Kadath::Scalar</text>
</a>
</g>
</g>
<!-- Node7&#45;&gt;Node14 -->
<g id="edge29" class="edge">
<title>Node7&#45;&gt;Node14</title>
<path fill="none" stroke="#9a32cd" stroke-dasharray="5,2" d="M724.6,-333.21C737.34,-319.5 756.84,-301.36 778,-292 804.26,-280.39 836.59,-276.82 861.44,-276.06"/>
<polygon fill="#9a32cd" stroke="#9a32cd" points="721.64,-331.27 717.59,-341.05 726.86,-335.93 721.64,-331.27"/>
<text text-anchor="middle" x="804" y="-295" font-family="Helvetica,sans-Serif" font-size="10.00"> val_zones</text>
</g>
<!-- Node8&#45;&gt;Node7 -->
<g id="edge12" class="edge">
<title>Node8&#45;&gt;Node7</title>
<path fill="none" stroke="#9a32cd" stroke-dasharray="5,2" d="M518.36,-288.36C554.87,-288.38 600.45,-291.78 639,-305 661.76,-312.81 684.15,-330.18 696.85,-341.2"/>
<polygon fill="#9a32cd" stroke="#9a32cd" points="518.29,-284.86 508.32,-288.44 518.34,-291.86 518.29,-284.86"/>
<text text-anchor="middle" x="582.5" y="-308" font-family="Helvetica,sans-Serif" font-size="10.00"> base</text>
</g>
<!-- Node9&#45;&gt;Node8 -->
<g id="edge14" class="edge">
<title>Node9&#45;&gt;Node8</title>
<path fill="none" stroke="#9a32cd" stroke-dasharray="5,2" d="M258.99,-216.28C304.7,-234.4 385.55,-266.45 425.81,-282.41"/>
<polygon fill="#9a32cd" stroke="#9a32cd" points="260.11,-212.96 249.53,-212.52 257.53,-219.46 260.11,-212.96"/>
<text text-anchor="middle" x="339" y="-263" font-family="Helvetica,sans-Serif" font-size="10.00"> bases_1d</text>
</g>
<!-- Node9&#45;&gt;Node13 -->
<g id="edge30" class="edge">
<title>Node9&#45;&gt;Node13</title>
<path fill="none" stroke="#9a32cd" stroke-dasharray="5,2" d="M275.66,-191.35C320.95,-181.85 389.57,-170 450,-170 450,-170 450,-170 902.5,-170 953.53,-170 1010.09,-193.76 1038.53,-207.49"/>
<polygon fill="#9a32cd" stroke="#9a32cd" points="274.84,-187.94 265.79,-193.46 276.31,-194.79 274.84,-187.94"/>
<text text-anchor="middle" x="708.5" y="-184" font-family="Helvetica,sans-Serif" font-size="10.00"> give_indices</text>
<text text-anchor="middle" x="708.5" y="-173" font-family="Helvetica,sans-Serif" font-size="10.00">type_indice</text>
</g>
<!-- Node9&#45;&gt;Node15 -->
<g id="edge34" class="edge">
<title>Node9&#45;&gt;Node15</title>
<path fill="none" stroke="#9a32cd" stroke-dasharray="5,2" d="M285.33,-205.39C415.71,-210.61 723.69,-222.93 847.55,-227.88"/>
<polygon fill="#9a32cd" stroke="#9a32cd" points="285.27,-201.89 275.13,-204.99 284.99,-208.88 285.27,-201.89"/>
<text text-anchor="middle" x="582.5" y="-222" font-family="Helvetica,sans-Serif" font-size="10.00"> basis</text>
</g>
<!-- Node10&#45;&gt;Node2 -->
<g id="edge17" class="edge">
<title>Node10&#45;&gt;Node2</title>
<path fill="none" stroke="#9a32cd" stroke-dasharray="5,2" d="M759.06,-436C797.62,-436 852.46,-436 900.5,-436 900.5,-436 900.5,-436 1206,-436 1280.65,-436 1360.21,-390.4 1397.45,-366"/>
<polygon fill="#9a32cd" stroke="#9a32cd" points="758.64,-432.5 748.64,-436 758.64,-439.5 758.64,-432.5"/>
<text text-anchor="middle" x="1058" y="-439" font-family="Helvetica,sans-Serif" font-size="10.00"> sp</text>
</g>
<!-- Node10&#45;&gt;Node13 -->
<g id="edge26" class="edge">
<title>Node10&#45;&gt;Node13</title>
<path fill="none" stroke="#9a32cd" stroke-dasharray="5,2" d="M743.16,-422.54C799.56,-399.04 915.19,-346.69 999,-281 1020.01,-264.54 1039.84,-240.03 1049.98,-226.62"/>
<polygon fill="#9a32cd" stroke="#9a32cd" points="741.57,-419.41 733.67,-426.46 744.24,-425.88 741.57,-419.41"/>
<text text-anchor="middle" x="901.5" y="-375" font-family="Helvetica,sans-Serif" font-size="10.00"> espace</text>
</g>
<!-- Node10&#45;&gt;Node15 -->
<g id="edge33" class="edge">
<title>Node10&#45;&gt;Node15</title>
<path fill="none" stroke="#9a32cd" stroke-dasharray="5,2" d="M744.62,-421.76C750.21,-418.47 755.59,-414.56 760,-410 772.99,-396.57 768.33,-387.99 778,-372 797.88,-339.15 811.15,-336.45 830,-303 840.58,-284.23 833.62,-274.04 848,-258 855.1,-250.08 864.99,-244 874.27,-239.56"/>
<polygon fill="#9a32cd" stroke="#9a32cd" points="742.98,-418.67 735.79,-426.45 746.26,-424.86 742.98,-418.67"/>
<text text-anchor="middle" x="804" y="-375" font-family="Helvetica,sans-Serif" font-size="10.00"> space</text>
</g>
<!-- Node11&#45;&gt;Node2 -->
<g id="edge20" class="edge">
<title>Node11&#45;&gt;Node2</title>
<path fill="none" stroke="#9a32cd" stroke-dasharray="5,2" d="M386.2,-9.7C434.81,-9.4 513.53,-9 581.5,-9 581.5,-9 581.5,-9 1206,-9 1362.34,-9 1408.05,-269.68 1417.13,-335.86"/>
<polygon fill="#9a32cd" stroke="#9a32cd" points="385.98,-6.2 376.01,-9.76 386.03,-13.2 385.98,-6.2"/>
<text text-anchor="middle" x="901.5" y="-12" font-family="Helvetica,sans-Serif" font-size="10.00"> center</text>
</g>
<!-- Node12&#45;&gt;Node2 -->
<g id="edge22" class="edge">
<title>Node12&#45;&gt;Node2</title>
<path fill="none" stroke="#9a32cd" stroke-dasharray="5,2" d="M1260.22,-220.08C1288.08,-223.84 1321.45,-231.91 1347,-249 1379.79,-270.94 1402.35,-313.24 1412.65,-335.86"/>
<polygon fill="#9a32cd" stroke="#9a32cd" points="1260.57,-216.6 1250.23,-218.88 1259.74,-223.55 1260.57,-216.6"/>
<text text-anchor="middle" x="1307.5" y="-329" font-family="Helvetica,sans-Serif" font-size="10.00"> der_rad_term_eq</text>
<text text-anchor="middle" x="1307.5" y="-318" font-family="Helvetica,sans-Serif" font-size="10.00">dp_rad_term_eq</text>
<text text-anchor="middle" x="1307.5" y="-307" font-family="Helvetica,sans-Serif" font-size="10.00">dt_rad_term_eq</text>
<text text-anchor="middle" x="1307.5" y="-296" font-family="Helvetica,sans-Serif" font-size="10.00">normal_cart</text>
<text text-anchor="middle" x="1307.5" y="-285" font-family="Helvetica,sans-Serif" font-size="10.00">normal_spher</text>
<text text-anchor="start" x="1268" y="-274" font-family="Helvetica,sans-Serif" font-size="10.00">outer_radius_term</text>
<text text-anchor="middle" x="1307.5" y="-263" font-family="Helvetica,sans-Serif" font-size="10.00">_eq</text>
<text text-anchor="middle" x="1307.5" y="-252" font-family="Helvetica,sans-Serif" font-size="10.00">rad_term_eq</text>
</g>
<!-- Node13&#45;&gt;Node12 -->
<g id="edge24" class="edge">
<title>Node13&#45;&gt;Node12</title>
<path fill="none" stroke="#9a32cd" stroke-dasharray="5,2" d="M1109.02,-217C1125.53,-217 1143.76,-217 1159.79,-217"/>
<polygon fill="#9a32cd" stroke="#9a32cd" points="1109.01,-213.5 1099.01,-217 1109.01,-220.5 1109.01,-213.5"/>
<text text-anchor="middle" x="1129.5" y="-231" font-family="Helvetica,sans-Serif" font-size="10.00"> der_t</text>
<text text-anchor="middle" x="1129.5" y="-220" font-family="Helvetica,sans-Serif" font-size="10.00">val_t</text>
</g>
<!-- Node13&#45;&gt;Node14 -->
<g id="edge28" class="edge">
<title>Node13&#45;&gt;Node14</title>
<path fill="none" stroke="midnightblue" d="M1040.78,-233.76C1029.93,-243.92 1014.8,-256.18 999,-263 981.12,-270.71 959.84,-274.32 941.81,-275.96"/>
<polygon fill="midnightblue" stroke="midnightblue" points="1043.47,-236.03 1048.18,-226.54 1038.58,-231.02 1043.47,-236.03"/>
</g>
<!-- Node14&#45;&gt;Node13 -->
<g id="edge27" class="edge">
<title>Node14&#45;&gt;Node13</title>
<path fill="none" stroke="#9a32cd" stroke-dasharray="5,2" d="M936.31,-263.87C965.31,-252.61 1006.41,-236.65 1032.38,-226.56"/>
<polygon fill="#9a32cd" stroke="#9a32cd" points="935.04,-260.61 926.98,-267.49 937.57,-267.14 935.04,-260.61"/>
<text text-anchor="middle" x="986" y="-251" font-family="Helvetica,sans-Serif" font-size="10.00"> cmp</text>
</g>
<!-- Node15&#45;&gt;Node13 -->
<g id="edge31" class="edge">
<title>Node15&#45;&gt;Node13</title>
<path fill="none" stroke="#9a32cd" stroke-dasharray="5,2" d="M962.99,-219.07C966.37,-218.66 969.72,-218.3 973,-218 987.23,-216.71 1002.88,-216.26 1016.77,-216.2"/>
<polygon fill="#9a32cd" stroke="#9a32cd" points="962.26,-215.64 952.82,-220.45 963.2,-222.58 962.26,-215.64"/>
<text text-anchor="middle" x="986" y="-221" font-family="Helvetica,sans-Serif" font-size="10.00"> basis</text>
</g>
<!-- Node16&#45;&gt;Node13 -->
<g id="edge35" class="edge">
<title>Node16&#45;&gt;Node13</title>
<path fill="none" stroke="#9a32cd" stroke-dasharray="5,2" d="M649.23,-82.17C751.5,-77.46 942.82,-74.03 999,-110 1034.77,-132.9 1050.12,-185.8 1055.07,-207.48"/>
<polygon fill="#9a32cd" stroke="#9a32cd" points="648.84,-78.69 639.02,-82.66 649.17,-85.68 648.84,-78.69"/>
<text text-anchor="middle" x="804" y="-83" font-family="Helvetica,sans-Serif" font-size="10.00"> parameters</text>
</g>
</g>
</svg>
