<?xml version="1.0" encoding="UTF-8" standalone="no"?>
<!DOCTYPE svg PUBLIC "-//W3C//DTD SVG 1.1//EN"
 "http://www.w3.org/Graphics/SVG/1.1/DTD/svg11.dtd">
<!-- Generated by graphviz version 2.47.1 (20210515.0534)
 -->
<!-- Title: Kadath::Space_spheric_time Pages: 1 -->
<svg width="551pt" height="324pt"
 viewBox="0.00 0.00 550.50 324.00" xmlns="http://www.w3.org/2000/svg" xmlns:xlink="http://www.w3.org/1999/xlink">
<g id="graph0" class="graph" transform="scale(1 1) rotate(0) translate(4 320)">
<title>Kadath::Space_spheric_time</title>
<!-- Node1 -->
<g id="node1" class="node">
<title>Node1</title>
<g id="a_node1"><a xlink:title=" ">
<polygon fill="#bfbfbf" stroke="black" points="0,-0.5 0,-19.5 140,-19.5 140,-0.5 0,-0.5"/>
<text text-anchor="middle" x="70" y="-7.5" font-family="Helvetica,sans-Serif" font-size="10.00">Kadath::Space_spheric_time</text>
</a>
</g>
</g>
<!-- Node2 -->
<g id="node2" class="node">
<title>Node2</title>
<g id="a_node2"><a xlink:href="classKadath_1_1Space.html" target="_top" xlink:title=" ">
<polygon fill="none" stroke="black" points="30,-58.5 30,-77.5 110,-77.5 110,-58.5 30,-58.5"/>
<text text-anchor="middle" x="70" y="-65.5" font-family="Helvetica,sans-Serif" font-size="10.00">Kadath::Space</text>
</a>
</g>
</g>
<!-- Node2&#45;&gt;Node1 -->
<g id="edge1" class="edge">
<title>Node2&#45;&gt;Node1</title>
<path fill="none" stroke="midnightblue" d="M70,-47.95C70,-38.29 70,-27.03 70,-19.51"/>
<polygon fill="midnightblue" stroke="midnightblue" points="66.5,-48.25 70,-58.25 73.5,-48.25 66.5,-48.25"/>
</g>
<!-- Node3 -->
<g id="node3" class="node">
<title>Node3</title>
<g id="a_node3"><a xlink:href="structKadath_1_1MemoryMappable.html" target="_top" xlink:title=" ">
<polygon fill="none" stroke="black" points="223,-296.5 223,-315.5 351,-315.5 351,-296.5 223,-296.5"/>
<text text-anchor="middle" x="287" y="-303.5" font-family="Helvetica,sans-Serif" font-size="10.00">Kadath::MemoryMappable</text>
</a>
</g>
</g>
<!-- Node3&#45;&gt;Node2 -->
<g id="edge2" class="edge">
<title>Node3&#45;&gt;Node2</title>
<path fill="none" stroke="midnightblue" d="M212.67,-296.96C165.2,-290.06 110.02,-278.14 96,-259 53.7,-201.25 64.11,-106.49 68.53,-77.62"/>
<polygon fill="midnightblue" stroke="midnightblue" points="212.27,-300.44 222.66,-298.35 213.24,-293.5 212.27,-300.44"/>
</g>
<!-- Node4 -->
<g id="node4" class="node">
<title>Node4</title>
<g id="a_node4"><a xlink:href="classKadath_1_1Domain.html" target="_top" xlink:title=" ">
<polygon fill="none" stroke="black" points="124.5,-160.5 124.5,-179.5 209.5,-179.5 209.5,-160.5 124.5,-160.5"/>
<text text-anchor="middle" x="167" y="-167.5" font-family="Helvetica,sans-Serif" font-size="10.00">Kadath::Domain</text>
</a>
</g>
</g>
<!-- Node3&#45;&gt;Node4 -->
<g id="edge4" class="edge">
<title>Node3&#45;&gt;Node4</title>
<path fill="none" stroke="midnightblue" d="M212.78,-295.56C168.59,-288.25 118.54,-276.39 105,-259 83.07,-230.84 128.38,-195.71 152.8,-179.69"/>
<polygon fill="midnightblue" stroke="midnightblue" points="212.26,-299.02 222.69,-297.14 213.37,-292.11 212.26,-299.02"/>
</g>
<!-- Node5 -->
<g id="node5" class="node">
<title>Node5</title>
<g id="a_node5"><a xlink:href="classKadath_1_1Dim__array.html" target="_top" xlink:title=" ">
<polygon fill="none" stroke="black" points="114.5,-239.5 114.5,-258.5 209.5,-258.5 209.5,-239.5 114.5,-239.5"/>
<text text-anchor="middle" x="162" y="-246.5" font-family="Helvetica,sans-Serif" font-size="10.00">Kadath::Dim_array</text>
</a>
</g>
</g>
<!-- Node3&#45;&gt;Node5 -->
<g id="edge6" class="edge">
<title>Node3&#45;&gt;Node5</title>
<path fill="none" stroke="midnightblue" d="M258.3,-292.37C234.73,-282 201.98,-267.59 181.39,-258.53"/>
<polygon fill="midnightblue" stroke="midnightblue" points="256.91,-295.58 267.47,-296.41 259.73,-289.18 256.91,-295.58"/>
</g>
<!-- Node6 -->
<g id="node6" class="node">
<title>Node6</title>
<g id="a_node6"><a xlink:href="classKadath_1_1Array.html" target="_top" xlink:title=" ">
<polygon fill="none" stroke="black" points="227.5,-239.5 227.5,-258.5 346.5,-258.5 346.5,-239.5 227.5,-239.5"/>
<text text-anchor="middle" x="287" y="-246.5" font-family="Helvetica,sans-Serif" font-size="10.00">Kadath::Array&lt; double &gt;</text>
</a>
</g>
</g>
<!-- Node3&#45;&gt;Node6 -->
<g id="edge8" class="edge">
<title>Node3&#45;&gt;Node6</title>
<path fill="none" stroke="midnightblue" d="M287,-286.12C287,-276.82 287,-266.06 287,-258.71"/>
<polygon fill="midnightblue" stroke="midnightblue" points="283.5,-286.41 287,-296.41 290.5,-286.41 283.5,-286.41"/>
</g>
<!-- Node7 -->
<g id="node7" class="node">
<title>Node7</title>
<g id="a_node7"><a xlink:href="classKadath_1_1Val__domain.html" target="_top" xlink:title=" ">
<polygon fill="none" stroke="black" points="235.5,-58.5 235.5,-77.5 338.5,-77.5 338.5,-58.5 235.5,-58.5"/>
<text text-anchor="middle" x="287" y="-65.5" font-family="Helvetica,sans-Serif" font-size="10.00">Kadath::Val_domain</text>
</a>
</g>
</g>
<!-- Node3&#45;&gt;Node7 -->
<g id="edge10" class="edge">
<title>Node3&#45;&gt;Node7</title>
<path fill="none" stroke="midnightblue" d="M319.49,-291.87C333.37,-284.43 348.16,-273.65 356,-259 360.19,-251.16 357.63,-247.74 356,-239 343.83,-173.87 305.88,-102.35 292.08,-77.82"/>
<polygon fill="midnightblue" stroke="midnightblue" points="317.55,-288.92 310.12,-296.48 320.64,-295.2 317.55,-288.92"/>
</g>
<!-- Node8 -->
<g id="node8" class="node">
<title>Node8</title>
<g id="a_node8"><a xlink:href="classKadath_1_1Base__spectral.html" target="_top" xlink:title=" ">
<polygon fill="none" stroke="black" points="403,-160.5 403,-179.5 517,-179.5 517,-160.5 403,-160.5"/>
<text text-anchor="middle" x="460" y="-167.5" font-family="Helvetica,sans-Serif" font-size="10.00">Kadath::Base_spectral</text>
</a>
</g>
</g>
<!-- Node3&#45;&gt;Node8 -->
<g id="edge14" class="edge">
<title>Node3&#45;&gt;Node8</title>
<path fill="none" stroke="midnightblue" d="M357.91,-293.43C368.94,-289.65 379.73,-284.64 389,-278 425.6,-251.77 448.65,-200.31 456.74,-179.77"/>
<polygon fill="midnightblue" stroke="midnightblue" points="356.7,-290.14 348.19,-296.44 358.77,-296.83 356.7,-290.14"/>
</g>
<!-- Node9 -->
<g id="node9" class="node">
<title>Node9</title>
<g id="a_node9"><a xlink:href="classKadath_1_1Array.html" target="_top" xlink:title=" ">
<polygon fill="none" stroke="black" points="441.5,-239.5 441.5,-258.5 542.5,-258.5 542.5,-239.5 441.5,-239.5"/>
<text text-anchor="middle" x="492" y="-246.5" font-family="Helvetica,sans-Serif" font-size="10.00">Kadath::Array&lt; int &gt;</text>
</a>
</g>
</g>
<!-- Node3&#45;&gt;Node9 -->
<g id="edge16" class="edge">
<title>Node3&#45;&gt;Node9</title>
<path fill="none" stroke="midnightblue" d="M356.22,-294.71C379.02,-290.52 404.33,-284.98 427,-278 443.79,-272.83 462.11,-264.7 475,-258.53"/>
<polygon fill="midnightblue" stroke="midnightblue" points="355.5,-291.28 346.28,-296.49 356.73,-298.18 355.5,-291.28"/>
</g>
<!-- Node4&#45;&gt;Node2 -->
<g id="edge3" class="edge">
<title>Node4&#45;&gt;Node2</title>
<path fill="none" stroke="#9a32cd" stroke-dasharray="5,2" d="M129.83,-156.3C121.65,-152.31 113.5,-147.26 107,-141 87.97,-122.68 76.93,-92.44 72.42,-77.66"/>
<polygon fill="#9a32cd" stroke="#9a32cd" points="128.43,-159.51 138.99,-160.38 131.28,-153.12 128.43,-159.51"/>
<text text-anchor="middle" x="127" y="-116.5" font-family="Helvetica,sans-Serif" font-size="10.00"> domains</text>
</g>
<!-- Node4&#45;&gt;Node7 -->
<g id="edge17" class="edge">
<title>Node4&#45;&gt;Node7</title>
<path fill="none" stroke="#9a32cd" stroke-dasharray="5,2" d="M161.83,-150.54C158.57,-134.59 156.95,-111.82 169,-97 177.6,-86.42 207.7,-79.38 235.34,-75.01"/>
<polygon fill="#9a32cd" stroke="#9a32cd" points="158.45,-151.43 164.21,-160.32 165.25,-149.78 158.45,-151.43"/>
<text text-anchor="middle" x="180.5" y="-116.5" font-family="Helvetica,sans-Serif" font-size="10.00"> zone</text>
</g>
<!-- Node5&#45;&gt;Node4 -->
<g id="edge5" class="edge">
<title>Node5&#45;&gt;Node4</title>
<path fill="none" stroke="#9a32cd" stroke-dasharray="5,2" d="M163.21,-229.31C164.23,-213.59 165.65,-191.81 166.43,-179.81"/>
<polygon fill="#9a32cd" stroke="#9a32cd" points="159.71,-229.26 162.55,-239.47 166.69,-229.71 159.71,-229.26"/>
<text text-anchor="middle" x="189" y="-213" font-family="Helvetica,sans-Serif" font-size="10.00"> nbr_coefs</text>
<text text-anchor="middle" x="189" y="-202" font-family="Helvetica,sans-Serif" font-size="10.00">nbr_points</text>
</g>
<!-- Node6&#45;&gt;Node4 -->
<g id="edge7" class="edge">
<title>Node6&#45;&gt;Node4</title>
<path fill="none" stroke="#9a32cd" stroke-dasharray="5,2" d="M265.63,-233.71C259.58,-229.63 253.02,-225.17 247,-221 233.11,-211.38 230.24,-208.09 216,-199 205.26,-192.15 192.8,-185.03 183.12,-179.69"/>
<polygon fill="#9a32cd" stroke="#9a32cd" points="263.73,-236.65 273.98,-239.32 267.63,-230.84 263.73,-236.65"/>
<text text-anchor="middle" x="260" y="-207.5" font-family="Helvetica,sans-Serif" font-size="10.00"> coloc</text>
</g>
<!-- Node6&#45;&gt;Node7 -->
<g id="edge11" class="edge">
<title>Node6&#45;&gt;Node7</title>
<path fill="none" stroke="#9a32cd" stroke-dasharray="5,2" d="M287,-229.09C287,-190.68 287,-104.89 287,-77.55"/>
<polygon fill="#9a32cd" stroke="#9a32cd" points="283.5,-229.37 287,-239.37 290.5,-229.37 283.5,-229.37"/>
<text text-anchor="middle" x="291.5" y="-173" font-family="Helvetica,sans-Serif" font-size="10.00"> c</text>
<text text-anchor="middle" x="291.5" y="-162" font-family="Helvetica,sans-Serif" font-size="10.00">cf</text>
</g>
<!-- Node7&#45;&gt;Node4 -->
<g id="edge9" class="edge">
<title>Node7&#45;&gt;Node4</title>
<path fill="none" stroke="#9a32cd" stroke-dasharray="5,2" d="M257.46,-82.13C249.47,-86.33 241.08,-91.36 234,-97 213.78,-113.09 213.76,-122.23 196,-141 189.65,-147.71 182.14,-154.95 176.35,-160.38"/>
<polygon fill="#9a32cd" stroke="#9a32cd" points="259.15,-85.19 266.55,-77.61 256.04,-78.93 259.15,-85.19"/>
<text text-anchor="middle" x="253.5" y="-133" font-family="Helvetica,sans-Serif" font-size="10.00"> absol</text>
<text text-anchor="middle" x="253.5" y="-122" font-family="Helvetica,sans-Serif" font-size="10.00">cart</text>
<text text-anchor="middle" x="253.5" y="-111" font-family="Helvetica,sans-Serif" font-size="10.00">cart_surr</text>
<text text-anchor="middle" x="253.5" y="-100" font-family="Helvetica,sans-Serif" font-size="10.00">radius</text>
</g>
<!-- Node7&#45;&gt;Node7 -->
<g id="edge12" class="edge">
<title>Node7&#45;&gt;Node7</title>
<path fill="none" stroke="#9a32cd" stroke-dasharray="5,2" d="M348.82,-71.95C353.57,-71.08 356.5,-69.76 356.5,-68 356.5,-65.18 349,-63.5 338.53,-62.95"/>
<polygon fill="#9a32cd" stroke="#9a32cd" points="348.1,-68.51 338.53,-73.05 348.84,-75.47 348.1,-68.51"/>
<text text-anchor="middle" x="380.5" y="-71" font-family="Helvetica,sans-Serif" font-size="10.00"> p_der_abs</text>
<text text-anchor="middle" x="380.5" y="-60" font-family="Helvetica,sans-Serif" font-size="10.00">p_der_var</text>
</g>
<!-- Node8&#45;&gt;Node7 -->
<g id="edge13" class="edge">
<title>Node8&#45;&gt;Node7</title>
<path fill="none" stroke="#9a32cd" stroke-dasharray="5,2" d="M447.83,-152.31C434.99,-135.87 413.28,-111.23 389,-97 373.63,-87.99 355.27,-81.79 338.38,-77.56"/>
<polygon fill="#9a32cd" stroke="#9a32cd" points="445.19,-154.61 454.01,-160.47 450.77,-150.39 445.19,-154.61"/>
<text text-anchor="middle" x="449" y="-116.5" font-family="Helvetica,sans-Serif" font-size="10.00"> base</text>
</g>
<!-- Node9&#45;&gt;Node8 -->
<g id="edge15" class="edge">
<title>Node9&#45;&gt;Node8</title>
<path fill="none" stroke="#9a32cd" stroke-dasharray="5,2" d="M484.61,-230.22C478.05,-214.44 468.74,-192.04 463.66,-179.81"/>
<polygon fill="#9a32cd" stroke="#9a32cd" points="481.38,-231.57 488.45,-239.47 487.85,-228.89 481.38,-231.57"/>
<text text-anchor="middle" x="502.5" y="-207.5" font-family="Helvetica,sans-Serif" font-size="10.00"> bases_1d</text>
</g>
</g>
</svg>
