<?xml version="1.0" encoding="UTF-8" standalone="no"?>
<!DOCTYPE svg PUBLIC "-//W3C//DTD SVG 1.1//EN"
 "http://www.w3.org/Graphics/SVG/1.1/DTD/svg11.dtd">
<!-- Generated by graphviz version 2.47.1 (20210515.0534)
 -->
<!-- Title: Kadath::System_of_eqs Pages: 1 -->
<svg width="2084pt" height="845pt"
 viewBox="0.00 0.00 2084.00 845.00" xmlns="http://www.w3.org/2000/svg" xmlns:xlink="http://www.w3.org/1999/xlink">
<g id="graph0" class="graph" transform="scale(1 1) rotate(0) translate(4 841)">
<title>Kadath::System_of_eqs</title>
<!-- Node1 -->
<g id="node1" class="node">
<title>Node1</title>
<g id="a_node1"><a xlink:title=" ">
<polygon fill="#bfbfbf" stroke="black" points="1664,-452.5 1664,-471.5 1783,-471.5 1783,-452.5 1664,-452.5"/>
<text text-anchor="middle" x="1723.5" y="-459.5" font-family="Helvetica,sans-Serif" font-size="10.00">Kadath::System_of_eqs</text>
</a>
</g>
</g>
<!-- Node5 -->
<g id="node5" class="node">
<title>Node5</title>
<g id="a_node5"><a xlink:href="classKadath_1_1Ope__eq.html" target="_top" xlink:title=" ">
<polygon fill="none" stroke="black" points="1840,-354.5 1840,-373.5 1926,-373.5 1926,-354.5 1840,-354.5"/>
<text text-anchor="middle" x="1883" y="-361.5" font-family="Helvetica,sans-Serif" font-size="10.00">Kadath::Ope_eq</text>
</a>
</g>
</g>
<!-- Node1&#45;&gt;Node5 -->
<g id="edge8" class="edge">
<title>Node1&#45;&gt;Node5</title>
<path fill="none" stroke="#9a32cd" stroke-dasharray="5,2" d="M1748.42,-446.93C1763.49,-437.45 1783.36,-424.98 1801,-414 1823.73,-399.85 1850.13,-383.59 1866.45,-373.55"/>
<polygon fill="#9a32cd" stroke="#9a32cd" points="1746.32,-444.12 1739.72,-452.4 1750.05,-450.04 1746.32,-444.12"/>
<text text-anchor="middle" x="1811.5" y="-417" font-family="Helvetica,sans-Serif" font-size="10.00"> syst</text>
</g>
<!-- Node20 -->
<g id="node20" class="node">
<title>Node20</title>
<g id="a_node20"><a xlink:href="classKadath_1_1Metric.html" target="_top" xlink:title=" ">
<polygon fill="none" stroke="black" points="1843.5,-635.5 1843.5,-654.5 1922.5,-654.5 1922.5,-635.5 1843.5,-635.5"/>
<text text-anchor="middle" x="1883" y="-642.5" font-family="Helvetica,sans-Serif" font-size="10.00">Kadath::Metric</text>
</a>
</g>
</g>
<!-- Node1&#45;&gt;Node20 -->
<g id="edge54" class="edge">
<title>Node1&#45;&gt;Node20</title>
<path fill="none" stroke="#9a32cd" stroke-dasharray="5,2" d="M1752.24,-476.47C1773.4,-488.58 1802.17,-507.46 1822,-530 1851.59,-563.65 1871.43,-614.48 1878.8,-635.44"/>
<polygon fill="#9a32cd" stroke="#9a32cd" points="1753.85,-473.36 1743.41,-471.56 1750.44,-479.48 1753.85,-473.36"/>
<text text-anchor="middle" x="1811.5" y="-533" font-family="Helvetica,sans-Serif" font-size="10.00"> syst</text>
</g>
<!-- Node2 -->
<g id="node2" class="node">
<title>Node2</title>
<g id="a_node2"><a xlink:href="classKadath_1_1Equation.html" target="_top" xlink:title=" ">
<polygon fill="none" stroke="black" points="1987,-118.5 1987,-137.5 2076,-137.5 2076,-118.5 1987,-118.5"/>
<text text-anchor="middle" x="2031.5" y="-125.5" font-family="Helvetica,sans-Serif" font-size="10.00">Kadath::Equation</text>
</a>
</g>
</g>
<!-- Node2&#45;&gt;Node1 -->
<g id="edge1" class="edge">
<title>Node2&#45;&gt;Node1</title>
<path fill="none" stroke="#9a32cd" stroke-dasharray="5,2" d="M2014.29,-145.38C1981.33,-180.76 1904.18,-263.75 1840,-334 1799.83,-377.98 1752.32,-430.93 1733.15,-452.33"/>
<polygon fill="#9a32cd" stroke="#9a32cd" points="2017.08,-147.53 2021.34,-137.82 2011.96,-142.75 2017.08,-147.53"/>
<text text-anchor="middle" x="1883" y="-337" font-family="Helvetica,sans-Serif" font-size="10.00"> eq</text>
</g>
<!-- Node3 -->
<g id="node3" class="node">
<title>Node3</title>
<g id="a_node3"><a xlink:href="structKadath_1_1MemoryMappable.html" target="_top" xlink:title=" ">
<polygon fill="none" stroke="black" points="0,-391.5 0,-410.5 128,-410.5 128,-391.5 0,-391.5"/>
<text text-anchor="middle" x="64" y="-398.5" font-family="Helvetica,sans-Serif" font-size="10.00">Kadath::MemoryMappable</text>
</a>
</g>
</g>
<!-- Node3&#45;&gt;Node2 -->
<g id="edge2" class="edge">
<title>Node3&#45;&gt;Node2</title>
<path fill="none" stroke="midnightblue" d="M65.71,-381.45C68.71,-323.15 84.35,-147.58 165,-34 180.45,-12.24 187.81,0 214.5,0 214.5,0 214.5,0 1884,0 1955.94,0 2009.59,-88.61 2025.58,-118.38"/>
<polygon fill="midnightblue" stroke="midnightblue" points="62.21,-381.34 65.26,-391.49 69.2,-381.65 62.21,-381.34"/>
</g>
<!-- Node4 -->
<g id="node4" class="node">
<title>Node4</title>
<g id="a_node4"><a xlink:href="classKadath_1_1Array.html" target="_top" xlink:title=" ">
<polygon fill="none" stroke="black" points="165,-475.5 165,-494.5 266,-494.5 266,-475.5 165,-475.5"/>
<text text-anchor="middle" x="215.5" y="-482.5" font-family="Helvetica,sans-Serif" font-size="10.00">Kadath::Array&lt; int &gt;</text>
</a>
</g>
</g>
<!-- Node3&#45;&gt;Node4 -->
<g id="edge4" class="edge">
<title>Node3&#45;&gt;Node4</title>
<path fill="none" stroke="midnightblue" d="M83.71,-417.42C99.46,-430.59 123.04,-448.83 146,-461 156.91,-466.78 169.51,-471.65 180.9,-475.47"/>
<polygon fill="midnightblue" stroke="midnightblue" points="85.69,-414.51 75.81,-410.69 81.15,-419.84 85.69,-414.51"/>
</g>
<!-- Node3&#45;&gt;Node5 -->
<g id="edge6" class="edge">
<title>Node3&#45;&gt;Node5</title>
<path fill="none" stroke="midnightblue" d="M68.65,-381.2C83.15,-305.4 139.62,-38 214.5,-38 214.5,-38 214.5,-38 1302,-38 1423.94,-38 1461.1,-27.92 1574,-74 1669.68,-113.06 1782.38,-309.86 1840,-349 1842.95,-351 1846.19,-352.77 1849.53,-354.32"/>
<polygon fill="midnightblue" stroke="midnightblue" points="65.16,-380.82 66.75,-391.29 72.03,-382.11 65.16,-380.82"/>
</g>
<!-- Node6 -->
<g id="node6" class="node">
<title>Node6</title>
<g id="a_node6"><a xlink:href="classKadath_1_1Domain.html" target="_top" xlink:title=" ">
<polygon fill="none" stroke="black" points="828,-284.5 828,-303.5 913,-303.5 913,-284.5 828,-284.5"/>
<text text-anchor="middle" x="870.5" y="-291.5" font-family="Helvetica,sans-Serif" font-size="10.00">Kadath::Domain</text>
</a>
</g>
</g>
<!-- Node3&#45;&gt;Node6 -->
<g id="edge10" class="edge">
<title>Node3&#45;&gt;Node6</title>
<path fill="none" stroke="midnightblue" d="M128.64,-389.78C140.7,-387.76 153.23,-385.75 165,-384 198.1,-379.07 681.83,-317.76 827.99,-299.26"/>
<polygon fill="midnightblue" stroke="midnightblue" points="127.93,-386.35 118.65,-391.46 129.09,-393.25 127.93,-386.35"/>
</g>
<!-- Node7 -->
<g id="node7" class="node">
<title>Node7</title>
<g id="a_node7"><a xlink:href="classKadath_1_1Dim__array.html" target="_top" xlink:title=" ">
<polygon fill="none" stroke="black" points="168,-246.5 168,-265.5 263,-265.5 263,-246.5 168,-246.5"/>
<text text-anchor="middle" x="215.5" y="-253.5" font-family="Helvetica,sans-Serif" font-size="10.00">Kadath::Dim_array</text>
</a>
</g>
</g>
<!-- Node3&#45;&gt;Node7 -->
<g id="edge12" class="edge">
<title>Node3&#45;&gt;Node7</title>
<path fill="none" stroke="midnightblue" d="M79.19,-383.62C94.78,-364.92 120.96,-334.67 146,-311 164.18,-293.82 187.18,-276.08 201.36,-265.55"/>
<polygon fill="midnightblue" stroke="midnightblue" points="76.48,-381.4 72.81,-391.34 81.88,-385.86 76.48,-381.4"/>
</g>
<!-- Node8 -->
<g id="node8" class="node">
<title>Node8</title>
<g id="a_node8"><a xlink:href="classKadath_1_1Array.html" target="_top" xlink:title=" ">
<polygon fill="none" stroke="black" points="415,-208.5 415,-227.5 534,-227.5 534,-208.5 415,-208.5"/>
<text text-anchor="middle" x="474.5" y="-215.5" font-family="Helvetica,sans-Serif" font-size="10.00">Kadath::Array&lt; double &gt;</text>
</a>
</g>
</g>
<!-- Node3&#45;&gt;Node8 -->
<g id="edge14" class="edge">
<title>Node3&#45;&gt;Node8</title>
<path fill="none" stroke="midnightblue" d="M71.15,-381.47C83.19,-346.6 113.29,-273.85 165,-237 246.28,-179.08 372.31,-195.29 435.15,-208.49"/>
<polygon fill="midnightblue" stroke="midnightblue" points="67.69,-380.77 67.87,-391.36 74.34,-382.97 67.69,-380.77"/>
</g>
<!-- Node9 -->
<g id="node9" class="node">
<title>Node9</title>
<g id="a_node9"><a xlink:href="classKadath_1_1Val__domain.html" target="_top" xlink:title=" ">
<polygon fill="none" stroke="black" points="650,-352.5 650,-371.5 753,-371.5 753,-352.5 650,-352.5"/>
<text text-anchor="middle" x="701.5" y="-359.5" font-family="Helvetica,sans-Serif" font-size="10.00">Kadath::Val_domain</text>
</a>
</g>
</g>
<!-- Node3&#45;&gt;Node9 -->
<g id="edge16" class="edge">
<title>Node3&#45;&gt;Node9</title>
<path fill="none" stroke="midnightblue" d="M138.54,-396.49C268.97,-388.48 537.59,-372 649.66,-365.12"/>
<polygon fill="midnightblue" stroke="midnightblue" points="138.02,-393.01 128.26,-397.12 138.45,-400 138.02,-393.01"/>
</g>
<!-- Node10 -->
<g id="node10" class="node">
<title>Node10</title>
<g id="a_node10"><a xlink:href="classKadath_1_1Base__spectral.html" target="_top" xlink:title=" ">
<polygon fill="none" stroke="black" points="417.5,-391.5 417.5,-410.5 531.5,-410.5 531.5,-391.5 417.5,-391.5"/>
<text text-anchor="middle" x="474.5" y="-398.5" font-family="Helvetica,sans-Serif" font-size="10.00">Kadath::Base_spectral</text>
</a>
</g>
</g>
<!-- Node3&#45;&gt;Node10 -->
<g id="edge20" class="edge">
<title>Node3&#45;&gt;Node10</title>
<path fill="none" stroke="midnightblue" d="M138.38,-401C218.39,-401 344.67,-401 417.21,-401"/>
<polygon fill="midnightblue" stroke="midnightblue" points="138.38,-397.5 128.38,-401 138.38,-404.5 138.38,-397.5"/>
</g>
<!-- Node11 -->
<g id="node11" class="node">
<title>Node11</title>
<g id="a_node11"><a xlink:href="classKadath_1_1Eq__int.html" target="_top" xlink:title=" ">
<polygon fill="none" stroke="black" points="1992,-488.5 1992,-507.5 2071,-507.5 2071,-488.5 1992,-488.5"/>
<text text-anchor="middle" x="2031.5" y="-495.5" font-family="Helvetica,sans-Serif" font-size="10.00">Kadath::Eq_int</text>
</a>
</g>
</g>
<!-- Node3&#45;&gt;Node11 -->
<g id="edge24" class="edge">
<title>Node3&#45;&gt;Node11</title>
<path fill="none" stroke="midnightblue" d="M67.33,-420.59C77.95,-505.45 125.18,-837 214.5,-837 214.5,-837 214.5,-837 1884,-837 2031.46,-837 2032.21,-563.36 2030.84,-507.78"/>
<polygon fill="midnightblue" stroke="midnightblue" points="70.79,-420.01 66.1,-410.51 63.84,-420.86 70.79,-420.01"/>
</g>
<!-- Node12 -->
<g id="node12" class="node">
<title>Node12</title>
<g id="a_node12"><a xlink:href="classKadath_1_1Space.html" target="_top" xlink:title=" ">
<polygon fill="none" stroke="black" points="989,-549.5 989,-568.5 1069,-568.5 1069,-549.5 989,-549.5"/>
<text text-anchor="middle" x="1029" y="-556.5" font-family="Helvetica,sans-Serif" font-size="10.00">Kadath::Space</text>
</a>
</g>
</g>
<!-- Node3&#45;&gt;Node12 -->
<g id="edge27" class="edge">
<title>Node3&#45;&gt;Node12</title>
<path fill="none" stroke="midnightblue" d="M66.35,-420.86C70.41,-464.85 86.19,-571.29 146,-631 168.83,-653.79 182.24,-655 214.5,-655 214.5,-655 214.5,-655 593,-655 752.32,-655 936.91,-592.84 1002.93,-568.56"/>
<polygon fill="midnightblue" stroke="midnightblue" points="69.84,-420.55 65.54,-410.87 62.86,-421.12 69.84,-420.55"/>
</g>
<!-- Node13 -->
<g id="node13" class="node">
<title>Node13</title>
<g id="a_node13"><a xlink:href="classKadath_1_1Index.html" target="_top" xlink:title=" ">
<polygon fill="none" stroke="black" points="437,-132.5 437,-151.5 512,-151.5 512,-132.5 437,-132.5"/>
<text text-anchor="middle" x="474.5" y="-139.5" font-family="Helvetica,sans-Serif" font-size="10.00">Kadath::Index</text>
</a>
</g>
</g>
<!-- Node3&#45;&gt;Node13 -->
<g id="edge30" class="edge">
<title>Node3&#45;&gt;Node13</title>
<path fill="none" stroke="midnightblue" d="M68.4,-381.26C76.7,-339.52 102.12,-242.26 165,-195 246.56,-133.7 374.42,-133.81 436.8,-138.22"/>
<polygon fill="midnightblue" stroke="midnightblue" points="64.93,-380.79 66.53,-391.26 71.81,-382.07 64.93,-380.79"/>
</g>
<!-- Node14 -->
<g id="node14" class="node">
<title>Node14</title>
<g id="a_node14"><a xlink:href="classKadath_1_1Param.html" target="_top" xlink:title=" ">
<polygon fill="none" stroke="black" points="552,-73.5 552,-92.5 632,-92.5 632,-73.5 552,-73.5"/>
<text text-anchor="middle" x="592" y="-80.5" font-family="Helvetica,sans-Serif" font-size="10.00">Kadath::Param</text>
</a>
</g>
</g>
<!-- Node3&#45;&gt;Node14 -->
<g id="edge34" class="edge">
<title>Node3&#45;&gt;Node14</title>
<path fill="none" stroke="midnightblue" d="M66.3,-381.28C70.63,-332.63 89.03,-206.43 165,-146 280.27,-54.32 470.4,-66.43 551.91,-76.89"/>
<polygon fill="midnightblue" stroke="midnightblue" points="62.79,-381.17 65.5,-391.41 69.77,-381.72 62.79,-381.17"/>
</g>
<!-- Node15 -->
<g id="node15" class="node">
<title>Node15</title>
<g id="a_node15"><a xlink:href="classKadath_1_1Term__eq.html" target="_top" xlink:title=" ">
<polygon fill="none" stroke="black" points="1484,-627.5 1484,-646.5 1574,-646.5 1574,-627.5 1484,-627.5"/>
<text text-anchor="middle" x="1529" y="-634.5" font-family="Helvetica,sans-Serif" font-size="10.00">Kadath::Term_eq</text>
</a>
</g>
</g>
<!-- Node3&#45;&gt;Node15 -->
<g id="edge37" class="edge">
<title>Node3&#45;&gt;Node15</title>
<path fill="none" stroke="midnightblue" d="M68.68,-420.64C83.3,-495.81 140.15,-761 214.5,-761 214.5,-761 214.5,-761 1374,-761 1419.13,-761 1430.83,-746.29 1466,-718 1491.94,-697.13 1513.22,-663.23 1522.69,-646.69"/>
<polygon fill="midnightblue" stroke="midnightblue" points="72.08,-419.79 66.76,-410.63 65.2,-421.11 72.08,-419.79"/>
</g>
<!-- Node16 -->
<g id="node16" class="node">
<title>Node16</title>
<g id="a_node16"><a xlink:href="classKadath_1_1Tensor.html" target="_top" xlink:title=" ">
<polygon fill="none" stroke="black" points="1332,-476.5 1332,-495.5 1414,-495.5 1414,-476.5 1332,-476.5"/>
<text text-anchor="middle" x="1373" y="-483.5" font-family="Helvetica,sans-Serif" font-size="10.00">Kadath::Tensor</text>
</a>
</g>
</g>
<!-- Node3&#45;&gt;Node16 -->
<g id="edge39" class="edge">
<title>Node3&#45;&gt;Node16</title>
<path fill="none" stroke="midnightblue" d="M68.68,-420.43C79.99,-473.5 119.34,-617 214.5,-617 214.5,-617 214.5,-617 593,-617 804.65,-617 861.49,-672.62 1069,-631 1189.65,-606.8 1317.25,-523.99 1358.39,-495.62"/>
<polygon fill="midnightblue" stroke="midnightblue" points="72.1,-419.67 66.69,-410.56 65.24,-421.06 72.1,-419.67"/>
</g>
<!-- Node18 -->
<g id="node18" class="node">
<title>Node18</title>
<g id="a_node18"><a xlink:href="classKadath_1_1Base__tensor.html" target="_top" xlink:title=" ">
<polygon fill="none" stroke="black" points="1163,-438.5 1163,-457.5 1270,-457.5 1270,-438.5 1163,-438.5"/>
<text text-anchor="middle" x="1216.5" y="-445.5" font-family="Helvetica,sans-Serif" font-size="10.00">Kadath::Base_tensor</text>
</a>
</g>
</g>
<!-- Node3&#45;&gt;Node18 -->
<g id="edge46" class="edge">
<title>Node3&#45;&gt;Node18</title>
<path fill="none" stroke="midnightblue" d="M125.58,-412.25C169.4,-419.81 230.14,-429.07 284,-433 456.7,-445.61 992.18,-447.62 1162.75,-447.94"/>
<polygon fill="midnightblue" stroke="midnightblue" points="126.11,-408.79 115.66,-410.52 124.91,-415.69 126.11,-408.79"/>
</g>
<!-- Node19 -->
<g id="node19" class="node">
<title>Node19</title>
<g id="a_node19"><a xlink:href="classKadath_1_1Param__tensor.html" target="_top" xlink:title=" ">
<polygon fill="none" stroke="black" points="284,-683.5 284,-702.5 397,-702.5 397,-683.5 284,-683.5"/>
<text text-anchor="middle" x="340.5" y="-690.5" font-family="Helvetica,sans-Serif" font-size="10.00">Kadath::Param_tensor</text>
</a>
</g>
</g>
<!-- Node3&#45;&gt;Node19 -->
<g id="edge50" class="edge">
<title>Node3&#45;&gt;Node19</title>
<path fill="none" stroke="midnightblue" d="M64.3,-420.66C63.67,-470.92 69.63,-604.63 146,-669 183.79,-700.85 241.41,-704.18 283.96,-701.16"/>
<polygon fill="midnightblue" stroke="midnightblue" points="67.8,-420.59 64.53,-410.51 60.8,-420.43 67.8,-420.59"/>
</g>
<!-- Node3&#45;&gt;Node20 -->
<g id="edge52" class="edge">
<title>Node3&#45;&gt;Node20</title>
<path fill="none" stroke="midnightblue" d="M68.02,-421.15C80.72,-502.05 132.89,-799 214.5,-799 214.5,-799 214.5,-799 1724.5,-799 1807.49,-799 1862.95,-688.35 1877.93,-654.63"/>
<polygon fill="midnightblue" stroke="midnightblue" points="71.42,-420.19 66.44,-410.84 64.5,-421.25 71.42,-420.19"/>
</g>
<!-- Node4&#45;&gt;Node1 -->
<g id="edge32" class="edge">
<title>Node4&#45;&gt;Node1</title>
<path fill="none" stroke="#9a32cd" stroke-dasharray="5,2" d="M238.51,-499.99C251.24,-507.89 267.88,-516.97 284,-522 467.49,-579.33 952.88,-612.87 1145,-606 1287.94,-600.89 1327.63,-619.24 1466,-583 1478.56,-579.71 1644.67,-499.64 1702.67,-471.6"/>
<polygon fill="#9a32cd" stroke="#9a32cd" points="240.3,-496.98 229.99,-494.51 236.51,-502.86 240.3,-496.98"/>
<text text-anchor="middle" x="1029" y="-620" font-family="Helvetica,sans-Serif" font-size="10.00"> assoc_var</text>
<text text-anchor="middle" x="1029" y="-609" font-family="Helvetica,sans-Serif" font-size="10.00">assoc_var_double</text>
</g>
<!-- Node4&#45;&gt;Node2 -->
<g id="edge3" class="edge">
<title>Node4&#45;&gt;Node2</title>
<path fill="none" stroke="#9a32cd" stroke-dasharray="5,2" d="M231.41,-467.24C264.1,-427.77 343.42,-329.08 397,-238 406.68,-221.55 400.04,-210.86 415,-199 448.28,-172.6 747.02,-122 789.5,-122 789.5,-122 789.5,-122 1117,-122 1340.52,-122 1394.48,-78 1618,-78 1618,-78 1618,-78 1884,-78 1933.45,-78 1987.5,-103.83 2013.99,-118.36"/>
<polygon fill="#9a32cd" stroke="#9a32cd" points="228.54,-465.22 224.83,-475.15 233.92,-469.7 228.54,-465.22"/>
<text text-anchor="middle" x="1216.5" y="-135" font-family="Helvetica,sans-Serif" font-size="10.00"> n_cond</text>
<text text-anchor="middle" x="1216.5" y="-124" font-family="Helvetica,sans-Serif" font-size="10.00">p_cmp_used</text>
</g>
<!-- Node4&#45;&gt;Node10 -->
<g id="edge21" class="edge">
<title>Node4&#45;&gt;Node10</title>
<path fill="none" stroke="#9a32cd" stroke-dasharray="5,2" d="M248.21,-471.64C259.44,-467.1 272.2,-462.12 284,-458 337.19,-439.4 400,-421.24 438.28,-410.59"/>
<polygon fill="#9a32cd" stroke="#9a32cd" points="246.74,-468.47 238.81,-475.5 249.39,-474.94 246.74,-468.47"/>
<text text-anchor="middle" x="340.5" y="-461" font-family="Helvetica,sans-Serif" font-size="10.00"> bases_1d</text>
</g>
<!-- Node4&#45;&gt;Node16 -->
<g id="edge44" class="edge">
<title>Node4&#45;&gt;Node16</title>
<path fill="none" stroke="#9a32cd" stroke-dasharray="5,2" d="M268.47,-496.61C320.17,-507.13 401.91,-521 473.5,-521 473.5,-521 473.5,-521 1030,-521 1089.49,-521 1103.83,-512.17 1163,-506 1221.73,-499.88 1289.83,-493.5 1331.91,-489.63"/>
<polygon fill="#9a32cd" stroke="#9a32cd" points="269.04,-493.15 258.54,-494.55 267.62,-500.01 269.04,-493.15"/>
<text text-anchor="middle" x="870.5" y="-535" font-family="Helvetica,sans-Serif" font-size="10.00"> give_indices</text>
<text text-anchor="middle" x="870.5" y="-524" font-family="Helvetica,sans-Serif" font-size="10.00">type_indice</text>
</g>
<!-- Node4&#45;&gt;Node18 -->
<g id="edge48" class="edge">
<title>Node4&#45;&gt;Node18</title>
<path fill="none" stroke="#9a32cd" stroke-dasharray="5,2" d="M276.12,-482.79C456.2,-476.12 992.62,-456.25 1162.96,-449.95"/>
<polygon fill="#9a32cd" stroke="#9a32cd" points="275.9,-479.3 266.04,-483.17 276.16,-486.29 275.9,-479.3"/>
<text text-anchor="middle" x="790.5" y="-467" font-family="Helvetica,sans-Serif" font-size="10.00"> basis</text>
</g>
<!-- Node5&#45;&gt;Node2 -->
<g id="edge5" class="edge">
<title>Node5&#45;&gt;Node2</title>
<path fill="none" stroke="#9a32cd" stroke-dasharray="5,2" d="M1902.51,-347.58C1921.2,-330.25 1949.95,-301.41 1969,-272 1999.15,-225.45 2020.3,-161.65 2027.65,-137.65"/>
<polygon fill="#9a32cd" stroke="#9a32cd" points="1899.97,-345.16 1894.94,-354.49 1904.69,-350.34 1899.97,-345.16"/>
<text text-anchor="middle" x="1956.5" y="-307" font-family="Helvetica,sans-Serif" font-size="10.00"> parts</text>
</g>
<!-- Node5&#45;&gt;Node5 -->
<g id="edge7" class="edge">
<title>Node5&#45;&gt;Node5</title>
<path fill="none" stroke="#9a32cd" stroke-dasharray="5,2" d="M1870.11,-383.77C1871.12,-388.5 1875.42,-392 1883,-392 1895.44,-392 1899.04,-382.57 1893.79,-373.76"/>
<polygon fill="#9a32cd" stroke="#9a32cd" points="1873.58,-384.26 1872.21,-373.76 1866.73,-382.82 1873.58,-384.26"/>
<text text-anchor="middle" x="1883" y="-395" font-family="Helvetica,sans-Serif" font-size="10.00"> parts</text>
</g>
<!-- Node5&#45;&gt;Node11 -->
<g id="edge25" class="edge">
<title>Node5&#45;&gt;Node11</title>
<path fill="none" stroke="#9a32cd" stroke-dasharray="5,2" d="M1902.04,-380.5C1933.01,-408.83 1995.34,-465.84 2020.06,-488.45"/>
<polygon fill="#9a32cd" stroke="#9a32cd" points="1904.28,-377.8 1894.54,-373.64 1899.55,-382.97 1904.28,-377.8"/>
<text text-anchor="middle" x="1956.5" y="-442" font-family="Helvetica,sans-Serif" font-size="10.00"> parts</text>
</g>
<!-- Node21 -->
<g id="node21" class="node">
<title>Node21</title>
<g id="a_node21"><a xlink:href="classKadath_1_1Ope__def.html" target="_top" xlink:title=" ">
<polygon fill="none" stroke="black" points="1987,-429.5 1987,-448.5 2076,-448.5 2076,-429.5 1987,-429.5"/>
<text text-anchor="middle" x="2031.5" y="-436.5" font-family="Helvetica,sans-Serif" font-size="10.00">Kadath::Ope_def</text>
</a>
</g>
</g>
<!-- Node5&#45;&gt;Node21 -->
<g id="edge58" class="edge">
<title>Node5&#45;&gt;Node21</title>
<path fill="none" stroke="midnightblue" d="M1912.13,-378.4C1941.42,-393.4 1986.48,-416.47 2011.72,-429.39"/>
<polygon fill="midnightblue" stroke="midnightblue" points="1913.35,-375.09 1902.85,-373.65 1910.16,-381.32 1913.35,-375.09"/>
</g>
<!-- Node6&#45;&gt;Node2 -->
<g id="edge9" class="edge">
<title>Node6&#45;&gt;Node2</title>
<path fill="none" stroke="#9a32cd" stroke-dasharray="5,2" d="M900,-280.28C930.81,-266.72 981.75,-248 1028,-248 1028,-248 1028,-248 1302,-248 1438.35,-248 1851.21,-165.12 1986.82,-137.12"/>
<polygon fill="#9a32cd" stroke="#9a32cd" points="898.4,-277.16 890.73,-284.47 901.28,-283.54 898.4,-277.16"/>
<text text-anchor="middle" x="1449" y="-239" font-family="Helvetica,sans-Serif" font-size="10.00"> dom</text>
</g>
<!-- Node6&#45;&gt;Node9 -->
<g id="edge22" class="edge">
<title>Node6&#45;&gt;Node9</title>
<path fill="none" stroke="#9a32cd" stroke-dasharray="5,2" d="M824.94,-306.48C807.8,-311.79 788.23,-318.5 771,-326 762.61,-329.65 761.07,-331.68 753,-336 742.74,-341.49 731.21,-347.44 721.76,-352.27"/>
<polygon fill="#9a32cd" stroke="#9a32cd" points="826.15,-309.77 834.71,-303.51 824.12,-303.07 826.15,-309.77"/>
<text text-anchor="middle" x="790.5" y="-329" font-family="Helvetica,sans-Serif" font-size="10.00"> zone</text>
</g>
<!-- Node6&#45;&gt;Node12 -->
<g id="edge28" class="edge">
<title>Node6&#45;&gt;Node12</title>
<path fill="none" stroke="#9a32cd" stroke-dasharray="5,2" d="M882.48,-312.59C913.23,-364.66 999.46,-510.67 1022.36,-549.45"/>
<polygon fill="#9a32cd" stroke="#9a32cd" points="885.35,-310.58 877.26,-303.75 879.33,-314.14 885.35,-310.58"/>
<text text-anchor="middle" x="951" y="-461" font-family="Helvetica,sans-Serif" font-size="10.00"> domains</text>
</g>
<!-- Node7&#45;&gt;Node6 -->
<g id="edge11" class="edge">
<title>Node7&#45;&gt;Node6</title>
<path fill="none" stroke="#9a32cd" stroke-dasharray="5,2" d="M273.39,-252.33C353.54,-247.91 504.21,-242.31 632,-253 632.62,-253.05 809.38,-282.89 810,-283 815.79,-284.02 821.9,-285.13 827.9,-286.22"/>
<polygon fill="#9a32cd" stroke="#9a32cd" points="272.81,-248.86 263.03,-252.92 273.21,-255.85 272.81,-248.86"/>
<text text-anchor="middle" x="592" y="-267" font-family="Helvetica,sans-Serif" font-size="10.00"> nbr_coefs</text>
<text text-anchor="middle" x="592" y="-256" font-family="Helvetica,sans-Serif" font-size="10.00">nbr_points</text>
</g>
<!-- Node7&#45;&gt;Node13 -->
<g id="edge31" class="edge">
<title>Node7&#45;&gt;Node13</title>
<path fill="none" stroke="#9a32cd" stroke-dasharray="5,2" d="M246.1,-242.17C284.76,-224.21 354.63,-192.06 415,-166 426.29,-161.13 438.9,-155.92 449.51,-151.61"/>
<polygon fill="#9a32cd" stroke="#9a32cd" points="244.55,-239.03 236.97,-246.42 247.51,-245.38 244.55,-239.03"/>
<text text-anchor="middle" x="340.5" y="-226" font-family="Helvetica,sans-Serif" font-size="10.00"> sizes</text>
</g>
<!-- Node8&#45;&gt;Node1 -->
<g id="edge35" class="edge">
<title>Node8&#45;&gt;Node1</title>
<path fill="none" stroke="#9a32cd" stroke-dasharray="5,2" d="M544.22,-207.88C684.09,-189.77 1010.61,-160.18 1270,-234 1455.29,-286.73 1654.71,-416.1 1708.49,-452.39"/>
<polygon fill="#9a32cd" stroke="#9a32cd" points="543.53,-204.44 534.07,-209.22 544.44,-211.38 543.53,-204.44"/>
<text text-anchor="middle" x="1116" y="-209" font-family="Helvetica,sans-Serif" font-size="10.00"> val_cst_hard</text>
</g>
<!-- Node8&#45;&gt;Node6 -->
<g id="edge13" class="edge">
<title>Node8&#45;&gt;Node6</title>
<path fill="none" stroke="#9a32cd" stroke-dasharray="5,2" d="M544.58,-217.82C613.57,-219.57 721.76,-227.62 810,-258 827.58,-264.05 845.54,-275.85 857.06,-284.29"/>
<polygon fill="#9a32cd" stroke="#9a32cd" points="544.35,-214.31 534.27,-217.6 544.2,-221.31 544.35,-214.31"/>
<text text-anchor="middle" x="701.5" y="-244" font-family="Helvetica,sans-Serif" font-size="10.00"> coloc</text>
</g>
<!-- Node8&#45;&gt;Node9 -->
<g id="edge17" class="edge">
<title>Node8&#45;&gt;Node9</title>
<path fill="none" stroke="#9a32cd" stroke-dasharray="5,2" d="M494.08,-234.24C509.18,-247.08 531.3,-265.1 552,-279 596.38,-308.8 652.24,-337.95 681.16,-352.48"/>
<polygon fill="#9a32cd" stroke="#9a32cd" points="496.33,-231.56 486.47,-227.69 491.77,-236.87 496.33,-231.56"/>
<text text-anchor="middle" x="592" y="-340" font-family="Helvetica,sans-Serif" font-size="10.00"> c</text>
<text text-anchor="middle" x="592" y="-329" font-family="Helvetica,sans-Serif" font-size="10.00">cf</text>
</g>
<!-- Node9&#45;&gt;Node6 -->
<g id="edge15" class="edge">
<title>Node9&#45;&gt;Node6</title>
<path fill="none" stroke="#9a32cd" stroke-dasharray="5,2" d="M763.31,-353.8C778.97,-350.4 795.48,-345.64 810,-339 829.31,-330.16 848.3,-314.18 859.45,-303.83"/>
<polygon fill="#9a32cd" stroke="#9a32cd" points="762.3,-350.43 753.18,-355.84 763.68,-357.3 762.3,-350.43"/>
<text text-anchor="middle" x="790.5" y="-387" font-family="Helvetica,sans-Serif" font-size="10.00"> absol</text>
<text text-anchor="middle" x="790.5" y="-376" font-family="Helvetica,sans-Serif" font-size="10.00">cart</text>
<text text-anchor="middle" x="790.5" y="-365" font-family="Helvetica,sans-Serif" font-size="10.00">cart_surr</text>
<text text-anchor="middle" x="790.5" y="-354" font-family="Helvetica,sans-Serif" font-size="10.00">radius</text>
</g>
<!-- Node9&#45;&gt;Node9 -->
<g id="edge18" class="edge">
<title>Node9&#45;&gt;Node9</title>
<path fill="none" stroke="#9a32cd" stroke-dasharray="5,2" d="M685.2,-381.4C686.29,-386.31 691.72,-390 701.5,-390 717.14,-390 721.66,-380.57 715.06,-371.76"/>
<polygon fill="#9a32cd" stroke="#9a32cd" points="688.58,-382.33 687.94,-371.76 681.84,-380.42 688.58,-382.33"/>
<text text-anchor="middle" x="701.5" y="-404" font-family="Helvetica,sans-Serif" font-size="10.00"> p_der_abs</text>
<text text-anchor="middle" x="701.5" y="-393" font-family="Helvetica,sans-Serif" font-size="10.00">p_der_var</text>
</g>
<!-- Node17 -->
<g id="node17" class="node">
<title>Node17</title>
<g id="a_node17"><a xlink:href="classKadath_1_1Scalar.html" target="_top" xlink:title=" ">
<polygon fill="none" stroke="black" points="1489,-401.5 1489,-420.5 1569,-420.5 1569,-401.5 1489,-401.5"/>
<text text-anchor="middle" x="1529" y="-408.5" font-family="Helvetica,sans-Serif" font-size="10.00">Kadath::Scalar</text>
</a>
</g>
</g>
<!-- Node9&#45;&gt;Node17 -->
<g id="edge43" class="edge">
<title>Node9&#45;&gt;Node17</title>
<path fill="none" stroke="#9a32cd" stroke-dasharray="5,2" d="M724.19,-377.33C737.12,-385.52 754.23,-394.76 771,-399 787.8,-403.25 792.69,-399.83 810,-399 907.23,-394.33 930.66,-378 1028,-378 1028,-378 1028,-378 1374,-378 1419.12,-378 1470.05,-391.71 1500.56,-401.46"/>
<polygon fill="#9a32cd" stroke="#9a32cd" points="725.85,-374.23 715.58,-371.64 721.99,-380.07 725.85,-374.23"/>
<text text-anchor="middle" x="1116" y="-381" font-family="Helvetica,sans-Serif" font-size="10.00"> val_zones</text>
</g>
<!-- Node10&#45;&gt;Node9 -->
<g id="edge19" class="edge">
<title>Node10&#45;&gt;Node9</title>
<path fill="none" stroke="#9a32cd" stroke-dasharray="5,2" d="M541.78,-391.06C569.68,-386.71 602.47,-381.37 632,-376 639.52,-374.63 647.49,-373.09 655.23,-371.54"/>
<polygon fill="#9a32cd" stroke="#9a32cd" points="541.08,-387.63 531.74,-392.62 542.15,-394.54 541.08,-387.63"/>
<text text-anchor="middle" x="592" y="-391" font-family="Helvetica,sans-Serif" font-size="10.00"> base</text>
</g>
<!-- Node11&#45;&gt;Node1 -->
<g id="edge23" class="edge">
<title>Node11&#45;&gt;Node1</title>
<path fill="none" stroke="#9a32cd" stroke-dasharray="5,2" d="M1981.92,-492.28C1927.95,-485.94 1840.85,-475.69 1783.14,-468.9"/>
<polygon fill="#9a32cd" stroke="#9a32cd" points="1981.58,-495.77 1991.92,-493.46 1982.4,-488.82 1981.58,-495.77"/>
<text text-anchor="middle" x="1883" y="-488" font-family="Helvetica,sans-Serif" font-size="10.00"> eq_int</text>
</g>
<!-- Node12&#45;&gt;Node1 -->
<g id="edge26" class="edge">
<title>Node12&#45;&gt;Node1</title>
<path fill="none" stroke="#9a32cd" stroke-dasharray="5,2" d="M1079.14,-557.61C1099.52,-556.95 1123.41,-556.07 1145,-555 1200.6,-552.25 1214.73,-553.66 1270,-547 1406.24,-530.59 1439.26,-519.02 1574,-493 1609.3,-486.18 1649.17,-477.82 1678.71,-471.5"/>
<polygon fill="#9a32cd" stroke="#9a32cd" points="1079.02,-554.11 1069.13,-557.92 1079.24,-561.1 1079.02,-554.11"/>
<text text-anchor="middle" x="1373" y="-541" font-family="Helvetica,sans-Serif" font-size="10.00"> espace</text>
</g>
<!-- Node12&#45;&gt;Node16 -->
<g id="edge40" class="edge">
<title>Node12&#45;&gt;Node16</title>
<path fill="none" stroke="#9a32cd" stroke-dasharray="5,2" d="M1079.26,-549.27C1135.97,-537.94 1231.9,-518.43 1314,-500 1320.27,-498.59 1326.9,-497.05 1333.35,-495.51"/>
<polygon fill="#9a32cd" stroke="#9a32cd" points="1078.26,-545.9 1069.13,-551.28 1079.62,-552.76 1078.26,-545.9"/>
<text text-anchor="middle" x="1216.5" y="-535" font-family="Helvetica,sans-Serif" font-size="10.00"> espace</text>
</g>
<!-- Node12&#45;&gt;Node18 -->
<g id="edge47" class="edge">
<title>Node12&#45;&gt;Node18</title>
<path fill="none" stroke="#9a32cd" stroke-dasharray="5,2" d="M1052.38,-543.55C1062.79,-536.5 1075.41,-528.14 1087,-521 1125.88,-497.04 1172.82,-471.11 1197.81,-457.53"/>
<polygon fill="#9a32cd" stroke="#9a32cd" points="1050.16,-540.82 1043.87,-549.35 1054.11,-546.6 1050.16,-540.82"/>
<text text-anchor="middle" x="1116" y="-524" font-family="Helvetica,sans-Serif" font-size="10.00"> space</text>
</g>
<!-- Node12&#45;&gt;Node20 -->
<g id="edge53" class="edge">
<title>Node12&#45;&gt;Node20</title>
<path fill="none" stroke="#9a32cd" stroke-dasharray="5,2" d="M1063.06,-572.3C1155.87,-608.82 1427.45,-710.19 1664,-744 1716.36,-751.48 1734.14,-764.24 1783,-744 1827.69,-725.49 1862.72,-675.93 1876.11,-654.79"/>
<polygon fill="#9a32cd" stroke="#9a32cd" points="1064.23,-569 1053.64,-568.57 1061.65,-575.51 1064.23,-569"/>
<text text-anchor="middle" x="1449" y="-706" font-family="Helvetica,sans-Serif" font-size="10.00"> espace</text>
</g>
<!-- Node13&#45;&gt;Node1 -->
<g id="edge29" class="edge">
<title>Node13&#45;&gt;Node1</title>
<path fill="none" stroke="#9a32cd" stroke-dasharray="5,2" d="M522.11,-142.14C694.27,-143.26 1293.24,-152.6 1466,-228 1587.27,-280.92 1689.15,-415.12 1715.74,-452.31"/>
<polygon fill="#9a32cd" stroke="#9a32cd" points="522.13,-138.64 512.1,-142.08 522.08,-145.64 522.13,-138.64"/>
<text text-anchor="middle" x="1116" y="-171" font-family="Helvetica,sans-Serif" font-size="10.00"> which_coef</text>
</g>
<!-- Node14&#45;&gt;Node1 -->
<g id="edge33" class="edge">
<title>Node14&#45;&gt;Node1</title>
<path fill="none" stroke="#9a32cd" stroke-dasharray="5,2" d="M642.34,-80.27C682.07,-78.3 739.36,-76 789.5,-76 789.5,-76 789.5,-76 1117,-76 1356.44,-76 1472.31,-13.19 1646,-178 1687.67,-217.54 1715.19,-406.96 1721.24,-452.25"/>
<polygon fill="#9a32cd" stroke="#9a32cd" points="641.94,-76.78 632.13,-80.79 642.3,-83.78 641.94,-76.78"/>
<text text-anchor="middle" x="1116" y="-90" font-family="Helvetica,sans-Serif" font-size="10.00"> paruser</text>
<text text-anchor="middle" x="1116" y="-79" font-family="Helvetica,sans-Serif" font-size="10.00">paruser_bin</text>
</g>
<!-- Node15&#45;&gt;Node1 -->
<g id="edge36" class="edge">
<title>Node15&#45;&gt;Node1</title>
<path fill="none" stroke="#9a32cd" stroke-dasharray="5,2" d="M1546.05,-619.44C1554.92,-609.24 1565.76,-595.9 1574,-583 1583.84,-567.59 1578.75,-558.6 1592,-546 1610.9,-528.02 1623.6,-536.36 1646,-523 1671.67,-507.68 1698.2,-484.59 1712.28,-471.66"/>
<polygon fill="#9a32cd" stroke="#9a32cd" points="1543.2,-617.38 1539.18,-627.18 1548.43,-622.03 1543.2,-617.38"/>
<text text-anchor="middle" x="1619" y="-615" font-family="Helvetica,sans-Serif" font-size="10.00"> cst</text>
<text text-anchor="middle" x="1619" y="-604" font-family="Helvetica,sans-Serif" font-size="10.00">cst_hard</text>
<text text-anchor="middle" x="1619" y="-593" font-family="Helvetica,sans-Serif" font-size="10.00">opeuser</text>
<text text-anchor="middle" x="1619" y="-582" font-family="Helvetica,sans-Serif" font-size="10.00">opeuser_bin</text>
<text text-anchor="middle" x="1619" y="-571" font-family="Helvetica,sans-Serif" font-size="10.00">results</text>
<text text-anchor="middle" x="1619" y="-560" font-family="Helvetica,sans-Serif" font-size="10.00">term</text>
<text text-anchor="middle" x="1619" y="-549" font-family="Helvetica,sans-Serif" font-size="10.00">term_double</text>
</g>
<!-- Node15&#45;&gt;Node20 -->
<g id="edge55" class="edge">
<title>Node15&#45;&gt;Node20</title>
<path fill="none" stroke="#9a32cd" stroke-dasharray="5,2" d="M1584.3,-647.19C1586.9,-647.51 1589.47,-647.78 1592,-648 1681.78,-655.9 1787.79,-651.29 1843.44,-647.8"/>
<polygon fill="#9a32cd" stroke="#9a32cd" points="1584.62,-643.71 1574.24,-645.82 1583.68,-650.64 1584.62,-643.71"/>
<text text-anchor="middle" x="1723.5" y="-732" font-family="Helvetica,sans-Serif" font-size="10.00"> p_christo</text>
<text text-anchor="middle" x="1723.5" y="-721" font-family="Helvetica,sans-Serif" font-size="10.00">p_det_cov</text>
<text text-anchor="middle" x="1723.5" y="-710" font-family="Helvetica,sans-Serif" font-size="10.00">p_dirac</text>
<text text-anchor="middle" x="1723.5" y="-699" font-family="Helvetica,sans-Serif" font-size="10.00">p_met_con</text>
<text text-anchor="middle" x="1723.5" y="-688" font-family="Helvetica,sans-Serif" font-size="10.00">p_met_cov</text>
<text text-anchor="middle" x="1723.5" y="-677" font-family="Helvetica,sans-Serif" font-size="10.00">p_ricci_scalar</text>
<text text-anchor="middle" x="1723.5" y="-666" font-family="Helvetica,sans-Serif" font-size="10.00">p_ricci_tensor</text>
<text text-anchor="middle" x="1723.5" y="-655" font-family="Helvetica,sans-Serif" font-size="10.00">p_riemann</text>
</g>
<!-- Node15&#45;&gt;Node21 -->
<g id="edge59" class="edge">
<title>Node15&#45;&gt;Node21</title>
<path fill="none" stroke="#9a32cd" stroke-dasharray="5,2" d="M1584,-632.02C1603.61,-629.81 1625.89,-626.82 1646,-623 1725.43,-607.9 1748.18,-609.98 1822,-577 1903.64,-540.52 1988.9,-473.39 2019.09,-448.56"/>
<polygon fill="#9a32cd" stroke="#9a32cd" points="1583.57,-628.55 1574.01,-633.11 1584.33,-635.51 1583.57,-628.55"/>
<text text-anchor="middle" x="1811.5" y="-588" font-family="Helvetica,sans-Serif" font-size="10.00"> res</text>
</g>
<!-- Node16&#45;&gt;Node1 -->
<g id="edge56" class="edge">
<title>Node16&#45;&gt;Node1</title>
<path fill="none" stroke="#9a32cd" stroke-dasharray="5,2" d="M1424.48,-482.52C1487.91,-478.16 1596.59,-470.67 1663.71,-466.05"/>
<polygon fill="#9a32cd" stroke="#9a32cd" points="1424.05,-479.04 1414.32,-483.22 1424.53,-486.03 1424.05,-479.04"/>
<text text-anchor="middle" x="1529" y="-481" font-family="Helvetica,sans-Serif" font-size="10.00"> var</text>
</g>
<!-- Node16&#45;&gt;Node15 -->
<g id="edge38" class="edge">
<title>Node16&#45;&gt;Node15</title>
<path fill="none" stroke="#9a32cd" stroke-dasharray="5,2" d="M1391.53,-503.19C1423.99,-535.01 1492.45,-602.15 1518.06,-627.25"/>
<polygon fill="#9a32cd" stroke="#9a32cd" points="1393.7,-500.41 1384.1,-495.91 1388.79,-505.41 1393.7,-500.41"/>
<text text-anchor="middle" x="1449" y="-589" font-family="Helvetica,sans-Serif" font-size="10.00"> der_t</text>
<text text-anchor="middle" x="1449" y="-578" font-family="Helvetica,sans-Serif" font-size="10.00">val_t</text>
</g>
<!-- Node16&#45;&gt;Node17 -->
<g id="edge42" class="edge">
<title>Node16&#45;&gt;Node17</title>
<path fill="none" stroke="midnightblue" d="M1397,-471.05C1407.47,-464.52 1420.15,-457 1432,-451 1455.19,-439.25 1482.67,-428.06 1502.27,-420.52"/>
<polygon fill="midnightblue" stroke="midnightblue" points="1395.02,-468.16 1388.44,-476.46 1398.76,-474.07 1395.02,-468.16"/>
</g>
<!-- Node17&#45;&gt;Node16 -->
<g id="edge41" class="edge">
<title>Node17&#45;&gt;Node16</title>
<path fill="none" stroke="#9a32cd" stroke-dasharray="5,2" d="M1478.78,-403.38C1463.14,-403.05 1446.22,-404.98 1432,-412 1404.33,-425.65 1385.9,-459.48 1378.15,-476.25"/>
<polygon fill="#9a32cd" stroke="#9a32cd" points="1478.66,-406.88 1488.83,-403.9 1479.02,-399.89 1478.66,-406.88"/>
<text text-anchor="middle" x="1449" y="-415" font-family="Helvetica,sans-Serif" font-size="10.00"> cmp</text>
</g>
<!-- Node18&#45;&gt;Node16 -->
<g id="edge45" class="edge">
<title>Node18&#45;&gt;Node16</title>
<path fill="none" stroke="#9a32cd" stroke-dasharray="5,2" d="M1280.03,-453.89C1291.44,-455.68 1303.16,-458 1314,-461 1327.63,-464.78 1342.25,-471.1 1353.4,-476.44"/>
<polygon fill="#9a32cd" stroke="#9a32cd" points="1280.51,-450.42 1270.11,-452.45 1279.51,-457.35 1280.51,-450.42"/>
<text text-anchor="middle" x="1301" y="-464" font-family="Helvetica,sans-Serif" font-size="10.00"> basis</text>
</g>
<!-- Node19&#45;&gt;Node16 -->
<g id="edge49" class="edge">
<title>Node19&#45;&gt;Node16</title>
<path fill="none" stroke="#9a32cd" stroke-dasharray="5,2" d="M407.58,-693C457.87,-693 528.8,-693 591,-693 591,-693 591,-693 952,-693 1094.05,-693 1154.98,-744.35 1270,-661 1297.55,-641.03 1311.83,-548.4 1332,-521 1339.22,-511.19 1349.63,-502.19 1358.02,-495.77"/>
<polygon fill="#9a32cd" stroke="#9a32cd" points="407.49,-689.5 397.49,-693 407.49,-696.5 407.49,-689.5"/>
<text text-anchor="middle" x="870.5" y="-696" font-family="Helvetica,sans-Serif" font-size="10.00"> parameters</text>
</g>
<!-- Node20&#45;&gt;Node1 -->
<g id="edge51" class="edge">
<title>Node20&#45;&gt;Node1</title>
<path fill="none" stroke="#9a32cd" stroke-dasharray="5,2" d="M1869.26,-627.15C1857.45,-610.86 1839.16,-586.32 1822,-566 1813.82,-556.31 1756.22,-495.45 1733.59,-471.58"/>
<polygon fill="#9a32cd" stroke="#9a32cd" points="1866.42,-629.2 1875.11,-635.27 1872.1,-625.11 1866.42,-629.2"/>
<text text-anchor="middle" x="1811.5" y="-569" font-family="Helvetica,sans-Serif" font-size="10.00"> met</text>
</g>
<!-- Node21&#45;&gt;Node1 -->
<g id="edge57" class="edge">
<title>Node21&#45;&gt;Node1</title>
<path fill="none" stroke="#9a32cd" stroke-dasharray="5,2" d="M1976.79,-443.04C1922.57,-447.11 1839.06,-453.39 1783.14,-457.59"/>
<polygon fill="#9a32cd" stroke="#9a32cd" points="1977.19,-446.52 1986.9,-442.28 1976.66,-439.54 1977.19,-446.52"/>
<text text-anchor="middle" x="1883" y="-456" font-family="Helvetica,sans-Serif" font-size="10.00"> def</text>
</g>
</g>
</svg>
