<?xml version="1.0" encoding="UTF-8" standalone="no"?>
<!DOCTYPE svg PUBLIC "-//W3C//DTD SVG 1.1//EN"
 "http://www.w3.org/Graphics/SVG/1.1/DTD/svg11.dtd">
<!-- Generated by graphviz version 2.47.1 (20210515.0534)
 -->
<!-- Title: Kadath::FUKA_Solvers::ns_3d_xcts_solver&lt; eos_t, config_t, space_t &gt; Pages: 1 -->
<svg width="151pt" height="195pt"
 viewBox="0.00 0.00 151.00 195.00" xmlns="http://www.w3.org/2000/svg" xmlns:xlink="http://www.w3.org/1999/xlink">
<g id="graph0" class="graph" transform="scale(1 1) rotate(0) translate(4 191)">
<title>Kadath::FUKA_Solvers::ns_3d_xcts_solver&lt; eos_t, config_t, space_t &gt;</title>
<!-- Node1 -->
<g id="node1" class="node">
<title>Node1</title>
<g id="a_node1"><a xlink:title=" ">
<polygon fill="#bfbfbf" stroke="black" points="6.5,-0.5 6.5,-41.5 136.5,-41.5 136.5,-0.5 6.5,-0.5"/>
<text text-anchor="start" x="14.5" y="-29.5" font-family="Helvetica,sans-Serif" font-size="10.00">Kadath::FUKA_Solvers</text>
<text text-anchor="start" x="14.5" y="-18.5" font-family="Helvetica,sans-Serif" font-size="10.00">::ns_3d_xcts_solver&lt;</text>
<text text-anchor="middle" x="71.5" y="-7.5" font-family="Helvetica,sans-Serif" font-size="10.00"> eos_t, config_t, space_t &gt;</text>
</a>
</g>
</g>
<!-- Node2 -->
<g id="node2" class="node">
<title>Node2</title>
<g id="a_node2"><a xlink:href="classKadath_1_1FUKA__Solvers_1_1XCTS__Solver.html" target="_top" xlink:title=" ">
<polygon fill="none" stroke="black" points="0,-78.5 0,-119.5 143,-119.5 143,-78.5 0,-78.5"/>
<text text-anchor="start" x="8" y="-107.5" font-family="Helvetica,sans-Serif" font-size="10.00">Kadath::FUKA_Solvers</text>
<text text-anchor="start" x="8" y="-96.5" font-family="Helvetica,sans-Serif" font-size="10.00">::XCTS_Solver&lt; config</text>
<text text-anchor="middle" x="71.5" y="-85.5" font-family="Helvetica,sans-Serif" font-size="10.00">_t, Space_spheric_adapted &gt;</text>
</a>
</g>
</g>
<!-- Node2&#45;&gt;Node1 -->
<g id="edge1" class="edge">
<title>Node2&#45;&gt;Node1</title>
<path fill="none" stroke="midnightblue" d="M71.5,-68.3C71.5,-59.3 71.5,-49.65 71.5,-41.51"/>
<polygon fill="midnightblue" stroke="midnightblue" points="68,-68.43 71.5,-78.43 75,-68.43 68,-68.43"/>
</g>
<!-- Node3 -->
<g id="node3" class="node">
<title>Node3</title>
<g id="a_node3"><a xlink:href="classKadath_1_1FUKA__Solvers_1_1Solver.html" target="_top" xlink:title="Solver base for FUKA solvers.">
<polygon fill="none" stroke="black" points="2,-156.5 2,-186.5 141,-186.5 141,-156.5 2,-156.5"/>
<text text-anchor="start" x="10" y="-174.5" font-family="Helvetica,sans-Serif" font-size="10.00">Kadath::FUKA_Solvers</text>
<text text-anchor="middle" x="71.5" y="-163.5" font-family="Helvetica,sans-Serif" font-size="10.00">::Solver&lt; config_t, space_t &gt;</text>
</a>
</g>
</g>
<!-- Node3&#45;&gt;Node2 -->
<g id="edge2" class="edge">
<title>Node3&#45;&gt;Node2</title>
<path fill="none" stroke="midnightblue" d="M71.5,-145.98C71.5,-137.35 71.5,-127.76 71.5,-119.59"/>
<polygon fill="midnightblue" stroke="midnightblue" points="68,-146.23 71.5,-156.23 75,-146.23 68,-146.23"/>
</g>
</g>
</svg>
