<?xml version="1.0" encoding="UTF-8" standalone="no"?>
<!DOCTYPE svg PUBLIC "-//W3C//DTD SVG 1.1//EN"
 "http://www.w3.org/Graphics/SVG/1.1/DTD/svg11.dtd">
<!-- Generated by graphviz version 2.47.1 (20210515.0534)
 -->
<!-- Title: Kadath::Base_tensor Pages: 1 -->
<svg width="541pt" height="334pt"
 viewBox="0.00 0.00 540.50 334.00" xmlns="http://www.w3.org/2000/svg" xmlns:xlink="http://www.w3.org/1999/xlink">
<g id="graph0" class="graph" transform="scale(1 1) rotate(0) translate(4 330)">
<title>Kadath::Base_tensor</title>
<!-- Node1 -->
<g id="node1" class="node">
<title>Node1</title>
<g id="a_node1"><a xlink:title=" ">
<polygon fill="#bfbfbf" stroke="black" points="26.5,-0.5 26.5,-19.5 133.5,-19.5 133.5,-0.5 26.5,-0.5"/>
<text text-anchor="middle" x="80" y="-7.5" font-family="Helvetica,sans-Serif" font-size="10.00">Kadath::Base_tensor</text>
</a>
</g>
</g>
<!-- Node2 -->
<g id="node2" class="node">
<title>Node2</title>
<g id="a_node2"><a xlink:href="structKadath_1_1MemoryMappable.html" target="_top" xlink:title=" ">
<polygon fill="none" stroke="black" points="166,-306.5 166,-325.5 294,-325.5 294,-306.5 166,-306.5"/>
<text text-anchor="middle" x="230" y="-313.5" font-family="Helvetica,sans-Serif" font-size="10.00">Kadath::MemoryMappable</text>
</a>
</g>
</g>
<!-- Node2&#45;&gt;Node1 -->
<g id="edge1" class="edge">
<title>Node2&#45;&gt;Node1</title>
<path fill="none" stroke="midnightblue" d="M155.76,-311.34C88.55,-305.93 0,-292.61 0,-260 0,-260 0,-260 0,-77 0,-48.01 31.64,-29.38 55.13,-19.54"/>
<polygon fill="midnightblue" stroke="midnightblue" points="155.7,-314.84 165.93,-312.11 156.23,-307.86 155.7,-314.84"/>
</g>
<!-- Node3 -->
<g id="node3" class="node">
<title>Node3</title>
<g id="a_node3"><a xlink:href="classKadath_1_1Space.html" target="_top" xlink:title=" ">
<polygon fill="none" stroke="black" points="40,-68.5 40,-87.5 120,-87.5 120,-68.5 40,-68.5"/>
<text text-anchor="middle" x="80" y="-75.5" font-family="Helvetica,sans-Serif" font-size="10.00">Kadath::Space</text>
</a>
</g>
</g>
<!-- Node2&#45;&gt;Node3 -->
<g id="edge3" class="edge">
<title>Node2&#45;&gt;Node3</title>
<path fill="none" stroke="midnightblue" d="M159.55,-304.22C143.16,-300.31 126.1,-295.05 111,-288 98.35,-282.1 92.41,-281.4 86,-269 53.55,-206.27 71.16,-115.65 77.81,-87.6"/>
<polygon fill="midnightblue" stroke="midnightblue" points="159.12,-307.71 169.64,-306.49 160.65,-300.88 159.12,-307.71"/>
</g>
<!-- Node4 -->
<g id="node4" class="node">
<title>Node4</title>
<g id="a_node4"><a xlink:href="classKadath_1_1Domain.html" target="_top" xlink:title=" ">
<polygon fill="none" stroke="black" points="113.5,-170.5 113.5,-189.5 198.5,-189.5 198.5,-170.5 113.5,-170.5"/>
<text text-anchor="middle" x="156" y="-177.5" font-family="Helvetica,sans-Serif" font-size="10.00">Kadath::Domain</text>
</a>
</g>
</g>
<!-- Node2&#45;&gt;Node4 -->
<g id="edge5" class="edge">
<title>Node2&#45;&gt;Node4</title>
<path fill="none" stroke="midnightblue" d="M155.96,-306.78C132.63,-300.3 109.25,-288.91 95,-269 74.34,-240.13 118.46,-205.35 142.2,-189.55"/>
<polygon fill="midnightblue" stroke="midnightblue" points="155.38,-310.25 165.93,-309.27 157.08,-303.46 155.38,-310.25"/>
</g>
<!-- Node5 -->
<g id="node5" class="node">
<title>Node5</title>
<g id="a_node5"><a xlink:href="classKadath_1_1Dim__array.html" target="_top" xlink:title=" ">
<polygon fill="none" stroke="black" points="104.5,-249.5 104.5,-268.5 199.5,-268.5 199.5,-249.5 104.5,-249.5"/>
<text text-anchor="middle" x="152" y="-256.5" font-family="Helvetica,sans-Serif" font-size="10.00">Kadath::Dim_array</text>
</a>
</g>
</g>
<!-- Node2&#45;&gt;Node5 -->
<g id="edge7" class="edge">
<title>Node2&#45;&gt;Node5</title>
<path fill="none" stroke="midnightblue" d="M209.49,-300.54C195.05,-290.35 176.21,-277.07 164.1,-268.53"/>
<polygon fill="midnightblue" stroke="midnightblue" points="207.62,-303.5 217.81,-306.41 211.66,-297.78 207.62,-303.5"/>
</g>
<!-- Node6 -->
<g id="node6" class="node">
<title>Node6</title>
<g id="a_node6"><a xlink:href="classKadath_1_1Array.html" target="_top" xlink:title=" ">
<polygon fill="none" stroke="black" points="217.5,-249.5 217.5,-268.5 336.5,-268.5 336.5,-249.5 217.5,-249.5"/>
<text text-anchor="middle" x="277" y="-256.5" font-family="Helvetica,sans-Serif" font-size="10.00">Kadath::Array&lt; double &gt;</text>
</a>
</g>
</g>
<!-- Node2&#45;&gt;Node6 -->
<g id="edge9" class="edge">
<title>Node2&#45;&gt;Node6</title>
<path fill="none" stroke="midnightblue" d="M244.07,-298.53C252.44,-288.74 262.73,-276.7 269.55,-268.71"/>
<polygon fill="midnightblue" stroke="midnightblue" points="241.18,-296.53 237.34,-306.41 246.5,-301.08 241.18,-296.53"/>
</g>
<!-- Node7 -->
<g id="node7" class="node">
<title>Node7</title>
<g id="a_node7"><a xlink:href="classKadath_1_1Val__domain.html" target="_top" xlink:title=" ">
<polygon fill="none" stroke="black" points="225.5,-68.5 225.5,-87.5 328.5,-87.5 328.5,-68.5 225.5,-68.5"/>
<text text-anchor="middle" x="277" y="-75.5" font-family="Helvetica,sans-Serif" font-size="10.00">Kadath::Val_domain</text>
</a>
</g>
</g>
<!-- Node2&#45;&gt;Node7 -->
<g id="edge11" class="edge">
<title>Node2&#45;&gt;Node7</title>
<path fill="none" stroke="midnightblue" d="M296.76,-303.31C315.84,-296.55 334.55,-285.86 346,-269 388.2,-206.87 311.63,-115.84 285.37,-87.65"/>
<polygon fill="midnightblue" stroke="midnightblue" points="295.54,-300.03 287.09,-306.42 297.68,-306.69 295.54,-300.03"/>
</g>
<!-- Node8 -->
<g id="node8" class="node">
<title>Node8</title>
<g id="a_node8"><a xlink:href="classKadath_1_1Base__spectral.html" target="_top" xlink:title=" ">
<polygon fill="none" stroke="black" points="383,-170.5 383,-189.5 497,-189.5 497,-170.5 383,-170.5"/>
<text text-anchor="middle" x="440" y="-177.5" font-family="Helvetica,sans-Serif" font-size="10.00">Kadath::Base_spectral</text>
</a>
</g>
</g>
<!-- Node2&#45;&gt;Node8 -->
<g id="edge15" class="edge">
<title>Node2&#45;&gt;Node8</title>
<path fill="none" stroke="midnightblue" d="M304.18,-307.45C335.07,-303.12 366.61,-296.77 379,-288 414.43,-262.92 432.03,-210.33 437.79,-189.63"/>
<polygon fill="midnightblue" stroke="midnightblue" points="303.65,-303.99 294.2,-308.79 304.58,-310.93 303.65,-303.99"/>
</g>
<!-- Node9 -->
<g id="node9" class="node">
<title>Node9</title>
<g id="a_node9"><a xlink:href="classKadath_1_1Array.html" target="_top" xlink:title=" ">
<polygon fill="none" stroke="black" points="431.5,-249.5 431.5,-268.5 532.5,-268.5 532.5,-249.5 431.5,-249.5"/>
<text text-anchor="middle" x="482" y="-256.5" font-family="Helvetica,sans-Serif" font-size="10.00">Kadath::Array&lt; int &gt;</text>
</a>
</g>
</g>
<!-- Node2&#45;&gt;Node9 -->
<g id="edge17" class="edge">
<title>Node2&#45;&gt;Node9</title>
<path fill="none" stroke="midnightblue" d="M304.12,-308.84C338.85,-304.8 380.51,-298.3 417,-288 434.03,-283.19 452.47,-274.94 465.34,-268.63"/>
<polygon fill="midnightblue" stroke="midnightblue" points="303.6,-305.37 294.05,-309.96 304.38,-312.33 303.6,-305.37"/>
</g>
<!-- Node3&#45;&gt;Node1 -->
<g id="edge2" class="edge">
<title>Node3&#45;&gt;Node1</title>
<path fill="none" stroke="#9a32cd" stroke-dasharray="5,2" d="M80,-58.04C80,-45.47 80,-29.56 80,-19.84"/>
<polygon fill="#9a32cd" stroke="#9a32cd" points="76.5,-58.37 80,-68.37 83.5,-58.37 76.5,-58.37"/>
<text text-anchor="middle" x="94.5" y="-41" font-family="Helvetica,sans-Serif" font-size="10.00"> space</text>
</g>
<!-- Node4&#45;&gt;Node3 -->
<g id="edge4" class="edge">
<title>Node4&#45;&gt;Node3</title>
<path fill="none" stroke="#9a32cd" stroke-dasharray="5,2" d="M124.12,-165.64C117.45,-161.7 110.96,-156.84 106,-151 89.84,-131.95 83.39,-102.05 81.11,-87.51"/>
<polygon fill="#9a32cd" stroke="#9a32cd" points="122.7,-168.86 133.18,-170.46 125.99,-162.67 122.7,-168.86"/>
<text text-anchor="middle" x="126" y="-126.5" font-family="Helvetica,sans-Serif" font-size="10.00"> domains</text>
</g>
<!-- Node4&#45;&gt;Node7 -->
<g id="edge18" class="edge">
<title>Node4&#45;&gt;Node7</title>
<path fill="none" stroke="#9a32cd" stroke-dasharray="5,2" d="M153.88,-159.81C153.21,-143.7 155.04,-121.13 168,-107 182.53,-91.16 204.7,-83.76 225.26,-80.48"/>
<polygon fill="#9a32cd" stroke="#9a32cd" points="150.42,-160.48 154.68,-170.17 157.4,-159.93 150.42,-160.48"/>
<text text-anchor="middle" x="179.5" y="-126.5" font-family="Helvetica,sans-Serif" font-size="10.00"> zone</text>
</g>
<!-- Node5&#45;&gt;Node4 -->
<g id="edge6" class="edge">
<title>Node5&#45;&gt;Node4</title>
<path fill="none" stroke="#9a32cd" stroke-dasharray="5,2" d="M152.97,-239.31C153.79,-223.59 154.92,-201.81 155.54,-189.81"/>
<polygon fill="#9a32cd" stroke="#9a32cd" points="149.47,-239.3 152.44,-249.47 156.46,-239.66 149.47,-239.3"/>
<text text-anchor="middle" x="178" y="-223" font-family="Helvetica,sans-Serif" font-size="10.00"> nbr_coefs</text>
<text text-anchor="middle" x="178" y="-212" font-family="Helvetica,sans-Serif" font-size="10.00">nbr_points</text>
</g>
<!-- Node6&#45;&gt;Node4 -->
<g id="edge8" class="edge">
<title>Node6&#45;&gt;Node4</title>
<path fill="none" stroke="#9a32cd" stroke-dasharray="5,2" d="M255.67,-243.65C249.63,-239.57 243.05,-235.12 237,-231 222.74,-221.28 219.62,-218.18 205,-209 194.05,-202.12 181.36,-194.89 171.64,-189.5"/>
<polygon fill="#9a32cd" stroke="#9a32cd" points="253.76,-246.59 264.01,-249.27 257.67,-240.78 253.76,-246.59"/>
<text text-anchor="middle" x="250" y="-217.5" font-family="Helvetica,sans-Serif" font-size="10.00"> coloc</text>
</g>
<!-- Node6&#45;&gt;Node7 -->
<g id="edge12" class="edge">
<title>Node6&#45;&gt;Node7</title>
<path fill="none" stroke="#9a32cd" stroke-dasharray="5,2" d="M277,-239.09C277,-200.68 277,-114.89 277,-87.55"/>
<polygon fill="#9a32cd" stroke="#9a32cd" points="273.5,-239.37 277,-249.37 280.5,-239.37 273.5,-239.37"/>
<text text-anchor="middle" x="281.5" y="-183" font-family="Helvetica,sans-Serif" font-size="10.00"> c</text>
<text text-anchor="middle" x="281.5" y="-172" font-family="Helvetica,sans-Serif" font-size="10.00">cf</text>
</g>
<!-- Node7&#45;&gt;Node4 -->
<g id="edge10" class="edge">
<title>Node7&#45;&gt;Node4</title>
<path fill="none" stroke="#9a32cd" stroke-dasharray="5,2" d="M245.91,-92.1C238.25,-96.19 230.41,-101.18 224,-107 206.66,-122.74 211.23,-134.11 195,-151 187.84,-158.45 178.47,-165.26 170.7,-170.29"/>
<polygon fill="#9a32cd" stroke="#9a32cd" points="247.66,-95.14 255.07,-87.56 244.55,-88.87 247.66,-95.14"/>
<text text-anchor="middle" x="243.5" y="-143" font-family="Helvetica,sans-Serif" font-size="10.00"> absol</text>
<text text-anchor="middle" x="243.5" y="-132" font-family="Helvetica,sans-Serif" font-size="10.00">cart</text>
<text text-anchor="middle" x="243.5" y="-121" font-family="Helvetica,sans-Serif" font-size="10.00">cart_surr</text>
<text text-anchor="middle" x="243.5" y="-110" font-family="Helvetica,sans-Serif" font-size="10.00">radius</text>
</g>
<!-- Node7&#45;&gt;Node7 -->
<g id="edge13" class="edge">
<title>Node7&#45;&gt;Node7</title>
<path fill="none" stroke="#9a32cd" stroke-dasharray="5,2" d="M338.46,-82.88C343.42,-81.82 346.5,-80.19 346.5,-78 346.5,-74.58 339,-72.54 328.53,-71.87"/>
<polygon fill="#9a32cd" stroke="#9a32cd" points="338.01,-79.41 328.53,-84.13 338.88,-86.35 338.01,-79.41"/>
<text text-anchor="middle" x="370.5" y="-81" font-family="Helvetica,sans-Serif" font-size="10.00"> p_der_abs</text>
<text text-anchor="middle" x="370.5" y="-70" font-family="Helvetica,sans-Serif" font-size="10.00">p_der_var</text>
</g>
<!-- Node8&#45;&gt;Node7 -->
<g id="edge14" class="edge">
<title>Node8&#45;&gt;Node7</title>
<path fill="none" stroke="#9a32cd" stroke-dasharray="5,2" d="M427.34,-161.93C414.39,-145.61 392.83,-121.41 369,-107 354.29,-98.1 336.52,-91.83 320.54,-87.51"/>
<polygon fill="#9a32cd" stroke="#9a32cd" points="424.74,-164.28 433.61,-170.07 430.28,-160.01 424.74,-164.28"/>
<text text-anchor="middle" x="429" y="-126.5" font-family="Helvetica,sans-Serif" font-size="10.00"> base</text>
</g>
<!-- Node9&#45;&gt;Node1 -->
<g id="edge19" class="edge">
<title>Node9&#45;&gt;Node1</title>
<path fill="none" stroke="#9a32cd" stroke-dasharray="5,2" d="M502.9,-242.68C506.19,-239.23 509.13,-235.3 511,-231 515.98,-219.56 507.25,-171.58 506,-169 478.07,-111.29 461.1,-96.16 404,-67 316.56,-22.35 200.36,-12.42 133.51,-10.71"/>
<polygon fill="#9a32cd" stroke="#9a32cd" points="500.49,-240.13 495.37,-249.41 505.16,-245.35 500.49,-240.13"/>
<text text-anchor="middle" x="509" y="-126.5" font-family="Helvetica,sans-Serif" font-size="10.00"> basis</text>
</g>
<!-- Node9&#45;&gt;Node8 -->
<g id="edge16" class="edge">
<title>Node9&#45;&gt;Node8</title>
<path fill="none" stroke="#9a32cd" stroke-dasharray="5,2" d="M471.36,-240.36C469.54,-237.26 467.69,-234.05 466,-231 458.02,-216.63 449.31,-199.59 444.27,-189.57"/>
<polygon fill="#9a32cd" stroke="#9a32cd" points="468.42,-242.27 476.54,-249.07 474.44,-238.69 468.42,-242.27"/>
<text text-anchor="middle" x="488.5" y="-217.5" font-family="Helvetica,sans-Serif" font-size="10.00"> bases_1d</text>
</g>
</g>
</svg>
