<?xml version="1.0" encoding="UTF-8" standalone="no"?>
<!DOCTYPE svg PUBLIC "-//W3C//DTD SVG 1.1//EN"
 "http://www.w3.org/Graphics/SVG/1.1/DTD/svg11.dtd">
<!-- Generated by graphviz version 2.47.1 (20210515.0534)
 -->
<!-- Title: Kadath::Eq_inside Pages: 1 -->
<svg width="2093pt" height="937pt"
 viewBox="0.00 0.00 2093.00 937.00" xmlns="http://www.w3.org/2000/svg" xmlns:xlink="http://www.w3.org/1999/xlink">
<g id="graph0" class="graph" transform="scale(1 1) rotate(0) translate(4 933)">
<title>Kadath::Eq_inside</title>
<!-- Node1 -->
<g id="node1" class="node">
<title>Node1</title>
<g id="a_node1"><a xlink:title=" ">
<polygon fill="#bfbfbf" stroke="black" points="1178.5,-197.5 1178.5,-216.5 1272.5,-216.5 1272.5,-197.5 1178.5,-197.5"/>
<text text-anchor="middle" x="1225.5" y="-204.5" font-family="Helvetica,sans-Serif" font-size="10.00">Kadath::Eq_inside</text>
</a>
</g>
</g>
<!-- Node2 -->
<g id="node2" class="node">
<title>Node2</title>
<g id="a_node2"><a xlink:href="classKadath_1_1Equation.html" target="_top" xlink:title=" ">
<polygon fill="none" stroke="black" points="989,-194.5 989,-213.5 1078,-213.5 1078,-194.5 989,-194.5"/>
<text text-anchor="middle" x="1033.5" y="-201.5" font-family="Helvetica,sans-Serif" font-size="10.00">Kadath::Equation</text>
</a>
</g>
</g>
<!-- Node2&#45;&gt;Node1 -->
<g id="edge1" class="edge">
<title>Node2&#45;&gt;Node1</title>
<path fill="none" stroke="midnightblue" d="M1088.27,-204.85C1116.71,-205.3 1151.27,-205.84 1178.46,-206.27"/>
<polygon fill="midnightblue" stroke="midnightblue" points="1088.14,-201.35 1078.09,-204.69 1088.03,-208.35 1088.14,-201.35"/>
</g>
<!-- Node6 -->
<g id="node6" class="node">
<title>Node6</title>
<g id="a_node6"><a xlink:href="classKadath_1_1System__of__eqs.html" target="_top" xlink:title=" ">
<polygon fill="none" stroke="black" points="1673,-465.5 1673,-484.5 1792,-484.5 1792,-465.5 1673,-465.5"/>
<text text-anchor="middle" x="1732.5" y="-472.5" font-family="Helvetica,sans-Serif" font-size="10.00">Kadath::System_of_eqs</text>
</a>
</g>
</g>
<!-- Node2&#45;&gt;Node6 -->
<g id="edge9" class="edge">
<title>Node2&#45;&gt;Node6</title>
<path fill="none" stroke="#9a32cd" stroke-dasharray="5,2" d="M1064.4,-217.79C1101.24,-233.5 1166.12,-257 1224.5,-257 1224.5,-257 1224.5,-257 1539,-257 1651.85,-257 1714.38,-423.16 1728.44,-465.35"/>
<polygon fill="#9a32cd" stroke="#9a32cd" points="1065.35,-214.39 1054.79,-213.6 1062.55,-220.81 1065.35,-214.39"/>
<text text-anchor="middle" x="1382" y="-260" font-family="Helvetica,sans-Serif" font-size="10.00"> eq</text>
</g>
<!-- Node3 -->
<g id="node3" class="node">
<title>Node3</title>
<g id="a_node3"><a xlink:href="structKadath_1_1MemoryMappable.html" target="_top" xlink:title=" ">
<polygon fill="none" stroke="black" points="0,-439.5 0,-458.5 128,-458.5 128,-439.5 0,-439.5"/>
<text text-anchor="middle" x="64" y="-446.5" font-family="Helvetica,sans-Serif" font-size="10.00">Kadath::MemoryMappable</text>
</a>
</g>
</g>
<!-- Node3&#45;&gt;Node2 -->
<g id="edge2" class="edge">
<title>Node3&#45;&gt;Node2</title>
<path fill="none" stroke="midnightblue" d="M64.73,-428.92C64.88,-356.64 75.74,-114 214.5,-114 214.5,-114 214.5,-114 791.5,-114 882.61,-114 981.55,-171.15 1017.99,-194.37"/>
<polygon fill="midnightblue" stroke="midnightblue" points="61.23,-429.35 64.78,-439.34 68.23,-429.32 61.23,-429.35"/>
</g>
<!-- Node4 -->
<g id="node4" class="node">
<title>Node4</title>
<g id="a_node4"><a xlink:href="classKadath_1_1Array.html" target="_top" xlink:title=" ">
<polygon fill="none" stroke="black" points="165,-246.5 165,-265.5 266,-265.5 266,-246.5 165,-246.5"/>
<text text-anchor="middle" x="215.5" y="-253.5" font-family="Helvetica,sans-Serif" font-size="10.00">Kadath::Array&lt; int &gt;</text>
</a>
</g>
</g>
<!-- Node3&#45;&gt;Node4 -->
<g id="edge4" class="edge">
<title>Node3&#45;&gt;Node4</title>
<path fill="none" stroke="midnightblue" d="M70.92,-429.5C81.45,-397.52 106.18,-333.48 146,-293 157.94,-280.86 174.72,-271.71 188.69,-265.54"/>
<polygon fill="midnightblue" stroke="midnightblue" points="67.47,-428.79 67.78,-439.38 74.14,-430.9 67.47,-428.79"/>
</g>
<!-- Node5 -->
<g id="node5" class="node">
<title>Node5</title>
<g id="a_node5"><a xlink:href="classKadath_1_1Ope__eq.html" target="_top" xlink:title=" ">
<polygon fill="none" stroke="black" points="1849,-244.5 1849,-263.5 1935,-263.5 1935,-244.5 1849,-244.5"/>
<text text-anchor="middle" x="1892" y="-251.5" font-family="Helvetica,sans-Serif" font-size="10.00">Kadath::Ope_eq</text>
</a>
</g>
</g>
<!-- Node3&#45;&gt;Node5 -->
<g id="edge6" class="edge">
<title>Node3&#45;&gt;Node5</title>
<path fill="none" stroke="midnightblue" d="M65.26,-429.12C67.01,-369.09 79.48,-186.8 165,-72 180.94,-50.6 187.81,-38 214.5,-38 214.5,-38 214.5,-38 1733.5,-38 1837.23,-38 1879.89,-202.64 1889.04,-244.44"/>
<polygon fill="midnightblue" stroke="midnightblue" points="61.76,-429.36 65.04,-439.44 68.75,-429.51 61.76,-429.36"/>
</g>
<!-- Node7 -->
<g id="node7" class="node">
<title>Node7</title>
<g id="a_node7"><a xlink:href="classKadath_1_1Eq__int.html" target="_top" xlink:title=" ">
<polygon fill="none" stroke="black" points="2001,-244.5 2001,-263.5 2080,-263.5 2080,-244.5 2001,-244.5"/>
<text text-anchor="middle" x="2040.5" y="-251.5" font-family="Helvetica,sans-Serif" font-size="10.00">Kadath::Eq_int</text>
</a>
</g>
</g>
<!-- Node3&#45;&gt;Node7 -->
<g id="edge11" class="edge">
<title>Node3&#45;&gt;Node7</title>
<path fill="none" stroke="midnightblue" d="M64.61,-429.21C64.35,-365.38 71.29,-161.68 165,-34 180.79,-12.48 187.81,0 214.5,0 214.5,0 214.5,0 1893,0 2008.05,0 2034.14,-197.96 2038.68,-244.35"/>
<polygon fill="midnightblue" stroke="midnightblue" points="61.12,-429.49 64.73,-439.45 68.12,-429.41 61.12,-429.49"/>
</g>
<!-- Node8 -->
<g id="node8" class="node">
<title>Node8</title>
<g id="a_node8"><a xlink:href="classKadath_1_1Space.html" target="_top" xlink:title=" ">
<polygon fill="none" stroke="black" points="993.5,-549.5 993.5,-568.5 1073.5,-568.5 1073.5,-549.5 993.5,-549.5"/>
<text text-anchor="middle" x="1033.5" y="-556.5" font-family="Helvetica,sans-Serif" font-size="10.00">Kadath::Space</text>
</a>
</g>
</g>
<!-- Node3&#45;&gt;Node8 -->
<g id="edge14" class="edge">
<title>Node3&#45;&gt;Node8</title>
<path fill="none" stroke="midnightblue" d="M70.19,-468.6C84.34,-517.13 128.44,-639 214.5,-639 214.5,-639 214.5,-639 791.5,-639 879.89,-639 977.66,-589.93 1015.89,-568.65"/>
<polygon fill="midnightblue" stroke="midnightblue" points="73.48,-467.37 67.42,-458.68 66.74,-469.26 73.48,-467.37"/>
</g>
<!-- Node9 -->
<g id="node9" class="node">
<title>Node9</title>
<g id="a_node9"><a xlink:href="classKadath_1_1Domain.html" target="_top" xlink:title=" ">
<polygon fill="none" stroke="black" points="828,-393.5 828,-412.5 913,-412.5 913,-393.5 828,-393.5"/>
<text text-anchor="middle" x="870.5" y="-400.5" font-family="Helvetica,sans-Serif" font-size="10.00">Kadath::Domain</text>
</a>
</g>
</g>
<!-- Node3&#45;&gt;Node9 -->
<g id="edge16" class="edge">
<title>Node3&#45;&gt;Node9</title>
<path fill="none" stroke="midnightblue" d="M87.78,-433.77C107.44,-421.3 137.01,-404.12 165,-394 215.66,-375.69 231.1,-381.16 284,-371 342.21,-359.82 355.99,-351.58 415,-346 564.79,-331.83 604.16,-342.96 753,-365 778.61,-368.79 785.34,-369.11 810,-377 823.85,-381.43 838.85,-388 850.32,-393.42"/>
<polygon fill="midnightblue" stroke="midnightblue" points="85.73,-430.93 79.23,-439.29 89.53,-436.81 85.73,-430.93"/>
</g>
<!-- Node10 -->
<g id="node10" class="node">
<title>Node10</title>
<g id="a_node10"><a xlink:href="classKadath_1_1Dim__array.html" target="_top" xlink:title=" ">
<polygon fill="none" stroke="black" points="168,-532.5 168,-551.5 263,-551.5 263,-532.5 168,-532.5"/>
<text text-anchor="middle" x="215.5" y="-539.5" font-family="Helvetica,sans-Serif" font-size="10.00">Kadath::Dim_array</text>
</a>
</g>
</g>
<!-- Node3&#45;&gt;Node10 -->
<g id="edge18" class="edge">
<title>Node3&#45;&gt;Node10</title>
<path fill="none" stroke="midnightblue" d="M84.27,-465.33C100.2,-478.37 123.72,-496.61 146,-510 160.4,-518.66 177.52,-526.66 191.05,-532.49"/>
<polygon fill="midnightblue" stroke="midnightblue" points="86.2,-462.38 76.27,-458.69 81.73,-467.77 86.2,-462.38"/>
</g>
<!-- Node11 -->
<g id="node11" class="node">
<title>Node11</title>
<g id="a_node11"><a xlink:href="classKadath_1_1Array.html" target="_top" xlink:title=" ">
<polygon fill="none" stroke="black" points="415,-355.5 415,-374.5 534,-374.5 534,-355.5 415,-355.5"/>
<text text-anchor="middle" x="474.5" y="-362.5" font-family="Helvetica,sans-Serif" font-size="10.00">Kadath::Array&lt; double &gt;</text>
</a>
</g>
</g>
<!-- Node3&#45;&gt;Node11 -->
<g id="edge20" class="edge">
<title>Node3&#45;&gt;Node11</title>
<path fill="none" stroke="midnightblue" d="M103.19,-436.39C121.71,-430.57 144.37,-423.88 165,-419 251.11,-398.62 352.42,-382.33 414.8,-373.16"/>
<polygon fill="midnightblue" stroke="midnightblue" points="102.11,-433.06 93.64,-439.43 104.23,-439.73 102.11,-433.06"/>
</g>
<!-- Node12 -->
<g id="node12" class="node">
<title>Node12</title>
<g id="a_node12"><a xlink:href="classKadath_1_1Val__domain.html" target="_top" xlink:title=" ">
<polygon fill="none" stroke="black" points="650,-399.5 650,-418.5 753,-418.5 753,-399.5 650,-399.5"/>
<text text-anchor="middle" x="701.5" y="-406.5" font-family="Helvetica,sans-Serif" font-size="10.00">Kadath::Val_domain</text>
</a>
</g>
</g>
<!-- Node3&#45;&gt;Node12 -->
<g id="edge22" class="edge">
<title>Node3&#45;&gt;Node12</title>
<path fill="none" stroke="midnightblue" d="M138.58,-451.72C247.21,-454.51 456.6,-455.19 632,-428 645.29,-425.94 659.68,-422.19 671.83,-418.56"/>
<polygon fill="midnightblue" stroke="midnightblue" points="138.48,-448.22 128.38,-451.44 138.29,-455.21 138.48,-448.22"/>
</g>
<!-- Node13 -->
<g id="node13" class="node">
<title>Node13</title>
<g id="a_node13"><a xlink:href="classKadath_1_1Base__spectral.html" target="_top" xlink:title=" ">
<polygon fill="none" stroke="black" points="417.5,-401.5 417.5,-420.5 531.5,-420.5 531.5,-401.5 417.5,-401.5"/>
<text text-anchor="middle" x="474.5" y="-408.5" font-family="Helvetica,sans-Serif" font-size="10.00">Kadath::Base_spectral</text>
</a>
</g>
</g>
<!-- Node3&#45;&gt;Node13 -->
<g id="edge26" class="edge">
<title>Node3&#45;&gt;Node13</title>
<path fill="none" stroke="midnightblue" d="M125.49,-437.88C132.39,-436.81 139.34,-435.82 146,-435 240.92,-423.35 352.07,-416.66 417.42,-413.44"/>
<polygon fill="midnightblue" stroke="midnightblue" points="124.76,-434.45 115.44,-439.5 125.87,-441.36 124.76,-434.45"/>
</g>
<!-- Node14 -->
<g id="node14" class="node">
<title>Node14</title>
<g id="a_node14"><a xlink:href="classKadath_1_1Index.html" target="_top" xlink:title=" ">
<polygon fill="none" stroke="black" points="437,-705.5 437,-724.5 512,-724.5 512,-705.5 437,-705.5"/>
<text text-anchor="middle" x="474.5" y="-712.5" font-family="Helvetica,sans-Serif" font-size="10.00">Kadath::Index</text>
</a>
</g>
</g>
<!-- Node3&#45;&gt;Node14 -->
<g id="edge30" class="edge">
<title>Node3&#45;&gt;Node14</title>
<path fill="none" stroke="midnightblue" d="M64.85,-468.88C65.68,-516.24 75.05,-635.88 146,-691 231.76,-757.63 371.24,-738.38 437,-724.18"/>
<polygon fill="midnightblue" stroke="midnightblue" points="68.35,-468.7 64.79,-458.72 61.35,-468.74 68.35,-468.7"/>
</g>
<!-- Node15 -->
<g id="node15" class="node">
<title>Node15</title>
<g id="a_node15"><a xlink:href="classKadath_1_1Param.html" target="_top" xlink:title=" ">
<polygon fill="none" stroke="black" points="552,-743.5 552,-762.5 632,-762.5 632,-743.5 552,-743.5"/>
<text text-anchor="middle" x="592" y="-750.5" font-family="Helvetica,sans-Serif" font-size="10.00">Kadath::Param</text>
</a>
</g>
</g>
<!-- Node3&#45;&gt;Node15 -->
<g id="edge34" class="edge">
<title>Node3&#45;&gt;Node15</title>
<path fill="none" stroke="midnightblue" d="M64.25,-468.69C63.38,-523.85 69.73,-679.4 165,-733 230.41,-769.8 459.42,-760.86 551.86,-755.54"/>
<polygon fill="midnightblue" stroke="midnightblue" points="67.75,-468.6 64.51,-458.51 60.75,-468.42 67.75,-468.6"/>
</g>
<!-- Node16 -->
<g id="node16" class="node">
<title>Node16</title>
<g id="a_node16"><a xlink:href="classKadath_1_1Term__eq.html" target="_top" xlink:title=" ">
<polygon fill="none" stroke="black" points="1493,-781.5 1493,-800.5 1583,-800.5 1583,-781.5 1493,-781.5"/>
<text text-anchor="middle" x="1538" y="-788.5" font-family="Helvetica,sans-Serif" font-size="10.00">Kadath::Term_eq</text>
</a>
</g>
</g>
<!-- Node3&#45;&gt;Node16 -->
<g id="edge37" class="edge">
<title>Node3&#45;&gt;Node16</title>
<path fill="none" stroke="midnightblue" d="M64.57,-468.57C64.09,-541.18 72.72,-791 214.5,-791 214.5,-791 214.5,-791 1383,-791 1420.03,-791 1462.07,-791 1492.86,-791"/>
<polygon fill="midnightblue" stroke="midnightblue" points="68.07,-468.55 64.71,-458.5 61.07,-468.46 68.07,-468.55"/>
</g>
<!-- Node17 -->
<g id="node17" class="node">
<title>Node17</title>
<g id="a_node17"><a xlink:href="classKadath_1_1Tensor.html" target="_top" xlink:title=" ">
<polygon fill="none" stroke="black" points="1341,-496.5 1341,-515.5 1423,-515.5 1423,-496.5 1341,-496.5"/>
<text text-anchor="middle" x="1382" y="-503.5" font-family="Helvetica,sans-Serif" font-size="10.00">Kadath::Tensor</text>
</a>
</g>
</g>
<!-- Node3&#45;&gt;Node17 -->
<g id="edge39" class="edge">
<title>Node3&#45;&gt;Node17</title>
<path fill="none" stroke="midnightblue" d="M68.11,-468.42C78.17,-523.53 115.08,-677 214.5,-677 214.5,-677 214.5,-677 1126,-677 1242.73,-677 1346.36,-551.86 1373.87,-515.68"/>
<polygon fill="midnightblue" stroke="midnightblue" points="71.55,-467.77 66.41,-458.51 64.66,-468.96 71.55,-467.77"/>
</g>
<!-- Node19 -->
<g id="node19" class="node">
<title>Node19</title>
<g id="a_node19"><a xlink:href="classKadath_1_1Base__tensor.html" target="_top" xlink:title=" ">
<polygon fill="none" stroke="black" points="1172,-544.5 1172,-563.5 1279,-563.5 1279,-544.5 1172,-544.5"/>
<text text-anchor="middle" x="1225.5" y="-551.5" font-family="Helvetica,sans-Serif" font-size="10.00">Kadath::Base_tensor</text>
</a>
</g>
</g>
<!-- Node3&#45;&gt;Node19 -->
<g id="edge46" class="edge">
<title>Node3&#45;&gt;Node19</title>
<path fill="none" stroke="midnightblue" d="M75.36,-467.54C91.01,-493.53 123.33,-539.95 165,-561 207.43,-582.44 543.46,-601 591,-601 591,-601 591,-601 871.5,-601 997.81,-601 1029.43,-590.9 1154,-570 1164.52,-568.23 1175.83,-565.88 1186.24,-563.52"/>
<polygon fill="midnightblue" stroke="midnightblue" points="78.26,-465.55 70.2,-458.68 72.21,-469.08 78.26,-465.55"/>
</g>
<!-- Node20 -->
<g id="node20" class="node">
<title>Node20</title>
<g id="a_node20"><a xlink:href="classKadath_1_1Param__tensor.html" target="_top" xlink:title=" ">
<polygon fill="none" stroke="black" points="284,-508.5 284,-527.5 397,-527.5 397,-508.5 284,-508.5"/>
<text text-anchor="middle" x="340.5" y="-515.5" font-family="Helvetica,sans-Serif" font-size="10.00">Kadath::Param_tensor</text>
</a>
</g>
</g>
<!-- Node3&#45;&gt;Node20 -->
<g id="edge50" class="edge">
<title>Node3&#45;&gt;Node20</title>
<path fill="none" stroke="midnightblue" d="M112.83,-461.02C166.46,-474.5 252.35,-496.09 301.57,-508.47"/>
<polygon fill="midnightblue" stroke="midnightblue" points="113.43,-457.57 102.88,-458.52 111.72,-464.35 113.43,-457.57"/>
</g>
<!-- Node21 -->
<g id="node21" class="node">
<title>Node21</title>
<g id="a_node21"><a xlink:href="classKadath_1_1Metric.html" target="_top" xlink:title=" ">
<polygon fill="none" stroke="black" points="1852.5,-405.5 1852.5,-424.5 1931.5,-424.5 1931.5,-405.5 1852.5,-405.5"/>
<text text-anchor="middle" x="1892" y="-412.5" font-family="Helvetica,sans-Serif" font-size="10.00">Kadath::Metric</text>
</a>
</g>
</g>
<!-- Node3&#45;&gt;Node21 -->
<g id="edge52" class="edge">
<title>Node3&#45;&gt;Node21</title>
<path fill="none" stroke="midnightblue" d="M67.33,-429.29C73.91,-378.36 95.57,-239.1 146,-135 163.52,-98.84 174.32,-76 214.5,-76 214.5,-76 214.5,-76 791.5,-76 984,-76 1495.68,-36.95 1655,-145 1768.61,-222.05 1861.6,-366.68 1885.2,-405.31"/>
<polygon fill="midnightblue" stroke="midnightblue" points="63.85,-428.92 66.09,-439.28 70.79,-429.78 63.85,-428.92"/>
</g>
<!-- Node4&#45;&gt;Node2 -->
<g id="edge3" class="edge">
<title>Node4&#45;&gt;Node2</title>
<path fill="none" stroke="#9a32cd" stroke-dasharray="5,2" d="M251.06,-243.06C299.89,-225.96 392.2,-198 473.5,-198 473.5,-198 473.5,-198 871.5,-198 911.22,-198 956.41,-199.85 988.78,-201.49"/>
<polygon fill="#9a32cd" stroke="#9a32cd" points="249.86,-239.77 241.61,-246.42 252.2,-246.37 249.86,-239.77"/>
<text text-anchor="middle" x="701.5" y="-212" font-family="Helvetica,sans-Serif" font-size="10.00"> n_cond</text>
<text text-anchor="middle" x="701.5" y="-201" font-family="Helvetica,sans-Serif" font-size="10.00">p_cmp_used</text>
</g>
<!-- Node4&#45;&gt;Node6 -->
<g id="edge32" class="edge">
<title>Node4&#45;&gt;Node6</title>
<path fill="none" stroke="#9a32cd" stroke-dasharray="5,2" d="M232.78,-239.3C245.62,-227.02 264.56,-210.83 284,-201 361.62,-161.73 386.51,-152 473.5,-152 473.5,-152 473.5,-152 791.5,-152 899.02,-152 924.98,-131 1032.5,-131 1032.5,-131 1032.5,-131 1539,-131 1696.75,-131 1726.49,-409.88 1730.85,-465.44"/>
<polygon fill="#9a32cd" stroke="#9a32cd" points="230.29,-236.83 225.62,-246.34 235.2,-241.82 230.29,-236.83"/>
<text text-anchor="middle" x="1033.5" y="-146" font-family="Helvetica,sans-Serif" font-size="10.00"> assoc_var</text>
<text text-anchor="middle" x="1033.5" y="-135" font-family="Helvetica,sans-Serif" font-size="10.00">assoc_var_double</text>
</g>
<!-- Node4&#45;&gt;Node13 -->
<g id="edge27" class="edge">
<title>Node4&#45;&gt;Node13</title>
<path fill="none" stroke="#9a32cd" stroke-dasharray="5,2" d="M238.32,-271.52C274.22,-296.72 348.41,-347.4 415,-384 426.57,-390.36 439.9,-396.59 450.91,-401.46"/>
<polygon fill="#9a32cd" stroke="#9a32cd" points="240.24,-268.59 230.05,-265.69 236.2,-274.31 240.24,-268.59"/>
<text text-anchor="middle" x="340.5" y="-374" font-family="Helvetica,sans-Serif" font-size="10.00"> bases_1d</text>
</g>
<!-- Node4&#45;&gt;Node17 -->
<g id="edge44" class="edge">
<title>Node4&#45;&gt;Node17</title>
<path fill="none" stroke="#9a32cd" stroke-dasharray="5,2" d="M276.3,-253.08C328.38,-250.8 405.91,-248 473.5,-248 473.5,-248 473.5,-248 791.5,-248 1043.98,-248 1310.11,-449.07 1369.01,-496.2"/>
<polygon fill="#9a32cd" stroke="#9a32cd" points="276.07,-249.59 266.23,-253.53 276.38,-256.58 276.07,-249.59"/>
<text text-anchor="middle" x="870.5" y="-275" font-family="Helvetica,sans-Serif" font-size="10.00"> give_indices</text>
<text text-anchor="middle" x="870.5" y="-264" font-family="Helvetica,sans-Serif" font-size="10.00">type_indice</text>
</g>
<!-- Node4&#45;&gt;Node19 -->
<g id="edge48" class="edge">
<title>Node4&#45;&gt;Node19</title>
<path fill="none" stroke="#9a32cd" stroke-dasharray="5,2" d="M221.61,-275.65C229.96,-304 249.21,-356.22 284,-386 330.66,-425.94 355.37,-415.27 415,-430 656.69,-489.7 725.04,-459.49 971,-498 1049.15,-510.24 1139.29,-532.01 1188.25,-544.5"/>
<polygon fill="#9a32cd" stroke="#9a32cd" points="224.9,-274.43 218.85,-265.74 218.16,-276.31 224.9,-274.43"/>
<text text-anchor="middle" x="790.5" y="-482" font-family="Helvetica,sans-Serif" font-size="10.00"> basis</text>
</g>
<!-- Node5&#45;&gt;Node2 -->
<g id="edge5" class="edge">
<title>Node5&#45;&gt;Node2</title>
<path fill="none" stroke="#9a32cd" stroke-dasharray="5,2" d="M1873.78,-237.23C1846.45,-212.46 1790.38,-169 1733.5,-169 1224.5,-169 1224.5,-169 1224.5,-169 1168.15,-169 1103.93,-184.07 1066.44,-194.44"/>
<polygon fill="#9a32cd" stroke="#9a32cd" points="1871.61,-239.99 1881.31,-244.25 1876.38,-234.87 1871.61,-239.99"/>
<text text-anchor="middle" x="1458" y="-172" font-family="Helvetica,sans-Serif" font-size="10.00"> parts</text>
</g>
<!-- Node5&#45;&gt;Node5 -->
<g id="edge7" class="edge">
<title>Node5&#45;&gt;Node5</title>
<path fill="none" stroke="#9a32cd" stroke-dasharray="5,2" d="M1879.11,-273.77C1880.12,-278.5 1884.42,-282 1892,-282 1904.44,-282 1908.04,-272.57 1902.79,-263.76"/>
<polygon fill="#9a32cd" stroke="#9a32cd" points="1882.58,-274.26 1881.21,-263.76 1875.73,-272.82 1882.58,-274.26"/>
<text text-anchor="middle" x="1892" y="-285" font-family="Helvetica,sans-Serif" font-size="10.00"> parts</text>
</g>
<!-- Node5&#45;&gt;Node7 -->
<g id="edge12" class="edge">
<title>Node5&#45;&gt;Node7</title>
<path fill="none" stroke="#9a32cd" stroke-dasharray="5,2" d="M1945.55,-254C1963.76,-254 1983.83,-254 2000.73,-254"/>
<polygon fill="#9a32cd" stroke="#9a32cd" points="1945.37,-250.5 1935.37,-254 1945.37,-257.5 1945.37,-250.5"/>
<text text-anchor="middle" x="1965.5" y="-257" font-family="Helvetica,sans-Serif" font-size="10.00"> parts</text>
</g>
<!-- Node22 -->
<g id="node22" class="node">
<title>Node22</title>
<g id="a_node22"><a xlink:href="classKadath_1_1Ope__def.html" target="_top" xlink:title=" ">
<polygon fill="none" stroke="black" points="1996,-834.5 1996,-853.5 2085,-853.5 2085,-834.5 1996,-834.5"/>
<text text-anchor="middle" x="2040.5" y="-841.5" font-family="Helvetica,sans-Serif" font-size="10.00">Kadath::Ope_def</text>
</a>
</g>
</g>
<!-- Node5&#45;&gt;Node22 -->
<g id="edge58" class="edge">
<title>Node5&#45;&gt;Node22</title>
<path fill="none" stroke="midnightblue" d="M1899.13,-273.4C1907.65,-300.65 1923.34,-351.87 1935,-396 1981.22,-570.89 2027.46,-787.01 2037.5,-834.49"/>
<polygon fill="midnightblue" stroke="midnightblue" points="1902.38,-272.08 1896.05,-263.59 1895.71,-274.18 1902.38,-272.08"/>
</g>
<!-- Node6&#45;&gt;Node5 -->
<g id="edge8" class="edge">
<title>Node6&#45;&gt;Node5</title>
<path fill="none" stroke="#9a32cd" stroke-dasharray="5,2" d="M1746.29,-457.05C1778.08,-412.44 1859.84,-297.72 1884.11,-263.67"/>
<polygon fill="#9a32cd" stroke="#9a32cd" points="1743.42,-455.04 1740.47,-465.22 1749.12,-459.11 1743.42,-455.04"/>
<text text-anchor="middle" x="1820.5" y="-367" font-family="Helvetica,sans-Serif" font-size="10.00"> syst</text>
</g>
<!-- Node6&#45;&gt;Node21 -->
<g id="edge54" class="edge">
<title>Node6&#45;&gt;Node21</title>
<path fill="none" stroke="#9a32cd" stroke-dasharray="5,2" d="M1751.61,-458.35C1766.21,-445.99 1787.89,-429.97 1810,-422 1823.28,-417.21 1838.54,-415.1 1852.22,-414.3"/>
<polygon fill="#9a32cd" stroke="#9a32cd" points="1749.1,-455.89 1743.88,-465.11 1753.71,-461.16 1749.1,-455.89"/>
<text text-anchor="middle" x="1820.5" y="-425" font-family="Helvetica,sans-Serif" font-size="10.00"> syst</text>
</g>
<!-- Node7&#45;&gt;Node6 -->
<g id="edge10" class="edge">
<title>Node7&#45;&gt;Node6</title>
<path fill="none" stroke="#9a32cd" stroke-dasharray="5,2" d="M2033.91,-273.22C2022.1,-310.33 1990.98,-391.89 1935,-434 1894.06,-464.79 1835.7,-473.95 1792.32,-476.05"/>
<polygon fill="#9a32cd" stroke="#9a32cd" points="2037.27,-274.2 2036.85,-263.61 2030.58,-272.15 2037.27,-274.2"/>
<text text-anchor="middle" x="1892" y="-472" font-family="Helvetica,sans-Serif" font-size="10.00"> eq_int</text>
</g>
<!-- Node8&#45;&gt;Node6 -->
<g id="edge13" class="edge">
<title>Node8&#45;&gt;Node6</title>
<path fill="none" stroke="#9a32cd" stroke-dasharray="5,2" d="M1057.65,-573.77C1068.81,-580.17 1082.65,-587.08 1096,-591 1128.54,-600.56 1138.12,-596.44 1172,-598 1219.51,-600.18 1231.85,-604.16 1279,-598 1450.46,-575.59 1488.62,-545.12 1655,-498 1670.08,-493.73 1686.75,-488.75 1700.67,-484.51"/>
<polygon fill="#9a32cd" stroke="#9a32cd" points="1059.36,-570.72 1048.98,-568.6 1055.77,-576.73 1059.36,-570.72"/>
<text text-anchor="middle" x="1382" y="-591" font-family="Helvetica,sans-Serif" font-size="10.00"> espace</text>
</g>
<!-- Node8&#45;&gt;Node17 -->
<g id="edge40" class="edge">
<title>Node8&#45;&gt;Node17</title>
<path fill="none" stroke="#9a32cd" stroke-dasharray="5,2" d="M1081.65,-570.7C1131.63,-581.04 1212.39,-591.81 1279,-573 1317.13,-562.23 1353.98,-531.45 1371.07,-515.63"/>
<polygon fill="#9a32cd" stroke="#9a32cd" points="1082.28,-567.25 1071.77,-568.58 1080.81,-574.1 1082.28,-567.25"/>
<text text-anchor="middle" x="1225.5" y="-586" font-family="Helvetica,sans-Serif" font-size="10.00"> espace</text>
</g>
<!-- Node8&#45;&gt;Node19 -->
<g id="edge47" class="edge">
<title>Node8&#45;&gt;Node19</title>
<path fill="none" stroke="#9a32cd" stroke-dasharray="5,2" d="M1083.88,-557.7C1110.88,-556.99 1144.34,-556.11 1171.84,-555.39"/>
<polygon fill="#9a32cd" stroke="#9a32cd" points="1083.77,-554.2 1073.87,-557.96 1083.96,-561.2 1083.77,-554.2"/>
<text text-anchor="middle" x="1125" y="-560" font-family="Helvetica,sans-Serif" font-size="10.00"> space</text>
</g>
<!-- Node8&#45;&gt;Node21 -->
<g id="edge53" class="edge">
<title>Node8&#45;&gt;Node21</title>
<path fill="none" stroke="#9a32cd" stroke-dasharray="5,2" d="M1067.69,-545.81C1136.19,-519.27 1298.69,-459.74 1441,-434 1602.67,-404.76 1645.78,-416.89 1810,-412 1823.78,-411.59 1838.89,-411.93 1852.27,-412.51"/>
<polygon fill="#9a32cd" stroke="#9a32cd" points="1066.33,-542.59 1058.28,-549.48 1068.87,-549.11 1066.33,-542.59"/>
<text text-anchor="middle" x="1458" y="-437" font-family="Helvetica,sans-Serif" font-size="10.00"> espace</text>
</g>
<!-- Node9&#45;&gt;Node2 -->
<g id="edge60" class="edge">
<title>Node9&#45;&gt;Node2</title>
<path fill="none" stroke="#9a32cd" stroke-dasharray="5,2" d="M885.71,-385.44C918.69,-344.67 999.53,-244.75 1024.81,-213.5"/>
<polygon fill="#9a32cd" stroke="#9a32cd" points="882.83,-383.43 879.27,-393.4 888.28,-387.83 882.83,-383.43"/>
<text text-anchor="middle" x="951" y="-330" font-family="Helvetica,sans-Serif" font-size="10.00"> dom</text>
</g>
<!-- Node9&#45;&gt;Node8 -->
<g id="edge15" class="edge">
<title>Node9&#45;&gt;Node8</title>
<path fill="none" stroke="#9a32cd" stroke-dasharray="5,2" d="M888.86,-419.82C922.51,-452.43 995.67,-523.31 1022.43,-549.25"/>
<polygon fill="#9a32cd" stroke="#9a32cd" points="891.19,-417.2 881.57,-412.76 886.32,-422.23 891.19,-417.2"/>
<text text-anchor="middle" x="951" y="-497" font-family="Helvetica,sans-Serif" font-size="10.00"> domains</text>
</g>
<!-- Node9&#45;&gt;Node12 -->
<g id="edge28" class="edge">
<title>Node9&#45;&gt;Node12</title>
<path fill="none" stroke="#9a32cd" stroke-dasharray="5,2" d="M817.74,-402.08C815.12,-402.05 812.53,-402.02 810,-402 792.67,-401.85 788.31,-401.12 771,-402 765.27,-402.29 759.28,-402.72 753.33,-403.22"/>
<polygon fill="#9a32cd" stroke="#9a32cd" points="817.84,-405.58 827.89,-402.21 817.94,-398.58 817.84,-405.58"/>
<text text-anchor="middle" x="790.5" y="-405" font-family="Helvetica,sans-Serif" font-size="10.00"> zone</text>
</g>
<!-- Node10&#45;&gt;Node9 -->
<g id="edge17" class="edge">
<title>Node10&#45;&gt;Node9</title>
<path fill="none" stroke="#9a32cd" stroke-dasharray="5,2" d="M273.4,-546.72C404.51,-556.48 723.23,-573.43 810,-516 847.35,-491.28 862.8,-435.22 867.66,-412.66"/>
<polygon fill="#9a32cd" stroke="#9a32cd" points="273.41,-543.21 263.17,-545.95 272.88,-550.19 273.41,-543.21"/>
<text text-anchor="middle" x="592" y="-570" font-family="Helvetica,sans-Serif" font-size="10.00"> nbr_coefs</text>
<text text-anchor="middle" x="592" y="-559" font-family="Helvetica,sans-Serif" font-size="10.00">nbr_points</text>
</g>
<!-- Node10&#45;&gt;Node14 -->
<g id="edge31" class="edge">
<title>Node10&#45;&gt;Node14</title>
<path fill="none" stroke="#9a32cd" stroke-dasharray="5,2" d="M239.19,-557.27C291.05,-592.18 417.03,-676.99 459.36,-705.48"/>
<polygon fill="#9a32cd" stroke="#9a32cd" points="240.93,-554.23 230.68,-551.55 237.02,-560.04 240.93,-554.23"/>
<text text-anchor="middle" x="340.5" y="-662" font-family="Helvetica,sans-Serif" font-size="10.00"> sizes</text>
</g>
<!-- Node11&#45;&gt;Node6 -->
<g id="edge35" class="edge">
<title>Node11&#45;&gt;Node6</title>
<path fill="none" stroke="#9a32cd" stroke-dasharray="5,2" d="M544.25,-354.62C633.25,-341.72 793.27,-320.4 931,-312 1150.67,-298.6 1210.97,-309.02 1423,-368 1530.86,-398.01 1655.91,-445.4 1707.43,-465.49"/>
<polygon fill="#9a32cd" stroke="#9a32cd" points="543.67,-351.16 534.28,-356.07 544.68,-358.09 543.67,-351.16"/>
<text text-anchor="middle" x="1125" y="-313" font-family="Helvetica,sans-Serif" font-size="10.00"> val_cst_hard</text>
</g>
<!-- Node11&#45;&gt;Node9 -->
<g id="edge19" class="edge">
<title>Node11&#45;&gt;Node9</title>
<path fill="none" stroke="#9a32cd" stroke-dasharray="5,2" d="M544.45,-365.26C600.78,-366.25 682.35,-369.43 753,-379 778.89,-382.51 807.64,-388.41 830.1,-393.48"/>
<polygon fill="#9a32cd" stroke="#9a32cd" points="544.29,-361.76 534.23,-365.1 544.18,-368.76 544.29,-361.76"/>
<text text-anchor="middle" x="701.5" y="-382" font-family="Helvetica,sans-Serif" font-size="10.00"> coloc</text>
</g>
<!-- Node11&#45;&gt;Node12 -->
<g id="edge23" class="edge">
<title>Node11&#45;&gt;Node12</title>
<path fill="none" stroke="#9a32cd" stroke-dasharray="5,2" d="M544.56,-372.12C571.97,-375.62 603.66,-380.51 632,-387 646.25,-390.26 661.78,-395.14 674.44,-399.47"/>
<polygon fill="#9a32cd" stroke="#9a32cd" points="544.63,-368.6 534.27,-370.85 543.77,-375.55 544.63,-368.6"/>
<text text-anchor="middle" x="592" y="-401" font-family="Helvetica,sans-Serif" font-size="10.00"> c</text>
<text text-anchor="middle" x="592" y="-390" font-family="Helvetica,sans-Serif" font-size="10.00">cf</text>
</g>
<!-- Node12&#45;&gt;Node9 -->
<g id="edge21" class="edge">
<title>Node12&#45;&gt;Node9</title>
<path fill="none" stroke="#9a32cd" stroke-dasharray="5,2" d="M763.49,-415.69C778.7,-416.46 794.96,-416.5 810,-415 815.77,-414.42 821.8,-413.54 827.72,-412.51"/>
<polygon fill="#9a32cd" stroke="#9a32cd" points="763.35,-412.18 753.16,-415.06 762.92,-419.16 763.35,-412.18"/>
<text text-anchor="middle" x="790.5" y="-452" font-family="Helvetica,sans-Serif" font-size="10.00"> absol</text>
<text text-anchor="middle" x="790.5" y="-441" font-family="Helvetica,sans-Serif" font-size="10.00">cart</text>
<text text-anchor="middle" x="790.5" y="-430" font-family="Helvetica,sans-Serif" font-size="10.00">cart_surr</text>
<text text-anchor="middle" x="790.5" y="-419" font-family="Helvetica,sans-Serif" font-size="10.00">radius</text>
</g>
<!-- Node12&#45;&gt;Node12 -->
<g id="edge24" class="edge">
<title>Node12&#45;&gt;Node12</title>
<path fill="none" stroke="#9a32cd" stroke-dasharray="5,2" d="M685.2,-428.4C686.29,-433.31 691.72,-437 701.5,-437 717.14,-437 721.66,-427.57 715.06,-418.76"/>
<polygon fill="#9a32cd" stroke="#9a32cd" points="688.58,-429.33 687.94,-418.76 681.84,-427.42 688.58,-429.33"/>
<text text-anchor="middle" x="701.5" y="-451" font-family="Helvetica,sans-Serif" font-size="10.00"> p_der_abs</text>
<text text-anchor="middle" x="701.5" y="-440" font-family="Helvetica,sans-Serif" font-size="10.00">p_der_var</text>
</g>
<!-- Node18 -->
<g id="node18" class="node">
<title>Node18</title>
<g id="a_node18"><a xlink:href="classKadath_1_1Scalar.html" target="_top" xlink:title=" ">
<polygon fill="none" stroke="black" points="1498,-445.5 1498,-464.5 1578,-464.5 1578,-445.5 1498,-445.5"/>
<text text-anchor="middle" x="1538" y="-452.5" font-family="Helvetica,sans-Serif" font-size="10.00">Kadath::Scalar</text>
</a>
</g>
</g>
<!-- Node12&#45;&gt;Node18 -->
<g id="edge43" class="edge">
<title>Node12&#45;&gt;Node18</title>
<path fill="none" stroke="#9a32cd" stroke-dasharray="5,2" d="M750.61,-397.23C773.84,-392.1 802.21,-386.67 828,-384 918.41,-374.64 941.61,-382 1032.5,-382 1032.5,-382 1032.5,-382 1383,-382 1441.58,-382 1501.67,-425.67 1525.89,-445.46"/>
<polygon fill="#9a32cd" stroke="#9a32cd" points="749.65,-393.85 740.67,-399.47 751.19,-400.68 749.65,-393.85"/>
<text text-anchor="middle" x="1125" y="-385" font-family="Helvetica,sans-Serif" font-size="10.00"> val_zones</text>
</g>
<!-- Node13&#45;&gt;Node12 -->
<g id="edge25" class="edge">
<title>Node13&#45;&gt;Node12</title>
<path fill="none" stroke="#9a32cd" stroke-dasharray="5,2" d="M541.68,-413.07C569.57,-413.63 602.37,-413.86 632,-413 637.72,-412.83 643.7,-412.59 649.64,-412.3"/>
<polygon fill="#9a32cd" stroke="#9a32cd" points="541.72,-409.57 531.65,-412.86 541.57,-416.57 541.72,-409.57"/>
<text text-anchor="middle" x="592" y="-416" font-family="Helvetica,sans-Serif" font-size="10.00"> base</text>
</g>
<!-- Node14&#45;&gt;Node6 -->
<g id="edge29" class="edge">
<title>Node14&#45;&gt;Node6</title>
<path fill="none" stroke="#9a32cd" stroke-dasharray="5,2" d="M522.29,-715C567.8,-715 638.89,-715 700.5,-715 700.5,-715 700.5,-715 1539,-715 1546.51,-715 1689.52,-529.61 1724.05,-484.71"/>
<polygon fill="#9a32cd" stroke="#9a32cd" points="522.13,-711.5 512.13,-715 522.13,-718.5 522.13,-711.5"/>
<text text-anchor="middle" x="1125" y="-718" font-family="Helvetica,sans-Serif" font-size="10.00"> which_coef</text>
</g>
<!-- Node15&#45;&gt;Node6 -->
<g id="edge33" class="edge">
<title>Node15&#45;&gt;Node6</title>
<path fill="none" stroke="#9a32cd" stroke-dasharray="5,2" d="M642.36,-753C682.1,-753 739.39,-753 789.5,-753 789.5,-753 789.5,-753 1459,-753 1502.97,-753 1624.44,-757.61 1655,-726 1682.02,-698.05 1658.71,-588.15 1673,-552 1683.86,-524.52 1707.44,-498.43 1721.11,-484.81"/>
<polygon fill="#9a32cd" stroke="#9a32cd" points="642.15,-749.5 632.15,-753 642.15,-756.5 642.15,-749.5"/>
<text text-anchor="middle" x="1125" y="-767" font-family="Helvetica,sans-Serif" font-size="10.00"> paruser</text>
<text text-anchor="middle" x="1125" y="-756" font-family="Helvetica,sans-Serif" font-size="10.00">paruser_bin</text>
</g>
<!-- Node16&#45;&gt;Node6 -->
<g id="edge36" class="edge">
<title>Node16&#45;&gt;Node6</title>
<path fill="none" stroke="#9a32cd" stroke-dasharray="5,2" d="M1581.5,-778.45C1612.37,-768.98 1649.65,-756.69 1655,-751 1730.27,-670.94 1732.59,-523.42 1731.82,-484.58"/>
<polygon fill="#9a32cd" stroke="#9a32cd" points="1580.3,-775.16 1571.75,-781.41 1582.33,-781.86 1580.3,-775.16"/>
<text text-anchor="middle" x="1628" y="-840" font-family="Helvetica,sans-Serif" font-size="10.00"> cst</text>
<text text-anchor="middle" x="1628" y="-829" font-family="Helvetica,sans-Serif" font-size="10.00">cst_hard</text>
<text text-anchor="middle" x="1628" y="-818" font-family="Helvetica,sans-Serif" font-size="10.00">opeuser</text>
<text text-anchor="middle" x="1628" y="-807" font-family="Helvetica,sans-Serif" font-size="10.00">opeuser_bin</text>
<text text-anchor="middle" x="1628" y="-796" font-family="Helvetica,sans-Serif" font-size="10.00">results</text>
<text text-anchor="middle" x="1628" y="-785" font-family="Helvetica,sans-Serif" font-size="10.00">term</text>
<text text-anchor="middle" x="1628" y="-774" font-family="Helvetica,sans-Serif" font-size="10.00">term_double</text>
</g>
<!-- Node16&#45;&gt;Node21 -->
<g id="edge55" class="edge">
<title>Node16&#45;&gt;Node21</title>
<path fill="none" stroke="#9a32cd" stroke-dasharray="5,2" d="M1551.21,-808.8C1562.3,-823.24 1580.07,-842.53 1601,-851 1623.25,-860 1634.79,-863.94 1655,-851 1676.69,-837.11 1830,-447.38 1849,-430 1851.29,-427.91 1853.88,-426.11 1856.64,-424.55"/>
<polygon fill="#9a32cd" stroke="#9a32cd" points="1553.94,-806.59 1545.21,-800.58 1548.28,-810.72 1553.94,-806.59"/>
<text text-anchor="middle" x="1732.5" y="-900" font-family="Helvetica,sans-Serif" font-size="10.00"> p_christo</text>
<text text-anchor="middle" x="1732.5" y="-889" font-family="Helvetica,sans-Serif" font-size="10.00">p_det_cov</text>
<text text-anchor="middle" x="1732.5" y="-878" font-family="Helvetica,sans-Serif" font-size="10.00">p_dirac</text>
<text text-anchor="middle" x="1732.5" y="-867" font-family="Helvetica,sans-Serif" font-size="10.00">p_met_con</text>
<text text-anchor="middle" x="1732.5" y="-856" font-family="Helvetica,sans-Serif" font-size="10.00">p_met_cov</text>
<text text-anchor="middle" x="1732.5" y="-845" font-family="Helvetica,sans-Serif" font-size="10.00">p_ricci_scalar</text>
<text text-anchor="middle" x="1732.5" y="-834" font-family="Helvetica,sans-Serif" font-size="10.00">p_ricci_tensor</text>
<text text-anchor="middle" x="1732.5" y="-823" font-family="Helvetica,sans-Serif" font-size="10.00">p_riemann</text>
</g>
<!-- Node16&#45;&gt;Node22 -->
<g id="edge59" class="edge">
<title>Node16&#45;&gt;Node22</title>
<path fill="none" stroke="#9a32cd" stroke-dasharray="5,2" d="M1550.49,-808.97C1561.89,-825.85 1580.57,-851.12 1601,-869 1629.05,-893.54 1637.07,-902.09 1673,-912 1803.38,-947.97 1965.15,-879.88 2020.16,-853.67"/>
<polygon fill="#9a32cd" stroke="#9a32cd" points="1553.37,-806.98 1544.94,-800.55 1547.52,-810.83 1553.37,-806.98"/>
<text text-anchor="middle" x="1820.5" y="-921" font-family="Helvetica,sans-Serif" font-size="10.00"> res</text>
</g>
<!-- Node17&#45;&gt;Node6 -->
<g id="edge56" class="edge">
<title>Node17&#45;&gt;Node6</title>
<path fill="none" stroke="#9a32cd" stroke-dasharray="5,2" d="M1433.48,-501.51C1496.91,-495.87 1605.59,-486.2 1672.71,-480.23"/>
<polygon fill="#9a32cd" stroke="#9a32cd" points="1432.97,-498.04 1423.32,-502.41 1433.59,-505.01 1432.97,-498.04"/>
<text text-anchor="middle" x="1538" y="-499" font-family="Helvetica,sans-Serif" font-size="10.00"> var</text>
</g>
<!-- Node17&#45;&gt;Node16 -->
<g id="edge38" class="edge">
<title>Node17&#45;&gt;Node16</title>
<path fill="none" stroke="#9a32cd" stroke-dasharray="5,2" d="M1393.18,-524.84C1423.01,-580.04 1509.46,-740.03 1531.72,-781.23"/>
<polygon fill="#9a32cd" stroke="#9a32cd" points="1396.13,-522.94 1388.3,-515.81 1389.98,-526.27 1396.13,-522.94"/>
<text text-anchor="middle" x="1458" y="-688" font-family="Helvetica,sans-Serif" font-size="10.00"> der_t</text>
<text text-anchor="middle" x="1458" y="-677" font-family="Helvetica,sans-Serif" font-size="10.00">val_t</text>
</g>
<!-- Node17&#45;&gt;Node18 -->
<g id="edge42" class="edge">
<title>Node17&#45;&gt;Node18</title>
<path fill="none" stroke="midnightblue" d="M1421.81,-493.15C1448.65,-484.26 1483.79,-472.62 1508.16,-464.55"/>
<polygon fill="midnightblue" stroke="midnightblue" points="1420.36,-489.94 1411.97,-496.41 1422.56,-496.59 1420.36,-489.94"/>
</g>
<!-- Node18&#45;&gt;Node17 -->
<g id="edge41" class="edge">
<title>Node18&#45;&gt;Node17</title>
<path fill="none" stroke="#9a32cd" stroke-dasharray="5,2" d="M1487.26,-449.04C1472,-448.91 1455.44,-450.55 1441,-456 1419.36,-464.17 1400.34,-484.33 1390.38,-496.41"/>
<polygon fill="#9a32cd" stroke="#9a32cd" points="1487.45,-452.55 1497.56,-449.39 1487.69,-445.55 1487.45,-452.55"/>
<text text-anchor="middle" x="1458" y="-459" font-family="Helvetica,sans-Serif" font-size="10.00"> cmp</text>
</g>
<!-- Node19&#45;&gt;Node17 -->
<g id="edge45" class="edge">
<title>Node19&#45;&gt;Node17</title>
<path fill="none" stroke="#9a32cd" stroke-dasharray="5,2" d="M1266.98,-541.42C1293,-533.34 1326.28,-523 1350.16,-515.58"/>
<polygon fill="#9a32cd" stroke="#9a32cd" points="1265.91,-538.09 1257.39,-544.4 1267.98,-544.78 1265.91,-538.09"/>
<text text-anchor="middle" x="1310" y="-534" font-family="Helvetica,sans-Serif" font-size="10.00"> basis</text>
</g>
<!-- Node20&#45;&gt;Node17 -->
<g id="edge49" class="edge">
<title>Node20&#45;&gt;Node17</title>
<path fill="none" stroke="#9a32cd" stroke-dasharray="5,2" d="M407.19,-517.24C603.63,-514.97 1182.66,-508.29 1340.73,-506.46"/>
<polygon fill="#9a32cd" stroke="#9a32cd" points="406.98,-513.74 397.02,-517.36 407.06,-520.74 406.98,-513.74"/>
<text text-anchor="middle" x="870.5" y="-515" font-family="Helvetica,sans-Serif" font-size="10.00"> parameters</text>
</g>
<!-- Node21&#45;&gt;Node6 -->
<g id="edge51" class="edge">
<title>Node21&#45;&gt;Node6</title>
<path fill="none" stroke="#9a32cd" stroke-dasharray="5,2" d="M1856.37,-428.19C1826.76,-439.47 1784.87,-455.43 1758.46,-465.49"/>
<polygon fill="#9a32cd" stroke="#9a32cd" points="1857.8,-431.39 1865.9,-424.56 1855.31,-424.85 1857.8,-431.39"/>
<text text-anchor="middle" x="1820.5" y="-448" font-family="Helvetica,sans-Serif" font-size="10.00"> met</text>
</g>
<!-- Node22&#45;&gt;Node6 -->
<g id="edge57" class="edge">
<title>Node22&#45;&gt;Node6</title>
<path fill="none" stroke="#9a32cd" stroke-dasharray="5,2" d="M2025.01,-826.53C1971.12,-761.54 1783.25,-535 1741.68,-484.87"/>
<polygon fill="#9a32cd" stroke="#9a32cd" points="2022.35,-828.81 2031.43,-834.27 2027.74,-824.34 2022.35,-828.81"/>
<text text-anchor="middle" x="1892" y="-717" font-family="Helvetica,sans-Serif" font-size="10.00"> def</text>
</g>
</g>
</svg>
