<?xml version="1.0" encoding="UTF-8" standalone="no"?>
<!DOCTYPE svg PUBLIC "-//W3C//DTD SVG 1.1//EN"
 "http://www.w3.org/Graphics/SVG/1.1/DTD/svg11.dtd">
<!-- Generated by graphviz version 2.47.1 (20210515.0534)
 -->
<!-- Title: Kadath::Metric Pages: 1 -->
<svg width="728pt" height="415pt"
 viewBox="0.00 0.00 728.00 414.50" xmlns="http://www.w3.org/2000/svg" xmlns:xlink="http://www.w3.org/1999/xlink">
<g id="graph0" class="graph" transform="scale(1 1) rotate(0) translate(4 410.5)">
<title>Kadath::Metric</title>
<!-- Node1 -->
<g id="node1" class="node">
<title>Node1</title>
<g id="a_node1"><a xlink:title=" ">
<polygon fill="#bfbfbf" stroke="black" points="164,-207 164,-226 243,-226 243,-207 164,-207"/>
<text text-anchor="middle" x="203.5" y="-214" font-family="Helvetica,sans-Serif" font-size="10.00">Kadath::Metric</text>
</a>
</g>
</g>
<!-- Node3 -->
<g id="node3" class="node">
<title>Node3</title>
<g id="a_node3"><a xlink:href="classKadath_1_1Metric__AADS.html" target="_top" xlink:title=" ">
<polygon fill="none" stroke="black" points="293.5,-387 293.5,-406 404.5,-406 404.5,-387 293.5,-387"/>
<text text-anchor="middle" x="349" y="-394" font-family="Helvetica,sans-Serif" font-size="10.00">Kadath::Metric_AADS</text>
</a>
</g>
</g>
<!-- Node1&#45;&gt;Node3 -->
<g id="edge2" class="edge">
<title>Node1&#45;&gt;Node3</title>
<path fill="none" stroke="midnightblue" d="M208.05,-236.25C215.22,-270.29 234.67,-339.93 279,-377.5 283.55,-381.36 288.82,-384.43 294.38,-386.89"/>
<polygon fill="midnightblue" stroke="midnightblue" points="211.43,-235.32 206.07,-226.18 204.56,-236.66 211.43,-235.32"/>
</g>
<!-- Node4 -->
<g id="node4" class="node">
<title>Node4</title>
<g id="a_node4"><a xlink:href="classKadath_1_1Metric__ADS.html" target="_top" xlink:title=" ">
<polygon fill="none" stroke="black" points="297,-349 297,-368 401,-368 401,-349 297,-349"/>
<text text-anchor="middle" x="349" y="-356" font-family="Helvetica,sans-Serif" font-size="10.00">Kadath::Metric_ADS</text>
</a>
</g>
</g>
<!-- Node1&#45;&gt;Node4 -->
<g id="edge3" class="edge">
<title>Node1&#45;&gt;Node4</title>
<path fill="none" stroke="midnightblue" d="M210.96,-235.78C221.08,-263.03 243.31,-312.51 279,-339.5 284.35,-343.55 290.52,-346.73 296.91,-349.24"/>
<polygon fill="midnightblue" stroke="midnightblue" points="214.2,-234.46 207.56,-226.2 207.6,-236.8 214.2,-234.46"/>
</g>
<!-- Node5 -->
<g id="node5" class="node">
<title>Node5</title>
<g id="a_node5"><a xlink:href="classKadath_1_1Metric__cfc.html" target="_top" xlink:title=" ">
<polygon fill="none" stroke="black" points="300,-311 300,-330 398,-330 398,-311 300,-311"/>
<text text-anchor="middle" x="349" y="-318" font-family="Helvetica,sans-Serif" font-size="10.00">Kadath::Metric_cfc</text>
</a>
</g>
</g>
<!-- Node1&#45;&gt;Node5 -->
<g id="edge4" class="edge">
<title>Node1&#45;&gt;Node5</title>
<path fill="none" stroke="midnightblue" d="M215.65,-234.57C228.55,-253.96 251.57,-284.3 279,-301.5 285.32,-305.46 292.46,-308.61 299.7,-311.1"/>
<polygon fill="midnightblue" stroke="midnightblue" points="218.51,-232.54 210.16,-226.03 212.62,-236.33 218.51,-232.54"/>
</g>
<!-- Node6 -->
<g id="node6" class="node">
<title>Node6</title>
<g id="a_node6"><a xlink:href="classKadath_1_1Metric__conf.html" target="_top" xlink:title=" ">
<polygon fill="none" stroke="black" points="297.5,-273 297.5,-292 400.5,-292 400.5,-273 297.5,-273"/>
<text text-anchor="middle" x="349" y="-280" font-family="Helvetica,sans-Serif" font-size="10.00">Kadath::Metric_conf</text>
</a>
</g>
</g>
<!-- Node1&#45;&gt;Node6 -->
<g id="edge5" class="edge">
<title>Node1&#45;&gt;Node6</title>
<path fill="none" stroke="midnightblue" d="M225.87,-231.86C240.31,-241.69 260.13,-254.13 279,-262.5 288.23,-266.6 298.53,-270.1 308.3,-272.98"/>
<polygon fill="midnightblue" stroke="midnightblue" points="227.83,-228.96 217.62,-226.14 223.84,-234.71 227.83,-228.96"/>
</g>
<!-- Node9 -->
<g id="node9" class="node">
<title>Node9</title>
<g id="a_node9"><a xlink:href="classKadath_1_1Metric__conf__factor.html" target="_top" xlink:title=" ">
<polygon fill="none" stroke="black" points="297.5,-223.5 297.5,-253.5 400.5,-253.5 400.5,-223.5 297.5,-223.5"/>
<text text-anchor="start" x="305.5" y="-241.5" font-family="Helvetica,sans-Serif" font-size="10.00">Kadath::Metric_conf</text>
<text text-anchor="middle" x="349" y="-230.5" font-family="Helvetica,sans-Serif" font-size="10.00">_factor</text>
</a>
</g>
</g>
<!-- Node1&#45;&gt;Node9 -->
<g id="edge8" class="edge">
<title>Node1&#45;&gt;Node9</title>
<path fill="none" stroke="midnightblue" d="M253.37,-223.99C267.52,-226.16 283,-228.53 297.26,-230.72"/>
<polygon fill="midnightblue" stroke="midnightblue" points="253.75,-220.51 243.33,-222.45 252.69,-227.43 253.75,-220.51"/>
</g>
<!-- Node11 -->
<g id="node11" class="node">
<title>Node11</title>
<g id="a_node11"><a xlink:href="classKadath_1_1Metric__flat.html" target="_top" xlink:title=" ">
<polygon fill="none" stroke="black" points="300.5,-185 300.5,-204 397.5,-204 397.5,-185 300.5,-185"/>
<text text-anchor="middle" x="349" y="-192" font-family="Helvetica,sans-Serif" font-size="10.00">Kadath::Metric_flat</text>
</a>
</g>
</g>
<!-- Node1&#45;&gt;Node11 -->
<g id="edge10" class="edge">
<title>Node1&#45;&gt;Node11</title>
<path fill="none" stroke="midnightblue" d="M253.55,-208.98C268.71,-206.66 285.37,-204.1 300.43,-201.79"/>
<polygon fill="midnightblue" stroke="midnightblue" points="252.69,-205.57 243.33,-210.55 253.75,-212.49 252.69,-205.57"/>
</g>
<!-- Node12 -->
<g id="node12" class="node">
<title>Node12</title>
<g id="a_node12"><a xlink:href="classKadath_1_1Metric__flat__nophi.html" target="_top" xlink:title=" ">
<polygon fill="none" stroke="black" points="300.5,-135.5 300.5,-165.5 397.5,-165.5 397.5,-135.5 300.5,-135.5"/>
<text text-anchor="start" x="308.5" y="-153.5" font-family="Helvetica,sans-Serif" font-size="10.00">Kadath::Metric_flat</text>
<text text-anchor="middle" x="349" y="-142.5" font-family="Helvetica,sans-Serif" font-size="10.00">_nophi</text>
</a>
</g>
</g>
<!-- Node1&#45;&gt;Node12 -->
<g id="edge11" class="edge">
<title>Node1&#45;&gt;Node12</title>
<path fill="none" stroke="midnightblue" d="M228.85,-201.84C243.17,-193.54 261.79,-183.3 279,-175.5 286.66,-172.03 294.96,-168.69 303.05,-165.64"/>
<polygon fill="midnightblue" stroke="midnightblue" points="226.97,-198.89 220.12,-206.97 230.51,-204.92 226.97,-198.89"/>
</g>
<!-- Node13 -->
<g id="node13" class="node">
<title>Node13</title>
<g id="a_node13"><a xlink:href="classKadath_1_1Metric__general.html" target="_top" xlink:title=" ">
<polygon fill="none" stroke="black" points="291,-97 291,-116 407,-116 407,-97 291,-97"/>
<text text-anchor="middle" x="349" y="-104" font-family="Helvetica,sans-Serif" font-size="10.00">Kadath::Metric_general</text>
</a>
</g>
</g>
<!-- Node1&#45;&gt;Node13 -->
<g id="edge12" class="edge">
<title>Node1&#45;&gt;Node13</title>
<path fill="none" stroke="midnightblue" d="M214.78,-198.07C227.29,-177.34 250.34,-144.15 279,-125.5 284.94,-121.64 291.65,-118.55 298.5,-116.09"/>
<polygon fill="midnightblue" stroke="midnightblue" points="211.66,-196.47 209.65,-206.87 217.71,-200 211.66,-196.47"/>
</g>
<!-- Node16 -->
<g id="node16" class="node">
<title>Node16</title>
<g id="a_node16"><a xlink:href="classKadath_1_1Metric__nophi.html" target="_top" xlink:title=" ">
<polygon fill="none" stroke="black" points="295.5,-56 295.5,-75 402.5,-75 402.5,-56 295.5,-56"/>
<text text-anchor="middle" x="349" y="-63" font-family="Helvetica,sans-Serif" font-size="10.00">Kadath::Metric_nophi</text>
</a>
</g>
</g>
<!-- Node1&#45;&gt;Node16 -->
<g id="edge15" class="edge">
<title>Node1&#45;&gt;Node16</title>
<path fill="none" stroke="midnightblue" d="M210.57,-197.28C220.42,-169.12 242.56,-116.84 279,-87.5 285.56,-82.22 293.42,-78.19 301.43,-75.13"/>
<polygon fill="midnightblue" stroke="midnightblue" points="207.24,-196.2 207.39,-206.79 213.88,-198.42 207.24,-196.2"/>
</g>
<!-- Node18 -->
<g id="node18" class="node">
<title>Node18</title>
<g id="a_node18"><a xlink:href="classKadath_1_1Metric__nophi__AADS.html" target="_top" xlink:title=" ">
<polygon fill="none" stroke="black" points="279,-13 279,-32 419,-32 419,-13 279,-13"/>
<text text-anchor="middle" x="349" y="-20" font-family="Helvetica,sans-Serif" font-size="10.00">Kadath::Metric_nophi_AADS</text>
</a>
</g>
</g>
<!-- Node1&#45;&gt;Node18 -->
<g id="edge17" class="edge">
<title>Node1&#45;&gt;Node18</title>
<path fill="none" stroke="midnightblue" d="M207.8,-196.93C214.7,-161.88 233.95,-88.15 279,-46.5 285.8,-40.21 294.33,-35.56 303.05,-32.12"/>
<polygon fill="midnightblue" stroke="midnightblue" points="204.34,-196.4 205.97,-206.87 211.22,-197.66 204.34,-196.4"/>
</g>
<!-- Node2 -->
<g id="node2" class="node">
<title>Node2</title>
<g id="a_node2"><a xlink:href="structKadath_1_1MemoryMappable.html" target="_top" xlink:title=" ">
<polygon fill="none" stroke="black" points="0,-207 0,-226 128,-226 128,-207 0,-207"/>
<text text-anchor="middle" x="64" y="-214" font-family="Helvetica,sans-Serif" font-size="10.00">Kadath::MemoryMappable</text>
</a>
</g>
</g>
<!-- Node2&#45;&gt;Node1 -->
<g id="edge1" class="edge">
<title>Node2&#45;&gt;Node1</title>
<path fill="none" stroke="midnightblue" d="M138.38,-216.5C147.12,-216.5 155.76,-216.5 163.72,-216.5"/>
<polygon fill="midnightblue" stroke="midnightblue" points="138.12,-213 128.12,-216.5 138.12,-220 138.12,-213"/>
</g>
<!-- Node7 -->
<g id="node7" class="node">
<title>Node7</title>
<g id="a_node7"><a xlink:href="classKadath_1_1Metric__dirac.html" target="_top" xlink:title=" ">
<polygon fill="none" stroke="black" points="464.5,-273 464.5,-292 569.5,-292 569.5,-273 464.5,-273"/>
<text text-anchor="middle" x="517" y="-280" font-family="Helvetica,sans-Serif" font-size="10.00">Kadath::Metric_dirac</text>
</a>
</g>
</g>
<!-- Node6&#45;&gt;Node7 -->
<g id="edge6" class="edge">
<title>Node6&#45;&gt;Node7</title>
<path fill="none" stroke="midnightblue" d="M410.87,-282.5C428.47,-282.5 447.49,-282.5 464.46,-282.5"/>
<polygon fill="midnightblue" stroke="midnightblue" points="410.71,-279 400.71,-282.5 410.71,-286 410.71,-279"/>
</g>
<!-- Node8 -->
<g id="node8" class="node">
<title>Node8</title>
<g id="a_node8"><a xlink:href="classKadath_1_1Metric__dirac__const.html" target="_top" xlink:title=" ">
<polygon fill="none" stroke="black" points="615,-267.5 615,-297.5 720,-297.5 720,-267.5 615,-267.5"/>
<text text-anchor="start" x="623" y="-285.5" font-family="Helvetica,sans-Serif" font-size="10.00">Kadath::Metric_dirac</text>
<text text-anchor="middle" x="667.5" y="-274.5" font-family="Helvetica,sans-Serif" font-size="10.00">_const</text>
</a>
</g>
</g>
<!-- Node7&#45;&gt;Node8 -->
<g id="edge7" class="edge">
<title>Node7&#45;&gt;Node8</title>
<path fill="none" stroke="midnightblue" d="M579.66,-282.5C591.35,-282.5 603.47,-282.5 614.82,-282.5"/>
<polygon fill="midnightblue" stroke="midnightblue" points="579.52,-279 569.52,-282.5 579.52,-286 579.52,-279"/>
</g>
<!-- Node10 -->
<g id="node10" class="node">
<title>Node10</title>
<g id="a_node10"><a xlink:href="classKadath_1_1Metric__conf__factor__const.html" target="_top" xlink:title=" ">
<polygon fill="none" stroke="black" points="465.5,-223.5 465.5,-253.5 568.5,-253.5 568.5,-223.5 465.5,-223.5"/>
<text text-anchor="start" x="473.5" y="-241.5" font-family="Helvetica,sans-Serif" font-size="10.00">Kadath::Metric_conf</text>
<text text-anchor="middle" x="517" y="-230.5" font-family="Helvetica,sans-Serif" font-size="10.00">_factor_const</text>
</a>
</g>
</g>
<!-- Node9&#45;&gt;Node10 -->
<g id="edge9" class="edge">
<title>Node9&#45;&gt;Node10</title>
<path fill="none" stroke="midnightblue" d="M410.77,-238.5C428.69,-238.5 448.1,-238.5 465.32,-238.5"/>
<polygon fill="midnightblue" stroke="midnightblue" points="410.71,-235 400.71,-238.5 410.71,-242 410.71,-235"/>
</g>
<!-- Node14 -->
<g id="node14" class="node">
<title>Node14</title>
<g id="a_node14"><a xlink:href="classKadath_1_1Metric__const.html" target="_top" xlink:title=" ">
<polygon fill="none" stroke="black" points="463,-137 463,-156 571,-156 571,-137 463,-137"/>
<text text-anchor="middle" x="517" y="-144" font-family="Helvetica,sans-Serif" font-size="10.00">Kadath::Metric_const</text>
</a>
</g>
</g>
<!-- Node13&#45;&gt;Node14 -->
<g id="edge13" class="edge">
<title>Node13&#45;&gt;Node14</title>
<path fill="none" stroke="midnightblue" d="M399.63,-118.46C424.23,-124.39 453.52,-131.45 476.56,-137"/>
<polygon fill="midnightblue" stroke="midnightblue" points="400.3,-115.02 389.76,-116.08 398.66,-121.83 400.3,-115.02"/>
</g>
<!-- Node15 -->
<g id="node15" class="node">
<title>Node15</title>
<g id="a_node15"><a xlink:href="classKadath_1_1Metric__harmonic.html" target="_top" xlink:title=" ">
<polygon fill="none" stroke="black" points="455,-99 455,-118 579,-118 579,-99 455,-99"/>
<text text-anchor="middle" x="517" y="-106" font-family="Helvetica,sans-Serif" font-size="10.00">Kadath::Metric_harmonic</text>
</a>
</g>
</g>
<!-- Node13&#45;&gt;Node15 -->
<g id="edge14" class="edge">
<title>Node13&#45;&gt;Node15</title>
<path fill="none" stroke="midnightblue" d="M417.39,-107.31C429.76,-107.46 442.62,-107.62 454.8,-107.76"/>
<polygon fill="midnightblue" stroke="midnightblue" points="417.17,-103.81 407.13,-107.19 417.08,-110.81 417.17,-103.81"/>
</g>
<!-- Node17 -->
<g id="node17" class="node">
<title>Node17</title>
<g id="a_node17"><a xlink:href="classKadath_1_1Metric__nophi__const.html" target="_top" xlink:title=" ">
<polygon fill="none" stroke="black" points="463.5,-49.5 463.5,-79.5 570.5,-79.5 570.5,-49.5 463.5,-49.5"/>
<text text-anchor="start" x="471.5" y="-67.5" font-family="Helvetica,sans-Serif" font-size="10.00">Kadath::Metric_nophi</text>
<text text-anchor="middle" x="517" y="-56.5" font-family="Helvetica,sans-Serif" font-size="10.00">_const</text>
</a>
</g>
</g>
<!-- Node16&#45;&gt;Node17 -->
<g id="edge16" class="edge">
<title>Node16&#45;&gt;Node17</title>
<path fill="none" stroke="midnightblue" d="M412.72,-65.12C429.37,-65.02 447.19,-64.91 463.25,-64.82"/>
<polygon fill="midnightblue" stroke="midnightblue" points="412.5,-61.62 402.52,-65.18 412.54,-68.62 412.5,-61.62"/>
</g>
<!-- Node19 -->
<g id="node19" class="node">
<title>Node19</title>
<g id="a_node19"><a xlink:href="classKadath_1_1Metric__nophi__AADS__const.html" target="_top" xlink:title=" ">
<polygon fill="none" stroke="black" points="463.5,-0.5 463.5,-30.5 570.5,-30.5 570.5,-0.5 463.5,-0.5"/>
<text text-anchor="start" x="471.5" y="-18.5" font-family="Helvetica,sans-Serif" font-size="10.00">Kadath::Metric_nophi</text>
<text text-anchor="middle" x="517" y="-7.5" font-family="Helvetica,sans-Serif" font-size="10.00">_AADS_const</text>
</a>
</g>
</g>
<!-- Node18&#45;&gt;Node19 -->
<g id="edge18" class="edge">
<title>Node18&#45;&gt;Node19</title>
<path fill="none" stroke="midnightblue" d="M429.47,-19.15C440.93,-18.67 452.49,-18.18 463.26,-17.72"/>
<polygon fill="midnightblue" stroke="midnightblue" points="429.28,-15.65 419.44,-19.57 429.58,-22.65 429.28,-15.65"/>
</g>
</g>
</svg>
