<?xml version="1.0" encoding="UTF-8" standalone="no"?>
<!DOCTYPE svg PUBLIC "-//W3C//DTD SVG 1.1//EN"
 "http://www.w3.org/Graphics/SVG/1.1/DTD/svg11.dtd">
<!-- Generated by graphviz version 2.47.1 (20210515.0534)
 -->
<!-- Title: Kadath::Space_adapted_bh Pages: 1 -->
<svg width="548pt" height="324pt"
 viewBox="0.00 0.00 548.00 324.00" xmlns="http://www.w3.org/2000/svg" xmlns:xlink="http://www.w3.org/1999/xlink">
<g id="graph0" class="graph" transform="scale(1 1) rotate(0) translate(4 320)">
<title>Kadath::Space_adapted_bh</title>
<!-- Node1 -->
<g id="node1" class="node">
<title>Node1</title>
<g id="a_node1"><a xlink:title=" ">
<polygon fill="#bfbfbf" stroke="black" points="0,-0.5 0,-19.5 135,-19.5 135,-0.5 0,-0.5"/>
<text text-anchor="middle" x="67.5" y="-7.5" font-family="Helvetica,sans-Serif" font-size="10.00">Kadath::Space_adapted_bh</text>
</a>
</g>
</g>
<!-- Node2 -->
<g id="node2" class="node">
<title>Node2</title>
<g id="a_node2"><a xlink:href="classKadath_1_1Space.html" target="_top" xlink:title=" ">
<polygon fill="none" stroke="black" points="27.5,-58.5 27.5,-77.5 107.5,-77.5 107.5,-58.5 27.5,-58.5"/>
<text text-anchor="middle" x="67.5" y="-65.5" font-family="Helvetica,sans-Serif" font-size="10.00">Kadath::Space</text>
</a>
</g>
</g>
<!-- Node2&#45;&gt;Node1 -->
<g id="edge1" class="edge">
<title>Node2&#45;&gt;Node1</title>
<path fill="none" stroke="midnightblue" d="M67.5,-47.95C67.5,-38.29 67.5,-27.03 67.5,-19.51"/>
<polygon fill="midnightblue" stroke="midnightblue" points="64,-48.25 67.5,-58.25 71,-48.25 64,-48.25"/>
</g>
<!-- Node3 -->
<g id="node3" class="node">
<title>Node3</title>
<g id="a_node3"><a xlink:href="structKadath_1_1MemoryMappable.html" target="_top" xlink:title=" ">
<polygon fill="none" stroke="black" points="220.5,-296.5 220.5,-315.5 348.5,-315.5 348.5,-296.5 220.5,-296.5"/>
<text text-anchor="middle" x="284.5" y="-303.5" font-family="Helvetica,sans-Serif" font-size="10.00">Kadath::MemoryMappable</text>
</a>
</g>
</g>
<!-- Node3&#45;&gt;Node2 -->
<g id="edge2" class="edge">
<title>Node3&#45;&gt;Node2</title>
<path fill="none" stroke="midnightblue" d="M210.17,-296.96C162.7,-290.06 107.52,-278.14 93.5,-259 51.2,-201.25 61.61,-106.49 66.03,-77.62"/>
<polygon fill="midnightblue" stroke="midnightblue" points="209.77,-300.44 220.16,-298.35 210.74,-293.5 209.77,-300.44"/>
</g>
<!-- Node4 -->
<g id="node4" class="node">
<title>Node4</title>
<g id="a_node4"><a xlink:href="classKadath_1_1Domain.html" target="_top" xlink:title=" ">
<polygon fill="none" stroke="black" points="122,-160.5 122,-179.5 207,-179.5 207,-160.5 122,-160.5"/>
<text text-anchor="middle" x="164.5" y="-167.5" font-family="Helvetica,sans-Serif" font-size="10.00">Kadath::Domain</text>
</a>
</g>
</g>
<!-- Node3&#45;&gt;Node4 -->
<g id="edge4" class="edge">
<title>Node3&#45;&gt;Node4</title>
<path fill="none" stroke="midnightblue" d="M210.28,-295.56C166.09,-288.25 116.04,-276.39 102.5,-259 80.57,-230.84 125.88,-195.71 150.3,-179.69"/>
<polygon fill="midnightblue" stroke="midnightblue" points="209.76,-299.02 220.19,-297.14 210.87,-292.11 209.76,-299.02"/>
</g>
<!-- Node5 -->
<g id="node5" class="node">
<title>Node5</title>
<g id="a_node5"><a xlink:href="classKadath_1_1Dim__array.html" target="_top" xlink:title=" ">
<polygon fill="none" stroke="black" points="112,-239.5 112,-258.5 207,-258.5 207,-239.5 112,-239.5"/>
<text text-anchor="middle" x="159.5" y="-246.5" font-family="Helvetica,sans-Serif" font-size="10.00">Kadath::Dim_array</text>
</a>
</g>
</g>
<!-- Node3&#45;&gt;Node5 -->
<g id="edge6" class="edge">
<title>Node3&#45;&gt;Node5</title>
<path fill="none" stroke="midnightblue" d="M255.8,-292.37C232.23,-282 199.48,-267.59 178.89,-258.53"/>
<polygon fill="midnightblue" stroke="midnightblue" points="254.41,-295.58 264.97,-296.41 257.23,-289.18 254.41,-295.58"/>
</g>
<!-- Node6 -->
<g id="node6" class="node">
<title>Node6</title>
<g id="a_node6"><a xlink:href="classKadath_1_1Array.html" target="_top" xlink:title=" ">
<polygon fill="none" stroke="black" points="225,-239.5 225,-258.5 344,-258.5 344,-239.5 225,-239.5"/>
<text text-anchor="middle" x="284.5" y="-246.5" font-family="Helvetica,sans-Serif" font-size="10.00">Kadath::Array&lt; double &gt;</text>
</a>
</g>
</g>
<!-- Node3&#45;&gt;Node6 -->
<g id="edge8" class="edge">
<title>Node3&#45;&gt;Node6</title>
<path fill="none" stroke="midnightblue" d="M284.5,-286.12C284.5,-276.82 284.5,-266.06 284.5,-258.71"/>
<polygon fill="midnightblue" stroke="midnightblue" points="281,-286.41 284.5,-296.41 288,-286.41 281,-286.41"/>
</g>
<!-- Node7 -->
<g id="node7" class="node">
<title>Node7</title>
<g id="a_node7"><a xlink:href="classKadath_1_1Val__domain.html" target="_top" xlink:title=" ">
<polygon fill="none" stroke="black" points="233,-58.5 233,-77.5 336,-77.5 336,-58.5 233,-58.5"/>
<text text-anchor="middle" x="284.5" y="-65.5" font-family="Helvetica,sans-Serif" font-size="10.00">Kadath::Val_domain</text>
</a>
</g>
</g>
<!-- Node3&#45;&gt;Node7 -->
<g id="edge10" class="edge">
<title>Node3&#45;&gt;Node7</title>
<path fill="none" stroke="midnightblue" d="M316.99,-291.87C330.87,-284.43 345.66,-273.65 353.5,-259 357.69,-251.16 355.13,-247.74 353.5,-239 341.33,-173.87 303.38,-102.35 289.58,-77.82"/>
<polygon fill="midnightblue" stroke="midnightblue" points="315.05,-288.92 307.62,-296.48 318.14,-295.2 315.05,-288.92"/>
</g>
<!-- Node8 -->
<g id="node8" class="node">
<title>Node8</title>
<g id="a_node8"><a xlink:href="classKadath_1_1Base__spectral.html" target="_top" xlink:title=" ">
<polygon fill="none" stroke="black" points="400.5,-160.5 400.5,-179.5 514.5,-179.5 514.5,-160.5 400.5,-160.5"/>
<text text-anchor="middle" x="457.5" y="-167.5" font-family="Helvetica,sans-Serif" font-size="10.00">Kadath::Base_spectral</text>
</a>
</g>
</g>
<!-- Node3&#45;&gt;Node8 -->
<g id="edge14" class="edge">
<title>Node3&#45;&gt;Node8</title>
<path fill="none" stroke="midnightblue" d="M355.41,-293.43C366.44,-289.65 377.23,-284.64 386.5,-278 423.1,-251.77 446.15,-200.31 454.24,-179.77"/>
<polygon fill="midnightblue" stroke="midnightblue" points="354.2,-290.14 345.69,-296.44 356.27,-296.83 354.2,-290.14"/>
</g>
<!-- Node9 -->
<g id="node9" class="node">
<title>Node9</title>
<g id="a_node9"><a xlink:href="classKadath_1_1Array.html" target="_top" xlink:title=" ">
<polygon fill="none" stroke="black" points="439,-239.5 439,-258.5 540,-258.5 540,-239.5 439,-239.5"/>
<text text-anchor="middle" x="489.5" y="-246.5" font-family="Helvetica,sans-Serif" font-size="10.00">Kadath::Array&lt; int &gt;</text>
</a>
</g>
</g>
<!-- Node3&#45;&gt;Node9 -->
<g id="edge16" class="edge">
<title>Node3&#45;&gt;Node9</title>
<path fill="none" stroke="midnightblue" d="M353.72,-294.71C376.52,-290.52 401.83,-284.98 424.5,-278 441.29,-272.83 459.61,-264.7 472.5,-258.53"/>
<polygon fill="midnightblue" stroke="midnightblue" points="353,-291.28 343.78,-296.49 354.23,-298.18 353,-291.28"/>
</g>
<!-- Node4&#45;&gt;Node2 -->
<g id="edge3" class="edge">
<title>Node4&#45;&gt;Node2</title>
<path fill="none" stroke="#9a32cd" stroke-dasharray="5,2" d="M127.33,-156.3C119.15,-152.31 111,-147.26 104.5,-141 85.47,-122.68 74.43,-92.44 69.92,-77.66"/>
<polygon fill="#9a32cd" stroke="#9a32cd" points="125.93,-159.51 136.49,-160.38 128.78,-153.12 125.93,-159.51"/>
<text text-anchor="middle" x="124.5" y="-116.5" font-family="Helvetica,sans-Serif" font-size="10.00"> domains</text>
</g>
<!-- Node4&#45;&gt;Node7 -->
<g id="edge17" class="edge">
<title>Node4&#45;&gt;Node7</title>
<path fill="none" stroke="#9a32cd" stroke-dasharray="5,2" d="M159.33,-150.54C156.07,-134.59 154.45,-111.82 166.5,-97 175.1,-86.42 205.2,-79.38 232.84,-75.01"/>
<polygon fill="#9a32cd" stroke="#9a32cd" points="155.95,-151.43 161.71,-160.32 162.75,-149.78 155.95,-151.43"/>
<text text-anchor="middle" x="178" y="-116.5" font-family="Helvetica,sans-Serif" font-size="10.00"> zone</text>
</g>
<!-- Node5&#45;&gt;Node4 -->
<g id="edge5" class="edge">
<title>Node5&#45;&gt;Node4</title>
<path fill="none" stroke="#9a32cd" stroke-dasharray="5,2" d="M160.71,-229.31C161.73,-213.59 163.15,-191.81 163.93,-179.81"/>
<polygon fill="#9a32cd" stroke="#9a32cd" points="157.21,-229.26 160.05,-239.47 164.19,-229.71 157.21,-229.26"/>
<text text-anchor="middle" x="186.5" y="-213" font-family="Helvetica,sans-Serif" font-size="10.00"> nbr_coefs</text>
<text text-anchor="middle" x="186.5" y="-202" font-family="Helvetica,sans-Serif" font-size="10.00">nbr_points</text>
</g>
<!-- Node6&#45;&gt;Node4 -->
<g id="edge7" class="edge">
<title>Node6&#45;&gt;Node4</title>
<path fill="none" stroke="#9a32cd" stroke-dasharray="5,2" d="M263.13,-233.71C257.08,-229.63 250.52,-225.17 244.5,-221 230.61,-211.38 227.74,-208.09 213.5,-199 202.76,-192.15 190.3,-185.03 180.62,-179.69"/>
<polygon fill="#9a32cd" stroke="#9a32cd" points="261.23,-236.65 271.48,-239.32 265.13,-230.84 261.23,-236.65"/>
<text text-anchor="middle" x="257.5" y="-207.5" font-family="Helvetica,sans-Serif" font-size="10.00"> coloc</text>
</g>
<!-- Node6&#45;&gt;Node7 -->
<g id="edge11" class="edge">
<title>Node6&#45;&gt;Node7</title>
<path fill="none" stroke="#9a32cd" stroke-dasharray="5,2" d="M284.5,-229.09C284.5,-190.68 284.5,-104.89 284.5,-77.55"/>
<polygon fill="#9a32cd" stroke="#9a32cd" points="281,-229.37 284.5,-239.37 288,-229.37 281,-229.37"/>
<text text-anchor="middle" x="289" y="-173" font-family="Helvetica,sans-Serif" font-size="10.00"> c</text>
<text text-anchor="middle" x="289" y="-162" font-family="Helvetica,sans-Serif" font-size="10.00">cf</text>
</g>
<!-- Node7&#45;&gt;Node4 -->
<g id="edge9" class="edge">
<title>Node7&#45;&gt;Node4</title>
<path fill="none" stroke="#9a32cd" stroke-dasharray="5,2" d="M254.96,-82.13C246.97,-86.33 238.58,-91.36 231.5,-97 211.28,-113.09 211.26,-122.23 193.5,-141 187.15,-147.71 179.64,-154.95 173.85,-160.38"/>
<polygon fill="#9a32cd" stroke="#9a32cd" points="256.65,-85.19 264.05,-77.61 253.54,-78.93 256.65,-85.19"/>
<text text-anchor="middle" x="251" y="-133" font-family="Helvetica,sans-Serif" font-size="10.00"> absol</text>
<text text-anchor="middle" x="251" y="-122" font-family="Helvetica,sans-Serif" font-size="10.00">cart</text>
<text text-anchor="middle" x="251" y="-111" font-family="Helvetica,sans-Serif" font-size="10.00">cart_surr</text>
<text text-anchor="middle" x="251" y="-100" font-family="Helvetica,sans-Serif" font-size="10.00">radius</text>
</g>
<!-- Node7&#45;&gt;Node7 -->
<g id="edge12" class="edge">
<title>Node7&#45;&gt;Node7</title>
<path fill="none" stroke="#9a32cd" stroke-dasharray="5,2" d="M346.32,-71.95C351.07,-71.08 354,-69.76 354,-68 354,-65.18 346.5,-63.5 336.03,-62.95"/>
<polygon fill="#9a32cd" stroke="#9a32cd" points="345.6,-68.51 336.03,-73.05 346.34,-75.47 345.6,-68.51"/>
<text text-anchor="middle" x="378" y="-71" font-family="Helvetica,sans-Serif" font-size="10.00"> p_der_abs</text>
<text text-anchor="middle" x="378" y="-60" font-family="Helvetica,sans-Serif" font-size="10.00">p_der_var</text>
</g>
<!-- Node8&#45;&gt;Node7 -->
<g id="edge13" class="edge">
<title>Node8&#45;&gt;Node7</title>
<path fill="none" stroke="#9a32cd" stroke-dasharray="5,2" d="M445.33,-152.31C432.49,-135.87 410.78,-111.23 386.5,-97 371.13,-87.99 352.77,-81.79 335.88,-77.56"/>
<polygon fill="#9a32cd" stroke="#9a32cd" points="442.69,-154.61 451.51,-160.47 448.27,-150.39 442.69,-154.61"/>
<text text-anchor="middle" x="446.5" y="-116.5" font-family="Helvetica,sans-Serif" font-size="10.00"> base</text>
</g>
<!-- Node9&#45;&gt;Node8 -->
<g id="edge15" class="edge">
<title>Node9&#45;&gt;Node8</title>
<path fill="none" stroke="#9a32cd" stroke-dasharray="5,2" d="M482.11,-230.22C475.55,-214.44 466.24,-192.04 461.16,-179.81"/>
<polygon fill="#9a32cd" stroke="#9a32cd" points="478.88,-231.57 485.95,-239.47 485.35,-228.89 478.88,-231.57"/>
<text text-anchor="middle" x="500" y="-207.5" font-family="Helvetica,sans-Serif" font-size="10.00"> bases_1d</text>
</g>
</g>
</svg>
