<?xml version="1.0" encoding="UTF-8" standalone="no"?>
<!DOCTYPE svg PUBLIC "-//W3C//DTD SVG 1.1//EN"
 "http://www.w3.org/Graphics/SVG/1.1/DTD/svg11.dtd">
<!-- Generated by graphviz version 2.47.1 (20210515.0534)
 -->
<!-- Title: Kadath::Ope_def Pages: 1 -->
<svg width="2283pt" height="800pt"
 viewBox="0.00 0.00 2283.00 800.01" xmlns="http://www.w3.org/2000/svg" xmlns:xlink="http://www.w3.org/1999/xlink">
<g id="graph0" class="graph" transform="scale(1 1) rotate(0) translate(4 796.01)">
<title>Kadath::Ope_def</title>
<!-- Node1 -->
<g id="node1" class="node">
<title>Node1</title>
<g id="a_node1"><a xlink:title=" ">
<polygon fill="#bfbfbf" stroke="black" points="1677,-440.5 1677,-459.5 1766,-459.5 1766,-440.5 1677,-440.5"/>
<text text-anchor="middle" x="1721.5" y="-447.5" font-family="Helvetica,sans-Serif" font-size="10.00">Kadath::Ope_def</text>
</a>
</g>
</g>
<!-- Node4 -->
<g id="node4" class="node">
<title>Node4</title>
<g id="a_node4"><a xlink:href="classKadath_1_1System__of__eqs.html" target="_top" xlink:title=" ">
<polygon fill="none" stroke="black" points="1863,-337.5 1863,-356.5 1982,-356.5 1982,-337.5 1863,-337.5"/>
<text text-anchor="middle" x="1922.5" y="-344.5" font-family="Helvetica,sans-Serif" font-size="10.00">Kadath::System_of_eqs</text>
</a>
</g>
</g>
<!-- Node1&#45;&gt;Node4 -->
<g id="edge58" class="edge">
<title>Node1&#45;&gt;Node4</title>
<path fill="none" stroke="#9a32cd" stroke-dasharray="5,2" d="M1749.78,-435.88C1790.88,-414.61 1867.62,-374.89 1902.89,-356.63"/>
<polygon fill="#9a32cd" stroke="#9a32cd" points="1748.14,-432.79 1740.86,-440.49 1751.35,-439.01 1748.14,-432.79"/>
<text text-anchor="middle" x="1814.5" y="-419" font-family="Helvetica,sans-Serif" font-size="10.00"> def</text>
</g>
<!-- Node2 -->
<g id="node2" class="node">
<title>Node2</title>
<g id="a_node2"><a xlink:href="classKadath_1_1Ope__eq.html" target="_top" xlink:title=" ">
<polygon fill="none" stroke="black" points="2039,-262.5 2039,-281.5 2125,-281.5 2125,-262.5 2039,-262.5"/>
<text text-anchor="middle" x="2082" y="-269.5" font-family="Helvetica,sans-Serif" font-size="10.00">Kadath::Ope_eq</text>
</a>
</g>
</g>
<!-- Node2&#45;&gt;Node1 -->
<g id="edge1" class="edge">
<title>Node2&#45;&gt;Node1</title>
<path fill="none" stroke="midnightblue" d="M2066.12,-289.11C2047.84,-309.38 2015.15,-343.26 1982,-366 1926.42,-404.12 1909.42,-411.18 1845,-431 1819.49,-438.85 1789.95,-443.55 1766.28,-446.31"/>
<polygon fill="midnightblue" stroke="midnightblue" points="2068.79,-291.38 2072.82,-281.58 2063.56,-286.73 2068.79,-291.38"/>
</g>
<!-- Node2&#45;&gt;Node2 -->
<g id="edge3" class="edge">
<title>Node2&#45;&gt;Node2</title>
<path fill="none" stroke="#9a32cd" stroke-dasharray="5,2" d="M2069.11,-291.77C2070.12,-296.5 2074.42,-300 2082,-300 2094.44,-300 2098.04,-290.57 2092.79,-281.76"/>
<polygon fill="#9a32cd" stroke="#9a32cd" points="2072.58,-292.26 2071.21,-281.76 2065.73,-290.82 2072.58,-292.26"/>
<text text-anchor="middle" x="2082" y="-303" font-family="Helvetica,sans-Serif" font-size="10.00"> parts</text>
</g>
<!-- Node5 -->
<g id="node5" class="node">
<title>Node5</title>
<g id="a_node5"><a xlink:href="classKadath_1_1Equation.html" target="_top" xlink:title=" ">
<polygon fill="none" stroke="black" points="2186,-116.5 2186,-135.5 2275,-135.5 2275,-116.5 2186,-116.5"/>
<text text-anchor="middle" x="2230.5" y="-123.5" font-family="Helvetica,sans-Serif" font-size="10.00">Kadath::Equation</text>
</a>
</g>
</g>
<!-- Node2&#45;&gt;Node5 -->
<g id="edge9" class="edge">
<title>Node2&#45;&gt;Node5</title>
<path fill="none" stroke="#9a32cd" stroke-dasharray="5,2" d="M2114.59,-257.93C2131.72,-249.25 2152.49,-236.93 2168,-222 2195.52,-195.51 2216.5,-154.4 2225.16,-135.77"/>
<polygon fill="#9a32cd" stroke="#9a32cd" points="2112.95,-254.83 2105.5,-262.37 2116.02,-261.12 2112.95,-254.83"/>
<text text-anchor="middle" x="2155.5" y="-243" font-family="Helvetica,sans-Serif" font-size="10.00"> parts</text>
</g>
<!-- Node12 -->
<g id="node12" class="node">
<title>Node12</title>
<g id="a_node12"><a xlink:href="classKadath_1_1Eq__int.html" target="_top" xlink:title=" ">
<polygon fill="none" stroke="black" points="2191,-337.5 2191,-356.5 2270,-356.5 2270,-337.5 2191,-337.5"/>
<text text-anchor="middle" x="2230.5" y="-344.5" font-family="Helvetica,sans-Serif" font-size="10.00">Kadath::Eq_int</text>
</a>
</g>
</g>
<!-- Node2&#45;&gt;Node12 -->
<g id="edge26" class="edge">
<title>Node2&#45;&gt;Node12</title>
<path fill="none" stroke="#9a32cd" stroke-dasharray="5,2" d="M2111.13,-286.4C2140.42,-301.4 2185.48,-324.47 2210.72,-337.39"/>
<polygon fill="#9a32cd" stroke="#9a32cd" points="2112.35,-283.09 2101.85,-281.65 2109.16,-289.32 2112.35,-283.09"/>
<text text-anchor="middle" x="2155.5" y="-316" font-family="Helvetica,sans-Serif" font-size="10.00"> parts</text>
</g>
<!-- Node3 -->
<g id="node3" class="node">
<title>Node3</title>
<g id="a_node3"><a xlink:href="structKadath_1_1MemoryMappable.html" target="_top" xlink:title=" ">
<polygon fill="none" stroke="black" points="0,-381.5 0,-400.5 128,-400.5 128,-381.5 0,-381.5"/>
<text text-anchor="middle" x="64" y="-388.5" font-family="Helvetica,sans-Serif" font-size="10.00">Kadath::MemoryMappable</text>
</a>
</g>
</g>
<!-- Node3&#45;&gt;Node2 -->
<g id="edge2" class="edge">
<title>Node3&#45;&gt;Node2</title>
<path fill="none" stroke="midnightblue" d="M64.33,-370.8C62.97,-295.85 68.88,-38 214.5,-38 214.5,-38 214.5,-38 952,-38 1252.11,-38 1332.75,-24.77 1625,-93 1817.73,-138 1853.78,-187.26 2039,-257 2043.78,-258.8 2048.89,-260.67 2053.84,-262.45"/>
<polygon fill="midnightblue" stroke="midnightblue" points="60.84,-371.28 64.59,-381.19 67.84,-371.11 60.84,-371.28"/>
</g>
<!-- Node3&#45;&gt;Node5 -->
<g id="edge6" class="edge">
<title>Node3&#45;&gt;Node5</title>
<path fill="none" stroke="midnightblue" d="M66.98,-371.22C72.85,-318.26 93.23,-169.78 146,-59 163.28,-22.73 174.32,0 214.5,0 214.5,0 214.5,0 2083,0 2154.12,0 2207.92,-86.41 2224.31,-116.11"/>
<polygon fill="midnightblue" stroke="midnightblue" points="63.48,-370.97 65.91,-381.28 70.44,-371.7 63.48,-370.97"/>
</g>
<!-- Node6 -->
<g id="node6" class="node">
<title>Node6</title>
<g id="a_node6"><a xlink:href="classKadath_1_1Array.html" target="_top" xlink:title=" ">
<polygon fill="none" stroke="black" points="165,-381.5 165,-400.5 266,-400.5 266,-381.5 165,-381.5"/>
<text text-anchor="middle" x="215.5" y="-388.5" font-family="Helvetica,sans-Serif" font-size="10.00">Kadath::Array&lt; int &gt;</text>
</a>
</g>
</g>
<!-- Node3&#45;&gt;Node6 -->
<g id="edge8" class="edge">
<title>Node3&#45;&gt;Node6</title>
<path fill="none" stroke="midnightblue" d="M138.68,-391C147.46,-391 156.26,-391 164.6,-391"/>
<polygon fill="midnightblue" stroke="midnightblue" points="138.4,-387.5 128.4,-391 138.4,-394.5 138.4,-387.5"/>
</g>
<!-- Node7 -->
<g id="node7" class="node">
<title>Node7</title>
<g id="a_node7"><a xlink:href="classKadath_1_1Domain.html" target="_top" xlink:title=" ">
<polygon fill="none" stroke="black" points="828,-217.5 828,-236.5 913,-236.5 913,-217.5 828,-217.5"/>
<text text-anchor="middle" x="870.5" y="-224.5" font-family="Helvetica,sans-Serif" font-size="10.00">Kadath::Domain</text>
</a>
</g>
</g>
<!-- Node3&#45;&gt;Node7 -->
<g id="edge11" class="edge">
<title>Node3&#45;&gt;Node7</title>
<path fill="none" stroke="midnightblue" d="M71.41,-371.96C83.71,-338.73 113.99,-270.8 165,-240 342.79,-132.66 424.51,-215.29 632,-224 711.09,-227.32 730.87,-231.99 810,-230 815.79,-229.85 821.89,-229.63 827.9,-229.37"/>
<polygon fill="midnightblue" stroke="midnightblue" points="68.1,-370.84 68.05,-381.43 74.69,-373.18 68.1,-370.84"/>
</g>
<!-- Node8 -->
<g id="node8" class="node">
<title>Node8</title>
<g id="a_node8"><a xlink:href="classKadath_1_1Dim__array.html" target="_top" xlink:title=" ">
<polygon fill="none" stroke="black" points="168,-293.5 168,-312.5 263,-312.5 263,-293.5 168,-293.5"/>
<text text-anchor="middle" x="215.5" y="-300.5" font-family="Helvetica,sans-Serif" font-size="10.00">Kadath::Dim_array</text>
</a>
</g>
</g>
<!-- Node3&#45;&gt;Node8 -->
<g id="edge13" class="edge">
<title>Node3&#45;&gt;Node8</title>
<path fill="none" stroke="midnightblue" d="M82.55,-374.28C98.18,-360.12 122.2,-340.09 146,-327 156.6,-321.17 168.88,-316.34 180.1,-312.57"/>
<polygon fill="midnightblue" stroke="midnightblue" points="80.16,-371.72 75.19,-381.08 84.91,-376.86 80.16,-371.72"/>
</g>
<!-- Node9 -->
<g id="node9" class="node">
<title>Node9</title>
<g id="a_node9"><a xlink:href="classKadath_1_1Array.html" target="_top" xlink:title=" ">
<polygon fill="none" stroke="black" points="415,-134.5 415,-153.5 534,-153.5 534,-134.5 415,-134.5"/>
<text text-anchor="middle" x="474.5" y="-141.5" font-family="Helvetica,sans-Serif" font-size="10.00">Kadath::Array&lt; double &gt;</text>
</a>
</g>
</g>
<!-- Node3&#45;&gt;Node9 -->
<g id="edge15" class="edge">
<title>Node3&#45;&gt;Node9</title>
<path fill="none" stroke="midnightblue" d="M66.3,-371.06C70.21,-328.91 85.66,-230.8 146,-184 223.51,-123.88 343.87,-126.3 415.07,-134.48"/>
<polygon fill="midnightblue" stroke="midnightblue" points="62.8,-370.91 65.49,-381.16 69.78,-371.47 62.8,-370.91"/>
</g>
<!-- Node10 -->
<g id="node10" class="node">
<title>Node10</title>
<g id="a_node10"><a xlink:href="classKadath_1_1Val__domain.html" target="_top" xlink:title=" ">
<polygon fill="none" stroke="black" points="650,-104.5 650,-123.5 753,-123.5 753,-104.5 650,-104.5"/>
<text text-anchor="middle" x="701.5" y="-111.5" font-family="Helvetica,sans-Serif" font-size="10.00">Kadath::Val_domain</text>
</a>
</g>
</g>
<!-- Node3&#45;&gt;Node10 -->
<g id="edge17" class="edge">
<title>Node3&#45;&gt;Node10</title>
<path fill="none" stroke="midnightblue" d="M65.77,-371.18C68.9,-321.23 84.75,-190.11 165,-133 323.79,-20 581.32,-79.22 669.63,-104.47"/>
<polygon fill="midnightblue" stroke="midnightblue" points="62.27,-371.14 65.25,-381.3 69.26,-371.5 62.27,-371.14"/>
</g>
<!-- Node11 -->
<g id="node11" class="node">
<title>Node11</title>
<g id="a_node11"><a xlink:href="classKadath_1_1Base__spectral.html" target="_top" xlink:title=" ">
<polygon fill="none" stroke="black" points="417.5,-229.5 417.5,-248.5 531.5,-248.5 531.5,-229.5 417.5,-229.5"/>
<text text-anchor="middle" x="474.5" y="-236.5" font-family="Helvetica,sans-Serif" font-size="10.00">Kadath::Base_spectral</text>
</a>
</g>
</g>
<!-- Node3&#45;&gt;Node11 -->
<g id="edge21" class="edge">
<title>Node3&#45;&gt;Node11</title>
<path fill="none" stroke="midnightblue" d="M77.57,-372.88C94.78,-349.32 127.81,-308.33 165,-284 241.55,-233.93 351.48,-230.36 417.35,-233.71"/>
<polygon fill="midnightblue" stroke="midnightblue" points="74.55,-371.08 71.59,-381.26 80.25,-375.15 74.55,-371.08"/>
</g>
<!-- Node3&#45;&gt;Node12 -->
<g id="edge25" class="edge">
<title>Node3&#45;&gt;Node12</title>
<path fill="none" stroke="midnightblue" d="M68.69,-410.72C78.09,-458.93 105.09,-586.13 146,-686 162.26,-725.7 171.6,-754 214.5,-754 214.5,-754 214.5,-754 1501,-754 1640.37,-754 1674.13,-780 1813.5,-780 1813.5,-780 1813.5,-780 2083,-780 2175.45,-780 2220.97,-421.31 2228.4,-356.86"/>
<polygon fill="midnightblue" stroke="midnightblue" points="72.09,-409.86 66.78,-400.7 65.22,-411.18 72.09,-409.86"/>
</g>
<!-- Node13 -->
<g id="node13" class="node">
<title>Node13</title>
<g id="a_node13"><a xlink:href="classKadath_1_1Space.html" target="_top" xlink:title=" ">
<polygon fill="none" stroke="black" points="989,-382.5 989,-401.5 1069,-401.5 1069,-382.5 989,-382.5"/>
<text text-anchor="middle" x="1029" y="-389.5" font-family="Helvetica,sans-Serif" font-size="10.00">Kadath::Space</text>
</a>
</g>
</g>
<!-- Node3&#45;&gt;Node13 -->
<g id="edge28" class="edge">
<title>Node3&#45;&gt;Node13</title>
<path fill="none" stroke="midnightblue" d="M70.64,-410.4C80.45,-440.07 103.73,-495.73 146,-519 280.02,-592.79 677.74,-453.76 828,-425 883.65,-414.35 948.41,-404.04 988.81,-397.86"/>
<polygon fill="midnightblue" stroke="midnightblue" points="73.95,-409.25 67.63,-400.75 67.27,-411.34 73.95,-409.25"/>
</g>
<!-- Node14 -->
<g id="node14" class="node">
<title>Node14</title>
<g id="a_node14"><a xlink:href="classKadath_1_1Index.html" target="_top" xlink:title=" ">
<polygon fill="none" stroke="black" points="437,-305.5 437,-324.5 512,-324.5 512,-305.5 437,-305.5"/>
<text text-anchor="middle" x="474.5" y="-312.5" font-family="Helvetica,sans-Serif" font-size="10.00">Kadath::Index</text>
</a>
</g>
</g>
<!-- Node3&#45;&gt;Node14 -->
<g id="edge31" class="edge">
<title>Node3&#45;&gt;Node14</title>
<path fill="none" stroke="midnightblue" d="M124.79,-379.59C138.03,-377.08 151.99,-374.44 165,-372 263.23,-353.59 379.15,-332.29 436.92,-321.7"/>
<polygon fill="midnightblue" stroke="midnightblue" points="124.01,-376.17 114.84,-381.48 125.32,-383.05 124.01,-376.17"/>
</g>
<!-- Node15 -->
<g id="node15" class="node">
<title>Node15</title>
<g id="a_node15"><a xlink:href="classKadath_1_1Param.html" target="_top" xlink:title=" ">
<polygon fill="none" stroke="black" points="552,-692.5 552,-711.5 632,-711.5 632,-692.5 552,-692.5"/>
<text text-anchor="middle" x="592" y="-699.5" font-family="Helvetica,sans-Serif" font-size="10.00">Kadath::Param</text>
</a>
</g>
</g>
<!-- Node3&#45;&gt;Node15 -->
<g id="edge35" class="edge">
<title>Node3&#45;&gt;Node15</title>
<path fill="none" stroke="midnightblue" d="M67.77,-410.93C76.33,-469.38 104.32,-638.38 146,-672 268.05,-770.44 475.45,-731.92 556.81,-711.51"/>
<polygon fill="midnightblue" stroke="midnightblue" points="71.2,-410.19 66.32,-400.79 64.27,-411.18 71.2,-410.19"/>
</g>
<!-- Node16 -->
<g id="node16" class="node">
<title>Node16</title>
<g id="a_node16"><a xlink:href="classKadath_1_1Term__eq.html" target="_top" xlink:title=" ">
<polygon fill="none" stroke="black" points="1535,-511.5 1535,-530.5 1625,-530.5 1625,-511.5 1535,-511.5"/>
<text text-anchor="middle" x="1580" y="-518.5" font-family="Helvetica,sans-Serif" font-size="10.00">Kadath::Term_eq</text>
</a>
</g>
</g>
<!-- Node3&#45;&gt;Node16 -->
<g id="edge38" class="edge">
<title>Node3&#45;&gt;Node16</title>
<path fill="none" stroke="midnightblue" d="M66.6,-410.46C72.81,-471.95 100.97,-658 214.5,-658 214.5,-658 214.5,-658 1425,-658 1501.58,-658 1557.74,-562.27 1574.11,-530.85"/>
<polygon fill="midnightblue" stroke="midnightblue" points="70.08,-410.14 65.68,-400.5 63.11,-410.78 70.08,-410.14"/>
</g>
<!-- Node17 -->
<g id="node17" class="node">
<title>Node17</title>
<g id="a_node17"><a xlink:href="classKadath_1_1Tensor.html" target="_top" xlink:title=" ">
<polygon fill="none" stroke="black" points="1383,-479.5 1383,-498.5 1465,-498.5 1465,-479.5 1383,-479.5"/>
<text text-anchor="middle" x="1424" y="-486.5" font-family="Helvetica,sans-Serif" font-size="10.00">Kadath::Tensor</text>
</a>
</g>
</g>
<!-- Node3&#45;&gt;Node17 -->
<g id="edge40" class="edge">
<title>Node3&#45;&gt;Node17</title>
<path fill="none" stroke="midnightblue" d="M68.08,-410.5C78.06,-465.86 114.78,-620 214.5,-620 214.5,-620 214.5,-620 1238.5,-620 1299.98,-620 1316.6,-601.92 1365,-564 1389.1,-545.12 1408.8,-514.08 1417.77,-498.52"/>
<polygon fill="midnightblue" stroke="midnightblue" points="71.52,-409.82 66.39,-400.55 64.62,-410.99 71.52,-409.82"/>
</g>
<!-- Node19 -->
<g id="node19" class="node">
<title>Node19</title>
<g id="a_node19"><a xlink:href="classKadath_1_1Base__tensor.html" target="_top" xlink:title=" ">
<polygon fill="none" stroke="black" points="1184,-517.5 1184,-536.5 1291,-536.5 1291,-517.5 1184,-517.5"/>
<text text-anchor="middle" x="1237.5" y="-524.5" font-family="Helvetica,sans-Serif" font-size="10.00">Kadath::Base_tensor</text>
</a>
</g>
</g>
<!-- Node3&#45;&gt;Node19 -->
<g id="edge47" class="edge">
<title>Node3&#45;&gt;Node19</title>
<path fill="none" stroke="midnightblue" d="M98.03,-404.26C140.37,-420.67 216.4,-448.13 284,-462 621.52,-531.27 1038.94,-530.9 1183.96,-528.32"/>
<polygon fill="midnightblue" stroke="midnightblue" points="99.1,-400.93 88.51,-400.54 96.55,-407.45 99.1,-400.93"/>
</g>
<!-- Node20 -->
<g id="node20" class="node">
<title>Node20</title>
<g id="a_node20"><a xlink:href="classKadath_1_1Param__tensor.html" target="_top" xlink:title=" ">
<polygon fill="none" stroke="black" points="284,-571.5 284,-590.5 397,-590.5 397,-571.5 284,-571.5"/>
<text text-anchor="middle" x="340.5" y="-578.5" font-family="Helvetica,sans-Serif" font-size="10.00">Kadath::Param_tensor</text>
</a>
</g>
</g>
<!-- Node3&#45;&gt;Node20 -->
<g id="edge51" class="edge">
<title>Node3&#45;&gt;Node20</title>
<path fill="none" stroke="midnightblue" d="M68.34,-410.62C75.54,-446.29 96.08,-521.35 146,-557 185.67,-585.33 241.94,-589.38 283.58,-587.5"/>
<polygon fill="midnightblue" stroke="midnightblue" points="71.73,-409.71 66.45,-400.52 64.85,-411 71.73,-409.71"/>
</g>
<!-- Node21 -->
<g id="node21" class="node">
<title>Node21</title>
<g id="a_node21"><a xlink:href="classKadath_1_1Metric.html" target="_top" xlink:title=" ">
<polygon fill="none" stroke="black" points="2042.5,-430.5 2042.5,-449.5 2121.5,-449.5 2121.5,-430.5 2042.5,-430.5"/>
<text text-anchor="middle" x="2082" y="-437.5" font-family="Helvetica,sans-Serif" font-size="10.00">Kadath::Metric</text>
</a>
</g>
</g>
<!-- Node3&#45;&gt;Node21 -->
<g id="edge53" class="edge">
<title>Node3&#45;&gt;Node21</title>
<path fill="none" stroke="midnightblue" d="M66.73,-410.86C73.18,-480.68 97.97,-713.54 146,-768 167.34,-792.19 182.24,-792 214.5,-792 214.5,-792 214.5,-792 1501,-792 1659.26,-792 1709.87,-782.39 1845,-700 1959.77,-630.02 2051.92,-487.7 2075.26,-449.58"/>
<polygon fill="midnightblue" stroke="midnightblue" points="70.2,-410.42 65.82,-400.78 63.23,-411.05 70.2,-410.42"/>
</g>
<!-- Node4&#45;&gt;Node2 -->
<g id="edge4" class="edge">
<title>Node4&#45;&gt;Node2</title>
<path fill="none" stroke="#9a32cd" stroke-dasharray="5,2" d="M1944.28,-331.12C1959.16,-320.34 1980.02,-306.38 2000,-297 2013.32,-290.74 2028.59,-285.56 2042.26,-281.57"/>
<polygon fill="#9a32cd" stroke="#9a32cd" points="1941.81,-328.59 1935.85,-337.35 1945.97,-334.22 1941.81,-328.59"/>
<text text-anchor="middle" x="2010.5" y="-300" font-family="Helvetica,sans-Serif" font-size="10.00"> syst</text>
</g>
<!-- Node4&#45;&gt;Node21 -->
<g id="edge55" class="edge">
<title>Node4&#45;&gt;Node21</title>
<path fill="none" stroke="#9a32cd" stroke-dasharray="5,2" d="M1976.85,-359.48C1991.78,-364.28 2007.59,-370.68 2021,-379 2043.47,-392.94 2063.7,-416.99 2073.94,-430.35"/>
<polygon fill="#9a32cd" stroke="#9a32cd" points="1977.78,-356.1 1967.19,-356.55 1975.74,-362.8 1977.78,-356.1"/>
<text text-anchor="middle" x="2010.5" y="-382" font-family="Helvetica,sans-Serif" font-size="10.00"> syst</text>
</g>
<!-- Node5&#45;&gt;Node4 -->
<g id="edge5" class="edge">
<title>Node5&#45;&gt;Node4</title>
<path fill="none" stroke="#9a32cd" stroke-dasharray="5,2" d="M2202.25,-140.43C2164.3,-161 2094.02,-200.83 2039,-242 1996.69,-273.66 1951.82,-318.01 1932.84,-337.35"/>
<polygon fill="#9a32cd" stroke="#9a32cd" points="2204.02,-143.45 2211.17,-135.63 2200.7,-137.29 2204.02,-143.45"/>
<text text-anchor="middle" x="2082" y="-245" font-family="Helvetica,sans-Serif" font-size="10.00"> eq</text>
</g>
<!-- Node6&#45;&gt;Node4 -->
<g id="edge33" class="edge">
<title>Node6&#45;&gt;Node4</title>
<path fill="none" stroke="#9a32cd" stroke-dasharray="5,2" d="M276.33,-390.5C375.6,-389.19 580.53,-384.42 753,-367 778.52,-364.42 784.69,-362.15 810,-358 925.22,-339.12 959.66,-354.96 1069,-314 1077.78,-310.71 1078.04,-305.77 1087,-303 1192.86,-270.21 1225.18,-290 1336,-290 1336,-290 1336,-290 1722.5,-290 1790.6,-290 1866.92,-321.23 1901.98,-337.46"/>
<polygon fill="#9a32cd" stroke="#9a32cd" points="276.15,-387.01 266.19,-390.63 276.23,-394.01 276.15,-387.01"/>
<text text-anchor="middle" x="1126.5" y="-317" font-family="Helvetica,sans-Serif" font-size="10.00"> assoc_var</text>
<text text-anchor="middle" x="1126.5" y="-306" font-family="Helvetica,sans-Serif" font-size="10.00">assoc_var_double</text>
</g>
<!-- Node6&#45;&gt;Node5 -->
<g id="edge7" class="edge">
<title>Node6&#45;&gt;Node5</title>
<path fill="none" stroke="#9a32cd" stroke-dasharray="5,2" d="M276.26,-383.34C480.69,-357.01 1151.22,-269.69 1365,-230 1566.18,-192.65 1608.88,-126 1813.5,-126 1813.5,-126 1813.5,-126 2083,-126 2117.59,-126 2156.77,-126 2185.91,-126"/>
<polygon fill="#9a32cd" stroke="#9a32cd" points="275.78,-379.87 266.31,-384.62 276.67,-386.81 275.78,-379.87"/>
<text text-anchor="middle" x="1337" y="-253" font-family="Helvetica,sans-Serif" font-size="10.00"> n_cond</text>
<text text-anchor="middle" x="1337" y="-242" font-family="Helvetica,sans-Serif" font-size="10.00">p_cmp_used</text>
</g>
<!-- Node6&#45;&gt;Node11 -->
<g id="edge22" class="edge">
<title>Node6&#45;&gt;Node11</title>
<path fill="none" stroke="#9a32cd" stroke-dasharray="5,2" d="M229.93,-373.28C240.17,-359.53 254.44,-339.87 266,-322 274.65,-308.62 271.38,-300.72 284,-291 322.52,-261.34 376.87,-248.59 417.49,-243.11"/>
<polygon fill="#9a32cd" stroke="#9a32cd" points="227.06,-371.28 223.85,-381.38 232.65,-375.48 227.06,-371.28"/>
<text text-anchor="middle" x="340.5" y="-294" font-family="Helvetica,sans-Serif" font-size="10.00"> bases_1d</text>
</g>
<!-- Node6&#45;&gt;Node17 -->
<g id="edge45" class="edge">
<title>Node6&#45;&gt;Node17</title>
<path fill="none" stroke="#9a32cd" stroke-dasharray="5,2" d="M268.24,-402.44C273.55,-403.4 278.87,-404.28 284,-405 638.4,-454.78 730.07,-438.92 1087,-465 1193.88,-472.81 1319.91,-481.74 1382.91,-486.18"/>
<polygon fill="#9a32cd" stroke="#9a32cd" points="268.6,-398.95 258.12,-400.51 267.29,-405.82 268.6,-398.95"/>
<text text-anchor="middle" x="870.5" y="-468" font-family="Helvetica,sans-Serif" font-size="10.00"> give_indices</text>
<text text-anchor="middle" x="870.5" y="-457" font-family="Helvetica,sans-Serif" font-size="10.00">type_indice</text>
</g>
<!-- Node6&#45;&gt;Node19 -->
<g id="edge49" class="edge">
<title>Node6&#45;&gt;Node19</title>
<path fill="none" stroke="#9a32cd" stroke-dasharray="5,2" d="M232.9,-408.02C245.61,-420.04 264.33,-435.32 284,-443 289.3,-445.07 984.97,-505.28 1183.92,-522.46"/>
<polygon fill="#9a32cd" stroke="#9a32cd" points="235.04,-405.22 225.46,-400.71 230.14,-410.21 235.04,-405.22"/>
<text text-anchor="middle" x="790.5" y="-493" font-family="Helvetica,sans-Serif" font-size="10.00"> basis</text>
</g>
<!-- Node7&#45;&gt;Node5 -->
<g id="edge10" class="edge">
<title>Node7&#45;&gt;Node5</title>
<path fill="none" stroke="#9a32cd" stroke-dasharray="5,2" d="M918.68,-215.03C1055.83,-181.31 1466.76,-88 1813.5,-88 1813.5,-88 1813.5,-88 2083,-88 2128.19,-88 2178.79,-105.15 2207.13,-116.41"/>
<polygon fill="#9a32cd" stroke="#9a32cd" points="917.77,-211.65 908.9,-217.45 919.45,-218.44 917.77,-211.65"/>
<text text-anchor="middle" x="1580" y="-108" font-family="Helvetica,sans-Serif" font-size="10.00"> dom</text>
</g>
<!-- Node7&#45;&gt;Node10 -->
<g id="edge23" class="edge">
<title>Node7&#45;&gt;Node10</title>
<path fill="none" stroke="#9a32cd" stroke-dasharray="5,2" d="M862.86,-207.89C854.24,-186.09 837.02,-151.12 810,-133 793.39,-121.86 772.22,-116.68 753.06,-114.43"/>
<polygon fill="#9a32cd" stroke="#9a32cd" points="859.64,-209.26 866.41,-217.4 866.19,-206.81 859.64,-209.26"/>
<text text-anchor="middle" x="790.5" y="-136" font-family="Helvetica,sans-Serif" font-size="10.00"> zone</text>
</g>
<!-- Node7&#45;&gt;Node13 -->
<g id="edge29" class="edge">
<title>Node7&#45;&gt;Node13</title>
<path fill="none" stroke="#9a32cd" stroke-dasharray="5,2" d="M887.89,-244.28C920.68,-278.85 993.39,-355.51 1018.92,-382.43"/>
<polygon fill="#9a32cd" stroke="#9a32cd" points="890.24,-241.67 880.82,-236.83 885.16,-246.49 890.24,-241.67"/>
<text text-anchor="middle" x="951" y="-332" font-family="Helvetica,sans-Serif" font-size="10.00"> domains</text>
</g>
<!-- Node8&#45;&gt;Node7 -->
<g id="edge12" class="edge">
<title>Node8&#45;&gt;Node7</title>
<path fill="none" stroke="#9a32cd" stroke-dasharray="5,2" d="M273.46,-298.76C340.2,-293.83 454.11,-285.54 552,-279 666.63,-271.35 700.35,-297.28 810,-263 827.98,-257.38 846.14,-245.24 857.58,-236.62"/>
<polygon fill="#9a32cd" stroke="#9a32cd" points="272.88,-295.29 263.17,-299.52 273.4,-302.27 272.88,-295.29"/>
<text text-anchor="middle" x="592" y="-293" font-family="Helvetica,sans-Serif" font-size="10.00"> nbr_coefs</text>
<text text-anchor="middle" x="592" y="-282" font-family="Helvetica,sans-Serif" font-size="10.00">nbr_points</text>
</g>
<!-- Node8&#45;&gt;Node14 -->
<g id="edge32" class="edge">
<title>Node8&#45;&gt;Node14</title>
<path fill="none" stroke="#9a32cd" stroke-dasharray="5,2" d="M273.34,-305.65C323.19,-307.98 394.19,-311.3 436.86,-313.29"/>
<polygon fill="#9a32cd" stroke="#9a32cd" points="273.19,-302.14 263.04,-305.17 272.87,-309.14 273.19,-302.14"/>
<text text-anchor="middle" x="340.5" y="-314" font-family="Helvetica,sans-Serif" font-size="10.00"> sizes</text>
</g>
<!-- Node9&#45;&gt;Node4 -->
<g id="edge36" class="edge">
<title>Node9&#45;&gt;Node4</title>
<path fill="none" stroke="#9a32cd" stroke-dasharray="5,2" d="M514.53,-131.31C526.51,-127.53 539.76,-123.48 552,-120 595.24,-107.71 605.4,-100.6 650,-95 695.42,-89.3 707.23,-93.95 753,-95 1025.21,-101.22 1095.58,-83.64 1365,-123 1546.75,-149.55 1589.24,-173.04 1766,-223 1801.44,-233.02 1814.81,-226.91 1845,-248 1879.9,-272.38 1906.2,-317.46 1916.61,-337.25"/>
<polygon fill="#9a32cd" stroke="#9a32cd" points="513.28,-128.03 504.81,-134.39 515.4,-134.7 513.28,-128.03"/>
<text text-anchor="middle" x="1237.5" y="-116" font-family="Helvetica,sans-Serif" font-size="10.00"> val_cst_hard</text>
</g>
<!-- Node9&#45;&gt;Node7 -->
<g id="edge14" class="edge">
<title>Node9&#45;&gt;Node7</title>
<path fill="none" stroke="#9a32cd" stroke-dasharray="5,2" d="M521.61,-156.1C579.53,-170.99 682.1,-196.34 771,-213 789.5,-216.47 810.11,-219.52 827.67,-221.88"/>
<polygon fill="#9a32cd" stroke="#9a32cd" points="522.23,-152.65 511.68,-153.54 520.48,-159.42 522.23,-152.65"/>
<text text-anchor="middle" x="701.5" y="-211" font-family="Helvetica,sans-Serif" font-size="10.00"> coloc</text>
</g>
<!-- Node9&#45;&gt;Node10 -->
<g id="edge18" class="edge">
<title>Node9&#45;&gt;Node10</title>
<path fill="none" stroke="#9a32cd" stroke-dasharray="5,2" d="M544.37,-134.82C578.41,-130.28 618.76,-124.9 649.9,-120.75"/>
<polygon fill="#9a32cd" stroke="#9a32cd" points="543.48,-131.41 534.03,-136.2 544.4,-138.34 543.48,-131.41"/>
<text text-anchor="middle" x="592" y="-148" font-family="Helvetica,sans-Serif" font-size="10.00"> c</text>
<text text-anchor="middle" x="592" y="-137" font-family="Helvetica,sans-Serif" font-size="10.00">cf</text>
</g>
<!-- Node10&#45;&gt;Node7 -->
<g id="edge16" class="edge">
<title>Node10&#45;&gt;Node7</title>
<path fill="none" stroke="#9a32cd" stroke-dasharray="5,2" d="M732.07,-127.9C759.02,-140.79 796.6,-159.37 810,-169 830.39,-183.64 850.55,-205.17 861.37,-217.47"/>
<polygon fill="#9a32cd" stroke="#9a32cd" points="733.58,-124.74 723.04,-123.6 730.57,-131.06 733.58,-124.74"/>
<text text-anchor="middle" x="790.5" y="-205" font-family="Helvetica,sans-Serif" font-size="10.00"> absol</text>
<text text-anchor="middle" x="790.5" y="-194" font-family="Helvetica,sans-Serif" font-size="10.00">cart</text>
<text text-anchor="middle" x="790.5" y="-183" font-family="Helvetica,sans-Serif" font-size="10.00">cart_surr</text>
<text text-anchor="middle" x="790.5" y="-172" font-family="Helvetica,sans-Serif" font-size="10.00">radius</text>
</g>
<!-- Node10&#45;&gt;Node10 -->
<g id="edge19" class="edge">
<title>Node10&#45;&gt;Node10</title>
<path fill="none" stroke="#9a32cd" stroke-dasharray="5,2" d="M685.2,-133.4C686.29,-138.31 691.72,-142 701.5,-142 717.14,-142 721.66,-132.57 715.06,-123.76"/>
<polygon fill="#9a32cd" stroke="#9a32cd" points="688.58,-134.33 687.94,-123.76 681.84,-132.42 688.58,-134.33"/>
<text text-anchor="middle" x="701.5" y="-156" font-family="Helvetica,sans-Serif" font-size="10.00"> p_der_abs</text>
<text text-anchor="middle" x="701.5" y="-145" font-family="Helvetica,sans-Serif" font-size="10.00">p_der_var</text>
</g>
<!-- Node18 -->
<g id="node18" class="node">
<title>Node18</title>
<g id="a_node18"><a xlink:href="classKadath_1_1Scalar.html" target="_top" xlink:title=" ">
<polygon fill="none" stroke="black" points="1540,-419.5 1540,-438.5 1620,-438.5 1620,-419.5 1540,-419.5"/>
<text text-anchor="middle" x="1580" y="-426.5" font-family="Helvetica,sans-Serif" font-size="10.00">Kadath::Scalar</text>
</a>
</g>
</g>
<!-- Node10&#45;&gt;Node18 -->
<g id="edge44" class="edge">
<title>Node10&#45;&gt;Node18</title>
<path fill="none" stroke="#9a32cd" stroke-dasharray="5,2" d="M763.08,-111.07C818.69,-110.31 902.59,-114.07 971,-138 1171.45,-208.12 1186.43,-299.65 1383,-380 1435.27,-401.37 1499.32,-415.24 1539.65,-422.59"/>
<polygon fill="#9a32cd" stroke="#9a32cd" points="762.96,-107.57 753.03,-111.26 763.1,-114.57 762.96,-107.57"/>
<text text-anchor="middle" x="1126.5" y="-247" font-family="Helvetica,sans-Serif" font-size="10.00"> val_zones</text>
</g>
<!-- Node11&#45;&gt;Node10 -->
<g id="edge20" class="edge">
<title>Node11&#45;&gt;Node10</title>
<path fill="none" stroke="#9a32cd" stroke-dasharray="5,2" d="M505.7,-225.13C537.65,-210.13 589.27,-185 632,-160 651.78,-148.42 673.59,-133.35 687.17,-123.67"/>
<polygon fill="#9a32cd" stroke="#9a32cd" points="504.02,-222.04 496.44,-229.44 506.98,-228.39 504.02,-222.04"/>
<text text-anchor="middle" x="592" y="-204" font-family="Helvetica,sans-Serif" font-size="10.00"> base</text>
</g>
<!-- Node12&#45;&gt;Node4 -->
<g id="edge24" class="edge">
<title>Node12&#45;&gt;Node4</title>
<path fill="none" stroke="#9a32cd" stroke-dasharray="5,2" d="M2180.92,-347C2126.95,-347 2039.85,-347 1982.14,-347"/>
<polygon fill="#9a32cd" stroke="#9a32cd" points="2180.92,-350.5 2190.92,-347 2180.92,-343.5 2180.92,-350.5"/>
<text text-anchor="middle" x="2082" y="-350" font-family="Helvetica,sans-Serif" font-size="10.00"> eq_int</text>
</g>
<!-- Node13&#45;&gt;Node4 -->
<g id="edge27" class="edge">
<title>Node13&#45;&gt;Node4</title>
<path fill="none" stroke="#9a32cd" stroke-dasharray="5,2" d="M1048.19,-376.01C1058.8,-367.55 1072.86,-357.74 1087,-352 1149.36,-326.69 1169.2,-328 1236.5,-328 1236.5,-328 1236.5,-328 1722.5,-328 1769.87,-328 1823.3,-333.4 1862.86,-338.44"/>
<polygon fill="#9a32cd" stroke="#9a32cd" points="1045.93,-373.33 1040.47,-382.41 1050.4,-378.72 1045.93,-373.33"/>
<text text-anchor="middle" x="1500" y="-331" font-family="Helvetica,sans-Serif" font-size="10.00"> espace</text>
</g>
<!-- Node13&#45;&gt;Node17 -->
<g id="edge41" class="edge">
<title>Node13&#45;&gt;Node17</title>
<path fill="none" stroke="#9a32cd" stroke-dasharray="5,2" d="M1078.94,-404.08C1158.01,-423.59 1312.24,-461.66 1384.24,-479.43"/>
<polygon fill="#9a32cd" stroke="#9a32cd" points="1079.31,-400.56 1068.76,-401.57 1077.63,-407.36 1079.31,-400.56"/>
<text text-anchor="middle" x="1237.5" y="-459" font-family="Helvetica,sans-Serif" font-size="10.00"> espace</text>
</g>
<!-- Node13&#45;&gt;Node19 -->
<g id="edge48" class="edge">
<title>Node13&#45;&gt;Node19</title>
<path fill="none" stroke="#9a32cd" stroke-dasharray="5,2" d="M1051.69,-407.25C1062.25,-414.57 1075.19,-423.38 1087,-431 1121.52,-453.27 1131.45,-456.77 1166,-479 1186.05,-491.9 1208.76,-507.56 1222.86,-517.41"/>
<polygon fill="#9a32cd" stroke="#9a32cd" points="1053.66,-404.35 1043.45,-401.51 1049.66,-410.09 1053.66,-404.35"/>
<text text-anchor="middle" x="1126.5" y="-482" font-family="Helvetica,sans-Serif" font-size="10.00"> space</text>
</g>
<!-- Node13&#45;&gt;Node21 -->
<g id="edge54" class="edge">
<title>Node13&#45;&gt;Node21</title>
<path fill="none" stroke="#9a32cd" stroke-dasharray="5,2" d="M1079.19,-389.8C1147.39,-386.87 1274.53,-381.84 1383,-380 1588.6,-376.51 1640.53,-383.15 1845,-405 1914.81,-412.46 1995.64,-425.39 2042.29,-433.27"/>
<polygon fill="#9a32cd" stroke="#9a32cd" points="1079.01,-386.3 1069.17,-390.23 1079.31,-393.3 1079.01,-386.3"/>
<text text-anchor="middle" x="1580" y="-386" font-family="Helvetica,sans-Serif" font-size="10.00"> espace</text>
</g>
<!-- Node14&#45;&gt;Node4 -->
<g id="edge30" class="edge">
<title>Node14&#45;&gt;Node4</title>
<path fill="none" stroke="#9a32cd" stroke-dasharray="5,2" d="M522.58,-312.35C577.87,-308.99 672.28,-302.47 753,-293 945.47,-270.42 990.71,-240.88 1184,-227 1264.25,-221.24 1284.73,-224.53 1365,-230 1578.81,-244.57 1649.48,-188.25 1845,-276 1875.91,-289.87 1902.48,-321.36 1914.56,-337.33"/>
<polygon fill="#9a32cd" stroke="#9a32cd" points="522.17,-308.87 512.39,-312.96 522.59,-315.86 522.17,-308.87"/>
<text text-anchor="middle" x="1237.5" y="-230" font-family="Helvetica,sans-Serif" font-size="10.00"> which_coef</text>
</g>
<!-- Node15&#45;&gt;Node4 -->
<g id="edge34" class="edge">
<title>Node15&#45;&gt;Node4</title>
<path fill="none" stroke="#9a32cd" stroke-dasharray="5,2" d="M642.36,-702.78C682.1,-703.34 739.39,-704 789.5,-704 789.5,-704 789.5,-704 1722.5,-704 1779,-704 1805.82,-710.71 1845,-670 1890.36,-622.88 1915.43,-405.36 1920.52,-356.68"/>
<polygon fill="#9a32cd" stroke="#9a32cd" points="642.19,-699.28 632.15,-702.63 642.09,-706.28 642.19,-699.28"/>
<text text-anchor="middle" x="1237.5" y="-718" font-family="Helvetica,sans-Serif" font-size="10.00"> paruser</text>
<text text-anchor="middle" x="1237.5" y="-707" font-family="Helvetica,sans-Serif" font-size="10.00">paruser_bin</text>
</g>
<!-- Node16&#45;&gt;Node1 -->
<g id="edge59" class="edge">
<title>Node16&#45;&gt;Node1</title>
<path fill="none" stroke="#9a32cd" stroke-dasharray="5,2" d="M1603.72,-505.51C1610.72,-500.47 1618.34,-494.7 1625,-489 1633.6,-481.65 1633.21,-476.67 1643,-471 1653.25,-465.06 1665.24,-460.75 1676.68,-457.64"/>
<polygon fill="#9a32cd" stroke="#9a32cd" points="1601.45,-502.83 1595.3,-511.45 1605.49,-508.55 1601.45,-502.83"/>
<text text-anchor="middle" x="1651" y="-474" font-family="Helvetica,sans-Serif" font-size="10.00"> res</text>
</g>
<!-- Node16&#45;&gt;Node4 -->
<g id="edge37" class="edge">
<title>Node16&#45;&gt;Node4</title>
<path fill="none" stroke="#9a32cd" stroke-dasharray="5,2" d="M1634.94,-512.71C1691.76,-501.8 1781.62,-478.21 1845,-431 1874.9,-408.73 1902.35,-373.56 1914.67,-356.67"/>
<polygon fill="#9a32cd" stroke="#9a32cd" points="1634.27,-509.27 1625.07,-514.53 1635.54,-516.15 1634.27,-509.27"/>
<text text-anchor="middle" x="1721.5" y="-571" font-family="Helvetica,sans-Serif" font-size="10.00"> cst</text>
<text text-anchor="middle" x="1721.5" y="-560" font-family="Helvetica,sans-Serif" font-size="10.00">cst_hard</text>
<text text-anchor="middle" x="1721.5" y="-549" font-family="Helvetica,sans-Serif" font-size="10.00">opeuser</text>
<text text-anchor="middle" x="1721.5" y="-538" font-family="Helvetica,sans-Serif" font-size="10.00">opeuser_bin</text>
<text text-anchor="middle" x="1721.5" y="-527" font-family="Helvetica,sans-Serif" font-size="10.00">results</text>
<text text-anchor="middle" x="1721.5" y="-516" font-family="Helvetica,sans-Serif" font-size="10.00">term</text>
<text text-anchor="middle" x="1721.5" y="-505" font-family="Helvetica,sans-Serif" font-size="10.00">term_double</text>
</g>
<!-- Node16&#45;&gt;Node21 -->
<g id="edge56" class="edge">
<title>Node16&#45;&gt;Node21</title>
<path fill="none" stroke="#9a32cd" stroke-dasharray="5,2" d="M1599.17,-537.37C1617.36,-552.56 1646.91,-574.13 1677,-583 1714.94,-594.19 1727.34,-591.36 1766,-583 1889.27,-556.33 2022.27,-477.19 2066.08,-449.61"/>
<polygon fill="#9a32cd" stroke="#9a32cd" points="1601.06,-534.38 1591.2,-530.5 1596.49,-539.68 1601.06,-534.38"/>
<text text-anchor="middle" x="1814.5" y="-658" font-family="Helvetica,sans-Serif" font-size="10.00"> p_christo</text>
<text text-anchor="middle" x="1814.5" y="-647" font-family="Helvetica,sans-Serif" font-size="10.00">p_det_cov</text>
<text text-anchor="middle" x="1814.5" y="-636" font-family="Helvetica,sans-Serif" font-size="10.00">p_dirac</text>
<text text-anchor="middle" x="1814.5" y="-625" font-family="Helvetica,sans-Serif" font-size="10.00">p_met_con</text>
<text text-anchor="middle" x="1814.5" y="-614" font-family="Helvetica,sans-Serif" font-size="10.00">p_met_cov</text>
<text text-anchor="middle" x="1814.5" y="-603" font-family="Helvetica,sans-Serif" font-size="10.00">p_ricci_scalar</text>
<text text-anchor="middle" x="1814.5" y="-592" font-family="Helvetica,sans-Serif" font-size="10.00">p_ricci_tensor</text>
<text text-anchor="middle" x="1814.5" y="-581" font-family="Helvetica,sans-Serif" font-size="10.00">p_riemann</text>
</g>
<!-- Node17&#45;&gt;Node4 -->
<g id="edge57" class="edge">
<title>Node17&#45;&gt;Node4</title>
<path fill="none" stroke="#9a32cd" stroke-dasharray="5,2" d="M1475.51,-481.46C1489.03,-479.25 1503.6,-476.7 1517,-474 1565.4,-464.24 1577.93,-462.91 1625,-448 1697.46,-425.05 1712.1,-409.65 1784,-385 1816.56,-373.84 1854.3,-363.59 1882,-356.56"/>
<polygon fill="#9a32cd" stroke="#9a32cd" points="1474.74,-478.04 1465.42,-483.08 1475.85,-484.95 1474.74,-478.04"/>
<text text-anchor="middle" x="1651" y="-444" font-family="Helvetica,sans-Serif" font-size="10.00"> var</text>
</g>
<!-- Node17&#45;&gt;Node16 -->
<g id="edge39" class="edge">
<title>Node17&#45;&gt;Node16</title>
<path fill="none" stroke="#9a32cd" stroke-dasharray="5,2" d="M1474.88,-499.37C1494.18,-503.38 1516.08,-507.93 1534.81,-511.82"/>
<polygon fill="#9a32cd" stroke="#9a32cd" points="1475.56,-495.93 1465.06,-497.32 1474.14,-502.79 1475.56,-495.93"/>
<text text-anchor="middle" x="1500" y="-521" font-family="Helvetica,sans-Serif" font-size="10.00"> der_t</text>
<text text-anchor="middle" x="1500" y="-510" font-family="Helvetica,sans-Serif" font-size="10.00">val_t</text>
</g>
<!-- Node17&#45;&gt;Node18 -->
<g id="edge43" class="edge">
<title>Node17&#45;&gt;Node18</title>
<path fill="none" stroke="midnightblue" d="M1443.08,-472.68C1453.92,-463.76 1468.4,-453.28 1483,-447 1500.76,-439.36 1521.74,-434.96 1539.55,-432.42"/>
<polygon fill="midnightblue" stroke="midnightblue" points="1440.56,-470.23 1435.23,-479.39 1445.11,-475.55 1440.56,-470.23"/>
</g>
<!-- Node18&#45;&gt;Node17 -->
<g id="edge42" class="edge">
<title>Node18&#45;&gt;Node17</title>
<path fill="none" stroke="#9a32cd" stroke-dasharray="5,2" d="M1540.28,-441.91C1522.68,-447.99 1501.66,-455.53 1483,-463 1470.3,-468.09 1456.29,-474.35 1445.23,-479.45"/>
<polygon fill="#9a32cd" stroke="#9a32cd" points="1541.88,-445.06 1550.21,-438.52 1539.61,-438.44 1541.88,-445.06"/>
<text text-anchor="middle" x="1500" y="-466" font-family="Helvetica,sans-Serif" font-size="10.00"> cmp</text>
</g>
<!-- Node19&#45;&gt;Node17 -->
<g id="edge46" class="edge">
<title>Node19&#45;&gt;Node17</title>
<path fill="none" stroke="#9a32cd" stroke-dasharray="5,2" d="M1301.34,-515.71C1321.69,-511.89 1344.34,-507.45 1365,-503 1371.38,-501.63 1378.13,-500.08 1384.69,-498.53"/>
<polygon fill="#9a32cd" stroke="#9a32cd" points="1300.43,-512.32 1291.24,-517.6 1301.71,-519.2 1300.43,-512.32"/>
<text text-anchor="middle" x="1337" y="-517" font-family="Helvetica,sans-Serif" font-size="10.00"> basis</text>
</g>
<!-- Node20&#45;&gt;Node17 -->
<g id="edge50" class="edge">
<title>Node20&#45;&gt;Node17</title>
<path fill="none" stroke="#9a32cd" stroke-dasharray="5,2" d="M407.58,-581C457.87,-581 528.8,-581 591,-581 591,-581 591,-581 1238.5,-581 1311.52,-581 1385.32,-522.58 1412.29,-498.85"/>
<polygon fill="#9a32cd" stroke="#9a32cd" points="407.49,-577.5 397.49,-581 407.49,-584.5 407.49,-577.5"/>
<text text-anchor="middle" x="870.5" y="-584" font-family="Helvetica,sans-Serif" font-size="10.00"> parameters</text>
</g>
<!-- Node21&#45;&gt;Node4 -->
<g id="edge52" class="edge">
<title>Node21&#45;&gt;Node4</title>
<path fill="none" stroke="#9a32cd" stroke-dasharray="5,2" d="M2055.65,-425.03C2023.01,-405.76 1967.23,-372.82 1939.76,-356.6"/>
<polygon fill="#9a32cd" stroke="#9a32cd" points="2054.2,-428.24 2064.59,-430.31 2057.76,-422.21 2054.2,-428.24"/>
<text text-anchor="middle" x="2010.5" y="-407" font-family="Helvetica,sans-Serif" font-size="10.00"> met</text>
</g>
</g>
</svg>
