<?xml version="1.0" encoding="UTF-8" standalone="no"?>
<!DOCTYPE svg PUBLIC "-//W3C//DTD SVG 1.1//EN"
 "http://www.w3.org/Graphics/SVG/1.1/DTD/svg11.dtd">
<!-- Generated by graphviz version 2.47.1 (20210515.0534)
 -->
<!-- Title: ska::flat_hash_set&lt; T, H, E, A &gt; Pages: 1 -->
<svg width="672pt" height="182pt"
 viewBox="0.00 0.00 672.00 181.50" xmlns="http://www.w3.org/2000/svg" xmlns:xlink="http://www.w3.org/1999/xlink">
<g id="graph0" class="graph" transform="scale(1 1) rotate(0) translate(4 177.5)">
<title>ska::flat_hash_set&lt; T, H, E, A &gt;</title>
<!-- Node1 -->
<g id="node1" class="node">
<title>Node1</title>
<g id="a_node1"><a xlink:title=" ">
<polygon fill="#bfbfbf" stroke="black" points="569,-66 569,-96 664,-96 664,-66 569,-66"/>
<text text-anchor="start" x="577" y="-84" font-family="Helvetica,sans-Serif" font-size="10.00">ska::flat_hash_set</text>
<text text-anchor="middle" x="616.5" y="-73" font-family="Helvetica,sans-Serif" font-size="10.00">&lt; T, H, E, A &gt;</text>
</a>
</g>
</g>
<!-- Node2 -->
<g id="node2" class="node">
<title>Node2</title>
<g id="a_node2"><a xlink:href="classska_1_1detailv3_1_1sherwood__v3__table.html" target="_top" xlink:title=" ">
<polygon fill="none" stroke="black" points="344,-22 344,-140 533,-140 533,-22 344,-22"/>
<text text-anchor="start" x="352" y="-128" font-family="Helvetica,sans-Serif" font-size="10.00">ska::detailv3::sherwood</text>
<text text-anchor="start" x="352" y="-117" font-family="Helvetica,sans-Serif" font-size="10.00">_v3_table&lt; T, T, std::</text>
<text text-anchor="start" x="352" y="-106" font-family="Helvetica,sans-Serif" font-size="10.00">hash&lt; T &gt;, detailv3::functor</text>
<text text-anchor="start" x="352" y="-95" font-family="Helvetica,sans-Serif" font-size="10.00">_storage&lt; size_t, std::hash</text>
<text text-anchor="start" x="352" y="-84" font-family="Helvetica,sans-Serif" font-size="10.00">&lt; T &gt; &gt;, std::equal_to&lt; T &gt;,</text>
<text text-anchor="start" x="352" y="-73" font-family="Helvetica,sans-Serif" font-size="10.00"> detailv3::functor_storage&lt; bool,</text>
<text text-anchor="start" x="352" y="-62" font-family="Helvetica,sans-Serif" font-size="10.00"> std::equal_to&lt; T &gt; &gt;, std::allocator</text>
<text text-anchor="start" x="352" y="-51" font-family="Helvetica,sans-Serif" font-size="10.00">&lt; T &gt;, std::allocator_traits&lt; std::allocator</text>
<text text-anchor="start" x="352" y="-40" font-family="Helvetica,sans-Serif" font-size="10.00">&lt; T &gt; &gt;::template rebind_alloc&lt; detailv3</text>
<text text-anchor="middle" x="438.5" y="-29" font-family="Helvetica,sans-Serif" font-size="10.00">::sherwood_v3_entry&lt; T &gt; &gt; &gt;</text>
</a>
</g>
</g>
<!-- Node2&#45;&gt;Node1 -->
<g id="edge1" class="edge">
<title>Node2&#45;&gt;Node1</title>
<path fill="none" stroke="midnightblue" d="M543.22,-81C552.05,-81 560.67,-81 568.69,-81"/>
<polygon fill="midnightblue" stroke="midnightblue" points="543.17,-77.5 533.17,-81 543.17,-84.5 543.17,-77.5"/>
</g>
<!-- Node3 -->
<g id="node3" class="node">
<title>Node3</title>
<g id="a_node3"><a xlink:title=" ">
<polygon fill="none" stroke="#bfbfbf" points="130,-121 130,-173 308,-173 308,-121 130,-121"/>
<text text-anchor="start" x="138" y="-161" font-family="Helvetica,sans-Serif" font-size="10.00">std::allocator_traits</text>
<text text-anchor="start" x="138" y="-150" font-family="Helvetica,sans-Serif" font-size="10.00">&lt; std::allocator&lt; T &gt;</text>
<text text-anchor="start" x="138" y="-139" font-family="Helvetica,sans-Serif" font-size="10.00"> &gt;::template rebind_alloc</text>
<text text-anchor="middle" x="219" y="-128" font-family="Helvetica,sans-Serif" font-size="10.00">&lt; detailv3::sherwood_v3_entry&lt; T &gt; &gt;</text>
</a>
</g>
</g>
<!-- Node3&#45;&gt;Node2 -->
<g id="edge2" class="edge">
<title>Node3&#45;&gt;Node2</title>
<path fill="none" stroke="#8b1a1a" d="M315.68,-117.97C325.06,-115.12 334.57,-112.24 343.92,-109.4"/>
<polygon fill="#8b1a1a" stroke="#8b1a1a" points="314.51,-114.66 305.96,-120.92 316.55,-121.36 314.51,-114.66"/>
</g>
<!-- Node4 -->
<g id="node4" class="node">
<title>Node4</title>
<g id="a_node4"><a xlink:href="structska_1_1detailv3_1_1functor__storage.html" target="_top" xlink:title=" ">
<polygon fill="none" stroke="black" points="165.5,-60.5 165.5,-101.5 272.5,-101.5 272.5,-60.5 165.5,-60.5"/>
<text text-anchor="start" x="173.5" y="-89.5" font-family="Helvetica,sans-Serif" font-size="10.00">ska::detailv3::functor</text>
<text text-anchor="start" x="173.5" y="-78.5" font-family="Helvetica,sans-Serif" font-size="10.00">_storage&lt; size_t, std</text>
<text text-anchor="middle" x="219" y="-67.5" font-family="Helvetica,sans-Serif" font-size="10.00">::hash&lt; T &gt; &gt;</text>
</a>
</g>
</g>
<!-- Node4&#45;&gt;Node2 -->
<g id="edge3" class="edge">
<title>Node4&#45;&gt;Node2</title>
<path fill="none" stroke="#8b1a1a" d="M282.68,-81C301.72,-81 323.08,-81 343.71,-81"/>
<polygon fill="#8b1a1a" stroke="#8b1a1a" points="282.65,-77.5 272.65,-81 282.65,-84.5 282.65,-77.5"/>
</g>
<!-- Node5 -->
<g id="node5" class="node">
<title>Node5</title>
<g id="a_node5"><a xlink:title=" ">
<polygon fill="none" stroke="#bfbfbf" points="8,-71.5 8,-90.5 86,-90.5 86,-71.5 8,-71.5"/>
<text text-anchor="middle" x="47" y="-78.5" font-family="Helvetica,sans-Serif" font-size="10.00">std::hash&lt; T &gt;</text>
</a>
</g>
</g>
<!-- Node5&#45;&gt;Node4 -->
<g id="edge4" class="edge">
<title>Node5&#45;&gt;Node4</title>
<path fill="none" stroke="midnightblue" d="M96.4,-81C117.97,-81 143.44,-81 165.47,-81"/>
<polygon fill="midnightblue" stroke="midnightblue" points="96.15,-77.5 86.15,-81 96.15,-84.5 96.15,-77.5"/>
</g>
<!-- Node6 -->
<g id="node6" class="node">
<title>Node6</title>
<g id="a_node6"><a xlink:href="structska_1_1detailv3_1_1functor__storage.html" target="_top" xlink:title=" ">
<polygon fill="none" stroke="black" points="155.5,-0.5 155.5,-41.5 282.5,-41.5 282.5,-0.5 155.5,-0.5"/>
<text text-anchor="start" x="163.5" y="-29.5" font-family="Helvetica,sans-Serif" font-size="10.00">ska::detailv3::functor</text>
<text text-anchor="start" x="163.5" y="-18.5" font-family="Helvetica,sans-Serif" font-size="10.00">_storage&lt; bool, std::equal</text>
<text text-anchor="middle" x="219" y="-7.5" font-family="Helvetica,sans-Serif" font-size="10.00">_to&lt; T &gt; &gt;</text>
</a>
</g>
</g>
<!-- Node6&#45;&gt;Node2 -->
<g id="edge5" class="edge">
<title>Node6&#45;&gt;Node2</title>
<path fill="none" stroke="#8b1a1a" d="M292.64,-41.04C309.03,-45.56 326.64,-50.42 343.76,-55.14"/>
<polygon fill="#8b1a1a" stroke="#8b1a1a" points="293.19,-37.56 282.62,-38.27 291.33,-44.31 293.19,-37.56"/>
</g>
<!-- Node7 -->
<g id="node7" class="node">
<title>Node7</title>
<g id="a_node7"><a xlink:title=" ">
<polygon fill="none" stroke="#bfbfbf" points="0,-11.5 0,-30.5 94,-30.5 94,-11.5 0,-11.5"/>
<text text-anchor="middle" x="47" y="-18.5" font-family="Helvetica,sans-Serif" font-size="10.00">std::equal_to&lt; T &gt;</text>
</a>
</g>
</g>
<!-- Node7&#45;&gt;Node6 -->
<g id="edge6" class="edge">
<title>Node7&#45;&gt;Node6</title>
<path fill="none" stroke="midnightblue" d="M104.47,-21C120.79,-21 138.69,-21 155.36,-21"/>
<polygon fill="midnightblue" stroke="midnightblue" points="104,-17.5 94,-21 104,-24.5 104,-17.5"/>
</g>
</g>
</svg>
