<?xml version="1.0" encoding="UTF-8" standalone="no"?>
<!DOCTYPE svg PUBLIC "-//W3C//DTD SVG 1.1//EN"
 "http://www.w3.org/Graphics/SVG/1.1/DTD/svg11.dtd">
<!-- Generated by graphviz version 2.47.1 (20210515.0534)
 -->
<!-- Title: ska::flat_hash_map&lt; K, V, H, E, A &gt; Pages: 1 -->
<svg width="799pt" height="192pt"
 viewBox="0.00 0.00 799.00 192.00" xmlns="http://www.w3.org/2000/svg" xmlns:xlink="http://www.w3.org/1999/xlink">
<g id="graph0" class="graph" transform="scale(1 1) rotate(0) translate(4 188)">
<title>ska::flat_hash_map&lt; K, V, H, E, A &gt;</title>
<!-- Node1 -->
<g id="node1" class="node">
<title>Node1</title>
<g id="a_node1"><a xlink:title=" ">
<polygon fill="#bfbfbf" stroke="black" points="691,-66 691,-96 791,-96 791,-66 691,-66"/>
<text text-anchor="start" x="699" y="-84" font-family="Helvetica,sans-Serif" font-size="10.00">ska::flat_hash_map</text>
<text text-anchor="middle" x="741" y="-73" font-family="Helvetica,sans-Serif" font-size="10.00">&lt; K, V, H, E, A &gt;</text>
</a>
</g>
</g>
<!-- Node2 -->
<g id="node2" class="node">
<title>Node2</title>
<g id="a_node2"><a xlink:href="classska_1_1detailv3_1_1sherwood__v3__table.html" target="_top" xlink:title=" ">
<polygon fill="none" stroke="black" points="454,-5.5 454,-156.5 655,-156.5 655,-5.5 454,-5.5"/>
<text text-anchor="start" x="462" y="-144.5" font-family="Helvetica,sans-Serif" font-size="10.00">ska::detailv3::sherwood</text>
<text text-anchor="start" x="462" y="-133.5" font-family="Helvetica,sans-Serif" font-size="10.00">_v3_table&lt; std::pair&lt;</text>
<text text-anchor="start" x="462" y="-122.5" font-family="Helvetica,sans-Serif" font-size="10.00"> K, V &gt;, K, std::hash&lt;</text>
<text text-anchor="start" x="462" y="-111.5" font-family="Helvetica,sans-Serif" font-size="10.00"> K &gt;, detailv3::KeyOrValueHasher</text>
<text text-anchor="start" x="462" y="-100.5" font-family="Helvetica,sans-Serif" font-size="10.00">&lt; K, std::pair&lt; K, V &gt;, std::</text>
<text text-anchor="start" x="462" y="-89.5" font-family="Helvetica,sans-Serif" font-size="10.00">hash&lt; K &gt; &gt;, std::equal_to&lt; K</text>
<text text-anchor="start" x="462" y="-78.5" font-family="Helvetica,sans-Serif" font-size="10.00"> &gt;, detailv3::KeyOrValueEquality</text>
<text text-anchor="start" x="462" y="-67.5" font-family="Helvetica,sans-Serif" font-size="10.00">&lt; K, std::pair&lt; K, V &gt;, std::equal</text>
<text text-anchor="start" x="462" y="-56.5" font-family="Helvetica,sans-Serif" font-size="10.00">_to&lt; K &gt; &gt;, std::allocator&lt; std::pair</text>
<text text-anchor="start" x="462" y="-45.5" font-family="Helvetica,sans-Serif" font-size="10.00">&lt; K, V &gt; &gt;, std::allocator_traits&lt; std</text>
<text text-anchor="start" x="462" y="-34.5" font-family="Helvetica,sans-Serif" font-size="10.00">::allocator&lt; std::pair&lt; K, V &gt; &gt; &gt;::template</text>
<text text-anchor="start" x="462" y="-23.5" font-family="Helvetica,sans-Serif" font-size="10.00"> rebind_alloc&lt; detailv3::sherwood_v3_entry</text>
<text text-anchor="middle" x="554.5" y="-12.5" font-family="Helvetica,sans-Serif" font-size="10.00">&lt; std::pair&lt; K, V &gt; &gt; &gt; &gt;</text>
</a>
</g>
</g>
<!-- Node2&#45;&gt;Node1 -->
<g id="edge1" class="edge">
<title>Node2&#45;&gt;Node1</title>
<path fill="none" stroke="midnightblue" d="M665.17,-81C674.08,-81 682.76,-81 690.87,-81"/>
<polygon fill="midnightblue" stroke="midnightblue" points="665.04,-77.5 655.04,-81 665.04,-84.5 665.04,-77.5"/>
</g>
<!-- Node3 -->
<g id="node3" class="node">
<title>Node3</title>
<g id="a_node3"><a xlink:title=" ">
<polygon fill="none" stroke="#bfbfbf" points="259,-120.5 259,-183.5 418,-183.5 418,-120.5 259,-120.5"/>
<text text-anchor="start" x="267" y="-171.5" font-family="Helvetica,sans-Serif" font-size="10.00">std::allocator_traits</text>
<text text-anchor="start" x="267" y="-160.5" font-family="Helvetica,sans-Serif" font-size="10.00">&lt; std::allocator&lt; std</text>
<text text-anchor="start" x="267" y="-149.5" font-family="Helvetica,sans-Serif" font-size="10.00">::pair&lt; K, V &gt; &gt; &gt;::template</text>
<text text-anchor="start" x="267" y="-138.5" font-family="Helvetica,sans-Serif" font-size="10.00"> rebind_alloc&lt; detailv3::sherwood</text>
<text text-anchor="middle" x="338.5" y="-127.5" font-family="Helvetica,sans-Serif" font-size="10.00">_v3_entry&lt; std::pair&lt; K, V &gt; &gt; &gt;</text>
</a>
</g>
</g>
<!-- Node3&#45;&gt;Node2 -->
<g id="edge2" class="edge">
<title>Node3&#45;&gt;Node2</title>
<path fill="none" stroke="#8b1a1a" d="M427.85,-122.69C436.41,-119.85 445.13,-116.96 453.78,-114.08"/>
<polygon fill="#8b1a1a" stroke="#8b1a1a" points="426.66,-119.39 418.27,-125.86 428.87,-126.04 426.66,-119.39"/>
</g>
<!-- Node4 -->
<g id="node4" class="node">
<title>Node4</title>
<g id="a_node4"><a xlink:href="structska_1_1detailv3_1_1KeyOrValueHasher.html" target="_top" xlink:title=" ">
<polygon fill="none" stroke="black" points="275,-60.5 275,-101.5 402,-101.5 402,-60.5 275,-60.5"/>
<text text-anchor="start" x="283" y="-89.5" font-family="Helvetica,sans-Serif" font-size="10.00">ska::detailv3::KeyOrValue</text>
<text text-anchor="start" x="283" y="-78.5" font-family="Helvetica,sans-Serif" font-size="10.00">Hasher&lt; K, std::pair&lt; K,</text>
<text text-anchor="middle" x="338.5" y="-67.5" font-family="Helvetica,sans-Serif" font-size="10.00"> V &gt;, std::hash&lt; K &gt; &gt;</text>
</a>
</g>
</g>
<!-- Node4&#45;&gt;Node2 -->
<g id="edge3" class="edge">
<title>Node4&#45;&gt;Node2</title>
<path fill="none" stroke="#8b1a1a" d="M412.29,-81C425.63,-81 439.77,-81 453.74,-81"/>
<polygon fill="#8b1a1a" stroke="#8b1a1a" points="412.26,-77.5 402.26,-81 412.26,-84.5 412.26,-77.5"/>
</g>
<!-- Node5 -->
<g id="node5" class="node">
<title>Node5</title>
<g id="a_node5"><a xlink:href="structska_1_1detailv3_1_1functor__storage.html" target="_top" xlink:title=" ">
<polygon fill="none" stroke="black" points="86,-36 86,-66 223,-66 223,-36 86,-36"/>
<text text-anchor="start" x="94" y="-54" font-family="Helvetica,sans-Serif" font-size="10.00">ska::detailv3::functor</text>
<text text-anchor="middle" x="154.5" y="-43" font-family="Helvetica,sans-Serif" font-size="10.00">_storage&lt; Result, Functor &gt;</text>
</a>
</g>
</g>
<!-- Node5&#45;&gt;Node4 -->
<g id="edge4" class="edge">
<title>Node5&#45;&gt;Node4</title>
<path fill="none" stroke="midnightblue" d="M233.08,-63.79C247.05,-66.09 261.45,-68.46 274.92,-70.68"/>
<polygon fill="midnightblue" stroke="midnightblue" points="233.45,-60.3 223.01,-62.13 232.31,-67.21 233.45,-60.3"/>
</g>
<!-- Node7 -->
<g id="node7" class="node">
<title>Node7</title>
<g id="a_node7"><a xlink:href="structska_1_1detailv3_1_1KeyOrValueEquality.html" target="_top" xlink:title=" ">
<polygon fill="none" stroke="black" points="267,-0.5 267,-41.5 410,-41.5 410,-0.5 267,-0.5"/>
<text text-anchor="start" x="275" y="-29.5" font-family="Helvetica,sans-Serif" font-size="10.00">ska::detailv3::KeyOrValue</text>
<text text-anchor="start" x="275" y="-18.5" font-family="Helvetica,sans-Serif" font-size="10.00">Equality&lt; K, std::pair</text>
<text text-anchor="middle" x="338.5" y="-7.5" font-family="Helvetica,sans-Serif" font-size="10.00">&lt; K, V &gt;, std::equal_to&lt; K &gt; &gt;</text>
</a>
</g>
</g>
<!-- Node5&#45;&gt;Node7 -->
<g id="edge7" class="edge">
<title>Node5&#45;&gt;Node7</title>
<path fill="none" stroke="midnightblue" d="M233.16,-38.2C244.31,-36.36 255.74,-34.48 266.75,-32.66"/>
<polygon fill="midnightblue" stroke="midnightblue" points="232.31,-34.79 223.01,-39.87 233.45,-41.7 232.31,-34.79"/>
</g>
<!-- Node6 -->
<g id="node6" class="node">
<title>Node6</title>
<g id="a_node6"><a xlink:title=" ">
<polygon fill="none" stroke="#bfbfbf" points="0,-41.5 0,-60.5 50,-60.5 50,-41.5 0,-41.5"/>
<text text-anchor="middle" x="25" y="-48.5" font-family="Helvetica,sans-Serif" font-size="10.00">Functor</text>
</a>
</g>
</g>
<!-- Node6&#45;&gt;Node5 -->
<g id="edge5" class="edge">
<title>Node6&#45;&gt;Node5</title>
<path fill="none" stroke="midnightblue" d="M60.5,-51C68.38,-51 77.03,-51 85.77,-51"/>
<polygon fill="midnightblue" stroke="midnightblue" points="60.28,-47.5 50.28,-51 60.28,-54.5 60.28,-47.5"/>
</g>
<!-- Node7&#45;&gt;Node2 -->
<g id="edge6" class="edge">
<title>Node7&#45;&gt;Node2</title>
<path fill="none" stroke="#8b1a1a" d="M419.81,-43.52C430.93,-46.63 442.45,-49.86 453.86,-53.06"/>
<polygon fill="#8b1a1a" stroke="#8b1a1a" points="420.74,-40.14 410.16,-40.81 418.85,-46.88 420.74,-40.14"/>
</g>
</g>
</svg>
