<?xml version="1.0" encoding="UTF-8" standalone="no"?>
<!DOCTYPE svg PUBLIC "-//W3C//DTD SVG 1.1//EN"
 "http://www.w3.org/Graphics/SVG/1.1/DTD/svg11.dtd">
<!-- Generated by graphviz version 2.47.1 (20210515.0534)
 -->
<!-- Title: Kadath::Metric_nophi_AADS Pages: 1 -->
<svg width="2100pt" height="854pt"
 viewBox="0.00 0.00 2100.00 854.00" xmlns="http://www.w3.org/2000/svg" xmlns:xlink="http://www.w3.org/1999/xlink">
<g id="graph0" class="graph" transform="scale(1 1) rotate(0) translate(4 850)">
<title>Kadath::Metric_nophi_AADS</title>
<!-- Node1 -->
<g id="node1" class="node">
<title>Node1</title>
<g id="a_node1"><a xlink:title=" ">
<polygon fill="#bfbfbf" stroke="black" points="1802,-642.5 1802,-661.5 1942,-661.5 1942,-642.5 1802,-642.5"/>
<text text-anchor="middle" x="1872" y="-649.5" font-family="Helvetica,sans-Serif" font-size="10.00">Kadath::Metric_nophi_AADS</text>
</a>
</g>
</g>
<!-- Node2 -->
<g id="node2" class="node">
<title>Node2</title>
<g id="a_node2"><a xlink:href="classKadath_1_1Metric.html" target="_top" xlink:title=" ">
<polygon fill="none" stroke="black" points="1464,-446.5 1464,-465.5 1543,-465.5 1543,-446.5 1464,-446.5"/>
<text text-anchor="middle" x="1503.5" y="-453.5" font-family="Helvetica,sans-Serif" font-size="10.00">Kadath::Metric</text>
</a>
</g>
</g>
<!-- Node2&#45;&gt;Node1 -->
<g id="edge1" class="edge">
<title>Node2&#45;&gt;Node1</title>
<path fill="none" stroke="midnightblue" d="M1531.52,-470.43C1575.88,-494.13 1666.93,-542.77 1744,-584 1782.81,-604.76 1828.29,-629.12 1852.92,-642.31"/>
<polygon fill="midnightblue" stroke="midnightblue" points="1533,-467.25 1522.53,-465.63 1529.7,-473.43 1533,-467.25"/>
</g>
<!-- Node11 -->
<g id="node11" class="node">
<title>Node11</title>
<g id="a_node11"><a xlink:href="classKadath_1_1System__of__eqs.html" target="_top" xlink:title=" ">
<polygon fill="none" stroke="black" points="1625,-294.5 1625,-313.5 1744,-313.5 1744,-294.5 1625,-294.5"/>
<text text-anchor="middle" x="1684.5" y="-301.5" font-family="Helvetica,sans-Serif" font-size="10.00">Kadath::System_of_eqs</text>
</a>
</g>
</g>
<!-- Node2&#45;&gt;Node11 -->
<g id="edge55" class="edge">
<title>Node2&#45;&gt;Node11</title>
<path fill="none" stroke="#9a32cd" stroke-dasharray="5,2" d="M1552.97,-449.32C1571.26,-444.97 1591.41,-437.8 1607,-426 1647.47,-395.38 1671.86,-336.61 1680.22,-313.58"/>
<polygon fill="#9a32cd" stroke="#9a32cd" points="1552.07,-445.93 1543.03,-451.46 1553.54,-452.78 1552.07,-445.93"/>
<text text-anchor="middle" x="1584" y="-449" font-family="Helvetica,sans-Serif" font-size="10.00"> met</text>
</g>
<!-- Node24 -->
<g id="node24" class="node">
<title>Node24</title>
<g id="a_node24"><a xlink:href="classKadath_1_1Metric__flat__nophi.html" target="_top" xlink:title=" ">
<polygon fill="none" stroke="black" points="1636,-593 1636,-623 1733,-623 1733,-593 1636,-593"/>
<text text-anchor="start" x="1644" y="-611" font-family="Helvetica,sans-Serif" font-size="10.00">Kadath::Metric_flat</text>
<text text-anchor="middle" x="1684.5" y="-600" font-family="Helvetica,sans-Serif" font-size="10.00">_nophi</text>
</a>
</g>
</g>
<!-- Node2&#45;&gt;Node24 -->
<g id="edge66" class="edge">
<title>Node2&#45;&gt;Node24</title>
<path fill="none" stroke="midnightblue" d="M1518.7,-473.58C1539.86,-498.98 1581.83,-546.35 1625,-578 1632.55,-583.53 1641.26,-588.6 1649.62,-592.93"/>
<polygon fill="midnightblue" stroke="midnightblue" points="1521.17,-471.07 1512.11,-465.57 1515.76,-475.52 1521.17,-471.07"/>
</g>
<!-- Node3 -->
<g id="node3" class="node">
<title>Node3</title>
<g id="a_node3"><a xlink:href="structKadath_1_1MemoryMappable.html" target="_top" xlink:title=" ">
<polygon fill="none" stroke="black" points="0,-362.5 0,-381.5 128,-381.5 128,-362.5 0,-362.5"/>
<text text-anchor="middle" x="64" y="-369.5" font-family="Helvetica,sans-Serif" font-size="10.00">Kadath::MemoryMappable</text>
</a>
</g>
</g>
<!-- Node3&#45;&gt;Node2 -->
<g id="edge2" class="edge">
<title>Node3&#45;&gt;Node2</title>
<path fill="none" stroke="midnightblue" d="M87.83,-356.95C128.71,-331.01 217.99,-278.85 302,-260 351,-249 364.8,-258.57 415,-260 571.19,-264.45 611.22,-258.61 766,-280 790.97,-283.45 1185.27,-369.5 1209,-378 1268.13,-399.17 1274.58,-424.84 1335,-442 1377.95,-454.2 1429.39,-456.81 1463.83,-456.95"/>
<polygon fill="midnightblue" stroke="midnightblue" points="85.93,-354.01 79.41,-362.36 89.72,-359.9 85.93,-354.01"/>
</g>
<!-- Node4 -->
<g id="node4" class="node">
<title>Node4</title>
<g id="a_node4"><a xlink:href="classKadath_1_1Space.html" target="_top" xlink:title=" ">
<polygon fill="none" stroke="black" points="674.5,-526.5 674.5,-545.5 754.5,-545.5 754.5,-526.5 674.5,-526.5"/>
<text text-anchor="middle" x="714.5" y="-533.5" font-family="Helvetica,sans-Serif" font-size="10.00">Kadath::Space</text>
</a>
</g>
</g>
<!-- Node3&#45;&gt;Node4 -->
<g id="edge4" class="edge">
<title>Node3&#45;&gt;Node4</title>
<path fill="none" stroke="midnightblue" d="M78.82,-389.35C96.51,-410.35 129.2,-445.22 165,-464 212.49,-488.91 499.23,-537.05 565,-543 602.01,-546.35 644.37,-543.72 674.35,-540.77"/>
<polygon fill="midnightblue" stroke="midnightblue" points="81.45,-387.04 72.39,-381.54 76.04,-391.49 81.45,-387.04"/>
</g>
<!-- Node5 -->
<g id="node5" class="node">
<title>Node5</title>
<g id="a_node5"><a xlink:href="classKadath_1_1Domain.html" target="_top" xlink:title=" ">
<polygon fill="none" stroke="black" points="447.5,-439.5 447.5,-458.5 532.5,-458.5 532.5,-439.5 447.5,-439.5"/>
<text text-anchor="middle" x="490" y="-446.5" font-family="Helvetica,sans-Serif" font-size="10.00">Kadath::Domain</text>
</a>
</g>
</g>
<!-- Node3&#45;&gt;Node5 -->
<g id="edge6" class="edge">
<title>Node3&#45;&gt;Node5</title>
<path fill="none" stroke="midnightblue" d="M101.49,-384.78C147.57,-400.31 229.58,-425.93 302,-438 351.56,-446.26 409.41,-448.56 447.49,-449.08"/>
<polygon fill="midnightblue" stroke="midnightblue" points="102.54,-381.44 91.95,-381.54 100.29,-388.07 102.54,-381.44"/>
</g>
<!-- Node6 -->
<g id="node6" class="node">
<title>Node6</title>
<g id="a_node6"><a xlink:href="classKadath_1_1Dim__array.html" target="_top" xlink:title=" ">
<polygon fill="none" stroke="black" points="177,-208.5 177,-227.5 272,-227.5 272,-208.5 177,-208.5"/>
<text text-anchor="middle" x="224.5" y="-215.5" font-family="Helvetica,sans-Serif" font-size="10.00">Kadath::Dim_array</text>
</a>
</g>
</g>
<!-- Node3&#45;&gt;Node6 -->
<g id="edge8" class="edge">
<title>Node3&#45;&gt;Node6</title>
<path fill="none" stroke="midnightblue" d="M71.99,-352.58C83.21,-324.15 107.91,-271.38 146,-242 154.92,-235.12 165.84,-230.19 176.63,-226.68"/>
<polygon fill="midnightblue" stroke="midnightblue" points="68.62,-351.6 68.35,-362.19 75.17,-354.08 68.62,-351.6"/>
</g>
<!-- Node7 -->
<g id="node7" class="node">
<title>Node7</title>
<g id="a_node7"><a xlink:href="classKadath_1_1Array.html" target="_top" xlink:title=" ">
<polygon fill="none" stroke="black" points="165,-362.5 165,-381.5 284,-381.5 284,-362.5 165,-362.5"/>
<text text-anchor="middle" x="224.5" y="-369.5" font-family="Helvetica,sans-Serif" font-size="10.00">Kadath::Array&lt; double &gt;</text>
</a>
</g>
</g>
<!-- Node3&#45;&gt;Node7 -->
<g id="edge10" class="edge">
<title>Node3&#45;&gt;Node7</title>
<path fill="none" stroke="midnightblue" d="M138.18,-372C147.17,-372 156.26,-372 164.99,-372"/>
<polygon fill="midnightblue" stroke="midnightblue" points="138.1,-368.5 128.1,-372 138.1,-375.5 138.1,-368.5"/>
</g>
<!-- Node8 -->
<g id="node8" class="node">
<title>Node8</title>
<g id="a_node8"><a xlink:href="classKadath_1_1Val__domain.html" target="_top" xlink:title=" ">
<polygon fill="none" stroke="black" points="663,-416.5 663,-435.5 766,-435.5 766,-416.5 663,-416.5"/>
<text text-anchor="middle" x="714.5" y="-423.5" font-family="Helvetica,sans-Serif" font-size="10.00">Kadath::Val_domain</text>
</a>
</g>
</g>
<!-- Node3&#45;&gt;Node8 -->
<g id="edge12" class="edge">
<title>Node3&#45;&gt;Node8</title>
<path fill="none" stroke="midnightblue" d="M115.67,-360.46C131.39,-357.4 148.84,-354.52 165,-353 334.03,-337.08 377.49,-343.52 547,-353 590.76,-355.45 605.05,-345.98 645,-364 671.61,-376 695.01,-402.28 706.31,-416.46"/>
<polygon fill="midnightblue" stroke="midnightblue" points="114.73,-357.08 105.62,-362.49 116.12,-363.94 114.73,-357.08"/>
</g>
<!-- Node9 -->
<g id="node9" class="node">
<title>Node9</title>
<g id="a_node9"><a xlink:href="classKadath_1_1Base__spectral.html" target="_top" xlink:title=" ">
<polygon fill="none" stroke="black" points="433,-489.5 433,-508.5 547,-508.5 547,-489.5 433,-489.5"/>
<text text-anchor="middle" x="490" y="-496.5" font-family="Helvetica,sans-Serif" font-size="10.00">Kadath::Base_spectral</text>
</a>
</g>
</g>
<!-- Node3&#45;&gt;Node9 -->
<g id="edge16" class="edge">
<title>Node3&#45;&gt;Node9</title>
<path fill="none" stroke="midnightblue" d="M85.63,-387.55C105.1,-401.48 135.62,-421.46 165,-433 255.03,-468.37 366.91,-485.77 432.87,-493.54"/>
<polygon fill="midnightblue" stroke="midnightblue" points="87.65,-384.69 77.5,-381.62 83.52,-390.34 87.65,-384.69"/>
</g>
<!-- Node10 -->
<g id="node10" class="node">
<title>Node10</title>
<g id="a_node10"><a xlink:href="classKadath_1_1Array.html" target="_top" xlink:title=" ">
<polygon fill="none" stroke="black" points="174,-625.5 174,-644.5 275,-644.5 275,-625.5 174,-625.5"/>
<text text-anchor="middle" x="224.5" y="-632.5" font-family="Helvetica,sans-Serif" font-size="10.00">Kadath::Array&lt; int &gt;</text>
</a>
</g>
</g>
<!-- Node3&#45;&gt;Node10 -->
<g id="edge18" class="edge">
<title>Node3&#45;&gt;Node10</title>
<path fill="none" stroke="midnightblue" d="M67.05,-391.93C72.42,-434.77 90.59,-536.68 146,-598 157.59,-610.83 174.59,-619.63 189.72,-625.42"/>
<polygon fill="midnightblue" stroke="midnightblue" points="70.52,-391.47 65.89,-381.94 63.56,-392.27 70.52,-391.47"/>
</g>
<!-- Node12 -->
<g id="node12" class="node">
<title>Node12</title>
<g id="a_node12"><a xlink:href="classKadath_1_1Equation.html" target="_top" xlink:title=" ">
<polygon fill="none" stroke="black" points="2003,-516.5 2003,-535.5 2092,-535.5 2092,-516.5 2003,-516.5"/>
<text text-anchor="middle" x="2047.5" y="-523.5" font-family="Helvetica,sans-Serif" font-size="10.00">Kadath::Equation</text>
</a>
</g>
</g>
<!-- Node3&#45;&gt;Node12 -->
<g id="edge22" class="edge">
<title>Node3&#45;&gt;Node12</title>
<path fill="none" stroke="midnightblue" d="M65.8,-391.75C68.91,-453.19 83.37,-645.49 146,-789 163.1,-828.19 180.74,-846 223.5,-846 223.5,-846 223.5,-846 1873,-846 2018.03,-846 2042.47,-588.82 2045.97,-535.58"/>
<polygon fill="midnightblue" stroke="midnightblue" points="69.29,-391.37 65.33,-381.54 62.29,-391.69 69.29,-391.37"/>
</g>
<!-- Node13 -->
<g id="node13" class="node">
<title>Node13</title>
<g id="a_node13"><a xlink:href="classKadath_1_1Ope__eq.html" target="_top" xlink:title=" ">
<polygon fill="none" stroke="black" points="1829,-219.5 1829,-238.5 1915,-238.5 1915,-219.5 1829,-219.5"/>
<text text-anchor="middle" x="1872" y="-226.5" font-family="Helvetica,sans-Serif" font-size="10.00">Kadath::Ope_eq</text>
</a>
</g>
</g>
<!-- Node3&#45;&gt;Node13 -->
<g id="edge25" class="edge">
<title>Node3&#45;&gt;Node13</title>
<path fill="none" stroke="midnightblue" d="M65.19,-351.98C67.04,-279.92 83.66,-38 223.5,-38 223.5,-38 223.5,-38 1685.5,-38 1779.31,-38 1724.58,-161.03 1802,-214 1809.89,-219.4 1819.38,-222.9 1828.76,-225.16"/>
<polygon fill="midnightblue" stroke="midnightblue" points="61.69,-352.3 65,-362.36 68.69,-352.43 61.69,-352.3"/>
</g>
<!-- Node14 -->
<g id="node14" class="node">
<title>Node14</title>
<g id="a_node14"><a xlink:href="classKadath_1_1Eq__int.html" target="_top" xlink:title=" ">
<polygon fill="none" stroke="black" points="2008,-170.5 2008,-189.5 2087,-189.5 2087,-170.5 2008,-170.5"/>
<text text-anchor="middle" x="2047.5" y="-177.5" font-family="Helvetica,sans-Serif" font-size="10.00">Kadath::Eq_int</text>
</a>
</g>
</g>
<!-- Node3&#45;&gt;Node14 -->
<g id="edge30" class="edge">
<title>Node3&#45;&gt;Node14</title>
<path fill="none" stroke="midnightblue" d="M64.36,-352.21C63,-275.22 68.92,0 223.5,0 223.5,0 223.5,0 1873,0 1968.49,0 2027.99,-132.93 2042.84,-170.32"/>
<polygon fill="midnightblue" stroke="midnightblue" points="60.87,-352.52 64.61,-362.43 67.87,-352.35 60.87,-352.52"/>
</g>
<!-- Node15 -->
<g id="node15" class="node">
<title>Node15</title>
<g id="a_node15"><a xlink:href="classKadath_1_1Index.html" target="_top" xlink:title=" ">
<polygon fill="none" stroke="black" points="452.5,-132.5 452.5,-151.5 527.5,-151.5 527.5,-132.5 452.5,-132.5"/>
<text text-anchor="middle" x="490" y="-139.5" font-family="Helvetica,sans-Serif" font-size="10.00">Kadath::Index</text>
</a>
</g>
</g>
<!-- Node3&#45;&gt;Node15 -->
<g id="edge34" class="edge">
<title>Node3&#45;&gt;Node15</title>
<path fill="none" stroke="midnightblue" d="M66.15,-351.91C69.77,-309.49 84.7,-210.98 146,-166 238.29,-98.29 384.76,-118.55 452.47,-132.98"/>
<polygon fill="midnightblue" stroke="midnightblue" points="62.65,-351.85 65.41,-362.08 69.63,-352.36 62.65,-351.85"/>
</g>
<!-- Node16 -->
<g id="node16" class="node">
<title>Node16</title>
<g id="a_node16"><a xlink:href="classKadath_1_1Param.html" target="_top" xlink:title=" ">
<polygon fill="none" stroke="black" points="565,-79.5 565,-98.5 645,-98.5 645,-79.5 565,-79.5"/>
<text text-anchor="middle" x="605" y="-86.5" font-family="Helvetica,sans-Serif" font-size="10.00">Kadath::Param</text>
</a>
</g>
</g>
<!-- Node3&#45;&gt;Node16 -->
<g id="edge38" class="edge">
<title>Node3&#45;&gt;Node16</title>
<path fill="none" stroke="midnightblue" d="M65.86,-352.41C69.2,-303.04 85.51,-173.45 165,-117 288.91,-29.01 485.45,-60.9 566.83,-79.46"/>
<polygon fill="midnightblue" stroke="midnightblue" points="62.36,-352.23 65.29,-362.42 69.35,-352.63 62.36,-352.23"/>
</g>
<!-- Node17 -->
<g id="node17" class="node">
<title>Node17</title>
<g id="a_node17"><a xlink:href="classKadath_1_1Term__eq.html" target="_top" xlink:title=" ">
<polygon fill="none" stroke="black" points="1227,-228.5 1227,-247.5 1317,-247.5 1317,-228.5 1227,-228.5"/>
<text text-anchor="middle" x="1272" y="-235.5" font-family="Helvetica,sans-Serif" font-size="10.00">Kadath::Term_eq</text>
</a>
</g>
</g>
<!-- Node3&#45;&gt;Node17 -->
<g id="edge41" class="edge">
<title>Node3&#45;&gt;Node17</title>
<path fill="none" stroke="midnightblue" d="M71.06,-352.39C83.11,-316.64 113.43,-240.73 165,-199 186.25,-181.8 196.16,-180 223.5,-180 223.5,-180 223.5,-180 799.5,-180 870.32,-180 885.86,-200.19 956,-210 1052.1,-223.45 1165.66,-231.67 1226.76,-235.48"/>
<polygon fill="midnightblue" stroke="midnightblue" points="67.67,-351.52 67.91,-362.11 74.32,-353.68 67.67,-351.52"/>
</g>
<!-- Node18 -->
<g id="node18" class="node">
<title>Node18</title>
<g id="a_node18"><a xlink:href="classKadath_1_1Tensor.html" target="_top" xlink:title=" ">
<polygon fill="none" stroke="black" points="1053,-598.5 1053,-617.5 1135,-617.5 1135,-598.5 1053,-598.5"/>
<text text-anchor="middle" x="1094" y="-605.5" font-family="Helvetica,sans-Serif" font-size="10.00">Kadath::Tensor</text>
</a>
</g>
</g>
<!-- Node3&#45;&gt;Node18 -->
<g id="edge43" class="edge">
<title>Node3&#45;&gt;Node18</title>
<path fill="none" stroke="midnightblue" d="M74.95,-390.51C90.46,-417.48 123.03,-467.19 165,-493 218.18,-525.7 240.75,-511.94 302,-524 586.2,-579.97 935.7,-600.61 1052.7,-606.25"/>
<polygon fill="midnightblue" stroke="midnightblue" points="77.96,-388.71 70.02,-381.69 71.85,-392.12 77.96,-388.71"/>
</g>
<!-- Node20 -->
<g id="node20" class="node">
<title>Node20</title>
<g id="a_node20"><a xlink:href="classKadath_1_1Base__tensor.html" target="_top" xlink:title=" ">
<polygon fill="none" stroke="black" points="831,-678.5 831,-697.5 938,-697.5 938,-678.5 831,-678.5"/>
<text text-anchor="middle" x="884.5" y="-685.5" font-family="Helvetica,sans-Serif" font-size="10.00">Kadath::Base_tensor</text>
</a>
</g>
</g>
<!-- Node3&#45;&gt;Node20 -->
<g id="edge50" class="edge">
<title>Node3&#45;&gt;Node20</title>
<path fill="none" stroke="midnightblue" d="M66.91,-391.61C72.72,-441.38 94.34,-574.32 165,-654 212.23,-707.27 233.43,-717.85 302,-737 391.71,-762.06 550.65,-741.96 813,-703 822.78,-701.55 833.24,-699.56 843.02,-697.51"/>
<polygon fill="midnightblue" stroke="midnightblue" points="70.38,-391.12 65.83,-381.56 63.42,-391.87 70.38,-391.12"/>
</g>
<!-- Node21 -->
<g id="node21" class="node">
<title>Node21</title>
<g id="a_node21"><a xlink:href="classKadath_1_1Param__tensor.html" target="_top" xlink:title=" ">
<polygon fill="none" stroke="black" points="302,-793.5 302,-812.5 415,-812.5 415,-793.5 302,-793.5"/>
<text text-anchor="middle" x="358.5" y="-800.5" font-family="Helvetica,sans-Serif" font-size="10.00">Kadath::Param_tensor</text>
</a>
</g>
</g>
<!-- Node3&#45;&gt;Node21 -->
<g id="edge54" class="edge">
<title>Node3&#45;&gt;Node21</title>
<path fill="none" stroke="midnightblue" d="M66.02,-391.68C70.26,-465.12 88.98,-721.67 146,-775 187.25,-813.59 254.41,-816.14 301.97,-811.89"/>
<polygon fill="midnightblue" stroke="midnightblue" points="69.51,-391.32 65.46,-381.53 62.52,-391.7 69.51,-391.32"/>
</g>
<!-- Node4&#45;&gt;Node2 -->
<g id="edge3" class="edge">
<title>Node4&#45;&gt;Node2</title>
<path fill="none" stroke="#9a32cd" stroke-dasharray="5,2" d="M764.82,-526.52C813.3,-517.56 889.48,-504.41 956,-497 1172.84,-472.84 1229.56,-494.57 1446,-467 1451.75,-466.27 1457.79,-465.3 1463.7,-464.25"/>
<polygon fill="#9a32cd" stroke="#9a32cd" points="764.1,-523.1 754.91,-528.37 765.38,-529.98 764.1,-523.1"/>
<text text-anchor="middle" x="1094" y="-491" font-family="Helvetica,sans-Serif" font-size="10.00"> espace</text>
</g>
<!-- Node4&#45;&gt;Node11 -->
<g id="edge32" class="edge">
<title>Node4&#45;&gt;Node11</title>
<path fill="none" stroke="#9a32cd" stroke-dasharray="5,2" d="M751.15,-523C773.92,-514.78 804.12,-504.04 831,-495 998.08,-438.84 1041.19,-428.94 1209,-375 1265.07,-356.98 1276.84,-343.22 1335,-334 1383.72,-326.27 1401.65,-312.39 1446,-334 1457.67,-339.69 1452.33,-351.31 1464,-357 1521.13,-384.84 1546.34,-375.96 1607,-357 1634.14,-348.52 1660.12,-326.65 1673.71,-313.81"/>
<polygon fill="#9a32cd" stroke="#9a32cd" points="749.77,-519.77 741.56,-526.47 752.15,-526.35 749.77,-519.77"/>
<text text-anchor="middle" x="1181" y="-395" font-family="Helvetica,sans-Serif" font-size="10.00"> espace</text>
</g>
<!-- Node4&#45;&gt;Node18 -->
<g id="edge44" class="edge">
<title>Node4&#45;&gt;Node18</title>
<path fill="none" stroke="#9a32cd" stroke-dasharray="5,2" d="M764.83,-531.71C829.39,-527.99 944.91,-527.92 1035,-564 1054.48,-571.8 1073.08,-587.99 1083.76,-598.4"/>
<polygon fill="#9a32cd" stroke="#9a32cd" points="764.29,-528.24 754.53,-532.36 764.73,-535.22 764.29,-528.24"/>
<text text-anchor="middle" x="884.5" y="-541" font-family="Helvetica,sans-Serif" font-size="10.00"> espace</text>
</g>
<!-- Node4&#45;&gt;Node20 -->
<g id="edge51" class="edge">
<title>Node4&#45;&gt;Node20</title>
<path fill="none" stroke="#9a32cd" stroke-dasharray="5,2" d="M733.61,-552.39C768.73,-584.16 845.07,-653.23 872.99,-678.5"/>
<polygon fill="#9a32cd" stroke="#9a32cd" points="735.77,-549.62 726.01,-545.51 731.08,-554.81 735.77,-549.62"/>
<text text-anchor="middle" x="798.5" y="-624" font-family="Helvetica,sans-Serif" font-size="10.00"> space</text>
</g>
<!-- Node5&#45;&gt;Node4 -->
<g id="edge5" class="edge">
<title>Node5&#45;&gt;Node4</title>
<path fill="none" stroke="#9a32cd" stroke-dasharray="5,2" d="M521.44,-463.29C530.11,-468.03 539.28,-473.71 547,-480 556.53,-487.77 554.5,-494.61 565,-501 598.49,-521.38 642.89,-529.9 674.39,-533.45"/>
<polygon fill="#9a32cd" stroke="#9a32cd" points="522.82,-460.06 512.33,-458.55 519.58,-466.27 522.82,-460.06"/>
<text text-anchor="middle" x="605" y="-531" font-family="Helvetica,sans-Serif" font-size="10.00"> domains</text>
</g>
<!-- Node5&#45;&gt;Node8 -->
<g id="edge19" class="edge">
<title>Node5&#45;&gt;Node8</title>
<path fill="none" stroke="#9a32cd" stroke-dasharray="5,2" d="M542.94,-449.61C572.91,-449.3 611.23,-447.8 645,-443 656.89,-441.31 669.71,-438.42 681.02,-435.5"/>
<polygon fill="#9a32cd" stroke="#9a32cd" points="542.69,-446.11 532.71,-449.67 542.73,-453.11 542.69,-446.11"/>
<text text-anchor="middle" x="605" y="-452" font-family="Helvetica,sans-Serif" font-size="10.00"> zone</text>
</g>
<!-- Node5&#45;&gt;Node12 -->
<g id="edge28" class="edge">
<title>Node5&#45;&gt;Node12</title>
<path fill="none" stroke="#9a32cd" stroke-dasharray="5,2" d="M504.88,-431.34C518.33,-415.78 540.29,-394.2 565,-385 649.22,-353.63 677.71,-390.24 766,-407 930.25,-438.18 971.86,-443.49 1135,-480 1224.41,-500.01 1244.06,-518.81 1335,-530 1383.96,-536.03 1396.67,-530.16 1446,-530 1654.51,-529.31 1903.74,-527.25 2002.8,-526.39"/>
<polygon fill="#9a32cd" stroke="#9a32cd" points="502.01,-429.32 498.32,-439.25 507.4,-433.79 502.01,-429.32"/>
<text text-anchor="middle" x="1272" y="-530" font-family="Helvetica,sans-Serif" font-size="10.00"> dom</text>
</g>
<!-- Node6&#45;&gt;Node5 -->
<g id="edge7" class="edge">
<title>Node6&#45;&gt;Node5</title>
<path fill="none" stroke="#9a32cd" stroke-dasharray="5,2" d="M252.78,-232.48C293.91,-255.67 371.59,-305.02 415,-368 430.08,-389.87 415.17,-405.31 433,-425 438.68,-431.27 446.28,-435.97 454.04,-439.46"/>
<polygon fill="#9a32cd" stroke="#9a32cd" points="254.31,-229.33 243.87,-227.54 250.92,-235.45 254.31,-229.33"/>
<text text-anchor="middle" x="358.5" y="-382" font-family="Helvetica,sans-Serif" font-size="10.00"> nbr_coefs</text>
<text text-anchor="middle" x="358.5" y="-371" font-family="Helvetica,sans-Serif" font-size="10.00">nbr_points</text>
</g>
<!-- Node6&#45;&gt;Node15 -->
<g id="edge35" class="edge">
<title>Node6&#45;&gt;Node15</title>
<path fill="none" stroke="#9a32cd" stroke-dasharray="5,2" d="M268.27,-205.66C320.65,-190.56 408.26,-165.29 455.82,-151.57"/>
<polygon fill="#9a32cd" stroke="#9a32cd" points="267.24,-202.32 258.61,-208.45 269.18,-209.04 267.24,-202.32"/>
<text text-anchor="middle" x="358.5" y="-199" font-family="Helvetica,sans-Serif" font-size="10.00"> sizes</text>
</g>
<!-- Node7&#45;&gt;Node5 -->
<g id="edge9" class="edge">
<title>Node7&#45;&gt;Node5</title>
<path fill="none" stroke="#9a32cd" stroke-dasharray="5,2" d="M268.54,-384.41C306.97,-395.5 364.76,-412.24 415,-427 428.76,-431.04 443.94,-435.55 456.96,-439.43"/>
<polygon fill="#9a32cd" stroke="#9a32cd" points="269.3,-380.98 258.72,-381.57 267.36,-387.71 269.3,-380.98"/>
<text text-anchor="middle" x="358.5" y="-430" font-family="Helvetica,sans-Serif" font-size="10.00"> coloc</text>
</g>
<!-- Node7&#45;&gt;Node8 -->
<g id="edge13" class="edge">
<title>Node7&#45;&gt;Node8</title>
<path fill="none" stroke="#9a32cd" stroke-dasharray="5,2" d="M294.27,-363.73C378.76,-355.91 525.57,-349.99 645,-385 666.81,-391.39 688.79,-406.42 701.77,-416.4"/>
<polygon fill="#9a32cd" stroke="#9a32cd" points="293.9,-360.25 284.29,-364.69 294.57,-367.22 293.9,-360.25"/>
<text text-anchor="middle" x="490" y="-378" font-family="Helvetica,sans-Serif" font-size="10.00"> c</text>
<text text-anchor="middle" x="490" y="-367" font-family="Helvetica,sans-Serif" font-size="10.00">cf</text>
</g>
<!-- Node7&#45;&gt;Node11 -->
<g id="edge39" class="edge">
<title>Node7&#45;&gt;Node11</title>
<path fill="none" stroke="#9a32cd" stroke-dasharray="5,2" d="M264.58,-359.27C327.34,-339.21 454.74,-300.05 565,-276 834.53,-217.2 904.13,-192 1180,-192 1180,-192 1180,-192 1504.5,-192 1581.48,-192 1652.62,-267.37 1675.7,-294.45"/>
<polygon fill="#9a32cd" stroke="#9a32cd" points="263.17,-356.05 254.71,-362.44 265.3,-362.71 263.17,-356.05"/>
<text text-anchor="middle" x="995.5" y="-204" font-family="Helvetica,sans-Serif" font-size="10.00"> val_cst_hard</text>
</g>
<!-- Node8&#45;&gt;Node5 -->
<g id="edge11" class="edge">
<title>Node8&#45;&gt;Node5</title>
<path fill="none" stroke="#9a32cd" stroke-dasharray="5,2" d="M687.65,-411.81C656.77,-396.94 604.38,-378.37 565,-399 552.55,-405.52 557.88,-416.11 547,-425 539.63,-431.02 530.52,-435.78 521.8,-439.41"/>
<polygon fill="#9a32cd" stroke="#9a32cd" points="686.36,-415.08 696.87,-416.46 689.51,-408.83 686.36,-415.08"/>
<text text-anchor="middle" x="605" y="-435" font-family="Helvetica,sans-Serif" font-size="10.00"> absol</text>
<text text-anchor="middle" x="605" y="-424" font-family="Helvetica,sans-Serif" font-size="10.00">cart</text>
<text text-anchor="middle" x="605" y="-413" font-family="Helvetica,sans-Serif" font-size="10.00">cart_surr</text>
<text text-anchor="middle" x="605" y="-402" font-family="Helvetica,sans-Serif" font-size="10.00">radius</text>
</g>
<!-- Node8&#45;&gt;Node8 -->
<g id="edge14" class="edge">
<title>Node8&#45;&gt;Node8</title>
<path fill="none" stroke="#9a32cd" stroke-dasharray="5,2" d="M699.03,-445.77C700.25,-450.5 705.4,-454 714.5,-454 729.43,-454 733.75,-444.57 727.45,-435.76"/>
<polygon fill="#9a32cd" stroke="#9a32cd" points="702.5,-446.31 701.55,-435.76 695.72,-444.6 702.5,-446.31"/>
<text text-anchor="middle" x="714.5" y="-468" font-family="Helvetica,sans-Serif" font-size="10.00"> p_der_abs</text>
<text text-anchor="middle" x="714.5" y="-457" font-family="Helvetica,sans-Serif" font-size="10.00">p_der_var</text>
</g>
<!-- Node19 -->
<g id="node19" class="node">
<title>Node19</title>
<g id="a_node19"><a xlink:href="classKadath_1_1Scalar.html" target="_top" xlink:title=" ">
<polygon fill="none" stroke="black" points="1232,-598.5 1232,-617.5 1312,-617.5 1312,-598.5 1232,-598.5"/>
<text text-anchor="middle" x="1272" y="-605.5" font-family="Helvetica,sans-Serif" font-size="10.00">Kadath::Scalar</text>
</a>
</g>
</g>
<!-- Node8&#45;&gt;Node19 -->
<g id="edge47" class="edge">
<title>Node8&#45;&gt;Node19</title>
<path fill="none" stroke="#9a32cd" stroke-dasharray="5,2" d="M756.02,-438.46C816.78,-457.23 935.04,-494.05 1035,-527 1110.91,-552.02 1199.98,-583.05 1243.82,-598.43"/>
<polygon fill="#9a32cd" stroke="#9a32cd" points="757.01,-435.1 746.42,-435.5 754.95,-441.79 757.01,-435.1"/>
<text text-anchor="middle" x="995.5" y="-530" font-family="Helvetica,sans-Serif" font-size="10.00"> val_zones</text>
</g>
<!-- Node9&#45;&gt;Node8 -->
<g id="edge15" class="edge">
<title>Node9&#45;&gt;Node8</title>
<path fill="none" stroke="#9a32cd" stroke-dasharray="5,2" d="M556.99,-488.27C584.7,-482.68 616.94,-474.72 645,-464 664.69,-456.48 685.65,-444.13 699.12,-435.56"/>
<polygon fill="#9a32cd" stroke="#9a32cd" points="556.14,-484.87 547,-490.22 557.49,-491.74 556.14,-484.87"/>
<text text-anchor="middle" x="605" y="-489" font-family="Helvetica,sans-Serif" font-size="10.00"> base</text>
</g>
<!-- Node10&#45;&gt;Node9 -->
<g id="edge17" class="edge">
<title>Node10&#45;&gt;Node9</title>
<path fill="none" stroke="#9a32cd" stroke-dasharray="5,2" d="M253,-620.8C306.84,-593.02 424.87,-532.1 470.49,-508.55"/>
<polygon fill="#9a32cd" stroke="#9a32cd" points="251.31,-617.74 244.03,-625.44 254.52,-623.96 251.31,-617.74"/>
<text text-anchor="middle" x="358.5" y="-597" font-family="Helvetica,sans-Serif" font-size="10.00"> bases_1d</text>
</g>
<!-- Node10&#45;&gt;Node11 -->
<g id="edge36" class="edge">
<title>Node10&#45;&gt;Node11</title>
<path fill="none" stroke="#9a32cd" stroke-dasharray="5,2" d="M226.32,-614.87C229.23,-570.79 242.39,-465 302,-407 365.02,-345.69 611.32,-294 797.5,-294 797.5,-294 797.5,-294 1095,-294 1251.4,-294 1296.1,-274.41 1446,-319 1454.77,-321.61 1455.14,-326.7 1464,-329 1497.99,-337.81 1508.02,-332.09 1543,-329 1576.32,-326.06 1613.57,-319.27 1641.34,-313.5"/>
<polygon fill="#9a32cd" stroke="#9a32cd" points="222.81,-614.96 225.76,-625.14 229.8,-615.34 222.81,-614.96"/>
<text text-anchor="middle" x="995.5" y="-308" font-family="Helvetica,sans-Serif" font-size="10.00"> assoc_var</text>
<text text-anchor="middle" x="995.5" y="-297" font-family="Helvetica,sans-Serif" font-size="10.00">assoc_var_double</text>
</g>
<!-- Node10&#45;&gt;Node12 -->
<g id="edge23" class="edge">
<title>Node10&#45;&gt;Node12</title>
<path fill="none" stroke="#9a32cd" stroke-dasharray="5,2" d="M283.45,-649.61C283.64,-649.74 283.82,-649.87 284,-650 296,-658.66 289.63,-669.88 302,-678 411.47,-749.83 752.56,-773 883.5,-773 883.5,-773 883.5,-773 1873,-773 1991.17,-773 2035.78,-581.35 2044.73,-535.68"/>
<polygon fill="#9a32cd" stroke="#9a32cd" points="285.07,-646.51 274.66,-644.57 281.59,-652.58 285.07,-646.51"/>
<text text-anchor="middle" x="1181" y="-787" font-family="Helvetica,sans-Serif" font-size="10.00"> n_cond</text>
<text text-anchor="middle" x="1181" y="-776" font-family="Helvetica,sans-Serif" font-size="10.00">p_cmp_used</text>
</g>
<!-- Node10&#45;&gt;Node18 -->
<g id="edge48" class="edge">
<title>Node10&#45;&gt;Node18</title>
<path fill="none" stroke="#9a32cd" stroke-dasharray="5,2" d="M285.23,-634.43C391.44,-633.28 620.11,-630.13 813,-623 898.38,-619.84 998.29,-613.96 1052.68,-610.58"/>
<polygon fill="#9a32cd" stroke="#9a32cd" points="285,-630.93 275.03,-634.54 285.07,-637.93 285,-630.93"/>
<text text-anchor="middle" x="714.5" y="-641" font-family="Helvetica,sans-Serif" font-size="10.00"> give_indices</text>
<text text-anchor="middle" x="714.5" y="-630" font-family="Helvetica,sans-Serif" font-size="10.00">type_indice</text>
</g>
<!-- Node10&#45;&gt;Node20 -->
<g id="edge52" class="edge">
<title>Node10&#45;&gt;Node20</title>
<path fill="none" stroke="#9a32cd" stroke-dasharray="5,2" d="M263.03,-647.63C275.32,-651.27 289.12,-654.83 302,-657 494.92,-689.45 728.42,-690.56 830.94,-689.16"/>
<polygon fill="#9a32cd" stroke="#9a32cd" points="263.71,-644.18 253.13,-644.59 261.66,-650.87 263.71,-644.18"/>
<text text-anchor="middle" x="605" y="-690" font-family="Helvetica,sans-Serif" font-size="10.00"> basis</text>
</g>
<!-- Node11&#45;&gt;Node2 -->
<g id="edge20" class="edge">
<title>Node11&#45;&gt;Node2</title>
<path fill="none" stroke="#9a32cd" stroke-dasharray="5,2" d="M1671.35,-321.74C1657.51,-340.94 1633.38,-371.55 1607,-392 1588.93,-406 1580.54,-403.14 1561,-415 1545.05,-424.69 1527.84,-437.56 1516.66,-446.27"/>
<polygon fill="#9a32cd" stroke="#9a32cd" points="1674.22,-323.75 1677.12,-313.56 1668.5,-319.71 1674.22,-323.75"/>
<text text-anchor="middle" x="1584" y="-418" font-family="Helvetica,sans-Serif" font-size="10.00"> syst</text>
</g>
<!-- Node11&#45;&gt;Node13 -->
<g id="edge27" class="edge">
<title>Node11&#45;&gt;Node13</title>
<path fill="none" stroke="#9a32cd" stroke-dasharray="5,2" d="M1718.73,-290.57C1755.72,-275.61 1814.57,-251.81 1847.22,-238.61"/>
<polygon fill="#9a32cd" stroke="#9a32cd" points="1717.33,-287.36 1709.37,-294.35 1719.95,-293.85 1717.33,-287.36"/>
<text text-anchor="middle" x="1773" y="-274" font-family="Helvetica,sans-Serif" font-size="10.00"> syst</text>
</g>
<!-- Node12&#45;&gt;Node11 -->
<g id="edge21" class="edge">
<title>Node12&#45;&gt;Node11</title>
<path fill="none" stroke="#9a32cd" stroke-dasharray="5,2" d="M2022.18,-511.04C1953.19,-468.62 1757.6,-348.34 1701.01,-313.54"/>
<polygon fill="#9a32cd" stroke="#9a32cd" points="2020.69,-514.24 2031.05,-516.5 2024.36,-508.28 2020.69,-514.24"/>
<text text-anchor="middle" x="1872" y="-461" font-family="Helvetica,sans-Serif" font-size="10.00"> eq</text>
</g>
<!-- Node13&#45;&gt;Node12 -->
<g id="edge24" class="edge">
<title>Node13&#45;&gt;Node12</title>
<path fill="none" stroke="#9a32cd" stroke-dasharray="5,2" d="M1898.49,-243.97C1912.8,-253.4 1930.11,-266.69 1942,-282 2003.33,-360.99 2035.77,-481.38 2044.23,-516.24"/>
<polygon fill="#9a32cd" stroke="#9a32cd" points="1900.36,-241.01 1890.04,-238.6 1896.61,-246.92 1900.36,-241.01"/>
<text text-anchor="middle" x="1972.5" y="-352" font-family="Helvetica,sans-Serif" font-size="10.00"> parts</text>
</g>
<!-- Node13&#45;&gt;Node13 -->
<g id="edge26" class="edge">
<title>Node13&#45;&gt;Node13</title>
<path fill="none" stroke="#9a32cd" stroke-dasharray="5,2" d="M1853.85,-248.4C1855.06,-253.31 1861.11,-257 1872,-257 1889.42,-257 1894.45,-247.57 1887.1,-238.76"/>
<polygon fill="#9a32cd" stroke="#9a32cd" points="1857.22,-249.35 1856.9,-238.76 1850.55,-247.24 1857.22,-249.35"/>
<text text-anchor="middle" x="1872" y="-260" font-family="Helvetica,sans-Serif" font-size="10.00"> parts</text>
</g>
<!-- Node13&#45;&gt;Node14 -->
<g id="edge31" class="edge">
<title>Node13&#45;&gt;Node14</title>
<path fill="none" stroke="#9a32cd" stroke-dasharray="5,2" d="M1916.59,-216.69C1946.38,-208.28 1985.28,-197.29 2012.72,-189.54"/>
<polygon fill="#9a32cd" stroke="#9a32cd" points="1915.54,-213.35 1906.86,-219.44 1917.44,-220.09 1915.54,-213.35"/>
<text text-anchor="middle" x="1972.5" y="-207" font-family="Helvetica,sans-Serif" font-size="10.00"> parts</text>
</g>
<!-- Node22 -->
<g id="node22" class="node">
<title>Node22</title>
<g id="a_node22"><a xlink:href="classKadath_1_1Ope__def.html" target="_top" xlink:title=" ">
<polygon fill="none" stroke="black" points="2003,-229.5 2003,-248.5 2092,-248.5 2092,-229.5 2003,-229.5"/>
<text text-anchor="middle" x="2047.5" y="-236.5" font-family="Helvetica,sans-Serif" font-size="10.00">Kadath::Ope_def</text>
</a>
</g>
</g>
<!-- Node13&#45;&gt;Node22 -->
<g id="edge58" class="edge">
<title>Node13&#45;&gt;Node22</title>
<path fill="none" stroke="midnightblue" d="M1925.74,-232.04C1950.46,-233.46 1979.55,-235.14 2002.99,-236.49"/>
<polygon fill="midnightblue" stroke="midnightblue" points="1925.63,-228.53 1915.44,-231.45 1925.22,-235.52 1925.63,-228.53"/>
</g>
<!-- Node14&#45;&gt;Node11 -->
<g id="edge29" class="edge">
<title>Node14&#45;&gt;Node11</title>
<path fill="none" stroke="#9a32cd" stroke-dasharray="5,2" d="M1997.75,-174.82C1946.77,-171.41 1865.5,-171.74 1802,-199 1751.96,-220.48 1709,-272.49 1692.6,-294.21"/>
<polygon fill="#9a32cd" stroke="#9a32cd" points="1997.6,-178.32 2007.84,-175.57 1998.12,-171.34 1997.6,-178.32"/>
<text text-anchor="middle" x="1872" y="-202" font-family="Helvetica,sans-Serif" font-size="10.00"> eq_int</text>
</g>
<!-- Node15&#45;&gt;Node11 -->
<g id="edge33" class="edge">
<title>Node15&#45;&gt;Node11</title>
<path fill="none" stroke="#9a32cd" stroke-dasharray="5,2" d="M537.66,-142C582.68,-142 652.76,-142 713.5,-142 713.5,-142 713.5,-142 1273,-142 1422.3,-142 1481,-97.9 1607,-178 1651.27,-206.14 1673.7,-270.01 1680.87,-294.34"/>
<polygon fill="#9a32cd" stroke="#9a32cd" points="537.62,-138.5 527.62,-142 537.62,-145.5 537.62,-138.5"/>
<text text-anchor="middle" x="1094" y="-145" font-family="Helvetica,sans-Serif" font-size="10.00"> which_coef</text>
</g>
<!-- Node16&#45;&gt;Node11 -->
<g id="edge37" class="edge">
<title>Node16&#45;&gt;Node11</title>
<path fill="none" stroke="#9a32cd" stroke-dasharray="5,2" d="M655.27,-85.03C834.81,-71.54 1451.61,-34.13 1607,-143 1620.69,-152.59 1665.74,-260.61 1679.48,-294.14"/>
<polygon fill="#9a32cd" stroke="#9a32cd" points="654.77,-81.55 645.07,-85.8 655.31,-88.53 654.77,-81.55"/>
<text text-anchor="middle" x="1094" y="-83" font-family="Helvetica,sans-Serif" font-size="10.00"> paruser</text>
<text text-anchor="middle" x="1094" y="-72" font-family="Helvetica,sans-Serif" font-size="10.00">paruser_bin</text>
</g>
<!-- Node17&#45;&gt;Node2 -->
<g id="edge60" class="edge">
<title>Node17&#45;&gt;Node2</title>
<path fill="none" stroke="#9a32cd" stroke-dasharray="5,2" d="M1302.69,-252.28C1339.86,-271.33 1403.78,-308.04 1446,-354 1472.7,-383.07 1491.51,-427.04 1498.95,-446.34"/>
<polygon fill="#9a32cd" stroke="#9a32cd" points="1303.91,-248.98 1293.4,-247.61 1300.76,-255.23 1303.91,-248.98"/>
<text text-anchor="middle" x="1390.5" y="-434" font-family="Helvetica,sans-Serif" font-size="10.00"> p_christo</text>
<text text-anchor="middle" x="1390.5" y="-423" font-family="Helvetica,sans-Serif" font-size="10.00">p_det_cov</text>
<text text-anchor="middle" x="1390.5" y="-412" font-family="Helvetica,sans-Serif" font-size="10.00">p_dirac</text>
<text text-anchor="middle" x="1390.5" y="-401" font-family="Helvetica,sans-Serif" font-size="10.00">p_met_con</text>
<text text-anchor="middle" x="1390.5" y="-390" font-family="Helvetica,sans-Serif" font-size="10.00">p_met_cov</text>
<text text-anchor="middle" x="1390.5" y="-379" font-family="Helvetica,sans-Serif" font-size="10.00">p_ricci_scalar</text>
<text text-anchor="middle" x="1390.5" y="-368" font-family="Helvetica,sans-Serif" font-size="10.00">p_ricci_tensor</text>
<text text-anchor="middle" x="1390.5" y="-357" font-family="Helvetica,sans-Serif" font-size="10.00">p_riemann</text>
</g>
<!-- Node17&#45;&gt;Node11 -->
<g id="edge40" class="edge">
<title>Node17&#45;&gt;Node11</title>
<path fill="none" stroke="#9a32cd" stroke-dasharray="5,2" d="M1327.22,-236.04C1382.17,-235.16 1469.36,-236.83 1543,-252 1587.58,-261.18 1636.87,-282.11 1663.59,-294.43"/>
<polygon fill="#9a32cd" stroke="#9a32cd" points="1326.93,-232.55 1317,-236.24 1327.07,-239.54 1326.93,-232.55"/>
<text text-anchor="middle" x="1503.5" y="-321" font-family="Helvetica,sans-Serif" font-size="10.00"> cst</text>
<text text-anchor="middle" x="1503.5" y="-310" font-family="Helvetica,sans-Serif" font-size="10.00">cst_hard</text>
<text text-anchor="middle" x="1503.5" y="-299" font-family="Helvetica,sans-Serif" font-size="10.00">opeuser</text>
<text text-anchor="middle" x="1503.5" y="-288" font-family="Helvetica,sans-Serif" font-size="10.00">opeuser_bin</text>
<text text-anchor="middle" x="1503.5" y="-277" font-family="Helvetica,sans-Serif" font-size="10.00">results</text>
<text text-anchor="middle" x="1503.5" y="-266" font-family="Helvetica,sans-Serif" font-size="10.00">term</text>
<text text-anchor="middle" x="1503.5" y="-255" font-family="Helvetica,sans-Serif" font-size="10.00">term_double</text>
</g>
<!-- Node17&#45;&gt;Node22 -->
<g id="edge59" class="edge">
<title>Node17&#45;&gt;Node22</title>
<path fill="none" stroke="#9a32cd" stroke-dasharray="5,2" d="M1309.55,-225.21C1411.54,-191.44 1707.19,-106.7 1942,-170 1981.67,-180.69 2019.73,-213.21 2036.93,-229.49"/>
<polygon fill="#9a32cd" stroke="#9a32cd" points="1308.38,-221.91 1300.01,-228.41 1310.61,-228.55 1308.38,-221.91"/>
<text text-anchor="middle" x="1684.5" y="-158" font-family="Helvetica,sans-Serif" font-size="10.00"> res</text>
</g>
<!-- Node18&#45;&gt;Node11 -->
<g id="edge56" class="edge">
<title>Node18&#45;&gt;Node11</title>
<path fill="none" stroke="#9a32cd" stroke-dasharray="5,2" d="M1145.16,-598.85C1259.61,-577.16 1535.62,-519.9 1607,-460 1655.29,-419.48 1675.72,-341.14 1681.59,-313.75"/>
<polygon fill="#9a32cd" stroke="#9a32cd" points="1144.43,-595.43 1135.25,-600.72 1145.72,-602.31 1144.43,-595.43"/>
<text text-anchor="middle" x="1390.5" y="-560" font-family="Helvetica,sans-Serif" font-size="10.00"> var</text>
</g>
<!-- Node18&#45;&gt;Node17 -->
<g id="edge42" class="edge">
<title>Node18&#45;&gt;Node17</title>
<path fill="none" stroke="#9a32cd" stroke-dasharray="5,2" d="M1103.29,-588.85C1112.47,-566.86 1127.01,-529.48 1135,-496 1149.86,-433.69 1124.46,-410.35 1153,-353 1177.09,-304.6 1229.92,-264.98 1255.93,-247.56"/>
<polygon fill="#9a32cd" stroke="#9a32cd" points="1099.95,-587.76 1099.27,-598.33 1106.39,-590.49 1099.95,-587.76"/>
<text text-anchor="middle" x="1181" y="-367" font-family="Helvetica,sans-Serif" font-size="10.00"> der_t</text>
<text text-anchor="middle" x="1181" y="-356" font-family="Helvetica,sans-Serif" font-size="10.00">val_t</text>
</g>
<!-- Node18&#45;&gt;Node19 -->
<g id="edge46" class="edge">
<title>Node18&#45;&gt;Node19</title>
<path fill="none" stroke="midnightblue" d="M1145.31,-605.24C1147.91,-605.15 1150.49,-605.06 1153,-605 1177.88,-604.36 1184.12,-604.4 1209,-605 1216.43,-605.18 1224.36,-605.48 1231.98,-605.82"/>
<polygon fill="midnightblue" stroke="midnightblue" points="1145.09,-601.74 1135.24,-605.65 1145.37,-608.74 1145.09,-601.74"/>
</g>
<!-- Node23 -->
<g id="node23" class="node">
<title>Node23</title>
<g id="a_node23"><a xlink:href="classKadath_1_1Metric__tensor.html" target="_top" xlink:title=" ">
<polygon fill="none" stroke="black" points="1335,-692.5 1335,-711.5 1446,-711.5 1446,-692.5 1335,-692.5"/>
<text text-anchor="middle" x="1390.5" y="-699.5" font-family="Helvetica,sans-Serif" font-size="10.00">Kadath::Metric_tensor</text>
</a>
</g>
</g>
<!-- Node18&#45;&gt;Node23 -->
<g id="edge62" class="edge">
<title>Node18&#45;&gt;Node23</title>
<path fill="none" stroke="midnightblue" d="M1140.03,-620.25C1185.11,-632.78 1256.32,-653.3 1317,-674 1333.6,-679.66 1352.04,-686.8 1366.16,-692.44"/>
<polygon fill="midnightblue" stroke="midnightblue" points="1140.83,-616.84 1130.26,-617.55 1138.97,-623.59 1140.83,-616.84"/>
</g>
<!-- Node19&#45;&gt;Node1 -->
<g id="edge63" class="edge">
<title>Node19&#45;&gt;Node1</title>
<path fill="none" stroke="#9a32cd" stroke-dasharray="5,2" d="M1322.37,-611.63C1428.75,-619.46 1679.81,-637.93 1801.91,-646.92"/>
<polygon fill="#9a32cd" stroke="#9a32cd" points="1322.47,-608.13 1312.24,-610.89 1321.95,-615.11 1322.47,-608.13"/>
<text text-anchor="middle" x="1584" y="-646" font-family="Helvetica,sans-Serif" font-size="10.00"> conformal</text>
<text text-anchor="middle" x="1584" y="-635" font-family="Helvetica,sans-Serif" font-size="10.00">der_conf</text>
</g>
<!-- Node19&#45;&gt;Node18 -->
<g id="edge45" class="edge">
<title>Node19&#45;&gt;Node18</title>
<path fill="none" stroke="#9a32cd" stroke-dasharray="5,2" d="M1221.62,-608C1194.4,-608 1161.03,-608 1135.38,-608"/>
<polygon fill="#9a32cd" stroke="#9a32cd" points="1221.72,-611.5 1231.72,-608 1221.72,-604.5 1221.72,-611.5"/>
<text text-anchor="middle" x="1181" y="-611" font-family="Helvetica,sans-Serif" font-size="10.00"> cmp</text>
</g>
<!-- Node20&#45;&gt;Node1 -->
<g id="edge64" class="edge">
<title>Node20&#45;&gt;Node1</title>
<path fill="none" stroke="#9a32cd" stroke-dasharray="5,2" d="M920.1,-700.81C960.86,-714.73 1030.9,-735 1093,-735 1093,-735 1093,-735 1685.5,-735 1756.77,-735 1831.06,-683.32 1859.23,-661.52"/>
<polygon fill="#9a32cd" stroke="#9a32cd" points="921.23,-697.5 910.64,-697.51 918.93,-704.11 921.23,-697.5"/>
<text text-anchor="middle" x="1390.5" y="-738" font-family="Helvetica,sans-Serif" font-size="10.00"> basis</text>
</g>
<!-- Node20&#45;&gt;Node18 -->
<g id="edge49" class="edge">
<title>Node20&#45;&gt;Node18</title>
<path fill="none" stroke="#9a32cd" stroke-dasharray="5,2" d="M917.43,-674.58C929.43,-669.73 943.25,-664.38 956,-660 990.59,-648.13 1000.95,-650.34 1035,-637 1049.15,-631.45 1064.51,-623.69 1075.86,-617.6"/>
<polygon fill="#9a32cd" stroke="#9a32cd" points="915.77,-671.47 907.84,-678.5 918.42,-677.95 915.77,-671.47"/>
<text text-anchor="middle" x="995.5" y="-663" font-family="Helvetica,sans-Serif" font-size="10.00"> basis</text>
</g>
<!-- Node20&#45;&gt;Node24 -->
<g id="edge67" class="edge">
<title>Node20&#45;&gt;Node24</title>
<path fill="none" stroke="#9a32cd" stroke-dasharray="5,2" d="M948.11,-682.78C974.88,-680.49 1006.48,-677.71 1035,-675 1260.07,-653.59 1528.73,-624.8 1635.93,-613.18"/>
<polygon fill="#9a32cd" stroke="#9a32cd" points="947.77,-679.3 938.1,-683.64 948.36,-686.27 947.77,-679.3"/>
<text text-anchor="middle" x="1272" y="-658" font-family="Helvetica,sans-Serif" font-size="10.00"> basis</text>
</g>
<!-- Node21&#45;&gt;Node18 -->
<g id="edge53" class="edge">
<title>Node21&#45;&gt;Node18</title>
<path fill="none" stroke="#9a32cd" stroke-dasharray="5,2" d="M425.26,-797.25C533.79,-786.63 756.46,-760 938,-707 982.14,-694.11 996.82,-696.62 1035,-671 1056.97,-656.25 1076.43,-631.56 1086.25,-617.87"/>
<polygon fill="#9a32cd" stroke="#9a32cd" points="424.73,-793.79 415.12,-798.23 425.41,-800.76 424.73,-793.79"/>
<text text-anchor="middle" x="714.5" y="-769" font-family="Helvetica,sans-Serif" font-size="10.00"> parameters</text>
</g>
<!-- Node22&#45;&gt;Node11 -->
<g id="edge57" class="edge">
<title>Node22&#45;&gt;Node11</title>
<path fill="none" stroke="#9a32cd" stroke-dasharray="5,2" d="M2015.52,-252.53C1995.03,-260.9 1967.38,-271.14 1942,-277 1875.25,-292.41 1796.66,-299.04 1744.24,-301.89"/>
<polygon fill="#9a32cd" stroke="#9a32cd" points="2017.07,-255.67 2024.95,-248.6 2014.38,-249.21 2017.07,-255.67"/>
<text text-anchor="middle" x="1872" y="-301" font-family="Helvetica,sans-Serif" font-size="10.00"> def</text>
</g>
<!-- Node23&#45;&gt;Node1 -->
<g id="edge61" class="edge">
<title>Node23&#45;&gt;Node1</title>
<path fill="none" stroke="#9a32cd" stroke-dasharray="5,2" d="M1456.38,-697.41C1534.34,-691.58 1669,-680.51 1784,-666 1794.17,-664.72 1804.97,-663.15 1815.39,-661.53"/>
<polygon fill="#9a32cd" stroke="#9a32cd" points="1455.95,-693.93 1446.23,-698.16 1456.47,-700.91 1455.95,-693.93"/>
<text text-anchor="middle" x="1584" y="-691" font-family="Helvetica,sans-Serif" font-size="10.00"> p_met</text>
</g>
<!-- Node24&#45;&gt;Node1 -->
<g id="edge65" class="edge">
<title>Node24&#45;&gt;Node1</title>
<path fill="none" stroke="#9a32cd" stroke-dasharray="5,2" d="M1743.34,-618.26C1756.74,-620.89 1770.91,-623.86 1784,-627 1802.8,-631.5 1823.62,-637.45 1840.17,-642.42"/>
<polygon fill="#9a32cd" stroke="#9a32cd" points="1743.76,-614.78 1733.28,-616.33 1742.44,-621.65 1743.76,-614.78"/>
<text text-anchor="middle" x="1773" y="-630" font-family="Helvetica,sans-Serif" font-size="10.00"> fmet</text>
</g>
</g>
</svg>
