<?xml version="1.0" encoding="UTF-8" standalone="no"?>
<!DOCTYPE svg PUBLIC "-//W3C//DTD SVG 1.1//EN"
 "http://www.w3.org/Graphics/SVG/1.1/DTD/svg11.dtd">
<!-- Generated by graphviz version 2.47.1 (20210515.0534)
 -->
<!-- Title: Kadath::Scalar Pages: 1 -->
<svg width="1067pt" height="431pt"
 viewBox="0.00 0.00 1067.00 431.00" xmlns="http://www.w3.org/2000/svg" xmlns:xlink="http://www.w3.org/1999/xlink">
<g id="graph0" class="graph" transform="scale(1 1) rotate(0) translate(4 427)">
<title>Kadath::Scalar</title>
<!-- Node1 -->
<g id="node1" class="node">
<title>Node1</title>
<g id="a_node1"><a xlink:title=" ">
<polygon fill="#bfbfbf" stroke="black" points="821.5,-185.5 821.5,-204.5 901.5,-204.5 901.5,-185.5 821.5,-185.5"/>
<text text-anchor="middle" x="861.5" y="-192.5" font-family="Helvetica,sans-Serif" font-size="10.00">Kadath::Scalar</text>
</a>
</g>
</g>
<!-- Node2 -->
<g id="node2" class="node">
<title>Node2</title>
<g id="a_node2"><a xlink:href="classKadath_1_1Tensor.html" target="_top" xlink:title=" ">
<polygon fill="none" stroke="black" points="977,-152.5 977,-171.5 1059,-171.5 1059,-152.5 977,-152.5"/>
<text text-anchor="middle" x="1018" y="-159.5" font-family="Helvetica,sans-Serif" font-size="10.00">Kadath::Tensor</text>
</a>
</g>
</g>
<!-- Node1&#45;&gt;Node2 -->
<g id="edge20" class="edge">
<title>Node1&#45;&gt;Node2</title>
<path fill="none" stroke="#9a32cd" stroke-dasharray="5,2" d="M911.9,-184.45C932.88,-179.97 957.03,-174.81 976.88,-170.57"/>
<polygon fill="#9a32cd" stroke="#9a32cd" points="910.93,-181.08 901.89,-186.59 912.4,-187.92 910.93,-181.08"/>
<text text-anchor="middle" x="946" y="-182" font-family="Helvetica,sans-Serif" font-size="10.00"> cmp</text>
</g>
<!-- Node2&#45;&gt;Node1 -->
<g id="edge1" class="edge">
<title>Node2&#45;&gt;Node1</title>
<path fill="none" stroke="midnightblue" d="M966.67,-169.56C955.54,-171.46 943.84,-173.64 933,-176 920.61,-178.69 907.15,-182.18 895.33,-185.43"/>
<polygon fill="midnightblue" stroke="midnightblue" points="967.39,-172.99 976.68,-167.9 966.24,-166.08 967.39,-172.99"/>
</g>
<!-- Node3 -->
<g id="node3" class="node">
<title>Node3</title>
<g id="a_node3"><a xlink:href="structKadath_1_1MemoryMappable.html" target="_top" xlink:title=" ">
<polygon fill="none" stroke="black" points="0,-230.5 0,-249.5 128,-249.5 128,-230.5 0,-230.5"/>
<text text-anchor="middle" x="64" y="-237.5" font-family="Helvetica,sans-Serif" font-size="10.00">Kadath::MemoryMappable</text>
</a>
</g>
</g>
<!-- Node3&#45;&gt;Node2 -->
<g id="edge2" class="edge">
<title>Node3&#45;&gt;Node2</title>
<path fill="none" stroke="midnightblue" d="M71.21,-259.19C87.74,-306.15 137.52,-423 223.5,-423 223.5,-423 223.5,-423 862.5,-423 981.77,-423 1010.93,-218.69 1016.07,-171.6"/>
<polygon fill="midnightblue" stroke="midnightblue" points="74.48,-257.93 67.95,-249.58 67.85,-260.18 74.48,-257.93"/>
</g>
<!-- Node4 -->
<g id="node4" class="node">
<title>Node4</title>
<g id="a_node4"><a xlink:href="classKadath_1_1Space.html" target="_top" xlink:title=" ">
<polygon fill="none" stroke="black" points="634.5,-315.5 634.5,-334.5 714.5,-334.5 714.5,-315.5 634.5,-315.5"/>
<text text-anchor="middle" x="674.5" y="-322.5" font-family="Helvetica,sans-Serif" font-size="10.00">Kadath::Space</text>
</a>
</g>
</g>
<!-- Node3&#45;&gt;Node4 -->
<g id="edge4" class="edge">
<title>Node3&#45;&gt;Node4</title>
<path fill="none" stroke="midnightblue" d="M75.7,-258.34C91.56,-283.53 123.91,-327.9 165,-347 342.35,-429.44 413.2,-391.21 605,-353 622.89,-349.44 642.01,-341.21 655.49,-334.59"/>
<polygon fill="midnightblue" stroke="midnightblue" points="78.64,-256.43 70.45,-249.71 72.66,-260.07 78.64,-256.43"/>
</g>
<!-- Node5 -->
<g id="node5" class="node">
<title>Node5</title>
<g id="a_node5"><a xlink:href="classKadath_1_1Domain.html" target="_top" xlink:title=" ">
<polygon fill="none" stroke="black" points="447.5,-309.5 447.5,-328.5 532.5,-328.5 532.5,-309.5 447.5,-309.5"/>
<text text-anchor="middle" x="490" y="-316.5" font-family="Helvetica,sans-Serif" font-size="10.00">Kadath::Domain</text>
</a>
</g>
</g>
<!-- Node3&#45;&gt;Node5 -->
<g id="edge6" class="edge">
<title>Node3&#45;&gt;Node5</title>
<path fill="none" stroke="midnightblue" d="M79.96,-257.31C97.96,-276.81 130.12,-307.63 165,-322 261.61,-361.79 388.6,-342.26 451.02,-328.54"/>
<polygon fill="midnightblue" stroke="midnightblue" points="82.44,-254.83 73.15,-249.73 77.23,-259.51 82.44,-254.83"/>
</g>
<!-- Node6 -->
<g id="node6" class="node">
<title>Node6</title>
<g id="a_node6"><a xlink:href="classKadath_1_1Dim__array.html" target="_top" xlink:title=" ">
<polygon fill="none" stroke="black" points="177,-293.5 177,-312.5 272,-312.5 272,-293.5 177,-293.5"/>
<text text-anchor="middle" x="224.5" y="-300.5" font-family="Helvetica,sans-Serif" font-size="10.00">Kadath::Dim_array</text>
</a>
</g>
</g>
<!-- Node3&#45;&gt;Node6 -->
<g id="edge8" class="edge">
<title>Node3&#45;&gt;Node6</title>
<path fill="none" stroke="midnightblue" d="M98.38,-253.27C128.64,-265.3 172.52,-282.73 199.46,-293.45"/>
<polygon fill="midnightblue" stroke="midnightblue" points="99.66,-250.01 89.07,-249.57 97.07,-256.51 99.66,-250.01"/>
</g>
<!-- Node7 -->
<g id="node7" class="node">
<title>Node7</title>
<g id="a_node7"><a xlink:href="classKadath_1_1Array.html" target="_top" xlink:title=" ">
<polygon fill="none" stroke="black" points="165,-249.5 165,-268.5 284,-268.5 284,-249.5 165,-249.5"/>
<text text-anchor="middle" x="224.5" y="-256.5" font-family="Helvetica,sans-Serif" font-size="10.00">Kadath::Array&lt; double &gt;</text>
</a>
</g>
</g>
<!-- Node3&#45;&gt;Node7 -->
<g id="edge10" class="edge">
<title>Node3&#45;&gt;Node7</title>
<path fill="none" stroke="midnightblue" d="M138.18,-248.77C147.17,-249.85 156.26,-250.94 164.99,-251.99"/>
<polygon fill="midnightblue" stroke="midnightblue" points="138.44,-245.28 128.1,-247.56 137.61,-252.23 138.44,-245.28"/>
</g>
<!-- Node8 -->
<g id="node8" class="node">
<title>Node8</title>
<g id="a_node8"><a xlink:href="classKadath_1_1Val__domain.html" target="_top" xlink:title=" ">
<polygon fill="none" stroke="black" points="623,-202.5 623,-221.5 726,-221.5 726,-202.5 623,-202.5"/>
<text text-anchor="middle" x="674.5" y="-209.5" font-family="Helvetica,sans-Serif" font-size="10.00">Kadath::Val_domain</text>
</a>
</g>
</g>
<!-- Node3&#45;&gt;Node8 -->
<g id="edge12" class="edge">
<title>Node3&#45;&gt;Node8</title>
<path fill="none" stroke="midnightblue" d="M138.15,-235.73C235.54,-230.18 413.16,-220.55 565,-215 583.93,-214.31 604.71,-213.7 622.98,-213.21"/>
<polygon fill="midnightblue" stroke="midnightblue" points="137.9,-232.23 128.12,-236.3 138.3,-239.22 137.9,-232.23"/>
</g>
<!-- Node9 -->
<g id="node9" class="node">
<title>Node9</title>
<g id="a_node9"><a xlink:href="classKadath_1_1Base__spectral.html" target="_top" xlink:title=" ">
<polygon fill="none" stroke="black" points="433,-152.5 433,-171.5 547,-171.5 547,-152.5 433,-152.5"/>
<text text-anchor="middle" x="490" y="-159.5" font-family="Helvetica,sans-Serif" font-size="10.00">Kadath::Base_spectral</text>
</a>
</g>
</g>
<!-- Node3&#45;&gt;Node9 -->
<g id="edge16" class="edge">
<title>Node3&#45;&gt;Node9</title>
<path fill="none" stroke="midnightblue" d="M93.85,-226.14C109.04,-219.38 128.18,-211.72 146,-207 198.84,-193.02 349.91,-176.17 432.83,-167.6"/>
<polygon fill="midnightblue" stroke="midnightblue" points="92.13,-223.07 84.48,-230.41 95.04,-229.44 92.13,-223.07"/>
</g>
<!-- Node10 -->
<g id="node10" class="node">
<title>Node10</title>
<g id="a_node10"><a xlink:href="classKadath_1_1Array.html" target="_top" xlink:title=" ">
<polygon fill="none" stroke="black" points="174,-122.5 174,-141.5 275,-141.5 275,-122.5 174,-122.5"/>
<text text-anchor="middle" x="224.5" y="-129.5" font-family="Helvetica,sans-Serif" font-size="10.00">Kadath::Array&lt; int &gt;</text>
</a>
</g>
</g>
<!-- Node3&#45;&gt;Node10 -->
<g id="edge18" class="edge">
<title>Node3&#45;&gt;Node10</title>
<path fill="none" stroke="midnightblue" d="M81.58,-223.01C97.21,-207.61 121.8,-184.95 146,-169 162.81,-157.93 183.44,-148.24 199.19,-141.56"/>
<polygon fill="midnightblue" stroke="midnightblue" points="78.86,-220.78 74.27,-230.33 83.81,-225.72 78.86,-220.78"/>
</g>
<!-- Node11 -->
<g id="node11" class="node">
<title>Node11</title>
<g id="a_node11"><a xlink:href="classKadath_1_1Base__tensor.html" target="_top" xlink:title=" ">
<polygon fill="none" stroke="black" points="808,-80.5 808,-99.5 915,-99.5 915,-80.5 808,-80.5"/>
<text text-anchor="middle" x="861.5" y="-87.5" font-family="Helvetica,sans-Serif" font-size="10.00">Kadath::Base_tensor</text>
</a>
</g>
</g>
<!-- Node3&#45;&gt;Node11 -->
<g id="edge23" class="edge">
<title>Node3&#45;&gt;Node11</title>
<path fill="none" stroke="midnightblue" d="M70.6,-220.84C86.12,-172.23 134.49,-48 223.5,-48 223.5,-48 223.5,-48 675.5,-48 733.8,-48 799.92,-68.08 835.18,-80.47"/>
<polygon fill="midnightblue" stroke="midnightblue" points="67.23,-219.89 67.64,-230.48 73.92,-221.95 67.23,-219.89"/>
</g>
<!-- Node12 -->
<g id="node12" class="node">
<title>Node12</title>
<g id="a_node12"><a xlink:href="classKadath_1_1Param__tensor.html" target="_top" xlink:title=" ">
<polygon fill="none" stroke="black" points="302,-0.5 302,-19.5 415,-19.5 415,-0.5 302,-0.5"/>
<text text-anchor="middle" x="358.5" y="-7.5" font-family="Helvetica,sans-Serif" font-size="10.00">Kadath::Param_tensor</text>
</a>
</g>
</g>
<!-- Node3&#45;&gt;Node12 -->
<g id="edge27" class="edge">
<title>Node3&#45;&gt;Node12</title>
<path fill="none" stroke="midnightblue" d="M66.3,-220.11C70.22,-178.08 85.68,-80.29 146,-34 190.12,-0.14 255.46,2.2 301.83,-1.62"/>
<polygon fill="midnightblue" stroke="midnightblue" points="62.81,-219.94 65.49,-230.19 69.78,-220.5 62.81,-219.94"/>
</g>
<!-- Node4&#45;&gt;Node2 -->
<g id="edge3" class="edge">
<title>Node4&#45;&gt;Node2</title>
<path fill="none" stroke="#9a32cd" stroke-dasharray="5,2" d="M716.84,-312.31C738.88,-305.11 766.27,-295.45 790,-285 868.07,-250.6 884.1,-234.83 959,-194 972.73,-186.51 988.24,-177.95 999.77,-171.57"/>
<polygon fill="#9a32cd" stroke="#9a32cd" points="715.56,-309.04 707.12,-315.44 717.71,-315.71 715.56,-309.04"/>
<text text-anchor="middle" x="861.5" y="-279" font-family="Helvetica,sans-Serif" font-size="10.00"> espace</text>
</g>
<!-- Node4&#45;&gt;Node11 -->
<g id="edge24" class="edge">
<title>Node4&#45;&gt;Node11</title>
<path fill="none" stroke="#9a32cd" stroke-dasharray="5,2" d="M697.93,-309.25C723.24,-290.49 764.21,-257.02 790,-220 802.08,-202.66 798.47,-194.85 808,-176 822.53,-147.28 843.29,-115.42 853.82,-99.77"/>
<polygon fill="#9a32cd" stroke="#9a32cd" points="695.71,-306.53 689.69,-315.25 699.83,-312.19 695.71,-306.53"/>
<text text-anchor="middle" x="767" y="-273" font-family="Helvetica,sans-Serif" font-size="10.00"> space</text>
</g>
<!-- Node5&#45;&gt;Node4 -->
<g id="edge5" class="edge">
<title>Node5&#45;&gt;Node4</title>
<path fill="none" stroke="#9a32cd" stroke-dasharray="5,2" d="M532.82,-331.01C543.24,-333.49 554.45,-335.74 565,-337 582.65,-339.12 587.29,-338.54 605,-337 614.5,-336.17 624.66,-334.72 634.17,-333.09"/>
<polygon fill="#9a32cd" stroke="#9a32cd" points="533.66,-327.61 523.11,-328.58 531.96,-334.4 533.66,-327.61"/>
<text text-anchor="middle" x="585" y="-341" font-family="Helvetica,sans-Serif" font-size="10.00"> domains</text>
</g>
<!-- Node5&#45;&gt;Node8 -->
<g id="edge19" class="edge">
<title>Node5&#45;&gt;Node8</title>
<path fill="none" stroke="#9a32cd" stroke-dasharray="5,2" d="M542.73,-320.12C563.3,-318.5 586.44,-313.94 605,-303 638.22,-283.42 660.58,-240.87 669.34,-221.7"/>
<polygon fill="#9a32cd" stroke="#9a32cd" points="542.33,-316.63 532.55,-320.7 542.74,-323.62 542.33,-316.63"/>
<text text-anchor="middle" x="585" y="-319" font-family="Helvetica,sans-Serif" font-size="10.00"> zone</text>
</g>
<!-- Node6&#45;&gt;Node5 -->
<g id="edge7" class="edge">
<title>Node6&#45;&gt;Node5</title>
<path fill="none" stroke="#9a32cd" stroke-dasharray="5,2" d="M282.51,-305.59C320.14,-307.4 370.53,-310.02 415,-313 425.42,-313.7 436.65,-314.55 447.14,-315.4"/>
<polygon fill="#9a32cd" stroke="#9a32cd" points="282.4,-302.08 272.25,-305.1 282.07,-309.07 282.4,-302.08"/>
<text text-anchor="middle" x="358.5" y="-327" font-family="Helvetica,sans-Serif" font-size="10.00"> nbr_coefs</text>
<text text-anchor="middle" x="358.5" y="-316" font-family="Helvetica,sans-Serif" font-size="10.00">nbr_points</text>
</g>
<!-- Node7&#45;&gt;Node5 -->
<g id="edge9" class="edge">
<title>Node7&#45;&gt;Node5</title>
<path fill="none" stroke="#9a32cd" stroke-dasharray="5,2" d="M294.18,-267.32C330.47,-272.53 375.55,-280.32 415,-291 432.9,-295.85 452.5,-303.37 467.03,-309.4"/>
<polygon fill="#9a32cd" stroke="#9a32cd" points="294.58,-263.84 284.19,-265.91 293.61,-270.77 294.58,-263.84"/>
<text text-anchor="middle" x="358.5" y="-294" font-family="Helvetica,sans-Serif" font-size="10.00"> coloc</text>
</g>
<!-- Node7&#45;&gt;Node8 -->
<g id="edge13" class="edge">
<title>Node7&#45;&gt;Node8</title>
<path fill="none" stroke="#9a32cd" stroke-dasharray="5,2" d="M294.24,-251.79C384.9,-242.28 542.34,-225.76 622.87,-217.31"/>
<polygon fill="#9a32cd" stroke="#9a32cd" points="293.65,-248.33 284.07,-252.86 294.38,-255.29 293.65,-248.33"/>
<text text-anchor="middle" x="490" y="-251" font-family="Helvetica,sans-Serif" font-size="10.00"> c</text>
<text text-anchor="middle" x="490" y="-240" font-family="Helvetica,sans-Serif" font-size="10.00">cf</text>
</g>
<!-- Node8&#45;&gt;Node1 -->
<g id="edge28" class="edge">
<title>Node8&#45;&gt;Node1</title>
<path fill="none" stroke="#9a32cd" stroke-dasharray="5,2" d="M736.16,-206.43C764.21,-203.85 796.71,-200.86 821.45,-198.59"/>
<polygon fill="#9a32cd" stroke="#9a32cd" points="735.69,-202.95 726.05,-207.35 736.33,-209.92 735.69,-202.95"/>
<text text-anchor="middle" x="767" y="-208" font-family="Helvetica,sans-Serif" font-size="10.00"> val_zones</text>
</g>
<!-- Node8&#45;&gt;Node5 -->
<g id="edge11" class="edge">
<title>Node8&#45;&gt;Node5</title>
<path fill="none" stroke="#9a32cd" stroke-dasharray="5,2" d="M636.27,-225.22C614.74,-233.56 587.53,-245.34 565,-259 551.99,-266.89 519.45,-294.43 502.18,-309.3"/>
<polygon fill="#9a32cd" stroke="#9a32cd" points="637.63,-228.45 645.73,-221.63 635.14,-221.9 637.63,-228.45"/>
<text text-anchor="middle" x="585" y="-295" font-family="Helvetica,sans-Serif" font-size="10.00"> absol</text>
<text text-anchor="middle" x="585" y="-284" font-family="Helvetica,sans-Serif" font-size="10.00">cart</text>
<text text-anchor="middle" x="585" y="-273" font-family="Helvetica,sans-Serif" font-size="10.00">cart_surr</text>
<text text-anchor="middle" x="585" y="-262" font-family="Helvetica,sans-Serif" font-size="10.00">radius</text>
</g>
<!-- Node8&#45;&gt;Node8 -->
<g id="edge14" class="edge">
<title>Node8&#45;&gt;Node8</title>
<path fill="none" stroke="#9a32cd" stroke-dasharray="5,2" d="M658.2,-231.4C659.29,-236.31 664.72,-240 674.5,-240 690.14,-240 694.66,-230.57 688.06,-221.76"/>
<polygon fill="#9a32cd" stroke="#9a32cd" points="661.58,-232.33 660.94,-221.76 654.84,-230.42 661.58,-232.33"/>
<text text-anchor="middle" x="674.5" y="-254" font-family="Helvetica,sans-Serif" font-size="10.00"> p_der_abs</text>
<text text-anchor="middle" x="674.5" y="-243" font-family="Helvetica,sans-Serif" font-size="10.00">p_der_var</text>
</g>
<!-- Node9&#45;&gt;Node8 -->
<g id="edge15" class="edge">
<title>Node9&#45;&gt;Node8</title>
<path fill="none" stroke="#9a32cd" stroke-dasharray="5,2" d="M557.5,-165.27C573.32,-167.23 589.96,-170.27 605,-175 625.12,-181.32 646.15,-193.68 659.52,-202.37"/>
<polygon fill="#9a32cd" stroke="#9a32cd" points="557.58,-161.76 547.26,-164.14 556.81,-168.72 557.58,-161.76"/>
<text text-anchor="middle" x="585" y="-178" font-family="Helvetica,sans-Serif" font-size="10.00"> base</text>
</g>
<!-- Node10&#45;&gt;Node2 -->
<g id="edge21" class="edge">
<title>Node10&#45;&gt;Node2</title>
<path fill="none" stroke="#9a32cd" stroke-dasharray="5,2" d="M285.56,-133.81C322.83,-134.95 371.7,-136.49 415,-138 626.68,-145.36 880.15,-156.09 976.85,-160.26"/>
<polygon fill="#9a32cd" stroke="#9a32cd" points="285.48,-130.3 275.38,-133.49 285.26,-137.3 285.48,-130.3"/>
<text text-anchor="middle" x="674.5" y="-163" font-family="Helvetica,sans-Serif" font-size="10.00"> give_indices</text>
<text text-anchor="middle" x="674.5" y="-152" font-family="Helvetica,sans-Serif" font-size="10.00">type_indice</text>
</g>
<!-- Node10&#45;&gt;Node9 -->
<g id="edge17" class="edge">
<title>Node10&#45;&gt;Node9</title>
<path fill="none" stroke="#9a32cd" stroke-dasharray="5,2" d="M285.11,-138.79C329.38,-143.83 389.37,-150.66 432.81,-155.6"/>
<polygon fill="#9a32cd" stroke="#9a32cd" points="285.39,-135.3 275.06,-137.64 284.6,-142.25 285.39,-135.3"/>
<text text-anchor="middle" x="358.5" y="-156" font-family="Helvetica,sans-Serif" font-size="10.00"> bases_1d</text>
</g>
<!-- Node10&#45;&gt;Node11 -->
<g id="edge25" class="edge">
<title>Node10&#45;&gt;Node11</title>
<path fill="none" stroke="#9a32cd" stroke-dasharray="5,2" d="M262.34,-119.44C274.79,-115.72 288.86,-112.09 302,-110 485.97,-80.71 708.14,-84.1 807.73,-87.63"/>
<polygon fill="#9a32cd" stroke="#9a32cd" points="261.27,-116.1 252.75,-122.41 263.34,-122.79 261.27,-116.1"/>
<text text-anchor="middle" x="585" y="-90" font-family="Helvetica,sans-Serif" font-size="10.00"> basis</text>
</g>
<!-- Node11&#45;&gt;Node2 -->
<g id="edge22" class="edge">
<title>Node11&#45;&gt;Node2</title>
<path fill="none" stroke="#9a32cd" stroke-dasharray="5,2" d="M925.44,-95.61C937,-98.15 948.66,-101.79 959,-107 980.81,-117.99 1000.05,-139.86 1009.94,-152.46"/>
<polygon fill="#9a32cd" stroke="#9a32cd" points="925.84,-92.12 915.36,-93.65 924.51,-99 925.84,-92.12"/>
<text text-anchor="middle" x="946" y="-110" font-family="Helvetica,sans-Serif" font-size="10.00"> basis</text>
</g>
<!-- Node12&#45;&gt;Node2 -->
<g id="edge26" class="edge">
<title>Node12&#45;&gt;Node2</title>
<path fill="none" stroke="#9a32cd" stroke-dasharray="5,2" d="M425.47,-9.55C470.2,-9.29 530.66,-9 584,-9 584,-9 584,-9 862.5,-9 944.42,-9 998.47,-118.93 1013.04,-152.43"/>
<polygon fill="#9a32cd" stroke="#9a32cd" points="425.3,-6.05 415.32,-9.61 425.34,-13.05 425.3,-6.05"/>
<text text-anchor="middle" x="674.5" y="-12" font-family="Helvetica,sans-Serif" font-size="10.00"> parameters</text>
</g>
</g>
</svg>
