<?xml version="1.0" encoding="UTF-8" standalone="no"?>
<!DOCTYPE svg PUBLIC "-//W3C//DTD SVG 1.1//EN"
 "http://www.w3.org/Graphics/SVG/1.1/DTD/svg11.dtd">
<!-- Generated by graphviz version 2.47.1 (20210515.0534)
 -->
<!-- Title: Kadath::Tensor Pages: 1 -->
<svg width="1563pt" height="480pt"
 viewBox="0.00 0.00 1563.00 480.00" xmlns="http://www.w3.org/2000/svg" xmlns:xlink="http://www.w3.org/1999/xlink">
<g id="graph0" class="graph" transform="scale(1 1) rotate(0) translate(4 476)">
<title>Kadath::Tensor</title>
<!-- Node1 -->
<g id="node1" class="node">
<title>Node1</title>
<g id="a_node1"><a xlink:title=" ">
<polygon fill="#bfbfbf" stroke="black" points="1335,-352.5 1335,-371.5 1417,-371.5 1417,-352.5 1335,-352.5"/>
<text text-anchor="middle" x="1376" y="-359.5" font-family="Helvetica,sans-Serif" font-size="10.00">Kadath::Tensor</text>
</a>
</g>
</g>
<!-- Node10 -->
<g id="node10" class="node">
<title>Node10</title>
<g id="a_node10"><a xlink:href="classKadath_1_1Scalar.html" target="_top" xlink:title=" ">
<polygon fill="none" stroke="black" points="1475,-319.5 1475,-338.5 1555,-338.5 1555,-319.5 1475,-319.5"/>
<text text-anchor="middle" x="1515" y="-326.5" font-family="Helvetica,sans-Serif" font-size="10.00">Kadath::Scalar</text>
</a>
</g>
</g>
<!-- Node1&#45;&gt;Node10 -->
<g id="edge20" class="edge">
<title>Node1&#45;&gt;Node10</title>
<path fill="none" stroke="midnightblue" d="M1413.14,-349.29C1420.33,-347.01 1427.86,-344.79 1435,-343 1447.83,-339.78 1462.02,-337.02 1474.79,-334.82"/>
<polygon fill="midnightblue" stroke="midnightblue" points="1412.04,-345.97 1403.62,-352.4 1414.22,-352.62 1412.04,-345.97"/>
</g>
<!-- Node2 -->
<g id="node2" class="node">
<title>Node2</title>
<g id="a_node2"><a xlink:href="structKadath_1_1MemoryMappable.html" target="_top" xlink:title=" ">
<polygon fill="none" stroke="black" points="0,-203.5 0,-222.5 128,-222.5 128,-203.5 0,-203.5"/>
<text text-anchor="middle" x="64" y="-210.5" font-family="Helvetica,sans-Serif" font-size="10.00">Kadath::MemoryMappable</text>
</a>
</g>
</g>
<!-- Node2&#45;&gt;Node1 -->
<g id="edge1" class="edge">
<title>Node2&#45;&gt;Node1</title>
<path fill="none" stroke="midnightblue" d="M66.9,-232.65C73.92,-293.06 104.02,-472 214.5,-472 214.5,-472 214.5,-472 1220.5,-472 1289.32,-472 1348.75,-398.68 1368.25,-371.76"/>
<polygon fill="midnightblue" stroke="midnightblue" points="70.36,-232.1 65.81,-222.53 63.4,-232.84 70.36,-232.1"/>
</g>
<!-- Node3 -->
<g id="node3" class="node">
<title>Node3</title>
<g id="a_node3"><a xlink:href="classKadath_1_1Space.html" target="_top" xlink:title=" ">
<polygon fill="none" stroke="black" points="1004,-177.5 1004,-196.5 1084,-196.5 1084,-177.5 1004,-177.5"/>
<text text-anchor="middle" x="1044" y="-184.5" font-family="Helvetica,sans-Serif" font-size="10.00">Kadath::Space</text>
</a>
</g>
</g>
<!-- Node2&#45;&gt;Node3 -->
<g id="edge3" class="edge">
<title>Node2&#45;&gt;Node3</title>
<path fill="none" stroke="midnightblue" d="M71.09,-193.74C86.81,-148.27 133.3,-38 214.5,-38 214.5,-38 214.5,-38 886.5,-38 967.53,-38 1023.24,-144.08 1038.67,-177.22"/>
<polygon fill="midnightblue" stroke="midnightblue" points="67.73,-192.75 67.9,-203.34 74.38,-194.96 67.73,-192.75"/>
</g>
<!-- Node4 -->
<g id="node4" class="node">
<title>Node4</title>
<g id="a_node4"><a xlink:href="classKadath_1_1Domain.html" target="_top" xlink:title=" ">
<polygon fill="none" stroke="black" points="843,-173.5 843,-192.5 928,-192.5 928,-173.5 843,-173.5"/>
<text text-anchor="middle" x="885.5" y="-180.5" font-family="Helvetica,sans-Serif" font-size="10.00">Kadath::Domain</text>
</a>
</g>
</g>
<!-- Node2&#45;&gt;Node4 -->
<g id="edge5" class="edge">
<title>Node2&#45;&gt;Node4</title>
<path fill="none" stroke="midnightblue" d="M74.28,-194.21C94.29,-156.67 145.34,-76 214.5,-76 214.5,-76 214.5,-76 717.5,-76 789.12,-76 854.6,-146.64 876.64,-173.13"/>
<polygon fill="midnightblue" stroke="midnightblue" points="71.14,-192.66 69.67,-203.15 77.36,-195.86 71.14,-192.66"/>
</g>
<!-- Node5 -->
<g id="node5" class="node">
<title>Node5</title>
<g id="a_node5"><a xlink:href="classKadath_1_1Dim__array.html" target="_top" xlink:title=" ">
<polygon fill="none" stroke="black" points="552,-113.5 552,-132.5 647,-132.5 647,-113.5 552,-113.5"/>
<text text-anchor="middle" x="599.5" y="-120.5" font-family="Helvetica,sans-Serif" font-size="10.00">Kadath::Dim_array</text>
</a>
</g>
</g>
<!-- Node2&#45;&gt;Node5 -->
<g id="edge7" class="edge">
<title>Node2&#45;&gt;Node5</title>
<path fill="none" stroke="midnightblue" d="M131.27,-201.82C240.74,-183.35 456.66,-146.93 551.71,-130.89"/>
<polygon fill="midnightblue" stroke="midnightblue" points="130.62,-198.38 121.34,-203.5 131.78,-205.28 130.62,-198.38"/>
</g>
<!-- Node6 -->
<g id="node6" class="node">
<title>Node6</title>
<g id="a_node6"><a xlink:href="classKadath_1_1Array.html" target="_top" xlink:title=" ">
<polygon fill="none" stroke="black" points="415,-184.5 415,-203.5 534,-203.5 534,-184.5 415,-184.5"/>
<text text-anchor="middle" x="474.5" y="-191.5" font-family="Helvetica,sans-Serif" font-size="10.00">Kadath::Array&lt; double &gt;</text>
</a>
</g>
</g>
<!-- Node2&#45;&gt;Node6 -->
<g id="edge9" class="edge">
<title>Node2&#45;&gt;Node6</title>
<path fill="none" stroke="midnightblue" d="M138.77,-209.57C217.96,-205.89 342.18,-200.11 414.94,-196.72"/>
<polygon fill="midnightblue" stroke="midnightblue" points="138.21,-206.09 128.38,-210.05 138.53,-213.08 138.21,-206.09"/>
</g>
<!-- Node7 -->
<g id="node7" class="node">
<title>Node7</title>
<g id="a_node7"><a xlink:href="classKadath_1_1Val__domain.html" target="_top" xlink:title=" ">
<polygon fill="none" stroke="black" points="665,-223.5 665,-242.5 768,-242.5 768,-223.5 665,-223.5"/>
<text text-anchor="middle" x="716.5" y="-230.5" font-family="Helvetica,sans-Serif" font-size="10.00">Kadath::Val_domain</text>
</a>
</g>
</g>
<!-- Node2&#45;&gt;Node7 -->
<g id="edge11" class="edge">
<title>Node2&#45;&gt;Node7</title>
<path fill="none" stroke="midnightblue" d="M138.31,-217.64C140.91,-217.77 143.48,-217.89 146,-218 337.44,-226.43 565.31,-230.69 664.81,-232.27"/>
<polygon fill="midnightblue" stroke="midnightblue" points="138.39,-214.14 128.22,-217.12 138.03,-221.13 138.39,-214.14"/>
</g>
<!-- Node8 -->
<g id="node8" class="node">
<title>Node8</title>
<g id="a_node8"><a xlink:href="classKadath_1_1Base__spectral.html" target="_top" xlink:title=" ">
<polygon fill="none" stroke="black" points="417.5,-260.5 417.5,-279.5 531.5,-279.5 531.5,-260.5 417.5,-260.5"/>
<text text-anchor="middle" x="474.5" y="-267.5" font-family="Helvetica,sans-Serif" font-size="10.00">Kadath::Base_spectral</text>
</a>
</g>
</g>
<!-- Node2&#45;&gt;Node8 -->
<g id="edge15" class="edge">
<title>Node2&#45;&gt;Node8</title>
<path fill="none" stroke="midnightblue" d="M93.13,-227.01C108.39,-233.95 127.81,-241.74 146,-246 239.39,-267.87 351.49,-271.36 417.36,-271.18"/>
<polygon fill="midnightblue" stroke="midnightblue" points="94.29,-223.69 83.75,-222.62 91.32,-230.03 94.29,-223.69"/>
</g>
<!-- Node9 -->
<g id="node9" class="node">
<title>Node9</title>
<g id="a_node9"><a xlink:href="classKadath_1_1Array.html" target="_top" xlink:title=" ">
<polygon fill="none" stroke="black" points="165,-311.5 165,-330.5 266,-330.5 266,-311.5 165,-311.5"/>
<text text-anchor="middle" x="215.5" y="-318.5" font-family="Helvetica,sans-Serif" font-size="10.00">Kadath::Array&lt; int &gt;</text>
</a>
</g>
</g>
<!-- Node2&#45;&gt;Node9 -->
<g id="edge17" class="edge">
<title>Node2&#45;&gt;Node9</title>
<path fill="none" stroke="midnightblue" d="M82.29,-230.22C98.07,-245.42 122.46,-267.64 146,-284 161.32,-294.65 180.02,-304.57 194.02,-311.45"/>
<polygon fill="midnightblue" stroke="midnightblue" points="84.47,-227.46 74.87,-222.98 79.58,-232.47 84.47,-227.46"/>
</g>
<!-- Node11 -->
<g id="node11" class="node">
<title>Node11</title>
<g id="a_node11"><a xlink:href="classKadath_1_1Base__tensor.html" target="_top" xlink:title=" ">
<polygon fill="none" stroke="black" points="1166,-232.5 1166,-251.5 1273,-251.5 1273,-232.5 1166,-232.5"/>
<text text-anchor="middle" x="1219.5" y="-239.5" font-family="Helvetica,sans-Serif" font-size="10.00">Kadath::Base_tensor</text>
</a>
</g>
</g>
<!-- Node2&#45;&gt;Node11 -->
<g id="edge24" class="edge">
<title>Node2&#45;&gt;Node11</title>
<path fill="none" stroke="midnightblue" d="M68.85,-193.49C80.49,-140.87 120.44,0 214.5,0 214.5,0 214.5,0 1045,0 1073.58,0 1143.77,-209.04 1166,-227 1168.58,-229.09 1171.44,-230.88 1174.44,-232.43"/>
<polygon fill="midnightblue" stroke="midnightblue" points="65.42,-192.79 66.79,-203.29 72.27,-194.23 65.42,-192.79"/>
</g>
<!-- Node12 -->
<g id="node12" class="node">
<title>Node12</title>
<g id="a_node12"><a xlink:href="classKadath_1_1Param__tensor.html" target="_top" xlink:title=" ">
<polygon fill="none" stroke="black" points="284,-407.5 284,-426.5 397,-426.5 397,-407.5 284,-407.5"/>
<text text-anchor="middle" x="340.5" y="-414.5" font-family="Helvetica,sans-Serif" font-size="10.00">Kadath::Param_tensor</text>
</a>
</g>
</g>
<!-- Node2&#45;&gt;Node12 -->
<g id="edge28" class="edge">
<title>Node2&#45;&gt;Node12</title>
<path fill="none" stroke="midnightblue" d="M75.44,-231.39C91.57,-258.39 124.91,-308.91 165,-340 208.17,-373.48 268.18,-395.79 305.39,-407.42"/>
<polygon fill="midnightblue" stroke="midnightblue" points="78.36,-229.46 70.3,-222.59 72.32,-232.99 78.36,-229.46"/>
</g>
<!-- Node3&#45;&gt;Node1 -->
<g id="edge2" class="edge">
<title>Node3&#45;&gt;Node1</title>
<path fill="none" stroke="#9a32cd" stroke-dasharray="5,2" d="M1094.43,-181.04C1143.32,-177.62 1218.52,-179.24 1273,-212 1329.41,-245.92 1361.7,-324.43 1371.65,-352.12"/>
<polygon fill="#9a32cd" stroke="#9a32cd" points="1094.11,-177.55 1084.42,-181.83 1094.66,-184.53 1094.11,-177.55"/>
<text text-anchor="middle" x="1219.5" y="-215" font-family="Helvetica,sans-Serif" font-size="10.00"> espace</text>
</g>
<!-- Node3&#45;&gt;Node11 -->
<g id="edge25" class="edge">
<title>Node3&#45;&gt;Node11</title>
<path fill="none" stroke="#9a32cd" stroke-dasharray="5,2" d="M1083.08,-199.82C1089.39,-201.91 1095.87,-204.03 1102,-206 1130.62,-215.19 1163.34,-225.26 1186.8,-232.41"/>
<polygon fill="#9a32cd" stroke="#9a32cd" points="1083.97,-196.43 1073.37,-196.59 1081.76,-203.07 1083.97,-196.43"/>
<text text-anchor="middle" x="1125" y="-224" font-family="Helvetica,sans-Serif" font-size="10.00"> space</text>
</g>
<!-- Node4&#45;&gt;Node3 -->
<g id="edge4" class="edge">
<title>Node4&#45;&gt;Node3</title>
<path fill="none" stroke="#9a32cd" stroke-dasharray="5,2" d="M938.27,-184.32C959.69,-184.87 984.1,-185.49 1003.97,-186"/>
<polygon fill="#9a32cd" stroke="#9a32cd" points="938.11,-180.82 928.03,-184.06 937.94,-187.82 938.11,-180.82"/>
<text text-anchor="middle" x="966" y="-189" font-family="Helvetica,sans-Serif" font-size="10.00"> domains</text>
</g>
<!-- Node4&#45;&gt;Node7 -->
<g id="edge18" class="edge">
<title>Node4&#45;&gt;Node7</title>
<path fill="none" stroke="#9a32cd" stroke-dasharray="5,2" d="M832.34,-187.77C817.16,-190 800.71,-193.26 786,-198 766.68,-204.23 746.15,-215.4 732.66,-223.45"/>
<polygon fill="#9a32cd" stroke="#9a32cd" points="833.16,-191.19 842.6,-186.38 832.22,-184.25 833.16,-191.19"/>
<text text-anchor="middle" x="805.5" y="-201" font-family="Helvetica,sans-Serif" font-size="10.00"> zone</text>
</g>
<!-- Node5&#45;&gt;Node4 -->
<g id="edge6" class="edge">
<title>Node5&#45;&gt;Node4</title>
<path fill="none" stroke="#9a32cd" stroke-dasharray="5,2" d="M657.51,-122.69C704.08,-124.22 770.82,-130.55 825,-152 840.16,-158 856.54,-166.71 868.26,-173.37"/>
<polygon fill="#9a32cd" stroke="#9a32cd" points="657.4,-119.18 647.31,-122.42 657.21,-126.18 657.4,-119.18"/>
<text text-anchor="middle" x="716.5" y="-149" font-family="Helvetica,sans-Serif" font-size="10.00"> nbr_coefs</text>
<text text-anchor="middle" x="716.5" y="-138" font-family="Helvetica,sans-Serif" font-size="10.00">nbr_points</text>
</g>
<!-- Node6&#45;&gt;Node4 -->
<g id="edge8" class="edge">
<title>Node6&#45;&gt;Node4</title>
<path fill="none" stroke="#9a32cd" stroke-dasharray="5,2" d="M544.35,-185.54C546.93,-185.34 549.49,-185.15 552,-185 656.58,-178.55 780,-180.24 842.98,-181.77"/>
<polygon fill="#9a32cd" stroke="#9a32cd" points="543.99,-182.06 534.33,-186.41 544.6,-189.03 543.99,-182.06"/>
<text text-anchor="middle" x="716.5" y="-184" font-family="Helvetica,sans-Serif" font-size="10.00"> coloc</text>
</g>
<!-- Node6&#45;&gt;Node7 -->
<g id="edge12" class="edge">
<title>Node6&#45;&gt;Node7</title>
<path fill="none" stroke="#9a32cd" stroke-dasharray="5,2" d="M544.38,-188.65C576.08,-187.95 613.91,-189.63 647,-198 667.2,-203.11 688.22,-214.99 701.55,-223.49"/>
<polygon fill="#9a32cd" stroke="#9a32cd" points="544.21,-185.15 534.32,-188.96 544.42,-192.15 544.21,-185.15"/>
<text text-anchor="middle" x="599.5" y="-212" font-family="Helvetica,sans-Serif" font-size="10.00"> c</text>
<text text-anchor="middle" x="599.5" y="-201" font-family="Helvetica,sans-Serif" font-size="10.00">cf</text>
</g>
<!-- Node7&#45;&gt;Node4 -->
<g id="edge10" class="edge">
<title>Node7&#45;&gt;Node4</title>
<path fill="none" stroke="#9a32cd" stroke-dasharray="5,2" d="M778.18,-223.2C793.64,-220 810.1,-215.95 825,-211 839.63,-206.14 855.37,-198.62 866.99,-192.6"/>
<polygon fill="#9a32cd" stroke="#9a32cd" points="777.32,-219.81 768.2,-225.19 778.69,-226.67 777.32,-219.81"/>
<text text-anchor="middle" x="805.5" y="-258" font-family="Helvetica,sans-Serif" font-size="10.00"> absol</text>
<text text-anchor="middle" x="805.5" y="-247" font-family="Helvetica,sans-Serif" font-size="10.00">cart</text>
<text text-anchor="middle" x="805.5" y="-236" font-family="Helvetica,sans-Serif" font-size="10.00">cart_surr</text>
<text text-anchor="middle" x="805.5" y="-225" font-family="Helvetica,sans-Serif" font-size="10.00">radius</text>
</g>
<!-- Node7&#45;&gt;Node7 -->
<g id="edge13" class="edge">
<title>Node7&#45;&gt;Node7</title>
<path fill="none" stroke="#9a32cd" stroke-dasharray="5,2" d="M700.2,-252.4C701.29,-257.31 706.72,-261 716.5,-261 732.14,-261 736.66,-251.57 730.06,-242.76"/>
<polygon fill="#9a32cd" stroke="#9a32cd" points="703.58,-253.33 702.94,-242.76 696.84,-251.42 703.58,-253.33"/>
<text text-anchor="middle" x="716.5" y="-275" font-family="Helvetica,sans-Serif" font-size="10.00"> p_der_abs</text>
<text text-anchor="middle" x="716.5" y="-264" font-family="Helvetica,sans-Serif" font-size="10.00">p_der_var</text>
</g>
<!-- Node7&#45;&gt;Node10 -->
<g id="edge21" class="edge">
<title>Node7&#45;&gt;Node10</title>
<path fill="none" stroke="#9a32cd" stroke-dasharray="5,2" d="M740.13,-248.05C753.04,-255.89 769.82,-264.89 786,-270 862.38,-294.13 884.9,-291 965,-291 965,-291 965,-291 1377,-291 1419.45,-291 1466.7,-308.15 1493.14,-319.41"/>
<polygon fill="#9a32cd" stroke="#9a32cd" points="741.82,-244.98 731.49,-242.62 738.09,-250.9 741.82,-244.98"/>
<text text-anchor="middle" x="1125" y="-294" font-family="Helvetica,sans-Serif" font-size="10.00"> val_zones</text>
</g>
<!-- Node8&#45;&gt;Node7 -->
<g id="edge14" class="edge">
<title>Node8&#45;&gt;Node7</title>
<path fill="none" stroke="#9a32cd" stroke-dasharray="5,2" d="M541.74,-262.19C573.64,-258.15 612.39,-252.85 647,-247 654.78,-245.68 663.02,-244.14 671,-242.55"/>
<polygon fill="#9a32cd" stroke="#9a32cd" points="541.13,-258.74 531.64,-263.45 542,-265.68 541.13,-258.74"/>
<text text-anchor="middle" x="599.5" y="-264" font-family="Helvetica,sans-Serif" font-size="10.00"> base</text>
</g>
<!-- Node9&#45;&gt;Node1 -->
<g id="edge22" class="edge">
<title>Node9&#45;&gt;Node1</title>
<path fill="none" stroke="#9a32cd" stroke-dasharray="5,2" d="M258.05,-333.51C270.2,-337.13 281.04,-340.3 284,-341 367.26,-360.74 387.93,-375 473.5,-375 473.5,-375 473.5,-375 1220.5,-375 1259.4,-375 1303.61,-370.86 1334.74,-367.25"/>
<polygon fill="#9a32cd" stroke="#9a32cd" points="258.73,-330.06 248.14,-330.55 256.72,-336.76 258.73,-330.06"/>
<text text-anchor="middle" x="885.5" y="-389" font-family="Helvetica,sans-Serif" font-size="10.00"> give_indices</text>
<text text-anchor="middle" x="885.5" y="-378" font-family="Helvetica,sans-Serif" font-size="10.00">type_indice</text>
</g>
<!-- Node9&#45;&gt;Node8 -->
<g id="edge16" class="edge">
<title>Node9&#45;&gt;Node8</title>
<path fill="none" stroke="#9a32cd" stroke-dasharray="5,2" d="M262.22,-309.03C269.48,-307.26 276.93,-305.52 284,-304 328.6,-294.39 379.52,-285.37 417.33,-279.03"/>
<polygon fill="#9a32cd" stroke="#9a32cd" points="261.34,-305.64 252.47,-311.45 263.02,-312.44 261.34,-305.64"/>
<text text-anchor="middle" x="340.5" y="-307" font-family="Helvetica,sans-Serif" font-size="10.00"> bases_1d</text>
</g>
<!-- Node9&#45;&gt;Node11 -->
<g id="edge26" class="edge">
<title>Node9&#45;&gt;Node11</title>
<path fill="none" stroke="#9a32cd" stroke-dasharray="5,2" d="M276.3,-323.92C328.38,-326.2 405.91,-329 473.5,-329 473.5,-329 473.5,-329 1045,-329 1091.91,-329 1106.36,-327.59 1148,-306 1174.41,-292.3 1198.54,-266.23 1210.53,-251.95"/>
<polygon fill="#9a32cd" stroke="#9a32cd" points="276.38,-320.42 266.23,-323.47 276.07,-327.41 276.38,-320.42"/>
<text text-anchor="middle" x="805.5" y="-332" font-family="Helvetica,sans-Serif" font-size="10.00"> basis</text>
</g>
<!-- Node10&#45;&gt;Node1 -->
<g id="edge19" class="edge">
<title>Node10&#45;&gt;Node1</title>
<path fill="none" stroke="#9a32cd" stroke-dasharray="5,2" d="M1464.8,-340.85C1448.98,-344.66 1431.67,-348.83 1416.63,-352.46"/>
<polygon fill="#9a32cd" stroke="#9a32cd" points="1466.03,-344.15 1474.94,-338.41 1464.39,-337.35 1466.03,-344.15"/>
<text text-anchor="middle" x="1446" y="-350" font-family="Helvetica,sans-Serif" font-size="10.00"> cmp</text>
</g>
<!-- Node11&#45;&gt;Node1 -->
<g id="edge23" class="edge">
<title>Node11&#45;&gt;Node1</title>
<path fill="none" stroke="#9a32cd" stroke-dasharray="5,2" d="M1240.82,-257.78C1273.3,-283.01 1335.95,-331.67 1362.56,-352.34"/>
<polygon fill="#9a32cd" stroke="#9a32cd" points="1242.93,-254.99 1232.88,-251.62 1238.63,-260.52 1242.93,-254.99"/>
<text text-anchor="middle" x="1304" y="-320" font-family="Helvetica,sans-Serif" font-size="10.00"> basis</text>
</g>
<!-- Node12&#45;&gt;Node1 -->
<g id="edge27" class="edge">
<title>Node12&#45;&gt;Node1</title>
<path fill="none" stroke="#9a32cd" stroke-dasharray="5,2" d="M407.15,-423.34C459.04,-427.81 533.33,-433 598.5,-433 598.5,-433 598.5,-433 1220.5,-433 1278.65,-433 1338.8,-390.96 1363.43,-371.58"/>
<polygon fill="#9a32cd" stroke="#9a32cd" points="407.35,-419.85 397.09,-422.46 406.74,-426.82 407.35,-419.85"/>
<text text-anchor="middle" x="885.5" y="-436" font-family="Helvetica,sans-Serif" font-size="10.00"> parameters</text>
</g>
</g>
</svg>
