<?xml version="1.0" encoding="UTF-8" standalone="no"?>
<!DOCTYPE svg PUBLIC "-//W3C//DTD SVG 1.1//EN"
 "http://www.w3.org/Graphics/SVG/1.1/DTD/svg11.dtd">
<!-- Generated by graphviz version 2.47.1 (20210515.0534)
 -->
<!-- Title: Kadath::Space_spheric Pages: 1 -->
<svg width="539pt" height="324pt"
 viewBox="0.00 0.00 538.50 324.00" xmlns="http://www.w3.org/2000/svg" xmlns:xlink="http://www.w3.org/1999/xlink">
<g id="graph0" class="graph" transform="scale(1 1) rotate(0) translate(4 320)">
<title>Kadath::Space_spheric</title>
<!-- Node1 -->
<g id="node1" class="node">
<title>Node1</title>
<g id="a_node1"><a xlink:title=" ">
<polygon fill="#bfbfbf" stroke="black" points="0,-0.5 0,-19.5 116,-19.5 116,-0.5 0,-0.5"/>
<text text-anchor="middle" x="58" y="-7.5" font-family="Helvetica,sans-Serif" font-size="10.00">Kadath::Space_spheric</text>
</a>
</g>
</g>
<!-- Node2 -->
<g id="node2" class="node">
<title>Node2</title>
<g id="a_node2"><a xlink:href="classKadath_1_1Space.html" target="_top" xlink:title=" ">
<polygon fill="none" stroke="black" points="18,-58.5 18,-77.5 98,-77.5 98,-58.5 18,-58.5"/>
<text text-anchor="middle" x="58" y="-65.5" font-family="Helvetica,sans-Serif" font-size="10.00">Kadath::Space</text>
</a>
</g>
</g>
<!-- Node2&#45;&gt;Node1 -->
<g id="edge1" class="edge">
<title>Node2&#45;&gt;Node1</title>
<path fill="none" stroke="midnightblue" d="M58,-47.95C58,-38.29 58,-27.03 58,-19.51"/>
<polygon fill="midnightblue" stroke="midnightblue" points="54.5,-48.25 58,-58.25 61.5,-48.25 54.5,-48.25"/>
</g>
<!-- Node3 -->
<g id="node3" class="node">
<title>Node3</title>
<g id="a_node3"><a xlink:href="structKadath_1_1MemoryMappable.html" target="_top" xlink:title=" ">
<polygon fill="none" stroke="black" points="211,-296.5 211,-315.5 339,-315.5 339,-296.5 211,-296.5"/>
<text text-anchor="middle" x="275" y="-303.5" font-family="Helvetica,sans-Serif" font-size="10.00">Kadath::MemoryMappable</text>
</a>
</g>
</g>
<!-- Node3&#45;&gt;Node2 -->
<g id="edge2" class="edge">
<title>Node3&#45;&gt;Node2</title>
<path fill="none" stroke="midnightblue" d="M200.67,-296.96C153.2,-290.06 98.02,-278.14 84,-259 41.7,-201.25 52.11,-106.49 56.53,-77.62"/>
<polygon fill="midnightblue" stroke="midnightblue" points="200.27,-300.44 210.66,-298.35 201.24,-293.5 200.27,-300.44"/>
</g>
<!-- Node4 -->
<g id="node4" class="node">
<title>Node4</title>
<g id="a_node4"><a xlink:href="classKadath_1_1Domain.html" target="_top" xlink:title=" ">
<polygon fill="none" stroke="black" points="112.5,-160.5 112.5,-179.5 197.5,-179.5 197.5,-160.5 112.5,-160.5"/>
<text text-anchor="middle" x="155" y="-167.5" font-family="Helvetica,sans-Serif" font-size="10.00">Kadath::Domain</text>
</a>
</g>
</g>
<!-- Node3&#45;&gt;Node4 -->
<g id="edge4" class="edge">
<title>Node3&#45;&gt;Node4</title>
<path fill="none" stroke="midnightblue" d="M200.78,-295.56C156.59,-288.25 106.54,-276.39 93,-259 71.07,-230.84 116.38,-195.71 140.8,-179.69"/>
<polygon fill="midnightblue" stroke="midnightblue" points="200.26,-299.02 210.69,-297.14 201.37,-292.11 200.26,-299.02"/>
</g>
<!-- Node5 -->
<g id="node5" class="node">
<title>Node5</title>
<g id="a_node5"><a xlink:href="classKadath_1_1Dim__array.html" target="_top" xlink:title=" ">
<polygon fill="none" stroke="black" points="102.5,-239.5 102.5,-258.5 197.5,-258.5 197.5,-239.5 102.5,-239.5"/>
<text text-anchor="middle" x="150" y="-246.5" font-family="Helvetica,sans-Serif" font-size="10.00">Kadath::Dim_array</text>
</a>
</g>
</g>
<!-- Node3&#45;&gt;Node5 -->
<g id="edge6" class="edge">
<title>Node3&#45;&gt;Node5</title>
<path fill="none" stroke="midnightblue" d="M246.3,-292.37C222.73,-282 189.98,-267.59 169.39,-258.53"/>
<polygon fill="midnightblue" stroke="midnightblue" points="244.91,-295.58 255.47,-296.41 247.73,-289.18 244.91,-295.58"/>
</g>
<!-- Node6 -->
<g id="node6" class="node">
<title>Node6</title>
<g id="a_node6"><a xlink:href="classKadath_1_1Array.html" target="_top" xlink:title=" ">
<polygon fill="none" stroke="black" points="215.5,-239.5 215.5,-258.5 334.5,-258.5 334.5,-239.5 215.5,-239.5"/>
<text text-anchor="middle" x="275" y="-246.5" font-family="Helvetica,sans-Serif" font-size="10.00">Kadath::Array&lt; double &gt;</text>
</a>
</g>
</g>
<!-- Node3&#45;&gt;Node6 -->
<g id="edge8" class="edge">
<title>Node3&#45;&gt;Node6</title>
<path fill="none" stroke="midnightblue" d="M275,-286.12C275,-276.82 275,-266.06 275,-258.71"/>
<polygon fill="midnightblue" stroke="midnightblue" points="271.5,-286.41 275,-296.41 278.5,-286.41 271.5,-286.41"/>
</g>
<!-- Node7 -->
<g id="node7" class="node">
<title>Node7</title>
<g id="a_node7"><a xlink:href="classKadath_1_1Val__domain.html" target="_top" xlink:title=" ">
<polygon fill="none" stroke="black" points="223.5,-58.5 223.5,-77.5 326.5,-77.5 326.5,-58.5 223.5,-58.5"/>
<text text-anchor="middle" x="275" y="-65.5" font-family="Helvetica,sans-Serif" font-size="10.00">Kadath::Val_domain</text>
</a>
</g>
</g>
<!-- Node3&#45;&gt;Node7 -->
<g id="edge10" class="edge">
<title>Node3&#45;&gt;Node7</title>
<path fill="none" stroke="midnightblue" d="M307.49,-291.87C321.37,-284.43 336.16,-273.65 344,-259 348.19,-251.16 345.63,-247.74 344,-239 331.83,-173.87 293.88,-102.35 280.08,-77.82"/>
<polygon fill="midnightblue" stroke="midnightblue" points="305.55,-288.92 298.12,-296.48 308.64,-295.2 305.55,-288.92"/>
</g>
<!-- Node8 -->
<g id="node8" class="node">
<title>Node8</title>
<g id="a_node8"><a xlink:href="classKadath_1_1Base__spectral.html" target="_top" xlink:title=" ">
<polygon fill="none" stroke="black" points="391,-160.5 391,-179.5 505,-179.5 505,-160.5 391,-160.5"/>
<text text-anchor="middle" x="448" y="-167.5" font-family="Helvetica,sans-Serif" font-size="10.00">Kadath::Base_spectral</text>
</a>
</g>
</g>
<!-- Node3&#45;&gt;Node8 -->
<g id="edge14" class="edge">
<title>Node3&#45;&gt;Node8</title>
<path fill="none" stroke="midnightblue" d="M345.91,-293.43C356.94,-289.65 367.73,-284.64 377,-278 413.6,-251.77 436.65,-200.31 444.74,-179.77"/>
<polygon fill="midnightblue" stroke="midnightblue" points="344.7,-290.14 336.19,-296.44 346.77,-296.83 344.7,-290.14"/>
</g>
<!-- Node9 -->
<g id="node9" class="node">
<title>Node9</title>
<g id="a_node9"><a xlink:href="classKadath_1_1Array.html" target="_top" xlink:title=" ">
<polygon fill="none" stroke="black" points="429.5,-239.5 429.5,-258.5 530.5,-258.5 530.5,-239.5 429.5,-239.5"/>
<text text-anchor="middle" x="480" y="-246.5" font-family="Helvetica,sans-Serif" font-size="10.00">Kadath::Array&lt; int &gt;</text>
</a>
</g>
</g>
<!-- Node3&#45;&gt;Node9 -->
<g id="edge16" class="edge">
<title>Node3&#45;&gt;Node9</title>
<path fill="none" stroke="midnightblue" d="M344.22,-294.71C367.02,-290.52 392.33,-284.98 415,-278 431.79,-272.83 450.11,-264.7 463,-258.53"/>
<polygon fill="midnightblue" stroke="midnightblue" points="343.5,-291.28 334.28,-296.49 344.73,-298.18 343.5,-291.28"/>
</g>
<!-- Node4&#45;&gt;Node2 -->
<g id="edge3" class="edge">
<title>Node4&#45;&gt;Node2</title>
<path fill="none" stroke="#9a32cd" stroke-dasharray="5,2" d="M117.83,-156.3C109.65,-152.31 101.5,-147.26 95,-141 75.97,-122.68 64.93,-92.44 60.42,-77.66"/>
<polygon fill="#9a32cd" stroke="#9a32cd" points="116.43,-159.51 126.99,-160.38 119.28,-153.12 116.43,-159.51"/>
<text text-anchor="middle" x="115" y="-116.5" font-family="Helvetica,sans-Serif" font-size="10.00"> domains</text>
</g>
<!-- Node4&#45;&gt;Node7 -->
<g id="edge17" class="edge">
<title>Node4&#45;&gt;Node7</title>
<path fill="none" stroke="#9a32cd" stroke-dasharray="5,2" d="M149.83,-150.54C146.57,-134.59 144.95,-111.82 157,-97 165.6,-86.42 195.7,-79.38 223.34,-75.01"/>
<polygon fill="#9a32cd" stroke="#9a32cd" points="146.45,-151.43 152.21,-160.32 153.25,-149.78 146.45,-151.43"/>
<text text-anchor="middle" x="168.5" y="-116.5" font-family="Helvetica,sans-Serif" font-size="10.00"> zone</text>
</g>
<!-- Node5&#45;&gt;Node4 -->
<g id="edge5" class="edge">
<title>Node5&#45;&gt;Node4</title>
<path fill="none" stroke="#9a32cd" stroke-dasharray="5,2" d="M151.21,-229.31C152.23,-213.59 153.65,-191.81 154.43,-179.81"/>
<polygon fill="#9a32cd" stroke="#9a32cd" points="147.71,-229.26 150.55,-239.47 154.69,-229.71 147.71,-229.26"/>
<text text-anchor="middle" x="177" y="-213" font-family="Helvetica,sans-Serif" font-size="10.00"> nbr_coefs</text>
<text text-anchor="middle" x="177" y="-202" font-family="Helvetica,sans-Serif" font-size="10.00">nbr_points</text>
</g>
<!-- Node6&#45;&gt;Node4 -->
<g id="edge7" class="edge">
<title>Node6&#45;&gt;Node4</title>
<path fill="none" stroke="#9a32cd" stroke-dasharray="5,2" d="M253.63,-233.71C247.58,-229.63 241.02,-225.17 235,-221 221.11,-211.38 218.24,-208.09 204,-199 193.26,-192.15 180.8,-185.03 171.12,-179.69"/>
<polygon fill="#9a32cd" stroke="#9a32cd" points="251.73,-236.65 261.98,-239.32 255.63,-230.84 251.73,-236.65"/>
<text text-anchor="middle" x="248" y="-207.5" font-family="Helvetica,sans-Serif" font-size="10.00"> coloc</text>
</g>
<!-- Node6&#45;&gt;Node7 -->
<g id="edge11" class="edge">
<title>Node6&#45;&gt;Node7</title>
<path fill="none" stroke="#9a32cd" stroke-dasharray="5,2" d="M275,-229.09C275,-190.68 275,-104.89 275,-77.55"/>
<polygon fill="#9a32cd" stroke="#9a32cd" points="271.5,-229.37 275,-239.37 278.5,-229.37 271.5,-229.37"/>
<text text-anchor="middle" x="279.5" y="-173" font-family="Helvetica,sans-Serif" font-size="10.00"> c</text>
<text text-anchor="middle" x="279.5" y="-162" font-family="Helvetica,sans-Serif" font-size="10.00">cf</text>
</g>
<!-- Node7&#45;&gt;Node4 -->
<g id="edge9" class="edge">
<title>Node7&#45;&gt;Node4</title>
<path fill="none" stroke="#9a32cd" stroke-dasharray="5,2" d="M245.46,-82.13C237.47,-86.33 229.08,-91.36 222,-97 201.78,-113.09 201.76,-122.23 184,-141 177.65,-147.71 170.14,-154.95 164.35,-160.38"/>
<polygon fill="#9a32cd" stroke="#9a32cd" points="247.15,-85.19 254.55,-77.61 244.04,-78.93 247.15,-85.19"/>
<text text-anchor="middle" x="241.5" y="-133" font-family="Helvetica,sans-Serif" font-size="10.00"> absol</text>
<text text-anchor="middle" x="241.5" y="-122" font-family="Helvetica,sans-Serif" font-size="10.00">cart</text>
<text text-anchor="middle" x="241.5" y="-111" font-family="Helvetica,sans-Serif" font-size="10.00">cart_surr</text>
<text text-anchor="middle" x="241.5" y="-100" font-family="Helvetica,sans-Serif" font-size="10.00">radius</text>
</g>
<!-- Node7&#45;&gt;Node7 -->
<g id="edge12" class="edge">
<title>Node7&#45;&gt;Node7</title>
<path fill="none" stroke="#9a32cd" stroke-dasharray="5,2" d="M336.82,-71.95C341.57,-71.08 344.5,-69.76 344.5,-68 344.5,-65.18 337,-63.5 326.53,-62.95"/>
<polygon fill="#9a32cd" stroke="#9a32cd" points="336.1,-68.51 326.53,-73.05 336.84,-75.47 336.1,-68.51"/>
<text text-anchor="middle" x="368.5" y="-71" font-family="Helvetica,sans-Serif" font-size="10.00"> p_der_abs</text>
<text text-anchor="middle" x="368.5" y="-60" font-family="Helvetica,sans-Serif" font-size="10.00">p_der_var</text>
</g>
<!-- Node8&#45;&gt;Node7 -->
<g id="edge13" class="edge">
<title>Node8&#45;&gt;Node7</title>
<path fill="none" stroke="#9a32cd" stroke-dasharray="5,2" d="M435.83,-152.31C422.99,-135.87 401.28,-111.23 377,-97 361.63,-87.99 343.27,-81.79 326.38,-77.56"/>
<polygon fill="#9a32cd" stroke="#9a32cd" points="433.19,-154.61 442.01,-160.47 438.77,-150.39 433.19,-154.61"/>
<text text-anchor="middle" x="437" y="-116.5" font-family="Helvetica,sans-Serif" font-size="10.00"> base</text>
</g>
<!-- Node9&#45;&gt;Node8 -->
<g id="edge15" class="edge">
<title>Node9&#45;&gt;Node8</title>
<path fill="none" stroke="#9a32cd" stroke-dasharray="5,2" d="M472.61,-230.22C466.05,-214.44 456.74,-192.04 451.66,-179.81"/>
<polygon fill="#9a32cd" stroke="#9a32cd" points="469.38,-231.57 476.45,-239.47 475.85,-228.89 469.38,-231.57"/>
<text text-anchor="middle" x="490.5" y="-207.5" font-family="Helvetica,sans-Serif" font-size="10.00"> bases_1d</text>
</g>
</g>
</svg>
