<?xml version="1.0" encoding="UTF-8" standalone="no"?>
<!DOCTYPE svg PUBLIC "-//W3C//DTD SVG 1.1//EN"
 "http://www.w3.org/Graphics/SVG/1.1/DTD/svg11.dtd">
<!-- Generated by graphviz version 2.47.1 (20210515.0534)
 -->
<!-- Title: Kadath::Space Pages: 1 -->
<svg width="434pt" height="819pt"
 viewBox="0.00 0.00 434.00 819.00" xmlns="http://www.w3.org/2000/svg" xmlns:xlink="http://www.w3.org/1999/xlink">
<g id="graph0" class="graph" transform="scale(1 1) rotate(0) translate(4 815)">
<title>Kadath::Space</title>
<!-- Node1 -->
<g id="node1" class="node">
<title>Node1</title>
<g id="a_node1"><a xlink:title=" ">
<polygon fill="#bfbfbf" stroke="black" points="164,-427.5 164,-446.5 244,-446.5 244,-427.5 164,-427.5"/>
<text text-anchor="middle" x="204" y="-434.5" font-family="Helvetica,sans-Serif" font-size="10.00">Kadath::Space</text>
</a>
</g>
</g>
<!-- Node3 -->
<g id="node3" class="node">
<title>Node3</title>
<g id="a_node3"><a xlink:href="classKadath_1_1Space__KerrSchild__bh.html" target="_top" xlink:title=" ">
<polygon fill="none" stroke="black" points="280,-791.5 280,-810.5 426,-810.5 426,-791.5 280,-791.5"/>
<text text-anchor="middle" x="353" y="-798.5" font-family="Helvetica,sans-Serif" font-size="10.00">Kadath::Space_KerrSchild_bh</text>
</a>
</g>
</g>
<!-- Node1&#45;&gt;Node3 -->
<g id="edge2" class="edge">
<title>Node1&#45;&gt;Node3</title>
<path fill="none" stroke="midnightblue" d="M206.64,-456.97C212.49,-523.24 234.42,-734.38 280,-782 283.66,-785.83 288,-788.92 292.7,-791.41"/>
<polygon fill="midnightblue" stroke="midnightblue" points="210.1,-456.33 205.76,-446.67 203.13,-456.93 210.1,-456.33"/>
</g>
<!-- Node4 -->
<g id="node4" class="node">
<title>Node4</title>
<g id="a_node4"><a xlink:href="classKadath_1_1Space__Kerr__bbh.html" target="_top" xlink:title=" ">
<polygon fill="none" stroke="black" points="291,-753.5 291,-772.5 415,-772.5 415,-753.5 291,-753.5"/>
<text text-anchor="middle" x="353" y="-760.5" font-family="Helvetica,sans-Serif" font-size="10.00">Kadath::Space_Kerr_bbh</text>
</a>
</g>
</g>
<!-- Node1&#45;&gt;Node4 -->
<g id="edge3" class="edge">
<title>Node1&#45;&gt;Node4</title>
<path fill="none" stroke="midnightblue" d="M207.19,-456.73C214.38,-517.83 239.11,-702.35 280,-744 283.8,-747.87 288.3,-750.99 293.15,-753.49"/>
<polygon fill="midnightblue" stroke="midnightblue" points="210.64,-456.06 206.02,-446.52 203.69,-456.86 210.64,-456.06"/>
</g>
<!-- Node5 -->
<g id="node5" class="node">
<title>Node5</title>
<g id="a_node5"><a xlink:href="classKadath_1_1Space__adapted__bh.html" target="_top" xlink:title=" ">
<polygon fill="none" stroke="black" points="285.5,-715.5 285.5,-734.5 420.5,-734.5 420.5,-715.5 285.5,-715.5"/>
<text text-anchor="middle" x="353" y="-722.5" font-family="Helvetica,sans-Serif" font-size="10.00">Kadath::Space_adapted_bh</text>
</a>
</g>
</g>
<!-- Node1&#45;&gt;Node5 -->
<g id="edge4" class="edge">
<title>Node1&#45;&gt;Node5</title>
<path fill="none" stroke="midnightblue" d="M204.31,-456.78C203.73,-506.25 209.38,-636.36 280,-706 283.87,-709.81 288.4,-712.89 293.28,-715.36"/>
<polygon fill="midnightblue" stroke="midnightblue" points="207.81,-456.83 204.54,-446.75 200.82,-456.67 207.81,-456.83"/>
</g>
<!-- Node6 -->
<g id="node6" class="node">
<title>Node6</title>
<g id="a_node6"><a xlink:href="classKadath_1_1Space__bbh.html" target="_top" xlink:title=" ">
<polygon fill="none" stroke="black" points="302.5,-677.5 302.5,-696.5 403.5,-696.5 403.5,-677.5 302.5,-677.5"/>
<text text-anchor="middle" x="353" y="-684.5" font-family="Helvetica,sans-Serif" font-size="10.00">Kadath::Space_bbh</text>
</a>
</g>
</g>
<!-- Node1&#45;&gt;Node6 -->
<g id="edge5" class="edge">
<title>Node1&#45;&gt;Node6</title>
<path fill="none" stroke="midnightblue" d="M205.38,-456.65C207.36,-501.07 218.56,-609.9 280,-668 286.2,-673.86 293.99,-677.96 302.13,-680.83"/>
<polygon fill="midnightblue" stroke="midnightblue" points="208.88,-456.46 205.05,-446.58 201.88,-456.69 208.88,-456.46"/>
</g>
<!-- Node7 -->
<g id="node7" class="node">
<title>Node7</title>
<g id="a_node7"><a xlink:href="classKadath_1_1Space__bhns.html" target="_top" xlink:title=" ">
<polygon fill="none" stroke="black" points="300,-639.5 300,-658.5 406,-658.5 406,-639.5 300,-639.5"/>
<text text-anchor="middle" x="353" y="-646.5" font-family="Helvetica,sans-Serif" font-size="10.00">Kadath::Space_bhns</text>
</a>
</g>
</g>
<!-- Node1&#45;&gt;Node7 -->
<g id="edge6" class="edge">
<title>Node1&#45;&gt;Node7</title>
<path fill="none" stroke="midnightblue" d="M206.86,-456.83C211.61,-495.97 227.78,-583.36 280,-630 285.69,-635.08 292.58,-638.83 299.82,-641.59"/>
<polygon fill="midnightblue" stroke="midnightblue" points="210.32,-456.31 205.76,-446.74 203.36,-457.06 210.32,-456.31"/>
</g>
<!-- Node8 -->
<g id="node8" class="node">
<title>Node8</title>
<g id="a_node8"><a xlink:href="classKadath_1_1Space__bin__bh.html" target="_top" xlink:title=" ">
<polygon fill="none" stroke="black" points="296.5,-601.5 296.5,-620.5 409.5,-620.5 409.5,-601.5 296.5,-601.5"/>
<text text-anchor="middle" x="353" y="-608.5" font-family="Helvetica,sans-Serif" font-size="10.00">Kadath::Space_bin_bh</text>
</a>
</g>
</g>
<!-- Node1&#45;&gt;Node8 -->
<g id="edge7" class="edge">
<title>Node1&#45;&gt;Node8</title>
<path fill="none" stroke="midnightblue" d="M208.91,-456.55C216.56,-489.58 236.67,-556.31 280,-592 284.89,-596.03 290.54,-599.21 296.49,-601.72"/>
<polygon fill="midnightblue" stroke="midnightblue" points="212.32,-455.77 206.78,-446.74 205.48,-457.25 212.32,-455.77"/>
</g>
<!-- Node9 -->
<g id="node9" class="node">
<title>Node9</title>
<g id="a_node9"><a xlink:href="classKadath_1_1Space__bin__fake.html" target="_top" xlink:title=" ">
<polygon fill="none" stroke="black" points="292,-563.5 292,-582.5 414,-582.5 414,-563.5 292,-563.5"/>
<text text-anchor="middle" x="353" y="-570.5" font-family="Helvetica,sans-Serif" font-size="10.00">Kadath::Space_bin_fake</text>
</a>
</g>
</g>
<!-- Node1&#45;&gt;Node9 -->
<g id="edge8" class="edge">
<title>Node1&#45;&gt;Node9</title>
<path fill="none" stroke="midnightblue" d="M212.06,-456.13C222.7,-482.27 245.37,-528.78 280,-554 285.33,-557.88 291.39,-560.97 297.69,-563.43"/>
<polygon fill="midnightblue" stroke="midnightblue" points="215.23,-454.64 208.34,-446.59 208.71,-457.18 215.23,-454.64"/>
</g>
<!-- Node10 -->
<g id="node10" class="node">
<title>Node10</title>
<g id="a_node10"><a xlink:href="classKadath_1_1Space__bin__ns.html" target="_top" xlink:title=" ">
<polygon fill="none" stroke="black" points="296.5,-525.5 296.5,-544.5 409.5,-544.5 409.5,-525.5 296.5,-525.5"/>
<text text-anchor="middle" x="353" y="-532.5" font-family="Helvetica,sans-Serif" font-size="10.00">Kadath::Space_bin_ns</text>
</a>
</g>
</g>
<!-- Node1&#45;&gt;Node10 -->
<g id="edge9" class="edge">
<title>Node1&#45;&gt;Node10</title>
<path fill="none" stroke="midnightblue" d="M217.51,-455.17C230.91,-473.26 253.81,-500.49 280,-516 286.56,-519.89 293.93,-522.99 301.37,-525.47"/>
<polygon fill="midnightblue" stroke="midnightblue" points="220.08,-452.74 211.4,-446.66 214.39,-456.82 220.08,-452.74"/>
</g>
<!-- Node11 -->
<g id="node11" class="node">
<title>Node11</title>
<g id="a_node11"><a xlink:href="classKadath_1_1Space__bispheric.html" target="_top" xlink:title=" ">
<polygon fill="none" stroke="black" points="291,-487.5 291,-506.5 415,-506.5 415,-487.5 291,-487.5"/>
<text text-anchor="middle" x="353" y="-494.5" font-family="Helvetica,sans-Serif" font-size="10.00">Kadath::Space_bispheric</text>
</a>
</g>
</g>
<!-- Node1&#45;&gt;Node11 -->
<g id="edge10" class="edge">
<title>Node1&#45;&gt;Node11</title>
<path fill="none" stroke="midnightblue" d="M228.73,-451.91C243.13,-460.46 262.13,-470.88 280,-478 289.13,-481.64 299.18,-484.79 308.81,-487.42"/>
<polygon fill="midnightblue" stroke="midnightblue" points="230.35,-448.8 219.98,-446.61 226.72,-454.78 230.35,-448.8"/>
</g>
<!-- Node12 -->
<g id="node12" class="node">
<title>Node12</title>
<g id="a_node12"><a xlink:href="classKadath_1_1Space__critic.html" target="_top" xlink:title=" ">
<polygon fill="none" stroke="black" points="300,-449.5 300,-468.5 406,-468.5 406,-449.5 300,-449.5"/>
<text text-anchor="middle" x="353" y="-456.5" font-family="Helvetica,sans-Serif" font-size="10.00">Kadath::Space_critic</text>
</a>
</g>
</g>
<!-- Node1&#45;&gt;Node12 -->
<g id="edge11" class="edge">
<title>Node1&#45;&gt;Node12</title>
<path fill="none" stroke="midnightblue" d="M253.93,-444.32C268.65,-446.53 284.87,-448.95 299.79,-451.19"/>
<polygon fill="midnightblue" stroke="midnightblue" points="254.42,-440.86 244.01,-442.84 253.38,-447.78 254.42,-440.86"/>
</g>
<!-- Node13 -->
<g id="node13" class="node">
<title>Node13</title>
<g id="a_node13"><a xlink:href="classKadath_1_1Space__fourD__periodic.html" target="_top" xlink:title=" ">
<polygon fill="none" stroke="black" points="299,-400 299,-430 407,-430 407,-400 299,-400"/>
<text text-anchor="start" x="307" y="-418" font-family="Helvetica,sans-Serif" font-size="10.00">Kadath::Space_fourD</text>
<text text-anchor="middle" x="353" y="-407" font-family="Helvetica,sans-Serif" font-size="10.00">_periodic</text>
</a>
</g>
</g>
<!-- Node1&#45;&gt;Node13 -->
<g id="edge12" class="edge">
<title>Node1&#45;&gt;Node13</title>
<path fill="none" stroke="midnightblue" d="M254.2,-429.64C268.58,-427.48 284.36,-425.12 298.97,-422.94"/>
<polygon fill="midnightblue" stroke="midnightblue" points="253.38,-426.22 244.01,-431.16 254.42,-433.14 253.38,-426.22"/>
</g>
<!-- Node14 -->
<g id="node14" class="node">
<title>Node14</title>
<g id="a_node14"><a xlink:href="classKadath_1_1Space__oned.html" target="_top" xlink:title=" ">
<polygon fill="none" stroke="black" points="300,-361.5 300,-380.5 406,-380.5 406,-361.5 300,-361.5"/>
<text text-anchor="middle" x="353" y="-368.5" font-family="Helvetica,sans-Serif" font-size="10.00">Kadath::Space_oned</text>
</a>
</g>
</g>
<!-- Node1&#45;&gt;Node14 -->
<g id="edge13" class="edge">
<title>Node1&#45;&gt;Node14</title>
<path fill="none" stroke="midnightblue" d="M225.88,-421.5C240.42,-411.33 260.62,-398.4 280,-390 288.54,-386.3 297.97,-383.18 307.12,-380.6"/>
<polygon fill="midnightblue" stroke="midnightblue" points="223.71,-418.75 217.61,-427.42 227.78,-424.45 223.71,-418.75"/>
</g>
<!-- Node15 -->
<g id="node15" class="node">
<title>Node15</title>
<g id="a_node15"><a xlink:href="classKadath_1_1Space__polar.html" target="_top" xlink:title=" ">
<polygon fill="none" stroke="black" points="300,-323.5 300,-342.5 406,-342.5 406,-323.5 300,-323.5"/>
<text text-anchor="middle" x="353" y="-330.5" font-family="Helvetica,sans-Serif" font-size="10.00">Kadath::Space_polar</text>
</a>
</g>
</g>
<!-- Node1&#45;&gt;Node15 -->
<g id="edge14" class="edge">
<title>Node1&#45;&gt;Node15</title>
<path fill="none" stroke="midnightblue" d="M216.22,-418.88C229.2,-399.43 252.37,-369.05 280,-352 286.27,-348.13 293.32,-345.04 300.49,-342.58"/>
<polygon fill="midnightblue" stroke="midnightblue" points="213.17,-417.14 210.69,-427.44 219.05,-420.94 213.17,-417.14"/>
</g>
<!-- Node16 -->
<g id="node16" class="node">
<title>Node16</title>
<g id="a_node16"><a xlink:href="classKadath_1_1Space__polar__adapted.html" target="_top" xlink:title=" ">
<polygon fill="none" stroke="black" points="300,-274 300,-304 406,-304 406,-274 300,-274"/>
<text text-anchor="start" x="308" y="-292" font-family="Helvetica,sans-Serif" font-size="10.00">Kadath::Space_polar</text>
<text text-anchor="middle" x="353" y="-281" font-family="Helvetica,sans-Serif" font-size="10.00">_adapted</text>
</a>
</g>
</g>
<!-- Node1&#45;&gt;Node16 -->
<g id="edge15" class="edge">
<title>Node1&#45;&gt;Node16</title>
<path fill="none" stroke="midnightblue" d="M211.78,-418.03C222.32,-391.16 245.11,-342.14 280,-314 285.87,-309.26 292.7,-305.4 299.76,-302.25"/>
<polygon fill="midnightblue" stroke="midnightblue" points="208.48,-416.87 208.23,-427.47 215.03,-419.34 208.48,-416.87"/>
</g>
<!-- Node17 -->
<g id="node17" class="node">
<title>Node17</title>
<g id="a_node17"><a xlink:href="classKadath_1_1Space__polar__periodic.html" target="_top" xlink:title=" ">
<polygon fill="none" stroke="black" points="300,-225 300,-255 406,-255 406,-225 300,-225"/>
<text text-anchor="start" x="308" y="-243" font-family="Helvetica,sans-Serif" font-size="10.00">Kadath::Space_polar</text>
<text text-anchor="middle" x="353" y="-232" font-family="Helvetica,sans-Serif" font-size="10.00">_periodic</text>
</a>
</g>
</g>
<!-- Node1&#45;&gt;Node17 -->
<g id="edge16" class="edge">
<title>Node1&#45;&gt;Node17</title>
<path fill="none" stroke="midnightblue" d="M208.2,-417.03C214.96,-381.27 234.05,-306.11 280,-264 285.73,-258.75 292.65,-254.64 299.89,-251.43"/>
<polygon fill="midnightblue" stroke="midnightblue" points="204.7,-416.71 206.42,-427.17 211.6,-417.93 204.7,-416.71"/>
</g>
<!-- Node18 -->
<g id="node18" class="node">
<title>Node18</title>
<g id="a_node18"><a xlink:href="classKadath_1_1Space__spheric.html" target="_top" xlink:title=" ">
<polygon fill="none" stroke="black" points="295,-186.5 295,-205.5 411,-205.5 411,-186.5 295,-186.5"/>
<text text-anchor="middle" x="353" y="-193.5" font-family="Helvetica,sans-Serif" font-size="10.00">Kadath::Space_spheric</text>
</a>
</g>
</g>
<!-- Node1&#45;&gt;Node18 -->
<g id="edge17" class="edge">
<title>Node1&#45;&gt;Node18</title>
<path fill="none" stroke="midnightblue" d="M205.69,-417.23C208.31,-373.97 220.79,-270.33 280,-215 284.35,-210.94 289.45,-207.73 294.91,-205.18"/>
<polygon fill="midnightblue" stroke="midnightblue" points="202.19,-417.15 205.2,-427.31 209.19,-417.49 202.19,-417.15"/>
</g>
<!-- Node19 -->
<g id="node19" class="node">
<title>Node19</title>
<g id="a_node19"><a xlink:href="classKadath_1_1Space__spheric__adapted.html" target="_top" xlink:title=" ">
<polygon fill="none" stroke="black" points="295,-137 295,-167 411,-167 411,-137 295,-137"/>
<text text-anchor="start" x="303" y="-155" font-family="Helvetica,sans-Serif" font-size="10.00">Kadath::Space_spheric</text>
<text text-anchor="middle" x="353" y="-144" font-family="Helvetica,sans-Serif" font-size="10.00">_adapted</text>
</a>
</g>
</g>
<!-- Node1&#45;&gt;Node19 -->
<g id="edge18" class="edge">
<title>Node1&#45;&gt;Node19</title>
<path fill="none" stroke="midnightblue" d="M204.87,-417.25C205.65,-369.44 214.31,-246.29 280,-177 284.28,-172.49 289.41,-168.79 294.94,-165.76"/>
<polygon fill="midnightblue" stroke="midnightblue" points="201.37,-417.45 204.81,-427.47 208.37,-417.49 201.37,-417.45"/>
</g>
<!-- Node20 -->
<g id="node20" class="node">
<title>Node20</title>
<g id="a_node20"><a xlink:href="classKadath_1_1Space__spheric__periodic.html" target="_top" xlink:title=" ">
<polygon fill="none" stroke="black" points="295,-88 295,-118 411,-118 411,-88 295,-88"/>
<text text-anchor="start" x="303" y="-106" font-family="Helvetica,sans-Serif" font-size="10.00">Kadath::Space_spheric</text>
<text text-anchor="middle" x="353" y="-95" font-family="Helvetica,sans-Serif" font-size="10.00">_periodic</text>
</a>
</g>
</g>
<!-- Node1&#45;&gt;Node20 -->
<g id="edge19" class="edge">
<title>Node1&#45;&gt;Node20</title>
<path fill="none" stroke="midnightblue" d="M207.28,-417.19C214.73,-355.82 240.14,-170.38 280,-127 284.19,-122.44 289.27,-118.75 294.77,-115.75"/>
<polygon fill="midnightblue" stroke="midnightblue" points="203.77,-417.1 206.07,-427.44 210.72,-417.92 203.77,-417.1"/>
</g>
<!-- Node21 -->
<g id="node21" class="node">
<title>Node21</title>
<g id="a_node21"><a xlink:href="classKadath_1_1Space__spheric__symphi.html" target="_top" xlink:title=" ">
<polygon fill="none" stroke="black" points="295,-39 295,-69 411,-69 411,-39 295,-39"/>
<text text-anchor="start" x="303" y="-57" font-family="Helvetica,sans-Serif" font-size="10.00">Kadath::Space_spheric</text>
<text text-anchor="middle" x="353" y="-46" font-family="Helvetica,sans-Serif" font-size="10.00">_symphi</text>
</a>
</g>
</g>
<!-- Node1&#45;&gt;Node21 -->
<g id="edge20" class="edge">
<title>Node1&#45;&gt;Node21</title>
<path fill="none" stroke="midnightblue" d="M206.57,-417.21C212.32,-349.63 234.27,-129.36 280,-78 284.21,-73.28 289.37,-69.48 294.97,-66.43"/>
<polygon fill="midnightblue" stroke="midnightblue" points="203.07,-417.09 205.74,-427.34 210.05,-417.66 203.07,-417.09"/>
</g>
<!-- Node22 -->
<g id="node22" class="node">
<title>Node22</title>
<g id="a_node22"><a xlink:href="classKadath_1_1Space__spheric__time.html" target="_top" xlink:title=" ">
<polygon fill="none" stroke="black" points="283,-0.5 283,-19.5 423,-19.5 423,-0.5 283,-0.5"/>
<text text-anchor="middle" x="353" y="-7.5" font-family="Helvetica,sans-Serif" font-size="10.00">Kadath::Space_spheric_time</text>
</a>
</g>
</g>
<!-- Node1&#45;&gt;Node22 -->
<g id="edge21" class="edge">
<title>Node1&#45;&gt;Node22</title>
<path fill="none" stroke="midnightblue" d="M205.9,-417.31C209.65,-343.82 226.45,-86.79 280,-29 283.51,-25.21 287.69,-22.14 292.23,-19.65"/>
<polygon fill="midnightblue" stroke="midnightblue" points="202.39,-417.32 205.4,-427.47 209.39,-417.66 202.39,-417.32"/>
</g>
<!-- Node2 -->
<g id="node2" class="node">
<title>Node2</title>
<g id="a_node2"><a xlink:href="structKadath_1_1MemoryMappable.html" target="_top" xlink:title=" ">
<polygon fill="none" stroke="black" points="0,-427.5 0,-446.5 128,-446.5 128,-427.5 0,-427.5"/>
<text text-anchor="middle" x="64" y="-434.5" font-family="Helvetica,sans-Serif" font-size="10.00">Kadath::MemoryMappable</text>
</a>
</g>
</g>
<!-- Node2&#45;&gt;Node1 -->
<g id="edge1" class="edge">
<title>Node2&#45;&gt;Node1</title>
<path fill="none" stroke="midnightblue" d="M138.53,-437C147.2,-437 155.77,-437 163.69,-437"/>
<polygon fill="midnightblue" stroke="midnightblue" points="138.35,-433.5 128.35,-437 138.35,-440.5 138.35,-433.5"/>
</g>
</g>
</svg>
