<?xml version="1.0" encoding="UTF-8" standalone="no"?>
<!DOCTYPE svg PUBLIC "-//W3C//DTD SVG 1.1//EN"
 "http://www.w3.org/Graphics/SVG/1.1/DTD/svg11.dtd">
<!-- Generated by graphviz version 2.47.1 (20210515.0534)
 -->
<!-- Title: Kadath::Metric_harmonic Pages: 1 -->
<svg width="2118pt" height="850pt"
 viewBox="0.00 0.00 2118.00 850.40" xmlns="http://www.w3.org/2000/svg" xmlns:xlink="http://www.w3.org/1999/xlink">
<g id="graph0" class="graph" transform="scale(1 1) rotate(0) translate(4 846.4)">
<title>Kadath::Metric_harmonic</title>
<!-- Node1 -->
<g id="node1" class="node">
<title>Node1</title>
<g id="a_node1"><a xlink:title=" ">
<polygon fill="#bfbfbf" stroke="black" points="1986,-201.9 1986,-220.9 2110,-220.9 2110,-201.9 1986,-201.9"/>
<text text-anchor="middle" x="2048" y="-208.9" font-family="Helvetica,sans-Serif" font-size="10.00">Kadath::Metric_harmonic</text>
</a>
</g>
</g>
<!-- Node2 -->
<g id="node2" class="node">
<title>Node2</title>
<g id="a_node2"><a xlink:href="classKadath_1_1Metric__general.html" target="_top" xlink:title=" ">
<polygon fill="none" stroke="black" points="1809,-201.9 1809,-220.9 1925,-220.9 1925,-201.9 1809,-201.9"/>
<text text-anchor="middle" x="1867" y="-208.9" font-family="Helvetica,sans-Serif" font-size="10.00">Kadath::Metric_general</text>
</a>
</g>
</g>
<!-- Node2&#45;&gt;Node1 -->
<g id="edge1" class="edge">
<title>Node2&#45;&gt;Node1</title>
<path fill="none" stroke="midnightblue" d="M1935.28,-211.4C1951.85,-211.4 1969.51,-211.4 1985.78,-211.4"/>
<polygon fill="midnightblue" stroke="midnightblue" points="1935.13,-207.9 1925.13,-211.4 1935.13,-214.9 1935.13,-207.9"/>
</g>
<!-- Node3 -->
<g id="node3" class="node">
<title>Node3</title>
<g id="a_node3"><a xlink:href="classKadath_1_1Metric.html" target="_top" xlink:title=" ">
<polygon fill="none" stroke="black" points="1487,-233.9 1487,-252.9 1566,-252.9 1566,-233.9 1487,-233.9"/>
<text text-anchor="middle" x="1526.5" y="-240.9" font-family="Helvetica,sans-Serif" font-size="10.00">Kadath::Metric</text>
</a>
</g>
</g>
<!-- Node3&#45;&gt;Node2 -->
<g id="edge2" class="edge">
<title>Node3&#45;&gt;Node2</title>
<path fill="none" stroke="midnightblue" d="M1576.23,-238.8C1637.82,-232.97 1743.65,-222.97 1808.95,-216.8"/>
<polygon fill="midnightblue" stroke="midnightblue" points="1575.63,-235.34 1566,-239.76 1576.29,-242.31 1575.63,-235.34"/>
</g>
<!-- Node12 -->
<g id="node12" class="node">
<title>Node12</title>
<g id="a_node12"><a xlink:href="classKadath_1_1System__of__eqs.html" target="_top" xlink:title=" ">
<polygon fill="none" stroke="black" points="1632,-460.9 1632,-479.9 1751,-479.9 1751,-460.9 1632,-460.9"/>
<text text-anchor="middle" x="1691.5" y="-467.9" font-family="Helvetica,sans-Serif" font-size="10.00">Kadath::System_of_eqs</text>
</a>
</g>
</g>
<!-- Node3&#45;&gt;Node12 -->
<g id="edge56" class="edge">
<title>Node3&#45;&gt;Node12</title>
<path fill="none" stroke="#9a32cd" stroke-dasharray="5,2" d="M1554.38,-258.56C1558.43,-261.29 1562.44,-264.28 1566,-267.4 1575.49,-275.75 1574.93,-280.61 1584,-289.4 1596.07,-301.09 1603.39,-299.38 1614,-312.4 1653.86,-361.31 1679.27,-434.43 1687.55,-460.63"/>
<polygon fill="#9a32cd" stroke="#9a32cd" points="1555.92,-255.39 1545.59,-253.02 1552.18,-261.31 1555.92,-255.39"/>
<text text-anchor="middle" x="1599" y="-315.4" font-family="Helvetica,sans-Serif" font-size="10.00"> met</text>
</g>
<!-- Node25 -->
<g id="node25" class="node">
<title>Node25</title>
<g id="a_node25"><a xlink:href="classKadath_1_1Metric__flat.html" target="_top" xlink:title=" ">
<polygon fill="none" stroke="black" points="1643,-149.9 1643,-168.9 1740,-168.9 1740,-149.9 1643,-149.9"/>
<text text-anchor="middle" x="1691.5" y="-156.9" font-family="Helvetica,sans-Serif" font-size="10.00">Kadath::Metric_flat</text>
</a>
</g>
</g>
<!-- Node3&#45;&gt;Node25 -->
<g id="edge66" class="edge">
<title>Node3&#45;&gt;Node25</title>
<path fill="none" stroke="midnightblue" d="M1551.26,-228.56C1572.13,-215.81 1603.52,-197.35 1632,-183.4 1642.65,-178.19 1654.72,-173.1 1665.13,-168.97"/>
<polygon fill="midnightblue" stroke="midnightblue" points="1549.42,-225.58 1542.73,-233.81 1553.08,-231.55 1549.42,-225.58"/>
</g>
<!-- Node4 -->
<g id="node4" class="node">
<title>Node4</title>
<g id="a_node4"><a xlink:href="structKadath_1_1MemoryMappable.html" target="_top" xlink:title=" ">
<polygon fill="none" stroke="black" points="0,-462.9 0,-481.9 128,-481.9 128,-462.9 0,-462.9"/>
<text text-anchor="middle" x="64" y="-469.9" font-family="Helvetica,sans-Serif" font-size="10.00">Kadath::MemoryMappable</text>
</a>
</g>
</g>
<!-- Node4&#45;&gt;Node3 -->
<g id="edge3" class="edge">
<title>Node4&#45;&gt;Node3</title>
<path fill="none" stroke="midnightblue" d="M67.79,-452.76C75.55,-401.34 99.88,-259.16 146,-149.4 163.41,-107.96 178.54,-84.4 223.5,-84.4 223.5,-84.4 223.5,-84.4 908.5,-84.4 938.61,-84.4 1363.89,-199.44 1490.31,-233.82"/>
<polygon fill="midnightblue" stroke="midnightblue" points="64.3,-452.42 66.31,-462.82 71.23,-453.43 64.3,-452.42"/>
</g>
<!-- Node5 -->
<g id="node5" class="node">
<title>Node5</title>
<g id="a_node5"><a xlink:href="classKadath_1_1Space.html" target="_top" xlink:title=" ">
<polygon fill="none" stroke="black" points="674.5,-414.9 674.5,-433.9 754.5,-433.9 754.5,-414.9 674.5,-414.9"/>
<text text-anchor="middle" x="714.5" y="-421.9" font-family="Helvetica,sans-Serif" font-size="10.00">Kadath::Space</text>
</a>
</g>
</g>
<!-- Node4&#45;&gt;Node5 -->
<g id="edge5" class="edge">
<title>Node4&#45;&gt;Node5</title>
<path fill="none" stroke="midnightblue" d="M138.3,-465.69C147.29,-464.9 156.35,-464.12 165,-463.4 355.75,-447.51 584.16,-432.59 674.23,-426.87"/>
<polygon fill="midnightblue" stroke="midnightblue" points="137.86,-462.22 128.2,-466.59 138.47,-469.19 137.86,-462.22"/>
</g>
<!-- Node6 -->
<g id="node6" class="node">
<title>Node6</title>
<g id="a_node6"><a xlink:href="classKadath_1_1Domain.html" target="_top" xlink:title=" ">
<polygon fill="none" stroke="black" points="414.5,-588.9 414.5,-607.9 499.5,-607.9 499.5,-588.9 414.5,-588.9"/>
<text text-anchor="middle" x="457" y="-595.9" font-family="Helvetica,sans-Serif" font-size="10.00">Kadath::Domain</text>
</a>
</g>
</g>
<!-- Node4&#45;&gt;Node6 -->
<g id="edge7" class="edge">
<title>Node4&#45;&gt;Node6</title>
<path fill="none" stroke="midnightblue" d="M84.57,-488.26C103.93,-503.2 134.93,-525.22 165,-538.4 248.85,-575.18 356.32,-589.8 414.35,-595.31"/>
<polygon fill="midnightblue" stroke="midnightblue" points="86.57,-485.38 76.55,-481.95 82.24,-490.88 86.57,-485.38"/>
</g>
<!-- Node7 -->
<g id="node7" class="node">
<title>Node7</title>
<g id="a_node7"><a xlink:href="classKadath_1_1Dim__array.html" target="_top" xlink:title=" ">
<polygon fill="none" stroke="black" points="177,-614.9 177,-633.9 272,-633.9 272,-614.9 177,-614.9"/>
<text text-anchor="middle" x="224.5" y="-621.9" font-family="Helvetica,sans-Serif" font-size="10.00">Kadath::Dim_array</text>
</a>
</g>
</g>
<!-- Node4&#45;&gt;Node7 -->
<g id="edge9" class="edge">
<title>Node4&#45;&gt;Node7</title>
<path fill="none" stroke="midnightblue" d="M72.07,-491.52C83.39,-519.52 108.23,-571.48 146,-600.4 154.95,-607.25 165.87,-612.17 176.66,-615.68"/>
<polygon fill="midnightblue" stroke="midnightblue" points="75.28,-490.12 68.4,-482.06 68.76,-492.65 75.28,-490.12"/>
</g>
<!-- Node8 -->
<g id="node8" class="node">
<title>Node8</title>
<g id="a_node8"><a xlink:href="classKadath_1_1Array.html" target="_top" xlink:title=" ">
<polygon fill="none" stroke="black" points="165,-509.9 165,-528.9 284,-528.9 284,-509.9 165,-509.9"/>
<text text-anchor="middle" x="224.5" y="-516.9" font-family="Helvetica,sans-Serif" font-size="10.00">Kadath::Array&lt; double &gt;</text>
</a>
</g>
</g>
<!-- Node4&#45;&gt;Node8 -->
<g id="edge11" class="edge">
<title>Node4&#45;&gt;Node8</title>
<path fill="none" stroke="midnightblue" d="M106.81,-484.8C133.22,-492.63 166.84,-502.6 191.2,-509.83"/>
<polygon fill="midnightblue" stroke="midnightblue" points="107.66,-481.4 97.07,-481.91 105.67,-488.11 107.66,-481.4"/>
</g>
<!-- Node9 -->
<g id="node9" class="node">
<title>Node9</title>
<g id="a_node9"><a xlink:href="classKadath_1_1Val__domain.html" target="_top" xlink:title=" ">
<polygon fill="none" stroke="black" points="663,-557.9 663,-576.9 766,-576.9 766,-557.9 663,-557.9"/>
<text text-anchor="middle" x="714.5" y="-564.9" font-family="Helvetica,sans-Serif" font-size="10.00">Kadath::Val_domain</text>
</a>
</g>
</g>
<!-- Node4&#45;&gt;Node9 -->
<g id="edge13" class="edge">
<title>Node4&#45;&gt;Node9</title>
<path fill="none" stroke="midnightblue" d="M70.48,-491.92C81.72,-528.1 110.98,-605.36 165,-643.4 216.21,-679.47 239.81,-669.02 302,-676.4 400.91,-688.15 619.72,-673.13 645,-659.4 679.3,-640.77 701.23,-596.74 709.63,-577.12"/>
<polygon fill="midnightblue" stroke="midnightblue" points="73.77,-490.69 67.56,-482.1 67.06,-492.68 73.77,-490.69"/>
</g>
<!-- Node10 -->
<g id="node10" class="node">
<title>Node10</title>
<g id="a_node10"><a xlink:href="classKadath_1_1Base__spectral.html" target="_top" xlink:title=" ">
<polygon fill="none" stroke="black" points="400,-454.9 400,-473.9 514,-473.9 514,-454.9 400,-454.9"/>
<text text-anchor="middle" x="457" y="-461.9" font-family="Helvetica,sans-Serif" font-size="10.00">Kadath::Base_spectral</text>
</a>
</g>
</g>
<!-- Node4&#45;&gt;Node10 -->
<g id="edge17" class="edge">
<title>Node4&#45;&gt;Node10</title>
<path fill="none" stroke="midnightblue" d="M138.68,-470.9C214.54,-469.34 331.08,-466.96 399.81,-465.55"/>
<polygon fill="midnightblue" stroke="midnightblue" points="138.18,-467.41 128.26,-471.11 138.33,-474.4 138.18,-467.41"/>
</g>
<!-- Node11 -->
<g id="node11" class="node">
<title>Node11</title>
<g id="a_node11"><a xlink:href="classKadath_1_1Array.html" target="_top" xlink:title=" ">
<polygon fill="none" stroke="black" points="174,-353.9 174,-372.9 275,-372.9 275,-353.9 174,-353.9"/>
<text text-anchor="middle" x="224.5" y="-360.9" font-family="Helvetica,sans-Serif" font-size="10.00">Kadath::Array&lt; int &gt;</text>
</a>
</g>
</g>
<!-- Node4&#45;&gt;Node11 -->
<g id="edge19" class="edge">
<title>Node4&#45;&gt;Node11</title>
<path fill="none" stroke="midnightblue" d="M87.64,-456.84C120.8,-434.03 181.66,-392.18 209.24,-373.21"/>
<polygon fill="midnightblue" stroke="midnightblue" points="85.32,-454.18 79.07,-462.73 89.29,-459.95 85.32,-454.18"/>
</g>
<!-- Node13 -->
<g id="node13" class="node">
<title>Node13</title>
<g id="a_node13"><a xlink:href="classKadath_1_1Equation.html" target="_top" xlink:title=" ">
<polygon fill="none" stroke="black" points="2003.5,-695.9 2003.5,-714.9 2092.5,-714.9 2092.5,-695.9 2003.5,-695.9"/>
<text text-anchor="middle" x="2048" y="-702.9" font-family="Helvetica,sans-Serif" font-size="10.00">Kadath::Equation</text>
</a>
</g>
</g>
<!-- Node4&#45;&gt;Node13 -->
<g id="edge23" class="edge">
<title>Node4&#45;&gt;Node13</title>
<path fill="none" stroke="midnightblue" d="M64.4,-492.09C63.19,-568.66 69.62,-842.4 223.5,-842.4 223.5,-842.4 223.5,-842.4 1868,-842.4 1951.75,-842.4 2020.56,-746.67 2040.89,-715.26"/>
<polygon fill="midnightblue" stroke="midnightblue" points="67.91,-492 64.63,-481.92 60.91,-491.84 67.91,-492"/>
</g>
<!-- Node14 -->
<g id="node14" class="node">
<title>Node14</title>
<g id="a_node14"><a xlink:href="classKadath_1_1Ope__eq.html" target="_top" xlink:title=" ">
<polygon fill="none" stroke="black" points="1824,-583.9 1824,-602.9 1910,-602.9 1910,-583.9 1824,-583.9"/>
<text text-anchor="middle" x="1867" y="-590.9" font-family="Helvetica,sans-Serif" font-size="10.00">Kadath::Ope_eq</text>
</a>
</g>
</g>
<!-- Node4&#45;&gt;Node14 -->
<g id="edge26" class="edge">
<title>Node4&#45;&gt;Node14</title>
<path fill="none" stroke="midnightblue" d="M65.24,-492.3C67.25,-563.94 84.34,-804.4 223.5,-804.4 223.5,-804.4 223.5,-804.4 1118,-804.4 1418.89,-804.4 1763.16,-644.3 1846.92,-603.02"/>
<polygon fill="midnightblue" stroke="midnightblue" points="68.73,-491.91 65.03,-481.98 61.73,-492.05 68.73,-491.91"/>
</g>
<!-- Node15 -->
<g id="node15" class="node">
<title>Node15</title>
<g id="a_node15"><a xlink:href="classKadath_1_1Eq__int.html" target="_top" xlink:title=" ">
<polygon fill="none" stroke="black" points="2008.5,-409.9 2008.5,-428.9 2087.5,-428.9 2087.5,-409.9 2008.5,-409.9"/>
<text text-anchor="middle" x="2048" y="-416.9" font-family="Helvetica,sans-Serif" font-size="10.00">Kadath::Eq_int</text>
</a>
</g>
</g>
<!-- Node4&#45;&gt;Node15 -->
<g id="edge31" class="edge">
<title>Node4&#45;&gt;Node15</title>
<path fill="none" stroke="midnightblue" d="M64.71,-452.31C64.84,-390.1 73.06,-197.81 165,-80.4 183.54,-56.73 193.43,-46.4 223.5,-46.4 223.5,-46.4 223.5,-46.4 1868,-46.4 1909.57,-46.4 2022.33,-351.43 2043.54,-409.81"/>
<polygon fill="midnightblue" stroke="midnightblue" points="61.21,-452.68 64.77,-462.66 68.21,-452.64 61.21,-452.68"/>
</g>
<!-- Node16 -->
<g id="node16" class="node">
<title>Node16</title>
<g id="a_node16"><a xlink:href="classKadath_1_1Index.html" target="_top" xlink:title=" ">
<polygon fill="none" stroke="black" points="419.5,-718.9 419.5,-737.9 494.5,-737.9 494.5,-718.9 419.5,-718.9"/>
<text text-anchor="middle" x="457" y="-725.9" font-family="Helvetica,sans-Serif" font-size="10.00">Kadath::Index</text>
</a>
</g>
</g>
<!-- Node4&#45;&gt;Node16 -->
<g id="edge35" class="edge">
<title>Node4&#45;&gt;Node16</title>
<path fill="none" stroke="midnightblue" d="M65.18,-492.07C66.77,-537.9 77.75,-651.86 146,-704.4 187.81,-736.59 346.55,-733.61 419.25,-730.41"/>
<polygon fill="midnightblue" stroke="midnightblue" points="68.68,-491.89 64.95,-481.97 61.68,-492.05 68.68,-491.89"/>
</g>
<!-- Node17 -->
<g id="node17" class="node">
<title>Node17</title>
<g id="a_node17"><a xlink:href="classKadath_1_1Param.html" target="_top" xlink:title=" ">
<polygon fill="none" stroke="black" points="302,-756.9 302,-775.9 382,-775.9 382,-756.9 302,-756.9"/>
<text text-anchor="middle" x="342" y="-763.9" font-family="Helvetica,sans-Serif" font-size="10.00">Kadath::Param</text>
</a>
</g>
</g>
<!-- Node4&#45;&gt;Node17 -->
<g id="edge39" class="edge">
<title>Node4&#45;&gt;Node17</title>
<path fill="none" stroke="midnightblue" d="M64.24,-492.21C63.48,-542.84 69.14,-677.55 146,-742.4 189.27,-778.92 258.42,-778.17 301.69,-773.13"/>
<polygon fill="midnightblue" stroke="midnightblue" points="67.74,-492.07 64.5,-481.98 60.75,-491.89 67.74,-492.07"/>
</g>
<!-- Node18 -->
<g id="node18" class="node">
<title>Node18</title>
<g id="a_node18"><a xlink:href="classKadath_1_1Term__eq.html" target="_top" xlink:title=" ">
<polygon fill="none" stroke="black" points="1250,-229.9 1250,-248.9 1340,-248.9 1340,-229.9 1250,-229.9"/>
<text text-anchor="middle" x="1295" y="-236.9" font-family="Helvetica,sans-Serif" font-size="10.00">Kadath::Term_eq</text>
</a>
</g>
</g>
<!-- Node4&#45;&gt;Node18 -->
<g id="edge42" class="edge">
<title>Node4&#45;&gt;Node18</title>
<path fill="none" stroke="midnightblue" d="M64.82,-452.37C65.3,-378.06 77.55,-122.4 223.5,-122.4 223.5,-122.4 223.5,-122.4 811,-122.4 922.75,-122.4 965.71,-106.4 1058,-169.4 1069.61,-177.33 1064.26,-187.68 1076,-195.4 1128.73,-230.12 1203.03,-238.44 1249.84,-239.92"/>
<polygon fill="midnightblue" stroke="midnightblue" points="61.32,-452.68 64.83,-462.68 68.32,-452.68 61.32,-452.68"/>
</g>
<!-- Node19 -->
<g id="node19" class="node">
<title>Node19</title>
<g id="a_node19"><a xlink:href="classKadath_1_1Tensor.html" target="_top" xlink:title=" ">
<polygon fill="none" stroke="black" points="1076,-287.9 1076,-306.9 1158,-306.9 1158,-287.9 1076,-287.9"/>
<text text-anchor="middle" x="1117" y="-294.9" font-family="Helvetica,sans-Serif" font-size="10.00">Kadath::Tensor</text>
</a>
</g>
</g>
<!-- Node4&#45;&gt;Node19 -->
<g id="edge44" class="edge">
<title>Node4&#45;&gt;Node19</title>
<path fill="none" stroke="midnightblue" d="M65.76,-452.39C69.55,-383.5 91.98,-160.4 223.5,-160.4 223.5,-160.4 223.5,-160.4 908.5,-160.4 981.31,-160.4 1000.04,-183.33 1058,-227.4 1080.86,-244.79 1100.53,-272.83 1109.99,-287.6"/>
<polygon fill="midnightblue" stroke="midnightblue" points="62.25,-452.57 65.27,-462.72 69.24,-452.9 62.25,-452.57"/>
</g>
<!-- Node21 -->
<g id="node21" class="node">
<title>Node21</title>
<g id="a_node21"><a xlink:href="classKadath_1_1Base__tensor.html" target="_top" xlink:title=" ">
<polygon fill="none" stroke="black" points="854,-237.9 854,-256.9 961,-256.9 961,-237.9 854,-237.9"/>
<text text-anchor="middle" x="907.5" y="-244.9" font-family="Helvetica,sans-Serif" font-size="10.00">Kadath::Base_tensor</text>
</a>
</g>
</g>
<!-- Node4&#45;&gt;Node21 -->
<g id="edge51" class="edge">
<title>Node4&#45;&gt;Node21</title>
<path fill="none" stroke="midnightblue" d="M65.45,-452.2C67.69,-373.24 80.28,-87.13 146,-32.4 292.19,89.33 348.35,-167.77 532,-217.4 643.77,-247.61 780.58,-250.35 853.98,-249.19"/>
<polygon fill="midnightblue" stroke="midnightblue" points="61.94,-452.58 65.19,-462.67 68.94,-452.76 61.94,-452.58"/>
</g>
<!-- Node22 -->
<g id="node22" class="node">
<title>Node22</title>
<g id="a_node22"><a xlink:href="classKadath_1_1Param__tensor.html" target="_top" xlink:title=" ">
<polygon fill="none" stroke="black" points="532,-188.9 532,-207.9 645,-207.9 645,-188.9 532,-188.9"/>
<text text-anchor="middle" x="588.5" y="-195.9" font-family="Helvetica,sans-Serif" font-size="10.00">Kadath::Param_tensor</text>
</a>
</g>
</g>
<!-- Node4&#45;&gt;Node22 -->
<g id="edge55" class="edge">
<title>Node4&#45;&gt;Node22</title>
<path fill="none" stroke="midnightblue" d="M76.22,-454.15C93.11,-427.7 127.15,-378.19 165,-344.4 218.28,-296.84 235.72,-287.02 302,-260.4 378.6,-229.64 473.19,-212.93 531.94,-204.84"/>
<polygon fill="midnightblue" stroke="midnightblue" points="73.16,-452.45 70.8,-462.78 79.08,-456.18 73.16,-452.45"/>
</g>
<!-- Node5&#45;&gt;Node3 -->
<g id="edge4" class="edge">
<title>Node5&#45;&gt;Node3</title>
<path fill="none" stroke="#9a32cd" stroke-dasharray="5,2" d="M764.85,-423.77C831.52,-422.53 954,-418.92 1058,-408.4 1184.21,-395.65 1216.03,-391.28 1340,-364.4 1398.17,-351.79 1420.84,-363.38 1469,-328.4 1496.53,-308.41 1514.54,-270.59 1521.83,-252.94"/>
<polygon fill="#9a32cd" stroke="#9a32cd" points="764.58,-420.27 754.64,-423.95 764.7,-427.27 764.58,-420.27"/>
<text text-anchor="middle" x="1117" y="-409.4" font-family="Helvetica,sans-Serif" font-size="10.00"> espace</text>
</g>
<!-- Node5&#45;&gt;Node12 -->
<g id="edge33" class="edge">
<title>Node5&#45;&gt;Node12</title>
<path fill="none" stroke="#9a32cd" stroke-dasharray="5,2" d="M764.65,-433.37C771.15,-434.45 777.73,-435.49 784,-436.4 1149.69,-489.38 1246.01,-517.8 1614,-484.4 1624.49,-483.45 1635.69,-481.78 1646.19,-479.92"/>
<polygon fill="#9a32cd" stroke="#9a32cd" points="765,-429.88 754.56,-431.66 763.83,-436.78 765,-429.88"/>
<text text-anchor="middle" x="1204" y="-497.4" font-family="Helvetica,sans-Serif" font-size="10.00"> espace</text>
</g>
<!-- Node5&#45;&gt;Node19 -->
<g id="edge45" class="edge">
<title>Node5&#45;&gt;Node19</title>
<path fill="none" stroke="#9a32cd" stroke-dasharray="5,2" d="M755.32,-411.78C835.43,-386.37 1014.48,-329.6 1085.82,-306.97"/>
<polygon fill="#9a32cd" stroke="#9a32cd" points="754.08,-408.5 745.6,-414.86 756.19,-415.17 754.08,-408.5"/>
<text text-anchor="middle" x="907.5" y="-382.4" font-family="Helvetica,sans-Serif" font-size="10.00"> espace</text>
</g>
<!-- Node5&#45;&gt;Node21 -->
<g id="edge52" class="edge">
<title>Node5&#45;&gt;Node21</title>
<path fill="none" stroke="#9a32cd" stroke-dasharray="5,2" d="M726.62,-406.38C739.1,-387.01 760.67,-355.97 784,-333.4 817.62,-300.88 864.52,-271.58 889.41,-257.04"/>
<polygon fill="#9a32cd" stroke="#9a32cd" points="723.64,-404.54 721.26,-414.86 729.56,-408.28 723.64,-404.54"/>
<text text-anchor="middle" x="810" y="-336.4" font-family="Helvetica,sans-Serif" font-size="10.00"> space</text>
</g>
<!-- Node6&#45;&gt;Node5 -->
<g id="edge6" class="edge">
<title>Node6&#45;&gt;Node5</title>
<path fill="none" stroke="#9a32cd" stroke-dasharray="5,2" d="M493.39,-584.87C500.38,-581.75 507.55,-578.21 514,-574.4 522.73,-569.25 523.28,-565.57 532,-560.4 579.09,-532.49 601.64,-544.81 645,-511.4 674.09,-488.99 697.9,-451.59 708.12,-434.05"/>
<polygon fill="#9a32cd" stroke="#9a32cd" points="491.86,-581.72 484.04,-588.86 494.61,-588.15 491.86,-581.72"/>
<text text-anchor="middle" x="588.5" y="-563.4" font-family="Helvetica,sans-Serif" font-size="10.00"> domains</text>
</g>
<!-- Node6&#45;&gt;Node9 -->
<g id="edge20" class="edge">
<title>Node6&#45;&gt;Node9</title>
<path fill="none" stroke="#9a32cd" stroke-dasharray="5,2" d="M482.1,-613.14C496.11,-620.84 514.42,-629.46 532,-633.4 581,-644.41 598.42,-652.19 645,-633.4 673.49,-621.91 696.74,-592.28 707.33,-576.93"/>
<polygon fill="#9a32cd" stroke="#9a32cd" points="483.57,-609.95 473.15,-608.03 480.1,-616.03 483.57,-609.95"/>
<text text-anchor="middle" x="588.5" y="-647.4" font-family="Helvetica,sans-Serif" font-size="10.00"> zone</text>
</g>
<!-- Node6&#45;&gt;Node13 -->
<g id="edge29" class="edge">
<title>Node6&#45;&gt;Node13</title>
<path fill="none" stroke="#9a32cd" stroke-dasharray="5,2" d="M473.62,-615.92C487.45,-630.19 508.97,-649.53 532,-659.4 606.68,-691.42 632.24,-681.4 713.5,-681.4 713.5,-681.4 713.5,-681.4 1019.5,-681.4 1279.57,-681.4 1337.93,-769.4 1598,-769.4 1598,-769.4 1598,-769.4 1868,-769.4 1931.7,-769.4 2001.09,-733.03 2031.39,-715.12"/>
<polygon fill="#9a32cd" stroke="#9a32cd" points="475.8,-613.13 466.41,-608.22 470.69,-617.91 475.8,-613.13"/>
<text text-anchor="middle" x="1295" y="-736.4" font-family="Helvetica,sans-Serif" font-size="10.00"> dom</text>
</g>
<!-- Node7&#45;&gt;Node6 -->
<g id="edge8" class="edge">
<title>Node7&#45;&gt;Node6</title>
<path fill="none" stroke="#9a32cd" stroke-dasharray="5,2" d="M282.24,-618C323.18,-613.39 377.52,-607.26 414.45,-603.09"/>
<polygon fill="#9a32cd" stroke="#9a32cd" points="281.69,-614.54 272.15,-619.14 282.47,-621.5 281.69,-614.54"/>
<text text-anchor="middle" x="342" y="-628.4" font-family="Helvetica,sans-Serif" font-size="10.00"> nbr_coefs</text>
<text text-anchor="middle" x="342" y="-617.4" font-family="Helvetica,sans-Serif" font-size="10.00">nbr_points</text>
</g>
<!-- Node7&#45;&gt;Node16 -->
<g id="edge36" class="edge">
<title>Node7&#45;&gt;Node16</title>
<path fill="none" stroke="#9a32cd" stroke-dasharray="5,2" d="M255.93,-638.13C303.37,-659.54 393.74,-700.31 434.78,-718.83"/>
<polygon fill="#9a32cd" stroke="#9a32cd" points="257.33,-634.92 246.77,-634 254.45,-641.3 257.33,-634.92"/>
<text text-anchor="middle" x="342" y="-697.4" font-family="Helvetica,sans-Serif" font-size="10.00"> sizes</text>
</g>
<!-- Node8&#45;&gt;Node6 -->
<g id="edge10" class="edge">
<title>Node8&#45;&gt;Node6</title>
<path fill="none" stroke="#9a32cd" stroke-dasharray="5,2" d="M273.95,-531.47C316.15,-542.13 372.09,-556.69 382,-561.4 390.91,-565.64 391.41,-569.54 400,-574.4 409.57,-579.82 420.61,-584.8 430.34,-588.8"/>
<polygon fill="#9a32cd" stroke="#9a32cd" points="274.65,-528.03 264.1,-528.99 272.94,-534.82 274.65,-528.03"/>
<text text-anchor="middle" x="342" y="-564.4" font-family="Helvetica,sans-Serif" font-size="10.00"> coloc</text>
</g>
<!-- Node8&#45;&gt;Node9 -->
<g id="edge14" class="edge">
<title>Node8&#45;&gt;Node9</title>
<path fill="none" stroke="#9a32cd" stroke-dasharray="5,2" d="M294.23,-518.73C395.71,-518.29 580.54,-519.79 645,-535.4 664.14,-540.04 684.36,-550.23 697.84,-557.87"/>
<polygon fill="#9a32cd" stroke="#9a32cd" points="294.07,-515.23 284.08,-518.78 294.1,-522.23 294.07,-515.23"/>
<text text-anchor="middle" x="457" y="-535.4" font-family="Helvetica,sans-Serif" font-size="10.00"> c</text>
<text text-anchor="middle" x="457" y="-524.4" font-family="Helvetica,sans-Serif" font-size="10.00">cf</text>
</g>
<!-- Node8&#45;&gt;Node12 -->
<g id="edge40" class="edge">
<title>Node8&#45;&gt;Node12</title>
<path fill="none" stroke="#9a32cd" stroke-dasharray="5,2" d="M294.38,-516.58C296.95,-516.51 299.5,-516.45 302,-516.4 396.2,-514.56 419.78,-515.68 514,-516.4 572.23,-516.85 586.97,-513.62 645,-518.4 811.85,-532.16 850.08,-574.4 1017.5,-574.4 1017.5,-574.4 1017.5,-574.4 1527.5,-574.4 1597.32,-574.4 1661.29,-505.75 1682.82,-480"/>
<polygon fill="#9a32cd" stroke="#9a32cd" points="294.28,-513.08 284.38,-516.86 294.48,-520.07 294.28,-513.08"/>
<text text-anchor="middle" x="1018.5" y="-577.4" font-family="Helvetica,sans-Serif" font-size="10.00"> val_cst_hard</text>
</g>
<!-- Node9&#45;&gt;Node6 -->
<g id="edge12" class="edge">
<title>Node9&#45;&gt;Node6</title>
<path fill="none" stroke="#9a32cd" stroke-dasharray="5,2" d="M652.52,-574.79C617.3,-579.06 572.15,-584.53 532,-589.4 521.59,-590.67 510.36,-592.03 499.87,-593.31"/>
<polygon fill="#9a32cd" stroke="#9a32cd" points="653.14,-578.24 662.65,-573.56 652.3,-571.29 653.14,-578.24"/>
<text text-anchor="middle" x="588.5" y="-625.4" font-family="Helvetica,sans-Serif" font-size="10.00"> absol</text>
<text text-anchor="middle" x="588.5" y="-614.4" font-family="Helvetica,sans-Serif" font-size="10.00">cart</text>
<text text-anchor="middle" x="588.5" y="-603.4" font-family="Helvetica,sans-Serif" font-size="10.00">cart_surr</text>
<text text-anchor="middle" x="588.5" y="-592.4" font-family="Helvetica,sans-Serif" font-size="10.00">radius</text>
</g>
<!-- Node9&#45;&gt;Node9 -->
<g id="edge15" class="edge">
<title>Node9&#45;&gt;Node9</title>
<path fill="none" stroke="#9a32cd" stroke-dasharray="5,2" d="M697.09,-586.8C698.26,-591.72 704.06,-595.4 714.5,-595.4 731.21,-595.4 736.04,-585.97 728.99,-577.16"/>
<polygon fill="#9a32cd" stroke="#9a32cd" points="700.47,-587.75 700.01,-577.16 693.77,-585.72 700.47,-587.75"/>
<text text-anchor="middle" x="714.5" y="-609.4" font-family="Helvetica,sans-Serif" font-size="10.00"> p_der_abs</text>
<text text-anchor="middle" x="714.5" y="-598.4" font-family="Helvetica,sans-Serif" font-size="10.00">p_der_var</text>
</g>
<!-- Node20 -->
<g id="node20" class="node">
<title>Node20</title>
<g id="a_node20"><a xlink:href="classKadath_1_1Scalar.html" target="_top" xlink:title=" ">
<polygon fill="none" stroke="black" points="1255,-335.9 1255,-354.9 1335,-354.9 1335,-335.9 1255,-335.9"/>
<text text-anchor="middle" x="1295" y="-342.9" font-family="Helvetica,sans-Serif" font-size="10.00">Kadath::Scalar</text>
</a>
</g>
</g>
<!-- Node9&#45;&gt;Node20 -->
<g id="edge48" class="edge">
<title>Node9&#45;&gt;Node20</title>
<path fill="none" stroke="#9a32cd" stroke-dasharray="5,2" d="M750.38,-554.17C825.14,-525.8 1006.37,-456.9 1158,-398.4 1197.01,-383.35 1242.23,-365.69 1269.45,-355.03"/>
<polygon fill="#9a32cd" stroke="#9a32cd" points="749.07,-550.93 740.96,-557.75 751.56,-557.47 749.07,-550.93"/>
<text text-anchor="middle" x="1018.5" y="-469.4" font-family="Helvetica,sans-Serif" font-size="10.00"> val_zones</text>
</g>
<!-- Node10&#45;&gt;Node9 -->
<g id="edge16" class="edge">
<title>Node10&#45;&gt;Node9</title>
<path fill="none" stroke="#9a32cd" stroke-dasharray="5,2" d="M524.38,-465.69C561.67,-468.81 608.01,-476.84 645,-496.4 673.16,-511.3 696.56,-542.03 707.25,-557.72"/>
<polygon fill="#9a32cd" stroke="#9a32cd" points="524.35,-462.18 514.12,-464.94 523.83,-469.16 524.35,-462.18"/>
<text text-anchor="middle" x="588.5" y="-499.4" font-family="Helvetica,sans-Serif" font-size="10.00"> base</text>
</g>
<!-- Node11&#45;&gt;Node10 -->
<g id="edge18" class="edge">
<title>Node11&#45;&gt;Node10</title>
<path fill="none" stroke="#9a32cd" stroke-dasharray="5,2" d="M256.63,-377.05C304.03,-397.81 393.1,-436.84 434.2,-454.85"/>
<polygon fill="#9a32cd" stroke="#9a32cd" points="257.75,-373.71 247.18,-372.91 254.94,-380.12 257.75,-373.71"/>
<text text-anchor="middle" x="342" y="-434.4" font-family="Helvetica,sans-Serif" font-size="10.00"> bases_1d</text>
</g>
<!-- Node11&#45;&gt;Node12 -->
<g id="edge37" class="edge">
<title>Node11&#45;&gt;Node12</title>
<path fill="none" stroke="#9a32cd" stroke-dasharray="5,2" d="M285.24,-362.97C314.43,-362.97 350.06,-363.27 382,-364.4 816.96,-379.84 924.27,-408.28 1358,-444.4 1453.93,-452.39 1565.49,-460.97 1631.92,-466"/>
<polygon fill="#9a32cd" stroke="#9a32cd" points="285.2,-359.47 275.21,-362.98 285.21,-366.47 285.2,-359.47"/>
<text text-anchor="middle" x="1018.5" y="-429.4" font-family="Helvetica,sans-Serif" font-size="10.00"> assoc_var</text>
<text text-anchor="middle" x="1018.5" y="-418.4" font-family="Helvetica,sans-Serif" font-size="10.00">assoc_var_double</text>
</g>
<!-- Node11&#45;&gt;Node13 -->
<g id="edge24" class="edge">
<title>Node11&#45;&gt;Node13</title>
<path fill="none" stroke="#9a32cd" stroke-dasharray="5,2" d="M283.51,-374.88C508.53,-419.36 1324.11,-580.27 1584,-627.4 1737.8,-655.3 1920.96,-685.17 2003.21,-698.4"/>
<polygon fill="#9a32cd" stroke="#9a32cd" points="284.04,-371.42 273.55,-372.91 282.69,-378.28 284.04,-371.42"/>
<text text-anchor="middle" x="1204" y="-573.4" font-family="Helvetica,sans-Serif" font-size="10.00"> n_cond</text>
<text text-anchor="middle" x="1204" y="-562.4" font-family="Helvetica,sans-Serif" font-size="10.00">p_cmp_used</text>
</g>
<!-- Node11&#45;&gt;Node19 -->
<g id="edge49" class="edge">
<title>Node11&#45;&gt;Node19</title>
<path fill="none" stroke="#9a32cd" stroke-dasharray="5,2" d="M256.54,-350.13C270.22,-344.89 286.65,-339.41 302,-336.4 594.26,-279.11 956.25,-289.67 1075.7,-295.23"/>
<polygon fill="#9a32cd" stroke="#9a32cd" points="255.13,-346.93 247.12,-353.87 257.71,-353.43 255.13,-346.93"/>
<text text-anchor="middle" x="714.5" y="-309.4" font-family="Helvetica,sans-Serif" font-size="10.00"> give_indices</text>
<text text-anchor="middle" x="714.5" y="-298.4" font-family="Helvetica,sans-Serif" font-size="10.00">type_indice</text>
</g>
<!-- Node11&#45;&gt;Node21 -->
<g id="edge53" class="edge">
<title>Node11&#45;&gt;Node21</title>
<path fill="none" stroke="#9a32cd" stroke-dasharray="5,2" d="M248.54,-347.85C259.7,-339.88 273.03,-329.69 284,-319.4 292.96,-310.99 291.06,-304.01 302,-298.4 326.4,-285.91 711.13,-259.99 853.8,-250.76"/>
<polygon fill="#9a32cd" stroke="#9a32cd" points="246.32,-345.13 240.13,-353.73 250.33,-350.86 246.32,-345.13"/>
<text text-anchor="middle" x="588.5" y="-275.4" font-family="Helvetica,sans-Serif" font-size="10.00"> basis</text>
</g>
<!-- Node12&#45;&gt;Node3 -->
<g id="edge21" class="edge">
<title>Node12&#45;&gt;Node3</title>
<path fill="none" stroke="#9a32cd" stroke-dasharray="5,2" d="M1687.76,-450.18C1681.52,-411.72 1662.85,-327.51 1614,-278.4 1601.09,-265.42 1582.72,-257.08 1566.23,-251.82"/>
<polygon fill="#9a32cd" stroke="#9a32cd" points="1684.37,-451.19 1689.31,-460.56 1691.29,-450.15 1684.37,-451.19"/>
<text text-anchor="middle" x="1599" y="-281.4" font-family="Helvetica,sans-Serif" font-size="10.00"> syst</text>
</g>
<!-- Node12&#45;&gt;Node14 -->
<g id="edge28" class="edge">
<title>Node12&#45;&gt;Node14</title>
<path fill="none" stroke="#9a32cd" stroke-dasharray="5,2" d="M1702.03,-489.01C1714.41,-511.31 1738.16,-548.19 1769,-568.4 1785.29,-579.08 1805.89,-585.2 1823.92,-588.71"/>
<polygon fill="#9a32cd" stroke="#9a32cd" points="1704.96,-487.07 1697.15,-479.91 1698.78,-490.37 1704.96,-487.07"/>
<text text-anchor="middle" x="1780" y="-581.4" font-family="Helvetica,sans-Serif" font-size="10.00"> syst</text>
</g>
<!-- Node13&#45;&gt;Node12 -->
<g id="edge22" class="edge">
<title>Node13&#45;&gt;Node12</title>
<path fill="none" stroke="#9a32cd" stroke-dasharray="5,2" d="M2035.62,-687.19C2016.24,-657.52 1974.14,-598.54 1925,-563.4 1864.35,-520.04 1780.62,-493.04 1731.95,-479.94"/>
<polygon fill="#9a32cd" stroke="#9a32cd" points="2032.75,-689.2 2041.09,-695.73 2038.64,-685.42 2032.75,-689.2"/>
<text text-anchor="middle" x="1867" y="-566.4" font-family="Helvetica,sans-Serif" font-size="10.00"> eq</text>
</g>
<!-- Node14&#45;&gt;Node13 -->
<g id="edge25" class="edge">
<title>Node14&#45;&gt;Node13</title>
<path fill="none" stroke="#9a32cd" stroke-dasharray="5,2" d="M1892.01,-608.42C1929.43,-631.84 2000.63,-676.39 2031.78,-695.88"/>
<polygon fill="#9a32cd" stroke="#9a32cd" points="1893.6,-605.29 1883.26,-602.95 1889.88,-611.22 1893.6,-605.29"/>
<text text-anchor="middle" x="1955.5" y="-655.4" font-family="Helvetica,sans-Serif" font-size="10.00"> parts</text>
</g>
<!-- Node14&#45;&gt;Node14 -->
<g id="edge27" class="edge">
<title>Node14&#45;&gt;Node14</title>
<path fill="none" stroke="#9a32cd" stroke-dasharray="5,2" d="M1851.07,-612.8C1852.14,-617.72 1857.45,-621.4 1867,-621.4 1882.29,-621.4 1886.7,-611.97 1880.26,-603.16"/>
<polygon fill="#9a32cd" stroke="#9a32cd" points="1854.45,-613.73 1853.74,-603.16 1847.7,-611.86 1854.45,-613.73"/>
<text text-anchor="middle" x="1867" y="-624.4" font-family="Helvetica,sans-Serif" font-size="10.00"> parts</text>
</g>
<!-- Node14&#45;&gt;Node15 -->
<g id="edge32" class="edge">
<title>Node14&#45;&gt;Node15</title>
<path fill="none" stroke="#9a32cd" stroke-dasharray="5,2" d="M1912.2,-579.13C1916.89,-576.4 1921.29,-573.18 1925,-569.4 1940.09,-554.04 1933.51,-543.74 1943,-524.4 1959.6,-490.6 1958.73,-477.37 1986,-451.4 1996.13,-441.76 2009.75,-434.24 2021.54,-428.93"/>
<polygon fill="#9a32cd" stroke="#9a32cd" points="1910.3,-576.16 1902.95,-583.79 1913.45,-582.41 1910.3,-576.16"/>
<text text-anchor="middle" x="1955.5" y="-527.4" font-family="Helvetica,sans-Serif" font-size="10.00"> parts</text>
</g>
<!-- Node23 -->
<g id="node23" class="node">
<title>Node23</title>
<g id="a_node23"><a xlink:href="classKadath_1_1Ope__def.html" target="_top" xlink:title=" ">
<polygon fill="none" stroke="black" points="2003.5,-460.9 2003.5,-479.9 2092.5,-479.9 2092.5,-460.9 2003.5,-460.9"/>
<text text-anchor="middle" x="2048" y="-467.9" font-family="Helvetica,sans-Serif" font-size="10.00">Kadath::Ope_def</text>
</a>
</g>
</g>
<!-- Node14&#45;&gt;Node23 -->
<g id="edge59" class="edge">
<title>Node14&#45;&gt;Node23</title>
<path fill="none" stroke="midnightblue" d="M1904.51,-579.85C1911.49,-576.76 1918.61,-573.24 1925,-569.4 1970.62,-542.05 2017.53,-498.93 2037.29,-479.93"/>
<polygon fill="midnightblue" stroke="midnightblue" points="1903.01,-576.68 1895.15,-583.8 1905.73,-583.13 1903.01,-576.68"/>
</g>
<!-- Node15&#45;&gt;Node12 -->
<g id="edge30" class="edge">
<title>Node15&#45;&gt;Node12</title>
<path fill="none" stroke="#9a32cd" stroke-dasharray="5,2" d="M1998.46,-426.39C1933.99,-435.66 1820.2,-452.03 1751.04,-461.98"/>
<polygon fill="#9a32cd" stroke="#9a32cd" points="1998.97,-429.85 2008.37,-424.96 1997.98,-422.92 1998.97,-429.85"/>
<text text-anchor="middle" x="1867" y="-455.4" font-family="Helvetica,sans-Serif" font-size="10.00"> eq_int</text>
</g>
<!-- Node16&#45;&gt;Node12 -->
<g id="edge34" class="edge">
<title>Node16&#45;&gt;Node12</title>
<path fill="none" stroke="#9a32cd" stroke-dasharray="5,2" d="M504.88,-727.98C606.2,-726.58 852.99,-720.65 1058,-695.4 1089.22,-691.56 1587.91,-605.98 1614,-588.4 1655.1,-560.71 1679.12,-502.74 1687.31,-479.92"/>
<polygon fill="#9a32cd" stroke="#9a32cd" points="504.63,-724.48 494.68,-728.11 504.72,-731.48 504.63,-724.48"/>
<text text-anchor="middle" x="1117" y="-695.4" font-family="Helvetica,sans-Serif" font-size="10.00"> which_coef</text>
</g>
<!-- Node17&#45;&gt;Node12 -->
<g id="edge38" class="edge">
<title>Node17&#45;&gt;Node12</title>
<path fill="none" stroke="#9a32cd" stroke-dasharray="5,2" d="M392.47,-766.4C441.86,-766.4 519.93,-766.4 587.5,-766.4 587.5,-766.4 587.5,-766.4 1019.5,-766.4 1087.91,-766.4 1562.06,-650.92 1614,-606.4 1656.17,-570.26 1679.86,-504.79 1687.62,-480.14"/>
<polygon fill="#9a32cd" stroke="#9a32cd" points="392.38,-762.9 382.38,-766.4 392.38,-769.9 392.38,-762.9"/>
<text text-anchor="middle" x="1018.5" y="-780.4" font-family="Helvetica,sans-Serif" font-size="10.00"> paruser</text>
<text text-anchor="middle" x="1018.5" y="-769.4" font-family="Helvetica,sans-Serif" font-size="10.00">paruser_bin</text>
</g>
<!-- Node18&#45;&gt;Node3 -->
<g id="edge61" class="edge">
<title>Node18&#45;&gt;Node3</title>
<path fill="none" stroke="#9a32cd" stroke-dasharray="5,2" d="M1350.31,-239.06C1384.4,-239.01 1429.28,-239.23 1469,-240.4 1474.79,-240.57 1480.92,-240.82 1486.91,-241.11"/>
<polygon fill="#9a32cd" stroke="#9a32cd" points="1350.09,-235.56 1340.1,-239.08 1350.1,-242.56 1350.09,-235.56"/>
<text text-anchor="middle" x="1413.5" y="-320.4" font-family="Helvetica,sans-Serif" font-size="10.00"> p_christo</text>
<text text-anchor="middle" x="1413.5" y="-309.4" font-family="Helvetica,sans-Serif" font-size="10.00">p_det_cov</text>
<text text-anchor="middle" x="1413.5" y="-298.4" font-family="Helvetica,sans-Serif" font-size="10.00">p_dirac</text>
<text text-anchor="middle" x="1413.5" y="-287.4" font-family="Helvetica,sans-Serif" font-size="10.00">p_met_con</text>
<text text-anchor="middle" x="1413.5" y="-276.4" font-family="Helvetica,sans-Serif" font-size="10.00">p_met_cov</text>
<text text-anchor="middle" x="1413.5" y="-265.4" font-family="Helvetica,sans-Serif" font-size="10.00">p_ricci_scalar</text>
<text text-anchor="middle" x="1413.5" y="-254.4" font-family="Helvetica,sans-Serif" font-size="10.00">p_ricci_tensor</text>
<text text-anchor="middle" x="1413.5" y="-243.4" font-family="Helvetica,sans-Serif" font-size="10.00">p_riemann</text>
</g>
<!-- Node18&#45;&gt;Node12 -->
<g id="edge41" class="edge">
<title>Node18&#45;&gt;Node12</title>
<path fill="none" stroke="#9a32cd" stroke-dasharray="5,2" d="M1314.46,-255.95C1323.08,-264.41 1332.97,-275.26 1340,-286.4 1351.71,-304.97 1340.14,-319.64 1358,-332.4 1433.28,-386.21 1477.83,-313.32 1566,-341.4 1590.2,-349.11 1595.26,-355.27 1614,-372.4 1644.74,-400.51 1672.61,-441.94 1684.47,-460.63"/>
<polygon fill="#9a32cd" stroke="#9a32cd" points="1316.69,-253.24 1307.02,-248.91 1311.88,-258.32 1316.69,-253.24"/>
<text text-anchor="middle" x="1526.5" y="-410.4" font-family="Helvetica,sans-Serif" font-size="10.00"> cst</text>
<text text-anchor="middle" x="1526.5" y="-399.4" font-family="Helvetica,sans-Serif" font-size="10.00">cst_hard</text>
<text text-anchor="middle" x="1526.5" y="-388.4" font-family="Helvetica,sans-Serif" font-size="10.00">opeuser</text>
<text text-anchor="middle" x="1526.5" y="-377.4" font-family="Helvetica,sans-Serif" font-size="10.00">opeuser_bin</text>
<text text-anchor="middle" x="1526.5" y="-366.4" font-family="Helvetica,sans-Serif" font-size="10.00">results</text>
<text text-anchor="middle" x="1526.5" y="-355.4" font-family="Helvetica,sans-Serif" font-size="10.00">term</text>
<text text-anchor="middle" x="1526.5" y="-344.4" font-family="Helvetica,sans-Serif" font-size="10.00">term_double</text>
</g>
<!-- Node18&#45;&gt;Node23 -->
<g id="edge60" class="edge">
<title>Node18&#45;&gt;Node23</title>
<path fill="none" stroke="#9a32cd" stroke-dasharray="5,2" d="M1345.55,-227.87C1409.48,-215.28 1523.25,-200.7 1614,-231.4 1793.22,-292.05 1819.55,-348.45 1986,-438.4 2000.2,-446.08 2016.39,-454.56 2028.52,-460.86"/>
<polygon fill="#9a32cd" stroke="#9a32cd" points="1344.83,-224.45 1335.73,-229.87 1346.22,-231.3 1344.83,-224.45"/>
<text text-anchor="middle" x="1691.5" y="-292.4" font-family="Helvetica,sans-Serif" font-size="10.00"> res</text>
</g>
<!-- Node19&#45;&gt;Node12 -->
<g id="edge57" class="edge">
<title>Node19&#45;&gt;Node12</title>
<path fill="none" stroke="#9a32cd" stroke-dasharray="5,2" d="M1131.68,-315.27C1142.43,-328.15 1158.48,-345.03 1176,-355.4 1248.5,-398.31 1276.04,-388.88 1358,-408.4 1371.58,-411.64 1548.62,-444.31 1638.65,-460.88"/>
<polygon fill="#9a32cd" stroke="#9a32cd" points="1134.13,-312.72 1125.13,-307.12 1128.67,-317.1 1134.13,-312.72"/>
<text text-anchor="middle" x="1413.5" y="-432.4" font-family="Helvetica,sans-Serif" font-size="10.00"> var</text>
</g>
<!-- Node19&#45;&gt;Node18 -->
<g id="edge43" class="edge">
<title>Node19&#45;&gt;Node18</title>
<path fill="none" stroke="#9a32cd" stroke-dasharray="5,2" d="M1136.53,-281.38C1147.34,-272.9 1161.64,-263.1 1176,-257.4 1199.41,-248.12 1227.17,-243.6 1249.89,-241.4"/>
<polygon fill="#9a32cd" stroke="#9a32cd" points="1134.21,-278.76 1128.68,-287.79 1138.64,-284.18 1134.21,-278.76"/>
<text text-anchor="middle" x="1204" y="-271.4" font-family="Helvetica,sans-Serif" font-size="10.00"> der_t</text>
<text text-anchor="middle" x="1204" y="-260.4" font-family="Helvetica,sans-Serif" font-size="10.00">val_t</text>
</g>
<!-- Node19&#45;&gt;Node20 -->
<g id="edge47" class="edge">
<title>Node19&#45;&gt;Node20</title>
<path fill="none" stroke="midnightblue" d="M1162.94,-309.66C1192.75,-317.79 1231.31,-328.3 1258.87,-335.82"/>
<polygon fill="midnightblue" stroke="midnightblue" points="1163.76,-306.26 1153.19,-307 1161.92,-313.01 1163.76,-306.26"/>
</g>
<!-- Node24 -->
<g id="node24" class="node">
<title>Node24</title>
<g id="a_node24"><a xlink:href="classKadath_1_1Metric__tensor.html" target="_top" xlink:title=" ">
<polygon fill="none" stroke="black" points="1358,-383.9 1358,-402.9 1469,-402.9 1469,-383.9 1358,-383.9"/>
<text text-anchor="middle" x="1413.5" y="-390.9" font-family="Helvetica,sans-Serif" font-size="10.00">Kadath::Metric_tensor</text>
</a>
</g>
</g>
<!-- Node19&#45;&gt;Node24 -->
<g id="edge63" class="edge">
<title>Node19&#45;&gt;Node24</title>
<path fill="none" stroke="midnightblue" d="M1168.5,-289.65C1217.93,-285.04 1292.53,-286.44 1340,-326.4 1359.03,-342.42 1339.75,-362.49 1358,-379.4 1359.79,-381.06 1361.75,-382.53 1363.83,-383.83"/>
<polygon fill="midnightblue" stroke="midnightblue" points="1167.93,-286.19 1158.35,-290.71 1168.66,-293.15 1167.93,-286.19"/>
</g>
<!-- Node20&#45;&gt;Node19 -->
<g id="edge46" class="edge">
<title>Node20&#45;&gt;Node19</title>
<path fill="none" stroke="#9a32cd" stroke-dasharray="5,2" d="M1244.7,-342.8C1223.19,-340.63 1197.93,-336.66 1176,-329.4 1160.06,-324.13 1143.44,-314.46 1132.09,-307.13"/>
<polygon fill="#9a32cd" stroke="#9a32cd" points="1244.65,-346.31 1254.93,-343.72 1245.28,-339.34 1244.65,-346.31"/>
<text text-anchor="middle" x="1204" y="-343.4" font-family="Helvetica,sans-Serif" font-size="10.00"> cmp</text>
</g>
<!-- Node21&#45;&gt;Node2 -->
<g id="edge64" class="edge">
<title>Node21&#45;&gt;Node2</title>
<path fill="none" stroke="#9a32cd" stroke-dasharray="5,2" d="M959.92,-235.5C988.89,-228.5 1025.66,-219.14 1058,-209.4 1216.35,-161.75 1247.13,-96.4 1412.5,-96.4 1412.5,-96.4 1412.5,-96.4 1692.5,-96.4 1768.39,-96.4 1836.52,-173.79 1858.56,-201.6"/>
<polygon fill="#9a32cd" stroke="#9a32cd" points="958.92,-232.14 950.01,-237.88 960.55,-238.95 958.92,-232.14"/>
<text text-anchor="middle" x="1413.5" y="-102.4" font-family="Helvetica,sans-Serif" font-size="10.00"> basis</text>
</g>
<!-- Node21&#45;&gt;Node19 -->
<g id="edge50" class="edge">
<title>Node21&#45;&gt;Node19</title>
<path fill="none" stroke="#9a32cd" stroke-dasharray="5,2" d="M971.4,-255.91C998.35,-260.29 1030,-266.41 1058,-274.4 1070.5,-277.97 1084.02,-283.25 1094.87,-287.85"/>
<polygon fill="#9a32cd" stroke="#9a32cd" points="971.74,-252.42 961.32,-254.32 970.65,-259.34 971.74,-252.42"/>
<text text-anchor="middle" x="1018.5" y="-277.4" font-family="Helvetica,sans-Serif" font-size="10.00"> basis</text>
</g>
<!-- Node21&#45;&gt;Node25 -->
<g id="edge67" class="edge">
<title>Node21&#45;&gt;Node25</title>
<path fill="none" stroke="#9a32cd" stroke-dasharray="5,2" d="M931.58,-232.67C944.96,-224.72 962.41,-215.34 979,-209.4 1216.25,-124.48 1525.91,-142.98 1642.94,-154.13"/>
<polygon fill="#9a32cd" stroke="#9a32cd" points="929.74,-229.69 923.02,-237.88 933.38,-235.67 929.74,-229.69"/>
<text text-anchor="middle" x="1295" y="-155.4" font-family="Helvetica,sans-Serif" font-size="10.00"> basis</text>
</g>
<!-- Node22&#45;&gt;Node19 -->
<g id="edge54" class="edge">
<title>Node22&#45;&gt;Node19</title>
<path fill="none" stroke="#9a32cd" stroke-dasharray="5,2" d="M655.31,-199.24C730.05,-201.22 855.33,-207.67 961,-228.4 1004.69,-236.97 1017.92,-234.01 1058,-253.4 1076.43,-262.32 1094.76,-277.57 1105.74,-287.57"/>
<polygon fill="#9a32cd" stroke="#9a32cd" points="655.19,-195.73 645.11,-198.99 655.02,-202.73 655.19,-195.73"/>
<text text-anchor="middle" x="810" y="-212.4" font-family="Helvetica,sans-Serif" font-size="10.00"> parameters</text>
</g>
<!-- Node23&#45;&gt;Node12 -->
<g id="edge58" class="edge">
<title>Node23&#45;&gt;Node12</title>
<path fill="none" stroke="#9a32cd" stroke-dasharray="5,2" d="M1993.41,-470.4C1928.18,-470.4 1818.43,-470.4 1751.04,-470.4"/>
<polygon fill="#9a32cd" stroke="#9a32cd" points="1993.48,-473.9 2003.48,-470.4 1993.48,-466.9 1993.48,-473.9"/>
<text text-anchor="middle" x="1867" y="-473.4" font-family="Helvetica,sans-Serif" font-size="10.00"> def</text>
</g>
<!-- Node24&#45;&gt;Node2 -->
<g id="edge62" class="edge">
<title>Node24&#45;&gt;Node2</title>
<path fill="none" stroke="#9a32cd" stroke-dasharray="5,2" d="M1479.41,-393.88C1506.66,-392.54 1538.38,-388.93 1566,-380.4 1687.67,-342.86 1814.56,-250.8 1853.75,-220.93"/>
<polygon fill="#9a32cd" stroke="#9a32cd" points="1479.06,-390.39 1469.21,-394.29 1479.34,-397.38 1479.06,-390.39"/>
<text text-anchor="middle" x="1599" y="-376.4" font-family="Helvetica,sans-Serif" font-size="10.00"> p_met</text>
</g>
<!-- Node25&#45;&gt;Node2 -->
<g id="edge65" class="edge">
<title>Node25&#45;&gt;Node2</title>
<path fill="none" stroke="#9a32cd" stroke-dasharray="5,2" d="M1736.89,-171.69C1753.85,-176.47 1773.36,-182.07 1791,-187.4 1806.18,-191.99 1823,-197.35 1836.86,-201.83"/>
<polygon fill="#9a32cd" stroke="#9a32cd" points="1737.8,-168.31 1727.23,-168.98 1735.91,-175.05 1737.8,-168.31"/>
<text text-anchor="middle" x="1780" y="-190.4" font-family="Helvetica,sans-Serif" font-size="10.00"> fmet</text>
</g>
</g>
</svg>
