<?xml version="1.0" encoding="UTF-8" standalone="no"?>
<!DOCTYPE svg PUBLIC "-//W3C//DTD SVG 1.1//EN"
 "http://www.w3.org/Graphics/SVG/1.1/DTD/svg11.dtd">
<!-- Generated by graphviz version 2.47.1 (20210515.0534)
 -->
<!-- Title: ska::detailv3::sherwood_v3_table&lt; T, FindKey, ArgumentHash, Hasher, ArgumentEqual, Equal, ArgumentAlloc, EntryAlloc &gt; Pages: 1 -->
<svg width="194pt" height="128pt"
 viewBox="0.00 0.00 193.50 128.00" xmlns="http://www.w3.org/2000/svg" xmlns:xlink="http://www.w3.org/1999/xlink">
<g id="graph0" class="graph" transform="scale(1 1) rotate(0) translate(4 124)">
<title>ska::detailv3::sherwood_v3_table&lt; T, FindKey, ArgumentHash, Hasher, ArgumentEqual, Equal, ArgumentAlloc, EntryAlloc &gt;</title>
<!-- Node1 -->
<g id="node1" class="node">
<title>Node1</title>
<g id="a_node1"><a xlink:title=" ">
<polygon fill="#bfbfbf" stroke="black" points="21.5,-0.5 21.5,-63.5 182.5,-63.5 182.5,-0.5 21.5,-0.5"/>
<text text-anchor="start" x="29.5" y="-51.5" font-family="Helvetica,sans-Serif" font-size="10.00">ska::detailv3::sherwood</text>
<text text-anchor="start" x="29.5" y="-40.5" font-family="Helvetica,sans-Serif" font-size="10.00">_v3_table&lt; T, FindKey,</text>
<text text-anchor="start" x="29.5" y="-29.5" font-family="Helvetica,sans-Serif" font-size="10.00"> ArgumentHash, Hasher,</text>
<text text-anchor="start" x="29.5" y="-18.5" font-family="Helvetica,sans-Serif" font-size="10.00"> ArgumentEqual, Equal, Argument</text>
<text text-anchor="middle" x="102" y="-7.5" font-family="Helvetica,sans-Serif" font-size="10.00">Alloc, EntryAlloc &gt;</text>
</a>
</g>
</g>
<!-- Node2 -->
<g id="node2" class="node">
<title>Node2</title>
<g id="a_node2"><a xlink:title=" ">
<polygon fill="none" stroke="#bfbfbf" points="0,-100.5 0,-119.5 60,-119.5 60,-100.5 0,-100.5"/>
<text text-anchor="middle" x="30" y="-107.5" font-family="Helvetica,sans-Serif" font-size="10.00">EntryAlloc</text>
</a>
</g>
</g>
<!-- Node2&#45;&gt;Node1 -->
<g id="edge1" class="edge">
<title>Node2&#45;&gt;Node1</title>
<path fill="none" stroke="#8b1a1a" d="M45.26,-92.89C53.33,-84.37 63.52,-73.62 73.02,-63.59"/>
<polygon fill="#8b1a1a" stroke="#8b1a1a" points="42.6,-90.62 38.26,-100.28 47.68,-95.43 42.6,-90.62"/>
</g>
<!-- Node3 -->
<g id="node3" class="node">
<title>Node3</title>
<g id="a_node3"><a xlink:title=" ">
<polygon fill="none" stroke="#bfbfbf" points="78,-100.5 78,-119.5 126,-119.5 126,-100.5 78,-100.5"/>
<text text-anchor="middle" x="102" y="-107.5" font-family="Helvetica,sans-Serif" font-size="10.00">Hasher</text>
</a>
</g>
</g>
<!-- Node3&#45;&gt;Node1 -->
<g id="edge2" class="edge">
<title>Node3&#45;&gt;Node1</title>
<path fill="none" stroke="#8b1a1a" d="M102,-90.19C102,-82.16 102,-72.59 102,-63.59"/>
<polygon fill="#8b1a1a" stroke="#8b1a1a" points="98.5,-90.28 102,-100.28 105.5,-90.28 98.5,-90.28"/>
</g>
<!-- Node4 -->
<g id="node4" class="node">
<title>Node4</title>
<g id="a_node4"><a xlink:title=" ">
<polygon fill="none" stroke="#bfbfbf" points="144.5,-100.5 144.5,-119.5 185.5,-119.5 185.5,-100.5 144.5,-100.5"/>
<text text-anchor="middle" x="165" y="-107.5" font-family="Helvetica,sans-Serif" font-size="10.00">Equal</text>
</a>
</g>
</g>
<!-- Node4&#45;&gt;Node1 -->
<g id="edge3" class="edge">
<title>Node4&#45;&gt;Node1</title>
<path fill="none" stroke="#8b1a1a" d="M151.21,-92.36C144.22,-83.93 135.5,-73.41 127.36,-63.59"/>
<polygon fill="#8b1a1a" stroke="#8b1a1a" points="148.7,-94.82 157.77,-100.28 154.09,-90.35 148.7,-94.82"/>
</g>
</g>
</svg>
