<?xml version="1.0" encoding="UTF-8" standalone="no"?>
<!DOCTYPE svg PUBLIC "-//W3C//DTD SVG 1.1//EN"
 "http://www.w3.org/Graphics/SVG/1.1/DTD/svg11.dtd">
<!-- Generated by graphviz version 2.47.1 (20210515.0534)
 -->
<!-- Title: Kadath::Metric_tensor Pages: 1 -->
<svg width="1606pt" height="461pt"
 viewBox="0.00 0.00 1606.00 461.00" xmlns="http://www.w3.org/2000/svg" xmlns:xlink="http://www.w3.org/1999/xlink">
<g id="graph0" class="graph" transform="scale(1 1) rotate(0) translate(4 457)">
<title>Kadath::Metric_tensor</title>
<!-- Node1 -->
<g id="node1" class="node">
<title>Node1</title>
<g id="a_node1"><a xlink:title=" ">
<polygon fill="#bfbfbf" stroke="black" points="1487,-361.5 1487,-380.5 1598,-380.5 1598,-361.5 1487,-361.5"/>
<text text-anchor="middle" x="1542.5" y="-368.5" font-family="Helvetica,sans-Serif" font-size="10.00">Kadath::Metric_tensor</text>
</a>
</g>
</g>
<!-- Node2 -->
<g id="node2" class="node">
<title>Node2</title>
<g id="a_node2"><a xlink:href="classKadath_1_1Tensor.html" target="_top" xlink:title=" ">
<polygon fill="none" stroke="black" points="1347,-348.5 1347,-367.5 1429,-367.5 1429,-348.5 1347,-348.5"/>
<text text-anchor="middle" x="1388" y="-355.5" font-family="Helvetica,sans-Serif" font-size="10.00">Kadath::Tensor</text>
</a>
</g>
</g>
<!-- Node2&#45;&gt;Node1 -->
<g id="edge1" class="edge">
<title>Node2&#45;&gt;Node1</title>
<path fill="none" stroke="midnightblue" d="M1439.32,-362.29C1454.53,-363.59 1471.31,-365.02 1486.79,-366.34"/>
<polygon fill="midnightblue" stroke="midnightblue" points="1439.33,-358.78 1429.07,-361.42 1438.73,-365.75 1439.33,-358.78"/>
</g>
<!-- Node11 -->
<g id="node11" class="node">
<title>Node11</title>
<g id="a_node11"><a xlink:href="classKadath_1_1Scalar.html" target="_top" xlink:title=" ">
<polygon fill="none" stroke="black" points="1502.5,-310.5 1502.5,-329.5 1582.5,-329.5 1582.5,-310.5 1502.5,-310.5"/>
<text text-anchor="middle" x="1542.5" y="-317.5" font-family="Helvetica,sans-Serif" font-size="10.00">Kadath::Scalar</text>
</a>
</g>
</g>
<!-- Node2&#45;&gt;Node11 -->
<g id="edge21" class="edge">
<title>Node2&#45;&gt;Node11</title>
<path fill="none" stroke="midnightblue" d="M1437.32,-345.96C1458.62,-340.65 1483.3,-334.5 1503.29,-329.52"/>
<polygon fill="midnightblue" stroke="midnightblue" points="1436.34,-342.6 1427.48,-348.41 1438.03,-349.39 1436.34,-342.6"/>
</g>
<!-- Node3 -->
<g id="node3" class="node">
<title>Node3</title>
<g id="a_node3"><a xlink:href="structKadath_1_1MemoryMappable.html" target="_top" xlink:title=" ">
<polygon fill="none" stroke="black" points="0,-193.5 0,-212.5 128,-212.5 128,-193.5 0,-193.5"/>
<text text-anchor="middle" x="64" y="-200.5" font-family="Helvetica,sans-Serif" font-size="10.00">Kadath::MemoryMappable</text>
</a>
</g>
</g>
<!-- Node3&#45;&gt;Node2 -->
<g id="edge2" class="edge">
<title>Node3&#45;&gt;Node2</title>
<path fill="none" stroke="midnightblue" d="M67.25,-222.75C75.17,-281.8 107.37,-453 214.5,-453 214.5,-453 214.5,-453 1232.5,-453 1297.05,-453 1357.29,-392.08 1378.73,-367.81"/>
<polygon fill="midnightblue" stroke="midnightblue" points="70.72,-222.29 66,-212.8 63.77,-223.16 70.72,-222.29"/>
</g>
<!-- Node4 -->
<g id="node4" class="node">
<title>Node4</title>
<g id="a_node4"><a xlink:href="classKadath_1_1Space.html" target="_top" xlink:title=" ">
<polygon fill="none" stroke="black" points="1016,-171.5 1016,-190.5 1096,-190.5 1096,-171.5 1016,-171.5"/>
<text text-anchor="middle" x="1056" y="-178.5" font-family="Helvetica,sans-Serif" font-size="10.00">Kadath::Space</text>
</a>
</g>
</g>
<!-- Node3&#45;&gt;Node4 -->
<g id="edge4" class="edge">
<title>Node3&#45;&gt;Node4</title>
<path fill="none" stroke="midnightblue" d="M71.88,-183.68C88.76,-140.12 136.65,-38 214.5,-38 214.5,-38 214.5,-38 886.5,-38 968.99,-38 1031.77,-138.86 1049.77,-171.17"/>
<polygon fill="midnightblue" stroke="midnightblue" points="68.55,-182.58 68.33,-193.17 75.11,-185.03 68.55,-182.58"/>
</g>
<!-- Node5 -->
<g id="node5" class="node">
<title>Node5</title>
<g id="a_node5"><a xlink:href="classKadath_1_1Domain.html" target="_top" xlink:title=" ">
<polygon fill="none" stroke="black" points="843,-163.5 843,-182.5 928,-182.5 928,-163.5 843,-163.5"/>
<text text-anchor="middle" x="885.5" y="-170.5" font-family="Helvetica,sans-Serif" font-size="10.00">Kadath::Domain</text>
</a>
</g>
</g>
<!-- Node3&#45;&gt;Node5 -->
<g id="edge6" class="edge">
<title>Node3&#45;&gt;Node5</title>
<path fill="none" stroke="midnightblue" d="M75.21,-184.64C96.27,-149.46 148.19,-76 214.5,-76 214.5,-76 214.5,-76 717.5,-76 786.57,-76 852.62,-138.81 875.78,-163.34"/>
<polygon fill="midnightblue" stroke="midnightblue" points="72.08,-183.05 70.1,-193.45 78.14,-186.56 72.08,-183.05"/>
</g>
<!-- Node6 -->
<g id="node6" class="node">
<title>Node6</title>
<g id="a_node6"><a xlink:href="classKadath_1_1Dim__array.html" target="_top" xlink:title=" ">
<polygon fill="none" stroke="black" points="284,-117.5 284,-136.5 379,-136.5 379,-117.5 284,-117.5"/>
<text text-anchor="middle" x="331.5" y="-124.5" font-family="Helvetica,sans-Serif" font-size="10.00">Kadath::Dim_array</text>
</a>
</g>
</g>
<!-- Node3&#45;&gt;Node6 -->
<g id="edge8" class="edge">
<title>Node3&#45;&gt;Node6</title>
<path fill="none" stroke="midnightblue" d="M95.3,-189.33C110.34,-182.88 128.91,-175.44 146,-170 192.07,-155.35 246.07,-143.34 283.7,-135.78"/>
<polygon fill="midnightblue" stroke="midnightblue" points="93.75,-186.18 85.98,-193.38 96.55,-192.6 93.75,-186.18"/>
</g>
<!-- Node7 -->
<g id="node7" class="node">
<title>Node7</title>
<g id="a_node7"><a xlink:href="classKadath_1_1Array.html" target="_top" xlink:title=" ">
<polygon fill="none" stroke="black" points="397,-174.5 397,-193.5 516,-193.5 516,-174.5 397,-174.5"/>
<text text-anchor="middle" x="456.5" y="-181.5" font-family="Helvetica,sans-Serif" font-size="10.00">Kadath::Array&lt; double &gt;</text>
</a>
</g>
</g>
<!-- Node3&#45;&gt;Node7 -->
<g id="edge10" class="edge">
<title>Node3&#45;&gt;Node7</title>
<path fill="none" stroke="midnightblue" d="M138.46,-199.43C213.31,-195.78 327.91,-190.21 396.89,-186.85"/>
<polygon fill="midnightblue" stroke="midnightblue" points="137.99,-195.94 128.17,-199.93 138.33,-202.94 137.99,-195.94"/>
</g>
<!-- Node8 -->
<g id="node8" class="node">
<title>Node8</title>
<g id="a_node8"><a xlink:href="classKadath_1_1Val__domain.html" target="_top" xlink:title=" ">
<polygon fill="none" stroke="black" points="665,-214.5 665,-233.5 768,-233.5 768,-214.5 665,-214.5"/>
<text text-anchor="middle" x="716.5" y="-221.5" font-family="Helvetica,sans-Serif" font-size="10.00">Kadath::Val_domain</text>
</a>
</g>
</g>
<!-- Node3&#45;&gt;Node8 -->
<g id="edge12" class="edge">
<title>Node3&#45;&gt;Node8</title>
<path fill="none" stroke="midnightblue" d="M138.31,-207.64C140.91,-207.76 143.48,-207.89 146,-208 337.45,-216.6 565.32,-221.35 664.81,-223.15"/>
<polygon fill="midnightblue" stroke="midnightblue" points="138.39,-204.14 128.22,-207.11 138.03,-211.13 138.39,-204.14"/>
</g>
<!-- Node9 -->
<g id="node9" class="node">
<title>Node9</title>
<g id="a_node9"><a xlink:href="classKadath_1_1Base__spectral.html" target="_top" xlink:title=" ">
<polygon fill="none" stroke="black" points="399.5,-250.5 399.5,-269.5 513.5,-269.5 513.5,-250.5 399.5,-250.5"/>
<text text-anchor="middle" x="456.5" y="-257.5" font-family="Helvetica,sans-Serif" font-size="10.00">Kadath::Base_spectral</text>
</a>
</g>
</g>
<!-- Node3&#45;&gt;Node9 -->
<g id="edge16" class="edge">
<title>Node3&#45;&gt;Node9</title>
<path fill="none" stroke="midnightblue" d="M93.14,-216.98C108.4,-223.91 127.82,-231.7 146,-236 232.8,-256.52 336.72,-260.54 399.35,-260.82"/>
<polygon fill="midnightblue" stroke="midnightblue" points="94.3,-213.66 83.76,-212.59 91.34,-220 94.3,-213.66"/>
</g>
<!-- Node10 -->
<g id="node10" class="node">
<title>Node10</title>
<g id="a_node10"><a xlink:href="classKadath_1_1Array.html" target="_top" xlink:title=" ">
<polygon fill="none" stroke="black" points="165,-301.5 165,-320.5 266,-320.5 266,-301.5 165,-301.5"/>
<text text-anchor="middle" x="215.5" y="-308.5" font-family="Helvetica,sans-Serif" font-size="10.00">Kadath::Array&lt; int &gt;</text>
</a>
</g>
</g>
<!-- Node3&#45;&gt;Node10 -->
<g id="edge18" class="edge">
<title>Node3&#45;&gt;Node10</title>
<path fill="none" stroke="midnightblue" d="M82.29,-220.22C98.07,-235.42 122.46,-257.64 146,-274 161.32,-284.65 180.02,-294.57 194.02,-301.45"/>
<polygon fill="midnightblue" stroke="midnightblue" points="84.47,-217.46 74.87,-212.98 79.58,-222.47 84.47,-217.46"/>
</g>
<!-- Node12 -->
<g id="node12" class="node">
<title>Node12</title>
<g id="a_node12"><a xlink:href="classKadath_1_1Base__tensor.html" target="_top" xlink:title=" ">
<polygon fill="none" stroke="black" points="1178,-227.5 1178,-246.5 1285,-246.5 1285,-227.5 1178,-227.5"/>
<text text-anchor="middle" x="1231.5" y="-234.5" font-family="Helvetica,sans-Serif" font-size="10.00">Kadath::Base_tensor</text>
</a>
</g>
</g>
<!-- Node3&#45;&gt;Node12 -->
<g id="edge25" class="edge">
<title>Node3&#45;&gt;Node12</title>
<path fill="none" stroke="midnightblue" d="M69.32,-183.75C81.95,-133.1 123.77,0 214.5,0 214.5,0 214.5,0 1057,0 1085.09,0 1156.07,-204.44 1178,-222 1180.59,-224.07 1183.45,-225.86 1186.47,-227.4"/>
<polygon fill="midnightblue" stroke="midnightblue" points="65.92,-182.94 67.01,-193.48 72.73,-184.56 65.92,-182.94"/>
</g>
<!-- Node13 -->
<g id="node13" class="node">
<title>Node13</title>
<g id="a_node13"><a xlink:href="classKadath_1_1Param__tensor.html" target="_top" xlink:title=" ">
<polygon fill="none" stroke="black" points="534,-399.5 534,-418.5 647,-418.5 647,-399.5 534,-399.5"/>
<text text-anchor="middle" x="590.5" y="-406.5" font-family="Helvetica,sans-Serif" font-size="10.00">Kadath::Param_tensor</text>
</a>
</g>
</g>
<!-- Node3&#45;&gt;Node13 -->
<g id="edge29" class="edge">
<title>Node3&#45;&gt;Node13</title>
<path fill="none" stroke="midnightblue" d="M75.34,-221.52C91.34,-248.68 124.52,-299.41 165,-330 275.04,-413.17 446.19,-417.59 533.76,-413.5"/>
<polygon fill="midnightblue" stroke="midnightblue" points="78.26,-219.58 70.24,-212.66 72.2,-223.07 78.26,-219.58"/>
</g>
<!-- Node4&#45;&gt;Node2 -->
<g id="edge3" class="edge">
<title>Node4&#45;&gt;Node2</title>
<path fill="none" stroke="#9a32cd" stroke-dasharray="5,2" d="M1106.04,-175.29C1154.95,-172.05 1230.46,-173.92 1285,-207 1341.81,-241.45 1374.05,-320.99 1383.81,-348.46"/>
<polygon fill="#9a32cd" stroke="#9a32cd" points="1105.74,-171.8 1096.03,-176.05 1106.26,-178.78 1105.74,-171.8"/>
<text text-anchor="middle" x="1231.5" y="-210" font-family="Helvetica,sans-Serif" font-size="10.00"> espace</text>
</g>
<!-- Node4&#45;&gt;Node12 -->
<g id="edge26" class="edge">
<title>Node4&#45;&gt;Node12</title>
<path fill="none" stroke="#9a32cd" stroke-dasharray="5,2" d="M1093.36,-193.99C1100.2,-196.37 1107.31,-198.79 1114,-201 1142.35,-210.35 1174.81,-220.32 1198.25,-227.39"/>
<polygon fill="#9a32cd" stroke="#9a32cd" points="1094.2,-190.57 1083.61,-190.57 1091.89,-197.18 1094.2,-190.57"/>
<text text-anchor="middle" x="1137" y="-219" font-family="Helvetica,sans-Serif" font-size="10.00"> space</text>
</g>
<!-- Node5&#45;&gt;Node4 -->
<g id="edge5" class="edge">
<title>Node5&#45;&gt;Node4</title>
<path fill="none" stroke="#9a32cd" stroke-dasharray="5,2" d="M938.2,-175.45C963.21,-176.64 992.74,-178.04 1015.85,-179.14"/>
<polygon fill="#9a32cd" stroke="#9a32cd" points="938.31,-171.96 928.15,-174.98 937.97,-178.95 938.31,-171.96"/>
<text text-anchor="middle" x="972" y="-182" font-family="Helvetica,sans-Serif" font-size="10.00"> domains</text>
</g>
<!-- Node5&#45;&gt;Node8 -->
<g id="edge19" class="edge">
<title>Node5&#45;&gt;Node8</title>
<path fill="none" stroke="#9a32cd" stroke-dasharray="5,2" d="M832.3,-177.66C817.12,-179.89 800.69,-183.17 786,-188 766.34,-194.46 745.55,-206.17 732.1,-214.49"/>
<polygon fill="#9a32cd" stroke="#9a32cd" points="833.12,-181.08 842.57,-176.28 832.19,-174.14 833.12,-181.08"/>
<text text-anchor="middle" x="805.5" y="-191" font-family="Helvetica,sans-Serif" font-size="10.00"> zone</text>
</g>
<!-- Node6&#45;&gt;Node5 -->
<g id="edge7" class="edge">
<title>Node6&#45;&gt;Node5</title>
<path fill="none" stroke="#9a32cd" stroke-dasharray="5,2" d="M389.33,-128.92C452.38,-131.31 557.09,-136.09 647,-144 715.9,-150.06 795.64,-160.51 842.97,-167.07"/>
<polygon fill="#9a32cd" stroke="#9a32cd" points="389.32,-125.41 379.19,-128.54 389.06,-132.41 389.32,-125.41"/>
<text text-anchor="middle" x="590.5" y="-158" font-family="Helvetica,sans-Serif" font-size="10.00"> nbr_coefs</text>
<text text-anchor="middle" x="590.5" y="-147" font-family="Helvetica,sans-Serif" font-size="10.00">nbr_points</text>
</g>
<!-- Node7&#45;&gt;Node5 -->
<g id="edge9" class="edge">
<title>Node7&#45;&gt;Node5</title>
<path fill="none" stroke="#9a32cd" stroke-dasharray="5,2" d="M526.35,-174.58C528.93,-174.36 531.49,-174.17 534,-174 645.42,-166.59 777.19,-169.29 842.9,-171.41"/>
<polygon fill="#9a32cd" stroke="#9a32cd" points="525.94,-171.11 516.31,-175.55 526.6,-178.08 525.94,-171.11"/>
<text text-anchor="middle" x="716.5" y="-173" font-family="Helvetica,sans-Serif" font-size="10.00"> coloc</text>
</g>
<!-- Node7&#45;&gt;Node8 -->
<g id="edge13" class="edge">
<title>Node7&#45;&gt;Node8</title>
<path fill="none" stroke="#9a32cd" stroke-dasharray="5,2" d="M526.12,-177.93C562.57,-176.57 607.83,-177.89 647,-188 667.42,-193.27 688.56,-205.62 701.85,-214.38"/>
<polygon fill="#9a32cd" stroke="#9a32cd" points="525.91,-174.43 516.08,-178.38 526.22,-181.43 525.91,-174.43"/>
<text text-anchor="middle" x="590.5" y="-202" font-family="Helvetica,sans-Serif" font-size="10.00"> c</text>
<text text-anchor="middle" x="590.5" y="-191" font-family="Helvetica,sans-Serif" font-size="10.00">cf</text>
</g>
<!-- Node8&#45;&gt;Node5 -->
<g id="edge11" class="edge">
<title>Node8&#45;&gt;Node5</title>
<path fill="none" stroke="#9a32cd" stroke-dasharray="5,2" d="M778.18,-213.55C793.64,-210.2 810.09,-206.03 825,-201 839.6,-196.07 855.35,-188.56 866.98,-182.55"/>
<polygon fill="#9a32cd" stroke="#9a32cd" points="777.26,-210.17 768.19,-215.64 778.69,-217.02 777.26,-210.17"/>
<text text-anchor="middle" x="805.5" y="-248" font-family="Helvetica,sans-Serif" font-size="10.00"> absol</text>
<text text-anchor="middle" x="805.5" y="-237" font-family="Helvetica,sans-Serif" font-size="10.00">cart</text>
<text text-anchor="middle" x="805.5" y="-226" font-family="Helvetica,sans-Serif" font-size="10.00">cart_surr</text>
<text text-anchor="middle" x="805.5" y="-215" font-family="Helvetica,sans-Serif" font-size="10.00">radius</text>
</g>
<!-- Node8&#45;&gt;Node8 -->
<g id="edge14" class="edge">
<title>Node8&#45;&gt;Node8</title>
<path fill="none" stroke="#9a32cd" stroke-dasharray="5,2" d="M700.2,-243.4C701.29,-248.31 706.72,-252 716.5,-252 732.14,-252 736.66,-242.57 730.06,-233.76"/>
<polygon fill="#9a32cd" stroke="#9a32cd" points="703.58,-244.33 702.94,-233.76 696.84,-242.42 703.58,-244.33"/>
<text text-anchor="middle" x="716.5" y="-266" font-family="Helvetica,sans-Serif" font-size="10.00"> p_der_abs</text>
<text text-anchor="middle" x="716.5" y="-255" font-family="Helvetica,sans-Serif" font-size="10.00">p_der_var</text>
</g>
<!-- Node8&#45;&gt;Node11 -->
<g id="edge22" class="edge">
<title>Node8&#45;&gt;Node11</title>
<path fill="none" stroke="#9a32cd" stroke-dasharray="5,2" d="M740.43,-238.8C753.31,-246.4 769.98,-255.07 786,-260 865.09,-284.33 888.25,-281 971,-281 971,-281 971,-281 1389,-281 1436.41,-281 1489.61,-298.91 1518.97,-310.46"/>
<polygon fill="#9a32cd" stroke="#9a32cd" points="742.14,-235.75 731.78,-233.53 738.5,-241.72 742.14,-235.75"/>
<text text-anchor="middle" x="1137" y="-284" font-family="Helvetica,sans-Serif" font-size="10.00"> val_zones</text>
</g>
<!-- Node9&#45;&gt;Node8 -->
<g id="edge15" class="edge">
<title>Node9&#45;&gt;Node8</title>
<path fill="none" stroke="#9a32cd" stroke-dasharray="5,2" d="M523.58,-252.41C560.04,-248.03 606.09,-242.17 647,-236 652.73,-235.14 658.72,-234.17 664.67,-233.18"/>
<polygon fill="#9a32cd" stroke="#9a32cd" points="523.08,-248.95 513.57,-253.61 523.91,-255.9 523.08,-248.95"/>
<text text-anchor="middle" x="590.5" y="-255" font-family="Helvetica,sans-Serif" font-size="10.00"> base</text>
</g>
<!-- Node10&#45;&gt;Node2 -->
<g id="edge23" class="edge">
<title>Node10&#45;&gt;Node2</title>
<path fill="none" stroke="#9a32cd" stroke-dasharray="5,2" d="M257.38,-323.45C268.28,-326.69 278.54,-329.65 284,-331 359.44,-349.61 377.79,-365 455.5,-365 455.5,-365 455.5,-365 1232.5,-365 1271.3,-365 1315.52,-362.77 1346.68,-360.83"/>
<polygon fill="#9a32cd" stroke="#9a32cd" points="258.32,-320.07 247.74,-320.56 256.31,-326.78 258.32,-320.07"/>
<text text-anchor="middle" x="885.5" y="-379" font-family="Helvetica,sans-Serif" font-size="10.00"> give_indices</text>
<text text-anchor="middle" x="885.5" y="-368" font-family="Helvetica,sans-Serif" font-size="10.00">type_indice</text>
</g>
<!-- Node10&#45;&gt;Node9 -->
<g id="edge17" class="edge">
<title>Node10&#45;&gt;Node9</title>
<path fill="none" stroke="#9a32cd" stroke-dasharray="5,2" d="M262.98,-298.96C270.01,-297.24 277.19,-295.53 284,-294 324.13,-284.98 369.82,-275.98 403.95,-269.51"/>
<polygon fill="#9a32cd" stroke="#9a32cd" points="261.71,-295.67 252.85,-301.48 263.4,-302.47 261.71,-295.67"/>
<text text-anchor="middle" x="331.5" y="-297" font-family="Helvetica,sans-Serif" font-size="10.00"> bases_1d</text>
</g>
<!-- Node10&#45;&gt;Node12 -->
<g id="edge27" class="edge">
<title>Node10&#45;&gt;Node12</title>
<path fill="none" stroke="#9a32cd" stroke-dasharray="5,2" d="M276.66,-314.13C324.98,-316.37 394.58,-319 455.5,-319 455.5,-319 455.5,-319 1057,-319 1103.91,-319 1117.93,-316.75 1160,-296 1185.48,-283.43 1209.61,-259.82 1221.95,-246.59"/>
<polygon fill="#9a32cd" stroke="#9a32cd" points="276.53,-310.62 266.38,-313.64 276.2,-317.61 276.53,-310.62"/>
<text text-anchor="middle" x="805.5" y="-322" font-family="Helvetica,sans-Serif" font-size="10.00"> basis</text>
</g>
<!-- Node11&#45;&gt;Node2 -->
<g id="edge20" class="edge">
<title>Node11&#45;&gt;Node2</title>
<path fill="none" stroke="#9a32cd" stroke-dasharray="5,2" d="M1491.74,-315.4C1477.08,-315.41 1461.17,-316.78 1447,-321 1428.91,-326.38 1411.06,-339.21 1400.04,-348.25"/>
<polygon fill="#9a32cd" stroke="#9a32cd" points="1492.09,-318.91 1502.16,-315.62 1492.23,-311.91 1492.09,-318.91"/>
<text text-anchor="middle" x="1458" y="-324" font-family="Helvetica,sans-Serif" font-size="10.00"> cmp</text>
</g>
<!-- Node12&#45;&gt;Node2 -->
<g id="edge24" class="edge">
<title>Node12&#45;&gt;Node2</title>
<path fill="none" stroke="#9a32cd" stroke-dasharray="5,2" d="M1252.82,-252.91C1285.3,-278.35 1347.95,-327.42 1374.56,-348.26"/>
<polygon fill="#9a32cd" stroke="#9a32cd" points="1254.91,-250.11 1244.88,-246.7 1250.6,-255.62 1254.91,-250.11"/>
<text text-anchor="middle" x="1316" y="-315" font-family="Helvetica,sans-Serif" font-size="10.00"> basis</text>
</g>
<!-- Node13&#45;&gt;Node2 -->
<g id="edge28" class="edge">
<title>Node13&#45;&gt;Node2</title>
<path fill="none" stroke="#9a32cd" stroke-dasharray="5,2" d="M657.22,-411.81C699.32,-413.37 755.12,-415 804.5,-415 804.5,-415 804.5,-415 1232.5,-415 1286.54,-415 1345,-383.93 1371.89,-367.67"/>
<polygon fill="#9a32cd" stroke="#9a32cd" points="657.22,-408.3 647.1,-411.42 656.96,-415.3 657.22,-408.3"/>
<text text-anchor="middle" x="972" y="-418" font-family="Helvetica,sans-Serif" font-size="10.00"> parameters</text>
</g>
</g>
</svg>
