<?xml version="1.0" encoding="UTF-8" standalone="no"?>
<!DOCTYPE svg PUBLIC "-//W3C//DTD SVG 1.1//EN"
 "http://www.w3.org/Graphics/SVG/1.1/DTD/svg11.dtd">
<!-- Generated by graphviz version 2.47.1 (20210515.0534)
 -->
<!-- Title: Kadath::Eq_matching_exception Pages: 1 -->
<svg width="2060pt" height="823pt"
 viewBox="0.00 0.00 2060.00 823.36" xmlns="http://www.w3.org/2000/svg" xmlns:xlink="http://www.w3.org/1999/xlink">
<g id="graph0" class="graph" transform="scale(1 1) rotate(0) translate(4 819.36)">
<title>Kadath::Eq_matching_exception</title>
<!-- Node1 -->
<g id="node1" class="node">
<title>Node1</title>
<g id="a_node1"><a xlink:title=" ">
<polygon fill="#bfbfbf" stroke="black" points="1138,-558.36 1138,-588.36 1246,-588.36 1246,-558.36 1138,-558.36"/>
<text text-anchor="start" x="1146" y="-576.36" font-family="Helvetica,sans-Serif" font-size="10.00">Kadath::Eq_matching</text>
<text text-anchor="middle" x="1192" y="-565.36" font-family="Helvetica,sans-Serif" font-size="10.00">_exception</text>
</a>
</g>
</g>
<!-- Node2 -->
<g id="node2" class="node">
<title>Node2</title>
<g id="a_node2"><a xlink:href="classKadath_1_1Equation.html" target="_top" xlink:title=" ">
<polygon fill="none" stroke="black" points="955,-607.86 955,-626.86 1044,-626.86 1044,-607.86 955,-607.86"/>
<text text-anchor="middle" x="999.5" y="-614.86" font-family="Helvetica,sans-Serif" font-size="10.00">Kadath::Equation</text>
</a>
</g>
</g>
<!-- Node2&#45;&gt;Node1 -->
<g id="edge1" class="edge">
<title>Node2&#45;&gt;Node1</title>
<path fill="none" stroke="midnightblue" d="M1051.73,-605.53C1078.36,-599.38 1110.87,-591.87 1137.78,-585.65"/>
<polygon fill="midnightblue" stroke="midnightblue" points="1050.79,-602.15 1041.84,-607.82 1052.37,-608.98 1050.79,-602.15"/>
</g>
<!-- Node6 -->
<g id="node6" class="node">
<title>Node6</title>
<g id="a_node6"><a xlink:href="classKadath_1_1System__of__eqs.html" target="_top" xlink:title=" ">
<polygon fill="none" stroke="black" points="1640,-463.86 1640,-482.86 1759,-482.86 1759,-463.86 1640,-463.86"/>
<text text-anchor="middle" x="1699.5" y="-470.86" font-family="Helvetica,sans-Serif" font-size="10.00">Kadath::System_of_eqs</text>
</a>
</g>
</g>
<!-- Node2&#45;&gt;Node6 -->
<g id="edge9" class="edge">
<title>Node2&#45;&gt;Node6</title>
<path fill="none" stroke="#9a32cd" stroke-dasharray="5,2" d="M1054.47,-615.79C1104.42,-613.71 1180.61,-608.99 1246,-598.36 1383.47,-576.02 1416.04,-560.46 1550,-522.36 1593.09,-510.11 1642.32,-493.3 1671.88,-482.89"/>
<polygon fill="#9a32cd" stroke="#9a32cd" points="1054.08,-612.3 1044.22,-616.19 1054.35,-619.29 1054.08,-612.3"/>
<text text-anchor="middle" x="1349" y="-590.36" font-family="Helvetica,sans-Serif" font-size="10.00"> eq</text>
</g>
<!-- Node3 -->
<g id="node3" class="node">
<title>Node3</title>
<g id="a_node3"><a xlink:href="structKadath_1_1MemoryMappable.html" target="_top" xlink:title=" ">
<polygon fill="none" stroke="black" points="0,-318.86 0,-337.86 128,-337.86 128,-318.86 0,-318.86"/>
<text text-anchor="middle" x="64" y="-325.86" font-family="Helvetica,sans-Serif" font-size="10.00">Kadath::MemoryMappable</text>
</a>
</g>
</g>
<!-- Node3&#45;&gt;Node2 -->
<g id="edge2" class="edge">
<title>Node3&#45;&gt;Node2</title>
<path fill="none" stroke="midnightblue" d="M64.73,-348.44C64.88,-420.72 75.74,-663.36 214.5,-663.36 214.5,-663.36 214.5,-663.36 837.5,-663.36 890.12,-663.36 948.81,-640.37 978.69,-626.89"/>
<polygon fill="midnightblue" stroke="midnightblue" points="68.23,-348.05 64.78,-338.03 61.23,-348.01 68.23,-348.05"/>
</g>
<!-- Node4 -->
<g id="node4" class="node">
<title>Node4</title>
<g id="a_node4"><a xlink:href="classKadath_1_1Array.html" target="_top" xlink:title=" ">
<polygon fill="none" stroke="black" points="165,-418.86 165,-437.86 266,-437.86 266,-418.86 165,-418.86"/>
<text text-anchor="middle" x="215.5" y="-425.86" font-family="Helvetica,sans-Serif" font-size="10.00">Kadath::Array&lt; int &gt;</text>
</a>
</g>
</g>
<!-- Node3&#45;&gt;Node4 -->
<g id="edge4" class="edge">
<title>Node3&#45;&gt;Node4</title>
<path fill="none" stroke="midnightblue" d="M87.81,-343.62C118.97,-364.46 173.92,-401.22 199.99,-418.66"/>
<polygon fill="midnightblue" stroke="midnightblue" points="89.59,-340.6 79.33,-337.95 85.7,-346.42 89.59,-340.6"/>
</g>
<!-- Node5 -->
<g id="node5" class="node">
<title>Node5</title>
<g id="a_node5"><a xlink:href="classKadath_1_1Ope__eq.html" target="_top" xlink:title=" ">
<polygon fill="none" stroke="black" points="1816,-704.86 1816,-723.86 1902,-723.86 1902,-704.86 1816,-704.86"/>
<text text-anchor="middle" x="1859" y="-711.86" font-family="Helvetica,sans-Serif" font-size="10.00">Kadath::Ope_eq</text>
</a>
</g>
</g>
<!-- Node3&#45;&gt;Node5 -->
<g id="edge6" class="edge">
<title>Node3&#45;&gt;Node5</title>
<path fill="none" stroke="midnightblue" d="M67.18,-348.27C77.25,-435.23 122.7,-777.36 214.5,-777.36 214.5,-777.36 214.5,-777.36 1700.5,-777.36 1757.34,-777.36 1817.99,-741.56 1844.41,-723.93"/>
<polygon fill="midnightblue" stroke="midnightblue" points="70.64,-347.7 66.04,-338.16 63.68,-348.49 70.64,-347.7"/>
</g>
<!-- Node7 -->
<g id="node7" class="node">
<title>Node7</title>
<g id="a_node7"><a xlink:href="classKadath_1_1Eq__int.html" target="_top" xlink:title=" ">
<polygon fill="none" stroke="black" points="1968,-711.86 1968,-730.86 2047,-730.86 2047,-711.86 1968,-711.86"/>
<text text-anchor="middle" x="2007.5" y="-718.86" font-family="Helvetica,sans-Serif" font-size="10.00">Kadath::Eq_int</text>
</a>
</g>
</g>
<!-- Node3&#45;&gt;Node7 -->
<g id="edge11" class="edge">
<title>Node3&#45;&gt;Node7</title>
<path fill="none" stroke="midnightblue" d="M66.68,-348.2C74.96,-439.56 115.05,-815.36 214.5,-815.36 214.5,-815.36 214.5,-815.36 1860,-815.36 1921.95,-815.36 1978.63,-755.09 1998.75,-731.07"/>
<polygon fill="midnightblue" stroke="midnightblue" points="70.16,-347.75 65.79,-338.09 63.18,-348.36 70.16,-347.75"/>
</g>
<!-- Node8 -->
<g id="node8" class="node">
<title>Node8</title>
<g id="a_node8"><a xlink:href="classKadath_1_1Space.html" target="_top" xlink:title=" ">
<polygon fill="none" stroke="black" points="959.5,-131.86 959.5,-150.86 1039.5,-150.86 1039.5,-131.86 959.5,-131.86"/>
<text text-anchor="middle" x="999.5" y="-138.86" font-family="Helvetica,sans-Serif" font-size="10.00">Kadath::Space</text>
</a>
</g>
</g>
<!-- Node3&#45;&gt;Node8 -->
<g id="edge14" class="edge">
<title>Node3&#45;&gt;Node8</title>
<path fill="none" stroke="midnightblue" d="M68.11,-308.95C78.17,-253.83 115.08,-100.36 214.5,-100.36 214.5,-100.36 214.5,-100.36 837.5,-100.36 888.26,-100.36 945.33,-119.74 976.03,-131.85"/>
<polygon fill="midnightblue" stroke="midnightblue" points="64.66,-308.41 66.41,-318.86 71.55,-309.6 64.66,-308.41"/>
</g>
<!-- Node9 -->
<g id="node9" class="node">
<title>Node9</title>
<g id="a_node9"><a xlink:href="classKadath_1_1Domain.html" target="_top" xlink:title=" ">
<polygon fill="none" stroke="black" points="794,-358.86 794,-377.86 879,-377.86 879,-358.86 794,-358.86"/>
<text text-anchor="middle" x="836.5" y="-365.86" font-family="Helvetica,sans-Serif" font-size="10.00">Kadath::Domain</text>
</a>
</g>
</g>
<!-- Node3&#45;&gt;Node9 -->
<g id="edge16" class="edge">
<title>Node3&#45;&gt;Node9</title>
<path fill="none" stroke="midnightblue" d="M83.04,-312.08C109.73,-289.76 162.22,-252.36 214.5,-252.36 214.5,-252.36 214.5,-252.36 668.5,-252.36 716.68,-252.36 740.31,-233.99 776,-266.36 802.35,-290.27 772.85,-315.75 794,-344.36 798.45,-350.39 804.9,-355.14 811.4,-358.77"/>
<polygon fill="midnightblue" stroke="midnightblue" points="80.61,-309.56 75.32,-318.74 85.18,-314.86 80.61,-309.56"/>
</g>
<!-- Node10 -->
<g id="node10" class="node">
<title>Node10</title>
<g id="a_node10"><a xlink:href="classKadath_1_1Dim__array.html" target="_top" xlink:title=" ">
<polygon fill="none" stroke="black" points="168,-166.86 168,-185.86 263,-185.86 263,-166.86 168,-166.86"/>
<text text-anchor="middle" x="215.5" y="-173.86" font-family="Helvetica,sans-Serif" font-size="10.00">Kadath::Dim_array</text>
</a>
</g>
</g>
<!-- Node3&#45;&gt;Node10 -->
<g id="edge18" class="edge">
<title>Node3&#45;&gt;Node10</title>
<path fill="none" stroke="midnightblue" d="M72.21,-309.42C83.71,-281.65 108.77,-229.97 146,-200.36 153.89,-194.09 163.54,-189.39 173.08,-185.9"/>
<polygon fill="midnightblue" stroke="midnightblue" points="68.92,-308.21 68.47,-318.8 75.43,-310.81 68.92,-308.21"/>
</g>
<!-- Node11 -->
<g id="node11" class="node">
<title>Node11</title>
<g id="a_node11"><a xlink:href="classKadath_1_1Array.html" target="_top" xlink:title=" ">
<polygon fill="none" stroke="black" points="415,-394.86 415,-413.86 534,-413.86 534,-394.86 415,-394.86"/>
<text text-anchor="middle" x="474.5" y="-401.86" font-family="Helvetica,sans-Serif" font-size="10.00">Kadath::Array&lt; double &gt;</text>
</a>
</g>
</g>
<!-- Node3&#45;&gt;Node11 -->
<g id="edge20" class="edge">
<title>Node3&#45;&gt;Node11</title>
<path fill="none" stroke="midnightblue" d="M138.56,-318.56C207.64,-312.29 312.7,-310.48 397,-342.36 426.1,-353.37 452.49,-380.06 465.31,-394.58"/>
<polygon fill="midnightblue" stroke="midnightblue" points="137.83,-315.11 128.22,-319.55 138.5,-322.08 137.83,-315.11"/>
</g>
<!-- Node12 -->
<g id="node12" class="node">
<title>Node12</title>
<g id="a_node12"><a xlink:href="classKadath_1_1Val__domain.html" target="_top" xlink:title=" ">
<polygon fill="none" stroke="black" points="616,-403.86 616,-422.86 719,-422.86 719,-403.86 616,-403.86"/>
<text text-anchor="middle" x="667.5" y="-410.86" font-family="Helvetica,sans-Serif" font-size="10.00">Kadath::Val_domain</text>
</a>
</g>
</g>
<!-- Node3&#45;&gt;Node12 -->
<g id="edge22" class="edge">
<title>Node3&#45;&gt;Node12</title>
<path fill="none" stroke="midnightblue" d="M129.48,-317.13C135.07,-316.18 140.63,-315.25 146,-314.36 154.43,-312.97 156.48,-312.03 165,-311.36 209.75,-307.85 221.11,-310.85 266,-311.36 324.23,-312.03 339.78,-303.51 397,-314.36 422.1,-319.12 579.82,-379.74 641.66,-403.71"/>
<polygon fill="midnightblue" stroke="midnightblue" points="128.71,-313.71 119.44,-318.84 129.89,-320.61 128.71,-313.71"/>
</g>
<!-- Node13 -->
<g id="node13" class="node">
<title>Node13</title>
<g id="a_node13"><a xlink:href="classKadath_1_1Base__spectral.html" target="_top" xlink:title=" ">
<polygon fill="none" stroke="black" points="417.5,-432.86 417.5,-451.86 531.5,-451.86 531.5,-432.86 417.5,-432.86"/>
<text text-anchor="middle" x="474.5" y="-439.86" font-family="Helvetica,sans-Serif" font-size="10.00">Kadath::Base_spectral</text>
</a>
</g>
</g>
<!-- Node3&#45;&gt;Node13 -->
<g id="edge26" class="edge">
<title>Node3&#45;&gt;Node13</title>
<path fill="none" stroke="midnightblue" d="M108.87,-340.61C190.75,-363.45 365.2,-412.14 439.18,-432.79"/>
<polygon fill="midnightblue" stroke="midnightblue" points="109.7,-337.2 99.13,-337.89 107.82,-343.95 109.7,-337.2"/>
</g>
<!-- Node14 -->
<g id="node14" class="node">
<title>Node14</title>
<g id="a_node14"><a xlink:href="classKadath_1_1Index.html" target="_top" xlink:title=" ">
<polygon fill="none" stroke="black" points="437,-14.86 437,-33.86 512,-33.86 512,-14.86 437,-14.86"/>
<text text-anchor="middle" x="474.5" y="-21.86" font-family="Helvetica,sans-Serif" font-size="10.00">Kadath::Index</text>
</a>
</g>
</g>
<!-- Node3&#45;&gt;Node14 -->
<g id="edge30" class="edge">
<title>Node3&#45;&gt;Node14</title>
<path fill="none" stroke="midnightblue" d="M67.79,-308.51C76.41,-250.3 104.54,-81.97 146,-48.36 230.48,20.12 370.89,-0.13 436.98,-14.9"/>
<polygon fill="midnightblue" stroke="midnightblue" points="64.3,-308.22 66.33,-318.62 71.23,-309.22 64.3,-308.22"/>
</g>
<!-- Node15 -->
<g id="node15" class="node">
<title>Node15</title>
<g id="a_node15"><a xlink:href="classKadath_1_1Param.html" target="_top" xlink:title=" ">
<polygon fill="none" stroke="black" points="959.5,-569.86 959.5,-588.86 1039.5,-588.86 1039.5,-569.86 959.5,-569.86"/>
<text text-anchor="middle" x="999.5" y="-576.86" font-family="Helvetica,sans-Serif" font-size="10.00">Kadath::Param</text>
</a>
</g>
</g>
<!-- Node3&#45;&gt;Node15 -->
<g id="edge34" class="edge">
<title>Node3&#45;&gt;Node15</title>
<path fill="none" stroke="midnightblue" d="M65.7,-348.26C69.19,-414.79 90.07,-625.36 214.5,-625.36 214.5,-625.36 214.5,-625.36 576,-625.36 717.85,-625.36 884.92,-599.42 959.34,-586.5"/>
<polygon fill="midnightblue" stroke="midnightblue" points="69.18,-347.74 65.24,-337.91 62.19,-348.05 69.18,-347.74"/>
</g>
<!-- Node16 -->
<g id="node16" class="node">
<title>Node16</title>
<g id="a_node16"><a xlink:href="classKadath_1_1Term__eq.html" target="_top" xlink:title=" ">
<polygon fill="none" stroke="black" points="1460,-628.86 1460,-647.86 1550,-647.86 1550,-628.86 1460,-628.86"/>
<text text-anchor="middle" x="1505" y="-635.86" font-family="Helvetica,sans-Serif" font-size="10.00">Kadath::Term_eq</text>
</a>
</g>
</g>
<!-- Node3&#45;&gt;Node16 -->
<g id="edge37" class="edge">
<title>Node3&#45;&gt;Node16</title>
<path fill="none" stroke="midnightblue" d="M66.47,-348.27C71.07,-400.9 88.51,-546.81 146,-651.36 164.16,-684.39 176.81,-701.36 214.5,-701.36 214.5,-701.36 214.5,-701.36 1350,-701.36 1391.36,-701.36 1404.07,-703.85 1442,-687.36 1463.39,-678.07 1483.71,-659.51 1494.95,-648.09"/>
<polygon fill="midnightblue" stroke="midnightblue" points="69.93,-347.67 65.63,-337.99 62.96,-348.24 69.93,-347.67"/>
</g>
<!-- Node17 -->
<g id="node17" class="node">
<title>Node17</title>
<g id="a_node17"><a xlink:href="classKadath_1_1Tensor.html" target="_top" xlink:title=" ">
<polygon fill="none" stroke="black" points="1308,-274.86 1308,-293.86 1390,-293.86 1390,-274.86 1308,-274.86"/>
<text text-anchor="middle" x="1349" y="-281.86" font-family="Helvetica,sans-Serif" font-size="10.00">Kadath::Tensor</text>
</a>
</g>
</g>
<!-- Node3&#45;&gt;Node17 -->
<g id="edge39" class="edge">
<title>Node3&#45;&gt;Node17</title>
<path fill="none" stroke="midnightblue" d="M66.67,-308.57C73.04,-246.9 101.54,-62.36 214.5,-62.36 214.5,-62.36 214.5,-62.36 1193,-62.36 1280.57,-62.36 1260.58,-148.74 1308,-222.36 1319.93,-240.89 1333.89,-262.51 1341.76,-274.7"/>
<polygon fill="midnightblue" stroke="midnightblue" points="63.18,-308.29 65.72,-318.58 70.14,-308.95 63.18,-308.29"/>
</g>
<!-- Node19 -->
<g id="node19" class="node">
<title>Node19</title>
<g id="a_node19"><a xlink:href="classKadath_1_1Base__tensor.html" target="_top" xlink:title=" ">
<polygon fill="none" stroke="black" points="1138.5,-256.86 1138.5,-275.86 1245.5,-275.86 1245.5,-256.86 1138.5,-256.86"/>
<text text-anchor="middle" x="1192" y="-263.86" font-family="Helvetica,sans-Serif" font-size="10.00">Kadath::Base_tensor</text>
</a>
</g>
</g>
<!-- Node3&#45;&gt;Node19 -->
<g id="edge46" class="edge">
<title>Node3&#45;&gt;Node19</title>
<path fill="none" stroke="midnightblue" d="M80.46,-311.46C98.7,-292.69 130.89,-263.1 165,-248.36 324.47,-179.44 378.7,-205.62 552,-193.36 780.05,-177.24 1052.07,-233.6 1151.84,-256.82"/>
<polygon fill="midnightblue" stroke="midnightblue" points="77.87,-309.1 73.53,-318.77 82.95,-313.92 77.87,-309.1"/>
</g>
<!-- Node20 -->
<g id="node20" class="node">
<title>Node20</title>
<g id="a_node20"><a xlink:href="classKadath_1_1Param__tensor.html" target="_top" xlink:title=" ">
<polygon fill="none" stroke="black" points="284,-149.86 284,-168.86 397,-168.86 397,-149.86 284,-149.86"/>
<text text-anchor="middle" x="340.5" y="-156.86" font-family="Helvetica,sans-Serif" font-size="10.00">Kadath::Param_tensor</text>
</a>
</g>
</g>
<!-- Node3&#45;&gt;Node20 -->
<g id="edge50" class="edge">
<title>Node3&#45;&gt;Node20</title>
<path fill="none" stroke="midnightblue" d="M69.59,-308.89C79.58,-271.53 107.17,-190.54 165,-157.36 184.58,-146.13 240.48,-148.65 283.79,-152.72"/>
<polygon fill="midnightblue" stroke="midnightblue" points="66.2,-308.04 67.14,-318.6 72.98,-309.76 66.2,-308.04"/>
</g>
<!-- Node21 -->
<g id="node21" class="node">
<title>Node21</title>
<g id="a_node21"><a xlink:href="classKadath_1_1Metric.html" target="_top" xlink:title=" ">
<polygon fill="none" stroke="black" points="1819.5,-497.86 1819.5,-516.86 1898.5,-516.86 1898.5,-497.86 1819.5,-497.86"/>
<text text-anchor="middle" x="1859" y="-504.86" font-family="Helvetica,sans-Serif" font-size="10.00">Kadath::Metric</text>
</a>
</g>
</g>
<!-- Node3&#45;&gt;Node21 -->
<g id="edge52" class="edge">
<title>Node3&#45;&gt;Node21</title>
<path fill="none" stroke="midnightblue" d="M68.23,-347.9C77.2,-400.32 104.54,-548.02 146,-665.36 160.93,-707.62 169.68,-739.36 214.5,-739.36 214.5,-739.36 214.5,-739.36 1596,-739.36 1690.31,-739.36 1736.52,-745.88 1798,-674.36 1830.58,-636.47 1796.44,-609.35 1816,-563.36 1823.71,-545.25 1838.48,-527.63 1848.29,-517.14"/>
<polygon fill="midnightblue" stroke="midnightblue" points="71.66,-347.23 66.55,-337.95 64.76,-348.39 71.66,-347.23"/>
</g>
<!-- Node4&#45;&gt;Node2 -->
<g id="edge3" class="edge">
<title>Node4&#45;&gt;Node2</title>
<path fill="none" stroke="#9a32cd" stroke-dasharray="5,2" d="M221.89,-447.88C230.35,-474.42 249.43,-521.13 284,-543.36 287.56,-545.65 800.23,-597.41 954.86,-612.97"/>
<polygon fill="#9a32cd" stroke="#9a32cd" points="225.21,-446.76 218.99,-438.18 218.5,-448.76 225.21,-446.76"/>
<text text-anchor="middle" x="667.5" y="-602.36" font-family="Helvetica,sans-Serif" font-size="10.00"> n_cond</text>
<text text-anchor="middle" x="667.5" y="-591.36" font-family="Helvetica,sans-Serif" font-size="10.00">p_cmp_used</text>
</g>
<!-- Node4&#45;&gt;Node6 -->
<g id="edge32" class="edge">
<title>Node4&#45;&gt;Node6</title>
<path fill="none" stroke="#9a32cd" stroke-dasharray="5,2" d="M238.51,-443.56C281.56,-471.77 380.82,-529.36 473.5,-529.36 473.5,-529.36 473.5,-529.36 1350,-529.36 1407.83,-529.36 1569.84,-498.92 1650.96,-482.93"/>
<polygon fill="#9a32cd" stroke="#9a32cd" points="240.23,-440.5 229.97,-437.86 236.34,-446.33 240.23,-440.5"/>
<text text-anchor="middle" x="999.5" y="-543.36" font-family="Helvetica,sans-Serif" font-size="10.00"> assoc_var</text>
<text text-anchor="middle" x="999.5" y="-532.36" font-family="Helvetica,sans-Serif" font-size="10.00">assoc_var_double</text>
</g>
<!-- Node4&#45;&gt;Node13 -->
<g id="edge27" class="edge">
<title>Node4&#45;&gt;Node13</title>
<path fill="none" stroke="#9a32cd" stroke-dasharray="5,2" d="M276.28,-431.62C318.85,-433.94 375.68,-437.03 417.4,-439.31"/>
<polygon fill="#9a32cd" stroke="#9a32cd" points="276.23,-428.11 266.05,-431.06 275.85,-435.1 276.23,-428.11"/>
<text text-anchor="middle" x="340.5" y="-441.36" font-family="Helvetica,sans-Serif" font-size="10.00"> bases_1d</text>
</g>
<!-- Node4&#45;&gt;Node17 -->
<g id="edge44" class="edge">
<title>Node4&#45;&gt;Node17</title>
<path fill="none" stroke="#9a32cd" stroke-dasharray="5,2" d="M271.26,-416.62C307.05,-408.92 354.82,-398.61 397,-389.36 405.01,-387.61 406.95,-386.87 415,-385.36 582.49,-353.97 624.63,-346.09 794,-327.36 807.73,-325.84 1276.28,-294.9 1290,-293.36 1295.77,-292.72 1301.85,-291.91 1307.81,-291.05"/>
<polygon fill="#9a32cd" stroke="#9a32cd" points="270.06,-413.3 261.02,-418.82 271.53,-420.14 270.06,-413.3"/>
<text text-anchor="middle" x="836.5" y="-341.36" font-family="Helvetica,sans-Serif" font-size="10.00"> give_indices</text>
<text text-anchor="middle" x="836.5" y="-330.36" font-family="Helvetica,sans-Serif" font-size="10.00">type_indice</text>
</g>
<!-- Node4&#45;&gt;Node19 -->
<g id="edge48" class="edge">
<title>Node4&#45;&gt;Node19</title>
<path fill="none" stroke="#9a32cd" stroke-dasharray="5,2" d="M241.34,-413.62C253.86,-406.59 269.43,-398.4 284,-392.36 340.23,-369.04 355.92,-367.03 415,-352.36 556.45,-317.26 592.33,-308.03 737,-290.36 881.55,-272.71 1053.56,-268.04 1138.37,-266.8"/>
<polygon fill="#9a32cd" stroke="#9a32cd" points="239.37,-410.72 232.44,-418.73 242.86,-416.79 239.37,-410.72"/>
<text text-anchor="middle" x="756.5" y="-293.36" font-family="Helvetica,sans-Serif" font-size="10.00"> basis</text>
</g>
<!-- Node5&#45;&gt;Node2 -->
<g id="edge5" class="edge">
<title>Node5&#45;&gt;Node2</title>
<path fill="none" stroke="#9a32cd" stroke-dasharray="5,2" d="M1805.35,-709.57C1677.64,-697.73 1341.36,-665.31 1062,-627.36 1056.21,-626.58 1050.13,-625.68 1044.13,-624.75"/>
<polygon fill="#9a32cd" stroke="#9a32cd" points="1805.34,-713.08 1815.62,-710.52 1805.99,-706.11 1805.34,-713.08"/>
<text text-anchor="middle" x="1425" y="-675.36" font-family="Helvetica,sans-Serif" font-size="10.00"> parts</text>
</g>
<!-- Node5&#45;&gt;Node5 -->
<g id="edge7" class="edge">
<title>Node5&#45;&gt;Node5</title>
<path fill="none" stroke="#9a32cd" stroke-dasharray="5,2" d="M1846.11,-734.13C1847.12,-738.86 1851.42,-742.36 1859,-742.36 1871.44,-742.36 1875.04,-732.93 1869.79,-724.12"/>
<polygon fill="#9a32cd" stroke="#9a32cd" points="1849.58,-734.63 1848.21,-724.12 1842.73,-733.19 1849.58,-734.63"/>
<text text-anchor="middle" x="1859" y="-745.36" font-family="Helvetica,sans-Serif" font-size="10.00"> parts</text>
</g>
<!-- Node5&#45;&gt;Node7 -->
<g id="edge12" class="edge">
<title>Node5&#45;&gt;Node7</title>
<path fill="none" stroke="#9a32cd" stroke-dasharray="5,2" d="M1912.55,-716.87C1930.76,-717.74 1950.83,-718.7 1967.73,-719.51"/>
<polygon fill="#9a32cd" stroke="#9a32cd" points="1912.53,-713.37 1902.37,-716.39 1912.2,-720.36 1912.53,-713.37"/>
<text text-anchor="middle" x="1932.5" y="-720.36" font-family="Helvetica,sans-Serif" font-size="10.00"> parts</text>
</g>
<!-- Node22 -->
<g id="node22" class="node">
<title>Node22</title>
<g id="a_node22"><a xlink:href="classKadath_1_1Ope__def.html" target="_top" xlink:title=" ">
<polygon fill="none" stroke="black" points="1963,-653.86 1963,-672.86 2052,-672.86 2052,-653.86 1963,-653.86"/>
<text text-anchor="middle" x="2007.5" y="-660.86" font-family="Helvetica,sans-Serif" font-size="10.00">Kadath::Ope_def</text>
</a>
</g>
</g>
<!-- Node5&#45;&gt;Node22 -->
<g id="edge58" class="edge">
<title>Node5&#45;&gt;Node22</title>
<path fill="none" stroke="midnightblue" d="M1897.26,-701.39C1922.75,-692.52 1955.98,-680.95 1979.07,-672.91"/>
<polygon fill="midnightblue" stroke="midnightblue" points="1895.85,-698.18 1887.56,-704.77 1898.15,-704.79 1895.85,-698.18"/>
</g>
<!-- Node6&#45;&gt;Node5 -->
<g id="edge8" class="edge">
<title>Node6&#45;&gt;Node5</title>
<path fill="none" stroke="#9a32cd" stroke-dasharray="5,2" d="M1723.85,-488.98C1735.98,-498.23 1750.09,-510.94 1759,-525.36 1775.2,-551.6 1764.31,-564.26 1777,-592.36 1787.73,-616.11 1833.22,-680.06 1850.91,-704.59"/>
<polygon fill="#9a32cd" stroke="#9a32cd" points="1725.61,-485.94 1715.46,-482.89 1721.49,-491.6 1725.61,-485.94"/>
<text text-anchor="middle" x="1787.5" y="-628.36" font-family="Helvetica,sans-Serif" font-size="10.00"> syst</text>
</g>
<!-- Node6&#45;&gt;Node21 -->
<g id="edge54" class="edge">
<title>Node6&#45;&gt;Node21</title>
<path fill="none" stroke="#9a32cd" stroke-dasharray="5,2" d="M1754.68,-485.06C1775.96,-489.65 1799.91,-494.82 1819.39,-499.03"/>
<polygon fill="#9a32cd" stroke="#9a32cd" points="1755.31,-481.61 1744.79,-482.92 1753.83,-488.46 1755.31,-481.61"/>
<text text-anchor="middle" x="1787.5" y="-498.36" font-family="Helvetica,sans-Serif" font-size="10.00"> syst</text>
</g>
<!-- Node7&#45;&gt;Node6 -->
<g id="edge10" class="edge">
<title>Node7&#45;&gt;Node6</title>
<path fill="none" stroke="#9a32cd" stroke-dasharray="5,2" d="M1987,-705.24C1945.33,-670.85 1844.47,-587.84 1759,-519.36 1743.27,-506.76 1724.99,-492.44 1713.1,-483.17"/>
<polygon fill="#9a32cd" stroke="#9a32cd" points="1985.02,-708.15 1994.96,-711.82 1989.48,-702.76 1985.02,-708.15"/>
<text text-anchor="middle" x="1859" y="-637.36" font-family="Helvetica,sans-Serif" font-size="10.00"> eq_int</text>
</g>
<!-- Node8&#45;&gt;Node6 -->
<g id="edge13" class="edge">
<title>Node8&#45;&gt;Node6</title>
<path fill="none" stroke="#9a32cd" stroke-dasharray="5,2" d="M1049.98,-141.07C1100.04,-141.77 1179.36,-145.66 1246,-161.36 1387.7,-194.76 1417.89,-222.19 1550,-283.36 1582.83,-298.57 1596.66,-295.53 1622,-321.36 1664.82,-365.02 1688.41,-437.46 1695.87,-463.59"/>
<polygon fill="#9a32cd" stroke="#9a32cd" points="1049.79,-137.57 1039.75,-140.96 1049.72,-144.57 1049.79,-137.57"/>
<text text-anchor="middle" x="1349" y="-210.36" font-family="Helvetica,sans-Serif" font-size="10.00"> espace</text>
</g>
<!-- Node8&#45;&gt;Node17 -->
<g id="edge40" class="edge">
<title>Node8&#45;&gt;Node17</title>
<path fill="none" stroke="#9a32cd" stroke-dasharray="5,2" d="M1049.73,-148.76C1121.55,-160.25 1250.76,-183.73 1290,-209.36 1315.77,-226.2 1334.84,-258.46 1343.25,-274.62"/>
<polygon fill="#9a32cd" stroke="#9a32cd" points="1050,-145.26 1039.57,-147.16 1048.9,-152.18 1050,-145.26"/>
<text text-anchor="middle" x="1192" y="-194.36" font-family="Helvetica,sans-Serif" font-size="10.00"> espace</text>
</g>
<!-- Node8&#45;&gt;Node19 -->
<g id="edge47" class="edge">
<title>Node8&#45;&gt;Node19</title>
<path fill="none" stroke="#9a32cd" stroke-dasharray="5,2" d="M1023.64,-156.54C1063.34,-182.6 1143.37,-235.11 1176.32,-256.73"/>
<polygon fill="#9a32cd" stroke="#9a32cd" points="1025.41,-153.52 1015.13,-150.96 1021.57,-159.38 1025.41,-153.52"/>
<text text-anchor="middle" x="1091" y="-222.36" font-family="Helvetica,sans-Serif" font-size="10.00"> space</text>
</g>
<!-- Node8&#45;&gt;Node21 -->
<g id="edge53" class="edge">
<title>Node8&#45;&gt;Node21</title>
<path fill="none" stroke="#9a32cd" stroke-dasharray="5,2" d="M1036.83,-128.74C1074.8,-116.69 1136.34,-100.36 1191,-100.36 1191,-100.36 1191,-100.36 1700.5,-100.36 1791.31,-100.36 1753.62,-426.36 1816,-492.36 1817.91,-494.39 1820.12,-496.14 1822.5,-497.66"/>
<polygon fill="#9a32cd" stroke="#9a32cd" points="1035.67,-125.44 1027.24,-131.85 1037.83,-132.1 1035.67,-125.44"/>
<text text-anchor="middle" x="1425" y="-103.36" font-family="Helvetica,sans-Serif" font-size="10.00"> espace</text>
</g>
<!-- Node9&#45;&gt;Node2 -->
<g id="edge60" class="edge">
<title>Node9&#45;&gt;Node2</title>
<path fill="none" stroke="#9a32cd" stroke-dasharray="5,2" d="M842.6,-387.99C854.85,-431.49 889.82,-537.01 955,-598.36 958.96,-602.09 963.77,-605.16 968.73,-607.66"/>
<polygon fill="#9a32cd" stroke="#9a32cd" points="845.92,-386.84 839.92,-378.11 839.16,-388.67 845.92,-386.84"/>
<text text-anchor="middle" x="917" y="-580.36" font-family="Helvetica,sans-Serif" font-size="10.00"> dom</text>
</g>
<!-- Node9&#45;&gt;Node8 -->
<g id="edge15" class="edge">
<title>Node9&#45;&gt;Node8</title>
<path fill="none" stroke="#9a32cd" stroke-dasharray="5,2" d="M867.39,-353.63C871.54,-350.87 875.56,-347.77 879,-344.36 941.12,-282.72 982.89,-182.28 994.92,-150.98"/>
<polygon fill="#9a32cd" stroke="#9a32cd" points="865.57,-350.64 858.8,-358.79 869.17,-356.64 865.57,-350.64"/>
<text text-anchor="middle" x="917" y="-324.36" font-family="Helvetica,sans-Serif" font-size="10.00"> domains</text>
</g>
<!-- Node9&#45;&gt;Node12 -->
<g id="edge28" class="edge">
<title>Node9&#45;&gt;Node12</title>
<path fill="none" stroke="#9a32cd" stroke-dasharray="5,2" d="M821.18,-385.53C810.2,-397.27 793.92,-411.83 776,-418.36 755.64,-425.78 731.66,-425.45 711.52,-422.87"/>
<polygon fill="#9a32cd" stroke="#9a32cd" points="823.85,-387.79 827.89,-377.99 818.62,-383.13 823.85,-387.79"/>
<text text-anchor="middle" x="756.5" y="-428.36" font-family="Helvetica,sans-Serif" font-size="10.00"> zone</text>
</g>
<!-- Node10&#45;&gt;Node9 -->
<g id="edge17" class="edge">
<title>Node10&#45;&gt;Node9</title>
<path fill="none" stroke="#9a32cd" stroke-dasharray="5,2" d="M273.49,-178.81C408.67,-185.15 740.11,-204.06 776,-238.36 810.54,-271.38 766.73,-305.12 794,-344.36 798.18,-350.38 804.39,-355.09 810.74,-358.69"/>
<polygon fill="#9a32cd" stroke="#9a32cd" points="273.49,-175.3 263.34,-178.34 273.16,-182.3 273.49,-175.3"/>
<text text-anchor="middle" x="575" y="-216.36" font-family="Helvetica,sans-Serif" font-size="10.00"> nbr_coefs</text>
<text text-anchor="middle" x="575" y="-205.36" font-family="Helvetica,sans-Serif" font-size="10.00">nbr_points</text>
</g>
<!-- Node10&#45;&gt;Node14 -->
<g id="edge31" class="edge">
<title>Node10&#45;&gt;Node14</title>
<path fill="none" stroke="#9a32cd" stroke-dasharray="5,2" d="M238.92,-161.27C251.96,-152.61 268.77,-141.66 284,-132.36 346.23,-94.4 422.02,-52.46 455.79,-33.99"/>
<polygon fill="#9a32cd" stroke="#9a32cd" points="236.94,-158.38 230.57,-166.84 240.83,-164.2 236.94,-158.38"/>
<text text-anchor="middle" x="340.5" y="-135.36" font-family="Helvetica,sans-Serif" font-size="10.00"> sizes</text>
</g>
<!-- Node11&#45;&gt;Node6 -->
<g id="edge35" class="edge">
<title>Node11&#45;&gt;Node6</title>
<path fill="none" stroke="#9a32cd" stroke-dasharray="5,2" d="M520.44,-417.36C525.1,-419.18 529.7,-421.18 534,-423.36 542.8,-427.83 543.69,-431.05 552,-436.36 579.49,-453.94 584.43,-464.09 616,-472.36 660.28,-483.96 673.22,-472.53 719,-472.36 843.22,-471.92 874.27,-470.36 998.5,-470.36 998.5,-470.36 998.5,-470.36 1278,-470.36 1407.22,-470.36 1558.77,-471.8 1640,-472.68"/>
<polygon fill="#9a32cd" stroke="#9a32cd" points="521.45,-414 510.86,-413.88 519.07,-420.58 521.45,-414"/>
<text text-anchor="middle" x="1091" y="-473.36" font-family="Helvetica,sans-Serif" font-size="10.00"> val_cst_hard</text>
</g>
<!-- Node11&#45;&gt;Node9 -->
<g id="edge19" class="edge">
<title>Node11&#45;&gt;Node9</title>
<path fill="none" stroke="#9a32cd" stroke-dasharray="5,2" d="M530.88,-392.84C583.6,-382.49 665.3,-368.08 737,-362.36 755.62,-360.88 776.24,-361.74 793.78,-363.23"/>
<polygon fill="#9a32cd" stroke="#9a32cd" points="530.18,-389.41 521.05,-394.78 531.54,-396.27 530.18,-389.41"/>
<text text-anchor="middle" x="667.5" y="-381.36" font-family="Helvetica,sans-Serif" font-size="10.00"> coloc</text>
</g>
<!-- Node11&#45;&gt;Node12 -->
<g id="edge23" class="edge">
<title>Node11&#45;&gt;Node12</title>
<path fill="none" stroke="#9a32cd" stroke-dasharray="5,2" d="M544.39,-407.61C567.96,-408.72 593.88,-409.94 615.76,-410.97"/>
<polygon fill="#9a32cd" stroke="#9a32cd" points="544.26,-404.1 534.1,-407.12 543.93,-411.09 544.26,-404.1"/>
<text text-anchor="middle" x="575" y="-424.36" font-family="Helvetica,sans-Serif" font-size="10.00"> c</text>
<text text-anchor="middle" x="575" y="-413.36" font-family="Helvetica,sans-Serif" font-size="10.00">cf</text>
</g>
<!-- Node12&#45;&gt;Node9 -->
<g id="edge21" class="edge">
<title>Node12&#45;&gt;Node9</title>
<path fill="none" stroke="#9a32cd" stroke-dasharray="5,2" d="M701.14,-399.33C707.23,-396.31 713.42,-392.93 719,-389.36 727.77,-383.75 727.32,-378.2 737,-374.36 754.84,-367.28 775.92,-365.25 793.99,-365.2"/>
<polygon fill="#9a32cd" stroke="#9a32cd" points="699.31,-396.33 691.77,-403.78 702.31,-402.65 699.31,-396.33"/>
<text text-anchor="middle" x="756.5" y="-410.36" font-family="Helvetica,sans-Serif" font-size="10.00"> absol</text>
<text text-anchor="middle" x="756.5" y="-399.36" font-family="Helvetica,sans-Serif" font-size="10.00">cart</text>
<text text-anchor="middle" x="756.5" y="-388.36" font-family="Helvetica,sans-Serif" font-size="10.00">cart_surr</text>
<text text-anchor="middle" x="756.5" y="-377.36" font-family="Helvetica,sans-Serif" font-size="10.00">radius</text>
</g>
<!-- Node12&#45;&gt;Node12 -->
<g id="edge24" class="edge">
<title>Node12&#45;&gt;Node12</title>
<path fill="none" stroke="#9a32cd" stroke-dasharray="5,2" d="M651.2,-432.76C652.29,-437.68 657.72,-441.36 667.5,-441.36 683.14,-441.36 687.66,-431.93 681.06,-423.12"/>
<polygon fill="#9a32cd" stroke="#9a32cd" points="654.58,-433.7 653.94,-423.12 647.84,-431.79 654.58,-433.7"/>
<text text-anchor="middle" x="667.5" y="-455.36" font-family="Helvetica,sans-Serif" font-size="10.00"> p_der_abs</text>
<text text-anchor="middle" x="667.5" y="-444.36" font-family="Helvetica,sans-Serif" font-size="10.00">p_der_var</text>
</g>
<!-- Node18 -->
<g id="node18" class="node">
<title>Node18</title>
<g id="a_node18"><a xlink:href="classKadath_1_1Scalar.html" target="_top" xlink:title=" ">
<polygon fill="none" stroke="black" points="1465,-333.86 1465,-352.86 1545,-352.86 1545,-333.86 1465,-333.86"/>
<text text-anchor="middle" x="1505" y="-340.86" font-family="Helvetica,sans-Serif" font-size="10.00">Kadath::Scalar</text>
</a>
</g>
</g>
<!-- Node12&#45;&gt;Node18 -->
<g id="edge43" class="edge">
<title>Node12&#45;&gt;Node18</title>
<path fill="none" stroke="#9a32cd" stroke-dasharray="5,2" d="M696.29,-427.06C708.47,-432.34 723.13,-437.73 737,-440.36 754.03,-443.6 758.7,-441.51 776,-440.36 810.83,-438.05 1318.84,-368.71 1464.96,-348.71"/>
<polygon fill="#9a32cd" stroke="#9a32cd" points="697.67,-423.85 687.12,-422.91 694.79,-430.22 697.67,-423.85"/>
<text text-anchor="middle" x="1091" y="-406.36" font-family="Helvetica,sans-Serif" font-size="10.00"> val_zones</text>
</g>
<!-- Node13&#45;&gt;Node12 -->
<g id="edge25" class="edge">
<title>Node13&#45;&gt;Node12</title>
<path fill="none" stroke="#9a32cd" stroke-dasharray="5,2" d="M541.7,-442.44C560.05,-441.57 579.9,-439.78 598,-436.36 613.53,-433.43 630.37,-427.82 643.46,-422.87"/>
<polygon fill="#9a32cd" stroke="#9a32cd" points="541.53,-438.95 531.68,-442.84 541.81,-445.94 541.53,-438.95"/>
<text text-anchor="middle" x="575" y="-445.36" font-family="Helvetica,sans-Serif" font-size="10.00"> base</text>
</g>
<!-- Node14&#45;&gt;Node6 -->
<g id="edge29" class="edge">
<title>Node14&#45;&gt;Node6</title>
<path fill="none" stroke="#9a32cd" stroke-dasharray="5,2" d="M522.53,-24.36C561.19,-24.36 617.4,-24.36 666.5,-24.36 666.5,-24.36 666.5,-24.36 1092,-24.36 1249.4,-24.36 1304.36,-2.01 1442,-78.36 1605.38,-168.99 1681.45,-412.53 1695.91,-463.81"/>
<polygon fill="#9a32cd" stroke="#9a32cd" points="522.12,-20.86 512.12,-24.36 522.12,-27.86 522.12,-20.86"/>
<text text-anchor="middle" x="1091" y="-27.36" font-family="Helvetica,sans-Serif" font-size="10.00"> which_coef</text>
</g>
<!-- Node15&#45;&gt;Node1 -->
<g id="edge61" class="edge">
<title>Node15&#45;&gt;Node1</title>
<path fill="none" stroke="#9a32cd" stroke-dasharray="5,2" d="M1049.84,-568.87C1053.94,-568.27 1058.03,-567.75 1062,-567.36 1086.88,-564.96 1114.56,-565.79 1137.88,-567.49"/>
<polygon fill="#9a32cd" stroke="#9a32cd" points="1049,-565.47 1039.7,-570.54 1050.14,-572.37 1049,-565.47"/>
<text text-anchor="middle" x="1091" y="-570.36" font-family="Helvetica,sans-Serif" font-size="10.00"> parameters</text>
</g>
<!-- Node15&#45;&gt;Node6 -->
<g id="edge33" class="edge">
<title>Node15&#45;&gt;Node6</title>
<path fill="none" stroke="#9a32cd" stroke-dasharray="5,2" d="M1035.45,-564.11C1038.7,-561.58 1041.65,-558.67 1044,-555.36 1071.89,-516.02 1028.71,-483.26 1062,-448.36 1102.5,-405.91 1132.33,-420.36 1191,-420.36 1191,-420.36 1191,-420.36 1506,-420.36 1570.65,-420.36 1643.27,-448.49 1677.93,-463.76"/>
<polygon fill="#9a32cd" stroke="#9a32cd" points="1033.37,-561.29 1026.9,-569.67 1037.19,-567.15 1033.37,-561.29"/>
<text text-anchor="middle" x="1349" y="-434.36" font-family="Helvetica,sans-Serif" font-size="10.00"> paruser</text>
<text text-anchor="middle" x="1349" y="-423.36" font-family="Helvetica,sans-Serif" font-size="10.00">paruser_bin</text>
</g>
<!-- Node16&#45;&gt;Node6 -->
<g id="edge36" class="edge">
<title>Node16&#45;&gt;Node6</title>
<path fill="none" stroke="#9a32cd" stroke-dasharray="5,2" d="M1517.63,-620.14C1533.67,-595.18 1561.39,-552.8 1568,-547.36 1588.16,-530.8 1599.05,-536.76 1622,-524.36 1645.45,-511.69 1670.86,-493.85 1685.69,-482.97"/>
<polygon fill="#9a32cd" stroke="#9a32cd" points="1514.56,-618.43 1512.12,-628.74 1520.46,-622.21 1514.56,-618.43"/>
<text text-anchor="middle" x="1595" y="-616.36" font-family="Helvetica,sans-Serif" font-size="10.00"> cst</text>
<text text-anchor="middle" x="1595" y="-605.36" font-family="Helvetica,sans-Serif" font-size="10.00">cst_hard</text>
<text text-anchor="middle" x="1595" y="-594.36" font-family="Helvetica,sans-Serif" font-size="10.00">opeuser</text>
<text text-anchor="middle" x="1595" y="-583.36" font-family="Helvetica,sans-Serif" font-size="10.00">opeuser_bin</text>
<text text-anchor="middle" x="1595" y="-572.36" font-family="Helvetica,sans-Serif" font-size="10.00">results</text>
<text text-anchor="middle" x="1595" y="-561.36" font-family="Helvetica,sans-Serif" font-size="10.00">term</text>
<text text-anchor="middle" x="1595" y="-550.36" font-family="Helvetica,sans-Serif" font-size="10.00">term_double</text>
</g>
<!-- Node16&#45;&gt;Node21 -->
<g id="edge55" class="edge">
<title>Node16&#45;&gt;Node21</title>
<path fill="none" stroke="#9a32cd" stroke-dasharray="5,2" d="M1560.06,-644.01C1581.56,-643.4 1605.15,-638.74 1622,-624.36 1644.15,-605.46 1619.05,-581.59 1640,-561.36 1665.39,-536.86 1763.85,-520.01 1819.37,-512.24"/>
<polygon fill="#9a32cd" stroke="#9a32cd" points="1560.03,-640.51 1550.03,-644.02 1560.04,-647.51 1560.03,-640.51"/>
<text text-anchor="middle" x="1699.5" y="-641.36" font-family="Helvetica,sans-Serif" font-size="10.00"> p_christo</text>
<text text-anchor="middle" x="1699.5" y="-630.36" font-family="Helvetica,sans-Serif" font-size="10.00">p_det_cov</text>
<text text-anchor="middle" x="1699.5" y="-619.36" font-family="Helvetica,sans-Serif" font-size="10.00">p_dirac</text>
<text text-anchor="middle" x="1699.5" y="-608.36" font-family="Helvetica,sans-Serif" font-size="10.00">p_met_con</text>
<text text-anchor="middle" x="1699.5" y="-597.36" font-family="Helvetica,sans-Serif" font-size="10.00">p_met_cov</text>
<text text-anchor="middle" x="1699.5" y="-586.36" font-family="Helvetica,sans-Serif" font-size="10.00">p_ricci_scalar</text>
<text text-anchor="middle" x="1699.5" y="-575.36" font-family="Helvetica,sans-Serif" font-size="10.00">p_ricci_tensor</text>
<text text-anchor="middle" x="1699.5" y="-564.36" font-family="Helvetica,sans-Serif" font-size="10.00">p_riemann</text>
</g>
<!-- Node16&#45;&gt;Node22 -->
<g id="edge59" class="edge">
<title>Node16&#45;&gt;Node22</title>
<path fill="none" stroke="#9a32cd" stroke-dasharray="5,2" d="M1560.33,-646.59C1562.92,-646.88 1565.49,-647.14 1568,-647.36 1712.15,-660.42 1883.87,-662.91 1962.83,-663.32"/>
<polygon fill="#9a32cd" stroke="#9a32cd" points="1560.64,-643.1 1550.3,-645.38 1559.81,-650.05 1560.64,-643.1"/>
<text text-anchor="middle" x="1787.5" y="-662.36" font-family="Helvetica,sans-Serif" font-size="10.00"> res</text>
</g>
<!-- Node17&#45;&gt;Node6 -->
<g id="edge56" class="edge">
<title>Node17&#45;&gt;Node6</title>
<path fill="none" stroke="#9a32cd" stroke-dasharray="5,2" d="M1400.4,-282.58C1442.65,-283.14 1503.36,-288.89 1550,-313.36 1620.81,-350.52 1675.77,-435.12 1692.91,-463.71"/>
<polygon fill="#9a32cd" stroke="#9a32cd" points="1400.36,-279.08 1390.35,-282.54 1400.33,-286.08 1400.36,-279.08"/>
<text text-anchor="middle" x="1505" y="-316.36" font-family="Helvetica,sans-Serif" font-size="10.00"> var</text>
</g>
<!-- Node17&#45;&gt;Node16 -->
<g id="edge38" class="edge">
<title>Node17&#45;&gt;Node16</title>
<path fill="none" stroke="#9a32cd" stroke-dasharray="5,2" d="M1358.42,-303.72C1386.91,-369.21 1479.04,-580.99 1499.81,-628.74"/>
<polygon fill="#9a32cd" stroke="#9a32cd" points="1361.48,-301.97 1354.28,-294.2 1355.06,-304.77 1361.48,-301.97"/>
<text text-anchor="middle" x="1425" y="-507.36" font-family="Helvetica,sans-Serif" font-size="10.00"> der_t</text>
<text text-anchor="middle" x="1425" y="-496.36" font-family="Helvetica,sans-Serif" font-size="10.00">val_t</text>
</g>
<!-- Node17&#45;&gt;Node18 -->
<g id="edge42" class="edge">
<title>Node17&#45;&gt;Node18</title>
<path fill="none" stroke="midnightblue" d="M1366.68,-301.11C1377.52,-310.97 1392.49,-322.76 1408,-329.36 1425.82,-336.95 1447.01,-340.54 1464.93,-342.2"/>
<polygon fill="midnightblue" stroke="midnightblue" points="1368.91,-298.41 1359.25,-294.07 1364.1,-303.49 1368.91,-298.41"/>
</g>
<!-- Node18&#45;&gt;Node17 -->
<g id="edge41" class="edge">
<title>Node18&#45;&gt;Node17</title>
<path fill="none" stroke="#9a32cd" stroke-dasharray="5,2" d="M1471.35,-329.99C1461.91,-326.18 1451.56,-322.06 1442,-318.36 1420.08,-309.9 1395.06,-300.68 1376.65,-293.98"/>
<polygon fill="#9a32cd" stroke="#9a32cd" points="1470.22,-333.31 1480.8,-333.82 1472.85,-326.82 1470.22,-333.31"/>
<text text-anchor="middle" x="1425" y="-321.36" font-family="Helvetica,sans-Serif" font-size="10.00"> cmp</text>
</g>
<!-- Node19&#45;&gt;Node17 -->
<g id="edge45" class="edge">
<title>Node19&#45;&gt;Node17</title>
<path fill="none" stroke="#9a32cd" stroke-dasharray="5,2" d="M1256.01,-273.68C1273.41,-275.7 1291.82,-277.84 1307.56,-279.67"/>
<polygon fill="#9a32cd" stroke="#9a32cd" points="1256.25,-270.18 1245.91,-272.51 1255.44,-277.14 1256.25,-270.18"/>
<text text-anchor="middle" x="1277" y="-281.36" font-family="Helvetica,sans-Serif" font-size="10.00"> basis</text>
</g>
<!-- Node20&#45;&gt;Node17 -->
<g id="edge49" class="edge">
<title>Node20&#45;&gt;Node17</title>
<path fill="none" stroke="#9a32cd" stroke-dasharray="5,2" d="M407.31,-155.74C542.66,-149.86 861.29,-144.18 1120,-202.36 1198.59,-220.04 1287.19,-257.15 1326.84,-274.74"/>
<polygon fill="#9a32cd" stroke="#9a32cd" points="406.94,-152.25 397.1,-156.2 407.25,-159.24 406.94,-152.25"/>
<text text-anchor="middle" x="836.5" y="-169.36" font-family="Helvetica,sans-Serif" font-size="10.00"> parameters</text>
</g>
<!-- Node21&#45;&gt;Node6 -->
<g id="edge51" class="edge">
<title>Node21&#45;&gt;Node6</title>
<path fill="none" stroke="#9a32cd" stroke-dasharray="5,2" d="M1836.53,-492.17C1825.55,-485.3 1811.66,-477.94 1798,-474.36 1785.64,-471.12 1772.09,-469.7 1759.12,-469.32"/>
<polygon fill="#9a32cd" stroke="#9a32cd" points="1834.71,-495.16 1844.99,-497.72 1838.55,-489.31 1834.71,-495.16"/>
<text text-anchor="middle" x="1787.5" y="-477.36" font-family="Helvetica,sans-Serif" font-size="10.00"> met</text>
</g>
<!-- Node22&#45;&gt;Node6 -->
<g id="edge57" class="edge">
<title>Node22&#45;&gt;Node6</title>
<path fill="none" stroke="#9a32cd" stroke-dasharray="5,2" d="M2001.87,-643.54C1991.53,-604.24 1962.58,-516.83 1902,-477.36 1851.43,-444.42 1777.52,-454.06 1734.69,-463.85"/>
<polygon fill="#9a32cd" stroke="#9a32cd" points="1998.53,-644.63 2004.35,-653.48 2005.32,-642.93 1998.53,-644.63"/>
<text text-anchor="middle" x="1859" y="-480.36" font-family="Helvetica,sans-Serif" font-size="10.00"> def</text>
</g>
</g>
</svg>
