<?xml version="1.0" encoding="UTF-8" standalone="no"?>
<!DOCTYPE svg PUBLIC "-//W3C//DTD SVG 1.1//EN"
 "http://www.w3.org/Graphics/SVG/1.1/DTD/svg11.dtd">
<!-- Generated by graphviz version 2.47.1 (20210515.0534)
 -->
<!-- Title: Kadath::Term_eq Pages: 1 -->
<svg width="1221pt" height="471pt"
 viewBox="0.00 0.00 1221.00 471.18" xmlns="http://www.w3.org/2000/svg" xmlns:xlink="http://www.w3.org/1999/xlink">
<g id="graph0" class="graph" transform="scale(1 1) rotate(0) translate(4 467.18)">
<title>Kadath::Term_eq</title>
<!-- Node1 -->
<g id="node1" class="node">
<title>Node1</title>
<g id="a_node1"><a xlink:title=" ">
<polygon fill="#bfbfbf" stroke="black" points="1123,-424.68 1123,-443.68 1213,-443.68 1213,-424.68 1123,-424.68"/>
<text text-anchor="middle" x="1168" y="-431.68" font-family="Helvetica,sans-Serif" font-size="10.00">Kadath::Term_eq</text>
</a>
</g>
</g>
<!-- Node2 -->
<g id="node2" class="node">
<title>Node2</title>
<g id="a_node2"><a xlink:href="structKadath_1_1MemoryMappable.html" target="_top" xlink:title=" ">
<polygon fill="none" stroke="black" points="0,-232.68 0,-251.68 128,-251.68 128,-232.68 0,-232.68"/>
<text text-anchor="middle" x="64" y="-239.68" font-family="Helvetica,sans-Serif" font-size="10.00">Kadath::MemoryMappable</text>
</a>
</g>
</g>
<!-- Node2&#45;&gt;Node1 -->
<g id="edge1" class="edge">
<title>Node2&#45;&gt;Node1</title>
<path fill="none" stroke="midnightblue" d="M69.15,-262.06C81.76,-316.36 124.98,-463.18 223.5,-463.18 223.5,-463.18 223.5,-463.18 1022,-463.18 1062.43,-463.18 1108,-452.2 1137.08,-443.75"/>
<polygon fill="midnightblue" stroke="midnightblue" points="72.49,-260.97 66.91,-251.96 65.66,-262.48 72.49,-260.97"/>
</g>
<!-- Node3 -->
<g id="node3" class="node">
<title>Node3</title>
<g id="a_node3"><a xlink:href="classKadath_1_1Tensor.html" target="_top" xlink:title=" ">
<polygon fill="none" stroke="black" points="980,-305.68 980,-324.68 1062,-324.68 1062,-305.68 980,-305.68"/>
<text text-anchor="middle" x="1021" y="-312.68" font-family="Helvetica,sans-Serif" font-size="10.00">Kadath::Tensor</text>
</a>
</g>
</g>
<!-- Node2&#45;&gt;Node3 -->
<g id="edge3" class="edge">
<title>Node2&#45;&gt;Node3</title>
<path fill="none" stroke="midnightblue" d="M75.18,-260.83C97.03,-298.09 152.27,-378.18 223.5,-378.18 223.5,-378.18 223.5,-378.18 845.5,-378.18 907.66,-378.18 975.28,-342.37 1004.79,-324.75"/>
<polygon fill="midnightblue" stroke="midnightblue" points="78.12,-258.92 70.13,-251.96 72.03,-262.38 78.12,-258.92"/>
</g>
<!-- Node4 -->
<g id="node4" class="node">
<title>Node4</title>
<g id="a_node4"><a xlink:href="classKadath_1_1Space.html" target="_top" xlink:title=" ">
<polygon fill="none" stroke="black" points="634.5,-254.68 634.5,-273.68 714.5,-273.68 714.5,-254.68 634.5,-254.68"/>
<text text-anchor="middle" x="674.5" y="-261.68" font-family="Helvetica,sans-Serif" font-size="10.00">Kadath::Space</text>
</a>
</g>
</g>
<!-- Node2&#45;&gt;Node4 -->
<g id="edge5" class="edge">
<title>Node2&#45;&gt;Node4</title>
<path fill="none" stroke="midnightblue" d="M116.1,-253.74C131.71,-256.77 148.98,-259.62 165,-261.18 339.42,-278.12 549.08,-270.59 634.46,-266.36"/>
<polygon fill="midnightblue" stroke="midnightblue" points="116.61,-250.27 106.11,-251.73 115.23,-257.13 116.61,-250.27"/>
</g>
<!-- Node5 -->
<g id="node5" class="node">
<title>Node5</title>
<g id="a_node5"><a xlink:href="classKadath_1_1Domain.html" target="_top" xlink:title=" ">
<polygon fill="none" stroke="black" points="447.5,-123.68 447.5,-142.68 532.5,-142.68 532.5,-123.68 447.5,-123.68"/>
<text text-anchor="middle" x="490" y="-130.68" font-family="Helvetica,sans-Serif" font-size="10.00">Kadath::Domain</text>
</a>
</g>
</g>
<!-- Node2&#45;&gt;Node5 -->
<g id="edge7" class="edge">
<title>Node2&#45;&gt;Node5</title>
<path fill="none" stroke="midnightblue" d="M122.19,-230.73C136.17,-228.1 151.1,-225.41 165,-223.18 275.65,-205.38 311.5,-233.18 415,-190.18 441.66,-179.1 467.02,-155.87 480,-142.74"/>
<polygon fill="midnightblue" stroke="midnightblue" points="121.38,-227.33 112.21,-232.64 122.69,-234.2 121.38,-227.33"/>
</g>
<!-- Node6 -->
<g id="node6" class="node">
<title>Node6</title>
<g id="a_node6"><a xlink:href="classKadath_1_1Dim__array.html" target="_top" xlink:title=" ">
<polygon fill="none" stroke="black" points="177,-144.68 177,-163.68 272,-163.68 272,-144.68 177,-144.68"/>
<text text-anchor="middle" x="224.5" y="-151.68" font-family="Helvetica,sans-Serif" font-size="10.00">Kadath::Dim_array</text>
</a>
</g>
</g>
<!-- Node2&#45;&gt;Node6 -->
<g id="edge9" class="edge">
<title>Node2&#45;&gt;Node6</title>
<path fill="none" stroke="midnightblue" d="M87.33,-226.67C103.32,-215.86 125.56,-201.42 146,-190.18 163.94,-180.31 185.06,-170.62 200.72,-163.78"/>
<polygon fill="midnightblue" stroke="midnightblue" points="84.98,-224.04 78.7,-232.57 88.93,-229.82 84.98,-224.04"/>
</g>
<!-- Node7 -->
<g id="node7" class="node">
<title>Node7</title>
<g id="a_node7"><a xlink:href="classKadath_1_1Array.html" target="_top" xlink:title=" ">
<polygon fill="none" stroke="black" points="165,-94.68 165,-113.68 284,-113.68 284,-94.68 165,-94.68"/>
<text text-anchor="middle" x="224.5" y="-101.68" font-family="Helvetica,sans-Serif" font-size="10.00">Kadath::Array&lt; double &gt;</text>
</a>
</g>
</g>
<!-- Node2&#45;&gt;Node7 -->
<g id="edge11" class="edge">
<title>Node2&#45;&gt;Node7</title>
<path fill="none" stroke="midnightblue" d="M78.42,-224.52C96.33,-201.79 129.88,-162.05 165,-135.18 176.14,-126.65 189.94,-119.21 201.35,-113.76"/>
<polygon fill="midnightblue" stroke="midnightblue" points="75.52,-222.55 72.15,-232.6 81.04,-226.84 75.52,-222.55"/>
</g>
<!-- Node8 -->
<g id="node8" class="node">
<title>Node8</title>
<g id="a_node8"><a xlink:href="classKadath_1_1Val__domain.html" target="_top" xlink:title=" ">
<polygon fill="none" stroke="black" points="623,-72.68 623,-91.68 726,-91.68 726,-72.68 623,-72.68"/>
<text text-anchor="middle" x="674.5" y="-79.68" font-family="Helvetica,sans-Serif" font-size="10.00">Kadath::Val_domain</text>
</a>
</g>
</g>
<!-- Node2&#45;&gt;Node8 -->
<g id="edge13" class="edge">
<title>Node2&#45;&gt;Node8</title>
<path fill="none" stroke="midnightblue" d="M68.73,-222.57C77.49,-182.49 103.5,-91.53 165,-51.18 307.13,42.08 377.52,-19.11 547,-32.18 573.01,-34.18 580.47,-32.31 605,-41.18 625.86,-48.71 647.4,-62.84 660.63,-72.38"/>
<polygon fill="midnightblue" stroke="midnightblue" points="65.28,-221.95 66.7,-232.45 72.14,-223.36 65.28,-221.95"/>
</g>
<!-- Node9 -->
<g id="node9" class="node">
<title>Node9</title>
<g id="a_node9"><a xlink:href="classKadath_1_1Base__spectral.html" target="_top" xlink:title=" ">
<polygon fill="none" stroke="black" points="433,-72.68 433,-91.68 547,-91.68 547,-72.68 433,-72.68"/>
<text text-anchor="middle" x="490" y="-79.68" font-family="Helvetica,sans-Serif" font-size="10.00">Kadath::Base_spectral</text>
</a>
</g>
</g>
<!-- Node2&#45;&gt;Node9 -->
<g id="edge17" class="edge">
<title>Node2&#45;&gt;Node9</title>
<path fill="none" stroke="midnightblue" d="M70.74,-222.41C82.11,-187.32 111.2,-115.02 165,-85.18 258.95,-33.06 393.07,-57.04 455.12,-72.58"/>
<polygon fill="midnightblue" stroke="midnightblue" points="67.26,-221.81 67.66,-232.4 73.95,-223.87 67.26,-221.81"/>
</g>
<!-- Node10 -->
<g id="node10" class="node">
<title>Node10</title>
<g id="a_node10"><a xlink:href="classKadath_1_1Array.html" target="_top" xlink:title=" ">
<polygon fill="none" stroke="black" points="174,-232.68 174,-251.68 275,-251.68 275,-232.68 174,-232.68"/>
<text text-anchor="middle" x="224.5" y="-239.68" font-family="Helvetica,sans-Serif" font-size="10.00">Kadath::Array&lt; int &gt;</text>
</a>
</g>
</g>
<!-- Node2&#45;&gt;Node10 -->
<g id="edge19" class="edge">
<title>Node2&#45;&gt;Node10</title>
<path fill="none" stroke="midnightblue" d="M138.16,-242.18C150.23,-242.18 162.48,-242.18 173.8,-242.18"/>
<polygon fill="midnightblue" stroke="midnightblue" points="138.1,-238.68 128.1,-242.18 138.1,-245.68 138.1,-238.68"/>
</g>
<!-- Node12 -->
<g id="node12" class="node">
<title>Node12</title>
<g id="a_node12"><a xlink:href="classKadath_1_1Base__tensor.html" target="_top" xlink:title=" ">
<polygon fill="none" stroke="black" points="791,-305.68 791,-324.68 898,-324.68 898,-305.68 791,-305.68"/>
<text text-anchor="middle" x="844.5" y="-312.68" font-family="Helvetica,sans-Serif" font-size="10.00">Kadath::Base_tensor</text>
</a>
</g>
</g>
<!-- Node2&#45;&gt;Node12 -->
<g id="edge26" class="edge">
<title>Node2&#45;&gt;Node12</title>
<path fill="none" stroke="midnightblue" d="M79.95,-259.48C106.02,-287.61 162.84,-340.18 223.5,-340.18 223.5,-340.18 223.5,-340.18 675.5,-340.18 719.29,-340.18 768.81,-331.76 802.67,-324.7"/>
<polygon fill="midnightblue" stroke="midnightblue" points="82.44,-257.02 73.15,-251.93 77.24,-261.7 82.44,-257.02"/>
</g>
<!-- Node13 -->
<g id="node13" class="node">
<title>Node13</title>
<g id="a_node13"><a xlink:href="classKadath_1_1Param__tensor.html" target="_top" xlink:title=" ">
<polygon fill="none" stroke="black" points="302,-410.68 302,-429.68 415,-429.68 415,-410.68 302,-410.68"/>
<text text-anchor="middle" x="358.5" y="-417.68" font-family="Helvetica,sans-Serif" font-size="10.00">Kadath::Param_tensor</text>
</a>
</g>
</g>
<!-- Node2&#45;&gt;Node13 -->
<g id="edge30" class="edge">
<title>Node2&#45;&gt;Node13</title>
<path fill="none" stroke="midnightblue" d="M69.44,-261.74C78.03,-294.66 100.25,-360.63 146,-392.18 191.59,-423.61 256.06,-427.88 301.81,-425.99"/>
<polygon fill="midnightblue" stroke="midnightblue" points="72.82,-260.82 67.04,-251.94 66.02,-262.48 72.82,-260.82"/>
</g>
<!-- Node3&#45;&gt;Node1 -->
<g id="edge2" class="edge">
<title>Node3&#45;&gt;Node1</title>
<path fill="none" stroke="#9a32cd" stroke-dasharray="5,2" d="M1041.74,-331.38C1072.43,-356.56 1130.61,-404.32 1155.38,-424.64"/>
<polygon fill="#9a32cd" stroke="#9a32cd" points="1043.82,-328.55 1033.87,-324.92 1039.38,-333.97 1043.82,-328.55"/>
<text text-anchor="middle" x="1092.5" y="-395.18" font-family="Helvetica,sans-Serif" font-size="10.00"> der_t</text>
<text text-anchor="middle" x="1092.5" y="-384.18" font-family="Helvetica,sans-Serif" font-size="10.00">val_t</text>
</g>
<!-- Node11 -->
<g id="node11" class="node">
<title>Node11</title>
<g id="a_node11"><a xlink:href="classKadath_1_1Scalar.html" target="_top" xlink:title=" ">
<polygon fill="none" stroke="black" points="1128,-272.68 1128,-291.68 1208,-291.68 1208,-272.68 1128,-272.68"/>
<text text-anchor="middle" x="1168" y="-279.68" font-family="Helvetica,sans-Serif" font-size="10.00">Kadath::Scalar</text>
</a>
</g>
</g>
<!-- Node3&#45;&gt;Node11 -->
<g id="edge22" class="edge">
<title>Node3&#45;&gt;Node11</title>
<path fill="none" stroke="midnightblue" d="M1057.91,-302.44C1065.16,-300.15 1072.78,-297.93 1080,-296.18 1095.46,-292.43 1112.72,-289.41 1127.76,-287.15"/>
<polygon fill="midnightblue" stroke="midnightblue" points="1056.72,-299.15 1048.31,-305.59 1058.9,-305.8 1056.72,-299.15"/>
</g>
<!-- Node4&#45;&gt;Node3 -->
<g id="edge4" class="edge">
<title>Node4&#45;&gt;Node3</title>
<path fill="none" stroke="#9a32cd" stroke-dasharray="5,2" d="M724.85,-266.75C770.12,-269.6 838.91,-275.18 898,-285.18 928.43,-290.33 962.49,-298.95 986.88,-305.63"/>
<polygon fill="#9a32cd" stroke="#9a32cd" points="724.91,-263.25 714.71,-266.13 724.48,-270.23 724.91,-263.25"/>
<text text-anchor="middle" x="844.5" y="-288.18" font-family="Helvetica,sans-Serif" font-size="10.00"> espace</text>
</g>
<!-- Node4&#45;&gt;Node12 -->
<g id="edge27" class="edge">
<title>Node4&#45;&gt;Node12</title>
<path fill="none" stroke="#9a32cd" stroke-dasharray="5,2" d="M724.15,-276.33C739.82,-280.46 757.22,-285.28 773,-290.18 788.13,-294.87 804.85,-300.77 818.21,-305.66"/>
<polygon fill="#9a32cd" stroke="#9a32cd" points="724.7,-272.86 714.14,-273.72 722.93,-279.63 724.7,-272.86"/>
<text text-anchor="middle" x="758.5" y="-293.18" font-family="Helvetica,sans-Serif" font-size="10.00"> space</text>
</g>
<!-- Node5&#45;&gt;Node4 -->
<g id="edge6" class="edge">
<title>Node5&#45;&gt;Node4</title>
<path fill="none" stroke="#9a32cd" stroke-dasharray="5,2" d="M508.71,-149.85C533.11,-172.26 579.05,-212.48 623,-240.18 631.62,-245.61 641.67,-250.63 650.52,-254.65"/>
<polygon fill="#9a32cd" stroke="#9a32cd" points="511.01,-147.21 501.29,-142.97 506.25,-152.34 511.01,-147.21"/>
<text text-anchor="middle" x="585" y="-230.18" font-family="Helvetica,sans-Serif" font-size="10.00"> domains</text>
</g>
<!-- Node5&#45;&gt;Node8 -->
<g id="edge20" class="edge">
<title>Node5&#45;&gt;Node8</title>
<path fill="none" stroke="#9a32cd" stroke-dasharray="5,2" d="M516.45,-118.84C530.39,-111.59 548.2,-103.27 565,-98.18 583.5,-92.57 604.38,-88.9 622.85,-86.5"/>
<polygon fill="#9a32cd" stroke="#9a32cd" points="514.65,-115.84 507.48,-123.64 517.95,-122.01 514.65,-115.84"/>
<text text-anchor="middle" x="585" y="-101.18" font-family="Helvetica,sans-Serif" font-size="10.00"> zone</text>
</g>
<!-- Node6&#45;&gt;Node5 -->
<g id="edge8" class="edge">
<title>Node6&#45;&gt;Node5</title>
<path fill="none" stroke="#9a32cd" stroke-dasharray="5,2" d="M264.58,-141.95C276.48,-138.78 289.67,-135.8 302,-134.18 351.57,-127.67 409.17,-128.63 447.21,-130.43"/>
<polygon fill="#9a32cd" stroke="#9a32cd" points="263.64,-138.58 254.95,-144.63 265.52,-145.32 263.64,-138.58"/>
<text text-anchor="middle" x="358.5" y="-148.18" font-family="Helvetica,sans-Serif" font-size="10.00"> nbr_coefs</text>
<text text-anchor="middle" x="358.5" y="-137.18" font-family="Helvetica,sans-Serif" font-size="10.00">nbr_points</text>
</g>
<!-- Node7&#45;&gt;Node5 -->
<g id="edge10" class="edge">
<title>Node7&#45;&gt;Node5</title>
<path fill="none" stroke="#9a32cd" stroke-dasharray="5,2" d="M294.69,-104.54C330.73,-105.55 375.43,-108.12 415,-114.18 429.16,-116.35 444.54,-120.07 457.6,-123.64"/>
<polygon fill="#9a32cd" stroke="#9a32cd" points="294.37,-101.03 284.28,-104.28 294.19,-108.03 294.37,-101.03"/>
<text text-anchor="middle" x="358.5" y="-117.18" font-family="Helvetica,sans-Serif" font-size="10.00"> coloc</text>
</g>
<!-- Node7&#45;&gt;Node8 -->
<g id="edge14" class="edge">
<title>Node7&#45;&gt;Node8</title>
<path fill="none" stroke="#9a32cd" stroke-dasharray="5,2" d="M258.27,-90.93C298.59,-75.4 369.53,-50.6 433,-41.18 483.12,-33.74 496.95,-33.27 547,-41.18 584.63,-47.12 626.3,-62.44 651.17,-72.57"/>
<polygon fill="#9a32cd" stroke="#9a32cd" points="256.98,-87.67 248.94,-94.57 259.53,-94.19 256.98,-87.67"/>
<text text-anchor="middle" x="490" y="-55.18" font-family="Helvetica,sans-Serif" font-size="10.00"> c</text>
<text text-anchor="middle" x="490" y="-44.18" font-family="Helvetica,sans-Serif" font-size="10.00">cf</text>
</g>
<!-- Node8&#45;&gt;Node5 -->
<g id="edge12" class="edge">
<title>Node8&#45;&gt;Node5</title>
<path fill="none" stroke="#9a32cd" stroke-dasharray="5,2" d="M644.7,-95.96C632.65,-101.31 618.36,-107.11 605,-111.18 581.47,-118.34 554.48,-123.67 532.67,-127.29"/>
<polygon fill="#9a32cd" stroke="#9a32cd" points="646.17,-99.13 653.83,-91.81 643.28,-92.76 646.17,-99.13"/>
<text text-anchor="middle" x="585" y="-157.18" font-family="Helvetica,sans-Serif" font-size="10.00"> absol</text>
<text text-anchor="middle" x="585" y="-146.18" font-family="Helvetica,sans-Serif" font-size="10.00">cart</text>
<text text-anchor="middle" x="585" y="-135.18" font-family="Helvetica,sans-Serif" font-size="10.00">cart_surr</text>
<text text-anchor="middle" x="585" y="-124.18" font-family="Helvetica,sans-Serif" font-size="10.00">radius</text>
</g>
<!-- Node8&#45;&gt;Node8 -->
<g id="edge15" class="edge">
<title>Node8&#45;&gt;Node8</title>
<path fill="none" stroke="#9a32cd" stroke-dasharray="5,2" d="M659.03,-101.94C660.25,-106.67 665.4,-110.18 674.5,-110.18 689.43,-110.18 693.75,-100.74 687.45,-91.93"/>
<polygon fill="#9a32cd" stroke="#9a32cd" points="662.5,-102.49 661.55,-91.93 655.72,-100.78 662.5,-102.49"/>
<text text-anchor="middle" x="674.5" y="-124.18" font-family="Helvetica,sans-Serif" font-size="10.00"> p_der_abs</text>
<text text-anchor="middle" x="674.5" y="-113.18" font-family="Helvetica,sans-Serif" font-size="10.00">p_der_var</text>
</g>
<!-- Node8&#45;&gt;Node11 -->
<g id="edge23" class="edge">
<title>Node8&#45;&gt;Node11</title>
<path fill="none" stroke="#9a32cd" stroke-dasharray="5,2" d="M712.65,-95.13C767.58,-114.5 873.53,-152.64 962,-189.18 1030.81,-217.6 1110.73,-255.22 1147.12,-272.61"/>
<polygon fill="#9a32cd" stroke="#9a32cd" points="713.59,-91.76 703,-91.74 711.27,-98.36 713.59,-91.76"/>
<text text-anchor="middle" x="939" y="-192.18" font-family="Helvetica,sans-Serif" font-size="10.00"> val_zones</text>
</g>
<!-- Node9&#45;&gt;Node8 -->
<g id="edge16" class="edge">
<title>Node9&#45;&gt;Node8</title>
<path fill="none" stroke="#9a32cd" stroke-dasharray="5,2" d="M537.61,-70.52C546.64,-68.71 556.07,-67.13 565,-66.18 582.68,-64.29 587.34,-64.14 605,-66.18 616.4,-67.49 628.67,-70 639.63,-72.64"/>
<polygon fill="#9a32cd" stroke="#9a32cd" points="536.69,-67.14 527.64,-72.64 538.15,-73.99 536.69,-67.14"/>
<text text-anchor="middle" x="585" y="-69.18" font-family="Helvetica,sans-Serif" font-size="10.00"> base</text>
</g>
<!-- Node10&#45;&gt;Node3 -->
<g id="edge24" class="edge">
<title>Node10&#45;&gt;Node3</title>
<path fill="none" stroke="#9a32cd" stroke-dasharray="5,2" d="M285.29,-233.65C379.43,-221.63 567.79,-203.26 726,-223.18 804.29,-233.03 821.65,-247.27 898,-267.18 926.48,-274.6 934.62,-273.39 962,-284.18 976.87,-290.04 992.82,-298.76 1004.23,-305.46"/>
<polygon fill="#9a32cd" stroke="#9a32cd" points="284.57,-230.21 275.11,-234.97 285.47,-237.15 284.57,-230.21"/>
<text text-anchor="middle" x="674.5" y="-237.18" font-family="Helvetica,sans-Serif" font-size="10.00"> give_indices</text>
<text text-anchor="middle" x="674.5" y="-226.18" font-family="Helvetica,sans-Serif" font-size="10.00">type_indice</text>
</g>
<!-- Node10&#45;&gt;Node9 -->
<g id="edge18" class="edge">
<title>Node10&#45;&gt;Node9</title>
<path fill="none" stroke="#9a32cd" stroke-dasharray="5,2" d="M252.85,-228.1C267.35,-220.76 285.53,-211.76 302,-204.18 351.57,-181.36 376.35,-194.7 415,-156.18 429.38,-141.84 419.48,-129.33 433,-114.18 441.65,-104.48 453.95,-97 464.83,-91.72"/>
<polygon fill="#9a32cd" stroke="#9a32cd" points="251.23,-225 243.9,-232.65 254.4,-231.24 251.23,-225"/>
<text text-anchor="middle" x="358.5" y="-207.18" font-family="Helvetica,sans-Serif" font-size="10.00"> bases_1d</text>
</g>
<!-- Node10&#45;&gt;Node12 -->
<g id="edge28" class="edge">
<title>Node10&#45;&gt;Node12</title>
<path fill="none" stroke="#9a32cd" stroke-dasharray="5,2" d="M285.17,-249.23C405.64,-263.46 676.16,-295.41 790.68,-308.94"/>
<polygon fill="#9a32cd" stroke="#9a32cd" points="285.37,-245.73 275.03,-248.03 284.55,-252.68 285.37,-245.73"/>
<text text-anchor="middle" x="585" y="-289.18" font-family="Helvetica,sans-Serif" font-size="10.00"> basis</text>
</g>
<!-- Node11&#45;&gt;Node3 -->
<g id="edge21" class="edge">
<title>Node11&#45;&gt;Node3</title>
<path fill="none" stroke="#9a32cd" stroke-dasharray="5,2" d="M1117.79,-293.38C1099.62,-297.51 1079.26,-302.14 1062.01,-306.07"/>
<polygon fill="#9a32cd" stroke="#9a32cd" points="1118.65,-296.77 1127.63,-291.14 1117.1,-289.94 1118.65,-296.77"/>
<text text-anchor="middle" x="1092.5" y="-304.18" font-family="Helvetica,sans-Serif" font-size="10.00"> cmp</text>
</g>
<!-- Node12&#45;&gt;Node3 -->
<g id="edge25" class="edge">
<title>Node12&#45;&gt;Node3</title>
<path fill="none" stroke="#9a32cd" stroke-dasharray="5,2" d="M908.36,-315.18C932.18,-315.18 958.64,-315.18 979.82,-315.18"/>
<polygon fill="#9a32cd" stroke="#9a32cd" points="908.33,-311.68 898.33,-315.18 908.33,-318.68 908.33,-311.68"/>
<text text-anchor="middle" x="939" y="-318.18" font-family="Helvetica,sans-Serif" font-size="10.00"> basis</text>
</g>
<!-- Node13&#45;&gt;Node3 -->
<g id="edge29" class="edge">
<title>Node13&#45;&gt;Node3</title>
<path fill="none" stroke="#9a32cd" stroke-dasharray="5,2" d="M425.47,-421.97C470.2,-423.03 530.66,-424.18 584,-424.18 584,-424.18 584,-424.18 845.5,-424.18 899.2,-424.18 917.58,-422.35 962,-392.18 988.03,-374.5 1007.11,-341.26 1015.41,-324.85"/>
<polygon fill="#9a32cd" stroke="#9a32cd" points="425.39,-418.47 415.31,-421.72 425.22,-425.47 425.39,-418.47"/>
<text text-anchor="middle" x="674.5" y="-427.18" font-family="Helvetica,sans-Serif" font-size="10.00"> parameters</text>
</g>
</g>
</svg>
