<?xml version="1.0" encoding="UTF-8" standalone="no"?>
<!DOCTYPE svg PUBLIC "-//W3C//DTD SVG 1.1//EN"
 "http://www.w3.org/Graphics/SVG/1.1/DTD/svg11.dtd">
<!-- Generated by graphviz version 2.47.1 (20210515.0534)
 -->
<!-- Title: Kadath::Eq_bc_order_array Pages: 1 -->
<svg width="2093pt" height="891pt"
 viewBox="0.00 0.00 2093.00 891.28" xmlns="http://www.w3.org/2000/svg" xmlns:xlink="http://www.w3.org/1999/xlink">
<g id="graph0" class="graph" transform="scale(1 1) rotate(0) translate(4 887.28)">
<title>Kadath::Eq_bc_order_array</title>
<!-- Node1 -->
<g id="node1" class="node">
<title>Node1</title>
<g id="a_node1"><a xlink:title=" ">
<polygon fill="#bfbfbf" stroke="black" points="1172.5,-192 1172.5,-222 1278.5,-222 1278.5,-192 1172.5,-192"/>
<text text-anchor="start" x="1180.5" y="-210" font-family="Helvetica,sans-Serif" font-size="10.00">Kadath::Eq_bc_order</text>
<text text-anchor="middle" x="1225.5" y="-199" font-family="Helvetica,sans-Serif" font-size="10.00">_array</text>
</a>
</g>
</g>
<!-- Node2 -->
<g id="node2" class="node">
<title>Node2</title>
<g id="a_node2"><a xlink:href="classKadath_1_1Equation.html" target="_top" xlink:title=" ">
<polygon fill="none" stroke="black" points="989,-150.5 989,-169.5 1078,-169.5 1078,-150.5 989,-150.5"/>
<text text-anchor="middle" x="1033.5" y="-157.5" font-family="Helvetica,sans-Serif" font-size="10.00">Kadath::Equation</text>
</a>
</g>
</g>
<!-- Node2&#45;&gt;Node1 -->
<g id="edge1" class="edge">
<title>Node2&#45;&gt;Node1</title>
<path fill="none" stroke="midnightblue" d="M1082.7,-171.92C1110.1,-178.7 1144.41,-187.19 1172.42,-194.12"/>
<polygon fill="midnightblue" stroke="midnightblue" points="1083.5,-168.51 1072.95,-169.51 1081.82,-175.31 1083.5,-168.51"/>
</g>
<!-- Node6 -->
<g id="node6" class="node">
<title>Node6</title>
<g id="a_node6"><a xlink:href="classKadath_1_1System__of__eqs.html" target="_top" xlink:title=" ">
<polygon fill="none" stroke="black" points="1673,-429.5 1673,-448.5 1792,-448.5 1792,-429.5 1673,-429.5"/>
<text text-anchor="middle" x="1732.5" y="-436.5" font-family="Helvetica,sans-Serif" font-size="10.00">Kadath::System_of_eqs</text>
</a>
</g>
</g>
<!-- Node2&#45;&gt;Node6 -->
<g id="edge9" class="edge">
<title>Node2&#45;&gt;Node6</title>
<path fill="none" stroke="#9a32cd" stroke-dasharray="5,2" d="M1088.6,-160C1126.62,-160 1178.67,-160 1224.5,-160 1224.5,-160 1224.5,-160 1539,-160 1672.88,-160 1720.83,-380.34 1729.85,-429.4"/>
<polygon fill="#9a32cd" stroke="#9a32cd" points="1088.27,-156.5 1078.27,-160 1088.27,-163.5 1088.27,-156.5"/>
<text text-anchor="middle" x="1382" y="-163" font-family="Helvetica,sans-Serif" font-size="10.00"> eq</text>
</g>
<!-- Node3 -->
<g id="node3" class="node">
<title>Node3</title>
<g id="a_node3"><a xlink:href="structKadath_1_1MemoryMappable.html" target="_top" xlink:title=" ">
<polygon fill="none" stroke="black" points="0,-437.5 0,-456.5 128,-456.5 128,-437.5 0,-437.5"/>
<text text-anchor="middle" x="64" y="-444.5" font-family="Helvetica,sans-Serif" font-size="10.00">Kadath::MemoryMappable</text>
</a>
</g>
</g>
<!-- Node3&#45;&gt;Node2 -->
<g id="edge2" class="edge">
<title>Node3&#45;&gt;Node2</title>
<path fill="none" stroke="midnightblue" d="M64.77,-427.04C65.09,-355.19 76.43,-114 214.5,-114 214.5,-114 214.5,-114 871.5,-114 924.12,-114 982.81,-137 1012.69,-150.47"/>
<polygon fill="midnightblue" stroke="midnightblue" points="61.27,-427.4 64.8,-437.39 68.27,-427.38 61.27,-427.4"/>
</g>
<!-- Node4 -->
<g id="node4" class="node">
<title>Node4</title>
<g id="a_node4"><a xlink:href="classKadath_1_1Array.html" target="_top" xlink:title=" ">
<polygon fill="none" stroke="black" points="165,-297.5 165,-316.5 266,-316.5 266,-297.5 165,-297.5"/>
<text text-anchor="middle" x="215.5" y="-304.5" font-family="Helvetica,sans-Serif" font-size="10.00">Kadath::Array&lt; int &gt;</text>
</a>
</g>
</g>
<!-- Node3&#45;&gt;Node4 -->
<g id="edge4" class="edge">
<title>Node3&#45;&gt;Node4</title>
<path fill="none" stroke="midnightblue" d="M73.56,-428.04C86,-402.5 111.43,-357.23 146,-331 154.23,-324.75 164.22,-320.05 173.99,-316.53"/>
<polygon fill="midnightblue" stroke="midnightblue" points="70.26,-426.83 69.16,-437.37 76.59,-429.81 70.26,-426.83"/>
</g>
<!-- Node5 -->
<g id="node5" class="node">
<title>Node5</title>
<g id="a_node5"><a xlink:href="classKadath_1_1Ope__eq.html" target="_top" xlink:title=" ">
<polygon fill="none" stroke="black" points="1849,-133.5 1849,-152.5 1935,-152.5 1935,-133.5 1849,-133.5"/>
<text text-anchor="middle" x="1892" y="-140.5" font-family="Helvetica,sans-Serif" font-size="10.00">Kadath::Ope_eq</text>
</a>
</g>
</g>
<!-- Node3&#45;&gt;Node5 -->
<g id="edge6" class="edge">
<title>Node3&#45;&gt;Node5</title>
<path fill="none" stroke="midnightblue" d="M66.86,-427.29C72.6,-372.55 92.91,-214.88 146,-96 162.27,-59.58 174.61,-38 214.5,-38 214.5,-38 214.5,-38 1733.5,-38 1801.86,-38 1863.11,-107.32 1883.67,-133.31"/>
<polygon fill="midnightblue" stroke="midnightblue" points="63.37,-427.06 65.86,-437.35 70.34,-427.75 63.37,-427.06"/>
</g>
<!-- Node7 -->
<g id="node7" class="node">
<title>Node7</title>
<g id="a_node7"><a xlink:href="classKadath_1_1Eq__int.html" target="_top" xlink:title=" ">
<polygon fill="none" stroke="black" points="2001,-133.5 2001,-152.5 2080,-152.5 2080,-133.5 2001,-133.5"/>
<text text-anchor="middle" x="2040.5" y="-140.5" font-family="Helvetica,sans-Serif" font-size="10.00">Kadath::Eq_int</text>
</a>
</g>
</g>
<!-- Node3&#45;&gt;Node7 -->
<g id="edge11" class="edge">
<title>Node3&#45;&gt;Node7</title>
<path fill="none" stroke="midnightblue" d="M68.73,-427.26C79.14,-372.97 110.14,-217.05 146,-90 159.66,-41.62 164.23,0 214.5,0 214.5,0 214.5,0 1893,0 1969.42,0 2020.81,-100.86 2035.31,-133.17"/>
<polygon fill="midnightblue" stroke="midnightblue" points="65.26,-426.77 66.82,-437.25 72.13,-428.08 65.26,-426.77"/>
</g>
<!-- Node8 -->
<g id="node8" class="node">
<title>Node8</title>
<g id="a_node8"><a xlink:href="classKadath_1_1Space.html" target="_top" xlink:title=" ">
<polygon fill="none" stroke="black" points="993.5,-609.5 993.5,-628.5 1073.5,-628.5 1073.5,-609.5 993.5,-609.5"/>
<text text-anchor="middle" x="1033.5" y="-616.5" font-family="Helvetica,sans-Serif" font-size="10.00">Kadath::Space</text>
</a>
</g>
</g>
<!-- Node3&#45;&gt;Node8 -->
<g id="edge14" class="edge">
<title>Node3&#45;&gt;Node8</title>
<path fill="none" stroke="midnightblue" d="M67.28,-466.71C72.99,-507.26 91.6,-600.61 146,-653 169.24,-675.38 182.24,-677 214.5,-677 214.5,-677 214.5,-677 593,-677 741.92,-677 916.81,-643.86 993.33,-627.68"/>
<polygon fill="midnightblue" stroke="midnightblue" points="70.74,-466.22 65.99,-456.75 63.8,-467.12 70.74,-466.22"/>
</g>
<!-- Node9 -->
<g id="node9" class="node">
<title>Node9</title>
<g id="a_node9"><a xlink:href="classKadath_1_1Domain.html" target="_top" xlink:title=" ">
<polygon fill="none" stroke="black" points="828,-394.5 828,-413.5 913,-413.5 913,-394.5 828,-394.5"/>
<text text-anchor="middle" x="870.5" y="-401.5" font-family="Helvetica,sans-Serif" font-size="10.00">Kadath::Domain</text>
</a>
</g>
</g>
<!-- Node3&#45;&gt;Node9 -->
<g id="edge16" class="edge">
<title>Node3&#45;&gt;Node9</title>
<path fill="none" stroke="midnightblue" d="M98.78,-433.81C117.95,-426.76 142.54,-418.43 165,-413 419.38,-351.47 492.83,-352.56 753,-381 778.92,-383.83 807.68,-389.48 830.13,-394.47"/>
<polygon fill="midnightblue" stroke="midnightblue" points="97.43,-430.58 89.29,-437.36 99.88,-437.13 97.43,-430.58"/>
</g>
<!-- Node10 -->
<g id="node10" class="node">
<title>Node10</title>
<g id="a_node10"><a xlink:href="classKadath_1_1Dim__array.html" target="_top" xlink:title=" ">
<polygon fill="none" stroke="black" points="168,-200.5 168,-219.5 263,-219.5 263,-200.5 168,-200.5"/>
<text text-anchor="middle" x="215.5" y="-207.5" font-family="Helvetica,sans-Serif" font-size="10.00">Kadath::Dim_array</text>
</a>
</g>
</g>
<!-- Node3&#45;&gt;Node10 -->
<g id="edge18" class="edge">
<title>Node3&#45;&gt;Node10</title>
<path fill="none" stroke="midnightblue" d="M76.62,-428.47C95.24,-398.79 132.92,-338.78 165,-288 180.59,-263.32 199.03,-234.31 208.39,-219.6"/>
<polygon fill="midnightblue" stroke="midnightblue" points="73.42,-426.98 71.07,-437.31 79.35,-430.7 73.42,-426.98"/>
</g>
<!-- Node11 -->
<g id="node11" class="node">
<title>Node11</title>
<g id="a_node11"><a xlink:href="classKadath_1_1Array.html" target="_top" xlink:title=" ">
<polygon fill="none" stroke="black" points="415,-475.5 415,-494.5 534,-494.5 534,-475.5 415,-475.5"/>
<text text-anchor="middle" x="474.5" y="-482.5" font-family="Helvetica,sans-Serif" font-size="10.00">Kadath::Array&lt; double &gt;</text>
</a>
</g>
</g>
<!-- Node3&#45;&gt;Node11 -->
<g id="edge20" class="edge">
<title>Node3&#45;&gt;Node11</title>
<path fill="none" stroke="midnightblue" d="M125.49,-458.12C132.39,-459.19 139.34,-460.18 146,-461 239.65,-472.5 349.09,-479.16 414.76,-482.43"/>
<polygon fill="midnightblue" stroke="midnightblue" points="125.87,-454.64 115.44,-456.5 124.76,-461.55 125.87,-454.64"/>
</g>
<!-- Node12 -->
<g id="node12" class="node">
<title>Node12</title>
<g id="a_node12"><a xlink:href="classKadath_1_1Val__domain.html" target="_top" xlink:title=" ">
<polygon fill="none" stroke="black" points="650,-390.5 650,-409.5 753,-409.5 753,-390.5 650,-390.5"/>
<text text-anchor="middle" x="701.5" y="-397.5" font-family="Helvetica,sans-Serif" font-size="10.00">Kadath::Val_domain</text>
</a>
</g>
</g>
<!-- Node3&#45;&gt;Node12 -->
<g id="edge22" class="edge">
<title>Node3&#45;&gt;Node12</title>
<path fill="none" stroke="midnightblue" d="M138.35,-441.91C176.43,-439.27 223.72,-435.97 266,-433 385.12,-424.63 414.89,-422.48 534,-414 577.56,-410.9 588.5,-410.78 632,-407 637.72,-406.5 643.7,-405.95 649.64,-405.37"/>
<polygon fill="midnightblue" stroke="midnightblue" points="138.1,-438.42 128.37,-442.61 138.59,-445.4 138.1,-438.42"/>
</g>
<!-- Node13 -->
<g id="node13" class="node">
<title>Node13</title>
<g id="a_node13"><a xlink:href="classKadath_1_1Base__spectral.html" target="_top" xlink:title=" ">
<polygon fill="none" stroke="black" points="417.5,-385.5 417.5,-404.5 531.5,-404.5 531.5,-385.5 417.5,-385.5"/>
<text text-anchor="middle" x="474.5" y="-392.5" font-family="Helvetica,sans-Serif" font-size="10.00">Kadath::Base_spectral</text>
</a>
</g>
</g>
<!-- Node3&#45;&gt;Node13 -->
<g id="edge26" class="edge">
<title>Node3&#45;&gt;Node13</title>
<path fill="none" stroke="midnightblue" d="M127.9,-435.78C134.01,-434.79 140.12,-433.85 146,-433 241.03,-419.28 352.14,-407.23 417.46,-400.54"/>
<polygon fill="midnightblue" stroke="midnightblue" points="126.95,-432.38 117.65,-437.46 128.09,-439.29 126.95,-432.38"/>
</g>
<!-- Node14 -->
<g id="node14" class="node">
<title>Node14</title>
<g id="a_node14"><a xlink:href="classKadath_1_1Index.html" target="_top" xlink:title=" ">
<polygon fill="none" stroke="black" points="437,-66.5 437,-85.5 512,-85.5 512,-66.5 437,-66.5"/>
<text text-anchor="middle" x="474.5" y="-73.5" font-family="Helvetica,sans-Serif" font-size="10.00">Kadath::Index</text>
</a>
</g>
</g>
<!-- Node3&#45;&gt;Node14 -->
<g id="edge30" class="edge">
<title>Node3&#45;&gt;Node14</title>
<path fill="none" stroke="midnightblue" d="M66.59,-427.42C72.46,-360.61 95.21,-143.41 146,-100 188.79,-63.42 360.48,-69 436.71,-73.46"/>
<polygon fill="midnightblue" stroke="midnightblue" points="63.1,-427.18 65.74,-437.44 70.08,-427.77 63.1,-427.18"/>
</g>
<!-- Node15 -->
<g id="node15" class="node">
<title>Node15</title>
<g id="a_node15"><a xlink:href="classKadath_1_1Param.html" target="_top" xlink:title=" ">
<polygon fill="none" stroke="black" points="552,-744.5 552,-763.5 632,-763.5 632,-744.5 552,-744.5"/>
<text text-anchor="middle" x="592" y="-751.5" font-family="Helvetica,sans-Serif" font-size="10.00">Kadath::Param</text>
</a>
</g>
</g>
<!-- Node3&#45;&gt;Node15 -->
<g id="edge34" class="edge">
<title>Node3&#45;&gt;Node15</title>
<path fill="none" stroke="midnightblue" d="M68.46,-466.58C79.5,-526.21 116.01,-703.07 165,-728 293.78,-793.52 473.54,-774.31 551.9,-761.44"/>
<polygon fill="midnightblue" stroke="midnightblue" points="71.88,-465.79 66.65,-456.58 64.99,-467.04 71.88,-465.79"/>
</g>
<!-- Node16 -->
<g id="node16" class="node">
<title>Node16</title>
<g id="a_node16"><a xlink:href="classKadath_1_1Term__eq.html" target="_top" xlink:title=" ">
<polygon fill="none" stroke="black" points="1493,-782.5 1493,-801.5 1583,-801.5 1583,-782.5 1493,-782.5"/>
<text text-anchor="middle" x="1538" y="-789.5" font-family="Helvetica,sans-Serif" font-size="10.00">Kadath::Term_eq</text>
</a>
</g>
</g>
<!-- Node3&#45;&gt;Node16 -->
<g id="edge37" class="edge">
<title>Node3&#45;&gt;Node16</title>
<path fill="none" stroke="midnightblue" d="M64.51,-466.74C63.78,-539.99 71.68,-792 214.5,-792 214.5,-792 214.5,-792 1383,-792 1420.03,-792 1462.07,-792 1492.86,-792"/>
<polygon fill="midnightblue" stroke="midnightblue" points="68.01,-466.64 64.68,-456.59 61.01,-466.53 68.01,-466.64"/>
</g>
<!-- Node17 -->
<g id="node17" class="node">
<title>Node17</title>
<g id="a_node17"><a xlink:href="classKadath_1_1Tensor.html" target="_top" xlink:title=" ">
<polygon fill="none" stroke="black" points="1341,-530.5 1341,-549.5 1423,-549.5 1423,-530.5 1341,-530.5"/>
<text text-anchor="middle" x="1382" y="-537.5" font-family="Helvetica,sans-Serif" font-size="10.00">Kadath::Tensor</text>
</a>
</g>
</g>
<!-- Node3&#45;&gt;Node17 -->
<g id="edge39" class="edge">
<title>Node3&#45;&gt;Node17</title>
<path fill="none" stroke="midnightblue" d="M72.62,-465.85C90.62,-506.96 139.96,-601 214.5,-601 214.5,-601 214.5,-601 593,-601 689.78,-601 713.62,-591.79 810,-583 971.01,-568.32 1010.71,-558.24 1172,-547 1230.67,-542.91 1298.78,-541.2 1340.89,-540.49"/>
<polygon fill="midnightblue" stroke="midnightblue" points="75.84,-464.48 68.72,-456.63 69.39,-467.21 75.84,-464.48"/>
</g>
<!-- Node19 -->
<g id="node19" class="node">
<title>Node19</title>
<g id="a_node19"><a xlink:href="classKadath_1_1Base__tensor.html" target="_top" xlink:title=" ">
<polygon fill="none" stroke="black" points="1172,-592.5 1172,-611.5 1279,-611.5 1279,-592.5 1172,-592.5"/>
<text text-anchor="middle" x="1225.5" y="-599.5" font-family="Helvetica,sans-Serif" font-size="10.00">Kadath::Base_tensor</text>
</a>
</g>
</g>
<!-- Node3&#45;&gt;Node19 -->
<g id="edge46" class="edge">
<title>Node3&#45;&gt;Node19</title>
<path fill="none" stroke="midnightblue" d="M69.18,-466.35C77.63,-501.02 100.03,-573.92 146,-615 170.05,-636.49 182.24,-639 214.5,-639 214.5,-639 214.5,-639 593,-639 808.56,-639 864.03,-664.13 1078,-638 1119.08,-632.98 1165.25,-620.45 1194.59,-611.58"/>
<polygon fill="midnightblue" stroke="midnightblue" points="72.57,-465.48 66.91,-456.53 65.75,-467.06 72.57,-465.48"/>
</g>
<!-- Node20 -->
<g id="node20" class="node">
<title>Node20</title>
<g id="a_node20"><a xlink:href="classKadath_1_1Param__tensor.html" target="_top" xlink:title=" ">
<polygon fill="none" stroke="black" points="284,-705.5 284,-724.5 397,-724.5 397,-705.5 284,-705.5"/>
<text text-anchor="middle" x="340.5" y="-712.5" font-family="Helvetica,sans-Serif" font-size="10.00">Kadath::Param_tensor</text>
</a>
</g>
</g>
<!-- Node3&#45;&gt;Node20 -->
<g id="edge50" class="edge">
<title>Node3&#45;&gt;Node20</title>
<path fill="none" stroke="midnightblue" d="M64.97,-466.81C66.08,-514.04 76.01,-633.61 146,-691 184.09,-722.23 241.39,-725.71 283.76,-722.9"/>
<polygon fill="midnightblue" stroke="midnightblue" points="68.47,-466.63 64.85,-456.68 61.47,-466.72 68.47,-466.63"/>
</g>
<!-- Node21 -->
<g id="node21" class="node">
<title>Node21</title>
<g id="a_node21"><a xlink:href="classKadath_1_1Metric.html" target="_top" xlink:title=" ">
<polygon fill="none" stroke="black" points="1852.5,-693.5 1852.5,-712.5 1931.5,-712.5 1931.5,-693.5 1852.5,-693.5"/>
<text text-anchor="middle" x="1892" y="-700.5" font-family="Helvetica,sans-Serif" font-size="10.00">Kadath::Metric</text>
</a>
</g>
</g>
<!-- Node3&#45;&gt;Node21 -->
<g id="edge52" class="edge">
<title>Node3&#45;&gt;Node21</title>
<path fill="none" stroke="midnightblue" d="M67.45,-466.91C78.39,-551.66 126.29,-878 214.5,-878 214.5,-878 214.5,-878 1733.5,-878 1760.23,-878 1771.51,-881.17 1792,-864 1840.66,-823.21 1809.05,-782.35 1849,-733 1855.65,-724.78 1865.1,-717.77 1873.34,-712.59"/>
<polygon fill="midnightblue" stroke="midnightblue" points="70.9,-466.29 66.17,-456.81 63.95,-467.17 70.9,-466.29"/>
</g>
<!-- Node4&#45;&gt;Node1 -->
<g id="edge61" class="edge">
<title>Node4&#45;&gt;Node1</title>
<path fill="none" stroke="#9a32cd" stroke-dasharray="5,2" d="M240,-292.17C252.59,-284.92 268.63,-276.76 284,-272 500.23,-205.07 563.15,-210 789.5,-210 789.5,-210 789.5,-210 1034.5,-210 1081.18,-210 1134.31,-209.08 1172.49,-208.26"/>
<polygon fill="#9a32cd" stroke="#9a32cd" points="237.92,-289.34 231.12,-297.46 241.5,-295.35 237.92,-289.34"/>
<text text-anchor="middle" x="790.5" y="-213" font-family="Helvetica,sans-Serif" font-size="10.00"> order</text>
</g>
<!-- Node4&#45;&gt;Node2 -->
<g id="edge3" class="edge">
<title>Node4&#45;&gt;Node2</title>
<path fill="none" stroke="#9a32cd" stroke-dasharray="5,2" d="M228.09,-288.71C239.95,-271.63 260.01,-246.9 284,-234 523.2,-105.33 867.83,-136.9 988.65,-153.26"/>
<polygon fill="#9a32cd" stroke="#9a32cd" points="225.01,-287.02 222.37,-297.28 230.83,-290.9 225.01,-287.02"/>
<text text-anchor="middle" x="701.5" y="-154" font-family="Helvetica,sans-Serif" font-size="10.00"> n_cond</text>
<text text-anchor="middle" x="701.5" y="-143" font-family="Helvetica,sans-Serif" font-size="10.00">p_cmp_used</text>
</g>
<!-- Node4&#45;&gt;Node6 -->
<g id="edge32" class="edge">
<title>Node4&#45;&gt;Node6</title>
<path fill="none" stroke="#9a32cd" stroke-dasharray="5,2" d="M276.54,-301.87C426.8,-289.13 811.17,-257 869.5,-257 869.5,-257 869.5,-257 1539,-257 1640.18,-257 1709.62,-391.41 1727.15,-429.21"/>
<polygon fill="#9a32cd" stroke="#9a32cd" points="275.81,-298.42 266.14,-302.76 276.4,-305.4 275.81,-298.42"/>
<text text-anchor="middle" x="1033.5" y="-271" font-family="Helvetica,sans-Serif" font-size="10.00"> assoc_var</text>
<text text-anchor="middle" x="1033.5" y="-260" font-family="Helvetica,sans-Serif" font-size="10.00">assoc_var_double</text>
</g>
<!-- Node4&#45;&gt;Node13 -->
<g id="edge27" class="edge">
<title>Node4&#45;&gt;Node13</title>
<path fill="none" stroke="#9a32cd" stroke-dasharray="5,2" d="M276.45,-315C312.34,-321.08 358.35,-331.15 397,-347 421.37,-357 446.7,-374.54 461.24,-385.43"/>
<polygon fill="#9a32cd" stroke="#9a32cd" points="276.57,-311.48 266.14,-313.32 275.44,-318.38 276.57,-311.48"/>
<text text-anchor="middle" x="340.5" y="-350" font-family="Helvetica,sans-Serif" font-size="10.00"> bases_1d</text>
</g>
<!-- Node4&#45;&gt;Node17 -->
<g id="edge44" class="edge">
<title>Node4&#45;&gt;Node17</title>
<path fill="none" stroke="#9a32cd" stroke-dasharray="5,2" d="M235.86,-323.11C249.01,-333.67 267.02,-347.43 284,-358 331.74,-387.74 362.89,-370.27 397,-415 421.47,-447.09 384.14,-478 415,-504 461.58,-543.25 491.09,-507.11 552,-508 641.32,-509.3 663.85,-513.74 753,-508 832.6,-502.88 851.4,-490.12 931,-485 948.74,-483.86 953.23,-484.55 971,-485 1127.6,-489 1173.79,-455.29 1323,-503 1340.97,-508.75 1358.86,-521.49 1369.91,-530.41"/>
<polygon fill="#9a32cd" stroke="#9a32cd" points="237.95,-320.3 227.99,-316.7 233.53,-325.73 237.95,-320.3"/>
<text text-anchor="middle" x="870.5" y="-512" font-family="Helvetica,sans-Serif" font-size="10.00"> give_indices</text>
<text text-anchor="middle" x="870.5" y="-501" font-family="Helvetica,sans-Serif" font-size="10.00">type_indice</text>
</g>
<!-- Node4&#45;&gt;Node19 -->
<g id="edge48" class="edge">
<title>Node4&#45;&gt;Node19</title>
<path fill="none" stroke="#9a32cd" stroke-dasharray="5,2" d="M225.81,-325.64C249.82,-371.42 318.76,-489.21 415,-538 448.81,-555.14 997.43,-588.67 1171.76,-598.94"/>
<polygon fill="#9a32cd" stroke="#9a32cd" points="228.82,-323.84 221.14,-316.55 222.6,-327.04 228.82,-323.84"/>
<text text-anchor="middle" x="790.5" y="-578" font-family="Helvetica,sans-Serif" font-size="10.00"> basis</text>
</g>
<!-- Node5&#45;&gt;Node2 -->
<g id="edge5" class="edge">
<title>Node5&#45;&gt;Node2</title>
<path fill="none" stroke="#9a32cd" stroke-dasharray="5,2" d="M1838.66,-140.44C1740.84,-136.12 1523.65,-128.71 1341,-138 1247.23,-142.77 1137.52,-151.38 1078.12,-156.29"/>
<polygon fill="#9a32cd" stroke="#9a32cd" points="1838.73,-143.95 1848.87,-140.9 1839.04,-136.95 1838.73,-143.95"/>
<text text-anchor="middle" x="1458" y="-137" font-family="Helvetica,sans-Serif" font-size="10.00"> parts</text>
</g>
<!-- Node5&#45;&gt;Node5 -->
<g id="edge7" class="edge">
<title>Node5&#45;&gt;Node5</title>
<path fill="none" stroke="#9a32cd" stroke-dasharray="5,2" d="M1879.11,-162.77C1880.12,-167.5 1884.42,-171 1892,-171 1904.44,-171 1908.04,-161.57 1902.79,-152.76"/>
<polygon fill="#9a32cd" stroke="#9a32cd" points="1882.58,-163.26 1881.21,-152.76 1875.73,-161.82 1882.58,-163.26"/>
<text text-anchor="middle" x="1892" y="-174" font-family="Helvetica,sans-Serif" font-size="10.00"> parts</text>
</g>
<!-- Node5&#45;&gt;Node7 -->
<g id="edge12" class="edge">
<title>Node5&#45;&gt;Node7</title>
<path fill="none" stroke="#9a32cd" stroke-dasharray="5,2" d="M1945.55,-143C1963.76,-143 1983.83,-143 2000.73,-143"/>
<polygon fill="#9a32cd" stroke="#9a32cd" points="1945.37,-139.5 1935.37,-143 1945.37,-146.5 1945.37,-139.5"/>
<text text-anchor="middle" x="1965.5" y="-146" font-family="Helvetica,sans-Serif" font-size="10.00"> parts</text>
</g>
<!-- Node22 -->
<g id="node22" class="node">
<title>Node22</title>
<g id="a_node22"><a xlink:href="classKadath_1_1Ope__def.html" target="_top" xlink:title=" ">
<polygon fill="none" stroke="black" points="1996,-429.5 1996,-448.5 2085,-448.5 2085,-429.5 1996,-429.5"/>
<text text-anchor="middle" x="2040.5" y="-436.5" font-family="Helvetica,sans-Serif" font-size="10.00">Kadath::Ope_def</text>
</a>
</g>
</g>
<!-- Node5&#45;&gt;Node22 -->
<g id="edge58" class="edge">
<title>Node5&#45;&gt;Node22</title>
<path fill="none" stroke="midnightblue" d="M1902.28,-161.76C1930.38,-218.53 2013.88,-387.23 2034.74,-429.37"/>
<polygon fill="midnightblue" stroke="midnightblue" points="1905.28,-159.92 1897.71,-152.51 1899.01,-163.03 1905.28,-159.92"/>
</g>
<!-- Node6&#45;&gt;Node5 -->
<g id="edge8" class="edge">
<title>Node6&#45;&gt;Node5</title>
<path fill="none" stroke="#9a32cd" stroke-dasharray="5,2" d="M1743.29,-420.6C1773.32,-364.17 1863.4,-194.86 1885.88,-152.63"/>
<polygon fill="#9a32cd" stroke="#9a32cd" points="1740.17,-419.01 1738.56,-429.49 1746.35,-422.3 1740.17,-419.01"/>
<text text-anchor="middle" x="1820.5" y="-294" font-family="Helvetica,sans-Serif" font-size="10.00"> syst</text>
</g>
<!-- Node6&#45;&gt;Node21 -->
<g id="edge54" class="edge">
<title>Node6&#45;&gt;Node21</title>
<path fill="none" stroke="#9a32cd" stroke-dasharray="5,2" d="M1739.79,-458.26C1751.05,-491.29 1776.63,-560.15 1810,-612 1831.18,-644.9 1864.05,-677.77 1880.65,-693.48"/>
<polygon fill="#9a32cd" stroke="#9a32cd" points="1743.02,-456.89 1736.53,-448.52 1736.39,-459.11 1743.02,-456.89"/>
<text text-anchor="middle" x="1820.5" y="-641" font-family="Helvetica,sans-Serif" font-size="10.00"> syst</text>
</g>
<!-- Node7&#45;&gt;Node6 -->
<g id="edge10" class="edge">
<title>Node7&#45;&gt;Node6</title>
<path fill="none" stroke="#9a32cd" stroke-dasharray="5,2" d="M2022.1,-159.83C1965.41,-214.67 1787.21,-387.04 1743.33,-429.49"/>
<polygon fill="#9a32cd" stroke="#9a32cd" points="2024.79,-162.09 2029.55,-152.63 2019.93,-157.06 2024.79,-162.09"/>
<text text-anchor="middle" x="1892" y="-328" font-family="Helvetica,sans-Serif" font-size="10.00"> eq_int</text>
</g>
<!-- Node8&#45;&gt;Node6 -->
<g id="edge13" class="edge">
<title>Node8&#45;&gt;Node6</title>
<path fill="none" stroke="#9a32cd" stroke-dasharray="5,2" d="M1083.66,-625.04C1138.52,-631.24 1229.97,-640 1309,-640 1309,-640 1309,-640 1539,-640 1646.27,-640 1712.26,-488.85 1727.89,-448.69"/>
<polygon fill="#9a32cd" stroke="#9a32cd" points="1083.86,-621.53 1073.52,-623.87 1083.06,-628.49 1083.86,-621.53"/>
<text text-anchor="middle" x="1382" y="-643" font-family="Helvetica,sans-Serif" font-size="10.00"> espace</text>
</g>
<!-- Node8&#45;&gt;Node17 -->
<g id="edge40" class="edge">
<title>Node8&#45;&gt;Node17</title>
<path fill="none" stroke="#9a32cd" stroke-dasharray="5,2" d="M1067.99,-605.68C1095.53,-595.19 1135.78,-580.89 1172,-572 1229.93,-557.78 1298.53,-548.72 1340.91,-544"/>
<polygon fill="#9a32cd" stroke="#9a32cd" points="1066.53,-602.5 1058.45,-609.36 1069.04,-609.03 1066.53,-602.5"/>
<text text-anchor="middle" x="1225.5" y="-575" font-family="Helvetica,sans-Serif" font-size="10.00"> espace</text>
</g>
<!-- Node8&#45;&gt;Node19 -->
<g id="edge47" class="edge">
<title>Node8&#45;&gt;Node19</title>
<path fill="none" stroke="#9a32cd" stroke-dasharray="5,2" d="M1083.88,-609.59C1087.97,-608.99 1092.05,-608.44 1096,-608 1120.86,-605.21 1148.56,-603.71 1171.86,-602.91"/>
<polygon fill="#9a32cd" stroke="#9a32cd" points="1083.09,-606.17 1073.76,-611.19 1084.18,-613.08 1083.09,-606.17"/>
<text text-anchor="middle" x="1125" y="-611" font-family="Helvetica,sans-Serif" font-size="10.00"> space</text>
</g>
<!-- Node8&#45;&gt;Node21 -->
<g id="edge53" class="edge">
<title>Node8&#45;&gt;Node21</title>
<path fill="none" stroke="#9a32cd" stroke-dasharray="5,2" d="M1064.23,-632.54C1074.14,-636.53 1085.38,-640.49 1096,-643 1129.01,-650.8 1138.22,-646.91 1172,-650 1362.66,-667.45 1410.01,-675.71 1601,-689 1690.76,-695.24 1796.34,-699.59 1852.04,-701.64"/>
<polygon fill="#9a32cd" stroke="#9a32cd" points="1065.39,-629.23 1054.82,-628.59 1062.69,-635.69 1065.39,-629.23"/>
<text text-anchor="middle" x="1458" y="-682" font-family="Helvetica,sans-Serif" font-size="10.00"> espace</text>
</g>
<!-- Node9&#45;&gt;Node2 -->
<g id="edge60" class="edge">
<title>Node9&#45;&gt;Node2</title>
<path fill="none" stroke="#9a32cd" stroke-dasharray="5,2" d="M883.43,-385.93C915.31,-337.61 1001.74,-206.62 1026.06,-169.76"/>
<polygon fill="#9a32cd" stroke="#9a32cd" points="880.4,-384.16 877.81,-394.43 886.24,-388.02 880.4,-384.16"/>
<text text-anchor="middle" x="951" y="-314" font-family="Helvetica,sans-Serif" font-size="10.00"> dom</text>
</g>
<!-- Node9&#45;&gt;Node8 -->
<g id="edge15" class="edge">
<title>Node9&#45;&gt;Node8</title>
<path fill="none" stroke="#9a32cd" stroke-dasharray="5,2" d="M884.75,-421.7C917.21,-465.04 999.88,-575.44 1025.09,-609.1"/>
<polygon fill="#9a32cd" stroke="#9a32cd" points="887.42,-419.42 878.63,-413.52 881.82,-423.62 887.42,-419.42"/>
<text text-anchor="middle" x="951" y="-533" font-family="Helvetica,sans-Serif" font-size="10.00"> domains</text>
</g>
<!-- Node9&#45;&gt;Node12 -->
<g id="edge28" class="edge">
<title>Node9&#45;&gt;Node12</title>
<path fill="none" stroke="#9a32cd" stroke-dasharray="5,2" d="M817.76,-398.47C815.14,-398.29 812.54,-398.13 810,-398 791.45,-397.07 771.08,-397.16 753.11,-397.63"/>
<polygon fill="#9a32cd" stroke="#9a32cd" points="817.68,-401.97 827.93,-399.27 818.23,-394.99 817.68,-401.97"/>
<text text-anchor="middle" x="790.5" y="-401" font-family="Helvetica,sans-Serif" font-size="10.00"> zone</text>
</g>
<!-- Node10&#45;&gt;Node9 -->
<g id="edge17" class="edge">
<title>Node10&#45;&gt;Node9</title>
<path fill="none" stroke="#9a32cd" stroke-dasharray="5,2" d="M273.16,-218.54C371.47,-233.81 579.77,-268.15 753,-310 778.7,-316.21 788.2,-312.04 810,-327 836.19,-344.97 856,-378.07 864.68,-394.39"/>
<polygon fill="#9a32cd" stroke="#9a32cd" points="273.55,-215.06 263.14,-216.99 272.48,-221.98 273.55,-215.06"/>
<text text-anchor="middle" x="592" y="-296" font-family="Helvetica,sans-Serif" font-size="10.00"> nbr_coefs</text>
<text text-anchor="middle" x="592" y="-285" font-family="Helvetica,sans-Serif" font-size="10.00">nbr_points</text>
</g>
<!-- Node10&#45;&gt;Node14 -->
<g id="edge31" class="edge">
<title>Node10&#45;&gt;Node14</title>
<path fill="none" stroke="#9a32cd" stroke-dasharray="5,2" d="M231.86,-192.65C244.69,-179.01 264.04,-160.32 284,-148 333.11,-117.68 397.07,-96.66 436.7,-85.47"/>
<polygon fill="#9a32cd" stroke="#9a32cd" points="228.94,-190.65 224.77,-200.38 234.11,-195.38 228.94,-190.65"/>
<text text-anchor="middle" x="340.5" y="-151" font-family="Helvetica,sans-Serif" font-size="10.00"> sizes</text>
</g>
<!-- Node11&#45;&gt;Node6 -->
<g id="edge35" class="edge">
<title>Node11&#45;&gt;Node6</title>
<path fill="none" stroke="#9a32cd" stroke-dasharray="5,2" d="M490.29,-467.5C502.26,-453.24 519.45,-432.51 534,-414 542.24,-403.52 540.83,-397.29 552,-390 673.35,-310.82 724.61,-316 869.5,-316 869.5,-316 869.5,-316 1539,-316 1623.08,-316 1699.92,-400.35 1723.85,-429.35"/>
<polygon fill="#9a32cd" stroke="#9a32cd" points="487.35,-465.56 483.59,-475.47 492.71,-470.07 487.35,-465.56"/>
<text text-anchor="middle" x="1125" y="-319" font-family="Helvetica,sans-Serif" font-size="10.00"> val_cst_hard</text>
</g>
<!-- Node11&#45;&gt;Node9 -->
<g id="edge19" class="edge">
<title>Node11&#45;&gt;Node9</title>
<path fill="none" stroke="#9a32cd" stroke-dasharray="5,2" d="M544.08,-492.83C614.14,-497.88 724.46,-497.55 810,-459 832.57,-448.83 852.23,-426.65 862.31,-413.78"/>
<polygon fill="#9a32cd" stroke="#9a32cd" points="544.29,-489.33 534.04,-492.05 543.74,-496.31 544.29,-489.33"/>
<text text-anchor="middle" x="701.5" y="-496" font-family="Helvetica,sans-Serif" font-size="10.00"> coloc</text>
</g>
<!-- Node11&#45;&gt;Node12 -->
<g id="edge23" class="edge">
<title>Node11&#45;&gt;Node12</title>
<path fill="none" stroke="#9a32cd" stroke-dasharray="5,2" d="M507.77,-471.57C521.33,-466.13 537.32,-459.98 552,-455 587.04,-443.12 597.36,-444.98 632,-432 649.33,-425.51 668.35,-416.46 681.94,-409.64"/>
<polygon fill="#9a32cd" stroke="#9a32cd" points="506.34,-468.37 498.39,-475.37 508.97,-474.86 506.34,-468.37"/>
<text text-anchor="middle" x="592" y="-469" font-family="Helvetica,sans-Serif" font-size="10.00"> c</text>
<text text-anchor="middle" x="592" y="-458" font-family="Helvetica,sans-Serif" font-size="10.00">cf</text>
</g>
<!-- Node12&#45;&gt;Node9 -->
<g id="edge21" class="edge">
<title>Node12&#45;&gt;Node9</title>
<path fill="none" stroke="#9a32cd" stroke-dasharray="5,2" d="M763.32,-410.28C765.91,-410.56 768.48,-410.8 771,-411 788.28,-412.38 792.7,-412.01 810,-411 815.81,-410.66 821.93,-410.13 827.94,-409.52"/>
<polygon fill="#9a32cd" stroke="#9a32cd" points="763.61,-406.79 753.26,-409.07 762.78,-413.74 763.61,-406.79"/>
<text text-anchor="middle" x="790.5" y="-447" font-family="Helvetica,sans-Serif" font-size="10.00"> absol</text>
<text text-anchor="middle" x="790.5" y="-436" font-family="Helvetica,sans-Serif" font-size="10.00">cart</text>
<text text-anchor="middle" x="790.5" y="-425" font-family="Helvetica,sans-Serif" font-size="10.00">cart_surr</text>
<text text-anchor="middle" x="790.5" y="-414" font-family="Helvetica,sans-Serif" font-size="10.00">radius</text>
</g>
<!-- Node12&#45;&gt;Node12 -->
<g id="edge24" class="edge">
<title>Node12&#45;&gt;Node12</title>
<path fill="none" stroke="#9a32cd" stroke-dasharray="5,2" d="M685.2,-419.4C686.29,-424.31 691.72,-428 701.5,-428 717.14,-428 721.66,-418.57 715.06,-409.76"/>
<polygon fill="#9a32cd" stroke="#9a32cd" points="688.58,-420.33 687.94,-409.76 681.84,-418.42 688.58,-420.33"/>
<text text-anchor="middle" x="701.5" y="-442" font-family="Helvetica,sans-Serif" font-size="10.00"> p_der_abs</text>
<text text-anchor="middle" x="701.5" y="-431" font-family="Helvetica,sans-Serif" font-size="10.00">p_der_var</text>
</g>
<!-- Node18 -->
<g id="node18" class="node">
<title>Node18</title>
<g id="a_node18"><a xlink:href="classKadath_1_1Scalar.html" target="_top" xlink:title=" ">
<polygon fill="none" stroke="black" points="1498,-471.5 1498,-490.5 1578,-490.5 1578,-471.5 1498,-471.5"/>
<text text-anchor="middle" x="1538" y="-478.5" font-family="Helvetica,sans-Serif" font-size="10.00">Kadath::Scalar</text>
</a>
</g>
</g>
<!-- Node12&#45;&gt;Node18 -->
<g id="edge43" class="edge">
<title>Node12&#45;&gt;Node18</title>
<path fill="none" stroke="#9a32cd" stroke-dasharray="5,2" d="M741.26,-387.51C774.82,-377.81 824.85,-366 869.5,-366 869.5,-366 869.5,-366 1383,-366 1453.07,-366 1511.81,-443.38 1530.66,-471.2"/>
<polygon fill="#9a32cd" stroke="#9a32cd" points="739.99,-384.24 731.4,-390.44 741.98,-390.95 739.99,-384.24"/>
<text text-anchor="middle" x="1125" y="-369" font-family="Helvetica,sans-Serif" font-size="10.00"> val_zones</text>
</g>
<!-- Node13&#45;&gt;Node12 -->
<g id="edge25" class="edge">
<title>Node13&#45;&gt;Node12</title>
<path fill="none" stroke="#9a32cd" stroke-dasharray="5,2" d="M541.69,-394.66C569.57,-394.72 602.37,-395.04 632,-396 637.72,-396.18 643.7,-396.44 649.64,-396.74"/>
<polygon fill="#9a32cd" stroke="#9a32cd" points="541.65,-391.16 531.65,-394.65 541.65,-398.16 541.65,-391.16"/>
<text text-anchor="middle" x="592" y="-399" font-family="Helvetica,sans-Serif" font-size="10.00"> base</text>
</g>
<!-- Node14&#45;&gt;Node6 -->
<g id="edge29" class="edge">
<title>Node14&#45;&gt;Node6</title>
<path fill="none" stroke="#9a32cd" stroke-dasharray="5,2" d="M522.29,-76C567.8,-76 638.89,-76 700.5,-76 700.5,-76 700.5,-76 1311,-76 1470.09,-76 1548.32,-56.98 1655,-175 1725.4,-252.88 1731.3,-391.87 1731.56,-429.43"/>
<polygon fill="#9a32cd" stroke="#9a32cd" points="522.13,-72.5 512.13,-76 522.13,-79.5 522.13,-72.5"/>
<text text-anchor="middle" x="1125" y="-79" font-family="Helvetica,sans-Serif" font-size="10.00"> which_coef</text>
</g>
<!-- Node15&#45;&gt;Node6 -->
<g id="edge33" class="edge">
<title>Node15&#45;&gt;Node6</title>
<path fill="none" stroke="#9a32cd" stroke-dasharray="5,2" d="M642.36,-754C682.1,-754 739.39,-754 789.5,-754 789.5,-754 789.5,-754 1311,-754 1374.63,-754 1381.3,-716.03 1441,-694 1502.51,-671.3 1522.51,-679.3 1583,-654 1616.97,-639.79 1630.34,-640.35 1655,-613 1701.4,-561.53 1723.15,-477.42 1729.47,-448.85"/>
<polygon fill="#9a32cd" stroke="#9a32cd" points="642.15,-750.5 632.15,-754 642.15,-757.5 642.15,-750.5"/>
<text text-anchor="middle" x="1125" y="-768" font-family="Helvetica,sans-Serif" font-size="10.00"> paruser</text>
<text text-anchor="middle" x="1125" y="-757" font-family="Helvetica,sans-Serif" font-size="10.00">paruser_bin</text>
</g>
<!-- Node16&#45;&gt;Node6 -->
<g id="edge36" class="edge">
<title>Node16&#45;&gt;Node6</title>
<path fill="none" stroke="#9a32cd" stroke-dasharray="5,2" d="M1557.62,-775.21C1569.87,-764.24 1586.28,-749.65 1601,-737 1624.69,-716.63 1637.75,-718.05 1655,-692 1710.23,-608.59 1726.87,-483.77 1730.59,-448.56"/>
<polygon fill="#9a32cd" stroke="#9a32cd" points="1554.99,-772.87 1549.89,-782.16 1559.66,-778.08 1554.99,-772.87"/>
<text text-anchor="middle" x="1628" y="-806" font-family="Helvetica,sans-Serif" font-size="10.00"> cst</text>
<text text-anchor="middle" x="1628" y="-795" font-family="Helvetica,sans-Serif" font-size="10.00">cst_hard</text>
<text text-anchor="middle" x="1628" y="-784" font-family="Helvetica,sans-Serif" font-size="10.00">opeuser</text>
<text text-anchor="middle" x="1628" y="-773" font-family="Helvetica,sans-Serif" font-size="10.00">opeuser_bin</text>
<text text-anchor="middle" x="1628" y="-762" font-family="Helvetica,sans-Serif" font-size="10.00">results</text>
<text text-anchor="middle" x="1628" y="-751" font-family="Helvetica,sans-Serif" font-size="10.00">term</text>
<text text-anchor="middle" x="1628" y="-740" font-family="Helvetica,sans-Serif" font-size="10.00">term_double</text>
</g>
<!-- Node16&#45;&gt;Node21 -->
<g id="edge55" class="edge">
<title>Node16&#45;&gt;Node21</title>
<path fill="none" stroke="#9a32cd" stroke-dasharray="5,2" d="M1564.11,-806.41C1589,-818.59 1627.32,-831.51 1655,-814 1670.79,-804.01 1659.02,-788.4 1673,-776 1699.94,-752.09 1797.27,-725.61 1852.33,-712.06"/>
<polygon fill="#9a32cd" stroke="#9a32cd" points="1565.45,-803.16 1554.96,-801.67 1562.23,-809.38 1565.45,-803.16"/>
<text text-anchor="middle" x="1732.5" y="-856" font-family="Helvetica,sans-Serif" font-size="10.00"> p_christo</text>
<text text-anchor="middle" x="1732.5" y="-845" font-family="Helvetica,sans-Serif" font-size="10.00">p_det_cov</text>
<text text-anchor="middle" x="1732.5" y="-834" font-family="Helvetica,sans-Serif" font-size="10.00">p_dirac</text>
<text text-anchor="middle" x="1732.5" y="-823" font-family="Helvetica,sans-Serif" font-size="10.00">p_met_con</text>
<text text-anchor="middle" x="1732.5" y="-812" font-family="Helvetica,sans-Serif" font-size="10.00">p_met_cov</text>
<text text-anchor="middle" x="1732.5" y="-801" font-family="Helvetica,sans-Serif" font-size="10.00">p_ricci_scalar</text>
<text text-anchor="middle" x="1732.5" y="-790" font-family="Helvetica,sans-Serif" font-size="10.00">p_ricci_tensor</text>
<text text-anchor="middle" x="1732.5" y="-779" font-family="Helvetica,sans-Serif" font-size="10.00">p_riemann</text>
</g>
<!-- Node16&#45;&gt;Node22 -->
<g id="edge59" class="edge">
<title>Node16&#45;&gt;Node22</title>
<path fill="none" stroke="#9a32cd" stroke-dasharray="5,2" d="M1561.62,-807.44C1573.2,-815.13 1587.65,-824.39 1601,-832 1676.04,-874.8 1712.36,-901.47 1792,-868 1974.71,-791.2 2029.05,-504.91 2038.06,-448.64"/>
<polygon fill="#9a32cd" stroke="#9a32cd" points="1563.26,-804.33 1553.01,-801.67 1559.36,-810.14 1563.26,-804.33"/>
<text text-anchor="middle" x="1820.5" y="-862" font-family="Helvetica,sans-Serif" font-size="10.00"> res</text>
</g>
<!-- Node17&#45;&gt;Node6 -->
<g id="edge56" class="edge">
<title>Node17&#45;&gt;Node6</title>
<path fill="none" stroke="#9a32cd" stroke-dasharray="5,2" d="M1433.52,-533.1C1447.04,-531.04 1461.61,-528.63 1475,-526 1523.45,-516.5 1536.03,-515.2 1583,-500 1629.94,-484.81 1682.96,-461.46 1711.21,-448.5"/>
<polygon fill="#9a32cd" stroke="#9a32cd" points="1432.81,-529.67 1423.43,-534.61 1433.84,-536.6 1432.81,-529.67"/>
<text text-anchor="middle" x="1538" y="-525" font-family="Helvetica,sans-Serif" font-size="10.00"> var</text>
</g>
<!-- Node17&#45;&gt;Node16 -->
<g id="edge38" class="edge">
<title>Node17&#45;&gt;Node16</title>
<path fill="none" stroke="#9a32cd" stroke-dasharray="5,2" d="M1396.51,-557.76C1415.17,-582.64 1449.43,-629.61 1475,-672 1498.98,-711.76 1522.96,-761.8 1532.59,-782.43"/>
<polygon fill="#9a32cd" stroke="#9a32cd" points="1399.2,-555.51 1390.38,-549.64 1393.61,-559.73 1399.2,-555.51"/>
<text text-anchor="middle" x="1458" y="-686" font-family="Helvetica,sans-Serif" font-size="10.00"> der_t</text>
<text text-anchor="middle" x="1458" y="-675" font-family="Helvetica,sans-Serif" font-size="10.00">val_t</text>
</g>
<!-- Node17&#45;&gt;Node18 -->
<g id="edge42" class="edge">
<title>Node17&#45;&gt;Node18</title>
<path fill="none" stroke="midnightblue" d="M1401.55,-523.76C1412.36,-515.12 1426.66,-505.07 1441,-499 1458.8,-491.47 1479.79,-487.07 1497.59,-484.52"/>
<polygon fill="midnightblue" stroke="midnightblue" points="1399.15,-521.19 1393.69,-530.27 1403.62,-526.58 1399.15,-521.19"/>
</g>
<!-- Node18&#45;&gt;Node17 -->
<g id="edge41" class="edge">
<title>Node18&#45;&gt;Node17</title>
<path fill="none" stroke="#9a32cd" stroke-dasharray="5,2" d="M1498.33,-494.04C1480.74,-500.14 1459.71,-507.66 1441,-515 1428.75,-519.8 1415.24,-525.6 1404.34,-530.4"/>
<polygon fill="#9a32cd" stroke="#9a32cd" points="1499.93,-497.19 1508.25,-490.62 1497.66,-490.57 1499.93,-497.19"/>
<text text-anchor="middle" x="1458" y="-518" font-family="Helvetica,sans-Serif" font-size="10.00"> cmp</text>
</g>
<!-- Node19&#45;&gt;Node17 -->
<g id="edge45" class="edge">
<title>Node19&#45;&gt;Node17</title>
<path fill="none" stroke="#9a32cd" stroke-dasharray="5,2" d="M1285.58,-589.84C1298.18,-586.38 1311.23,-582.12 1323,-577 1339.65,-569.75 1356.97,-558.07 1368.3,-549.77"/>
<polygon fill="#9a32cd" stroke="#9a32cd" points="1284.4,-586.53 1275.6,-592.44 1286.16,-593.3 1284.4,-586.53"/>
<text text-anchor="middle" x="1310" y="-589" font-family="Helvetica,sans-Serif" font-size="10.00"> basis</text>
</g>
<!-- Node20&#45;&gt;Node17 -->
<g id="edge49" class="edge">
<title>Node20&#45;&gt;Node17</title>
<path fill="none" stroke="#9a32cd" stroke-dasharray="5,2" d="M407.58,-715C457.87,-715 528.8,-715 591,-715 591,-715 591,-715 1034.5,-715 1172.37,-715 1210.68,-680.95 1323,-601 1343.95,-586.09 1363.51,-562.85 1373.69,-549.78"/>
<polygon fill="#9a32cd" stroke="#9a32cd" points="407.49,-711.5 397.49,-715 407.49,-718.5 407.49,-711.5"/>
<text text-anchor="middle" x="870.5" y="-718" font-family="Helvetica,sans-Serif" font-size="10.00"> parameters</text>
</g>
<!-- Node21&#45;&gt;Node6 -->
<g id="edge51" class="edge">
<title>Node21&#45;&gt;Node6</title>
<path fill="none" stroke="#9a32cd" stroke-dasharray="5,2" d="M1880.22,-684.54C1868.25,-664.08 1848.33,-630.13 1831,-601 1796.59,-543.17 1754.77,-474.08 1739.47,-448.84"/>
<polygon fill="#9a32cd" stroke="#9a32cd" points="1877.34,-686.55 1885.41,-693.42 1883.38,-683.02 1877.34,-686.55"/>
<text text-anchor="middle" x="1820.5" y="-604" font-family="Helvetica,sans-Serif" font-size="10.00"> met</text>
</g>
<!-- Node22&#45;&gt;Node6 -->
<g id="edge57" class="edge">
<title>Node22&#45;&gt;Node6</title>
<path fill="none" stroke="#9a32cd" stroke-dasharray="5,2" d="M1985.79,-439C1931.57,-439 1848.06,-439 1792.14,-439"/>
<polygon fill="#9a32cd" stroke="#9a32cd" points="1985.9,-442.5 1995.9,-439 1985.9,-435.5 1985.9,-442.5"/>
<text text-anchor="middle" x="1892" y="-442" font-family="Helvetica,sans-Serif" font-size="10.00"> def</text>
</g>
</g>
</svg>
