<?xml version="1.0" encoding="UTF-8" standalone="no"?>
<!DOCTYPE svg PUBLIC "-//W3C//DTD SVG 1.1//EN"
 "http://www.w3.org/Graphics/SVG/1.1/DTD/svg11.dtd">
<!-- Generated by graphviz version 2.47.1 (20210515.0534)
 -->
<!-- Title: Kadath::Metric_conf_factor_const Pages: 1 -->
<svg width="2111pt" height="868pt"
 viewBox="0.00 0.00 2111.00 867.51" xmlns="http://www.w3.org/2000/svg" xmlns:xlink="http://www.w3.org/1999/xlink">
<g id="graph0" class="graph" transform="scale(1 1) rotate(0) translate(4 863.51)">
<title>Kadath::Metric_conf_factor_const</title>
<!-- Node1 -->
<g id="node1" class="node">
<title>Node1</title>
<g id="a_node1"><a xlink:title=" ">
<polygon fill="#bfbfbf" stroke="black" points="2000,-621 2000,-651 2103,-651 2103,-621 2000,-621"/>
<text text-anchor="start" x="2008" y="-639" font-family="Helvetica,sans-Serif" font-size="10.00">Kadath::Metric_conf</text>
<text text-anchor="middle" x="2051.5" y="-628" font-family="Helvetica,sans-Serif" font-size="10.00">_factor_const</text>
</a>
</g>
</g>
<!-- Node2 -->
<g id="node2" class="node">
<title>Node2</title>
<g id="a_node2"><a xlink:href="classKadath_1_1Metric__conf__factor.html" target="_top" xlink:title=" ">
<polygon fill="none" stroke="black" points="1836,-621 1836,-651 1939,-651 1939,-621 1836,-621"/>
<text text-anchor="start" x="1844" y="-639" font-family="Helvetica,sans-Serif" font-size="10.00">Kadath::Metric_conf</text>
<text text-anchor="middle" x="1887.5" y="-628" font-family="Helvetica,sans-Serif" font-size="10.00">_factor</text>
</a>
</g>
</g>
<!-- Node2&#45;&gt;Node1 -->
<g id="edge1" class="edge">
<title>Node2&#45;&gt;Node1</title>
<path fill="none" stroke="midnightblue" d="M1949.47,-636C1966.09,-636 1983.9,-636 1999.87,-636"/>
<polygon fill="midnightblue" stroke="midnightblue" points="1949.31,-632.5 1939.31,-636 1949.31,-639.5 1949.31,-632.5"/>
</g>
<!-- Node3 -->
<g id="node3" class="node">
<title>Node3</title>
<g id="a_node3"><a xlink:href="classKadath_1_1Metric.html" target="_top" xlink:title=" ">
<polygon fill="none" stroke="black" points="1464,-421.5 1464,-440.5 1543,-440.5 1543,-421.5 1464,-421.5"/>
<text text-anchor="middle" x="1503.5" y="-428.5" font-family="Helvetica,sans-Serif" font-size="10.00">Kadath::Metric</text>
</a>
</g>
</g>
<!-- Node3&#45;&gt;Node2 -->
<g id="edge2" class="edge">
<title>Node3&#45;&gt;Node2</title>
<path fill="none" stroke="midnightblue" d="M1542.08,-443.98C1603.08,-466.01 1726.06,-514.47 1818,-577 1837.47,-590.24 1857.64,-608.22 1871.01,-620.84"/>
<polygon fill="midnightblue" stroke="midnightblue" points="1543.08,-440.62 1532.49,-440.55 1540.73,-447.21 1543.08,-440.62"/>
</g>
<!-- Node12 -->
<g id="node12" class="node">
<title>Node12</title>
<g id="a_node12"><a xlink:href="classKadath_1_1System__of__eqs.html" target="_top" xlink:title=" ">
<polygon fill="none" stroke="black" points="1659,-316.5 1659,-335.5 1778,-335.5 1778,-316.5 1659,-316.5"/>
<text text-anchor="middle" x="1718.5" y="-323.5" font-family="Helvetica,sans-Serif" font-size="10.00">Kadath::System_of_eqs</text>
</a>
</g>
</g>
<!-- Node3&#45;&gt;Node12 -->
<g id="edge56" class="edge">
<title>Node3&#45;&gt;Node12</title>
<path fill="none" stroke="#9a32cd" stroke-dasharray="5,2" d="M1553.29,-426.45C1580.39,-422.35 1613.99,-414.62 1641,-400 1671.39,-383.55 1698.2,-351.65 1710.45,-335.65"/>
<polygon fill="#9a32cd" stroke="#9a32cd" points="1552.67,-423 1543.24,-427.84 1553.63,-429.93 1552.67,-423"/>
<text text-anchor="middle" x="1601" y="-427" font-family="Helvetica,sans-Serif" font-size="10.00"> met</text>
</g>
<!-- Node26 -->
<g id="node26" class="node">
<title>Node26</title>
<g id="a_node26"><a xlink:href="classKadath_1_1Metric__flat.html" target="_top" xlink:title=" ">
<polygon fill="none" stroke="black" points="1670,-565.5 1670,-584.5 1767,-584.5 1767,-565.5 1670,-565.5"/>
<text text-anchor="middle" x="1718.5" y="-572.5" font-family="Helvetica,sans-Serif" font-size="10.00">Kadath::Metric_flat</text>
</a>
</g>
</g>
<!-- Node3&#45;&gt;Node26 -->
<g id="edge69" class="edge">
<title>Node3&#45;&gt;Node26</title>
<path fill="none" stroke="midnightblue" d="M1516.41,-449.3C1526.8,-464.15 1542.99,-484.89 1561,-499 1601.06,-530.4 1656.18,-553.39 1689.19,-565.44"/>
<polygon fill="midnightblue" stroke="midnightblue" points="1519.24,-447.23 1510.73,-440.91 1513.45,-451.16 1519.24,-447.23"/>
</g>
<!-- Node4 -->
<g id="node4" class="node">
<title>Node4</title>
<g id="a_node4"><a xlink:href="structKadath_1_1MemoryMappable.html" target="_top" xlink:title=" ">
<polygon fill="none" stroke="black" points="0,-361.5 0,-380.5 128,-380.5 128,-361.5 0,-361.5"/>
<text text-anchor="middle" x="64" y="-368.5" font-family="Helvetica,sans-Serif" font-size="10.00">Kadath::MemoryMappable</text>
</a>
</g>
</g>
<!-- Node4&#45;&gt;Node3 -->
<g id="edge3" class="edge">
<title>Node4&#45;&gt;Node3</title>
<path fill="none" stroke="midnightblue" d="M89.91,-356.4C131.93,-332.74 220.32,-287.05 302,-271 351.28,-261.32 364.82,-268.88 415,-271 673.24,-281.9 736.03,-320 994.5,-320 994.5,-320 994.5,-320 1273,-320 1350.14,-320 1386.13,-285.36 1446,-334 1467.94,-351.82 1449.15,-370.95 1464,-395 1470.44,-405.43 1480.69,-414.81 1488.99,-421.37"/>
<polygon fill="midnightblue" stroke="midnightblue" points="88.15,-353.38 81.2,-361.37 91.62,-359.46 88.15,-353.38"/>
</g>
<!-- Node5 -->
<g id="node5" class="node">
<title>Node5</title>
<g id="a_node5"><a xlink:href="classKadath_1_1Space.html" target="_top" xlink:title=" ">
<polygon fill="none" stroke="black" points="674.5,-413.5 674.5,-432.5 754.5,-432.5 754.5,-413.5 674.5,-413.5"/>
<text text-anchor="middle" x="714.5" y="-420.5" font-family="Helvetica,sans-Serif" font-size="10.00">Kadath::Space</text>
</a>
</g>
</g>
<!-- Node4&#45;&gt;Node5 -->
<g id="edge5" class="edge">
<title>Node4&#45;&gt;Node5</title>
<path fill="none" stroke="midnightblue" d="M116.02,-359.38C163.79,-349.17 237.3,-335.16 302,-330 352.06,-326.01 365.35,-322.44 415,-330 521.52,-346.21 642.32,-393.2 691.21,-413.49"/>
<polygon fill="midnightblue" stroke="midnightblue" points="115.27,-355.96 106.24,-361.5 116.75,-362.81 115.27,-355.96"/>
</g>
<!-- Node6 -->
<g id="node6" class="node">
<title>Node6</title>
<g id="a_node6"><a xlink:href="classKadath_1_1Domain.html" target="_top" xlink:title=" ">
<polygon fill="none" stroke="black" points="447.5,-681.5 447.5,-700.5 532.5,-700.5 532.5,-681.5 447.5,-681.5"/>
<text text-anchor="middle" x="490" y="-688.5" font-family="Helvetica,sans-Serif" font-size="10.00">Kadath::Domain</text>
</a>
</g>
</g>
<!-- Node4&#45;&gt;Node6 -->
<g id="edge7" class="edge">
<title>Node4&#45;&gt;Node6</title>
<path fill="none" stroke="midnightblue" d="M64.37,-390.9C63.93,-441.84 70.27,-577.75 146,-647 229.51,-723.37 376.01,-711.13 447.45,-699.36"/>
<polygon fill="midnightblue" stroke="midnightblue" points="67.88,-390.69 64.57,-380.62 60.88,-390.55 67.88,-390.69"/>
</g>
<!-- Node7 -->
<g id="node7" class="node">
<title>Node7</title>
<g id="a_node7"><a xlink:href="classKadath_1_1Dim__array.html" target="_top" xlink:title=" ">
<polygon fill="none" stroke="black" points="177,-361.5 177,-380.5 272,-380.5 272,-361.5 177,-361.5"/>
<text text-anchor="middle" x="224.5" y="-368.5" font-family="Helvetica,sans-Serif" font-size="10.00">Kadath::Dim_array</text>
</a>
</g>
</g>
<!-- Node4&#45;&gt;Node7 -->
<g id="edge9" class="edge">
<title>Node4&#45;&gt;Node7</title>
<path fill="none" stroke="midnightblue" d="M138.47,-371C151.49,-371 164.72,-371 176.74,-371"/>
<polygon fill="midnightblue" stroke="midnightblue" points="138.1,-367.5 128.1,-371 138.1,-374.5 138.1,-367.5"/>
</g>
<!-- Node8 -->
<g id="node8" class="node">
<title>Node8</title>
<g id="a_node8"><a xlink:href="classKadath_1_1Array.html" target="_top" xlink:title=" ">
<polygon fill="none" stroke="black" points="165,-781.5 165,-800.5 284,-800.5 284,-781.5 165,-781.5"/>
<text text-anchor="middle" x="224.5" y="-788.5" font-family="Helvetica,sans-Serif" font-size="10.00">Kadath::Array&lt; double &gt;</text>
</a>
</g>
</g>
<!-- Node4&#45;&gt;Node8 -->
<g id="edge11" class="edge">
<title>Node4&#45;&gt;Node8</title>
<path fill="none" stroke="midnightblue" d="M66.5,-390.83C72.31,-462.66 95.56,-708.06 146,-765 152.49,-772.33 161.12,-777.6 170.25,-781.38"/>
<polygon fill="midnightblue" stroke="midnightblue" points="69.96,-390.2 65.69,-380.51 62.98,-390.75 69.96,-390.2"/>
</g>
<!-- Node9 -->
<g id="node9" class="node">
<title>Node9</title>
<g id="a_node9"><a xlink:href="classKadath_1_1Val__domain.html" target="_top" xlink:title=" ">
<polygon fill="none" stroke="black" points="663,-757.5 663,-776.5 766,-776.5 766,-757.5 663,-757.5"/>
<text text-anchor="middle" x="714.5" y="-764.5" font-family="Helvetica,sans-Serif" font-size="10.00">Kadath::Val_domain</text>
</a>
</g>
</g>
<!-- Node4&#45;&gt;Node9 -->
<g id="edge13" class="edge">
<title>Node4&#45;&gt;Node9</title>
<path fill="none" stroke="midnightblue" d="M65.94,-390.74C70.22,-470.31 90.97,-765.41 165,-810 310.58,-897.69 378,-844.9 547,-827 591.3,-822.31 603.38,-821.87 645,-806 665.07,-798.34 686.29,-785.41 699.7,-776.55"/>
<polygon fill="midnightblue" stroke="midnightblue" points="69.43,-390.43 65.42,-380.62 62.44,-390.78 69.43,-390.43"/>
</g>
<!-- Node10 -->
<g id="node10" class="node">
<title>Node10</title>
<g id="a_node10"><a xlink:href="classKadath_1_1Base__spectral.html" target="_top" xlink:title=" ">
<polygon fill="none" stroke="black" points="433,-737.5 433,-756.5 547,-756.5 547,-737.5 433,-737.5"/>
<text text-anchor="middle" x="490" y="-744.5" font-family="Helvetica,sans-Serif" font-size="10.00">Kadath::Base_spectral</text>
</a>
</g>
</g>
<!-- Node4&#45;&gt;Node10 -->
<g id="edge17" class="edge">
<title>Node4&#45;&gt;Node10</title>
<path fill="none" stroke="midnightblue" d="M64.2,-390.79C63.07,-448.62 68.48,-618.21 165,-697 241.28,-759.27 362.42,-760.21 432.96,-754.28"/>
<polygon fill="midnightblue" stroke="midnightblue" points="67.7,-390.87 64.49,-380.78 60.71,-390.67 67.7,-390.87"/>
</g>
<!-- Node11 -->
<g id="node11" class="node">
<title>Node11</title>
<g id="a_node11"><a xlink:href="classKadath_1_1Array.html" target="_top" xlink:title=" ">
<polygon fill="none" stroke="black" points="174,-434.5 174,-453.5 275,-453.5 275,-434.5 174,-434.5"/>
<text text-anchor="middle" x="224.5" y="-441.5" font-family="Helvetica,sans-Serif" font-size="10.00">Kadath::Array&lt; int &gt;</text>
</a>
</g>
</g>
<!-- Node4&#45;&gt;Node11 -->
<g id="edge19" class="edge">
<title>Node4&#45;&gt;Node11</title>
<path fill="none" stroke="midnightblue" d="M94.91,-384.77C126.43,-399.29 175.24,-421.77 202.77,-434.45"/>
<polygon fill="midnightblue" stroke="midnightblue" points="96.27,-381.55 85.72,-380.54 93.34,-387.91 96.27,-381.55"/>
</g>
<!-- Node13 -->
<g id="node13" class="node">
<title>Node13</title>
<g id="a_node13"><a xlink:href="classKadath_1_1Equation.html" target="_top" xlink:title=" ">
<polygon fill="none" stroke="black" points="2007,-142.5 2007,-161.5 2096,-161.5 2096,-142.5 2007,-142.5"/>
<text text-anchor="middle" x="2051.5" y="-149.5" font-family="Helvetica,sans-Serif" font-size="10.00">Kadath::Equation</text>
</a>
</g>
</g>
<!-- Node4&#45;&gt;Node13 -->
<g id="edge23" class="edge">
<title>Node4&#45;&gt;Node13</title>
<path fill="none" stroke="midnightblue" d="M65.55,-351.43C68.65,-282.05 89.06,-52 223.5,-52 223.5,-52 223.5,-52 1808,-52 1888.22,-52 1914.86,-56.09 1982,-100 2002.74,-113.57 2025.39,-131.4 2038.75,-142.27"/>
<polygon fill="midnightblue" stroke="midnightblue" points="62.06,-351.33 65.18,-361.45 69.05,-351.59 62.06,-351.33"/>
</g>
<!-- Node14 -->
<g id="node14" class="node">
<title>Node14</title>
<g id="a_node14"><a xlink:href="classKadath_1_1Ope__eq.html" target="_top" xlink:title=" ">
<polygon fill="none" stroke="black" points="1844.5,-142.5 1844.5,-161.5 1930.5,-161.5 1930.5,-142.5 1844.5,-142.5"/>
<text text-anchor="middle" x="1887.5" y="-149.5" font-family="Helvetica,sans-Serif" font-size="10.00">Kadath::Ope_eq</text>
</a>
</g>
</g>
<!-- Node4&#45;&gt;Node14 -->
<g id="edge26" class="edge">
<title>Node4&#45;&gt;Node14</title>
<path fill="none" stroke="midnightblue" d="M66.91,-350.96C74.14,-287.63 105.74,-96 223.5,-96 223.5,-96 223.5,-96 1095,-96 1226.66,-96 1257.84,-128 1389.5,-128 1389.5,-128 1389.5,-128 1719.5,-128 1762.26,-128 1810.57,-135.81 1844.18,-142.51"/>
<polygon fill="midnightblue" stroke="midnightblue" points="63.39,-350.9 65.83,-361.21 70.35,-351.63 63.39,-350.9"/>
</g>
<!-- Node15 -->
<g id="node15" class="node">
<title>Node15</title>
<g id="a_node15"><a xlink:href="classKadath_1_1Eq__int.html" target="_top" xlink:title=" ">
<polygon fill="none" stroke="black" points="2012,-23.5 2012,-42.5 2091,-42.5 2091,-23.5 2012,-23.5"/>
<text text-anchor="middle" x="2051.5" y="-30.5" font-family="Helvetica,sans-Serif" font-size="10.00">Kadath::Eq_int</text>
</a>
</g>
</g>
<!-- Node4&#45;&gt;Node15 -->
<g id="edge31" class="edge">
<title>Node4&#45;&gt;Node15</title>
<path fill="none" stroke="midnightblue" d="M64.38,-351.26C63.09,-274.48 69.27,0 223.5,0 223.5,0 223.5,0 1888.5,0 1935.86,0 1989.47,-13.71 2021.6,-23.46"/>
<polygon fill="midnightblue" stroke="midnightblue" points="60.89,-351.54 64.62,-361.46 67.89,-351.38 60.89,-351.54"/>
</g>
<!-- Node16 -->
<g id="node16" class="node">
<title>Node16</title>
<g id="a_node16"><a xlink:href="classKadath_1_1Index.html" target="_top" xlink:title=" ">
<polygon fill="none" stroke="black" points="452.5,-209.5 452.5,-228.5 527.5,-228.5 527.5,-209.5 452.5,-209.5"/>
<text text-anchor="middle" x="490" y="-216.5" font-family="Helvetica,sans-Serif" font-size="10.00">Kadath::Index</text>
</a>
</g>
</g>
<!-- Node4&#45;&gt;Node16 -->
<g id="edge35" class="edge">
<title>Node4&#45;&gt;Node16</title>
<path fill="none" stroke="midnightblue" d="M70.98,-351.57C81.13,-322.28 104.75,-267.62 146,-243 243.64,-184.71 385.9,-199.88 452.3,-211.46"/>
<polygon fill="midnightblue" stroke="midnightblue" points="67.53,-350.84 67.74,-361.44 74.18,-353.03 67.53,-350.84"/>
</g>
<!-- Node17 -->
<g id="node17" class="node">
<title>Node17</title>
<g id="a_node17"><a xlink:href="classKadath_1_1Param.html" target="_top" xlink:title=" ">
<polygon fill="none" stroke="black" points="565,-134.5 565,-153.5 645,-153.5 645,-134.5 565,-134.5"/>
<text text-anchor="middle" x="605" y="-141.5" font-family="Helvetica,sans-Serif" font-size="10.00">Kadath::Param</text>
</a>
</g>
</g>
<!-- Node4&#45;&gt;Node17 -->
<g id="edge39" class="edge">
<title>Node4&#45;&gt;Node17</title>
<path fill="none" stroke="midnightblue" d="M66.15,-351.01C69.77,-308.8 84.7,-210.9 146,-167 212.43,-119.43 466.75,-133.35 564.97,-140.74"/>
<polygon fill="midnightblue" stroke="midnightblue" points="62.65,-350.9 65.41,-361.13 69.63,-351.41 62.65,-350.9"/>
</g>
<!-- Node18 -->
<g id="node18" class="node">
<title>Node18</title>
<g id="a_node18"><a xlink:href="classKadath_1_1Term__eq.html" target="_top" xlink:title=" ">
<polygon fill="none" stroke="black" points="1227,-348.5 1227,-367.5 1317,-367.5 1317,-348.5 1227,-348.5"/>
<text text-anchor="middle" x="1272" y="-355.5" font-family="Helvetica,sans-Serif" font-size="10.00">Kadath::Term_eq</text>
</a>
</g>
</g>
<!-- Node4&#45;&gt;Node18 -->
<g id="edge42" class="edge">
<title>Node4&#45;&gt;Node18</title>
<path fill="none" stroke="midnightblue" d="M69.6,-351.5C79.6,-314.05 107.2,-232.82 165,-199 217.56,-168.25 241.11,-197.44 302,-197 410.89,-196.21 441.02,-174.98 547,-200 682.83,-232.06 695.69,-299.79 831,-334 972.1,-369.68 1146.49,-365.58 1226.76,-361.12"/>
<polygon fill="midnightblue" stroke="midnightblue" points="66.2,-350.66 67.14,-361.22 72.99,-352.38 66.2,-350.66"/>
</g>
<!-- Node19 -->
<g id="node19" class="node">
<title>Node19</title>
<g id="a_node19"><a xlink:href="classKadath_1_1Tensor.html" target="_top" xlink:title=" ">
<polygon fill="none" stroke="black" points="1053,-571.5 1053,-590.5 1135,-590.5 1135,-571.5 1053,-571.5"/>
<text text-anchor="middle" x="1094" y="-578.5" font-family="Helvetica,sans-Serif" font-size="10.00">Kadath::Tensor</text>
</a>
</g>
</g>
<!-- Node4&#45;&gt;Node19 -->
<g id="edge44" class="edge">
<title>Node4&#45;&gt;Node19</title>
<path fill="none" stroke="midnightblue" d="M65.58,-390.9C68.28,-440.26 83.21,-567.27 165,-608 318.76,-684.58 766.33,-614.03 938,-608 981.12,-606.48 992.79,-612.97 1035,-604 1048.35,-601.16 1062.61,-595.55 1073.65,-590.57"/>
<polygon fill="midnightblue" stroke="midnightblue" points="69.07,-390.45 65.14,-380.61 62.07,-390.75 69.07,-390.45"/>
</g>
<!-- Node21 -->
<g id="node21" class="node">
<title>Node21</title>
<g id="a_node21"><a xlink:href="classKadath_1_1Base__tensor.html" target="_top" xlink:title=" ">
<polygon fill="none" stroke="black" points="831,-547.5 831,-566.5 938,-566.5 938,-547.5 831,-547.5"/>
<text text-anchor="middle" x="884.5" y="-554.5" font-family="Helvetica,sans-Serif" font-size="10.00">Kadath::Base_tensor</text>
</a>
</g>
</g>
<!-- Node4&#45;&gt;Node21 -->
<g id="edge51" class="edge">
<title>Node4&#45;&gt;Node21</title>
<path fill="none" stroke="midnightblue" d="M71.11,-390.51C87.42,-438.23 136.71,-557 223.5,-557 223.5,-557 223.5,-557 715.5,-557 754.15,-557 797.79,-557 830.91,-557"/>
<polygon fill="midnightblue" stroke="midnightblue" points="74.35,-389.15 67.9,-380.74 67.7,-391.33 74.35,-389.15"/>
</g>
<!-- Node22 -->
<g id="node22" class="node">
<title>Node22</title>
<g id="a_node22"><a xlink:href="classKadath_1_1Param__tensor.html" target="_top" xlink:title=" ">
<polygon fill="none" stroke="black" points="302,-585.5 302,-604.5 415,-604.5 415,-585.5 302,-585.5"/>
<text text-anchor="middle" x="358.5" y="-592.5" font-family="Helvetica,sans-Serif" font-size="10.00">Kadath::Param_tensor</text>
</a>
</g>
</g>
<!-- Node4&#45;&gt;Node22 -->
<g id="edge55" class="edge">
<title>Node4&#45;&gt;Node22</title>
<path fill="none" stroke="midnightblue" d="M66.53,-390.59C70.87,-431.57 87.1,-526.27 146,-571 190.29,-604.64 255.6,-607.02 301.91,-603.27"/>
<polygon fill="midnightblue" stroke="midnightblue" points="70.01,-390.17 65.59,-380.54 63.04,-390.82 70.01,-390.17"/>
</g>
<!-- Node5&#45;&gt;Node3 -->
<g id="edge4" class="edge">
<title>Node5&#45;&gt;Node3</title>
<path fill="none" stroke="#9a32cd" stroke-dasharray="5,2" d="M764.79,-412.5C771.23,-411.47 777.75,-410.59 784,-410 796.83,-408.79 800.11,-409.76 813,-410 989.1,-413.28 1033.54,-409.64 1209,-425 1265.29,-429.93 1278.62,-438.21 1335,-442 1384.22,-445.31 1396.89,-446.74 1446,-442 1451.77,-441.44 1457.82,-440.57 1463.74,-439.56"/>
<polygon fill="#9a32cd" stroke="#9a32cd" points="764.06,-409.08 754.8,-414.23 765.25,-415.98 764.06,-409.08"/>
<text text-anchor="middle" x="1094" y="-422" font-family="Helvetica,sans-Serif" font-size="10.00"> espace</text>
</g>
<!-- Node5&#45;&gt;Node12 -->
<g id="edge33" class="edge">
<title>Node5&#45;&gt;Node12</title>
<path fill="none" stroke="#9a32cd" stroke-dasharray="5,2" d="M764.6,-424.63C853.36,-427.72 1046.42,-435.12 1209,-446 1265.09,-449.75 1278.84,-454.55 1335,-457 1384.29,-459.15 1396.7,-458.78 1446,-457 1489.2,-455.44 1499.96,-453.97 1543,-450 1586.64,-445.98 1603.49,-461.67 1641,-439 1681.95,-414.24 1705.91,-358.2 1714.19,-335.66"/>
<polygon fill="#9a32cd" stroke="#9a32cd" points="764.67,-421.13 754.55,-424.28 764.43,-428.13 764.67,-421.13"/>
<text text-anchor="middle" x="1181" y="-449" font-family="Helvetica,sans-Serif" font-size="10.00"> espace</text>
</g>
<!-- Node5&#45;&gt;Node19 -->
<g id="edge45" class="edge">
<title>Node5&#45;&gt;Node19</title>
<path fill="none" stroke="#9a32cd" stroke-dasharray="5,2" d="M764.34,-433.68C848.1,-452.27 1012.38,-490.01 1035,-505 1061.01,-522.23 1080.1,-555.14 1088.4,-571.41"/>
<polygon fill="#9a32cd" stroke="#9a32cd" points="765.06,-430.25 754.54,-431.51 763.55,-437.09 765.06,-430.25"/>
<text text-anchor="middle" x="884.5" y="-476" font-family="Helvetica,sans-Serif" font-size="10.00"> espace</text>
</g>
<!-- Node5&#45;&gt;Node21 -->
<g id="edge52" class="edge">
<title>Node5&#45;&gt;Node21</title>
<path fill="none" stroke="#9a32cd" stroke-dasharray="5,2" d="M748.66,-436.95C754.62,-439.96 760.63,-443.34 766,-447 811.73,-478.15 857.01,-526.92 875.18,-547.42"/>
<polygon fill="#9a32cd" stroke="#9a32cd" points="749.99,-433.7 739.45,-432.55 746.97,-440.02 749.99,-433.7"/>
<text text-anchor="middle" x="798.5" y="-485" font-family="Helvetica,sans-Serif" font-size="10.00"> space</text>
</g>
<!-- Node6&#45;&gt;Node5 -->
<g id="edge6" class="edge">
<title>Node6&#45;&gt;Node5</title>
<path fill="none" stroke="#9a32cd" stroke-dasharray="5,2" d="M492.58,-671.1C496.85,-630.13 512.19,-535.61 565,-481 594.24,-450.76 641.11,-435.98 674.37,-428.97"/>
<polygon fill="#9a32cd" stroke="#9a32cd" points="489.08,-670.88 491.64,-681.16 496.05,-671.53 489.08,-670.88"/>
<text text-anchor="middle" x="605" y="-484" font-family="Helvetica,sans-Serif" font-size="10.00"> domains</text>
</g>
<!-- Node6&#45;&gt;Node9 -->
<g id="edge20" class="edge">
<title>Node6&#45;&gt;Node9</title>
<path fill="none" stroke="#9a32cd" stroke-dasharray="5,2" d="M512.2,-706.58C526.47,-716.38 546.07,-728.53 565,-736 582.58,-742.94 627.11,-751.84 662.85,-758.32"/>
<polygon fill="#9a32cd" stroke="#9a32cd" points="513.85,-703.46 503.66,-700.56 509.82,-709.18 513.85,-703.46"/>
<text text-anchor="middle" x="605" y="-757" font-family="Helvetica,sans-Serif" font-size="10.00"> zone</text>
</g>
<!-- Node6&#45;&gt;Node13 -->
<g id="edge29" class="edge">
<title>Node6&#45;&gt;Node13</title>
<path fill="none" stroke="#9a32cd" stroke-dasharray="5,2" d="M537.61,-679.35C546.64,-677.54 556.07,-675.95 565,-675 600.35,-671.22 609.47,-673.77 645,-675 818.64,-681 862.41,-681.97 1035,-702 1169.2,-717.57 1200.34,-740.08 1335,-751 1384.17,-754.99 1396.67,-751.07 1446,-751 1593.56,-750.78 1635.18,-787.08 1778,-750 1857.14,-729.46 1891.21,-727.34 1939,-661 2026.18,-539.98 1966.16,-476.26 2000,-331 2015.24,-265.59 2039.05,-188.3 2047.45,-161.62"/>
<polygon fill="#9a32cd" stroke="#9a32cd" points="536.69,-675.96 527.64,-681.46 538.15,-682.81 536.69,-675.96"/>
<text text-anchor="middle" x="1272" y="-752" font-family="Helvetica,sans-Serif" font-size="10.00"> dom</text>
</g>
<!-- Node7&#45;&gt;Node6 -->
<g id="edge8" class="edge">
<title>Node7&#45;&gt;Node6</title>
<path fill="none" stroke="#9a32cd" stroke-dasharray="5,2" d="M244.09,-387.88C255.66,-398.45 270.8,-412.41 284,-425 343.14,-481.39 365.93,-488.66 415,-554 447.96,-597.88 475.18,-658.31 485.04,-681.46"/>
<polygon fill="#9a32cd" stroke="#9a32cd" points="246.13,-385 236.38,-380.85 241.41,-390.17 246.13,-385"/>
<text text-anchor="middle" x="358.5" y="-568" font-family="Helvetica,sans-Serif" font-size="10.00"> nbr_coefs</text>
<text text-anchor="middle" x="358.5" y="-557" font-family="Helvetica,sans-Serif" font-size="10.00">nbr_points</text>
</g>
<!-- Node7&#45;&gt;Node16 -->
<g id="edge36" class="edge">
<title>Node7&#45;&gt;Node16</title>
<path fill="none" stroke="#9a32cd" stroke-dasharray="5,2" d="M245.69,-355.25C260.8,-343.78 282.19,-328.17 302,-316 360.27,-280.2 433.19,-244.94 468.27,-228.54"/>
<polygon fill="#9a32cd" stroke="#9a32cd" points="243.38,-352.61 237.58,-361.48 247.64,-358.17 243.38,-352.61"/>
<text text-anchor="middle" x="358.5" y="-319" font-family="Helvetica,sans-Serif" font-size="10.00"> sizes</text>
</g>
<!-- Node8&#45;&gt;Node6 -->
<g id="edge10" class="edge">
<title>Node8&#45;&gt;Node6</title>
<path fill="none" stroke="#9a32cd" stroke-dasharray="5,2" d="M260.23,-777.82C314.09,-757.38 416.46,-718.53 463.81,-700.56"/>
<polygon fill="#9a32cd" stroke="#9a32cd" points="258.87,-774.59 250.77,-781.41 261.36,-781.14 258.87,-774.59"/>
<text text-anchor="middle" x="358.5" y="-764" font-family="Helvetica,sans-Serif" font-size="10.00"> coloc</text>
</g>
<!-- Node8&#45;&gt;Node9 -->
<g id="edge14" class="edge">
<title>Node8&#45;&gt;Node9</title>
<path fill="none" stroke="#9a32cd" stroke-dasharray="5,2" d="M294.41,-796.58C377.93,-801.95 522.68,-806.78 645,-788 659.75,-785.74 675.73,-780.98 688.53,-776.57"/>
<polygon fill="#9a32cd" stroke="#9a32cd" points="294.5,-793.08 284.29,-795.91 294.03,-800.06 294.5,-793.08"/>
<text text-anchor="middle" x="490" y="-815" font-family="Helvetica,sans-Serif" font-size="10.00"> c</text>
<text text-anchor="middle" x="490" y="-804" font-family="Helvetica,sans-Serif" font-size="10.00">cf</text>
</g>
<!-- Node8&#45;&gt;Node12 -->
<g id="edge40" class="edge">
<title>Node8&#45;&gt;Node12</title>
<path fill="none" stroke="#9a32cd" stroke-dasharray="5,2" d="M277.69,-802.62C319.45,-811.29 379.66,-822.41 433,-827 483.48,-831.35 496.33,-827.12 547,-827 644.33,-826.78 669.52,-838.87 766,-826 1017.23,-792.48 1081.1,-771.69 1317,-679 1468.74,-619.38 1530.91,-627.25 1641,-507 1689.61,-453.91 1710.06,-365.37 1715.75,-335.89"/>
<polygon fill="#9a32cd" stroke="#9a32cd" points="278.25,-799.16 267.74,-800.52 276.81,-806.01 278.25,-799.16"/>
<text text-anchor="middle" x="995.5" y="-798" font-family="Helvetica,sans-Serif" font-size="10.00"> val_cst_hard</text>
</g>
<!-- Node9&#45;&gt;Node6 -->
<g id="edge12" class="edge">
<title>Node9&#45;&gt;Node6</title>
<path fill="none" stroke="#9a32cd" stroke-dasharray="5,2" d="M703.09,-748.72C691.55,-730.49 671.07,-703.6 645,-692 609.58,-676.24 564.88,-678.01 532.77,-682.51"/>
<polygon fill="#9a32cd" stroke="#9a32cd" points="700.13,-750.58 708.29,-757.33 706.12,-746.96 700.13,-750.58"/>
<text text-anchor="middle" x="605" y="-728" font-family="Helvetica,sans-Serif" font-size="10.00"> absol</text>
<text text-anchor="middle" x="605" y="-717" font-family="Helvetica,sans-Serif" font-size="10.00">cart</text>
<text text-anchor="middle" x="605" y="-706" font-family="Helvetica,sans-Serif" font-size="10.00">cart_surr</text>
<text text-anchor="middle" x="605" y="-695" font-family="Helvetica,sans-Serif" font-size="10.00">radius</text>
</g>
<!-- Node9&#45;&gt;Node9 -->
<g id="edge15" class="edge">
<title>Node9&#45;&gt;Node9</title>
<path fill="none" stroke="#9a32cd" stroke-dasharray="5,2" d="M699.03,-786.77C700.25,-791.5 705.4,-795 714.5,-795 729.43,-795 733.75,-785.57 727.45,-776.76"/>
<polygon fill="#9a32cd" stroke="#9a32cd" points="702.5,-787.31 701.55,-776.76 695.72,-785.6 702.5,-787.31"/>
<text text-anchor="middle" x="714.5" y="-809" font-family="Helvetica,sans-Serif" font-size="10.00"> p_der_abs</text>
<text text-anchor="middle" x="714.5" y="-798" font-family="Helvetica,sans-Serif" font-size="10.00">p_der_var</text>
</g>
<!-- Node20 -->
<g id="node20" class="node">
<title>Node20</title>
<g id="a_node20"><a xlink:href="classKadath_1_1Scalar.html" target="_top" xlink:title=" ">
<polygon fill="none" stroke="black" points="1232,-650.5 1232,-669.5 1312,-669.5 1312,-650.5 1232,-650.5"/>
<text text-anchor="middle" x="1272" y="-657.5" font-family="Helvetica,sans-Serif" font-size="10.00">Kadath::Scalar</text>
</a>
</g>
</g>
<!-- Node9&#45;&gt;Node20 -->
<g id="edge48" class="edge">
<title>Node9&#45;&gt;Node20</title>
<path fill="none" stroke="#9a32cd" stroke-dasharray="5,2" d="M775.28,-755.51C868.11,-737.67 1052.52,-702.2 1209,-672 1216.43,-670.57 1224.36,-669.03 1231.97,-667.56"/>
<polygon fill="#9a32cd" stroke="#9a32cd" points="774.4,-752.12 765.24,-757.44 775.72,-758.99 774.4,-752.12"/>
<text text-anchor="middle" x="995.5" y="-722" font-family="Helvetica,sans-Serif" font-size="10.00"> val_zones</text>
</g>
<!-- Node10&#45;&gt;Node9 -->
<g id="edge16" class="edge">
<title>Node10&#45;&gt;Node9</title>
<path fill="none" stroke="#9a32cd" stroke-dasharray="5,2" d="M524.76,-759.84C537.21,-763.95 551.57,-767.96 565,-770 597.25,-774.9 633.89,-774.22 662.7,-772.29"/>
<polygon fill="#9a32cd" stroke="#9a32cd" points="525.83,-756.51 515.23,-756.56 523.55,-763.13 525.83,-756.51"/>
<text text-anchor="middle" x="605" y="-776" font-family="Helvetica,sans-Serif" font-size="10.00"> base</text>
</g>
<!-- Node11&#45;&gt;Node10 -->
<g id="edge18" class="edge">
<title>Node11&#45;&gt;Node10</title>
<path fill="none" stroke="#9a32cd" stroke-dasharray="5,2" d="M230.76,-463.72C240.46,-497.36 263.76,-566.77 302,-614 327.82,-645.89 433.17,-712.58 473.34,-737.41"/>
<polygon fill="#9a32cd" stroke="#9a32cd" points="234.04,-462.47 227.98,-453.77 227.3,-464.34 234.04,-462.47"/>
<text text-anchor="middle" x="358.5" y="-701" font-family="Helvetica,sans-Serif" font-size="10.00"> bases_1d</text>
</g>
<!-- Node11&#45;&gt;Node12 -->
<g id="edge37" class="edge">
<title>Node11&#45;&gt;Node12</title>
<path fill="none" stroke="#9a32cd" stroke-dasharray="5,2" d="M273.72,-432.08C400.41,-401.61 753.51,-322.14 1053,-306 1170.16,-299.69 1199.67,-305.28 1317,-306 1461.01,-306.89 1497.85,-294.3 1641,-310 1653.54,-311.38 1667.07,-313.86 1679.21,-316.47"/>
<polygon fill="#9a32cd" stroke="#9a32cd" points="272.83,-428.69 263.94,-434.44 274.48,-435.5 272.83,-428.69"/>
<text text-anchor="middle" x="995.5" y="-326" font-family="Helvetica,sans-Serif" font-size="10.00"> assoc_var</text>
<text text-anchor="middle" x="995.5" y="-315" font-family="Helvetica,sans-Serif" font-size="10.00">assoc_var_double</text>
</g>
<!-- Node11&#45;&gt;Node13 -->
<g id="edge24" class="edge">
<title>Node11&#45;&gt;Node13</title>
<path fill="none" stroke="#9a32cd" stroke-dasharray="5,2" d="M246.51,-428.32C261.36,-417.88 282.08,-404.56 302,-396 389.8,-358.27 1043.68,-210.16 1135,-182 1249.93,-146.55 1269.23,-90 1389.5,-90 1389.5,-90 1389.5,-90 1888.5,-90 1946.32,-90 2008.53,-124.88 2036.03,-142.31"/>
<polygon fill="#9a32cd" stroke="#9a32cd" points="244.16,-425.7 238.09,-434.38 248.25,-431.38 244.16,-425.7"/>
<text text-anchor="middle" x="1181" y="-190" font-family="Helvetica,sans-Serif" font-size="10.00"> n_cond</text>
<text text-anchor="middle" x="1181" y="-179" font-family="Helvetica,sans-Serif" font-size="10.00">p_cmp_used</text>
</g>
<!-- Node11&#45;&gt;Node19 -->
<g id="edge49" class="edge">
<title>Node11&#45;&gt;Node19</title>
<path fill="none" stroke="#9a32cd" stroke-dasharray="5,2" d="M285.5,-448.22C385.54,-455.73 592.54,-473.28 766,-501 843.21,-513.34 861.73,-520.76 938,-538 981.22,-547.77 992.45,-548.65 1035,-561 1045.64,-564.09 1057.21,-567.97 1067.19,-571.49"/>
<polygon fill="#9a32cd" stroke="#9a32cd" points="285.52,-444.71 275.29,-447.46 285,-451.7 285.52,-444.71"/>
<text text-anchor="middle" x="714.5" y="-515" font-family="Helvetica,sans-Serif" font-size="10.00"> give_indices</text>
<text text-anchor="middle" x="714.5" y="-504" font-family="Helvetica,sans-Serif" font-size="10.00">type_indice</text>
</g>
<!-- Node11&#45;&gt;Node21 -->
<g id="edge53" class="edge">
<title>Node11&#45;&gt;Node21</title>
<path fill="none" stroke="#9a32cd" stroke-dasharray="5,2" d="M256.32,-457.46C270.07,-463 286.62,-469.04 302,-473 524.16,-530.23 586.1,-512.09 813,-546 818.76,-546.86 824.78,-547.78 830.77,-548.7"/>
<polygon fill="#9a32cd" stroke="#9a32cd" points="257.43,-454.13 246.85,-453.55 254.76,-460.6 257.43,-454.13"/>
<text text-anchor="middle" x="605" y="-529" font-family="Helvetica,sans-Serif" font-size="10.00"> basis</text>
</g>
<!-- Node12&#45;&gt;Node3 -->
<g id="edge21" class="edge">
<title>Node12&#45;&gt;Node3</title>
<path fill="none" stroke="#9a32cd" stroke-dasharray="5,2" d="M1673.18,-338.55C1640.51,-349.02 1595.88,-365.95 1561,-389 1551.56,-395.24 1551.86,-399.96 1543,-407 1536.46,-412.19 1528.74,-417.2 1521.93,-421.29"/>
<polygon fill="#9a32cd" stroke="#9a32cd" points="1674.41,-341.83 1682.91,-335.51 1672.33,-335.15 1674.41,-341.83"/>
<text text-anchor="middle" x="1601" y="-392" font-family="Helvetica,sans-Serif" font-size="10.00"> syst</text>
</g>
<!-- Node12&#45;&gt;Node14 -->
<g id="edge28" class="edge">
<title>Node12&#45;&gt;Node14</title>
<path fill="none" stroke="#9a32cd" stroke-dasharray="5,2" d="M1733.82,-308.56C1748.85,-290.49 1773.39,-261.63 1796,-238 1823.57,-209.18 1858.26,-177.36 1875.59,-161.74"/>
<polygon fill="#9a32cd" stroke="#9a32cd" points="1730.93,-306.56 1727.26,-316.49 1736.33,-311.02 1730.93,-306.56"/>
<text text-anchor="middle" x="1807" y="-241" font-family="Helvetica,sans-Serif" font-size="10.00"> syst</text>
</g>
<!-- Node13&#45;&gt;Node12 -->
<g id="edge22" class="edge">
<title>Node13&#45;&gt;Node12</title>
<path fill="none" stroke="#9a32cd" stroke-dasharray="5,2" d="M2044.11,-171.14C2034.65,-196.42 2014.46,-240.48 1982,-264 1921.7,-307.68 1835.05,-321.02 1778.03,-324.85"/>
<polygon fill="#9a32cd" stroke="#9a32cd" points="2047.46,-172.16 2047.51,-161.57 2040.86,-169.82 2047.46,-172.16"/>
<text text-anchor="middle" x="1887.5" y="-321" font-family="Helvetica,sans-Serif" font-size="10.00"> eq</text>
</g>
<!-- Node14&#45;&gt;Node13 -->
<g id="edge25" class="edge">
<title>Node14&#45;&gt;Node13</title>
<path fill="none" stroke="#9a32cd" stroke-dasharray="5,2" d="M1940.83,-152C1962.16,-152 1986.53,-152 2006.88,-152"/>
<polygon fill="#9a32cd" stroke="#9a32cd" points="1940.64,-148.5 1930.64,-152 1940.64,-155.5 1940.64,-148.5"/>
<text text-anchor="middle" x="1969.5" y="-155" font-family="Helvetica,sans-Serif" font-size="10.00"> parts</text>
</g>
<!-- Node14&#45;&gt;Node14 -->
<g id="edge27" class="edge">
<title>Node14&#45;&gt;Node14</title>
<path fill="none" stroke="#9a32cd" stroke-dasharray="5,2" d="M1872.77,-171.77C1873.92,-176.5 1878.84,-180 1887.5,-180 1901.72,-180 1905.83,-170.57 1899.83,-161.76"/>
<polygon fill="#9a32cd" stroke="#9a32cd" points="1876.24,-172.3 1875.17,-161.76 1869.43,-170.66 1876.24,-172.3"/>
<text text-anchor="middle" x="1887.5" y="-183" font-family="Helvetica,sans-Serif" font-size="10.00"> parts</text>
</g>
<!-- Node14&#45;&gt;Node15 -->
<g id="edge32" class="edge">
<title>Node14&#45;&gt;Node15</title>
<path fill="none" stroke="#9a32cd" stroke-dasharray="5,2" d="M1909.81,-136.35C1943.86,-111.33 2009.55,-63.08 2037.45,-42.58"/>
<polygon fill="#9a32cd" stroke="#9a32cd" points="1907.47,-133.72 1901.48,-142.46 1911.61,-139.36 1907.47,-133.72"/>
<text text-anchor="middle" x="1969.5" y="-103" font-family="Helvetica,sans-Serif" font-size="10.00"> parts</text>
</g>
<!-- Node23 -->
<g id="node23" class="node">
<title>Node23</title>
<g id="a_node23"><a xlink:href="classKadath_1_1Ope__def.html" target="_top" xlink:title=" ">
<polygon fill="none" stroke="black" points="2007,-340.5 2007,-359.5 2096,-359.5 2096,-340.5 2007,-340.5"/>
<text text-anchor="middle" x="2051.5" y="-347.5" font-family="Helvetica,sans-Serif" font-size="10.00">Kadath::Ope_def</text>
</a>
</g>
</g>
<!-- Node14&#45;&gt;Node23 -->
<g id="edge59" class="edge">
<title>Node14&#45;&gt;Node23</title>
<path fill="none" stroke="midnightblue" d="M1902.77,-169.44C1935.76,-209.77 2016.51,-308.46 2042.38,-340.08"/>
<polygon fill="midnightblue" stroke="midnightblue" points="1905.35,-167.07 1896.31,-161.55 1899.94,-171.51 1905.35,-167.07"/>
</g>
<!-- Node15&#45;&gt;Node12 -->
<g id="edge30" class="edge">
<title>Node15&#45;&gt;Node12</title>
<path fill="none" stroke="#9a32cd" stroke-dasharray="5,2" d="M2040.95,-51.95C2022.6,-88.32 1984.03,-164.56 1982,-167 1946.28,-209.89 1793.23,-289.06 1738.8,-316.41"/>
<polygon fill="#9a32cd" stroke="#9a32cd" points="2044.16,-53.35 2045.54,-42.85 2037.91,-50.2 2044.16,-53.35"/>
<text text-anchor="middle" x="1887.5" y="-267" font-family="Helvetica,sans-Serif" font-size="10.00"> eq_int</text>
</g>
<!-- Node16&#45;&gt;Node12 -->
<g id="edge34" class="edge">
<title>Node16&#45;&gt;Node12</title>
<path fill="none" stroke="#9a32cd" stroke-dasharray="5,2" d="M537.79,-221.64C649.07,-227.68 938.26,-242 1180,-242 1180,-242 1180,-242 1504.5,-242 1566.1,-242 1584.75,-240.91 1641,-266 1668.44,-278.24 1694.71,-302.47 1708.16,-316.09"/>
<polygon fill="#9a32cd" stroke="#9a32cd" points="537.76,-218.13 527.59,-221.08 537.38,-225.12 537.76,-218.13"/>
<text text-anchor="middle" x="1094" y="-245" font-family="Helvetica,sans-Serif" font-size="10.00"> which_coef</text>
</g>
<!-- Node17&#45;&gt;Node12 -->
<g id="edge38" class="edge">
<title>Node17&#45;&gt;Node12</title>
<path fill="none" stroke="#9a32cd" stroke-dasharray="5,2" d="M655.29,-145.68C849.24,-152.62 1553.55,-180.85 1641,-228 1678.62,-248.28 1703.81,-295.81 1713.29,-316.31"/>
<polygon fill="#9a32cd" stroke="#9a32cd" points="655.23,-142.18 645.11,-145.32 654.98,-149.17 655.23,-142.18"/>
<text text-anchor="middle" x="1094" y="-183" font-family="Helvetica,sans-Serif" font-size="10.00"> paruser</text>
<text text-anchor="middle" x="1094" y="-172" font-family="Helvetica,sans-Serif" font-size="10.00">paruser_bin</text>
</g>
<!-- Node18&#45;&gt;Node3 -->
<g id="edge61" class="edge">
<title>Node18&#45;&gt;Node3</title>
<path fill="none" stroke="#9a32cd" stroke-dasharray="5,2" d="M1309.35,-345.45C1347.16,-334.87 1406.27,-325.53 1446,-354 1466.22,-368.49 1448.54,-387.51 1464,-407 1468.6,-412.8 1475.01,-417.58 1481.29,-421.3"/>
<polygon fill="#9a32cd" stroke="#9a32cd" points="1307.88,-342.24 1299.29,-348.44 1309.87,-348.95 1307.88,-342.24"/>
<text text-anchor="middle" x="1390.5" y="-434" font-family="Helvetica,sans-Serif" font-size="10.00"> p_christo</text>
<text text-anchor="middle" x="1390.5" y="-423" font-family="Helvetica,sans-Serif" font-size="10.00">p_det_cov</text>
<text text-anchor="middle" x="1390.5" y="-412" font-family="Helvetica,sans-Serif" font-size="10.00">p_dirac</text>
<text text-anchor="middle" x="1390.5" y="-401" font-family="Helvetica,sans-Serif" font-size="10.00">p_met_con</text>
<text text-anchor="middle" x="1390.5" y="-390" font-family="Helvetica,sans-Serif" font-size="10.00">p_met_cov</text>
<text text-anchor="middle" x="1390.5" y="-379" font-family="Helvetica,sans-Serif" font-size="10.00">p_ricci_scalar</text>
<text text-anchor="middle" x="1390.5" y="-368" font-family="Helvetica,sans-Serif" font-size="10.00">p_ricci_tensor</text>
<text text-anchor="middle" x="1390.5" y="-357" font-family="Helvetica,sans-Serif" font-size="10.00">p_riemann</text>
</g>
<!-- Node18&#45;&gt;Node12 -->
<g id="edge41" class="edge">
<title>Node18&#45;&gt;Node12</title>
<path fill="none" stroke="#9a32cd" stroke-dasharray="5,2" d="M1299.25,-343.81C1310.01,-338.74 1322.79,-333.63 1335,-331 1447.49,-306.8 1582.91,-313.07 1658.7,-319.64"/>
<polygon fill="#9a32cd" stroke="#9a32cd" points="1297.42,-340.81 1290.02,-348.39 1300.53,-347.08 1297.42,-340.81"/>
<text text-anchor="middle" x="1503.5" y="-383" font-family="Helvetica,sans-Serif" font-size="10.00"> cst</text>
<text text-anchor="middle" x="1503.5" y="-372" font-family="Helvetica,sans-Serif" font-size="10.00">cst_hard</text>
<text text-anchor="middle" x="1503.5" y="-361" font-family="Helvetica,sans-Serif" font-size="10.00">opeuser</text>
<text text-anchor="middle" x="1503.5" y="-350" font-family="Helvetica,sans-Serif" font-size="10.00">opeuser_bin</text>
<text text-anchor="middle" x="1503.5" y="-339" font-family="Helvetica,sans-Serif" font-size="10.00">results</text>
<text text-anchor="middle" x="1503.5" y="-328" font-family="Helvetica,sans-Serif" font-size="10.00">term</text>
<text text-anchor="middle" x="1503.5" y="-317" font-family="Helvetica,sans-Serif" font-size="10.00">term_double</text>
</g>
<!-- Node18&#45;&gt;Node23 -->
<g id="edge60" class="edge">
<title>Node18&#45;&gt;Node23</title>
<path fill="none" stroke="#9a32cd" stroke-dasharray="5,2" d="M1292.05,-341.66C1303.85,-332.11 1319.64,-320.33 1335,-312 1429.19,-260.9 1455.96,-249.2 1561,-228 1673.05,-205.38 1730.72,-144.18 1818,-218 1854.82,-249.14 1801.05,-291.77 1836,-325 1859.78,-347.6 1951.28,-350.99 2006.81,-350.86"/>
<polygon fill="#9a32cd" stroke="#9a32cd" points="1289.69,-339.06 1284.22,-348.14 1294.15,-344.45 1289.69,-339.06"/>
<text text-anchor="middle" x="1718.5" y="-202" font-family="Helvetica,sans-Serif" font-size="10.00"> res</text>
</g>
<!-- Node19&#45;&gt;Node12 -->
<g id="edge57" class="edge">
<title>Node19&#45;&gt;Node12</title>
<path fill="none" stroke="#9a32cd" stroke-dasharray="5,2" d="M1145.31,-577.06C1265.03,-566.8 1562.7,-535.91 1641,-477 1690.08,-440.07 1710.01,-362.8 1715.67,-335.67"/>
<polygon fill="#9a32cd" stroke="#9a32cd" points="1144.98,-573.57 1135.31,-577.9 1145.56,-580.55 1144.98,-573.57"/>
<text text-anchor="middle" x="1390.5" y="-559" font-family="Helvetica,sans-Serif" font-size="10.00"> var</text>
</g>
<!-- Node19&#45;&gt;Node18 -->
<g id="edge43" class="edge">
<title>Node19&#45;&gt;Node18</title>
<path fill="none" stroke="#9a32cd" stroke-dasharray="5,2" d="M1108.32,-563.16C1119.63,-548.39 1136.6,-527.14 1153,-510 1176.07,-485.89 1187.66,-485.65 1209,-460 1234.72,-429.1 1257.06,-386.46 1266.38,-367.61"/>
<polygon fill="#9a32cd" stroke="#9a32cd" points="1105.31,-561.33 1102.06,-571.42 1110.89,-565.56 1105.31,-561.33"/>
<text text-anchor="middle" x="1181" y="-524" font-family="Helvetica,sans-Serif" font-size="10.00"> der_t</text>
<text text-anchor="middle" x="1181" y="-513" font-family="Helvetica,sans-Serif" font-size="10.00">val_t</text>
</g>
<!-- Node19&#45;&gt;Node20 -->
<g id="edge47" class="edge">
<title>Node19&#45;&gt;Node20</title>
<path fill="none" stroke="midnightblue" d="M1113.26,-597.42C1120.45,-604.34 1128.52,-612.7 1135,-621 1144.57,-633.26 1139.77,-642.83 1153,-651 1176.34,-665.41 1207.42,-667.24 1231.83,-665.69"/>
<polygon fill="midnightblue" stroke="midnightblue" points="1115.61,-594.83 1105.92,-590.55 1110.83,-599.94 1115.61,-594.83"/>
</g>
<!-- Node24 -->
<g id="node24" class="node">
<title>Node24</title>
<g id="a_node24"><a xlink:href="classKadath_1_1Metric__tensor.html" target="_top" xlink:title=" ">
<polygon fill="none" stroke="black" points="1335,-577.5 1335,-596.5 1446,-596.5 1446,-577.5 1335,-577.5"/>
<text text-anchor="middle" x="1390.5" y="-584.5" font-family="Helvetica,sans-Serif" font-size="10.00">Kadath::Metric_tensor</text>
</a>
</g>
</g>
<!-- Node19&#45;&gt;Node24 -->
<g id="edge63" class="edge">
<title>Node19&#45;&gt;Node24</title>
<path fill="none" stroke="midnightblue" d="M1145.14,-582.02C1197.83,-583.09 1280.43,-584.78 1334.78,-585.89"/>
<polygon fill="midnightblue" stroke="midnightblue" points="1145.09,-578.52 1135.02,-581.82 1144.95,-585.52 1145.09,-578.52"/>
</g>
<!-- Node25 -->
<g id="node25" class="node">
<title>Node25</title>
<g id="a_node25"><a xlink:href="classKadath_1_1Vector.html" target="_top" xlink:title=" ">
<polygon fill="none" stroke="black" points="1561,-649.5 1561,-668.5 1641,-668.5 1641,-649.5 1561,-649.5"/>
<text text-anchor="middle" x="1601" y="-656.5" font-family="Helvetica,sans-Serif" font-size="10.00">Kadath::Vector</text>
</a>
</g>
</g>
<!-- Node19&#45;&gt;Node25 -->
<g id="edge65" class="edge">
<title>Node19&#45;&gt;Node25</title>
<path fill="none" stroke="midnightblue" d="M1145.3,-590.66C1147.9,-591.12 1150.48,-591.57 1153,-592 1303.28,-617.5 1482.86,-642.88 1560.75,-653.64"/>
<polygon fill="midnightblue" stroke="midnightblue" points="1145.68,-587.17 1135.21,-588.83 1144.43,-594.06 1145.68,-587.17"/>
</g>
<!-- Node20&#45;&gt;Node2 -->
<g id="edge66" class="edge">
<title>Node20&#45;&gt;Node2</title>
<path fill="none" stroke="#9a32cd" stroke-dasharray="5,2" d="M1322.04,-667C1412.83,-678.62 1612.91,-697.88 1778,-669 1800.79,-665.01 1825.52,-657.74 1845.6,-651.03"/>
<polygon fill="#9a32cd" stroke="#9a32cd" points="1322.41,-663.52 1312.04,-665.7 1321.5,-670.46 1322.41,-663.52"/>
<text text-anchor="middle" x="1601" y="-687" font-family="Helvetica,sans-Serif" font-size="10.00"> conformal</text>
</g>
<!-- Node20&#45;&gt;Node19 -->
<g id="edge46" class="edge">
<title>Node20&#45;&gt;Node19</title>
<path fill="none" stroke="#9a32cd" stroke-dasharray="5,2" d="M1232.97,-647.09C1204.26,-637.17 1167.43,-624.01 1153,-617 1137.22,-609.33 1120.3,-598.5 1108.84,-590.72"/>
<polygon fill="#9a32cd" stroke="#9a32cd" points="1232.14,-650.51 1242.73,-650.45 1234.42,-643.89 1232.14,-650.51"/>
<text text-anchor="middle" x="1181" y="-641" font-family="Helvetica,sans-Serif" font-size="10.00"> cmp</text>
</g>
<!-- Node21&#45;&gt;Node2 -->
<g id="edge67" class="edge">
<title>Node21&#45;&gt;Node2</title>
<path fill="none" stroke="#9a32cd" stroke-dasharray="5,2" d="M916.45,-570.7C928.74,-576.12 943.03,-582.38 956,-588 1043.34,-625.82 1063.07,-640.83 1153,-672 1255.89,-707.66 1280.61,-736 1389.5,-736 1389.5,-736 1389.5,-736 1719.5,-736 1784.72,-736 1846.52,-679.16 1872.99,-651.19"/>
<polygon fill="#9a32cd" stroke="#9a32cd" points="917.63,-567.4 907.07,-566.56 914.81,-573.8 917.63,-567.4"/>
<text text-anchor="middle" x="1390.5" y="-739" font-family="Helvetica,sans-Serif" font-size="10.00"> basis</text>
</g>
<!-- Node21&#45;&gt;Node19 -->
<g id="edge50" class="edge">
<title>Node21&#45;&gt;Node19</title>
<path fill="none" stroke="#9a32cd" stroke-dasharray="5,2" d="M948.42,-564.28C982.37,-568.2 1023.25,-572.93 1052.87,-576.36"/>
<polygon fill="#9a32cd" stroke="#9a32cd" points="948.47,-560.76 938.13,-563.09 947.66,-567.71 948.47,-560.76"/>
<text text-anchor="middle" x="995.5" y="-576" font-family="Helvetica,sans-Serif" font-size="10.00"> basis</text>
</g>
<!-- Node21&#45;&gt;Node26 -->
<g id="edge70" class="edge">
<title>Node21&#45;&gt;Node26</title>
<path fill="none" stroke="#9a32cd" stroke-dasharray="5,2" d="M948.1,-549.96C1051.75,-539.34 1265.53,-521.78 1446,-535 1524.88,-540.78 1615.62,-555.88 1669.67,-565.79"/>
<polygon fill="#9a32cd" stroke="#9a32cd" points="947.7,-546.49 938.11,-551 948.42,-553.45 947.7,-546.49"/>
<text text-anchor="middle" x="1272" y="-534" font-family="Helvetica,sans-Serif" font-size="10.00"> basis</text>
</g>
<!-- Node22&#45;&gt;Node19 -->
<g id="edge54" class="edge">
<title>Node22&#45;&gt;Node19</title>
<path fill="none" stroke="#9a32cd" stroke-dasharray="5,2" d="M425.38,-596.71C546.33,-599.32 811.83,-602.58 1035,-588 1040.77,-587.62 1046.84,-587.07 1052.8,-586.43"/>
<polygon fill="#9a32cd" stroke="#9a32cd" points="425.26,-593.21 415.18,-596.49 425.1,-600.21 425.26,-593.21"/>
<text text-anchor="middle" x="714.5" y="-601" font-family="Helvetica,sans-Serif" font-size="10.00"> parameters</text>
</g>
<!-- Node23&#45;&gt;Node12 -->
<g id="edge58" class="edge">
<title>Node23&#45;&gt;Node12</title>
<path fill="none" stroke="#9a32cd" stroke-dasharray="5,2" d="M2000.99,-361.34C1994.63,-362.44 1988.18,-363.37 1982,-364 1898.16,-372.48 1800.05,-349.42 1750.91,-335.58"/>
<polygon fill="#9a32cd" stroke="#9a32cd" points="2001.67,-364.78 2010.86,-359.51 2000.39,-357.9 2001.67,-364.78"/>
<text text-anchor="middle" x="1887.5" y="-368" font-family="Helvetica,sans-Serif" font-size="10.00"> def</text>
</g>
<!-- Node24&#45;&gt;Node2 -->
<g id="edge62" class="edge">
<title>Node24&#45;&gt;Node2</title>
<path fill="none" stroke="#9a32cd" stroke-dasharray="5,2" d="M1456.32,-593.42C1556.14,-603.3 1745.38,-622.03 1835.85,-630.99"/>
<polygon fill="#9a32cd" stroke="#9a32cd" points="1456.66,-589.93 1446.36,-592.43 1455.97,-596.9 1456.66,-589.93"/>
<text text-anchor="middle" x="1601" y="-614" font-family="Helvetica,sans-Serif" font-size="10.00"> p_met</text>
</g>
<!-- Node25&#45;&gt;Node2 -->
<g id="edge64" class="edge">
<title>Node25&#45;&gt;Node2</title>
<path fill="none" stroke="#9a32cd" stroke-dasharray="5,2" d="M1651.51,-655C1703.19,-650.82 1783.81,-644.3 1835.9,-640.09"/>
<polygon fill="#9a32cd" stroke="#9a32cd" points="1650.95,-651.53 1641.26,-655.83 1651.51,-658.51 1650.95,-651.53"/>
<text text-anchor="middle" x="1718.5" y="-657" font-family="Helvetica,sans-Serif" font-size="10.00"> grad_conf</text>
</g>
<!-- Node26&#45;&gt;Node2 -->
<g id="edge68" class="edge">
<title>Node26&#45;&gt;Node2</title>
<path fill="none" stroke="#9a32cd" stroke-dasharray="5,2" d="M1777.49,-577.97C1791.1,-579.94 1805.32,-583.06 1818,-588 1837.49,-595.59 1856.72,-609.82 1869.83,-620.83"/>
<polygon fill="#9a32cd" stroke="#9a32cd" points="1777.6,-574.46 1767.25,-576.68 1776.73,-581.4 1777.6,-574.46"/>
<text text-anchor="middle" x="1807" y="-591" font-family="Helvetica,sans-Serif" font-size="10.00"> fmet</text>
</g>
</g>
</svg>
