<?xml version="1.0" encoding="UTF-8" standalone="no"?>
<!DOCTYPE svg PUBLIC "-//W3C//DTD SVG 1.1//EN"
 "http://www.w3.org/Graphics/SVG/1.1/DTD/svg11.dtd">
<!-- Generated by graphviz version 2.47.1 (20210515.0534)
 -->
<!-- Title: Kadath::Domain_fourD_periodic_nucleus Pages: 1 -->
<svg width="452pt" height="276pt"
 viewBox="0.00 0.00 452.41 276.00" xmlns="http://www.w3.org/2000/svg" xmlns:xlink="http://www.w3.org/1999/xlink">
<g id="graph0" class="graph" transform="scale(1 1) rotate(0) translate(4 272)">
<title>Kadath::Domain_fourD_periodic_nucleus</title>
<!-- Node1 -->
<g id="node1" class="node">
<title>Node1</title>
<g id="a_node1"><a xlink:title=" ">
<polygon fill="#bfbfbf" stroke="black" points="31.41,-0.5 31.41,-30.5 144.41,-30.5 144.41,-0.5 31.41,-0.5"/>
<text text-anchor="start" x="39.41" y="-18.5" font-family="Helvetica,sans-Serif" font-size="10.00">Kadath::Domain_fourD</text>
<text text-anchor="middle" x="87.91" y="-7.5" font-family="Helvetica,sans-Serif" font-size="10.00">_periodic_nucleus</text>
</a>
</g>
</g>
<!-- Node2 -->
<g id="node2" class="node">
<title>Node2</title>
<g id="a_node2"><a xlink:href="classKadath_1_1Domain.html" target="_top" xlink:title=" ">
<polygon fill="none" stroke="black" points="61.41,-112.5 61.41,-131.5 146.41,-131.5 146.41,-112.5 61.41,-112.5"/>
<text text-anchor="middle" x="103.91" y="-119.5" font-family="Helvetica,sans-Serif" font-size="10.00">Kadath::Domain</text>
</a>
</g>
</g>
<!-- Node2&#45;&gt;Node1 -->
<g id="edge1" class="edge">
<title>Node2&#45;&gt;Node1</title>
<path fill="none" stroke="midnightblue" d="M101.07,-102.46C97.93,-81.95 92.94,-49.35 90.09,-30.74"/>
<polygon fill="midnightblue" stroke="midnightblue" points="97.63,-103.09 102.6,-112.45 104.55,-102.03 97.63,-103.09"/>
</g>
<!-- Node6 -->
<g id="node6" class="node">
<title>Node6</title>
<g id="a_node6"><a xlink:href="classKadath_1_1Val__domain.html" target="_top" xlink:title=" ">
<polygon fill="none" stroke="black" points="169.41,-6 169.41,-25 272.41,-25 272.41,-6 169.41,-6"/>
<text text-anchor="middle" x="220.91" y="-13" font-family="Helvetica,sans-Serif" font-size="10.00">Kadath::Val_domain</text>
</a>
</g>
</g>
<!-- Node2&#45;&gt;Node6 -->
<g id="edge15" class="edge">
<title>Node2&#45;&gt;Node6</title>
<path fill="none" stroke="#9a32cd" stroke-dasharray="5,2" d="M102.58,-101.93C102.53,-85.9 105.09,-63.37 117.91,-49 126.37,-39.52 154.73,-30.97 179.56,-25.02"/>
<polygon fill="#9a32cd" stroke="#9a32cd" points="99.1,-102.38 102.98,-112.24 106.09,-102.11 99.1,-102.38"/>
<text text-anchor="middle" x="129.41" y="-68.5" font-family="Helvetica,sans-Serif" font-size="10.00"> zone</text>
</g>
<!-- Node3 -->
<g id="node3" class="node">
<title>Node3</title>
<g id="a_node3"><a xlink:href="structKadath_1_1MemoryMappable.html" target="_top" xlink:title=" ">
<polygon fill="none" stroke="black" points="190.91,-248.5 190.91,-267.5 318.91,-267.5 318.91,-248.5 190.91,-248.5"/>
<text text-anchor="middle" x="254.91" y="-255.5" font-family="Helvetica,sans-Serif" font-size="10.00">Kadath::MemoryMappable</text>
</a>
</g>
</g>
<!-- Node3&#45;&gt;Node2 -->
<g id="edge2" class="edge">
<title>Node3&#45;&gt;Node2</title>
<path fill="none" stroke="midnightblue" d="M180.54,-253.42C115.7,-248.55 28.71,-237.21 6.91,-211 -20.27,-178.31 44.01,-146.42 80.65,-131.61"/>
<polygon fill="midnightblue" stroke="midnightblue" points="180.52,-256.93 190.74,-254.14 181.01,-249.94 180.52,-256.93"/>
</g>
<!-- Node4 -->
<g id="node4" class="node">
<title>Node4</title>
<g id="a_node4"><a xlink:href="classKadath_1_1Dim__array.html" target="_top" xlink:title=" ">
<polygon fill="none" stroke="black" points="16.41,-191.5 16.41,-210.5 111.41,-210.5 111.41,-191.5 16.41,-191.5"/>
<text text-anchor="middle" x="63.91" y="-198.5" font-family="Helvetica,sans-Serif" font-size="10.00">Kadath::Dim_array</text>
</a>
</g>
</g>
<!-- Node3&#45;&gt;Node4 -->
<g id="edge4" class="edge">
<title>Node3&#45;&gt;Node4</title>
<path fill="none" stroke="midnightblue" d="M215.32,-245.6C179.08,-235.16 126.26,-219.95 93.55,-210.53"/>
<polygon fill="midnightblue" stroke="midnightblue" points="214.49,-249 225.07,-248.41 216.43,-242.28 214.49,-249"/>
</g>
<!-- Node5 -->
<g id="node5" class="node">
<title>Node5</title>
<g id="a_node5"><a xlink:href="classKadath_1_1Array.html" target="_top" xlink:title=" ">
<polygon fill="none" stroke="black" points="129.41,-191.5 129.41,-210.5 248.41,-210.5 248.41,-191.5 129.41,-191.5"/>
<text text-anchor="middle" x="188.91" y="-198.5" font-family="Helvetica,sans-Serif" font-size="10.00">Kadath::Array&lt; double &gt;</text>
</a>
</g>
</g>
<!-- Node3&#45;&gt;Node5 -->
<g id="edge6" class="edge">
<title>Node3&#45;&gt;Node5</title>
<path fill="none" stroke="midnightblue" d="M236.91,-242C224.87,-231.96 209.44,-219.1 199.37,-210.71"/>
<polygon fill="midnightblue" stroke="midnightblue" points="234.68,-244.69 244.6,-248.41 239.16,-239.32 234.68,-244.69"/>
</g>
<!-- Node3&#45;&gt;Node6 -->
<g id="edge8" class="edge">
<title>Node3&#45;&gt;Node6</title>
<path fill="none" stroke="midnightblue" d="M257.25,-238.24C258.54,-225.01 259.58,-206.88 257.91,-191 251.13,-126.32 230.58,-50.33 223.41,-25.11"/>
<polygon fill="midnightblue" stroke="midnightblue" points="253.75,-238.11 256.12,-248.43 260.71,-238.88 253.75,-238.11"/>
</g>
<!-- Node7 -->
<g id="node7" class="node">
<title>Node7</title>
<g id="a_node7"><a xlink:href="classKadath_1_1Base__spectral.html" target="_top" xlink:title=" ">
<polygon fill="none" stroke="black" points="304.91,-112.5 304.91,-131.5 418.91,-131.5 418.91,-112.5 304.91,-112.5"/>
<text text-anchor="middle" x="361.91" y="-119.5" font-family="Helvetica,sans-Serif" font-size="10.00">Kadath::Base_spectral</text>
</a>
</g>
</g>
<!-- Node3&#45;&gt;Node7 -->
<g id="edge12" class="edge">
<title>Node3&#45;&gt;Node7</title>
<path fill="none" stroke="midnightblue" d="M276.58,-242.63C281.57,-238.82 286.65,-234.51 290.91,-230 321.37,-197.74 347.38,-150.98 357.45,-131.75"/>
<polygon fill="midnightblue" stroke="midnightblue" points="274.52,-239.8 268.45,-248.49 278.61,-245.48 274.52,-239.8"/>
</g>
<!-- Node8 -->
<g id="node8" class="node">
<title>Node8</title>
<g id="a_node8"><a xlink:href="classKadath_1_1Array.html" target="_top" xlink:title=" ">
<polygon fill="none" stroke="black" points="343.41,-191.5 343.41,-210.5 444.41,-210.5 444.41,-191.5 343.41,-191.5"/>
<text text-anchor="middle" x="393.91" y="-198.5" font-family="Helvetica,sans-Serif" font-size="10.00">Kadath::Array&lt; int &gt;</text>
</a>
</g>
</g>
<!-- Node3&#45;&gt;Node8 -->
<g id="edge14" class="edge">
<title>Node3&#45;&gt;Node8</title>
<path fill="none" stroke="midnightblue" d="M289.04,-245.01C301.63,-240.46 315.98,-235.14 328.91,-230 344.44,-223.83 361.82,-216.31 374.69,-210.62"/>
<polygon fill="midnightblue" stroke="midnightblue" points="287.61,-241.8 279.37,-248.47 289.97,-248.39 287.61,-241.8"/>
</g>
<!-- Node4&#45;&gt;Node2 -->
<g id="edge3" class="edge">
<title>Node4&#45;&gt;Node2</title>
<path fill="none" stroke="#9a32cd" stroke-dasharray="5,2" d="M73.15,-182.22C81.35,-166.44 92.98,-144.04 99.34,-131.81"/>
<polygon fill="#9a32cd" stroke="#9a32cd" points="69.85,-180.98 68.35,-191.47 76.06,-184.2 69.85,-180.98"/>
<text text-anchor="middle" x="111.91" y="-165" font-family="Helvetica,sans-Serif" font-size="10.00"> nbr_coefs</text>
<text text-anchor="middle" x="111.91" y="-154" font-family="Helvetica,sans-Serif" font-size="10.00">nbr_points</text>
</g>
<!-- Node5&#45;&gt;Node2 -->
<g id="edge5" class="edge">
<title>Node5&#45;&gt;Node2</title>
<path fill="none" stroke="#9a32cd" stroke-dasharray="5,2" d="M173.66,-184.26C163.95,-174.44 150.97,-161.68 138.91,-151 131.22,-144.19 122.16,-136.96 115.18,-131.55"/>
<polygon fill="#9a32cd" stroke="#9a32cd" points="171.17,-186.72 180.67,-191.41 176.17,-181.82 171.17,-186.72"/>
<text text-anchor="middle" x="174.91" y="-159.5" font-family="Helvetica,sans-Serif" font-size="10.00"> coloc</text>
</g>
<!-- Node5&#45;&gt;Node6 -->
<g id="edge9" class="edge">
<title>Node5&#45;&gt;Node6</title>
<path fill="none" stroke="#9a32cd" stroke-dasharray="5,2" d="M192.2,-181.12C199.03,-142 214.47,-53.41 219.38,-25.26"/>
<polygon fill="#9a32cd" stroke="#9a32cd" points="188.73,-180.7 190.46,-191.15 195.62,-181.9 188.73,-180.7"/>
<text text-anchor="middle" x="209.41" y="-125" font-family="Helvetica,sans-Serif" font-size="10.00"> c</text>
<text text-anchor="middle" x="209.41" y="-114" font-family="Helvetica,sans-Serif" font-size="10.00">cf</text>
</g>
<!-- Node6&#45;&gt;Node2 -->
<g id="edge7" class="edge">
<title>Node6&#45;&gt;Node2</title>
<path fill="none" stroke="#9a32cd" stroke-dasharray="5,2" d="M192.9,-29.88C184.16,-35 174.97,-41.45 167.91,-49 152.85,-65.13 159.57,-76.51 144.91,-93 137.93,-100.86 128.29,-107.59 120.11,-112.48"/>
<polygon fill="#9a32cd" stroke="#9a32cd" points="194.65,-32.92 201.74,-25.05 191.29,-26.78 194.65,-32.92"/>
<text text-anchor="middle" x="187.41" y="-85" font-family="Helvetica,sans-Serif" font-size="10.00"> absol</text>
<text text-anchor="middle" x="187.41" y="-74" font-family="Helvetica,sans-Serif" font-size="10.00">cart</text>
<text text-anchor="middle" x="187.41" y="-63" font-family="Helvetica,sans-Serif" font-size="10.00">cart_surr</text>
<text text-anchor="middle" x="187.41" y="-52" font-family="Helvetica,sans-Serif" font-size="10.00">radius</text>
</g>
<!-- Node6&#45;&gt;Node6 -->
<g id="edge10" class="edge">
<title>Node6&#45;&gt;Node6</title>
<path fill="none" stroke="#9a32cd" stroke-dasharray="5,2" d="M263.52,-25.62C278.38,-25.75 290.41,-22.38 290.41,-15.5 290.41,-7.12 272.54,-3.94 253.44,-5.97"/>
<polygon fill="#9a32cd" stroke="#9a32cd" points="263.63,-22.12 253.44,-25.03 263.22,-29.11 263.63,-22.12"/>
<text text-anchor="middle" x="314.41" y="-18.5" font-family="Helvetica,sans-Serif" font-size="10.00"> p_der_abs</text>
<text text-anchor="middle" x="314.41" y="-7.5" font-family="Helvetica,sans-Serif" font-size="10.00">p_der_var</text>
</g>
<!-- Node7&#45;&gt;Node6 -->
<g id="edge11" class="edge">
<title>Node7&#45;&gt;Node6</title>
<path fill="none" stroke="#9a32cd" stroke-dasharray="5,2" d="M348.79,-104.63C335.49,-88.84 313.68,-65.03 290.91,-49 276.67,-38.97 258.84,-30.75 244.74,-25.08"/>
<polygon fill="#9a32cd" stroke="#9a32cd" points="346.2,-106.99 355.26,-112.48 351.6,-102.54 346.2,-106.99"/>
<text text-anchor="middle" x="349.91" y="-68.5" font-family="Helvetica,sans-Serif" font-size="10.00"> base</text>
</g>
<!-- Node8&#45;&gt;Node7 -->
<g id="edge13" class="edge">
<title>Node8&#45;&gt;Node7</title>
<path fill="none" stroke="#9a32cd" stroke-dasharray="5,2" d="M386.52,-182.22C379.97,-166.44 370.66,-144.04 365.57,-131.81"/>
<polygon fill="#9a32cd" stroke="#9a32cd" points="383.3,-183.57 390.37,-191.47 389.76,-180.89 383.3,-183.57"/>
<text text-anchor="middle" x="404.41" y="-159.5" font-family="Helvetica,sans-Serif" font-size="10.00"> bases_1d</text>
</g>
</g>
</svg>
