<?xml version="1.0" encoding="UTF-8" standalone="no"?>
<!DOCTYPE svg PUBLIC "-//W3C//DTD SVG 1.1//EN"
 "http://www.w3.org/Graphics/SVG/1.1/DTD/svg11.dtd">
<!-- Generated by graphviz version 2.47.1 (20210515.0534)
 -->
<!-- Title: Kadath::FUKA_Solvers::bns_xcts_solver&lt; eos_t, config_t, space_t &gt; Pages: 1 -->
<svg width="147pt" height="354pt"
 viewBox="0.00 0.00 147.00 354.00" xmlns="http://www.w3.org/2000/svg" xmlns:xlink="http://www.w3.org/1999/xlink">
<g id="graph0" class="graph" transform="scale(1 1) rotate(0) translate(4 350)">
<title>Kadath::FUKA_Solvers::bns_xcts_solver&lt; eos_t, config_t, space_t &gt;</title>
<!-- Node1 -->
<g id="node1" class="node">
<title>Node1</title>
<g id="a_node1"><a xlink:title=" ">
<polygon fill="#bfbfbf" stroke="black" points="11,-0.5 11,-41.5 128,-41.5 128,-0.5 11,-0.5"/>
<text text-anchor="start" x="19" y="-29.5" font-family="Helvetica,sans-Serif" font-size="10.00">Kadath::FUKA_Solvers</text>
<text text-anchor="start" x="19" y="-18.5" font-family="Helvetica,sans-Serif" font-size="10.00">::bns_xcts_solver&lt; eos</text>
<text text-anchor="middle" x="69.5" y="-7.5" font-family="Helvetica,sans-Serif" font-size="10.00">_t, config_t, space_t &gt;</text>
</a>
</g>
</g>
<!-- Node2 -->
<g id="node2" class="node">
<title>Node2</title>
<g id="a_node2"><a xlink:href="classKadath_1_1FUKA__Solvers_1_1XCTS__Solver.html" target="_top" xlink:title=" ">
<polygon fill="none" stroke="black" points="2,-79.5 2,-120.5 137,-120.5 137,-79.5 2,-79.5"/>
<text text-anchor="start" x="10" y="-108.5" font-family="Helvetica,sans-Serif" font-size="10.00">Kadath::FUKA_Solvers</text>
<text text-anchor="start" x="10" y="-97.5" font-family="Helvetica,sans-Serif" font-size="10.00">::XCTS_Solver&lt; config</text>
<text text-anchor="middle" x="69.5" y="-86.5" font-family="Helvetica,sans-Serif" font-size="10.00">_t, Kadath::Space_bin_ns &gt;</text>
</a>
</g>
</g>
<!-- Node2&#45;&gt;Node1 -->
<g id="edge1" class="edge">
<title>Node2&#45;&gt;Node1</title>
<path fill="none" stroke="#8b1a1a" d="M69.5,-68.91C69.5,-59.79 69.5,-50.02 69.5,-41.76"/>
<polygon fill="#8b1a1a" stroke="#8b1a1a" points="66,-69.17 69.5,-79.17 73,-69.17 66,-69.17"/>
</g>
<!-- Node3 -->
<g id="node3" class="node">
<title>Node3</title>
<g id="a_node3"><a xlink:href="classKadath_1_1FUKA__Solvers_1_1Solver.html" target="_top" xlink:title="Solver base for FUKA solvers.">
<polygon fill="none" stroke="black" points="0,-158.5 0,-188.5 139,-188.5 139,-158.5 0,-158.5"/>
<text text-anchor="start" x="8" y="-176.5" font-family="Helvetica,sans-Serif" font-size="10.00">Kadath::FUKA_Solvers</text>
<text text-anchor="middle" x="69.5" y="-165.5" font-family="Helvetica,sans-Serif" font-size="10.00">::Solver&lt; config_t, space_t &gt;</text>
</a>
</g>
</g>
<!-- Node3&#45;&gt;Node2 -->
<g id="edge2" class="edge">
<title>Node3&#45;&gt;Node2</title>
<path fill="none" stroke="midnightblue" d="M69.5,-148.1C69.5,-139.1 69.5,-129.02 69.5,-120.51"/>
<polygon fill="midnightblue" stroke="midnightblue" points="66,-148.37 69.5,-158.37 73,-148.37 66,-148.37"/>
</g>
<!-- Node4 -->
<g id="node4" class="node">
<title>Node4</title>
<g id="a_node4"><a xlink:href="classKadath_1_1FUKA__Config_1_1kadath__config__boost.html" target="_top" xlink:title=" ">
<polygon fill="none" stroke="black" points="14,-236.5 14,-277.5 125,-277.5 125,-236.5 14,-236.5"/>
<text text-anchor="start" x="22" y="-265.5" font-family="Helvetica,sans-Serif" font-size="10.00">Kadath::FUKA_Config</text>
<text text-anchor="start" x="22" y="-254.5" font-family="Helvetica,sans-Serif" font-size="10.00">::kadath_config_boost</text>
<text text-anchor="middle" x="69.5" y="-243.5" font-family="Helvetica,sans-Serif" font-size="10.00">&lt; ParamC &gt;</text>
</a>
</g>
</g>
<!-- Node4&#45;&gt;Node3 -->
<g id="edge3" class="edge">
<title>Node4&#45;&gt;Node3</title>
<path fill="none" stroke="#9a32cd" stroke-dasharray="5,2" d="M69.5,-226.03C69.5,-213.26 69.5,-198.97 69.5,-188.68"/>
<polygon fill="#9a32cd" stroke="#9a32cd" points="66,-226.27 69.5,-236.27 73,-226.27 66,-226.27"/>
<text text-anchor="middle" x="86.5" y="-210" font-family="Helvetica,sans-Serif" font-size="10.00"> bconfig</text>
</g>
<!-- Node5 -->
<g id="node5" class="node">
<title>Node5</title>
<g id="a_node5"><a xlink:href="classKadath_1_1FUKA__Config_1_1configurator__base.html" target="_top" xlink:title=" ">
<polygon fill="none" stroke="black" points="14,-315.5 14,-345.5 125,-345.5 125,-315.5 14,-315.5"/>
<text text-anchor="start" x="22" y="-333.5" font-family="Helvetica,sans-Serif" font-size="10.00">Kadath::FUKA_Config</text>
<text text-anchor="middle" x="69.5" y="-322.5" font-family="Helvetica,sans-Serif" font-size="10.00">::configurator_base</text>
</a>
</g>
</g>
<!-- Node5&#45;&gt;Node4 -->
<g id="edge4" class="edge">
<title>Node5&#45;&gt;Node4</title>
<path fill="none" stroke="midnightblue" d="M69.5,-305.1C69.5,-296.1 69.5,-286.02 69.5,-277.51"/>
<polygon fill="midnightblue" stroke="midnightblue" points="66,-305.37 69.5,-315.37 73,-305.37 66,-305.37"/>
</g>
</g>
</svg>
