<?xml version="1.0" encoding="UTF-8" standalone="no"?>
<!DOCTYPE svg PUBLIC "-//W3C//DTD SVG 1.1//EN"
 "http://www.w3.org/Graphics/SVG/1.1/DTD/svg11.dtd">
<!-- Generated by graphviz version 2.47.1 (20210515.0534)
 -->
<!-- Title: Kadath::Eq_matching_non_std Pages: 1 -->
<svg width="2177pt" height="837pt"
 viewBox="0.00 0.00 2177.00 837.00" xmlns="http://www.w3.org/2000/svg" xmlns:xlink="http://www.w3.org/1999/xlink">
<g id="graph0" class="graph" transform="scale(1 1) rotate(0) translate(4 833)">
<title>Kadath::Eq_matching_non_std</title>
<!-- Node1 -->
<g id="node1" class="node">
<title>Node1</title>
<g id="a_node1"><a xlink:title=" ">
<polygon fill="#bfbfbf" stroke="black" points="1229,-531 1229,-561 1337,-561 1337,-531 1229,-531"/>
<text text-anchor="start" x="1237" y="-549" font-family="Helvetica,sans-Serif" font-size="10.00">Kadath::Eq_matching</text>
<text text-anchor="middle" x="1283" y="-538" font-family="Helvetica,sans-Serif" font-size="10.00">_non_std</text>
</a>
</g>
</g>
<!-- Node2 -->
<g id="node2" class="node">
<title>Node2</title>
<g id="a_node2"><a xlink:href="classKadath_1_1Equation.html" target="_top" xlink:title=" ">
<polygon fill="none" stroke="black" points="1046,-498.5 1046,-517.5 1135,-517.5 1135,-498.5 1046,-498.5"/>
<text text-anchor="middle" x="1090.5" y="-505.5" font-family="Helvetica,sans-Serif" font-size="10.00">Kadath::Equation</text>
</a>
</g>
</g>
<!-- Node2&#45;&gt;Node1 -->
<g id="edge1" class="edge">
<title>Node2&#45;&gt;Node1</title>
<path fill="none" stroke="midnightblue" d="M1145.34,-518.74C1171.53,-523.96 1202.91,-530.22 1229,-535.43"/>
<polygon fill="midnightblue" stroke="midnightblue" points="1145.7,-515.24 1135.2,-516.72 1144.33,-522.11 1145.7,-515.24"/>
</g>
<!-- Node6 -->
<g id="node6" class="node">
<title>Node6</title>
<g id="a_node6"><a xlink:href="classKadath_1_1System__of__eqs.html" target="_top" xlink:title=" ">
<polygon fill="none" stroke="black" points="1757,-446.5 1757,-465.5 1876,-465.5 1876,-446.5 1757,-446.5"/>
<text text-anchor="middle" x="1816.5" y="-453.5" font-family="Helvetica,sans-Serif" font-size="10.00">Kadath::System_of_eqs</text>
</a>
</g>
</g>
<!-- Node2&#45;&gt;Node6 -->
<g id="edge9" class="edge">
<title>Node2&#45;&gt;Node6</title>
<path fill="none" stroke="#9a32cd" stroke-dasharray="5,2" d="M1145.69,-502.77C1183.78,-499.53 1235.96,-496 1282,-496 1282,-496 1282,-496 1623,-496 1682.56,-496 1750.37,-477.41 1787.5,-465.58"/>
<polygon fill="#9a32cd" stroke="#9a32cd" points="1144.99,-499.31 1135.34,-503.67 1145.6,-506.29 1144.99,-499.31"/>
<text text-anchor="middle" x="1466" y="-499" font-family="Helvetica,sans-Serif" font-size="10.00"> eq</text>
</g>
<!-- Node3 -->
<g id="node3" class="node">
<title>Node3</title>
<g id="a_node3"><a xlink:href="structKadath_1_1MemoryMappable.html" target="_top" xlink:title=" ">
<polygon fill="none" stroke="black" points="0,-394.5 0,-413.5 128,-413.5 128,-394.5 0,-394.5"/>
<text text-anchor="middle" x="64" y="-401.5" font-family="Helvetica,sans-Serif" font-size="10.00">Kadath::MemoryMappable</text>
</a>
</g>
</g>
<!-- Node3&#45;&gt;Node2 -->
<g id="edge2" class="edge">
<title>Node3&#45;&gt;Node2</title>
<path fill="none" stroke="midnightblue" d="M66.44,-423.9C72.16,-486.77 99.02,-677 214.5,-677 214.5,-677 214.5,-677 593,-677 664.61,-677 683.96,-677.02 753,-658 882.19,-622.42 1025.29,-544.62 1073.01,-517.53"/>
<polygon fill="midnightblue" stroke="midnightblue" points="69.91,-423.39 65.6,-413.72 62.93,-423.97 69.91,-423.39"/>
</g>
<!-- Node4 -->
<g id="node4" class="node">
<title>Node4</title>
<g id="a_node4"><a xlink:href="classKadath_1_1Array.html" target="_top" xlink:title=" ">
<polygon fill="none" stroke="black" points="165,-432.5 165,-451.5 266,-451.5 266,-432.5 165,-432.5"/>
<text text-anchor="middle" x="215.5" y="-439.5" font-family="Helvetica,sans-Serif" font-size="10.00">Kadath::Array&lt; int &gt;</text>
</a>
</g>
</g>
<!-- Node3&#45;&gt;Node4 -->
<g id="edge4" class="edge">
<title>Node3&#45;&gt;Node4</title>
<path fill="none" stroke="midnightblue" d="M112.65,-416.11C133.47,-421.4 157.54,-427.52 177.05,-432.48"/>
<polygon fill="midnightblue" stroke="midnightblue" points="113.28,-412.66 102.73,-413.59 111.55,-419.44 113.28,-412.66"/>
</g>
<!-- Node5 -->
<g id="node5" class="node">
<title>Node5</title>
<g id="a_node5"><a xlink:href="classKadath_1_1Ope__eq.html" target="_top" xlink:title=" ">
<polygon fill="none" stroke="black" points="1933,-584.5 1933,-603.5 2019,-603.5 2019,-584.5 1933,-584.5"/>
<text text-anchor="middle" x="1976" y="-591.5" font-family="Helvetica,sans-Serif" font-size="10.00">Kadath::Ope_eq</text>
</a>
</g>
</g>
<!-- Node3&#45;&gt;Node5 -->
<g id="edge6" class="edge">
<title>Node3&#45;&gt;Node5</title>
<path fill="none" stroke="midnightblue" d="M66.47,-424.02C71.13,-478.25 88.81,-631.36 146,-743 162.95,-776.09 177.33,-791 214.5,-791 214.5,-791 214.5,-791 1817.5,-791 1914.71,-791 1961.76,-642.85 1972.55,-603.5"/>
<polygon fill="midnightblue" stroke="midnightblue" points="69.93,-423.43 65.64,-413.74 62.96,-423.99 69.93,-423.43"/>
</g>
<!-- Node7 -->
<g id="node7" class="node">
<title>Node7</title>
<g id="a_node7"><a xlink:href="classKadath_1_1Eq__int.html" target="_top" xlink:title=" ">
<polygon fill="none" stroke="black" points="2085,-584.5 2085,-603.5 2164,-603.5 2164,-584.5 2085,-584.5"/>
<text text-anchor="middle" x="2124.5" y="-591.5" font-family="Helvetica,sans-Serif" font-size="10.00">Kadath::Eq_int</text>
</a>
</g>
</g>
<!-- Node3&#45;&gt;Node7 -->
<g id="edge11" class="edge">
<title>Node3&#45;&gt;Node7</title>
<path fill="none" stroke="midnightblue" d="M67.92,-423.79C76.27,-478.13 102.51,-633.84 146,-757 160.71,-798.65 170.33,-829 214.5,-829 214.5,-829 214.5,-829 1977,-829 2085.17,-829 2116.37,-647.47 2122.33,-603.5"/>
<polygon fill="midnightblue" stroke="midnightblue" points="71.36,-423.14 66.41,-413.78 64.44,-424.19 71.36,-423.14"/>
</g>
<!-- Node8 -->
<g id="node8" class="node">
<title>Node8</title>
<g id="a_node8"><a xlink:href="classKadath_1_1Space.html" target="_top" xlink:title=" ">
<polygon fill="none" stroke="black" points="1050.5,-207.5 1050.5,-226.5 1130.5,-226.5 1130.5,-207.5 1050.5,-207.5"/>
<text text-anchor="middle" x="1090.5" y="-214.5" font-family="Helvetica,sans-Serif" font-size="10.00">Kadath::Space</text>
</a>
</g>
</g>
<!-- Node3&#45;&gt;Node8 -->
<g id="edge14" class="edge">
<title>Node3&#45;&gt;Node8</title>
<path fill="none" stroke="midnightblue" d="M67.14,-384.49C74.81,-325.34 106.5,-152 214.5,-152 214.5,-152 214.5,-152 593,-152 699.43,-152 726.43,-153.49 832,-167 910.15,-177 1000.27,-196.32 1050.49,-207.79"/>
<polygon fill="midnightblue" stroke="midnightblue" points="63.66,-384.08 65.94,-394.43 70.61,-384.92 63.66,-384.08"/>
</g>
<!-- Node9 -->
<g id="node9" class="node">
<title>Node9</title>
<g id="a_node9"><a xlink:href="classKadath_1_1Domain.html" target="_top" xlink:title=" ">
<polygon fill="none" stroke="black" points="850,-320.5 850,-339.5 935,-339.5 935,-320.5 850,-320.5"/>
<text text-anchor="middle" x="892.5" y="-327.5" font-family="Helvetica,sans-Serif" font-size="10.00">Kadath::Domain</text>
</a>
</g>
</g>
<!-- Node3&#45;&gt;Node9 -->
<g id="edge16" class="edge">
<title>Node3&#45;&gt;Node9</title>
<path fill="none" stroke="midnightblue" d="M138.15,-401.85C205.46,-399.66 308.02,-395.75 397,-390 555.49,-379.76 594.97,-374.88 753,-359 788.16,-355.47 797.5,-357.67 832,-350 843.7,-347.4 856.33,-343.34 866.93,-339.56"/>
<polygon fill="midnightblue" stroke="midnightblue" points="137.96,-398.36 128.07,-402.18 138.18,-405.36 137.96,-398.36"/>
</g>
<!-- Node10 -->
<g id="node10" class="node">
<title>Node10</title>
<g id="a_node10"><a xlink:href="classKadath_1_1Dim__array.html" target="_top" xlink:title=" ">
<polygon fill="none" stroke="black" points="654,-629.5 654,-648.5 749,-648.5 749,-629.5 654,-629.5"/>
<text text-anchor="middle" x="701.5" y="-636.5" font-family="Helvetica,sans-Serif" font-size="10.00">Kadath::Dim_array</text>
</a>
</g>
</g>
<!-- Node3&#45;&gt;Node10 -->
<g id="edge18" class="edge">
<title>Node3&#45;&gt;Node10</title>
<path fill="none" stroke="midnightblue" d="M75.28,-422.55C91.62,-450.89 125.71,-505.6 165,-543 210.63,-586.43 224.01,-600.79 284,-620 412.74,-661.23 575.29,-652.42 653.82,-644.63"/>
<polygon fill="midnightblue" stroke="midnightblue" points="78.24,-420.67 70.26,-413.7 72.15,-424.13 78.24,-420.67"/>
</g>
<!-- Node11 -->
<g id="node11" class="node">
<title>Node11</title>
<g id="a_node11"><a xlink:href="classKadath_1_1Array.html" target="_top" xlink:title=" ">
<polygon fill="none" stroke="black" points="415,-344.5 415,-363.5 534,-363.5 534,-344.5 415,-344.5"/>
<text text-anchor="middle" x="474.5" y="-351.5" font-family="Helvetica,sans-Serif" font-size="10.00">Kadath::Array&lt; double &gt;</text>
</a>
</g>
</g>
<!-- Node3&#45;&gt;Node11 -->
<g id="edge20" class="edge">
<title>Node3&#45;&gt;Node11</title>
<path fill="none" stroke="midnightblue" d="M104.69,-391.62C148.19,-378.75 220.27,-359.46 284,-352 333.88,-346.16 346.78,-351.34 397,-352 402.71,-352.07 408.66,-352.18 414.61,-352.31"/>
<polygon fill="midnightblue" stroke="midnightblue" points="103.64,-388.28 95.07,-394.5 105.65,-394.98 103.64,-388.28"/>
</g>
<!-- Node12 -->
<g id="node12" class="node">
<title>Node12</title>
<g id="a_node12"><a xlink:href="classKadath_1_1Val__domain.html" target="_top" xlink:title=" ">
<polygon fill="none" stroke="black" points="650,-256.5 650,-275.5 753,-275.5 753,-256.5 650,-256.5"/>
<text text-anchor="middle" x="701.5" y="-263.5" font-family="Helvetica,sans-Serif" font-size="10.00">Kadath::Val_domain</text>
</a>
</g>
</g>
<!-- Node3&#45;&gt;Node12 -->
<g id="edge22" class="edge">
<title>Node3&#45;&gt;Node12</title>
<path fill="none" stroke="midnightblue" d="M81.11,-387.06C99.54,-368.8 131.53,-340.42 165,-326 331.03,-254.46 551.55,-256.74 649.68,-262.15"/>
<polygon fill="midnightblue" stroke="midnightblue" points="78.38,-384.84 73.85,-394.42 83.36,-389.75 78.38,-384.84"/>
</g>
<!-- Node13 -->
<g id="node13" class="node">
<title>Node13</title>
<g id="a_node13"><a xlink:href="classKadath_1_1Base__spectral.html" target="_top" xlink:title=" ">
<polygon fill="none" stroke="black" points="417.5,-306.5 417.5,-325.5 531.5,-325.5 531.5,-306.5 417.5,-306.5"/>
<text text-anchor="middle" x="474.5" y="-313.5" font-family="Helvetica,sans-Serif" font-size="10.00">Kadath::Base_spectral</text>
</a>
</g>
</g>
<!-- Node3&#45;&gt;Node13 -->
<g id="edge26" class="edge">
<title>Node3&#45;&gt;Node13</title>
<path fill="none" stroke="midnightblue" d="M87.34,-389.01C106.93,-376.65 136.64,-359.78 165,-351 250.35,-324.58 354.5,-317.7 417.33,-316.13"/>
<polygon fill="midnightblue" stroke="midnightblue" points="85.34,-386.13 78.83,-394.49 89.13,-392.02 85.34,-386.13"/>
</g>
<!-- Node14 -->
<g id="node14" class="node">
<title>Node14</title>
<g id="a_node14"><a xlink:href="classKadath_1_1Index.html" target="_top" xlink:title=" ">
<polygon fill="none" stroke="black" points="953,-673.5 953,-692.5 1028,-692.5 1028,-673.5 953,-673.5"/>
<text text-anchor="middle" x="990.5" y="-680.5" font-family="Helvetica,sans-Serif" font-size="10.00">Kadath::Index</text>
</a>
</g>
</g>
<!-- Node3&#45;&gt;Node14 -->
<g id="edge30" class="edge">
<title>Node3&#45;&gt;Node14</title>
<path fill="none" stroke="midnightblue" d="M64.7,-423.73C65.02,-474.9 72.98,-613.32 146,-691 168.09,-714.51 182.24,-715 214.5,-715 214.5,-715 214.5,-715 802.5,-715 856.35,-715 917.69,-701.95 954.99,-692.51"/>
<polygon fill="midnightblue" stroke="midnightblue" points="68.2,-423.69 64.74,-413.68 61.2,-423.67 68.2,-423.69"/>
</g>
<!-- Node15 -->
<g id="node15" class="node">
<title>Node15</title>
<g id="a_node15"><a xlink:href="classKadath_1_1Param.html" target="_top" xlink:title=" ">
<polygon fill="none" stroke="black" points="552,-743.5 552,-762.5 632,-762.5 632,-743.5 552,-743.5"/>
<text text-anchor="middle" x="592" y="-750.5" font-family="Helvetica,sans-Serif" font-size="10.00">Kadath::Param</text>
</a>
</g>
</g>
<!-- Node3&#45;&gt;Node15 -->
<g id="edge34" class="edge">
<title>Node3&#45;&gt;Node15</title>
<path fill="none" stroke="midnightblue" d="M66.89,-423.62C73.52,-487.74 97.88,-689.27 146,-729 207.08,-779.43 455.12,-764.54 551.98,-756.56"/>
<polygon fill="midnightblue" stroke="midnightblue" points="70.37,-423.22 65.89,-413.62 63.41,-423.92 70.37,-423.22"/>
</g>
<!-- Node16 -->
<g id="node16" class="node">
<title>Node16</title>
<g id="a_node16"><a xlink:href="classKadath_1_1Term__eq.html" target="_top" xlink:title=" ">
<polygon fill="none" stroke="black" points="1577,-131.5 1577,-150.5 1667,-150.5 1667,-131.5 1577,-131.5"/>
<text text-anchor="middle" x="1622" y="-138.5" font-family="Helvetica,sans-Serif" font-size="10.00">Kadath::Term_eq</text>
</a>
</g>
</g>
<!-- Node3&#45;&gt;Node16 -->
<g id="edge37" class="edge">
<title>Node3&#45;&gt;Node16</title>
<path fill="none" stroke="midnightblue" d="M67.64,-384.2C74.84,-334.17 97.62,-199.47 146,-98 163.42,-61.47 174.03,-38 214.5,-38 214.5,-38 214.5,-38 1183,-38 1345.48,-38 1533.08,-106 1597.72,-131.49"/>
<polygon fill="midnightblue" stroke="midnightblue" points="64.14,-383.9 66.23,-394.29 71.08,-384.87 64.14,-383.9"/>
</g>
<!-- Node17 -->
<g id="node17" class="node">
<title>Node17</title>
<g id="a_node17"><a xlink:href="classKadath_1_1Tensor.html" target="_top" xlink:title=" ">
<polygon fill="none" stroke="black" points="1425,-247.5 1425,-266.5 1507,-266.5 1507,-247.5 1425,-247.5"/>
<text text-anchor="middle" x="1466" y="-254.5" font-family="Helvetica,sans-Serif" font-size="10.00">Kadath::Tensor</text>
</a>
</g>
</g>
<!-- Node3&#45;&gt;Node17 -->
<g id="edge39" class="edge">
<title>Node3&#45;&gt;Node17</title>
<path fill="none" stroke="midnightblue" d="M64.89,-383.88C65.66,-312.54 78.45,-76 214.5,-76 214.5,-76 214.5,-76 991.5,-76 1147.13,-76 1190.63,-80.12 1337,-133 1370.91,-145.25 1380.51,-149.55 1407,-174 1431.29,-196.42 1451.18,-230.67 1460.04,-247.29"/>
<polygon fill="midnightblue" stroke="midnightblue" points="61.39,-384.17 64.86,-394.18 68.39,-384.2 61.39,-384.17"/>
</g>
<!-- Node19 -->
<g id="node19" class="node">
<title>Node19</title>
<g id="a_node19"><a xlink:href="classKadath_1_1Base__tensor.html" target="_top" xlink:title=" ">
<polygon fill="none" stroke="black" points="1229.5,-142.5 1229.5,-161.5 1336.5,-161.5 1336.5,-142.5 1229.5,-142.5"/>
<text text-anchor="middle" x="1283" y="-149.5" font-family="Helvetica,sans-Serif" font-size="10.00">Kadath::Base_tensor</text>
</a>
</g>
</g>
<!-- Node3&#45;&gt;Node19 -->
<g id="edge46" class="edge">
<title>Node3&#45;&gt;Node19</title>
<path fill="none" stroke="midnightblue" d="M65.9,-384.15C70.03,-318.71 92.67,-114 214.5,-114 214.5,-114 214.5,-114 1091.5,-114 1149.51,-114 1215.56,-131.15 1252.66,-142.41"/>
<polygon fill="midnightblue" stroke="midnightblue" points="62.39,-384.17 65.34,-394.35 69.38,-384.56 62.39,-384.17"/>
</g>
<!-- Node20 -->
<g id="node20" class="node">
<title>Node20</title>
<g id="a_node20"><a xlink:href="classKadath_1_1Param__tensor.html" target="_top" xlink:title=" ">
<polygon fill="none" stroke="black" points="284,-591.5 284,-610.5 397,-610.5 397,-591.5 284,-591.5"/>
<text text-anchor="middle" x="340.5" y="-598.5" font-family="Helvetica,sans-Serif" font-size="10.00">Kadath::Param_tensor</text>
</a>
</g>
</g>
<!-- Node3&#45;&gt;Node20 -->
<g id="edge50" class="edge">
<title>Node3&#45;&gt;Node20</title>
<path fill="none" stroke="midnightblue" d="M82.88,-420.83C118.78,-453.99 203.13,-528.7 284,-577 293.28,-582.54 304.08,-587.51 313.67,-591.47"/>
<polygon fill="midnightblue" stroke="midnightblue" points="84.92,-417.94 75.21,-413.7 80.15,-423.07 84.92,-417.94"/>
</g>
<!-- Node21 -->
<g id="node21" class="node">
<title>Node21</title>
<g id="a_node21"><a xlink:href="classKadath_1_1Metric.html" target="_top" xlink:title=" ">
<polygon fill="none" stroke="black" points="1936.5,-131.5 1936.5,-150.5 2015.5,-150.5 2015.5,-131.5 1936.5,-131.5"/>
<text text-anchor="middle" x="1976" y="-138.5" font-family="Helvetica,sans-Serif" font-size="10.00">Kadath::Metric</text>
</a>
</g>
</g>
<!-- Node3&#45;&gt;Node21 -->
<g id="edge52" class="edge">
<title>Node3&#45;&gt;Node21</title>
<path fill="none" stroke="midnightblue" d="M65.44,-384.12C67.68,-324.9 81.42,-146.77 165,-34 180.89,-12.56 187.81,0 214.5,0 214.5,0 214.5,0 1713,0 1824.06,0 1933.37,-99.45 1965.54,-131.31"/>
<polygon fill="midnightblue" stroke="midnightblue" points="61.93,-384.23 65.12,-394.33 68.93,-384.44 61.93,-384.23"/>
</g>
<!-- Node4&#45;&gt;Node1 -->
<g id="edge62" class="edge">
<title>Node4&#45;&gt;Node1</title>
<path fill="none" stroke="#9a32cd" stroke-dasharray="5,2" d="M244.6,-456.05C256.5,-461.47 270.66,-467.26 284,-471 633.65,-569.07 1077.57,-557 1228.79,-549.26"/>
<polygon fill="#9a32cd" stroke="#9a32cd" points="245.75,-452.72 235.21,-451.64 242.77,-459.06 245.75,-452.72"/>
<text text-anchor="middle" x="801.5" y="-563" font-family="Helvetica,sans-Serif" font-size="10.00"> other_bounds</text>
<text text-anchor="middle" x="801.5" y="-552" font-family="Helvetica,sans-Serif" font-size="10.00">other_doms</text>
</g>
<!-- Node4&#45;&gt;Node2 -->
<g id="edge3" class="edge">
<title>Node4&#45;&gt;Node2</title>
<path fill="none" stroke="#9a32cd" stroke-dasharray="5,2" d="M276.15,-449.6C377.61,-462.2 590.34,-487.18 771,-499 869.12,-505.42 984.53,-507.26 1045.92,-507.79"/>
<polygon fill="#9a32cd" stroke="#9a32cd" points="276.46,-446.11 266.1,-448.35 275.59,-453.06 276.46,-446.11"/>
<text text-anchor="middle" x="701.5" y="-511" font-family="Helvetica,sans-Serif" font-size="10.00"> n_cond</text>
<text text-anchor="middle" x="701.5" y="-500" font-family="Helvetica,sans-Serif" font-size="10.00">p_cmp_used</text>
</g>
<!-- Node4&#45;&gt;Node6 -->
<g id="edge32" class="edge">
<title>Node4&#45;&gt;Node6</title>
<path fill="none" stroke="#9a32cd" stroke-dasharray="5,2" d="M232.16,-458.82C244.92,-471.51 264.03,-488.32 284,-498 337.57,-523.98 356.68,-514.03 415,-526 669.91,-578.31 729.27,-639 989.5,-639 989.5,-639 989.5,-639 1623,-639 1724.68,-639 1794.01,-503.23 1811.29,-465.58"/>
<polygon fill="#9a32cd" stroke="#9a32cd" points="234.58,-456.28 225.09,-451.56 229.56,-461.17 234.58,-456.28"/>
<text text-anchor="middle" x="1090.5" y="-653" font-family="Helvetica,sans-Serif" font-size="10.00"> assoc_var</text>
<text text-anchor="middle" x="1090.5" y="-642" font-family="Helvetica,sans-Serif" font-size="10.00">assoc_var_double</text>
</g>
<!-- Node4&#45;&gt;Node13 -->
<g id="edge27" class="edge">
<title>Node4&#45;&gt;Node13</title>
<path fill="none" stroke="#9a32cd" stroke-dasharray="5,2" d="M255.2,-428.96C293.62,-414.83 352.98,-389.7 397,-356 406.76,-348.53 404.77,-341.82 415,-335 420.77,-331.15 427.39,-328.03 434.04,-325.52"/>
<polygon fill="#9a32cd" stroke="#9a32cd" points="253.65,-425.8 245.43,-432.48 256.03,-432.38 253.65,-425.8"/>
<text text-anchor="middle" x="340.5" y="-421" font-family="Helvetica,sans-Serif" font-size="10.00"> bases_1d</text>
</g>
<!-- Node4&#45;&gt;Node17 -->
<g id="edge44" class="edge">
<title>Node4&#45;&gt;Node17</title>
<path fill="none" stroke="#9a32cd" stroke-dasharray="5,2" d="M227.3,-423.71C239.11,-405.11 259.64,-376.6 284,-359 327.55,-327.52 352.29,-345.81 397,-316 406.68,-309.55 404.87,-302.72 415,-297 469.28,-266.35 491.02,-279.9 552,-267 595.49,-257.8 605.94,-252.92 650,-247 703.41,-239.82 717.13,-240.78 771,-239 798.1,-238.11 804.91,-237.9 832,-239 975.02,-244.78 1009.98,-259.22 1153,-265 1178.76,-266.04 1185.22,-265.2 1211,-265 1298.12,-264.33 1319.99,-266.41 1407,-262 1412.75,-261.71 1418.82,-261.3 1424.78,-260.84"/>
<polygon fill="#9a32cd" stroke="#9a32cd" points="224.2,-422.06 221.94,-432.42 230.16,-425.73 224.2,-422.06"/>
<text text-anchor="middle" x="892.5" y="-260" font-family="Helvetica,sans-Serif" font-size="10.00"> give_indices</text>
<text text-anchor="middle" x="892.5" y="-249" font-family="Helvetica,sans-Serif" font-size="10.00">type_indice</text>
</g>
<!-- Node4&#45;&gt;Node19 -->
<g id="edge48" class="edge">
<title>Node4&#45;&gt;Node19</title>
<path fill="none" stroke="#9a32cd" stroke-dasharray="5,2" d="M224.11,-423.08C234.55,-399.08 255.36,-357.61 284,-331 331.91,-286.49 355.31,-290.72 415,-264 474.59,-237.32 488.4,-225.75 552,-211 800.66,-153.35 1108.23,-149.83 1229.42,-151"/>
<polygon fill="#9a32cd" stroke="#9a32cd" points="220.8,-421.91 220.16,-432.49 227.26,-424.62 220.8,-421.91"/>
<text text-anchor="middle" x="801.5" y="-177" font-family="Helvetica,sans-Serif" font-size="10.00"> basis</text>
</g>
<!-- Node5&#45;&gt;Node2 -->
<g id="edge5" class="edge">
<title>Node5&#45;&gt;Node2</title>
<path fill="none" stroke="#9a32cd" stroke-dasharray="5,2" d="M1922.87,-597.48C1892.2,-599.24 1852.66,-601 1817.5,-601 1282,-601 1282,-601 1282,-601 1206.55,-601 1129.78,-541.36 1102.19,-517.6"/>
<polygon fill="#9a32cd" stroke="#9a32cd" points="1923.13,-600.97 1932.91,-596.89 1922.72,-593.98 1923.13,-600.97"/>
<text text-anchor="middle" x="1542" y="-604" font-family="Helvetica,sans-Serif" font-size="10.00"> parts</text>
</g>
<!-- Node5&#45;&gt;Node5 -->
<g id="edge7" class="edge">
<title>Node5&#45;&gt;Node5</title>
<path fill="none" stroke="#9a32cd" stroke-dasharray="5,2" d="M1963.11,-613.77C1964.12,-618.5 1968.42,-622 1976,-622 1988.44,-622 1992.04,-612.57 1986.79,-603.76"/>
<polygon fill="#9a32cd" stroke="#9a32cd" points="1966.58,-614.26 1965.21,-603.76 1959.73,-612.82 1966.58,-614.26"/>
<text text-anchor="middle" x="1976" y="-625" font-family="Helvetica,sans-Serif" font-size="10.00"> parts</text>
</g>
<!-- Node5&#45;&gt;Node7 -->
<g id="edge12" class="edge">
<title>Node5&#45;&gt;Node7</title>
<path fill="none" stroke="#9a32cd" stroke-dasharray="5,2" d="M2029.55,-594C2047.76,-594 2067.83,-594 2084.73,-594"/>
<polygon fill="#9a32cd" stroke="#9a32cd" points="2029.37,-590.5 2019.37,-594 2029.37,-597.5 2029.37,-590.5"/>
<text text-anchor="middle" x="2049.5" y="-597" font-family="Helvetica,sans-Serif" font-size="10.00"> parts</text>
</g>
<!-- Node22 -->
<g id="node22" class="node">
<title>Node22</title>
<g id="a_node22"><a xlink:href="classKadath_1_1Ope__def.html" target="_top" xlink:title=" ">
<polygon fill="none" stroke="black" points="2080,-446.5 2080,-465.5 2169,-465.5 2169,-446.5 2080,-446.5"/>
<text text-anchor="middle" x="2124.5" y="-453.5" font-family="Helvetica,sans-Serif" font-size="10.00">Kadath::Ope_def</text>
</a>
</g>
</g>
<!-- Node5&#45;&gt;Node22 -->
<g id="edge58" class="edge">
<title>Node5&#45;&gt;Node22</title>
<path fill="none" stroke="midnightblue" d="M1995.04,-577.01C2026.01,-547.84 2088.34,-489.12 2113.06,-465.83"/>
<polygon fill="midnightblue" stroke="midnightblue" points="1992.42,-574.67 1987.54,-584.08 1997.21,-579.77 1992.42,-574.67"/>
</g>
<!-- Node6&#45;&gt;Node5 -->
<g id="edge8" class="edge">
<title>Node6&#45;&gt;Node5</title>
<path fill="none" stroke="#9a32cd" stroke-dasharray="5,2" d="M1834.41,-472.58C1849.7,-487.4 1872.97,-509.58 1894,-528 1917.74,-548.8 1946.63,-571.81 1962.7,-584.42"/>
<polygon fill="#9a32cd" stroke="#9a32cd" points="1836.8,-470.02 1827.19,-465.55 1831.92,-475.03 1836.8,-470.02"/>
<text text-anchor="middle" x="1904.5" y="-547" font-family="Helvetica,sans-Serif" font-size="10.00"> syst</text>
</g>
<!-- Node6&#45;&gt;Node21 -->
<g id="edge54" class="edge">
<title>Node6&#45;&gt;Node21</title>
<path fill="none" stroke="#9a32cd" stroke-dasharray="5,2" d="M1822.47,-436.65C1832.64,-398.74 1857.98,-312.68 1894,-247 1915.27,-208.21 1949.89,-168.3 1966.1,-150.53"/>
<polygon fill="#9a32cd" stroke="#9a32cd" points="1819.06,-435.84 1819.9,-446.4 1825.83,-437.62 1819.06,-435.84"/>
<text text-anchor="middle" x="1904.5" y="-250" font-family="Helvetica,sans-Serif" font-size="10.00"> syst</text>
</g>
<!-- Node7&#45;&gt;Node6 -->
<g id="edge10" class="edge">
<title>Node7&#45;&gt;Node6</title>
<path fill="none" stroke="#9a32cd" stroke-dasharray="5,2" d="M2093.19,-580.33C2031.46,-552.49 1892.48,-489.81 1839.02,-465.7"/>
<polygon fill="#9a32cd" stroke="#9a32cd" points="2091.86,-583.57 2102.41,-584.49 2094.74,-577.19 2091.86,-583.57"/>
<text text-anchor="middle" x="1976" y="-548" font-family="Helvetica,sans-Serif" font-size="10.00"> eq_int</text>
</g>
<!-- Node8&#45;&gt;Node6 -->
<g id="edge13" class="edge">
<title>Node8&#45;&gt;Node6</title>
<path fill="none" stroke="#9a32cd" stroke-dasharray="5,2" d="M1124.59,-230.32C1133.75,-233.9 1143.73,-237.69 1153,-241 1410.86,-333.03 1478.65,-346.25 1739,-431 1754.68,-436.1 1772.16,-441.81 1786.44,-446.49"/>
<polygon fill="#9a32cd" stroke="#9a32cd" points="1125.62,-226.97 1115.03,-226.56 1123.05,-233.48 1125.62,-226.97"/>
<text text-anchor="middle" x="1466" y="-361" font-family="Helvetica,sans-Serif" font-size="10.00"> espace</text>
</g>
<!-- Node8&#45;&gt;Node17 -->
<g id="edge40" class="edge">
<title>Node8&#45;&gt;Node17</title>
<path fill="none" stroke="#9a32cd" stroke-dasharray="5,2" d="M1140.86,-222.29C1215.58,-230.29 1356,-245.33 1424.85,-252.7"/>
<polygon fill="#9a32cd" stroke="#9a32cd" points="1141.08,-218.79 1130.77,-221.21 1140.34,-225.75 1141.08,-218.79"/>
<text text-anchor="middle" x="1283" y="-246" font-family="Helvetica,sans-Serif" font-size="10.00"> espace</text>
</g>
<!-- Node8&#45;&gt;Node19 -->
<g id="edge47" class="edge">
<title>Node8&#45;&gt;Node19</title>
<path fill="none" stroke="#9a32cd" stroke-dasharray="5,2" d="M1138.07,-204.7C1160.33,-198.48 1187.25,-190.46 1211,-182 1228.14,-175.89 1247.11,-167.81 1261.12,-161.57"/>
<polygon fill="#9a32cd" stroke="#9a32cd" points="1136.9,-201.39 1128.19,-207.43 1138.77,-208.14 1136.9,-201.39"/>
<text text-anchor="middle" x="1182" y="-203" font-family="Helvetica,sans-Serif" font-size="10.00"> space</text>
</g>
<!-- Node8&#45;&gt;Node21 -->
<g id="edge53" class="edge">
<title>Node8&#45;&gt;Node21</title>
<path fill="none" stroke="#9a32cd" stroke-dasharray="5,2" d="M1109.85,-200.58C1153.36,-163.41 1267.63,-76 1380,-76 1380,-76 1380,-76 1817.5,-76 1846.19,-76 1921.85,-113.33 1956.81,-131.41"/>
<polygon fill="#9a32cd" stroke="#9a32cd" points="1107.36,-198.11 1102.11,-207.31 1111.95,-203.39 1107.36,-198.11"/>
<text text-anchor="middle" x="1542" y="-79" font-family="Helvetica,sans-Serif" font-size="10.00"> espace</text>
</g>
<!-- Node9&#45;&gt;Node2 -->
<g id="edge60" class="edge">
<title>Node9&#45;&gt;Node2</title>
<path fill="none" stroke="#9a32cd" stroke-dasharray="5,2" d="M911.49,-346.33C951.53,-382.7 1047,-469.41 1078.91,-498.38"/>
<polygon fill="#9a32cd" stroke="#9a32cd" points="913.79,-343.7 904.04,-339.57 909.09,-348.88 913.79,-343.7"/>
<text text-anchor="middle" x="990.5" y="-454" font-family="Helvetica,sans-Serif" font-size="10.00"> dom</text>
</g>
<!-- Node9&#45;&gt;Node8 -->
<g id="edge15" class="edge">
<title>Node9&#45;&gt;Node8</title>
<path fill="none" stroke="#9a32cd" stroke-dasharray="5,2" d="M919.01,-315.29C959.78,-291.79 1038.51,-246.39 1072.83,-226.61"/>
<polygon fill="#9a32cd" stroke="#9a32cd" points="917.13,-312.34 910.21,-320.37 920.62,-318.4 917.13,-312.34"/>
<text text-anchor="middle" x="990.5" y="-297" font-family="Helvetica,sans-Serif" font-size="10.00"> domains</text>
</g>
<!-- Node9&#45;&gt;Node12 -->
<g id="edge28" class="edge">
<title>Node9&#45;&gt;Node12</title>
<path fill="none" stroke="#9a32cd" stroke-dasharray="5,2" d="M844.84,-317.83C822.32,-311.6 795.05,-303.55 771,-295 754.69,-289.2 736.69,-281.53 723.23,-275.53"/>
<polygon fill="#9a32cd" stroke="#9a32cd" points="843.92,-321.21 854.49,-320.46 845.77,-314.45 843.92,-321.21"/>
<text text-anchor="middle" x="801.5" y="-317" font-family="Helvetica,sans-Serif" font-size="10.00"> zone</text>
</g>
<!-- Node10&#45;&gt;Node9 -->
<g id="edge17" class="edge">
<title>Node10&#45;&gt;Node9</title>
<path fill="none" stroke="#9a32cd" stroke-dasharray="5,2" d="M712.81,-620.28C725.98,-596.53 749.63,-554.4 771,-519 813.03,-449.37 866.75,-367.46 885.06,-339.73"/>
<polygon fill="#9a32cd" stroke="#9a32cd" points="709.62,-618.82 707.85,-629.26 715.75,-622.21 709.62,-618.82"/>
<text text-anchor="middle" x="801.5" y="-533" font-family="Helvetica,sans-Serif" font-size="10.00"> nbr_coefs</text>
<text text-anchor="middle" x="801.5" y="-522" font-family="Helvetica,sans-Serif" font-size="10.00">nbr_points</text>
</g>
<!-- Node10&#45;&gt;Node14 -->
<g id="edge31" class="edge">
<title>Node10&#45;&gt;Node14</title>
<path fill="none" stroke="#9a32cd" stroke-dasharray="5,2" d="M759.26,-647.7C816.72,-656.51 903.86,-669.87 952.8,-677.37"/>
<polygon fill="#9a32cd" stroke="#9a32cd" points="759.67,-644.22 749.25,-646.17 758.6,-651.14 759.67,-644.22"/>
<text text-anchor="middle" x="801.5" y="-661" font-family="Helvetica,sans-Serif" font-size="10.00"> sizes</text>
</g>
<!-- Node11&#45;&gt;Node6 -->
<g id="edge35" class="edge">
<title>Node11&#45;&gt;Node6</title>
<path fill="none" stroke="#9a32cd" stroke-dasharray="5,2" d="M544.38,-361.3C546.95,-361.54 549.5,-361.78 552,-362 1015.92,-403.5 1576.83,-440.66 1756.88,-452.27"/>
<polygon fill="#9a32cd" stroke="#9a32cd" points="544.66,-357.81 534.37,-360.34 543.99,-364.78 544.66,-357.81"/>
<text text-anchor="middle" x="1182" y="-418" font-family="Helvetica,sans-Serif" font-size="10.00"> val_cst_hard</text>
</g>
<!-- Node11&#45;&gt;Node9 -->
<g id="edge19" class="edge">
<title>Node11&#45;&gt;Node9</title>
<path fill="none" stroke="#9a32cd" stroke-dasharray="5,2" d="M544.26,-350.03C631.19,-345.02 778.15,-336.54 849.77,-332.41"/>
<polygon fill="#9a32cd" stroke="#9a32cd" points="544,-346.54 534.22,-350.61 544.41,-353.53 544,-346.54"/>
<text text-anchor="middle" x="701.5" y="-347" font-family="Helvetica,sans-Serif" font-size="10.00"> coloc</text>
</g>
<!-- Node11&#45;&gt;Node12 -->
<g id="edge23" class="edge">
<title>Node11&#45;&gt;Node12</title>
<path fill="none" stroke="#9a32cd" stroke-dasharray="5,2" d="M523,-340.6C526.82,-338.92 530.53,-337.06 534,-335 543.46,-329.39 542.44,-323.45 552,-318 584.14,-299.67 597.12,-307.35 632,-295 648.31,-289.23 666.32,-281.55 679.77,-275.55"/>
<polygon fill="#9a32cd" stroke="#9a32cd" points="521.4,-337.47 513.4,-344.41 523.98,-343.98 521.4,-337.47"/>
<text text-anchor="middle" x="592" y="-332" font-family="Helvetica,sans-Serif" font-size="10.00"> c</text>
<text text-anchor="middle" x="592" y="-321" font-family="Helvetica,sans-Serif" font-size="10.00">cf</text>
</g>
<!-- Node12&#45;&gt;Node9 -->
<g id="edge21" class="edge">
<title>Node12&#45;&gt;Node9</title>
<path fill="none" stroke="#9a32cd" stroke-dasharray="5,2" d="M733.85,-253.04C761.18,-243.84 801.15,-235.62 832,-251 839.61,-254.79 871.04,-299.98 884.89,-320.26"/>
<polygon fill="#9a32cd" stroke="#9a32cd" points="732.63,-249.76 724.39,-256.42 734.99,-256.35 732.63,-249.76"/>
<text text-anchor="middle" x="801.5" y="-287" font-family="Helvetica,sans-Serif" font-size="10.00"> absol</text>
<text text-anchor="middle" x="801.5" y="-276" font-family="Helvetica,sans-Serif" font-size="10.00">cart</text>
<text text-anchor="middle" x="801.5" y="-265" font-family="Helvetica,sans-Serif" font-size="10.00">cart_surr</text>
<text text-anchor="middle" x="801.5" y="-254" font-family="Helvetica,sans-Serif" font-size="10.00">radius</text>
</g>
<!-- Node12&#45;&gt;Node12 -->
<g id="edge24" class="edge">
<title>Node12&#45;&gt;Node12</title>
<path fill="none" stroke="#9a32cd" stroke-dasharray="5,2" d="M682.98,-285.4C684.22,-290.31 690.39,-294 701.5,-294 719.27,-294 724.41,-284.57 716.91,-275.76"/>
<polygon fill="#9a32cd" stroke="#9a32cd" points="686.35,-286.35 686.09,-275.76 679.69,-284.2 686.35,-286.35"/>
<text text-anchor="middle" x="701.5" y="-308" font-family="Helvetica,sans-Serif" font-size="10.00"> p_der_abs</text>
<text text-anchor="middle" x="701.5" y="-297" font-family="Helvetica,sans-Serif" font-size="10.00">p_der_var</text>
</g>
<!-- Node18 -->
<g id="node18" class="node">
<title>Node18</title>
<g id="a_node18"><a xlink:href="classKadath_1_1Scalar.html" target="_top" xlink:title=" ">
<polygon fill="none" stroke="black" points="1582,-273.5 1582,-292.5 1662,-292.5 1662,-273.5 1582,-273.5"/>
<text text-anchor="middle" x="1622" y="-280.5" font-family="Helvetica,sans-Serif" font-size="10.00">Kadath::Scalar</text>
</a>
</g>
</g>
<!-- Node12&#45;&gt;Node18 -->
<g id="edge43" class="edge">
<title>Node12&#45;&gt;Node18</title>
<path fill="none" stroke="#9a32cd" stroke-dasharray="5,2" d="M716.92,-283.39C729.7,-297.7 749.62,-317.43 771,-329 802.86,-346.23 814.13,-344 850,-349 1129.09,-387.91 1468.42,-318.75 1581.93,-292.49"/>
<polygon fill="#9a32cd" stroke="#9a32cd" points="719.45,-280.97 710.26,-275.7 714.16,-285.55 719.45,-280.97"/>
<text text-anchor="middle" x="1182" y="-360" font-family="Helvetica,sans-Serif" font-size="10.00"> val_zones</text>
</g>
<!-- Node13&#45;&gt;Node12 -->
<g id="edge25" class="edge">
<title>Node13&#45;&gt;Node12</title>
<path fill="none" stroke="#9a32cd" stroke-dasharray="5,2" d="M508.61,-302.61C516.92,-299.2 525.8,-295.5 534,-292 542.05,-288.56 543.56,-286.33 552,-284 583.92,-275.19 620.88,-270.69 649.94,-268.39"/>
<polygon fill="#9a32cd" stroke="#9a32cd" points="507.12,-299.44 499.19,-306.46 509.77,-305.92 507.12,-299.44"/>
<text text-anchor="middle" x="592" y="-287" font-family="Helvetica,sans-Serif" font-size="10.00"> base</text>
</g>
<!-- Node14&#45;&gt;Node1 -->
<g id="edge61" class="edge">
<title>Node14&#45;&gt;Node1</title>
<path fill="none" stroke="#9a32cd" stroke-dasharray="5,2" d="M1000.11,-663.94C1009.08,-646.27 1024.78,-620.57 1046,-606 1061.11,-595.62 1164.14,-571.75 1228.98,-557.44"/>
<polygon fill="#9a32cd" stroke="#9a32cd" points="996.8,-662.75 995.62,-673.28 1003.11,-665.78 996.8,-662.75"/>
<text text-anchor="middle" x="1090.5" y="-609" font-family="Helvetica,sans-Serif" font-size="10.00"> which_points</text>
</g>
<!-- Node14&#45;&gt;Node6 -->
<g id="edge29" class="edge">
<title>Node14&#45;&gt;Node6</title>
<path fill="none" stroke="#9a32cd" stroke-dasharray="5,2" d="M1038.51,-685.32C1076.85,-687 1132.41,-689 1181,-689 1181,-689 1181,-689 1623,-689 1676.98,-689 1699.53,-689.82 1739,-653 1796.41,-599.44 1811.3,-497.76 1814.63,-465.84"/>
<polygon fill="#9a32cd" stroke="#9a32cd" points="1038.32,-681.8 1028.17,-684.85 1038,-688.8 1038.32,-681.8"/>
<text text-anchor="middle" x="1381" y="-692" font-family="Helvetica,sans-Serif" font-size="10.00"> which_coef</text>
</g>
<!-- Node15&#45;&gt;Node6 -->
<g id="edge33" class="edge">
<title>Node15&#45;&gt;Node6</title>
<path fill="none" stroke="#9a32cd" stroke-dasharray="5,2" d="M642.25,-753C684.29,-753 746.37,-753 800.5,-753 800.5,-753 800.5,-753 1623,-753 1683.45,-753 1701.28,-729.23 1739,-682 1794.84,-612.09 1810.91,-499.26 1814.57,-465.71"/>
<polygon fill="#9a32cd" stroke="#9a32cd" points="642.01,-749.5 632.01,-753 642.01,-756.5 642.01,-749.5"/>
<text text-anchor="middle" x="1182" y="-767" font-family="Helvetica,sans-Serif" font-size="10.00"> paruser</text>
<text text-anchor="middle" x="1182" y="-756" font-family="Helvetica,sans-Serif" font-size="10.00">paruser_bin</text>
</g>
<!-- Node16&#45;&gt;Node6 -->
<g id="edge36" class="edge">
<title>Node16&#45;&gt;Node6</title>
<path fill="none" stroke="#9a32cd" stroke-dasharray="5,2" d="M1641.62,-157.57C1666.54,-180.54 1710.85,-224.32 1739,-269 1778.27,-331.32 1804.59,-417.23 1812.78,-446.09"/>
<polygon fill="#9a32cd" stroke="#9a32cd" points="1643.72,-154.74 1633.97,-150.6 1639.01,-159.92 1643.72,-154.74"/>
<text text-anchor="middle" x="1712" y="-338" font-family="Helvetica,sans-Serif" font-size="10.00"> cst</text>
<text text-anchor="middle" x="1712" y="-327" font-family="Helvetica,sans-Serif" font-size="10.00">cst_hard</text>
<text text-anchor="middle" x="1712" y="-316" font-family="Helvetica,sans-Serif" font-size="10.00">opeuser</text>
<text text-anchor="middle" x="1712" y="-305" font-family="Helvetica,sans-Serif" font-size="10.00">opeuser_bin</text>
<text text-anchor="middle" x="1712" y="-294" font-family="Helvetica,sans-Serif" font-size="10.00">results</text>
<text text-anchor="middle" x="1712" y="-283" font-family="Helvetica,sans-Serif" font-size="10.00">term</text>
<text text-anchor="middle" x="1712" y="-272" font-family="Helvetica,sans-Serif" font-size="10.00">term_double</text>
</g>
<!-- Node16&#45;&gt;Node21 -->
<g id="edge55" class="edge">
<title>Node16&#45;&gt;Node21</title>
<path fill="none" stroke="#9a32cd" stroke-dasharray="5,2" d="M1677.41,-141C1749.13,-141 1873.54,-141 1936.35,-141"/>
<polygon fill="#9a32cd" stroke="#9a32cd" points="1677.22,-137.5 1667.22,-141 1677.22,-144.5 1677.22,-137.5"/>
<text text-anchor="middle" x="1816.5" y="-221" font-family="Helvetica,sans-Serif" font-size="10.00"> p_christo</text>
<text text-anchor="middle" x="1816.5" y="-210" font-family="Helvetica,sans-Serif" font-size="10.00">p_det_cov</text>
<text text-anchor="middle" x="1816.5" y="-199" font-family="Helvetica,sans-Serif" font-size="10.00">p_dirac</text>
<text text-anchor="middle" x="1816.5" y="-188" font-family="Helvetica,sans-Serif" font-size="10.00">p_met_con</text>
<text text-anchor="middle" x="1816.5" y="-177" font-family="Helvetica,sans-Serif" font-size="10.00">p_met_cov</text>
<text text-anchor="middle" x="1816.5" y="-166" font-family="Helvetica,sans-Serif" font-size="10.00">p_ricci_scalar</text>
<text text-anchor="middle" x="1816.5" y="-155" font-family="Helvetica,sans-Serif" font-size="10.00">p_ricci_tensor</text>
<text text-anchor="middle" x="1816.5" y="-144" font-family="Helvetica,sans-Serif" font-size="10.00">p_riemann</text>
</g>
<!-- Node16&#45;&gt;Node22 -->
<g id="edge59" class="edge">
<title>Node16&#45;&gt;Node22</title>
<path fill="none" stroke="#9a32cd" stroke-dasharray="5,2" d="M1653.98,-127.63C1726.04,-98.81 1907.23,-39.86 2019,-122 2074.81,-163.02 2114.1,-395.91 2122.03,-446.36"/>
<polygon fill="#9a32cd" stroke="#9a32cd" points="1652.49,-124.45 1644.56,-131.47 1655.14,-130.93 1652.49,-124.45"/>
<text text-anchor="middle" x="1904.5" y="-86" font-family="Helvetica,sans-Serif" font-size="10.00"> res</text>
</g>
<!-- Node17&#45;&gt;Node6 -->
<g id="edge56" class="edge">
<title>Node17&#45;&gt;Node6</title>
<path fill="none" stroke="#9a32cd" stroke-dasharray="5,2" d="M1494.79,-271.11C1504.34,-275.9 1515.11,-281.24 1525,-286 1619.43,-331.44 1651.96,-326.63 1739,-385 1766.39,-403.37 1793.5,-431.5 1806.88,-446.24"/>
<polygon fill="#9a32cd" stroke="#9a32cd" points="1496.24,-267.92 1485.74,-266.55 1493.09,-274.17 1496.24,-267.92"/>
<text text-anchor="middle" x="1622" y="-347" font-family="Helvetica,sans-Serif" font-size="10.00"> var</text>
</g>
<!-- Node17&#45;&gt;Node16 -->
<g id="edge38" class="edge">
<title>Node17&#45;&gt;Node16</title>
<path fill="none" stroke="#9a32cd" stroke-dasharray="5,2" d="M1488.22,-241.02C1520.72,-216.53 1581.84,-170.49 1608.28,-150.58"/>
<polygon fill="#9a32cd" stroke="#9a32cd" points="1485.75,-238.5 1479.87,-247.31 1489.96,-244.09 1485.75,-238.5"/>
<text text-anchor="middle" x="1542" y="-227" font-family="Helvetica,sans-Serif" font-size="10.00"> der_t</text>
<text text-anchor="middle" x="1542" y="-216" font-family="Helvetica,sans-Serif" font-size="10.00">val_t</text>
</g>
<!-- Node17&#45;&gt;Node18 -->
<g id="edge42" class="edge">
<title>Node17&#45;&gt;Node18</title>
<path fill="none" stroke="midnightblue" d="M1517.28,-267.59C1519.89,-268.08 1522.47,-268.56 1525,-269 1543.58,-272.27 1564.28,-275.36 1581.68,-277.8"/>
<polygon fill="midnightblue" stroke="midnightblue" points="1517.67,-264.1 1507.19,-265.64 1516.34,-270.98 1517.67,-264.1"/>
</g>
<!-- Node18&#45;&gt;Node17 -->
<g id="edge41" class="edge">
<title>Node18&#45;&gt;Node17</title>
<path fill="none" stroke="#9a32cd" stroke-dasharray="5,2" d="M1593.15,-269.2C1582.7,-264.72 1570.56,-260.31 1559,-258 1542.24,-254.65 1523.42,-253.93 1507.19,-254.22"/>
<polygon fill="#9a32cd" stroke="#9a32cd" points="1592.01,-272.53 1602.57,-273.45 1594.89,-266.15 1592.01,-272.53"/>
<text text-anchor="middle" x="1542" y="-261" font-family="Helvetica,sans-Serif" font-size="10.00"> cmp</text>
</g>
<!-- Node19&#45;&gt;Node17 -->
<g id="edge45" class="edge">
<title>Node19&#45;&gt;Node17</title>
<path fill="none" stroke="#9a32cd" stroke-dasharray="5,2" d="M1322.7,-164.98C1347.76,-174.26 1380.54,-188.08 1407,-205 1426.14,-217.24 1445.14,-235.81 1455.94,-247.13"/>
<polygon fill="#9a32cd" stroke="#9a32cd" points="1323.75,-161.64 1313.16,-161.53 1321.37,-168.22 1323.75,-161.64"/>
<text text-anchor="middle" x="1381" y="-208" font-family="Helvetica,sans-Serif" font-size="10.00"> basis</text>
</g>
<!-- Node20&#45;&gt;Node17 -->
<g id="edge49" class="edge">
<title>Node20&#45;&gt;Node17</title>
<path fill="none" stroke="#9a32cd" stroke-dasharray="5,2" d="M369.91,-587C423.27,-561.46 542.79,-507.85 650,-485 729.26,-468.11 751.24,-480.7 832,-474 1000.8,-460 1049.91,-486.33 1211,-434 1306.63,-402.94 1328.74,-384.13 1407,-321 1427.78,-304.24 1447.7,-279.85 1457.91,-266.54"/>
<polygon fill="#9a32cd" stroke="#9a32cd" points="368.22,-583.93 360.73,-591.43 371.26,-590.23 368.22,-583.93"/>
<text text-anchor="middle" x="892.5" y="-475" font-family="Helvetica,sans-Serif" font-size="10.00"> parameters</text>
</g>
<!-- Node21&#45;&gt;Node6 -->
<g id="edge51" class="edge">
<title>Node21&#45;&gt;Node6</title>
<path fill="none" stroke="#9a32cd" stroke-dasharray="5,2" d="M1965.67,-159.66C1936.02,-218.97 1844.57,-401.86 1822.39,-446.23"/>
<polygon fill="#9a32cd" stroke="#9a32cd" points="1968.83,-161.17 1970.17,-150.66 1962.57,-158.04 1968.83,-161.17"/>
<text text-anchor="middle" x="1904.5" y="-302" font-family="Helvetica,sans-Serif" font-size="10.00"> met</text>
</g>
<!-- Node22&#45;&gt;Node6 -->
<g id="edge57" class="edge">
<title>Node22&#45;&gt;Node6</title>
<path fill="none" stroke="#9a32cd" stroke-dasharray="5,2" d="M2069.79,-456C2015.57,-456 1932.06,-456 1876.14,-456"/>
<polygon fill="#9a32cd" stroke="#9a32cd" points="2069.9,-459.5 2079.9,-456 2069.9,-452.5 2069.9,-459.5"/>
<text text-anchor="middle" x="1976" y="-459" font-family="Helvetica,sans-Serif" font-size="10.00"> def</text>
</g>
</g>
</svg>
