<?xml version="1.0" encoding="UTF-8" standalone="no"?>
<!DOCTYPE svg PUBLIC "-//W3C//DTD SVG 1.1//EN"
 "http://www.w3.org/Graphics/SVG/1.1/DTD/svg11.dtd">
<!-- Generated by graphviz version 2.47.1 (20210515.0534)
 -->
<!-- Title: Kadath::Ope_mult_r Pages: 1 -->
<svg width="2131pt" height="836pt"
 viewBox="0.00 0.00 2131.00 836.00" xmlns="http://www.w3.org/2000/svg" xmlns:xlink="http://www.w3.org/1999/xlink">
<g id="graph0" class="graph" transform="scale(1 1) rotate(0) translate(4 832)">
<title>Kadath::Ope_mult_r</title>
<!-- Node1 -->
<g id="node1" class="node">
<title>Node1</title>
<g id="a_node1"><a xlink:title=" ">
<polygon fill="#bfbfbf" stroke="black" points="1002,-704.5 1002,-723.5 1104,-723.5 1104,-704.5 1002,-704.5"/>
<text text-anchor="middle" x="1053" y="-711.5" font-family="Helvetica,sans-Serif" font-size="10.00">Kadath::Ope_mult_r</text>
</a>
</g>
</g>
<!-- Node2 -->
<g id="node2" class="node">
<title>Node2</title>
<g id="a_node2"><a xlink:href="classKadath_1_1Ope__eq.html" target="_top" xlink:title=" ">
<polygon fill="none" stroke="black" points="828,-675.5 828,-694.5 914,-694.5 914,-675.5 828,-675.5"/>
<text text-anchor="middle" x="871" y="-682.5" font-family="Helvetica,sans-Serif" font-size="10.00">Kadath::Ope_eq</text>
</a>
</g>
</g>
<!-- Node2&#45;&gt;Node1 -->
<g id="edge1" class="edge">
<title>Node2&#45;&gt;Node1</title>
<path fill="none" stroke="midnightblue" d="M920.17,-696.7C924.16,-697.53 928.14,-698.31 932,-699 954.84,-703.08 980.32,-706.43 1001.9,-708.93"/>
<polygon fill="midnightblue" stroke="midnightblue" points="920.8,-693.26 910.29,-694.56 919.32,-700.1 920.8,-693.26"/>
</g>
<!-- Node2&#45;&gt;Node2 -->
<g id="edge3" class="edge">
<title>Node2&#45;&gt;Node2</title>
<path fill="none" stroke="#9a32cd" stroke-dasharray="5,2" d="M856.27,-704.77C857.42,-709.5 862.34,-713 871,-713 885.22,-713 889.33,-703.57 883.33,-694.76"/>
<polygon fill="#9a32cd" stroke="#9a32cd" points="859.74,-705.3 858.67,-694.76 852.93,-703.66 859.74,-705.3"/>
<text text-anchor="middle" x="871" y="-716" font-family="Helvetica,sans-Serif" font-size="10.00"> parts</text>
</g>
<!-- Node5 -->
<g id="node5" class="node">
<title>Node5</title>
<g id="a_node5"><a xlink:href="classKadath_1_1Equation.html" target="_top" xlink:title=" ">
<polygon fill="none" stroke="black" points="1008.5,-532.5 1008.5,-551.5 1097.5,-551.5 1097.5,-532.5 1008.5,-532.5"/>
<text text-anchor="middle" x="1053" y="-539.5" font-family="Helvetica,sans-Serif" font-size="10.00">Kadath::Equation</text>
</a>
</g>
</g>
<!-- Node2&#45;&gt;Node5 -->
<g id="edge9" class="edge">
<title>Node2&#45;&gt;Node5</title>
<path fill="none" stroke="#9a32cd" stroke-dasharray="5,2" d="M905.39,-669.68C908.65,-667.15 911.62,-664.27 914,-661 936.76,-629.8 905.63,-604.21 932,-576 942.54,-564.73 978.52,-555.47 1008.36,-549.48"/>
<polygon fill="#9a32cd" stroke="#9a32cd" points="903.33,-666.85 896.9,-675.27 907.18,-672.7 903.33,-666.85"/>
<text text-anchor="middle" x="958" y="-579" font-family="Helvetica,sans-Serif" font-size="10.00"> parts</text>
</g>
<!-- Node12 -->
<g id="node12" class="node">
<title>Node12</title>
<g id="a_node12"><a xlink:href="classKadath_1_1Eq__int.html" target="_top" xlink:title=" ">
<polygon fill="none" stroke="black" points="1013.5,-616.5 1013.5,-635.5 1092.5,-635.5 1092.5,-616.5 1013.5,-616.5"/>
<text text-anchor="middle" x="1053" y="-623.5" font-family="Helvetica,sans-Serif" font-size="10.00">Kadath::Eq_int</text>
</a>
</g>
</g>
<!-- Node2&#45;&gt;Node12 -->
<g id="edge26" class="edge">
<title>Node2&#45;&gt;Node12</title>
<path fill="none" stroke="#9a32cd" stroke-dasharray="5,2" d="M902.47,-671.48C911.85,-667.54 922.27,-663.39 932,-660 959.09,-650.56 990.29,-641.78 1014.08,-635.51"/>
<polygon fill="#9a32cd" stroke="#9a32cd" points="900.96,-668.32 893.14,-675.47 903.71,-674.76 900.96,-668.32"/>
<text text-anchor="middle" x="958" y="-663" font-family="Helvetica,sans-Serif" font-size="10.00"> parts</text>
</g>
<!-- Node22 -->
<g id="node22" class="node">
<title>Node22</title>
<g id="a_node22"><a xlink:href="classKadath_1_1Ope__def.html" target="_top" xlink:title=" ">
<polygon fill="none" stroke="black" points="1682,-436.5 1682,-455.5 1771,-455.5 1771,-436.5 1682,-436.5"/>
<text text-anchor="middle" x="1726.5" y="-443.5" font-family="Helvetica,sans-Serif" font-size="10.00">Kadath::Ope_def</text>
</a>
</g>
</g>
<!-- Node2&#45;&gt;Node22 -->
<g id="edge59" class="edge">
<title>Node2&#45;&gt;Node22</title>
<path fill="none" stroke="midnightblue" d="M891.43,-668.84C902.84,-659.76 917.78,-648.56 932,-640 961.47,-622.26 969.63,-618.63 1002,-607 1234.21,-523.57 1297.65,-516.36 1540,-470 1588.16,-460.79 1644.05,-454.09 1681.79,-450.15"/>
<polygon fill="midnightblue" stroke="midnightblue" points="889.02,-666.28 883.46,-675.3 893.43,-671.72 889.02,-666.28"/>
</g>
<!-- Node3 -->
<g id="node3" class="node">
<title>Node3</title>
<g id="a_node3"><a xlink:href="structKadath_1_1MemoryMappable.html" target="_top" xlink:title=" ">
<polygon fill="none" stroke="black" points="0,-430.5 0,-449.5 128,-449.5 128,-430.5 0,-430.5"/>
<text text-anchor="middle" x="64" y="-437.5" font-family="Helvetica,sans-Serif" font-size="10.00">Kadath::MemoryMappable</text>
</a>
</g>
</g>
<!-- Node3&#45;&gt;Node2 -->
<g id="edge2" class="edge">
<title>Node3&#45;&gt;Node2</title>
<path fill="none" stroke="midnightblue" d="M70.06,-459.57C79.36,-491.36 102.34,-553.81 146,-585 201.92,-624.94 681.61,-668.89 827.85,-681.47"/>
<polygon fill="midnightblue" stroke="midnightblue" points="73.37,-458.41 67.33,-449.7 66.62,-460.28 73.37,-458.41"/>
</g>
<!-- Node3&#45;&gt;Node5 -->
<g id="edge6" class="edge">
<title>Node3&#45;&gt;Node5</title>
<path fill="none" stroke="midnightblue" d="M66.36,-459.67C70.8,-506.34 89.34,-623.04 165,-666 283.6,-733.34 675.1,-642.1 753,-623 835.5,-602.77 849.43,-575.96 932,-556 956.87,-549.99 985.29,-546.53 1008.23,-544.55"/>
<polygon fill="midnightblue" stroke="midnightblue" points="69.84,-459.31 65.52,-449.64 62.87,-459.89 69.84,-459.31"/>
</g>
<!-- Node6 -->
<g id="node6" class="node">
<title>Node6</title>
<g id="a_node6"><a xlink:href="classKadath_1_1Array.html" target="_top" xlink:title=" ">
<polygon fill="none" stroke="black" points="165,-278.5 165,-297.5 266,-297.5 266,-278.5 165,-278.5"/>
<text text-anchor="middle" x="215.5" y="-285.5" font-family="Helvetica,sans-Serif" font-size="10.00">Kadath::Array&lt; int &gt;</text>
</a>
</g>
</g>
<!-- Node3&#45;&gt;Node6 -->
<g id="edge8" class="edge">
<title>Node3&#45;&gt;Node6</title>
<path fill="none" stroke="midnightblue" d="M79.71,-422.61C95.57,-404.13 121.8,-374.27 146,-350 165.25,-330.69 189.14,-309.69 203.02,-297.75"/>
<polygon fill="midnightblue" stroke="midnightblue" points="77.03,-420.37 73.2,-430.25 82.36,-424.91 77.03,-420.37"/>
</g>
<!-- Node7 -->
<g id="node7" class="node">
<title>Node7</title>
<g id="a_node7"><a xlink:href="classKadath_1_1Domain.html" target="_top" xlink:title=" ">
<polygon fill="none" stroke="black" points="828.5,-461.5 828.5,-480.5 913.5,-480.5 913.5,-461.5 828.5,-461.5"/>
<text text-anchor="middle" x="871" y="-468.5" font-family="Helvetica,sans-Serif" font-size="10.00">Kadath::Domain</text>
</a>
</g>
</g>
<!-- Node3&#45;&gt;Node7 -->
<g id="edge11" class="edge">
<title>Node3&#45;&gt;Node7</title>
<path fill="none" stroke="midnightblue" d="M138.54,-440.18C246.72,-440.77 455.05,-443.07 632,-452 700.93,-455.48 780.87,-462.47 828.34,-466.93"/>
<polygon fill="midnightblue" stroke="midnightblue" points="138.41,-436.68 128.39,-440.13 138.38,-443.68 138.41,-436.68"/>
</g>
<!-- Node8 -->
<g id="node8" class="node">
<title>Node8</title>
<g id="a_node8"><a xlink:href="classKadath_1_1Dim__array.html" target="_top" xlink:title=" ">
<polygon fill="none" stroke="black" points="168,-637.5 168,-656.5 263,-656.5 263,-637.5 168,-637.5"/>
<text text-anchor="middle" x="215.5" y="-644.5" font-family="Helvetica,sans-Serif" font-size="10.00">Kadath::Dim_array</text>
</a>
</g>
</g>
<!-- Node3&#45;&gt;Node8 -->
<g id="edge13" class="edge">
<title>Node3&#45;&gt;Node8</title>
<path fill="none" stroke="midnightblue" d="M68.35,-459.51C75.71,-496.57 96.73,-577.5 146,-623 152.85,-629.33 161.47,-634 170.25,-637.45"/>
<polygon fill="midnightblue" stroke="midnightblue" points="71.76,-458.7 66.49,-449.51 64.87,-459.98 71.76,-458.7"/>
</g>
<!-- Node9 -->
<g id="node9" class="node">
<title>Node9</title>
<g id="a_node9"><a xlink:href="classKadath_1_1Array.html" target="_top" xlink:title=" ">
<polygon fill="none" stroke="black" points="382,-491.5 382,-510.5 501,-510.5 501,-491.5 382,-491.5"/>
<text text-anchor="middle" x="441.5" y="-498.5" font-family="Helvetica,sans-Serif" font-size="10.00">Kadath::Array&lt; double &gt;</text>
</a>
</g>
</g>
<!-- Node3&#45;&gt;Node9 -->
<g id="edge15" class="edge">
<title>Node3&#45;&gt;Node9</title>
<path fill="none" stroke="midnightblue" d="M129.48,-451.22C135.07,-452.17 140.63,-453.11 146,-454 227.72,-467.58 322.33,-482.55 381.79,-491.86"/>
<polygon fill="midnightblue" stroke="midnightblue" points="129.89,-447.74 119.45,-449.51 128.72,-454.64 129.89,-447.74"/>
</g>
<!-- Node10 -->
<g id="node10" class="node">
<title>Node10</title>
<g id="a_node10"><a xlink:href="classKadath_1_1Val__domain.html" target="_top" xlink:title=" ">
<polygon fill="none" stroke="black" points="650,-360.5 650,-379.5 753,-379.5 753,-360.5 650,-360.5"/>
<text text-anchor="middle" x="701.5" y="-367.5" font-family="Helvetica,sans-Serif" font-size="10.00">Kadath::Val_domain</text>
</a>
</g>
</g>
<!-- Node3&#45;&gt;Node10 -->
<g id="edge17" class="edge">
<title>Node3&#45;&gt;Node10</title>
<path fill="none" stroke="midnightblue" d="M126.56,-428.81C133.11,-427.79 139.69,-426.82 146,-426 361.02,-397.95 417.21,-412.81 632,-383 639.07,-382.02 646.53,-380.8 653.81,-379.5"/>
<polygon fill="midnightblue" stroke="midnightblue" points="125.63,-425.42 116.32,-430.47 126.75,-432.33 125.63,-425.42"/>
</g>
<!-- Node11 -->
<g id="node11" class="node">
<title>Node11</title>
<g id="a_node11"><a xlink:href="classKadath_1_1Base__spectral.html" target="_top" xlink:title=" ">
<polygon fill="none" stroke="black" points="384.5,-354.5 384.5,-373.5 498.5,-373.5 498.5,-354.5 384.5,-354.5"/>
<text text-anchor="middle" x="441.5" y="-361.5" font-family="Helvetica,sans-Serif" font-size="10.00">Kadath::Base_spectral</text>
</a>
</g>
</g>
<!-- Node3&#45;&gt;Node11 -->
<g id="edge21" class="edge">
<title>Node3&#45;&gt;Node11</title>
<path fill="none" stroke="midnightblue" d="M83.68,-424.19C99.27,-411.99 122.62,-395.9 146,-388 225.58,-361.1 323.85,-358.79 384.34,-360.62"/>
<polygon fill="midnightblue" stroke="midnightblue" points="81.46,-421.49 75.88,-430.49 85.86,-426.93 81.46,-421.49"/>
</g>
<!-- Node3&#45;&gt;Node12 -->
<g id="edge25" class="edge">
<title>Node3&#45;&gt;Node12</title>
<path fill="none" stroke="midnightblue" d="M97.63,-453.25C117.09,-461.02 142.34,-470.88 165,-479 320.85,-534.88 356.33,-564.16 519,-595 701.59,-629.62 925.12,-629.03 1013.45,-627.14"/>
<polygon fill="midnightblue" stroke="midnightblue" points="98.88,-449.98 88.3,-449.51 96.28,-456.48 98.88,-449.98"/>
</g>
<!-- Node13 -->
<g id="node13" class="node">
<title>Node13</title>
<g id="a_node13"><a xlink:href="classKadath_1_1Space.html" target="_top" xlink:title=" ">
<polygon fill="none" stroke="black" points="1013,-287.5 1013,-306.5 1093,-306.5 1093,-287.5 1013,-287.5"/>
<text text-anchor="middle" x="1053" y="-294.5" font-family="Helvetica,sans-Serif" font-size="10.00">Kadath::Space</text>
</a>
</g>
</g>
<!-- Node3&#45;&gt;Node13 -->
<g id="edge28" class="edge">
<title>Node3&#45;&gt;Node13</title>
<path fill="none" stroke="midnightblue" d="M66.59,-420.24C72.36,-353.81 94.68,-140.53 146,-100 150.23,-96.66 908.93,-212.18 914,-214 964.52,-232.13 1016.89,-269.75 1039.91,-287.43"/>
<polygon fill="midnightblue" stroke="midnightblue" points="63.1,-419.97 65.75,-430.23 70.07,-420.55 63.1,-419.97"/>
</g>
<!-- Node14 -->
<g id="node14" class="node">
<title>Node14</title>
<g id="a_node14"><a xlink:href="classKadath_1_1Index.html" target="_top" xlink:title=" ">
<polygon fill="none" stroke="black" points="404,-713.5 404,-732.5 479,-732.5 479,-713.5 404,-713.5"/>
<text text-anchor="middle" x="441.5" y="-720.5" font-family="Helvetica,sans-Serif" font-size="10.00">Kadath::Index</text>
</a>
</g>
</g>
<!-- Node3&#45;&gt;Node14 -->
<g id="edge31" class="edge">
<title>Node3&#45;&gt;Node14</title>
<path fill="none" stroke="midnightblue" d="M64.38,-459.85C64.03,-509.39 70.72,-638.8 146,-699 220.72,-758.75 342.87,-744.18 403.69,-731.86"/>
<polygon fill="midnightblue" stroke="midnightblue" points="67.88,-459.62 64.57,-449.55 60.89,-459.49 67.88,-459.62"/>
</g>
<!-- Node15 -->
<g id="node15" class="node">
<title>Node15</title>
<g id="a_node15"><a xlink:href="classKadath_1_1Param.html" target="_top" xlink:title=" ">
<polygon fill="none" stroke="black" points="284,-773.5 284,-792.5 364,-792.5 364,-773.5 284,-773.5"/>
<text text-anchor="middle" x="324" y="-780.5" font-family="Helvetica,sans-Serif" font-size="10.00">Kadath::Param</text>
</a>
</g>
</g>
<!-- Node3&#45;&gt;Node15 -->
<g id="edge35" class="edge">
<title>Node3&#45;&gt;Node15</title>
<path fill="none" stroke="midnightblue" d="M67.75,-459.51C76.51,-519.1 105.64,-697.12 146,-737 182.59,-773.15 243.75,-781.97 283.73,-783.57"/>
<polygon fill="midnightblue" stroke="midnightblue" points="71.2,-458.93 66.31,-449.53 64.27,-459.93 71.2,-458.93"/>
</g>
<!-- Node16 -->
<g id="node16" class="node">
<title>Node16</title>
<g id="a_node16"><a xlink:href="classKadath_1_1Term__eq.html" target="_top" xlink:title=" ">
<polygon fill="none" stroke="black" points="1540,-158.5 1540,-177.5 1630,-177.5 1630,-158.5 1540,-158.5"/>
<text text-anchor="middle" x="1585" y="-165.5" font-family="Helvetica,sans-Serif" font-size="10.00">Kadath::Term_eq</text>
</a>
</g>
</g>
<!-- Node3&#45;&gt;Node16 -->
<g id="edge38" class="edge">
<title>Node3&#45;&gt;Node16</title>
<path fill="none" stroke="midnightblue" d="M64.67,-420.16C64.62,-357.07 72.22,-157.9 165,-34 181,-12.64 187.81,0 214.5,0 214.5,0 214.5,0 1430,0 1516.65,0 1567.75,-122.95 1580.71,-158.49"/>
<polygon fill="midnightblue" stroke="midnightblue" points="61.17,-420.34 64.75,-430.31 68.17,-420.28 61.17,-420.34"/>
</g>
<!-- Node17 -->
<g id="node17" class="node">
<title>Node17</title>
<g id="a_node17"><a xlink:href="classKadath_1_1Tensor.html" target="_top" xlink:title=" ">
<polygon fill="none" stroke="black" points="1388,-155.5 1388,-174.5 1470,-174.5 1470,-155.5 1388,-155.5"/>
<text text-anchor="middle" x="1429" y="-162.5" font-family="Helvetica,sans-Serif" font-size="10.00">Kadath::Tensor</text>
</a>
</g>
</g>
<!-- Node3&#45;&gt;Node17 -->
<g id="edge40" class="edge">
<title>Node3&#45;&gt;Node17</title>
<path fill="none" stroke="midnightblue" d="M65.42,-420.26C67.45,-364.91 79.11,-205.16 146,-96 166.84,-61.99 174.61,-38 214.5,-38 214.5,-38 214.5,-38 1273.5,-38 1347.46,-38 1405.3,-125.92 1422.65,-155.45"/>
<polygon fill="midnightblue" stroke="midnightblue" points="61.92,-420.33 65.12,-430.43 68.92,-420.54 61.92,-420.33"/>
</g>
<!-- Node19 -->
<g id="node19" class="node">
<title>Node19</title>
<g id="a_node19"><a xlink:href="classKadath_1_1Base__tensor.html" target="_top" xlink:title=" ">
<polygon fill="none" stroke="black" points="1219,-142.5 1219,-161.5 1326,-161.5 1326,-142.5 1219,-142.5"/>
<text text-anchor="middle" x="1272.5" y="-149.5" font-family="Helvetica,sans-Serif" font-size="10.00">Kadath::Base_tensor</text>
</a>
</g>
</g>
<!-- Node3&#45;&gt;Node19 -->
<g id="edge47" class="edge">
<title>Node3&#45;&gt;Node19</title>
<path fill="none" stroke="midnightblue" d="M65.91,-420.34C69.4,-368.77 86.04,-228.5 165,-154 367.29,36.87 511.38,-114 789.5,-114 789.5,-114 789.5,-114 1054,-114 1119.93,-114 1195.45,-131.15 1237.91,-142.41"/>
<polygon fill="midnightblue" stroke="midnightblue" points="62.41,-420.26 65.33,-430.45 69.4,-420.67 62.41,-420.26"/>
</g>
<!-- Node20 -->
<g id="node20" class="node">
<title>Node20</title>
<g id="a_node20"><a xlink:href="classKadath_1_1Param__tensor.html" target="_top" xlink:title=" ">
<polygon fill="none" stroke="black" points="519,-105.5 519,-124.5 632,-124.5 632,-105.5 519,-105.5"/>
<text text-anchor="middle" x="575.5" y="-112.5" font-family="Helvetica,sans-Serif" font-size="10.00">Kadath::Param_tensor</text>
</a>
</g>
</g>
<!-- Node3&#45;&gt;Node20 -->
<g id="edge51" class="edge">
<title>Node3&#45;&gt;Node20</title>
<path fill="none" stroke="midnightblue" d="M72.06,-420.68C93.55,-365.17 164.13,-205.46 284,-147 359.25,-110.3 458.18,-107.62 519,-110.34"/>
<polygon fill="midnightblue" stroke="midnightblue" points="68.67,-419.74 68.42,-430.33 75.22,-422.21 68.67,-419.74"/>
</g>
<!-- Node21 -->
<g id="node21" class="node">
<title>Node21</title>
<g id="a_node21"><a xlink:href="classKadath_1_1Metric.html" target="_top" xlink:title=" ">
<polygon fill="none" stroke="black" points="2044,-459.5 2044,-478.5 2123,-478.5 2123,-459.5 2044,-459.5"/>
<text text-anchor="middle" x="2083.5" y="-466.5" font-family="Helvetica,sans-Serif" font-size="10.00">Kadath::Metric</text>
</a>
</g>
</g>
<!-- Node3&#45;&gt;Node21 -->
<g id="edge53" class="edge">
<title>Node3&#45;&gt;Node21</title>
<path fill="none" stroke="midnightblue" d="M68.12,-459.64C81.21,-538.51 134.69,-828 214.5,-828 214.5,-828 214.5,-828 1928.5,-828 2085.16,-828 2084.49,-535.69 2082.86,-478.6"/>
<polygon fill="midnightblue" stroke="midnightblue" points="71.55,-458.9 66.49,-449.59 64.64,-460.02 71.55,-458.9"/>
</g>
<!-- Node4 -->
<g id="node4" class="node">
<title>Node4</title>
<g id="a_node4"><a xlink:href="classKadath_1_1System__of__eqs.html" target="_top" xlink:title=" ">
<polygon fill="none" stroke="black" points="1868,-493.5 1868,-512.5 1987,-512.5 1987,-493.5 1868,-493.5"/>
<text text-anchor="middle" x="1927.5" y="-500.5" font-family="Helvetica,sans-Serif" font-size="10.00">Kadath::System_of_eqs</text>
</a>
</g>
</g>
<!-- Node4&#45;&gt;Node2 -->
<g id="edge4" class="edge">
<title>Node4&#45;&gt;Node2</title>
<path fill="none" stroke="#9a32cd" stroke-dasharray="5,2" d="M1916.79,-521.47C1891.85,-566.07 1820.92,-676 1727.5,-676 1160.5,-676 1160.5,-676 1160.5,-676 1072.81,-676 970.19,-680.21 914.03,-682.87"/>
<polygon fill="#9a32cd" stroke="#9a32cd" points="1919.94,-523 1921.65,-512.55 1913.79,-519.66 1919.94,-523"/>
<text text-anchor="middle" x="1429" y="-679" font-family="Helvetica,sans-Serif" font-size="10.00"> syst</text>
</g>
<!-- Node4&#45;&gt;Node21 -->
<g id="edge55" class="edge">
<title>Node4&#45;&gt;Node21</title>
<path fill="none" stroke="#9a32cd" stroke-dasharray="5,2" d="M1953.06,-488.48C1967.62,-480.73 1986.74,-471.98 2005,-468 2017.49,-465.28 2031.38,-464.71 2043.92,-465.08"/>
<polygon fill="#9a32cd" stroke="#9a32cd" points="1951.27,-485.47 1944.21,-493.37 1954.65,-491.6 1951.27,-485.47"/>
<text text-anchor="middle" x="2015.5" y="-471" font-family="Helvetica,sans-Serif" font-size="10.00"> syst</text>
</g>
<!-- Node5&#45;&gt;Node4 -->
<g id="edge5" class="edge">
<title>Node5&#45;&gt;Node4</title>
<path fill="none" stroke="#9a32cd" stroke-dasharray="5,2" d="M1107.83,-548.94C1151.78,-554.01 1215.55,-560 1271.5,-560 1271.5,-560 1271.5,-560 1727.5,-560 1782.98,-560 1797,-552.41 1850,-536 1870.17,-529.75 1892.22,-519.9 1907.44,-512.58"/>
<polygon fill="#9a32cd" stroke="#9a32cd" points="1108,-545.44 1097.65,-547.74 1107.18,-552.39 1108,-545.44"/>
<text text-anchor="middle" x="1505" y="-563" font-family="Helvetica,sans-Serif" font-size="10.00"> eq</text>
</g>
<!-- Node6&#45;&gt;Node4 -->
<g id="edge33" class="edge">
<title>Node6&#45;&gt;Node4</title>
<path fill="none" stroke="#9a32cd" stroke-dasharray="5,2" d="M276.12,-287.08C333.69,-286.4 423.33,-285.93 501,-288 613.28,-291 642.12,-289.09 753,-307 856.89,-323.78 881.5,-335.15 984,-359 1215.51,-412.88 1266.31,-484 1504,-484 1504,-484 1504,-484 1727.5,-484 1774.87,-484 1828.3,-489.4 1867.86,-494.44"/>
<polygon fill="#9a32cd" stroke="#9a32cd" points="276.06,-283.58 266.11,-287.2 276.15,-290.58 276.06,-283.58"/>
<text text-anchor="middle" x="1161.5" y="-440" font-family="Helvetica,sans-Serif" font-size="10.00"> assoc_var</text>
<text text-anchor="middle" x="1161.5" y="-429" font-family="Helvetica,sans-Serif" font-size="10.00">assoc_var_double</text>
</g>
<!-- Node6&#45;&gt;Node5 -->
<g id="edge7" class="edge">
<title>Node6&#45;&gt;Node5</title>
<path fill="none" stroke="#9a32cd" stroke-dasharray="5,2" d="M276.17,-289.22C396.76,-292.24 665.43,-301.86 753,-329 885.71,-370.13 1009.22,-495.67 1042.96,-532.03"/>
<polygon fill="#9a32cd" stroke="#9a32cd" points="276.1,-285.72 266.01,-288.98 275.93,-292.72 276.1,-285.72"/>
<text text-anchor="middle" x="701.5" y="-343" font-family="Helvetica,sans-Serif" font-size="10.00"> n_cond</text>
<text text-anchor="middle" x="701.5" y="-332" font-family="Helvetica,sans-Serif" font-size="10.00">p_cmp_used</text>
</g>
<!-- Node6&#45;&gt;Node11 -->
<g id="edge22" class="edge">
<title>Node6&#45;&gt;Node11</title>
<path fill="none" stroke="#9a32cd" stroke-dasharray="5,2" d="M247.36,-301.66C258.76,-306.48 271.87,-311.75 284,-316 318.92,-328.22 328.63,-328.14 364,-339 380.03,-343.92 397.84,-349.72 412.24,-354.5"/>
<polygon fill="#9a32cd" stroke="#9a32cd" points="248.41,-298.31 237.84,-297.58 245.65,-304.74 248.41,-298.31"/>
<text text-anchor="middle" x="324" y="-342" font-family="Helvetica,sans-Serif" font-size="10.00"> bases_1d</text>
</g>
<!-- Node6&#45;&gt;Node17 -->
<g id="edge45" class="edge">
<title>Node6&#45;&gt;Node17</title>
<path fill="none" stroke="#9a32cd" stroke-dasharray="5,2" d="M245.44,-274.19C257.18,-269.07 271.02,-263.63 284,-260 351.77,-241.05 370.13,-236 440.5,-236 440.5,-236 440.5,-236 791.5,-236 823.81,-236 1338.03,-180.68 1370,-176 1375.78,-175.15 1381.86,-174.14 1387.82,-173.07"/>
<polygon fill="#9a32cd" stroke="#9a32cd" points="243.82,-271.08 236.14,-278.37 246.69,-277.47 243.82,-271.08"/>
<text text-anchor="middle" x="871" y="-247" font-family="Helvetica,sans-Serif" font-size="10.00"> give_indices</text>
<text text-anchor="middle" x="871" y="-236" font-family="Helvetica,sans-Serif" font-size="10.00">type_indice</text>
</g>
<!-- Node6&#45;&gt;Node19 -->
<g id="edge49" class="edge">
<title>Node6&#45;&gt;Node19</title>
<path fill="none" stroke="#9a32cd" stroke-dasharray="5,2" d="M229.31,-270.05C241.48,-254.52 261.27,-232.89 284,-222 451.39,-141.78 1039.32,-147.1 1218.97,-150.72"/>
<polygon fill="#9a32cd" stroke="#9a32cd" points="226.27,-268.27 223.06,-278.37 231.87,-272.48 226.27,-268.27"/>
<text text-anchor="middle" x="790.5" y="-157" font-family="Helvetica,sans-Serif" font-size="10.00"> basis</text>
</g>
<!-- Node7&#45;&gt;Node5 -->
<g id="edge10" class="edge">
<title>Node7&#45;&gt;Node5</title>
<path fill="none" stroke="#9a32cd" stroke-dasharray="5,2" d="M905.75,-484.31C941.29,-498.33 996.38,-520.06 1027.82,-532.46"/>
<polygon fill="#9a32cd" stroke="#9a32cd" points="906.86,-480.99 896.28,-480.58 904.29,-487.5 906.86,-480.99"/>
<text text-anchor="middle" x="958" y="-517" font-family="Helvetica,sans-Serif" font-size="10.00"> dom</text>
</g>
<!-- Node7&#45;&gt;Node10 -->
<g id="edge23" class="edge">
<title>Node7&#45;&gt;Node10</title>
<path fill="none" stroke="#9a32cd" stroke-dasharray="5,2" d="M837.67,-457.37C817.88,-448.54 792.35,-436.23 771,-423 749.53,-409.69 726.74,-391.02 713.61,-379.76"/>
<polygon fill="#9a32cd" stroke="#9a32cd" points="836.32,-460.6 846.88,-461.42 839.13,-454.19 836.32,-460.6"/>
<text text-anchor="middle" x="790.5" y="-446" font-family="Helvetica,sans-Serif" font-size="10.00"> zone</text>
</g>
<!-- Node7&#45;&gt;Node13 -->
<g id="edge29" class="edge">
<title>Node7&#45;&gt;Node13</title>
<path fill="none" stroke="#9a32cd" stroke-dasharray="5,2" d="M889.48,-454.1C926.63,-418.19 1012.44,-335.24 1041.87,-306.79"/>
<polygon fill="#9a32cd" stroke="#9a32cd" points="886.69,-451.93 881.93,-461.4 891.56,-456.96 886.69,-451.93"/>
<text text-anchor="middle" x="958" y="-412" font-family="Helvetica,sans-Serif" font-size="10.00"> domains</text>
</g>
<!-- Node8&#45;&gt;Node7 -->
<g id="edge12" class="edge">
<title>Node8&#45;&gt;Node7</title>
<path fill="none" stroke="#9a32cd" stroke-dasharray="5,2" d="M264.54,-635.03C324.17,-620.23 428.99,-594.36 519,-573 648.95,-542.16 684.34,-543.26 810,-498 823.97,-492.97 839.22,-486.08 850.86,-480.53"/>
<polygon fill="#9a32cd" stroke="#9a32cd" points="263.52,-631.68 254.66,-637.49 265.21,-638.47 263.52,-631.68"/>
<text text-anchor="middle" x="575.5" y="-587" font-family="Helvetica,sans-Serif" font-size="10.00"> nbr_coefs</text>
<text text-anchor="middle" x="575.5" y="-576" font-family="Helvetica,sans-Serif" font-size="10.00">nbr_points</text>
</g>
<!-- Node8&#45;&gt;Node14 -->
<g id="edge32" class="edge">
<title>Node8&#45;&gt;Node14</title>
<path fill="none" stroke="#9a32cd" stroke-dasharray="5,2" d="M254.5,-659.89C299.22,-675.07 372.43,-699.9 412.36,-713.45"/>
<polygon fill="#9a32cd" stroke="#9a32cd" points="255.46,-656.52 244.87,-656.63 253.21,-663.15 255.46,-656.52"/>
<text text-anchor="middle" x="324" y="-699" font-family="Helvetica,sans-Serif" font-size="10.00"> sizes</text>
</g>
<!-- Node9&#45;&gt;Node4 -->
<g id="edge36" class="edge">
<title>Node9&#45;&gt;Node4</title>
<path fill="none" stroke="#9a32cd" stroke-dasharray="5,2" d="M511.34,-511.37C513.92,-511.61 516.48,-511.82 519,-512 622.74,-519.42 649.1,-514.63 753,-510 832.69,-506.45 852.29,-499.89 932,-497 1186.3,-487.78 1249.54,-522 1504,-522 1504,-522 1504,-522 1727.5,-522 1774.87,-522 1828.3,-516.6 1867.86,-511.56"/>
<polygon fill="#9a32cd" stroke="#9a32cd" points="511.61,-507.88 501.3,-510.32 510.88,-514.84 511.61,-507.88"/>
<text text-anchor="middle" x="1272.5" y="-518" font-family="Helvetica,sans-Serif" font-size="10.00"> val_cst_hard</text>
</g>
<!-- Node9&#45;&gt;Node7 -->
<g id="edge14" class="edge">
<title>Node9&#45;&gt;Node7</title>
<path fill="none" stroke="#9a32cd" stroke-dasharray="5,2" d="M511.42,-500.42C585.46,-499.1 706.47,-494.94 810,-482 815.99,-481.25 822.29,-480.29 828.46,-479.25"/>
<polygon fill="#9a32cd" stroke="#9a32cd" points="511.23,-496.92 501.29,-500.59 511.34,-503.92 511.23,-496.92"/>
<text text-anchor="middle" x="701.5" y="-498" font-family="Helvetica,sans-Serif" font-size="10.00"> coloc</text>
</g>
<!-- Node9&#45;&gt;Node10 -->
<g id="edge18" class="edge">
<title>Node9&#45;&gt;Node10</title>
<path fill="none" stroke="#9a32cd" stroke-dasharray="5,2" d="M477.1,-487.55C515.76,-472.06 579.76,-444.98 632,-416 652.04,-404.88 673.79,-389.69 687.28,-379.86"/>
<polygon fill="#9a32cd" stroke="#9a32cd" points="475.37,-484.47 467.37,-491.42 477.96,-490.98 475.37,-484.47"/>
<text text-anchor="middle" x="575.5" y="-483" font-family="Helvetica,sans-Serif" font-size="10.00"> c</text>
<text text-anchor="middle" x="575.5" y="-472" font-family="Helvetica,sans-Serif" font-size="10.00">cf</text>
</g>
<!-- Node10&#45;&gt;Node7 -->
<g id="edge16" class="edge">
<title>Node10&#45;&gt;Node7</title>
<path fill="none" stroke="#9a32cd" stroke-dasharray="5,2" d="M763.62,-365.73C779.61,-367.04 796.22,-370.77 810,-379 842.09,-398.16 860.21,-441.91 866.95,-461.36"/>
<polygon fill="#9a32cd" stroke="#9a32cd" points="763.4,-362.21 753.23,-365.18 763.03,-369.2 763.4,-362.21"/>
<text text-anchor="middle" x="790.5" y="-415" font-family="Helvetica,sans-Serif" font-size="10.00"> absol</text>
<text text-anchor="middle" x="790.5" y="-404" font-family="Helvetica,sans-Serif" font-size="10.00">cart</text>
<text text-anchor="middle" x="790.5" y="-393" font-family="Helvetica,sans-Serif" font-size="10.00">cart_surr</text>
<text text-anchor="middle" x="790.5" y="-382" font-family="Helvetica,sans-Serif" font-size="10.00">radius</text>
</g>
<!-- Node10&#45;&gt;Node10 -->
<g id="edge19" class="edge">
<title>Node10&#45;&gt;Node10</title>
<path fill="none" stroke="#9a32cd" stroke-dasharray="5,2" d="M685.2,-389.4C686.29,-394.31 691.72,-398 701.5,-398 717.14,-398 721.66,-388.57 715.06,-379.76"/>
<polygon fill="#9a32cd" stroke="#9a32cd" points="688.58,-390.33 687.94,-379.76 681.84,-388.42 688.58,-390.33"/>
<text text-anchor="middle" x="701.5" y="-412" font-family="Helvetica,sans-Serif" font-size="10.00"> p_der_abs</text>
<text text-anchor="middle" x="701.5" y="-401" font-family="Helvetica,sans-Serif" font-size="10.00">p_der_var</text>
</g>
<!-- Node18 -->
<g id="node18" class="node">
<title>Node18</title>
<g id="a_node18"><a xlink:href="classKadath_1_1Scalar.html" target="_top" xlink:title=" ">
<polygon fill="none" stroke="black" points="1545,-225.5 1545,-244.5 1625,-244.5 1625,-225.5 1545,-225.5"/>
<text text-anchor="middle" x="1585" y="-232.5" font-family="Helvetica,sans-Serif" font-size="10.00">Kadath::Scalar</text>
</a>
</g>
</g>
<!-- Node10&#45;&gt;Node18 -->
<g id="edge44" class="edge">
<title>Node10&#45;&gt;Node18</title>
<path fill="none" stroke="#9a32cd" stroke-dasharray="5,2" d="M763.51,-362.44C842.27,-352.53 983.54,-334.26 1104,-316 1268.19,-291.11 1463.13,-256.71 1544.87,-242.06"/>
<polygon fill="#9a32cd" stroke="#9a32cd" points="762.77,-359.01 753.28,-363.72 763.64,-365.95 762.77,-359.01"/>
<text text-anchor="middle" x="1161.5" y="-316" font-family="Helvetica,sans-Serif" font-size="10.00"> val_zones</text>
</g>
<!-- Node11&#45;&gt;Node10 -->
<g id="edge20" class="edge">
<title>Node11&#45;&gt;Node10</title>
<path fill="none" stroke="#9a32cd" stroke-dasharray="5,2" d="M508.83,-365.54C552.83,-366.57 609.67,-367.89 650,-368.83"/>
<polygon fill="#9a32cd" stroke="#9a32cd" points="508.88,-362.04 498.8,-365.31 508.72,-369.04 508.88,-362.04"/>
<text text-anchor="middle" x="575.5" y="-371" font-family="Helvetica,sans-Serif" font-size="10.00"> base</text>
</g>
<!-- Node12&#45;&gt;Node4 -->
<g id="edge24" class="edge">
<title>Node12&#45;&gt;Node4</title>
<path fill="none" stroke="#9a32cd" stroke-dasharray="5,2" d="M1103.03,-623.17C1147.1,-620.87 1213.61,-618 1271.5,-618 1271.5,-618 1271.5,-618 1727.5,-618 1811.3,-618 1891.52,-540.62 1917.65,-512.8"/>
<polygon fill="#9a32cd" stroke="#9a32cd" points="1102.68,-619.68 1092.88,-623.71 1103.05,-626.67 1102.68,-619.68"/>
<text text-anchor="middle" x="1505" y="-621" font-family="Helvetica,sans-Serif" font-size="10.00"> eq_int</text>
</g>
<!-- Node13&#45;&gt;Node4 -->
<g id="edge27" class="edge">
<title>Node13&#45;&gt;Node4</title>
<path fill="none" stroke="#9a32cd" stroke-dasharray="5,2" d="M1075.59,-312.65C1113.33,-338.43 1194.65,-387 1271.5,-387 1271.5,-387 1271.5,-387 1586,-387 1641.04,-387 1813.84,-425.82 1850,-443 1877.14,-455.89 1903.52,-479.87 1917.08,-493.28"/>
<polygon fill="#9a32cd" stroke="#9a32cd" points="1077.16,-309.48 1066.96,-306.63 1073.16,-315.22 1077.16,-309.48"/>
<text text-anchor="middle" x="1505" y="-390" font-family="Helvetica,sans-Serif" font-size="10.00"> espace</text>
</g>
<!-- Node13&#45;&gt;Node17 -->
<g id="edge41" class="edge">
<title>Node13&#45;&gt;Node17</title>
<path fill="none" stroke="#9a32cd" stroke-dasharray="5,2" d="M1103.23,-287.41C1166.86,-273.93 1280.15,-246.2 1370,-204 1387.13,-195.95 1404.92,-183.23 1416.21,-174.52"/>
<polygon fill="#9a32cd" stroke="#9a32cd" points="1102.15,-284.06 1093.07,-289.53 1103.58,-290.91 1102.15,-284.06"/>
<text text-anchor="middle" x="1272.5" y="-261" font-family="Helvetica,sans-Serif" font-size="10.00"> espace</text>
</g>
<!-- Node13&#45;&gt;Node19 -->
<g id="edge48" class="edge">
<title>Node13&#45;&gt;Node19</title>
<path fill="none" stroke="#9a32cd" stroke-dasharray="5,2" d="M1067.25,-279.39C1079.95,-263.4 1100.35,-239.95 1122,-224 1160.85,-195.38 1212.86,-173.39 1244.18,-161.6"/>
<polygon fill="#9a32cd" stroke="#9a32cd" points="1064.39,-277.36 1061.02,-287.41 1069.92,-281.66 1064.39,-277.36"/>
<text text-anchor="middle" x="1161.5" y="-227" font-family="Helvetica,sans-Serif" font-size="10.00"> space</text>
</g>
<!-- Node13&#45;&gt;Node21 -->
<g id="edge54" class="edge">
<title>Node13&#45;&gt;Node21</title>
<path fill="none" stroke="#9a32cd" stroke-dasharray="5,2" d="M1103.36,-304.67C1163.05,-313.26 1266.62,-326 1356,-326 1356,-326 1356,-326 1586,-326 1635.17,-326 1634.48,-283.65 1682,-271 1720.22,-260.83 1733.02,-259.95 1771,-271 1904.52,-309.84 2035.5,-425.1 2072.31,-459.32"/>
<polygon fill="#9a32cd" stroke="#9a32cd" points="1103.86,-301.2 1093.46,-303.22 1102.85,-308.13 1103.86,-301.2"/>
<text text-anchor="middle" x="1585" y="-329" font-family="Helvetica,sans-Serif" font-size="10.00"> espace</text>
</g>
<!-- Node14&#45;&gt;Node4 -->
<g id="edge30" class="edge">
<title>Node14&#45;&gt;Node4</title>
<path fill="none" stroke="#9a32cd" stroke-dasharray="5,2" d="M489.25,-731.44C540.8,-740 626.28,-752 700.5,-752 700.5,-752 700.5,-752 1054,-752 1188.22,-752 1221.78,-751 1356,-751 1356,-751 1356,-751 1727.5,-751 1851.98,-751 1911.57,-558.57 1924,-512.72"/>
<polygon fill="#9a32cd" stroke="#9a32cd" points="489.54,-727.94 479.1,-729.73 488.38,-734.84 489.54,-727.94"/>
<text text-anchor="middle" x="1272.5" y="-754" font-family="Helvetica,sans-Serif" font-size="10.00"> which_coef</text>
</g>
<!-- Node15&#45;&gt;Node4 -->
<g id="edge34" class="edge">
<title>Node15&#45;&gt;Node4</title>
<path fill="none" stroke="#9a32cd" stroke-dasharray="5,2" d="M374.59,-785.21C424.93,-787.26 505.12,-790 574.5,-790 574.5,-790 574.5,-790 1727.5,-790 1740.94,-790 1829.23,-744.07 1850,-719 1904.57,-653.14 1921.44,-545.55 1925.44,-512.78"/>
<polygon fill="#9a32cd" stroke="#9a32cd" points="374.45,-781.7 364.31,-784.78 374.16,-788.7 374.45,-781.7"/>
<text text-anchor="middle" x="1161.5" y="-804" font-family="Helvetica,sans-Serif" font-size="10.00"> paruser</text>
<text text-anchor="middle" x="1161.5" y="-793" font-family="Helvetica,sans-Serif" font-size="10.00">paruser_bin</text>
</g>
<!-- Node16&#45;&gt;Node4 -->
<g id="edge37" class="edge">
<title>Node16&#45;&gt;Node4</title>
<path fill="none" stroke="#9a32cd" stroke-dasharray="5,2" d="M1608.43,-183.42C1656.73,-217.39 1772.49,-302.92 1850,-394 1879.22,-428.33 1908.31,-473.61 1920.52,-493.23"/>
<polygon fill="#9a32cd" stroke="#9a32cd" points="1610.16,-180.36 1599.96,-177.51 1606.15,-186.1 1610.16,-180.36"/>
<text text-anchor="middle" x="1726.5" y="-379" font-family="Helvetica,sans-Serif" font-size="10.00"> cst</text>
<text text-anchor="middle" x="1726.5" y="-368" font-family="Helvetica,sans-Serif" font-size="10.00">cst_hard</text>
<text text-anchor="middle" x="1726.5" y="-357" font-family="Helvetica,sans-Serif" font-size="10.00">opeuser</text>
<text text-anchor="middle" x="1726.5" y="-346" font-family="Helvetica,sans-Serif" font-size="10.00">opeuser_bin</text>
<text text-anchor="middle" x="1726.5" y="-335" font-family="Helvetica,sans-Serif" font-size="10.00">results</text>
<text text-anchor="middle" x="1726.5" y="-324" font-family="Helvetica,sans-Serif" font-size="10.00">term</text>
<text text-anchor="middle" x="1726.5" y="-313" font-family="Helvetica,sans-Serif" font-size="10.00">term_double</text>
</g>
<!-- Node16&#45;&gt;Node21 -->
<g id="edge56" class="edge">
<title>Node16&#45;&gt;Node21</title>
<path fill="none" stroke="#9a32cd" stroke-dasharray="5,2" d="M1640.26,-159.78C1735.74,-148.78 1932.53,-142.31 2026,-257 2077.74,-320.48 2082.42,-426.87 2082.6,-459.31"/>
<polygon fill="#9a32cd" stroke="#9a32cd" points="1639.74,-156.32 1630.23,-160.99 1640.58,-163.27 1639.74,-156.32"/>
<text text-anchor="middle" x="1819.5" y="-244" font-family="Helvetica,sans-Serif" font-size="10.00"> p_christo</text>
<text text-anchor="middle" x="1819.5" y="-233" font-family="Helvetica,sans-Serif" font-size="10.00">p_det_cov</text>
<text text-anchor="middle" x="1819.5" y="-222" font-family="Helvetica,sans-Serif" font-size="10.00">p_dirac</text>
<text text-anchor="middle" x="1819.5" y="-211" font-family="Helvetica,sans-Serif" font-size="10.00">p_met_con</text>
<text text-anchor="middle" x="1819.5" y="-200" font-family="Helvetica,sans-Serif" font-size="10.00">p_met_cov</text>
<text text-anchor="middle" x="1819.5" y="-189" font-family="Helvetica,sans-Serif" font-size="10.00">p_ricci_scalar</text>
<text text-anchor="middle" x="1819.5" y="-178" font-family="Helvetica,sans-Serif" font-size="10.00">p_ricci_tensor</text>
<text text-anchor="middle" x="1819.5" y="-167" font-family="Helvetica,sans-Serif" font-size="10.00">p_riemann</text>
</g>
<!-- Node16&#45;&gt;Node22 -->
<g id="edge60" class="edge">
<title>Node16&#45;&gt;Node22</title>
<path fill="none" stroke="#9a32cd" stroke-dasharray="5,2" d="M1605.5,-184.49C1614.33,-193 1624.09,-204.1 1630,-216 1649.89,-256.05 1633.98,-272.53 1648,-315 1658.72,-347.46 1664.58,-354.59 1682,-384 1693.39,-403.23 1708.84,-424.26 1717.93,-436.22"/>
<polygon fill="#9a32cd" stroke="#9a32cd" points="1607.84,-181.88 1598.1,-177.71 1603.11,-187.04 1607.84,-181.88"/>
<text text-anchor="middle" x="1656" y="-355" font-family="Helvetica,sans-Serif" font-size="10.00"> res</text>
</g>
<!-- Node17&#45;&gt;Node4 -->
<g id="edge57" class="edge">
<title>Node17&#45;&gt;Node4</title>
<path fill="none" stroke="#9a32cd" stroke-dasharray="5,2" d="M1461.63,-151.5C1538.47,-121.06 1736.98,-56.9 1850,-153 1904.14,-199.03 1922.58,-441.73 1925.92,-493.34"/>
<polygon fill="#9a32cd" stroke="#9a32cd" points="1459.99,-148.39 1452.03,-155.38 1462.61,-154.88 1459.99,-148.39"/>
<text text-anchor="middle" x="1656" y="-108" font-family="Helvetica,sans-Serif" font-size="10.00"> var</text>
</g>
<!-- Node17&#45;&gt;Node16 -->
<g id="edge39" class="edge">
<title>Node17&#45;&gt;Node16</title>
<path fill="none" stroke="#9a32cd" stroke-dasharray="5,2" d="M1480.39,-165.35C1493.91,-165.5 1508.51,-165.71 1522,-166 1527.81,-166.13 1533.93,-166.29 1539.97,-166.46"/>
<polygon fill="#9a32cd" stroke="#9a32cd" points="1480.34,-161.85 1470.31,-165.25 1480.27,-168.85 1480.34,-161.85"/>
<text text-anchor="middle" x="1505" y="-180" font-family="Helvetica,sans-Serif" font-size="10.00"> der_t</text>
<text text-anchor="middle" x="1505" y="-169" font-family="Helvetica,sans-Serif" font-size="10.00">val_t</text>
</g>
<!-- Node17&#45;&gt;Node18 -->
<g id="edge43" class="edge">
<title>Node17&#45;&gt;Node18</title>
<path fill="none" stroke="midnightblue" d="M1460.31,-178.78C1490.51,-192.5 1536.09,-213.22 1562.67,-225.3"/>
<polygon fill="midnightblue" stroke="midnightblue" points="1461.64,-175.54 1451.09,-174.59 1458.75,-181.91 1461.64,-175.54"/>
</g>
<!-- Node18&#45;&gt;Node17 -->
<g id="edge42" class="edge">
<title>Node18&#45;&gt;Node17</title>
<path fill="none" stroke="#9a32cd" stroke-dasharray="5,2" d="M1534.81,-228.3C1519.31,-225 1502.47,-220.14 1488,-213 1468.31,-203.28 1449.48,-185.65 1438.87,-174.67"/>
<polygon fill="#9a32cd" stroke="#9a32cd" points="1534.28,-231.76 1544.76,-230.25 1535.62,-224.89 1534.28,-231.76"/>
<text text-anchor="middle" x="1505" y="-227" font-family="Helvetica,sans-Serif" font-size="10.00"> cmp</text>
</g>
<!-- Node19&#45;&gt;Node17 -->
<g id="edge46" class="edge">
<title>Node19&#45;&gt;Node17</title>
<path fill="none" stroke="#9a32cd" stroke-dasharray="5,2" d="M1336.31,-157.28C1353.65,-158.74 1372,-160.29 1387.69,-161.61"/>
<polygon fill="#9a32cd" stroke="#9a32cd" points="1336.5,-153.79 1326.24,-156.44 1335.91,-160.76 1336.5,-153.79"/>
<text text-anchor="middle" x="1357" y="-164" font-family="Helvetica,sans-Serif" font-size="10.00"> basis</text>
</g>
<!-- Node20&#45;&gt;Node17 -->
<g id="edge50" class="edge">
<title>Node20&#45;&gt;Node17</title>
<path fill="none" stroke="#9a32cd" stroke-dasharray="5,2" d="M618.02,-102.79C660.65,-91.35 729.12,-76 789.5,-76 789.5,-76 789.5,-76 1273.5,-76 1336.65,-76 1397.26,-132.52 1419.28,-155.48"/>
<polygon fill="#9a32cd" stroke="#9a32cd" points="617,-99.44 608.28,-105.46 618.85,-106.19 617,-99.44"/>
<text text-anchor="middle" x="958" y="-79" font-family="Helvetica,sans-Serif" font-size="10.00"> parameters</text>
</g>
<!-- Node21&#45;&gt;Node4 -->
<g id="edge52" class="edge">
<title>Node21&#45;&gt;Node4</title>
<path fill="none" stroke="#9a32cd" stroke-dasharray="5,2" d="M2034.14,-479.68C2014.18,-484.08 1991.21,-489.15 1971.81,-493.44"/>
<polygon fill="#9a32cd" stroke="#9a32cd" points="2034.97,-483.08 2043.98,-477.51 2033.46,-476.24 2034.97,-483.08"/>
<text text-anchor="middle" x="2015.5" y="-489" font-family="Helvetica,sans-Serif" font-size="10.00"> met</text>
</g>
<!-- Node22&#45;&gt;Node4 -->
<g id="edge58" class="edge">
<title>Node22&#45;&gt;Node4</title>
<path fill="none" stroke="#9a32cd" stroke-dasharray="5,2" d="M1781.28,-446.88C1803.04,-448.47 1828.14,-451.9 1850,-459 1874.19,-466.85 1899.18,-483.02 1913.75,-493.42"/>
<polygon fill="#9a32cd" stroke="#9a32cd" points="1781.41,-443.39 1771.21,-446.26 1780.98,-450.37 1781.41,-443.39"/>
<text text-anchor="middle" x="1819.5" y="-462" font-family="Helvetica,sans-Serif" font-size="10.00"> def</text>
</g>
</g>
</svg>
