<?xml version="1.0" encoding="UTF-8" standalone="no"?>
<!DOCTYPE svg PUBLIC "-//W3C//DTD SVG 1.1//EN"
 "http://www.w3.org/Graphics/SVG/1.1/DTD/svg11.dtd">
<!-- Generated by graphviz version 2.47.1 (20210515.0534)
 -->
<!-- Title: Kadath::Domain_critic_inner Pages: 1 -->
<svg width="452pt" height="356pt"
 viewBox="0.00 0.00 452.41 356.00" xmlns="http://www.w3.org/2000/svg" xmlns:xlink="http://www.w3.org/1999/xlink">
<g id="graph0" class="graph" transform="scale(1 1) rotate(0) translate(4 352)">
<title>Kadath::Domain_critic_inner</title>
<!-- Node1 -->
<g id="node1" class="node">
<title>Node1</title>
<g id="a_node1"><a xlink:title=" ">
<polygon fill="#bfbfbf" stroke="black" points="48.41,-0.5 48.41,-30.5 159.41,-30.5 159.41,-0.5 48.41,-0.5"/>
<text text-anchor="start" x="56.41" y="-18.5" font-family="Helvetica,sans-Serif" font-size="10.00">Kadath::Domain_critic</text>
<text text-anchor="middle" x="103.91" y="-7.5" font-family="Helvetica,sans-Serif" font-size="10.00">_inner</text>
</a>
</g>
</g>
<!-- Node2 -->
<g id="node2" class="node">
<title>Node2</title>
<g id="a_node2"><a xlink:href="classKadath_1_1Domain.html" target="_top" xlink:title=" ">
<polygon fill="none" stroke="black" points="61.41,-192.5 61.41,-211.5 146.41,-211.5 146.41,-192.5 61.41,-192.5"/>
<text text-anchor="middle" x="103.91" y="-199.5" font-family="Helvetica,sans-Serif" font-size="10.00">Kadath::Domain</text>
</a>
</g>
</g>
<!-- Node2&#45;&gt;Node1 -->
<g id="edge1" class="edge">
<title>Node2&#45;&gt;Node1</title>
<path fill="none" stroke="midnightblue" d="M102.37,-182C102.18,-178.99 102.02,-175.91 101.91,-173 100.04,-120.59 102.13,-58.25 103.27,-30.75"/>
<polygon fill="midnightblue" stroke="midnightblue" points="98.9,-182.46 103.12,-192.18 105.88,-181.95 98.9,-182.46"/>
</g>
<!-- Node6 -->
<g id="node6" class="node">
<title>Node6</title>
<g id="a_node6"><a xlink:href="classKadath_1_1Val__domain.html" target="_top" xlink:title=" ">
<polygon fill="none" stroke="black" points="142.41,-90.5 142.41,-109.5 245.41,-109.5 245.41,-90.5 142.41,-90.5"/>
<text text-anchor="middle" x="193.91" y="-97.5" font-family="Helvetica,sans-Serif" font-size="10.00">Kadath::Val_domain</text>
</a>
</g>
</g>
<!-- Node2&#45;&gt;Node6 -->
<g id="edge15" class="edge">
<title>Node2&#45;&gt;Node6</title>
<path fill="none" stroke="#9a32cd" stroke-dasharray="5,2" d="M102.76,-182.08C102.81,-166.15 105.43,-143.67 117.91,-129 125.66,-119.9 136.64,-113.75 147.85,-109.6"/>
<polygon fill="#9a32cd" stroke="#9a32cd" points="99.27,-182.43 103.07,-192.32 106.26,-182.22 99.27,-182.43"/>
<text text-anchor="middle" x="129.41" y="-148.5" font-family="Helvetica,sans-Serif" font-size="10.00"> zone</text>
</g>
<!-- Node3 -->
<g id="node3" class="node">
<title>Node3</title>
<g id="a_node3"><a xlink:href="structKadath_1_1MemoryMappable.html" target="_top" xlink:title=" ">
<polygon fill="none" stroke="black" points="190.91,-328.5 190.91,-347.5 318.91,-347.5 318.91,-328.5 190.91,-328.5"/>
<text text-anchor="middle" x="254.91" y="-335.5" font-family="Helvetica,sans-Serif" font-size="10.00">Kadath::MemoryMappable</text>
</a>
</g>
</g>
<!-- Node3&#45;&gt;Node2 -->
<g id="edge2" class="edge">
<title>Node3&#45;&gt;Node2</title>
<path fill="none" stroke="midnightblue" d="M180.54,-333.42C115.7,-328.55 28.71,-317.21 6.91,-291 -20.27,-258.31 44.01,-226.42 80.65,-211.61"/>
<polygon fill="midnightblue" stroke="midnightblue" points="180.52,-336.93 190.74,-334.14 181.01,-329.94 180.52,-336.93"/>
</g>
<!-- Node4 -->
<g id="node4" class="node">
<title>Node4</title>
<g id="a_node4"><a xlink:href="classKadath_1_1Dim__array.html" target="_top" xlink:title=" ">
<polygon fill="none" stroke="black" points="16.41,-271.5 16.41,-290.5 111.41,-290.5 111.41,-271.5 16.41,-271.5"/>
<text text-anchor="middle" x="63.91" y="-278.5" font-family="Helvetica,sans-Serif" font-size="10.00">Kadath::Dim_array</text>
</a>
</g>
</g>
<!-- Node3&#45;&gt;Node4 -->
<g id="edge4" class="edge">
<title>Node3&#45;&gt;Node4</title>
<path fill="none" stroke="midnightblue" d="M215.32,-325.6C179.08,-315.16 126.26,-299.95 93.55,-290.53"/>
<polygon fill="midnightblue" stroke="midnightblue" points="214.49,-329 225.07,-328.41 216.43,-322.28 214.49,-329"/>
</g>
<!-- Node5 -->
<g id="node5" class="node">
<title>Node5</title>
<g id="a_node5"><a xlink:href="classKadath_1_1Array.html" target="_top" xlink:title=" ">
<polygon fill="none" stroke="black" points="129.41,-271.5 129.41,-290.5 248.41,-290.5 248.41,-271.5 129.41,-271.5"/>
<text text-anchor="middle" x="188.91" y="-278.5" font-family="Helvetica,sans-Serif" font-size="10.00">Kadath::Array&lt; double &gt;</text>
</a>
</g>
</g>
<!-- Node3&#45;&gt;Node5 -->
<g id="edge6" class="edge">
<title>Node3&#45;&gt;Node5</title>
<path fill="none" stroke="midnightblue" d="M236.91,-322C224.87,-311.96 209.44,-299.1 199.37,-290.71"/>
<polygon fill="midnightblue" stroke="midnightblue" points="234.68,-324.69 244.6,-328.41 239.16,-319.32 234.68,-324.69"/>
</g>
<!-- Node3&#45;&gt;Node6 -->
<g id="edge8" class="edge">
<title>Node3&#45;&gt;Node6</title>
<path fill="none" stroke="midnightblue" d="M257.42,-318.22C258.78,-304.98 259.84,-286.85 257.91,-271 250.08,-206.47 255.34,-185.33 222.91,-129 218.58,-121.48 211.64,-114.67 205.64,-109.66"/>
<polygon fill="midnightblue" stroke="midnightblue" points="253.91,-318.08 256.21,-328.42 260.86,-318.9 253.91,-318.08"/>
</g>
<!-- Node7 -->
<g id="node7" class="node">
<title>Node7</title>
<g id="a_node7"><a xlink:href="classKadath_1_1Base__spectral.html" target="_top" xlink:title=" ">
<polygon fill="none" stroke="black" points="304.91,-192.5 304.91,-211.5 418.91,-211.5 418.91,-192.5 304.91,-192.5"/>
<text text-anchor="middle" x="361.91" y="-199.5" font-family="Helvetica,sans-Serif" font-size="10.00">Kadath::Base_spectral</text>
</a>
</g>
</g>
<!-- Node3&#45;&gt;Node7 -->
<g id="edge12" class="edge">
<title>Node3&#45;&gt;Node7</title>
<path fill="none" stroke="midnightblue" d="M276.58,-322.63C281.57,-318.82 286.65,-314.51 290.91,-310 321.37,-277.74 347.38,-230.98 357.45,-211.75"/>
<polygon fill="midnightblue" stroke="midnightblue" points="274.52,-319.8 268.45,-328.49 278.61,-325.48 274.52,-319.8"/>
</g>
<!-- Node8 -->
<g id="node8" class="node">
<title>Node8</title>
<g id="a_node8"><a xlink:href="classKadath_1_1Array.html" target="_top" xlink:title=" ">
<polygon fill="none" stroke="black" points="343.41,-271.5 343.41,-290.5 444.41,-290.5 444.41,-271.5 343.41,-271.5"/>
<text text-anchor="middle" x="393.91" y="-278.5" font-family="Helvetica,sans-Serif" font-size="10.00">Kadath::Array&lt; int &gt;</text>
</a>
</g>
</g>
<!-- Node3&#45;&gt;Node8 -->
<g id="edge14" class="edge">
<title>Node3&#45;&gt;Node8</title>
<path fill="none" stroke="midnightblue" d="M289.04,-325.01C301.63,-320.46 315.98,-315.14 328.91,-310 344.44,-303.83 361.82,-296.31 374.69,-290.62"/>
<polygon fill="midnightblue" stroke="midnightblue" points="287.61,-321.8 279.37,-328.47 289.97,-328.39 287.61,-321.8"/>
</g>
<!-- Node4&#45;&gt;Node2 -->
<g id="edge3" class="edge">
<title>Node4&#45;&gt;Node2</title>
<path fill="none" stroke="#9a32cd" stroke-dasharray="5,2" d="M73.15,-262.22C81.35,-246.44 92.98,-224.04 99.34,-211.81"/>
<polygon fill="#9a32cd" stroke="#9a32cd" points="69.85,-260.98 68.35,-271.47 76.06,-264.2 69.85,-260.98"/>
<text text-anchor="middle" x="111.91" y="-245" font-family="Helvetica,sans-Serif" font-size="10.00"> nbr_coefs</text>
<text text-anchor="middle" x="111.91" y="-234" font-family="Helvetica,sans-Serif" font-size="10.00">nbr_points</text>
</g>
<!-- Node5&#45;&gt;Node2 -->
<g id="edge5" class="edge">
<title>Node5&#45;&gt;Node2</title>
<path fill="none" stroke="#9a32cd" stroke-dasharray="5,2" d="M173.66,-264.26C163.95,-254.44 150.97,-241.68 138.91,-231 131.22,-224.19 122.16,-216.96 115.18,-211.55"/>
<polygon fill="#9a32cd" stroke="#9a32cd" points="171.17,-266.72 180.67,-271.41 176.17,-261.82 171.17,-266.72"/>
<text text-anchor="middle" x="174.91" y="-239.5" font-family="Helvetica,sans-Serif" font-size="10.00"> coloc</text>
</g>
<!-- Node5&#45;&gt;Node6 -->
<g id="edge9" class="edge">
<title>Node5&#45;&gt;Node6</title>
<path fill="none" stroke="#9a32cd" stroke-dasharray="5,2" d="M195.05,-261.55C203.69,-232.91 217.32,-176.11 206.91,-129 205.43,-122.3 202.18,-115.3 199.3,-109.98"/>
<polygon fill="#9a32cd" stroke="#9a32cd" points="191.61,-260.8 191.93,-271.39 198.29,-262.91 191.61,-260.8"/>
<text text-anchor="middle" x="214.41" y="-205" font-family="Helvetica,sans-Serif" font-size="10.00"> c</text>
<text text-anchor="middle" x="214.41" y="-194" font-family="Helvetica,sans-Serif" font-size="10.00">cf</text>
</g>
<!-- Node6&#45;&gt;Node1 -->
<g id="edge16" class="edge">
<title>Node6&#45;&gt;Node1</title>
<path fill="none" stroke="#9a32cd" stroke-dasharray="5,2" d="M176.8,-83.31C160.2,-68.1 135.26,-45.24 119.29,-30.59"/>
<polygon fill="#9a32cd" stroke="#9a32cd" points="174.88,-86.3 184.62,-90.48 179.61,-81.14 174.88,-86.3"/>
<text text-anchor="middle" x="172.41" y="-63" font-family="Helvetica,sans-Serif" font-size="10.00"> p_T</text>
<text text-anchor="middle" x="172.41" y="-52" font-family="Helvetica,sans-Serif" font-size="10.00">p_X</text>
</g>
<!-- Node6&#45;&gt;Node2 -->
<g id="edge7" class="edge">
<title>Node6&#45;&gt;Node2</title>
<path fill="none" stroke="#9a32cd" stroke-dasharray="5,2" d="M177.47,-117.25C174.11,-120.96 170.74,-124.99 167.91,-129 155.18,-147.02 159.57,-156.51 144.91,-173 137.93,-180.86 128.29,-187.59 120.11,-192.48"/>
<polygon fill="#9a32cd" stroke="#9a32cd" points="180.21,-119.45 184.59,-109.8 175.15,-114.61 180.21,-119.45"/>
<text text-anchor="middle" x="187.41" y="-165" font-family="Helvetica,sans-Serif" font-size="10.00"> absol</text>
<text text-anchor="middle" x="187.41" y="-154" font-family="Helvetica,sans-Serif" font-size="10.00">cart</text>
<text text-anchor="middle" x="187.41" y="-143" font-family="Helvetica,sans-Serif" font-size="10.00">cart_surr</text>
<text text-anchor="middle" x="187.41" y="-132" font-family="Helvetica,sans-Serif" font-size="10.00">radius</text>
</g>
<!-- Node6&#45;&gt;Node6 -->
<g id="edge10" class="edge">
<title>Node6&#45;&gt;Node6</title>
<path fill="none" stroke="#9a32cd" stroke-dasharray="5,2" d="M255.37,-105.74C260.33,-104.49 263.41,-102.58 263.41,-100 263.41,-95.98 255.91,-93.57 245.44,-92.79"/>
<polygon fill="#9a32cd" stroke="#9a32cd" points="254.81,-102.28 245.44,-107.21 255.84,-109.21 254.81,-102.28"/>
<text text-anchor="middle" x="287.41" y="-103" font-family="Helvetica,sans-Serif" font-size="10.00"> p_der_abs</text>
<text text-anchor="middle" x="287.41" y="-92" font-family="Helvetica,sans-Serif" font-size="10.00">p_der_var</text>
</g>
<!-- Node7&#45;&gt;Node6 -->
<g id="edge11" class="edge">
<title>Node7&#45;&gt;Node6</title>
<path fill="none" stroke="#9a32cd" stroke-dasharray="5,2" d="M349.3,-183.85C336.38,-167.48 314.84,-143.24 290.91,-129 275.85,-120.04 257.75,-113.8 241.29,-109.54"/>
<polygon fill="#9a32cd" stroke="#9a32cd" points="346.69,-186.21 355.55,-192.03 352.26,-181.96 346.69,-186.21"/>
<text text-anchor="middle" x="350.91" y="-148.5" font-family="Helvetica,sans-Serif" font-size="10.00"> base</text>
</g>
<!-- Node8&#45;&gt;Node7 -->
<g id="edge13" class="edge">
<title>Node8&#45;&gt;Node7</title>
<path fill="none" stroke="#9a32cd" stroke-dasharray="5,2" d="M386.52,-262.22C379.97,-246.44 370.66,-224.04 365.57,-211.81"/>
<polygon fill="#9a32cd" stroke="#9a32cd" points="383.3,-263.57 390.37,-271.47 389.76,-260.89 383.3,-263.57"/>
<text text-anchor="middle" x="404.41" y="-239.5" font-family="Helvetica,sans-Serif" font-size="10.00"> bases_1d</text>
</g>
</g>
</svg>
