<?xml version="1.0" encoding="UTF-8" standalone="no"?>
<!DOCTYPE svg PUBLIC "-//W3C//DTD SVG 1.1//EN"
 "http://www.w3.org/Graphics/SVG/1.1/DTD/svg11.dtd">
<!-- Generated by graphviz version 2.47.1 (20210515.0534)
 -->
<!-- Title: Kadath::Space_bin_fake Pages: 1 -->
<svg width="542pt" height="324pt"
 viewBox="0.00 0.00 541.50 324.00" xmlns="http://www.w3.org/2000/svg" xmlns:xlink="http://www.w3.org/1999/xlink">
<g id="graph0" class="graph" transform="scale(1 1) rotate(0) translate(4 320)">
<title>Kadath::Space_bin_fake</title>
<!-- Node1 -->
<g id="node1" class="node">
<title>Node1</title>
<g id="a_node1"><a xlink:title=" ">
<polygon fill="#bfbfbf" stroke="black" points="0,-0.5 0,-19.5 122,-19.5 122,-0.5 0,-0.5"/>
<text text-anchor="middle" x="61" y="-7.5" font-family="Helvetica,sans-Serif" font-size="10.00">Kadath::Space_bin_fake</text>
</a>
</g>
</g>
<!-- Node2 -->
<g id="node2" class="node">
<title>Node2</title>
<g id="a_node2"><a xlink:href="classKadath_1_1Space.html" target="_top" xlink:title=" ">
<polygon fill="none" stroke="black" points="21,-58.5 21,-77.5 101,-77.5 101,-58.5 21,-58.5"/>
<text text-anchor="middle" x="61" y="-65.5" font-family="Helvetica,sans-Serif" font-size="10.00">Kadath::Space</text>
</a>
</g>
</g>
<!-- Node2&#45;&gt;Node1 -->
<g id="edge1" class="edge">
<title>Node2&#45;&gt;Node1</title>
<path fill="none" stroke="midnightblue" d="M61,-47.95C61,-38.29 61,-27.03 61,-19.51"/>
<polygon fill="midnightblue" stroke="midnightblue" points="57.5,-48.25 61,-58.25 64.5,-48.25 57.5,-48.25"/>
</g>
<!-- Node3 -->
<g id="node3" class="node">
<title>Node3</title>
<g id="a_node3"><a xlink:href="structKadath_1_1MemoryMappable.html" target="_top" xlink:title=" ">
<polygon fill="none" stroke="black" points="214,-296.5 214,-315.5 342,-315.5 342,-296.5 214,-296.5"/>
<text text-anchor="middle" x="278" y="-303.5" font-family="Helvetica,sans-Serif" font-size="10.00">Kadath::MemoryMappable</text>
</a>
</g>
</g>
<!-- Node3&#45;&gt;Node2 -->
<g id="edge2" class="edge">
<title>Node3&#45;&gt;Node2</title>
<path fill="none" stroke="midnightblue" d="M203.67,-296.96C156.2,-290.06 101.02,-278.14 87,-259 44.7,-201.25 55.11,-106.49 59.53,-77.62"/>
<polygon fill="midnightblue" stroke="midnightblue" points="203.27,-300.44 213.66,-298.35 204.24,-293.5 203.27,-300.44"/>
</g>
<!-- Node4 -->
<g id="node4" class="node">
<title>Node4</title>
<g id="a_node4"><a xlink:href="classKadath_1_1Domain.html" target="_top" xlink:title=" ">
<polygon fill="none" stroke="black" points="115.5,-160.5 115.5,-179.5 200.5,-179.5 200.5,-160.5 115.5,-160.5"/>
<text text-anchor="middle" x="158" y="-167.5" font-family="Helvetica,sans-Serif" font-size="10.00">Kadath::Domain</text>
</a>
</g>
</g>
<!-- Node3&#45;&gt;Node4 -->
<g id="edge4" class="edge">
<title>Node3&#45;&gt;Node4</title>
<path fill="none" stroke="midnightblue" d="M203.78,-295.56C159.59,-288.25 109.54,-276.39 96,-259 74.07,-230.84 119.38,-195.71 143.8,-179.69"/>
<polygon fill="midnightblue" stroke="midnightblue" points="203.26,-299.02 213.69,-297.14 204.37,-292.11 203.26,-299.02"/>
</g>
<!-- Node5 -->
<g id="node5" class="node">
<title>Node5</title>
<g id="a_node5"><a xlink:href="classKadath_1_1Dim__array.html" target="_top" xlink:title=" ">
<polygon fill="none" stroke="black" points="105.5,-239.5 105.5,-258.5 200.5,-258.5 200.5,-239.5 105.5,-239.5"/>
<text text-anchor="middle" x="153" y="-246.5" font-family="Helvetica,sans-Serif" font-size="10.00">Kadath::Dim_array</text>
</a>
</g>
</g>
<!-- Node3&#45;&gt;Node5 -->
<g id="edge6" class="edge">
<title>Node3&#45;&gt;Node5</title>
<path fill="none" stroke="midnightblue" d="M249.3,-292.37C225.73,-282 192.98,-267.59 172.39,-258.53"/>
<polygon fill="midnightblue" stroke="midnightblue" points="247.91,-295.58 258.47,-296.41 250.73,-289.18 247.91,-295.58"/>
</g>
<!-- Node6 -->
<g id="node6" class="node">
<title>Node6</title>
<g id="a_node6"><a xlink:href="classKadath_1_1Array.html" target="_top" xlink:title=" ">
<polygon fill="none" stroke="black" points="218.5,-239.5 218.5,-258.5 337.5,-258.5 337.5,-239.5 218.5,-239.5"/>
<text text-anchor="middle" x="278" y="-246.5" font-family="Helvetica,sans-Serif" font-size="10.00">Kadath::Array&lt; double &gt;</text>
</a>
</g>
</g>
<!-- Node3&#45;&gt;Node6 -->
<g id="edge8" class="edge">
<title>Node3&#45;&gt;Node6</title>
<path fill="none" stroke="midnightblue" d="M278,-286.12C278,-276.82 278,-266.06 278,-258.71"/>
<polygon fill="midnightblue" stroke="midnightblue" points="274.5,-286.41 278,-296.41 281.5,-286.41 274.5,-286.41"/>
</g>
<!-- Node7 -->
<g id="node7" class="node">
<title>Node7</title>
<g id="a_node7"><a xlink:href="classKadath_1_1Val__domain.html" target="_top" xlink:title=" ">
<polygon fill="none" stroke="black" points="226.5,-58.5 226.5,-77.5 329.5,-77.5 329.5,-58.5 226.5,-58.5"/>
<text text-anchor="middle" x="278" y="-65.5" font-family="Helvetica,sans-Serif" font-size="10.00">Kadath::Val_domain</text>
</a>
</g>
</g>
<!-- Node3&#45;&gt;Node7 -->
<g id="edge10" class="edge">
<title>Node3&#45;&gt;Node7</title>
<path fill="none" stroke="midnightblue" d="M310.49,-291.87C324.37,-284.43 339.16,-273.65 347,-259 351.19,-251.16 348.63,-247.74 347,-239 334.83,-173.87 296.88,-102.35 283.08,-77.82"/>
<polygon fill="midnightblue" stroke="midnightblue" points="308.55,-288.92 301.12,-296.48 311.64,-295.2 308.55,-288.92"/>
</g>
<!-- Node8 -->
<g id="node8" class="node">
<title>Node8</title>
<g id="a_node8"><a xlink:href="classKadath_1_1Base__spectral.html" target="_top" xlink:title=" ">
<polygon fill="none" stroke="black" points="394,-160.5 394,-179.5 508,-179.5 508,-160.5 394,-160.5"/>
<text text-anchor="middle" x="451" y="-167.5" font-family="Helvetica,sans-Serif" font-size="10.00">Kadath::Base_spectral</text>
</a>
</g>
</g>
<!-- Node3&#45;&gt;Node8 -->
<g id="edge14" class="edge">
<title>Node3&#45;&gt;Node8</title>
<path fill="none" stroke="midnightblue" d="M348.91,-293.43C359.94,-289.65 370.73,-284.64 380,-278 416.6,-251.77 439.65,-200.31 447.74,-179.77"/>
<polygon fill="midnightblue" stroke="midnightblue" points="347.7,-290.14 339.19,-296.44 349.77,-296.83 347.7,-290.14"/>
</g>
<!-- Node9 -->
<g id="node9" class="node">
<title>Node9</title>
<g id="a_node9"><a xlink:href="classKadath_1_1Array.html" target="_top" xlink:title=" ">
<polygon fill="none" stroke="black" points="432.5,-239.5 432.5,-258.5 533.5,-258.5 533.5,-239.5 432.5,-239.5"/>
<text text-anchor="middle" x="483" y="-246.5" font-family="Helvetica,sans-Serif" font-size="10.00">Kadath::Array&lt; int &gt;</text>
</a>
</g>
</g>
<!-- Node3&#45;&gt;Node9 -->
<g id="edge16" class="edge">
<title>Node3&#45;&gt;Node9</title>
<path fill="none" stroke="midnightblue" d="M347.22,-294.71C370.02,-290.52 395.33,-284.98 418,-278 434.79,-272.83 453.11,-264.7 466,-258.53"/>
<polygon fill="midnightblue" stroke="midnightblue" points="346.5,-291.28 337.28,-296.49 347.73,-298.18 346.5,-291.28"/>
</g>
<!-- Node4&#45;&gt;Node2 -->
<g id="edge3" class="edge">
<title>Node4&#45;&gt;Node2</title>
<path fill="none" stroke="#9a32cd" stroke-dasharray="5,2" d="M120.83,-156.3C112.65,-152.31 104.5,-147.26 98,-141 78.97,-122.68 67.93,-92.44 63.42,-77.66"/>
<polygon fill="#9a32cd" stroke="#9a32cd" points="119.43,-159.51 129.99,-160.38 122.28,-153.12 119.43,-159.51"/>
<text text-anchor="middle" x="118" y="-116.5" font-family="Helvetica,sans-Serif" font-size="10.00"> domains</text>
</g>
<!-- Node4&#45;&gt;Node7 -->
<g id="edge17" class="edge">
<title>Node4&#45;&gt;Node7</title>
<path fill="none" stroke="#9a32cd" stroke-dasharray="5,2" d="M152.83,-150.54C149.57,-134.59 147.95,-111.82 160,-97 168.6,-86.42 198.7,-79.38 226.34,-75.01"/>
<polygon fill="#9a32cd" stroke="#9a32cd" points="149.45,-151.43 155.21,-160.32 156.25,-149.78 149.45,-151.43"/>
<text text-anchor="middle" x="171.5" y="-116.5" font-family="Helvetica,sans-Serif" font-size="10.00"> zone</text>
</g>
<!-- Node5&#45;&gt;Node4 -->
<g id="edge5" class="edge">
<title>Node5&#45;&gt;Node4</title>
<path fill="none" stroke="#9a32cd" stroke-dasharray="5,2" d="M154.21,-229.31C155.23,-213.59 156.65,-191.81 157.43,-179.81"/>
<polygon fill="#9a32cd" stroke="#9a32cd" points="150.71,-229.26 153.55,-239.47 157.69,-229.71 150.71,-229.26"/>
<text text-anchor="middle" x="180" y="-213" font-family="Helvetica,sans-Serif" font-size="10.00"> nbr_coefs</text>
<text text-anchor="middle" x="180" y="-202" font-family="Helvetica,sans-Serif" font-size="10.00">nbr_points</text>
</g>
<!-- Node6&#45;&gt;Node4 -->
<g id="edge7" class="edge">
<title>Node6&#45;&gt;Node4</title>
<path fill="none" stroke="#9a32cd" stroke-dasharray="5,2" d="M256.63,-233.71C250.58,-229.63 244.02,-225.17 238,-221 224.11,-211.38 221.24,-208.09 207,-199 196.26,-192.15 183.8,-185.03 174.12,-179.69"/>
<polygon fill="#9a32cd" stroke="#9a32cd" points="254.73,-236.65 264.98,-239.32 258.63,-230.84 254.73,-236.65"/>
<text text-anchor="middle" x="251" y="-207.5" font-family="Helvetica,sans-Serif" font-size="10.00"> coloc</text>
</g>
<!-- Node6&#45;&gt;Node7 -->
<g id="edge11" class="edge">
<title>Node6&#45;&gt;Node7</title>
<path fill="none" stroke="#9a32cd" stroke-dasharray="5,2" d="M278,-229.09C278,-190.68 278,-104.89 278,-77.55"/>
<polygon fill="#9a32cd" stroke="#9a32cd" points="274.5,-229.37 278,-239.37 281.5,-229.37 274.5,-229.37"/>
<text text-anchor="middle" x="282.5" y="-173" font-family="Helvetica,sans-Serif" font-size="10.00"> c</text>
<text text-anchor="middle" x="282.5" y="-162" font-family="Helvetica,sans-Serif" font-size="10.00">cf</text>
</g>
<!-- Node7&#45;&gt;Node4 -->
<g id="edge9" class="edge">
<title>Node7&#45;&gt;Node4</title>
<path fill="none" stroke="#9a32cd" stroke-dasharray="5,2" d="M248.46,-82.13C240.47,-86.33 232.08,-91.36 225,-97 204.78,-113.09 204.76,-122.23 187,-141 180.65,-147.71 173.14,-154.95 167.35,-160.38"/>
<polygon fill="#9a32cd" stroke="#9a32cd" points="250.15,-85.19 257.55,-77.61 247.04,-78.93 250.15,-85.19"/>
<text text-anchor="middle" x="244.5" y="-133" font-family="Helvetica,sans-Serif" font-size="10.00"> absol</text>
<text text-anchor="middle" x="244.5" y="-122" font-family="Helvetica,sans-Serif" font-size="10.00">cart</text>
<text text-anchor="middle" x="244.5" y="-111" font-family="Helvetica,sans-Serif" font-size="10.00">cart_surr</text>
<text text-anchor="middle" x="244.5" y="-100" font-family="Helvetica,sans-Serif" font-size="10.00">radius</text>
</g>
<!-- Node7&#45;&gt;Node7 -->
<g id="edge12" class="edge">
<title>Node7&#45;&gt;Node7</title>
<path fill="none" stroke="#9a32cd" stroke-dasharray="5,2" d="M339.82,-71.95C344.57,-71.08 347.5,-69.76 347.5,-68 347.5,-65.18 340,-63.5 329.53,-62.95"/>
<polygon fill="#9a32cd" stroke="#9a32cd" points="339.1,-68.51 329.53,-73.05 339.84,-75.47 339.1,-68.51"/>
<text text-anchor="middle" x="371.5" y="-71" font-family="Helvetica,sans-Serif" font-size="10.00"> p_der_abs</text>
<text text-anchor="middle" x="371.5" y="-60" font-family="Helvetica,sans-Serif" font-size="10.00">p_der_var</text>
</g>
<!-- Node8&#45;&gt;Node7 -->
<g id="edge13" class="edge">
<title>Node8&#45;&gt;Node7</title>
<path fill="none" stroke="#9a32cd" stroke-dasharray="5,2" d="M438.83,-152.31C425.99,-135.87 404.28,-111.23 380,-97 364.63,-87.99 346.27,-81.79 329.38,-77.56"/>
<polygon fill="#9a32cd" stroke="#9a32cd" points="436.19,-154.61 445.01,-160.47 441.77,-150.39 436.19,-154.61"/>
<text text-anchor="middle" x="440" y="-116.5" font-family="Helvetica,sans-Serif" font-size="10.00"> base</text>
</g>
<!-- Node9&#45;&gt;Node8 -->
<g id="edge15" class="edge">
<title>Node9&#45;&gt;Node8</title>
<path fill="none" stroke="#9a32cd" stroke-dasharray="5,2" d="M475.61,-230.22C469.05,-214.44 459.74,-192.04 454.66,-179.81"/>
<polygon fill="#9a32cd" stroke="#9a32cd" points="472.38,-231.57 479.45,-239.47 478.85,-228.89 472.38,-231.57"/>
<text text-anchor="middle" x="493.5" y="-207.5" font-family="Helvetica,sans-Serif" font-size="10.00"> bases_1d</text>
</g>
</g>
</svg>
