<?xml version="1.0" encoding="UTF-8" standalone="no"?>
<!DOCTYPE svg PUBLIC "-//W3C//DTD SVG 1.1//EN"
 "http://www.w3.org/Graphics/SVG/1.1/DTD/svg11.dtd">
<!-- Generated by graphviz version 2.47.1 (20210515.0534)
 -->
<!-- Title: Kadath::Eq_order_array Pages: 1 -->
<svg width="2102pt" height="891pt"
 viewBox="0.00 0.00 2102.00 891.28" xmlns="http://www.w3.org/2000/svg" xmlns:xlink="http://www.w3.org/1999/xlink">
<g id="graph0" class="graph" transform="scale(1 1) rotate(0) translate(4 887.28)">
<title>Kadath::Eq_order_array</title>
<!-- Node1 -->
<g id="node1" class="node">
<title>Node1</title>
<g id="a_node1"><a xlink:title=" ">
<polygon fill="#bfbfbf" stroke="black" points="1172,-194.5 1172,-213.5 1288,-213.5 1288,-194.5 1172,-194.5"/>
<text text-anchor="middle" x="1230" y="-201.5" font-family="Helvetica,sans-Serif" font-size="10.00">Kadath::Eq_order_array</text>
</a>
</g>
</g>
<!-- Node2 -->
<g id="node2" class="node">
<title>Node2</title>
<g id="a_node2"><a xlink:href="classKadath_1_1Equation.html" target="_top" xlink:title=" ">
<polygon fill="none" stroke="black" points="989,-150.5 989,-169.5 1078,-169.5 1078,-150.5 989,-150.5"/>
<text text-anchor="middle" x="1033.5" y="-157.5" font-family="Helvetica,sans-Serif" font-size="10.00">Kadath::Equation</text>
</a>
</g>
</g>
<!-- Node2&#45;&gt;Node1 -->
<g id="edge1" class="edge">
<title>Node2&#45;&gt;Node1</title>
<path fill="none" stroke="midnightblue" d="M1086.59,-171.78C1117.99,-178.89 1157.46,-187.82 1186.88,-194.47"/>
<polygon fill="midnightblue" stroke="midnightblue" points="1087.23,-168.34 1076.7,-169.55 1085.68,-175.17 1087.23,-168.34"/>
</g>
<!-- Node6 -->
<g id="node6" class="node">
<title>Node6</title>
<g id="a_node6"><a xlink:href="classKadath_1_1System__of__eqs.html" target="_top" xlink:title=" ">
<polygon fill="none" stroke="black" points="1682,-343.5 1682,-362.5 1801,-362.5 1801,-343.5 1682,-343.5"/>
<text text-anchor="middle" x="1741.5" y="-350.5" font-family="Helvetica,sans-Serif" font-size="10.00">Kadath::System_of_eqs</text>
</a>
</g>
</g>
<!-- Node2&#45;&gt;Node6 -->
<g id="edge9" class="edge">
<title>Node2&#45;&gt;Node6</title>
<path fill="none" stroke="#9a32cd" stroke-dasharray="5,2" d="M1088.24,-160C1127.29,-160 1181.42,-160 1229,-160 1229,-160 1229,-160 1548,-160 1652.82,-160 1720.36,-304.49 1736.67,-343.43"/>
<polygon fill="#9a32cd" stroke="#9a32cd" points="1088.15,-156.5 1078.15,-160 1088.14,-163.5 1088.15,-156.5"/>
<text text-anchor="middle" x="1391" y="-163" font-family="Helvetica,sans-Serif" font-size="10.00"> eq</text>
</g>
<!-- Node3 -->
<g id="node3" class="node">
<title>Node3</title>
<g id="a_node3"><a xlink:href="structKadath_1_1MemoryMappable.html" target="_top" xlink:title=" ">
<polygon fill="none" stroke="black" points="0,-475.5 0,-494.5 128,-494.5 128,-475.5 0,-475.5"/>
<text text-anchor="middle" x="64" y="-482.5" font-family="Helvetica,sans-Serif" font-size="10.00">Kadath::MemoryMappable</text>
</a>
</g>
</g>
<!-- Node3&#45;&gt;Node2 -->
<g id="edge2" class="edge">
<title>Node3&#45;&gt;Node2</title>
<path fill="none" stroke="midnightblue" d="M68.47,-465.26C82.51,-388.48 138.05,-114 214.5,-114 214.5,-114 214.5,-114 871.5,-114 924.12,-114 982.81,-137 1012.69,-150.47"/>
<polygon fill="midnightblue" stroke="midnightblue" points="64.96,-465 66.64,-475.46 71.85,-466.23 64.96,-465"/>
</g>
<!-- Node4 -->
<g id="node4" class="node">
<title>Node4</title>
<g id="a_node4"><a xlink:href="classKadath_1_1Array.html" target="_top" xlink:title=" ">
<polygon fill="none" stroke="black" points="165,-297.5 165,-316.5 266,-316.5 266,-297.5 165,-297.5"/>
<text text-anchor="middle" x="215.5" y="-304.5" font-family="Helvetica,sans-Serif" font-size="10.00">Kadath::Array&lt; int &gt;</text>
</a>
</g>
</g>
<!-- Node3&#45;&gt;Node4 -->
<g id="edge4" class="edge">
<title>Node3&#45;&gt;Node4</title>
<path fill="none" stroke="midnightblue" d="M70.18,-465.44C79.75,-432.98 103.25,-367.87 146,-331 153.25,-324.74 162.23,-320.09 171.28,-316.63"/>
<polygon fill="midnightblue" stroke="midnightblue" points="66.8,-464.54 67.46,-475.12 73.53,-466.44 66.8,-464.54"/>
</g>
<!-- Node5 -->
<g id="node5" class="node">
<title>Node5</title>
<g id="a_node5"><a xlink:href="classKadath_1_1Ope__eq.html" target="_top" xlink:title=" ">
<polygon fill="none" stroke="black" points="1858,-140.5 1858,-159.5 1944,-159.5 1944,-140.5 1858,-140.5"/>
<text text-anchor="middle" x="1901" y="-147.5" font-family="Helvetica,sans-Serif" font-size="10.00">Kadath::Ope_eq</text>
</a>
</g>
</g>
<!-- Node3&#45;&gt;Node5 -->
<g id="edge6" class="edge">
<title>Node3&#45;&gt;Node5</title>
<path fill="none" stroke="midnightblue" d="M66.5,-465.19C71.49,-406.65 90.45,-230.14 146,-96 161.26,-59.14 174.61,-38 214.5,-38 214.5,-38 214.5,-38 1742.5,-38 1812.96,-38 1873.81,-113.37 1893.4,-140.45"/>
<polygon fill="midnightblue" stroke="midnightblue" points="63.01,-465.03 65.69,-475.28 69.98,-465.59 63.01,-465.03"/>
</g>
<!-- Node7 -->
<g id="node7" class="node">
<title>Node7</title>
<g id="a_node7"><a xlink:href="classKadath_1_1Eq__int.html" target="_top" xlink:title=" ">
<polygon fill="none" stroke="black" points="2010,-140.5 2010,-159.5 2089,-159.5 2089,-140.5 2010,-140.5"/>
<text text-anchor="middle" x="2049.5" y="-147.5" font-family="Helvetica,sans-Serif" font-size="10.00">Kadath::Eq_int</text>
</a>
</g>
</g>
<!-- Node3&#45;&gt;Node7 -->
<g id="edge11" class="edge">
<title>Node3&#45;&gt;Node7</title>
<path fill="none" stroke="midnightblue" d="M68.07,-465.39C77.38,-407.34 107.01,-231.45 146,-89 159.18,-40.86 164.59,0 214.5,0 214.5,0 214.5,0 1902,0 1980.63,0 2030.87,-106.79 2044.65,-140.16"/>
<polygon fill="midnightblue" stroke="midnightblue" points="64.6,-464.97 66.49,-475.39 71.51,-466.06 64.6,-464.97"/>
</g>
<!-- Node8 -->
<g id="node8" class="node">
<title>Node8</title>
<g id="a_node8"><a xlink:href="classKadath_1_1Space.html" target="_top" xlink:title=" ">
<polygon fill="none" stroke="black" points="993.5,-610.5 993.5,-629.5 1073.5,-629.5 1073.5,-610.5 993.5,-610.5"/>
<text text-anchor="middle" x="1033.5" y="-617.5" font-family="Helvetica,sans-Serif" font-size="10.00">Kadath::Space</text>
</a>
</g>
</g>
<!-- Node3&#45;&gt;Node8 -->
<g id="edge14" class="edge">
<title>Node3&#45;&gt;Node8</title>
<path fill="none" stroke="midnightblue" d="M69.18,-504.35C77.63,-539.02 100.03,-611.92 146,-653 170.05,-674.49 182.24,-677 214.5,-677 214.5,-677 214.5,-677 593,-677 741.88,-677 916.79,-644.43 993.32,-628.53"/>
<polygon fill="midnightblue" stroke="midnightblue" points="72.57,-503.48 66.91,-494.53 65.75,-505.06 72.57,-503.48"/>
</g>
<!-- Node9 -->
<g id="node9" class="node">
<title>Node9</title>
<g id="a_node9"><a xlink:href="classKadath_1_1Domain.html" target="_top" xlink:title=" ">
<polygon fill="none" stroke="black" points="828,-394.5 828,-413.5 913,-413.5 913,-394.5 828,-394.5"/>
<text text-anchor="middle" x="870.5" y="-401.5" font-family="Helvetica,sans-Serif" font-size="10.00">Kadath::Domain</text>
</a>
</g>
</g>
<!-- Node3&#45;&gt;Node9 -->
<g id="edge16" class="edge">
<title>Node3&#45;&gt;Node9</title>
<path fill="none" stroke="midnightblue" d="M90.84,-470.4C110.64,-459.7 138.91,-445.44 165,-436 216.19,-417.47 231.07,-419.71 284,-407 342.18,-393.03 355.57,-382.94 415,-376 467.14,-369.91 722.56,-377.67 753,-381 778.92,-383.83 807.68,-389.48 830.13,-394.47"/>
<polygon fill="midnightblue" stroke="midnightblue" points="88.93,-467.46 81.85,-475.34 92.3,-473.6 88.93,-467.46"/>
</g>
<!-- Node10 -->
<g id="node10" class="node">
<title>Node10</title>
<g id="a_node10"><a xlink:href="classKadath_1_1Dim__array.html" target="_top" xlink:title=" ">
<polygon fill="none" stroke="black" points="168,-200.5 168,-219.5 263,-219.5 263,-200.5 168,-200.5"/>
<text text-anchor="middle" x="215.5" y="-207.5" font-family="Helvetica,sans-Serif" font-size="10.00">Kadath::Dim_array</text>
</a>
</g>
</g>
<!-- Node3&#45;&gt;Node10 -->
<g id="edge18" class="edge">
<title>Node3&#45;&gt;Node10</title>
<path fill="none" stroke="midnightblue" d="M73.78,-466.24C90.51,-430.85 128.55,-352.01 165,-288 179.28,-262.91 197.95,-234.54 207.78,-219.91"/>
<polygon fill="midnightblue" stroke="midnightblue" points="70.56,-464.86 69.47,-475.4 76.9,-467.84 70.56,-464.86"/>
</g>
<!-- Node11 -->
<g id="node11" class="node">
<title>Node11</title>
<g id="a_node11"><a xlink:href="classKadath_1_1Array.html" target="_top" xlink:title=" ">
<polygon fill="none" stroke="black" points="415,-473.5 415,-492.5 534,-492.5 534,-473.5 415,-473.5"/>
<text text-anchor="middle" x="474.5" y="-480.5" font-family="Helvetica,sans-Serif" font-size="10.00">Kadath::Array&lt; double &gt;</text>
</a>
</g>
</g>
<!-- Node3&#45;&gt;Node11 -->
<g id="edge20" class="edge">
<title>Node3&#45;&gt;Node11</title>
<path fill="none" stroke="midnightblue" d="M122,-496.11C130.03,-497.31 138.2,-498.33 146,-499 257.15,-508.53 286.04,-510.48 397,-499 409.69,-497.69 423.37,-495.18 435.61,-492.54"/>
<polygon fill="midnightblue" stroke="midnightblue" points="122.36,-492.62 111.94,-494.51 121.27,-499.54 122.36,-492.62"/>
</g>
<!-- Node12 -->
<g id="node12" class="node">
<title>Node12</title>
<g id="a_node12"><a xlink:href="classKadath_1_1Val__domain.html" target="_top" xlink:title=" ">
<polygon fill="none" stroke="black" points="650,-390.5 650,-409.5 753,-409.5 753,-390.5 650,-390.5"/>
<text text-anchor="middle" x="701.5" y="-397.5" font-family="Helvetica,sans-Serif" font-size="10.00">Kadath::Val_domain</text>
</a>
</g>
</g>
<!-- Node3&#45;&gt;Node12 -->
<g id="edge22" class="edge">
<title>Node3&#45;&gt;Node12</title>
<path fill="none" stroke="midnightblue" d="M138.01,-478.61C176.19,-475.05 223.67,-470.27 266,-465 405.27,-447.66 568.8,-421.67 649.77,-408.42"/>
<polygon fill="midnightblue" stroke="midnightblue" points="137.64,-475.13 128.01,-479.53 138.29,-482.1 137.64,-475.13"/>
</g>
<!-- Node13 -->
<g id="node13" class="node">
<title>Node13</title>
<g id="a_node13"><a xlink:href="classKadath_1_1Base__spectral.html" target="_top" xlink:title=" ">
<polygon fill="none" stroke="black" points="417.5,-385.5 417.5,-404.5 531.5,-404.5 531.5,-385.5 417.5,-385.5"/>
<text text-anchor="middle" x="474.5" y="-392.5" font-family="Helvetica,sans-Serif" font-size="10.00">Kadath::Base_spectral</text>
</a>
</g>
</g>
<!-- Node3&#45;&gt;Node13 -->
<g id="edge26" class="edge">
<title>Node3&#45;&gt;Node13</title>
<path fill="none" stroke="midnightblue" d="M118.17,-473.29C199.95,-455.27 355.01,-421.11 430.31,-404.52"/>
<polygon fill="midnightblue" stroke="midnightblue" points="117.34,-469.88 108.33,-475.45 118.85,-476.72 117.34,-469.88"/>
</g>
<!-- Node14 -->
<g id="node14" class="node">
<title>Node14</title>
<g id="a_node14"><a xlink:href="classKadath_1_1Index.html" target="_top" xlink:title=" ">
<polygon fill="none" stroke="black" points="437,-66.5 437,-85.5 512,-85.5 512,-66.5 437,-66.5"/>
<text text-anchor="middle" x="474.5" y="-73.5" font-family="Helvetica,sans-Serif" font-size="10.00">Kadath::Index</text>
</a>
</g>
</g>
<!-- Node3&#45;&gt;Node14 -->
<g id="edge30" class="edge">
<title>Node3&#45;&gt;Node14</title>
<path fill="none" stroke="midnightblue" d="M66.13,-465.18C70.64,-393.44 89.98,-148.97 146,-100 188.44,-62.9 360.73,-68.8 436.94,-73.4"/>
<polygon fill="midnightblue" stroke="midnightblue" points="62.61,-465.3 65.51,-475.49 69.6,-465.72 62.61,-465.3"/>
</g>
<!-- Node15 -->
<g id="node15" class="node">
<title>Node15</title>
<g id="a_node15"><a xlink:href="classKadath_1_1Param.html" target="_top" xlink:title=" ">
<polygon fill="none" stroke="black" points="552,-744.5 552,-763.5 632,-763.5 632,-744.5 552,-744.5"/>
<text text-anchor="middle" x="592" y="-751.5" font-family="Helvetica,sans-Serif" font-size="10.00">Kadath::Param</text>
</a>
</g>
</g>
<!-- Node3&#45;&gt;Node15 -->
<g id="edge34" class="edge">
<title>Node3&#45;&gt;Node15</title>
<path fill="none" stroke="midnightblue" d="M65.37,-504.69C67.55,-554.68 81.33,-685.46 165,-727 294.27,-791.18 473.39,-773.34 551.71,-761.13"/>
<polygon fill="midnightblue" stroke="midnightblue" points="68.86,-504.44 65.05,-494.56 61.87,-504.67 68.86,-504.44"/>
</g>
<!-- Node16 -->
<g id="node16" class="node">
<title>Node16</title>
<g id="a_node16"><a xlink:href="classKadath_1_1Term__eq.html" target="_top" xlink:title=" ">
<polygon fill="none" stroke="black" points="1502,-782.5 1502,-801.5 1592,-801.5 1592,-782.5 1502,-782.5"/>
<text text-anchor="middle" x="1547" y="-789.5" font-family="Helvetica,sans-Serif" font-size="10.00">Kadath::Term_eq</text>
</a>
</g>
</g>
<!-- Node3&#45;&gt;Node16 -->
<g id="edge37" class="edge">
<title>Node3&#45;&gt;Node16</title>
<path fill="none" stroke="midnightblue" d="M65.41,-504.69C67.97,-572.48 86.17,-792 214.5,-792 214.5,-792 214.5,-792 1392,-792 1429.03,-792 1471.07,-792 1501.86,-792"/>
<polygon fill="midnightblue" stroke="midnightblue" points="68.91,-504.41 65.11,-494.52 61.91,-504.63 68.91,-504.41"/>
</g>
<!-- Node17 -->
<g id="node17" class="node">
<title>Node17</title>
<g id="a_node17"><a xlink:href="classKadath_1_1Tensor.html" target="_top" xlink:title=" ">
<polygon fill="none" stroke="black" points="1350,-520.5 1350,-539.5 1432,-539.5 1432,-520.5 1350,-520.5"/>
<text text-anchor="middle" x="1391" y="-527.5" font-family="Helvetica,sans-Serif" font-size="10.00">Kadath::Tensor</text>
</a>
</g>
</g>
<!-- Node3&#45;&gt;Node17 -->
<g id="edge39" class="edge">
<title>Node3&#45;&gt;Node17</title>
<path fill="none" stroke="midnightblue" d="M76.84,-503.57C99.34,-536.34 151.71,-601 214.5,-601 214.5,-601 214.5,-601 593,-601 851.67,-601 914.24,-563.67 1172,-542 1233.94,-536.79 1305.99,-533.33 1349.77,-531.52"/>
<polygon fill="midnightblue" stroke="midnightblue" points="79.52,-501.28 71.06,-494.89 73.69,-505.15 79.52,-501.28"/>
</g>
<!-- Node19 -->
<g id="node19" class="node">
<title>Node19</title>
<g id="a_node19"><a xlink:href="classKadath_1_1Base__tensor.html" target="_top" xlink:title=" ">
<polygon fill="none" stroke="black" points="1176.5,-592.5 1176.5,-611.5 1283.5,-611.5 1283.5,-592.5 1176.5,-592.5"/>
<text text-anchor="middle" x="1230" y="-599.5" font-family="Helvetica,sans-Serif" font-size="10.00">Kadath::Base_tensor</text>
</a>
</g>
</g>
<!-- Node3&#45;&gt;Node19 -->
<g id="edge46" class="edge">
<title>Node3&#45;&gt;Node19</title>
<path fill="none" stroke="midnightblue" d="M72.13,-504.24C83.53,-532.45 108.45,-584.93 146,-615 171.18,-635.17 182.24,-639 214.5,-639 214.5,-639 214.5,-639 593,-639 808.56,-639 864,-664.84 1078,-639 1120.87,-633.82 1169.14,-620.66 1199.31,-611.52"/>
<polygon fill="midnightblue" stroke="midnightblue" points="75.31,-502.77 68.43,-494.71 68.79,-505.3 75.31,-502.77"/>
</g>
<!-- Node20 -->
<g id="node20" class="node">
<title>Node20</title>
<g id="a_node20"><a xlink:href="classKadath_1_1Param__tensor.html" target="_top" xlink:title=" ">
<polygon fill="none" stroke="black" points="284,-705.5 284,-724.5 397,-724.5 397,-705.5 284,-705.5"/>
<text text-anchor="middle" x="340.5" y="-712.5" font-family="Helvetica,sans-Serif" font-size="10.00">Kadath::Param_tensor</text>
</a>
</g>
</g>
<!-- Node3&#45;&gt;Node20 -->
<g id="edge50" class="edge">
<title>Node3&#45;&gt;Node20</title>
<path fill="none" stroke="midnightblue" d="M66.34,-504.84C70.33,-546.78 85.92,-644.39 146,-691 184.78,-721.09 241.71,-724.79 283.78,-722.35"/>
<polygon fill="midnightblue" stroke="midnightblue" points="69.82,-504.47 65.51,-494.79 62.84,-505.04 69.82,-504.47"/>
</g>
<!-- Node21 -->
<g id="node21" class="node">
<title>Node21</title>
<g id="a_node21"><a xlink:href="classKadath_1_1Metric.html" target="_top" xlink:title=" ">
<polygon fill="none" stroke="black" points="1861.5,-693.5 1861.5,-712.5 1940.5,-712.5 1940.5,-693.5 1861.5,-693.5"/>
<text text-anchor="middle" x="1901" y="-700.5" font-family="Helvetica,sans-Serif" font-size="10.00">Kadath::Metric</text>
</a>
</g>
</g>
<!-- Node3&#45;&gt;Node21 -->
<g id="edge52" class="edge">
<title>Node3&#45;&gt;Node21</title>
<path fill="none" stroke="midnightblue" d="M68.07,-504.89C80.97,-584.78 133.79,-878 214.5,-878 214.5,-878 214.5,-878 1742.5,-878 1769.23,-878 1780.49,-881.15 1801,-864 1849.4,-823.54 1818.62,-783.29 1858,-734 1864.79,-725.5 1874.44,-718.16 1882.78,-712.76"/>
<polygon fill="midnightblue" stroke="midnightblue" points="71.48,-504.04 66.46,-494.71 64.57,-505.14 71.48,-504.04"/>
</g>
<!-- Node4&#45;&gt;Node1 -->
<g id="edge61" class="edge">
<title>Node4&#45;&gt;Node1</title>
<path fill="none" stroke="#9a32cd" stroke-dasharray="5,2" d="M240,-292.17C252.59,-284.92 268.63,-276.76 284,-272 500.23,-205.07 563.15,-210 789.5,-210 789.5,-210 789.5,-210 1034.5,-210 1080.78,-210 1133.23,-208.28 1171.99,-206.68"/>
<polygon fill="#9a32cd" stroke="#9a32cd" points="237.92,-289.34 231.12,-297.46 241.5,-295.35 237.92,-289.34"/>
<text text-anchor="middle" x="790.5" y="-213" font-family="Helvetica,sans-Serif" font-size="10.00"> order</text>
</g>
<!-- Node4&#45;&gt;Node2 -->
<g id="edge3" class="edge">
<title>Node4&#45;&gt;Node2</title>
<path fill="none" stroke="#9a32cd" stroke-dasharray="5,2" d="M228.09,-288.71C239.95,-271.63 260.01,-246.9 284,-234 523.2,-105.33 867.83,-136.9 988.65,-153.26"/>
<polygon fill="#9a32cd" stroke="#9a32cd" points="225.01,-287.02 222.37,-297.28 230.83,-290.9 225.01,-287.02"/>
<text text-anchor="middle" x="701.5" y="-154" font-family="Helvetica,sans-Serif" font-size="10.00"> n_cond</text>
<text text-anchor="middle" x="701.5" y="-143" font-family="Helvetica,sans-Serif" font-size="10.00">p_cmp_used</text>
</g>
<!-- Node4&#45;&gt;Node6 -->
<g id="edge32" class="edge">
<title>Node4&#45;&gt;Node6</title>
<path fill="none" stroke="#9a32cd" stroke-dasharray="5,2" d="M276.54,-301.87C426.8,-289.13 811.17,-257 869.5,-257 869.5,-257 869.5,-257 1548,-257 1624.93,-257 1702.7,-319.16 1730.14,-343.44"/>
<polygon fill="#9a32cd" stroke="#9a32cd" points="275.81,-298.42 266.14,-302.76 276.4,-305.4 275.81,-298.42"/>
<text text-anchor="middle" x="1033.5" y="-271" font-family="Helvetica,sans-Serif" font-size="10.00"> assoc_var</text>
<text text-anchor="middle" x="1033.5" y="-260" font-family="Helvetica,sans-Serif" font-size="10.00">assoc_var_double</text>
</g>
<!-- Node4&#45;&gt;Node13 -->
<g id="edge27" class="edge">
<title>Node4&#45;&gt;Node13</title>
<path fill="none" stroke="#9a32cd" stroke-dasharray="5,2" d="M254.03,-319.85C306.11,-337.68 399.12,-369.53 445.54,-385.43"/>
<polygon fill="#9a32cd" stroke="#9a32cd" points="255.09,-316.51 244.49,-316.59 252.82,-323.14 255.09,-316.51"/>
<text text-anchor="middle" x="340.5" y="-369" font-family="Helvetica,sans-Serif" font-size="10.00"> bases_1d</text>
</g>
<!-- Node4&#45;&gt;Node17 -->
<g id="edge44" class="edge">
<title>Node4&#45;&gt;Node17</title>
<path fill="none" stroke="#9a32cd" stroke-dasharray="5,2" d="M229.26,-325.31C241.61,-341.83 261.68,-365.81 284,-381 328.43,-411.23 361.69,-383.49 397,-424 420.38,-450.82 387.57,-479.35 415,-502 461.98,-540.8 491.09,-505.58 552,-507 595.55,-508.02 606.44,-507.78 650,-508 695.78,-508.23 707.32,-510.94 753,-508 832.6,-502.88 851.4,-490.12 931,-485 948.74,-483.86 953.23,-484.56 971,-485 1131.59,-489 1176.07,-464.39 1332,-503 1346.88,-506.68 1362.57,-514.24 1373.87,-520.43"/>
<polygon fill="#9a32cd" stroke="#9a32cd" points="231.94,-323.04 223.24,-317 226.28,-327.15 231.94,-323.04"/>
<text text-anchor="middle" x="870.5" y="-512" font-family="Helvetica,sans-Serif" font-size="10.00"> give_indices</text>
<text text-anchor="middle" x="870.5" y="-501" font-family="Helvetica,sans-Serif" font-size="10.00">type_indice</text>
</g>
<!-- Node4&#45;&gt;Node19 -->
<g id="edge48" class="edge">
<title>Node4&#45;&gt;Node19</title>
<path fill="none" stroke="#9a32cd" stroke-dasharray="5,2" d="M224.96,-325.98C236.3,-350.21 258.03,-392.75 284,-424 332.96,-482.91 344.27,-506.58 415,-536 485.08,-565.15 1007.41,-591.71 1176.41,-599.62"/>
<polygon fill="#9a32cd" stroke="#9a32cd" points="228.1,-324.43 220.75,-316.8 221.74,-327.35 228.1,-324.43"/>
<text text-anchor="middle" x="790.5" y="-582" font-family="Helvetica,sans-Serif" font-size="10.00"> basis</text>
</g>
<!-- Node5&#45;&gt;Node2 -->
<g id="edge5" class="edge">
<title>Node5&#45;&gt;Node2</title>
<path fill="none" stroke="#9a32cd" stroke-dasharray="5,2" d="M1847.67,-146.37C1749.86,-140.13 1532.69,-128.89 1350,-138 1252.8,-142.85 1138.95,-151.53 1078.1,-156.41"/>
<polygon fill="#9a32cd" stroke="#9a32cd" points="1847.68,-149.87 1857.88,-147.03 1848.13,-142.89 1847.68,-149.87"/>
<text text-anchor="middle" x="1467" y="-137" font-family="Helvetica,sans-Serif" font-size="10.00"> parts</text>
</g>
<!-- Node5&#45;&gt;Node5 -->
<g id="edge7" class="edge">
<title>Node5&#45;&gt;Node5</title>
<path fill="none" stroke="#9a32cd" stroke-dasharray="5,2" d="M1888.11,-169.77C1889.12,-174.5 1893.42,-178 1901,-178 1913.44,-178 1917.04,-168.57 1911.79,-159.76"/>
<polygon fill="#9a32cd" stroke="#9a32cd" points="1891.58,-170.26 1890.21,-159.76 1884.73,-168.82 1891.58,-170.26"/>
<text text-anchor="middle" x="1901" y="-181" font-family="Helvetica,sans-Serif" font-size="10.00"> parts</text>
</g>
<!-- Node5&#45;&gt;Node7 -->
<g id="edge12" class="edge">
<title>Node5&#45;&gt;Node7</title>
<path fill="none" stroke="#9a32cd" stroke-dasharray="5,2" d="M1954.55,-150C1972.76,-150 1992.83,-150 2009.73,-150"/>
<polygon fill="#9a32cd" stroke="#9a32cd" points="1954.37,-146.5 1944.37,-150 1954.37,-153.5 1954.37,-146.5"/>
<text text-anchor="middle" x="1974.5" y="-153" font-family="Helvetica,sans-Serif" font-size="10.00"> parts</text>
</g>
<!-- Node22 -->
<g id="node22" class="node">
<title>Node22</title>
<g id="a_node22"><a xlink:href="classKadath_1_1Ope__def.html" target="_top" xlink:title=" ">
<polygon fill="none" stroke="black" points="2005,-343.5 2005,-362.5 2094,-362.5 2094,-343.5 2005,-343.5"/>
<text text-anchor="middle" x="2049.5" y="-350.5" font-family="Helvetica,sans-Serif" font-size="10.00">Kadath::Ope_def</text>
</a>
</g>
</g>
<!-- Node5&#45;&gt;Node22 -->
<g id="edge58" class="edge">
<title>Node5&#45;&gt;Node22</title>
<path fill="none" stroke="midnightblue" d="M1914.88,-167.84C1944.84,-209.36 2018.42,-311.32 2041.47,-343.27"/>
<polygon fill="midnightblue" stroke="midnightblue" points="1917.56,-165.58 1908.87,-159.52 1911.88,-169.68 1917.56,-165.58"/>
</g>
<!-- Node6&#45;&gt;Node5 -->
<g id="edge8" class="edge">
<title>Node6&#45;&gt;Node5</title>
<path fill="none" stroke="#9a32cd" stroke-dasharray="5,2" d="M1756.12,-335.33C1771.41,-315.51 1796.95,-282.43 1819,-254 1845.93,-219.28 1878.03,-178.14 1892.39,-159.74"/>
<polygon fill="#9a32cd" stroke="#9a32cd" points="1753.21,-333.38 1749.87,-343.43 1758.75,-337.65 1753.21,-333.38"/>
<text text-anchor="middle" x="1829.5" y="-257" font-family="Helvetica,sans-Serif" font-size="10.00"> syst</text>
</g>
<!-- Node6&#45;&gt;Node21 -->
<g id="edge54" class="edge">
<title>Node6&#45;&gt;Node21</title>
<path fill="none" stroke="#9a32cd" stroke-dasharray="5,2" d="M1747.02,-372.56C1756.84,-413.28 1782.24,-509.56 1819,-584 1840.58,-627.7 1876.28,-673.87 1892.07,-693.39"/>
<polygon fill="#9a32cd" stroke="#9a32cd" points="1750.37,-371.54 1744.66,-362.61 1743.56,-373.15 1750.37,-371.54"/>
<text text-anchor="middle" x="1829.5" y="-621" font-family="Helvetica,sans-Serif" font-size="10.00"> syst</text>
</g>
<!-- Node7&#45;&gt;Node6 -->
<g id="edge10" class="edge">
<title>Node7&#45;&gt;Node6</title>
<path fill="none" stroke="#9a32cd" stroke-dasharray="5,2" d="M2025.39,-165.33C1965.34,-205.17 1805.63,-311.12 1756.85,-343.48"/>
<polygon fill="#9a32cd" stroke="#9a32cd" points="2027.43,-168.18 2033.83,-159.73 2023.56,-162.35 2027.43,-168.18"/>
<text text-anchor="middle" x="1901" y="-277" font-family="Helvetica,sans-Serif" font-size="10.00"> eq_int</text>
</g>
<!-- Node8&#45;&gt;Node6 -->
<g id="edge13" class="edge">
<title>Node8&#45;&gt;Node6</title>
<path fill="none" stroke="#9a32cd" stroke-dasharray="5,2" d="M1083.97,-625.61C1140.49,-631.53 1235.78,-640 1318,-640 1318,-640 1318,-640 1548,-640 1684.79,-640 1730.62,-412.35 1739,-362.55"/>
<polygon fill="#9a32cd" stroke="#9a32cd" points="1084.19,-622.11 1073.88,-624.54 1083.45,-629.08 1084.19,-622.11"/>
<text text-anchor="middle" x="1391" y="-643" font-family="Helvetica,sans-Serif" font-size="10.00"> espace</text>
</g>
<!-- Node8&#45;&gt;Node17 -->
<g id="edge40" class="edge">
<title>Node8&#45;&gt;Node17</title>
<path fill="none" stroke="#9a32cd" stroke-dasharray="5,2" d="M1068.06,-606.74C1095.64,-596.22 1135.91,-581.72 1172,-572 1233.22,-555.51 1305.78,-542.87 1349.82,-535.94"/>
<polygon fill="#9a32cd" stroke="#9a32cd" points="1066.58,-603.56 1058.51,-610.42 1069.1,-610.09 1066.58,-603.56"/>
<text text-anchor="middle" x="1230" y="-575" font-family="Helvetica,sans-Serif" font-size="10.00"> espace</text>
</g>
<!-- Node8&#45;&gt;Node19 -->
<g id="edge47" class="edge">
<title>Node8&#45;&gt;Node19</title>
<path fill="none" stroke="#9a32cd" stroke-dasharray="5,2" d="M1083.88,-610.61C1087.97,-610.01 1092.05,-609.46 1096,-609 1122.42,-605.95 1151.94,-604.23 1176.44,-603.26"/>
<polygon fill="#9a32cd" stroke="#9a32cd" points="1083.09,-607.2 1073.76,-612.23 1084.19,-614.11 1083.09,-607.2"/>
<text text-anchor="middle" x="1125" y="-612" font-family="Helvetica,sans-Serif" font-size="10.00"> space</text>
</g>
<!-- Node8&#45;&gt;Node21 -->
<g id="edge53" class="edge">
<title>Node8&#45;&gt;Node21</title>
<path fill="none" stroke="#9a32cd" stroke-dasharray="5,2" d="M1065.28,-633.34C1074.95,-637.03 1085.77,-640.66 1096,-643 1129.07,-650.56 1138.22,-646.94 1172,-650 1366.64,-667.63 1415.02,-675.62 1610,-689 1699.76,-695.16 1805.34,-699.54 1861.04,-701.62"/>
<polygon fill="#9a32cd" stroke="#9a32cd" points="1066.29,-629.97 1055.7,-629.53 1063.7,-636.48 1066.29,-629.97"/>
<text text-anchor="middle" x="1467" y="-682" font-family="Helvetica,sans-Serif" font-size="10.00"> espace</text>
</g>
<!-- Node9&#45;&gt;Node2 -->
<g id="edge60" class="edge">
<title>Node9&#45;&gt;Node2</title>
<path fill="none" stroke="#9a32cd" stroke-dasharray="5,2" d="M883.43,-385.93C915.31,-337.61 1001.74,-206.62 1026.06,-169.76"/>
<polygon fill="#9a32cd" stroke="#9a32cd" points="880.4,-384.16 877.81,-394.43 886.24,-388.02 880.4,-384.16"/>
<text text-anchor="middle" x="951" y="-314" font-family="Helvetica,sans-Serif" font-size="10.00"> dom</text>
</g>
<!-- Node9&#45;&gt;Node8 -->
<g id="edge15" class="edge">
<title>Node9&#45;&gt;Node8</title>
<path fill="none" stroke="#9a32cd" stroke-dasharray="5,2" d="M884.75,-421.78C917.21,-465.33 999.88,-576.24 1025.09,-610.06"/>
<polygon fill="#9a32cd" stroke="#9a32cd" points="887.41,-419.49 878.63,-413.56 881.8,-423.67 887.41,-419.49"/>
<text text-anchor="middle" x="951" y="-534" font-family="Helvetica,sans-Serif" font-size="10.00"> domains</text>
</g>
<!-- Node9&#45;&gt;Node12 -->
<g id="edge28" class="edge">
<title>Node9&#45;&gt;Node12</title>
<path fill="none" stroke="#9a32cd" stroke-dasharray="5,2" d="M817.76,-398.47C815.14,-398.29 812.54,-398.13 810,-398 791.45,-397.07 771.08,-397.16 753.11,-397.63"/>
<polygon fill="#9a32cd" stroke="#9a32cd" points="817.68,-401.97 827.93,-399.27 818.23,-394.99 817.68,-401.97"/>
<text text-anchor="middle" x="790.5" y="-401" font-family="Helvetica,sans-Serif" font-size="10.00"> zone</text>
</g>
<!-- Node10&#45;&gt;Node9 -->
<g id="edge17" class="edge">
<title>Node10&#45;&gt;Node9</title>
<path fill="none" stroke="#9a32cd" stroke-dasharray="5,2" d="M273.16,-218.54C371.47,-233.81 579.77,-268.15 753,-310 778.7,-316.21 788.2,-312.04 810,-327 836.19,-344.97 856,-378.07 864.68,-394.39"/>
<polygon fill="#9a32cd" stroke="#9a32cd" points="273.55,-215.06 263.14,-216.99 272.48,-221.98 273.55,-215.06"/>
<text text-anchor="middle" x="592" y="-296" font-family="Helvetica,sans-Serif" font-size="10.00"> nbr_coefs</text>
<text text-anchor="middle" x="592" y="-285" font-family="Helvetica,sans-Serif" font-size="10.00">nbr_points</text>
</g>
<!-- Node10&#45;&gt;Node14 -->
<g id="edge31" class="edge">
<title>Node10&#45;&gt;Node14</title>
<path fill="none" stroke="#9a32cd" stroke-dasharray="5,2" d="M231.86,-192.65C244.69,-179.01 264.04,-160.32 284,-148 333.11,-117.68 397.07,-96.66 436.7,-85.47"/>
<polygon fill="#9a32cd" stroke="#9a32cd" points="228.94,-190.65 224.77,-200.38 234.11,-195.38 228.94,-190.65"/>
<text text-anchor="middle" x="340.5" y="-151" font-family="Helvetica,sans-Serif" font-size="10.00"> sizes</text>
</g>
<!-- Node11&#45;&gt;Node6 -->
<g id="edge35" class="edge">
<title>Node11&#45;&gt;Node6</title>
<path fill="none" stroke="#9a32cd" stroke-dasharray="5,2" d="M490.76,-465.59C502.74,-451.78 519.73,-431.89 534,-414 542.31,-403.58 540.83,-397.29 552,-390 673.35,-310.82 724.61,-316 869.5,-316 869.5,-316 869.5,-316 1548,-316 1606.19,-316 1672.53,-332.51 1710.17,-343.47"/>
<polygon fill="#9a32cd" stroke="#9a32cd" points="487.95,-463.49 484.02,-473.33 493.23,-468.09 487.95,-463.49"/>
<text text-anchor="middle" x="1125" y="-319" font-family="Helvetica,sans-Serif" font-size="10.00"> val_cst_hard</text>
</g>
<!-- Node11&#45;&gt;Node9 -->
<g id="edge19" class="edge">
<title>Node11&#45;&gt;Node9</title>
<path fill="none" stroke="#9a32cd" stroke-dasharray="5,2" d="M544.1,-491.44C614.16,-497.08 724.5,-497.54 810,-459 832.57,-448.83 852.23,-426.65 862.31,-413.78"/>
<polygon fill="#9a32cd" stroke="#9a32cd" points="544.32,-487.95 534.06,-490.58 543.72,-494.92 544.32,-487.95"/>
<text text-anchor="middle" x="701.5" y="-496" font-family="Helvetica,sans-Serif" font-size="10.00"> coloc</text>
</g>
<!-- Node11&#45;&gt;Node12 -->
<g id="edge23" class="edge">
<title>Node11&#45;&gt;Node12</title>
<path fill="none" stroke="#9a32cd" stroke-dasharray="5,2" d="M509.75,-469.88C522.89,-465 538.07,-459.54 552,-455 587.17,-443.52 597.36,-444.98 632,-432 649.33,-425.51 668.35,-416.46 681.94,-409.64"/>
<polygon fill="#9a32cd" stroke="#9a32cd" points="508.29,-466.69 500.15,-473.47 510.74,-473.24 508.29,-466.69"/>
<text text-anchor="middle" x="592" y="-469" font-family="Helvetica,sans-Serif" font-size="10.00"> c</text>
<text text-anchor="middle" x="592" y="-458" font-family="Helvetica,sans-Serif" font-size="10.00">cf</text>
</g>
<!-- Node12&#45;&gt;Node9 -->
<g id="edge21" class="edge">
<title>Node12&#45;&gt;Node9</title>
<path fill="none" stroke="#9a32cd" stroke-dasharray="5,2" d="M763.32,-410.28C765.91,-410.56 768.48,-410.8 771,-411 788.28,-412.38 792.7,-412.01 810,-411 815.81,-410.66 821.93,-410.13 827.94,-409.52"/>
<polygon fill="#9a32cd" stroke="#9a32cd" points="763.61,-406.79 753.26,-409.07 762.78,-413.74 763.61,-406.79"/>
<text text-anchor="middle" x="790.5" y="-447" font-family="Helvetica,sans-Serif" font-size="10.00"> absol</text>
<text text-anchor="middle" x="790.5" y="-436" font-family="Helvetica,sans-Serif" font-size="10.00">cart</text>
<text text-anchor="middle" x="790.5" y="-425" font-family="Helvetica,sans-Serif" font-size="10.00">cart_surr</text>
<text text-anchor="middle" x="790.5" y="-414" font-family="Helvetica,sans-Serif" font-size="10.00">radius</text>
</g>
<!-- Node12&#45;&gt;Node12 -->
<g id="edge24" class="edge">
<title>Node12&#45;&gt;Node12</title>
<path fill="none" stroke="#9a32cd" stroke-dasharray="5,2" d="M685.2,-419.4C686.29,-424.31 691.72,-428 701.5,-428 717.14,-428 721.66,-418.57 715.06,-409.76"/>
<polygon fill="#9a32cd" stroke="#9a32cd" points="688.58,-420.33 687.94,-409.76 681.84,-418.42 688.58,-420.33"/>
<text text-anchor="middle" x="701.5" y="-442" font-family="Helvetica,sans-Serif" font-size="10.00"> p_der_abs</text>
<text text-anchor="middle" x="701.5" y="-431" font-family="Helvetica,sans-Serif" font-size="10.00">p_der_var</text>
</g>
<!-- Node18 -->
<g id="node18" class="node">
<title>Node18</title>
<g id="a_node18"><a xlink:href="classKadath_1_1Scalar.html" target="_top" xlink:title=" ">
<polygon fill="none" stroke="black" points="1507,-461.5 1507,-480.5 1587,-480.5 1587,-461.5 1507,-461.5"/>
<text text-anchor="middle" x="1547" y="-468.5" font-family="Helvetica,sans-Serif" font-size="10.00">Kadath::Scalar</text>
</a>
</g>
</g>
<!-- Node12&#45;&gt;Node18 -->
<g id="edge43" class="edge">
<title>Node12&#45;&gt;Node18</title>
<path fill="none" stroke="#9a32cd" stroke-dasharray="5,2" d="M741.26,-387.51C774.82,-377.81 824.85,-366 869.5,-366 869.5,-366 869.5,-366 1392,-366 1459.31,-366 1518.9,-435.32 1538.89,-461.31"/>
<polygon fill="#9a32cd" stroke="#9a32cd" points="739.99,-384.24 731.4,-390.44 741.98,-390.95 739.99,-384.24"/>
<text text-anchor="middle" x="1125" y="-369" font-family="Helvetica,sans-Serif" font-size="10.00"> val_zones</text>
</g>
<!-- Node13&#45;&gt;Node12 -->
<g id="edge25" class="edge">
<title>Node13&#45;&gt;Node12</title>
<path fill="none" stroke="#9a32cd" stroke-dasharray="5,2" d="M541.69,-394.66C569.57,-394.72 602.37,-395.04 632,-396 637.72,-396.18 643.7,-396.44 649.64,-396.74"/>
<polygon fill="#9a32cd" stroke="#9a32cd" points="541.65,-391.16 531.65,-394.65 541.65,-398.16 541.65,-391.16"/>
<text text-anchor="middle" x="592" y="-399" font-family="Helvetica,sans-Serif" font-size="10.00"> base</text>
</g>
<!-- Node14&#45;&gt;Node6 -->
<g id="edge29" class="edge">
<title>Node14&#45;&gt;Node6</title>
<path fill="none" stroke="#9a32cd" stroke-dasharray="5,2" d="M522.29,-76C567.8,-76 638.89,-76 700.5,-76 700.5,-76 700.5,-76 1320,-76 1479.22,-76 1550.68,-64.16 1664,-176 1714.27,-225.62 1733.64,-313.69 1738.9,-343.11"/>
<polygon fill="#9a32cd" stroke="#9a32cd" points="522.13,-72.5 512.13,-76 522.13,-79.5 522.13,-72.5"/>
<text text-anchor="middle" x="1125" y="-79" font-family="Helvetica,sans-Serif" font-size="10.00"> which_coef</text>
</g>
<!-- Node15&#45;&gt;Node6 -->
<g id="edge33" class="edge">
<title>Node15&#45;&gt;Node6</title>
<path fill="none" stroke="#9a32cd" stroke-dasharray="5,2" d="M642.36,-754C682.1,-754 739.39,-754 789.5,-754 789.5,-754 789.5,-754 1320,-754 1383.45,-754 1390.47,-716.97 1450,-695 1511.63,-672.26 1532.02,-680.78 1592,-654 1626.46,-638.62 1641.12,-639.01 1664,-609 1725.3,-528.58 1737.67,-399.48 1740,-362.93"/>
<polygon fill="#9a32cd" stroke="#9a32cd" points="642.15,-750.5 632.15,-754 642.15,-757.5 642.15,-750.5"/>
<text text-anchor="middle" x="1125" y="-768" font-family="Helvetica,sans-Serif" font-size="10.00"> paruser</text>
<text text-anchor="middle" x="1125" y="-757" font-family="Helvetica,sans-Serif" font-size="10.00">paruser_bin</text>
</g>
<!-- Node16&#45;&gt;Node6 -->
<g id="edge36" class="edge">
<title>Node16&#45;&gt;Node6</title>
<path fill="none" stroke="#9a32cd" stroke-dasharray="5,2" d="M1566.62,-775.21C1578.87,-764.24 1595.28,-749.65 1610,-737 1633.69,-716.63 1647.7,-718.65 1664,-692 1734.21,-577.23 1740.15,-405.18 1740.51,-362.73"/>
<polygon fill="#9a32cd" stroke="#9a32cd" points="1563.99,-772.87 1558.89,-782.16 1568.66,-778.08 1563.99,-772.87"/>
<text text-anchor="middle" x="1637" y="-806" font-family="Helvetica,sans-Serif" font-size="10.00"> cst</text>
<text text-anchor="middle" x="1637" y="-795" font-family="Helvetica,sans-Serif" font-size="10.00">cst_hard</text>
<text text-anchor="middle" x="1637" y="-784" font-family="Helvetica,sans-Serif" font-size="10.00">opeuser</text>
<text text-anchor="middle" x="1637" y="-773" font-family="Helvetica,sans-Serif" font-size="10.00">opeuser_bin</text>
<text text-anchor="middle" x="1637" y="-762" font-family="Helvetica,sans-Serif" font-size="10.00">results</text>
<text text-anchor="middle" x="1637" y="-751" font-family="Helvetica,sans-Serif" font-size="10.00">term</text>
<text text-anchor="middle" x="1637" y="-740" font-family="Helvetica,sans-Serif" font-size="10.00">term_double</text>
</g>
<!-- Node16&#45;&gt;Node21 -->
<g id="edge55" class="edge">
<title>Node16&#45;&gt;Node21</title>
<path fill="none" stroke="#9a32cd" stroke-dasharray="5,2" d="M1573.11,-806.41C1598,-818.59 1636.32,-831.51 1664,-814 1679.79,-804.01 1668.02,-788.4 1682,-776 1708.94,-752.09 1806.27,-725.61 1861.33,-712.06"/>
<polygon fill="#9a32cd" stroke="#9a32cd" points="1574.45,-803.16 1563.96,-801.67 1571.23,-809.38 1574.45,-803.16"/>
<text text-anchor="middle" x="1741.5" y="-856" font-family="Helvetica,sans-Serif" font-size="10.00"> p_christo</text>
<text text-anchor="middle" x="1741.5" y="-845" font-family="Helvetica,sans-Serif" font-size="10.00">p_det_cov</text>
<text text-anchor="middle" x="1741.5" y="-834" font-family="Helvetica,sans-Serif" font-size="10.00">p_dirac</text>
<text text-anchor="middle" x="1741.5" y="-823" font-family="Helvetica,sans-Serif" font-size="10.00">p_met_con</text>
<text text-anchor="middle" x="1741.5" y="-812" font-family="Helvetica,sans-Serif" font-size="10.00">p_met_cov</text>
<text text-anchor="middle" x="1741.5" y="-801" font-family="Helvetica,sans-Serif" font-size="10.00">p_ricci_scalar</text>
<text text-anchor="middle" x="1741.5" y="-790" font-family="Helvetica,sans-Serif" font-size="10.00">p_ricci_tensor</text>
<text text-anchor="middle" x="1741.5" y="-779" font-family="Helvetica,sans-Serif" font-size="10.00">p_riemann</text>
</g>
<!-- Node16&#45;&gt;Node22 -->
<g id="edge59" class="edge">
<title>Node16&#45;&gt;Node22</title>
<path fill="none" stroke="#9a32cd" stroke-dasharray="5,2" d="M1570.62,-807.44C1582.2,-815.13 1596.65,-824.39 1610,-832 1685.04,-874.8 1721.36,-901.47 1801,-868 2014.08,-778.44 2044.31,-425.29 2048.03,-362.56"/>
<polygon fill="#9a32cd" stroke="#9a32cd" points="1572.26,-804.33 1562.01,-801.67 1568.36,-810.14 1572.26,-804.33"/>
<text text-anchor="middle" x="1829.5" y="-861" font-family="Helvetica,sans-Serif" font-size="10.00"> res</text>
</g>
<!-- Node17&#45;&gt;Node6 -->
<g id="edge56" class="edge">
<title>Node17&#45;&gt;Node6</title>
<path fill="none" stroke="#9a32cd" stroke-dasharray="5,2" d="M1442.27,-527.99C1484.44,-524.48 1545.11,-515.05 1592,-490 1655.73,-455.95 1713.05,-387.99 1733.01,-362.74"/>
<polygon fill="#9a32cd" stroke="#9a32cd" points="1441.95,-524.5 1432.24,-528.74 1442.47,-531.48 1441.95,-524.5"/>
<text text-anchor="middle" x="1547" y="-522" font-family="Helvetica,sans-Serif" font-size="10.00"> var</text>
</g>
<!-- Node17&#45;&gt;Node16 -->
<g id="edge38" class="edge">
<title>Node17&#45;&gt;Node16</title>
<path fill="none" stroke="#9a32cd" stroke-dasharray="5,2" d="M1404.55,-548.11C1422.83,-574.76 1457.49,-626.32 1484,-672 1507.31,-712.16 1531.65,-761.98 1541.48,-782.5"/>
<polygon fill="#9a32cd" stroke="#9a32cd" points="1407.37,-546.03 1398.81,-539.78 1401.6,-550 1407.37,-546.03"/>
<text text-anchor="middle" x="1467" y="-686" font-family="Helvetica,sans-Serif" font-size="10.00"> der_t</text>
<text text-anchor="middle" x="1467" y="-675" font-family="Helvetica,sans-Serif" font-size="10.00">val_t</text>
</g>
<!-- Node17&#45;&gt;Node18 -->
<g id="edge42" class="edge">
<title>Node17&#45;&gt;Node18</title>
<path fill="none" stroke="midnightblue" d="M1410.55,-513.76C1421.36,-505.12 1435.66,-495.07 1450,-489 1467.8,-481.47 1488.79,-477.07 1506.59,-474.52"/>
<polygon fill="midnightblue" stroke="midnightblue" points="1408.15,-511.19 1402.69,-520.27 1412.62,-516.58 1408.15,-511.19"/>
</g>
<!-- Node18&#45;&gt;Node17 -->
<g id="edge41" class="edge">
<title>Node18&#45;&gt;Node17</title>
<path fill="none" stroke="#9a32cd" stroke-dasharray="5,2" d="M1507.33,-484.04C1489.74,-490.14 1468.71,-497.66 1450,-505 1437.75,-509.8 1424.24,-515.6 1413.34,-520.4"/>
<polygon fill="#9a32cd" stroke="#9a32cd" points="1508.93,-487.19 1517.25,-480.62 1506.66,-480.57 1508.93,-487.19"/>
<text text-anchor="middle" x="1467" y="-508" font-family="Helvetica,sans-Serif" font-size="10.00"> cmp</text>
</g>
<!-- Node19&#45;&gt;Node17 -->
<g id="edge45" class="edge">
<title>Node19&#45;&gt;Node17</title>
<path fill="none" stroke="#9a32cd" stroke-dasharray="5,2" d="M1293.57,-591.05C1306.65,-587.52 1320.08,-582.93 1332,-577 1351.26,-567.41 1369.93,-550.5 1380.68,-539.79"/>
<polygon fill="#9a32cd" stroke="#9a32cd" points="1292.51,-587.71 1283.67,-593.54 1294.22,-594.5 1292.51,-587.71"/>
<text text-anchor="middle" x="1319" y="-589" font-family="Helvetica,sans-Serif" font-size="10.00"> basis</text>
</g>
<!-- Node20&#45;&gt;Node17 -->
<g id="edge49" class="edge">
<title>Node20&#45;&gt;Node17</title>
<path fill="none" stroke="#9a32cd" stroke-dasharray="5,2" d="M407.58,-715C457.87,-715 528.8,-715 591,-715 591,-715 591,-715 1034.5,-715 1176.1,-715 1219.81,-687.39 1332,-601 1354.95,-583.33 1374.58,-554.9 1384.02,-539.94"/>
<polygon fill="#9a32cd" stroke="#9a32cd" points="407.49,-711.5 397.49,-715 407.49,-718.5 407.49,-711.5"/>
<text text-anchor="middle" x="870.5" y="-718" font-family="Helvetica,sans-Serif" font-size="10.00"> parameters</text>
</g>
<!-- Node21&#45;&gt;Node6 -->
<g id="edge51" class="edge">
<title>Node21&#45;&gt;Node6</title>
<path fill="none" stroke="#9a32cd" stroke-dasharray="5,2" d="M1891.52,-684.15C1862.57,-619.83 1768.34,-410.42 1746.88,-362.73"/>
<polygon fill="#9a32cd" stroke="#9a32cd" points="1888.42,-685.8 1895.72,-693.49 1894.81,-682.93 1888.42,-685.8"/>
<text text-anchor="middle" x="1829.5" y="-572" font-family="Helvetica,sans-Serif" font-size="10.00"> met</text>
</g>
<!-- Node22&#45;&gt;Node6 -->
<g id="edge57" class="edge">
<title>Node22&#45;&gt;Node6</title>
<path fill="none" stroke="#9a32cd" stroke-dasharray="5,2" d="M1994.79,-353C1940.57,-353 1857.06,-353 1801.14,-353"/>
<polygon fill="#9a32cd" stroke="#9a32cd" points="1994.9,-356.5 2004.9,-353 1994.9,-349.5 1994.9,-356.5"/>
<text text-anchor="middle" x="1901" y="-356" font-family="Helvetica,sans-Serif" font-size="10.00"> def</text>
</g>
</g>
</svg>
