<?xml version="1.0" encoding="UTF-8" standalone="no"?>
<!DOCTYPE svg PUBLIC "-//W3C//DTD SVG 1.1//EN"
 "http://www.w3.org/Graphics/SVG/1.1/DTD/svg11.dtd">
<!-- Generated by graphviz version 2.47.1 (20210515.0534)
 -->
<!-- Title: Kadath::Eq_matching_one_side Pages: 1 -->
<svg width="2094pt" height="935pt"
 viewBox="0.00 0.00 2094.00 935.00" xmlns="http://www.w3.org/2000/svg" xmlns:xlink="http://www.w3.org/1999/xlink">
<g id="graph0" class="graph" transform="scale(1 1) rotate(0) translate(4 931)">
<title>Kadath::Eq_matching_one_side</title>
<!-- Node1 -->
<g id="node1" class="node">
<title>Node1</title>
<g id="a_node1"><a xlink:title=" ">
<polygon fill="#bfbfbf" stroke="black" points="1172,-194 1172,-224 1280,-224 1280,-194 1172,-194"/>
<text text-anchor="start" x="1180" y="-212" font-family="Helvetica,sans-Serif" font-size="10.00">Kadath::Eq_matching</text>
<text text-anchor="middle" x="1226" y="-201" font-family="Helvetica,sans-Serif" font-size="10.00">_one_side</text>
</a>
</g>
</g>
<!-- Node2 -->
<g id="node2" class="node">
<title>Node2</title>
<g id="a_node2"><a xlink:href="classKadath_1_1Equation.html" target="_top" xlink:title=" ">
<polygon fill="none" stroke="black" points="989,-194.5 989,-213.5 1078,-213.5 1078,-194.5 989,-194.5"/>
<text text-anchor="middle" x="1033.5" y="-201.5" font-family="Helvetica,sans-Serif" font-size="10.00">Kadath::Equation</text>
</a>
</g>
</g>
<!-- Node2&#45;&gt;Node1 -->
<g id="edge1" class="edge">
<title>Node2&#45;&gt;Node1</title>
<path fill="none" stroke="midnightblue" d="M1088.34,-205.41C1114.53,-206.1 1145.91,-206.92 1172,-207.61"/>
<polygon fill="midnightblue" stroke="midnightblue" points="1088.29,-201.91 1078.2,-205.15 1088.11,-208.91 1088.29,-201.91"/>
</g>
<!-- Node6 -->
<g id="node6" class="node">
<title>Node6</title>
<g id="a_node6"><a xlink:href="classKadath_1_1System__of__eqs.html" target="_top" xlink:title=" ">
<polygon fill="none" stroke="black" points="1674,-441.5 1674,-460.5 1793,-460.5 1793,-441.5 1674,-441.5"/>
<text text-anchor="middle" x="1733.5" y="-448.5" font-family="Helvetica,sans-Serif" font-size="10.00">Kadath::System_of_eqs</text>
</a>
</g>
</g>
<!-- Node2&#45;&gt;Node6 -->
<g id="edge9" class="edge">
<title>Node2&#45;&gt;Node6</title>
<path fill="none" stroke="#9a32cd" stroke-dasharray="5,2" d="M1064.34,-217.46C1101.27,-232.87 1166.46,-256 1225,-256 1225,-256 1225,-256 1540,-256 1645.37,-256 1712.51,-401.98 1728.7,-441.33"/>
<polygon fill="#9a32cd" stroke="#9a32cd" points="1065.71,-214.24 1055.14,-213.54 1062.96,-220.68 1065.71,-214.24"/>
<text text-anchor="middle" x="1383" y="-259" font-family="Helvetica,sans-Serif" font-size="10.00"> eq</text>
</g>
<!-- Node3 -->
<g id="node3" class="node">
<title>Node3</title>
<g id="a_node3"><a xlink:href="structKadath_1_1MemoryMappable.html" target="_top" xlink:title=" ">
<polygon fill="none" stroke="black" points="0,-439.5 0,-458.5 128,-458.5 128,-439.5 0,-439.5"/>
<text text-anchor="middle" x="64" y="-446.5" font-family="Helvetica,sans-Serif" font-size="10.00">Kadath::MemoryMappable</text>
</a>
</g>
</g>
<!-- Node3&#45;&gt;Node2 -->
<g id="edge2" class="edge">
<title>Node3&#45;&gt;Node2</title>
<path fill="none" stroke="midnightblue" d="M64.73,-428.92C64.88,-356.64 75.74,-114 214.5,-114 214.5,-114 214.5,-114 791.5,-114 882.61,-114 981.55,-171.15 1017.99,-194.37"/>
<polygon fill="midnightblue" stroke="midnightblue" points="61.23,-429.35 64.78,-439.34 68.23,-429.32 61.23,-429.35"/>
</g>
<!-- Node4 -->
<g id="node4" class="node">
<title>Node4</title>
<g id="a_node4"><a xlink:href="classKadath_1_1Array.html" target="_top" xlink:title=" ">
<polygon fill="none" stroke="black" points="165,-246.5 165,-265.5 266,-265.5 266,-246.5 165,-246.5"/>
<text text-anchor="middle" x="215.5" y="-253.5" font-family="Helvetica,sans-Serif" font-size="10.00">Kadath::Array&lt; int &gt;</text>
</a>
</g>
</g>
<!-- Node3&#45;&gt;Node4 -->
<g id="edge4" class="edge">
<title>Node3&#45;&gt;Node4</title>
<path fill="none" stroke="midnightblue" d="M70.92,-429.5C81.45,-397.52 106.18,-333.48 146,-293 157.94,-280.86 174.72,-271.71 188.69,-265.54"/>
<polygon fill="midnightblue" stroke="midnightblue" points="67.47,-428.79 67.78,-439.38 74.14,-430.9 67.47,-428.79"/>
</g>
<!-- Node5 -->
<g id="node5" class="node">
<title>Node5</title>
<g id="a_node5"><a xlink:href="classKadath_1_1Ope__eq.html" target="_top" xlink:title=" ">
<polygon fill="none" stroke="black" points="1850,-235.5 1850,-254.5 1936,-254.5 1936,-235.5 1850,-235.5"/>
<text text-anchor="middle" x="1893" y="-242.5" font-family="Helvetica,sans-Serif" font-size="10.00">Kadath::Ope_eq</text>
</a>
</g>
</g>
<!-- Node3&#45;&gt;Node5 -->
<g id="edge6" class="edge">
<title>Node3&#45;&gt;Node5</title>
<path fill="none" stroke="midnightblue" d="M65.29,-429.14C67.11,-369.17 79.76,-187.01 165,-72 180.89,-50.56 187.81,-38 214.5,-38 214.5,-38 214.5,-38 1734.5,-38 1834.98,-38 1879.77,-194.37 1889.78,-235.29"/>
<polygon fill="midnightblue" stroke="midnightblue" points="61.78,-429.37 65.05,-439.45 68.78,-429.53 61.78,-429.37"/>
</g>
<!-- Node7 -->
<g id="node7" class="node">
<title>Node7</title>
<g id="a_node7"><a xlink:href="classKadath_1_1Eq__int.html" target="_top" xlink:title=" ">
<polygon fill="none" stroke="black" points="2002,-235.5 2002,-254.5 2081,-254.5 2081,-235.5 2002,-235.5"/>
<text text-anchor="middle" x="2041.5" y="-242.5" font-family="Helvetica,sans-Serif" font-size="10.00">Kadath::Eq_int</text>
</a>
</g>
</g>
<!-- Node3&#45;&gt;Node7 -->
<g id="edge11" class="edge">
<title>Node3&#45;&gt;Node7</title>
<path fill="none" stroke="midnightblue" d="M64.64,-429.23C64.44,-365.45 71.58,-161.88 165,-34 180.74,-12.45 187.81,0 214.5,0 214.5,0 214.5,0 1894,0 2005.76,0 2034.3,-190.1 2039.52,-235.4"/>
<polygon fill="midnightblue" stroke="midnightblue" points="61.14,-429.5 64.74,-439.46 68.14,-429.43 61.14,-429.5"/>
</g>
<!-- Node8 -->
<g id="node8" class="node">
<title>Node8</title>
<g id="a_node8"><a xlink:href="classKadath_1_1Space.html" target="_top" xlink:title=" ">
<polygon fill="none" stroke="black" points="993.5,-547.5 993.5,-566.5 1073.5,-566.5 1073.5,-547.5 993.5,-547.5"/>
<text text-anchor="middle" x="1033.5" y="-554.5" font-family="Helvetica,sans-Serif" font-size="10.00">Kadath::Space</text>
</a>
</g>
</g>
<!-- Node3&#45;&gt;Node8 -->
<g id="edge14" class="edge">
<title>Node3&#45;&gt;Node8</title>
<path fill="none" stroke="midnightblue" d="M70.19,-468.6C84.34,-517.13 128.44,-639 214.5,-639 214.5,-639 214.5,-639 791.5,-639 880.55,-639 978.73,-588.2 1016.49,-566.57"/>
<polygon fill="midnightblue" stroke="midnightblue" points="73.48,-467.37 67.42,-458.68 66.74,-469.26 73.48,-467.37"/>
</g>
<!-- Node9 -->
<g id="node9" class="node">
<title>Node9</title>
<g id="a_node9"><a xlink:href="classKadath_1_1Domain.html" target="_top" xlink:title=" ">
<polygon fill="none" stroke="black" points="828,-393.5 828,-412.5 913,-412.5 913,-393.5 828,-393.5"/>
<text text-anchor="middle" x="870.5" y="-400.5" font-family="Helvetica,sans-Serif" font-size="10.00">Kadath::Domain</text>
</a>
</g>
</g>
<!-- Node3&#45;&gt;Node9 -->
<g id="edge16" class="edge">
<title>Node3&#45;&gt;Node9</title>
<path fill="none" stroke="midnightblue" d="M87.78,-433.77C107.44,-421.3 137.01,-404.12 165,-394 215.66,-375.69 231.1,-381.16 284,-371 342.21,-359.82 355.99,-351.58 415,-346 564.79,-331.83 604.16,-342.96 753,-365 778.61,-368.79 785.34,-369.11 810,-377 823.85,-381.43 838.85,-388 850.32,-393.42"/>
<polygon fill="midnightblue" stroke="midnightblue" points="85.73,-430.93 79.23,-439.29 89.53,-436.81 85.73,-430.93"/>
</g>
<!-- Node10 -->
<g id="node10" class="node">
<title>Node10</title>
<g id="a_node10"><a xlink:href="classKadath_1_1Dim__array.html" target="_top" xlink:title=" ">
<polygon fill="none" stroke="black" points="168,-532.5 168,-551.5 263,-551.5 263,-532.5 168,-532.5"/>
<text text-anchor="middle" x="215.5" y="-539.5" font-family="Helvetica,sans-Serif" font-size="10.00">Kadath::Dim_array</text>
</a>
</g>
</g>
<!-- Node3&#45;&gt;Node10 -->
<g id="edge18" class="edge">
<title>Node3&#45;&gt;Node10</title>
<path fill="none" stroke="midnightblue" d="M84.27,-465.33C100.2,-478.37 123.72,-496.61 146,-510 160.4,-518.66 177.52,-526.66 191.05,-532.49"/>
<polygon fill="midnightblue" stroke="midnightblue" points="86.2,-462.38 76.27,-458.69 81.73,-467.77 86.2,-462.38"/>
</g>
<!-- Node11 -->
<g id="node11" class="node">
<title>Node11</title>
<g id="a_node11"><a xlink:href="classKadath_1_1Array.html" target="_top" xlink:title=" ">
<polygon fill="none" stroke="black" points="415,-355.5 415,-374.5 534,-374.5 534,-355.5 415,-355.5"/>
<text text-anchor="middle" x="474.5" y="-362.5" font-family="Helvetica,sans-Serif" font-size="10.00">Kadath::Array&lt; double &gt;</text>
</a>
</g>
</g>
<!-- Node3&#45;&gt;Node11 -->
<g id="edge20" class="edge">
<title>Node3&#45;&gt;Node11</title>
<path fill="none" stroke="midnightblue" d="M103.19,-436.39C121.71,-430.57 144.37,-423.88 165,-419 251.11,-398.62 352.42,-382.33 414.8,-373.16"/>
<polygon fill="midnightblue" stroke="midnightblue" points="102.11,-433.06 93.64,-439.43 104.23,-439.73 102.11,-433.06"/>
</g>
<!-- Node12 -->
<g id="node12" class="node">
<title>Node12</title>
<g id="a_node12"><a xlink:href="classKadath_1_1Val__domain.html" target="_top" xlink:title=" ">
<polygon fill="none" stroke="black" points="650,-399.5 650,-418.5 753,-418.5 753,-399.5 650,-399.5"/>
<text text-anchor="middle" x="701.5" y="-406.5" font-family="Helvetica,sans-Serif" font-size="10.00">Kadath::Val_domain</text>
</a>
</g>
</g>
<!-- Node3&#45;&gt;Node12 -->
<g id="edge22" class="edge">
<title>Node3&#45;&gt;Node12</title>
<path fill="none" stroke="midnightblue" d="M138.58,-451.72C247.21,-454.51 456.6,-455.19 632,-428 645.29,-425.94 659.68,-422.19 671.83,-418.56"/>
<polygon fill="midnightblue" stroke="midnightblue" points="138.48,-448.22 128.38,-451.44 138.29,-455.21 138.48,-448.22"/>
</g>
<!-- Node13 -->
<g id="node13" class="node">
<title>Node13</title>
<g id="a_node13"><a xlink:href="classKadath_1_1Base__spectral.html" target="_top" xlink:title=" ">
<polygon fill="none" stroke="black" points="417.5,-401.5 417.5,-420.5 531.5,-420.5 531.5,-401.5 417.5,-401.5"/>
<text text-anchor="middle" x="474.5" y="-408.5" font-family="Helvetica,sans-Serif" font-size="10.00">Kadath::Base_spectral</text>
</a>
</g>
</g>
<!-- Node3&#45;&gt;Node13 -->
<g id="edge26" class="edge">
<title>Node3&#45;&gt;Node13</title>
<path fill="none" stroke="midnightblue" d="M125.49,-437.88C132.39,-436.81 139.34,-435.82 146,-435 240.92,-423.35 352.07,-416.66 417.42,-413.44"/>
<polygon fill="midnightblue" stroke="midnightblue" points="124.76,-434.45 115.44,-439.5 125.87,-441.36 124.76,-434.45"/>
</g>
<!-- Node14 -->
<g id="node14" class="node">
<title>Node14</title>
<g id="a_node14"><a xlink:href="classKadath_1_1Index.html" target="_top" xlink:title=" ">
<polygon fill="none" stroke="black" points="437,-705.5 437,-724.5 512,-724.5 512,-705.5 437,-705.5"/>
<text text-anchor="middle" x="474.5" y="-712.5" font-family="Helvetica,sans-Serif" font-size="10.00">Kadath::Index</text>
</a>
</g>
</g>
<!-- Node3&#45;&gt;Node14 -->
<g id="edge30" class="edge">
<title>Node3&#45;&gt;Node14</title>
<path fill="none" stroke="midnightblue" d="M64.85,-468.88C65.68,-516.24 75.05,-635.88 146,-691 231.76,-757.63 371.24,-738.38 437,-724.18"/>
<polygon fill="midnightblue" stroke="midnightblue" points="68.35,-468.7 64.79,-458.72 61.35,-468.74 68.35,-468.7"/>
</g>
<!-- Node15 -->
<g id="node15" class="node">
<title>Node15</title>
<g id="a_node15"><a xlink:href="classKadath_1_1Param.html" target="_top" xlink:title=" ">
<polygon fill="none" stroke="black" points="552,-743.5 552,-762.5 632,-762.5 632,-743.5 552,-743.5"/>
<text text-anchor="middle" x="592" y="-750.5" font-family="Helvetica,sans-Serif" font-size="10.00">Kadath::Param</text>
</a>
</g>
</g>
<!-- Node3&#45;&gt;Node15 -->
<g id="edge34" class="edge">
<title>Node3&#45;&gt;Node15</title>
<path fill="none" stroke="midnightblue" d="M64.25,-468.69C63.38,-523.85 69.73,-679.4 165,-733 230.41,-769.8 459.42,-760.86 551.86,-755.54"/>
<polygon fill="midnightblue" stroke="midnightblue" points="67.75,-468.6 64.51,-458.51 60.75,-468.42 67.75,-468.6"/>
</g>
<!-- Node16 -->
<g id="node16" class="node">
<title>Node16</title>
<g id="a_node16"><a xlink:href="classKadath_1_1Term__eq.html" target="_top" xlink:title=" ">
<polygon fill="none" stroke="black" points="1494,-781.5 1494,-800.5 1584,-800.5 1584,-781.5 1494,-781.5"/>
<text text-anchor="middle" x="1539" y="-788.5" font-family="Helvetica,sans-Serif" font-size="10.00">Kadath::Term_eq</text>
</a>
</g>
</g>
<!-- Node3&#45;&gt;Node16 -->
<g id="edge37" class="edge">
<title>Node3&#45;&gt;Node16</title>
<path fill="none" stroke="midnightblue" d="M64.57,-468.57C64.09,-541.18 72.72,-791 214.5,-791 214.5,-791 214.5,-791 1384,-791 1421.03,-791 1463.07,-791 1493.86,-791"/>
<polygon fill="midnightblue" stroke="midnightblue" points="68.07,-468.55 64.71,-458.5 61.07,-468.46 68.07,-468.55"/>
</g>
<!-- Node17 -->
<g id="node17" class="node">
<title>Node17</title>
<g id="a_node17"><a xlink:href="classKadath_1_1Tensor.html" target="_top" xlink:title=" ">
<polygon fill="none" stroke="black" points="1342,-496.5 1342,-515.5 1424,-515.5 1424,-496.5 1342,-496.5"/>
<text text-anchor="middle" x="1383" y="-503.5" font-family="Helvetica,sans-Serif" font-size="10.00">Kadath::Tensor</text>
</a>
</g>
</g>
<!-- Node3&#45;&gt;Node17 -->
<g id="edge39" class="edge">
<title>Node3&#45;&gt;Node17</title>
<path fill="none" stroke="midnightblue" d="M68.11,-468.42C78.17,-523.53 115.08,-677 214.5,-677 214.5,-677 214.5,-677 1126,-677 1243.05,-677 1347.18,-551.86 1374.84,-515.68"/>
<polygon fill="midnightblue" stroke="midnightblue" points="71.55,-467.77 66.41,-458.51 64.66,-468.96 71.55,-467.77"/>
</g>
<!-- Node19 -->
<g id="node19" class="node">
<title>Node19</title>
<g id="a_node19"><a xlink:href="classKadath_1_1Base__tensor.html" target="_top" xlink:title=" ">
<polygon fill="none" stroke="black" points="1172.5,-544.5 1172.5,-563.5 1279.5,-563.5 1279.5,-544.5 1172.5,-544.5"/>
<text text-anchor="middle" x="1226" y="-551.5" font-family="Helvetica,sans-Serif" font-size="10.00">Kadath::Base_tensor</text>
</a>
</g>
</g>
<!-- Node3&#45;&gt;Node19 -->
<g id="edge46" class="edge">
<title>Node3&#45;&gt;Node19</title>
<path fill="none" stroke="midnightblue" d="M75.36,-467.54C91.01,-493.53 123.33,-539.95 165,-561 207.43,-582.44 543.46,-601 591,-601 591,-601 591,-601 871.5,-601 984.18,-601 1115.31,-577.24 1181.71,-563.51"/>
<polygon fill="midnightblue" stroke="midnightblue" points="78.26,-465.55 70.2,-458.68 72.21,-469.08 78.26,-465.55"/>
</g>
<!-- Node20 -->
<g id="node20" class="node">
<title>Node20</title>
<g id="a_node20"><a xlink:href="classKadath_1_1Param__tensor.html" target="_top" xlink:title=" ">
<polygon fill="none" stroke="black" points="284,-508.5 284,-527.5 397,-527.5 397,-508.5 284,-508.5"/>
<text text-anchor="middle" x="340.5" y="-515.5" font-family="Helvetica,sans-Serif" font-size="10.00">Kadath::Param_tensor</text>
</a>
</g>
</g>
<!-- Node3&#45;&gt;Node20 -->
<g id="edge50" class="edge">
<title>Node3&#45;&gt;Node20</title>
<path fill="none" stroke="midnightblue" d="M112.83,-461.02C166.46,-474.5 252.35,-496.09 301.57,-508.47"/>
<polygon fill="midnightblue" stroke="midnightblue" points="113.43,-457.57 102.88,-458.52 111.72,-464.35 113.43,-457.57"/>
</g>
<!-- Node21 -->
<g id="node21" class="node">
<title>Node21</title>
<g id="a_node21"><a xlink:href="classKadath_1_1Metric.html" target="_top" xlink:title=" ">
<polygon fill="none" stroke="black" points="1853.5,-381.5 1853.5,-400.5 1932.5,-400.5 1932.5,-381.5 1853.5,-381.5"/>
<text text-anchor="middle" x="1893" y="-388.5" font-family="Helvetica,sans-Serif" font-size="10.00">Kadath::Metric</text>
</a>
</g>
</g>
<!-- Node3&#45;&gt;Node21 -->
<g id="edge52" class="edge">
<title>Node3&#45;&gt;Node21</title>
<path fill="none" stroke="midnightblue" d="M67.45,-429.41C74.34,-378.77 96.65,-240.24 146,-136 163.32,-99.42 174.03,-76 214.5,-76 214.5,-76 214.5,-76 1312,-76 1467.59,-76 1525.93,-55.6 1656,-141 1765.27,-212.74 1860.3,-344.69 1885.48,-381.34"/>
<polygon fill="midnightblue" stroke="midnightblue" points="63.98,-428.96 66.15,-439.34 70.92,-429.88 63.98,-428.96"/>
</g>
<!-- Node4&#45;&gt;Node2 -->
<g id="edge3" class="edge">
<title>Node4&#45;&gt;Node2</title>
<path fill="none" stroke="#9a32cd" stroke-dasharray="5,2" d="M251.06,-243.06C299.89,-225.96 392.2,-198 473.5,-198 473.5,-198 473.5,-198 871.5,-198 911.22,-198 956.41,-199.85 988.78,-201.49"/>
<polygon fill="#9a32cd" stroke="#9a32cd" points="249.86,-239.77 241.61,-246.42 252.2,-246.37 249.86,-239.77"/>
<text text-anchor="middle" x="701.5" y="-212" font-family="Helvetica,sans-Serif" font-size="10.00"> n_cond</text>
<text text-anchor="middle" x="701.5" y="-201" font-family="Helvetica,sans-Serif" font-size="10.00">p_cmp_used</text>
</g>
<!-- Node4&#45;&gt;Node6 -->
<g id="edge32" class="edge">
<title>Node4&#45;&gt;Node6</title>
<path fill="none" stroke="#9a32cd" stroke-dasharray="5,2" d="M232.78,-239.3C245.62,-227.02 264.56,-210.83 284,-201 361.62,-161.73 386.51,-152 473.5,-152 473.5,-152 473.5,-152 791.5,-152 899.19,-152 924.81,-127 1032.5,-127 1032.5,-127 1032.5,-127 1540,-127 1690.16,-127 1725.8,-387.39 1731.57,-441.3"/>
<polygon fill="#9a32cd" stroke="#9a32cd" points="230.29,-236.83 225.62,-246.34 235.2,-241.82 230.29,-236.83"/>
<text text-anchor="middle" x="1033.5" y="-143" font-family="Helvetica,sans-Serif" font-size="10.00"> assoc_var</text>
<text text-anchor="middle" x="1033.5" y="-132" font-family="Helvetica,sans-Serif" font-size="10.00">assoc_var_double</text>
</g>
<!-- Node4&#45;&gt;Node13 -->
<g id="edge27" class="edge">
<title>Node4&#45;&gt;Node13</title>
<path fill="none" stroke="#9a32cd" stroke-dasharray="5,2" d="M238.32,-271.52C274.22,-296.72 348.41,-347.4 415,-384 426.57,-390.36 439.9,-396.59 450.91,-401.46"/>
<polygon fill="#9a32cd" stroke="#9a32cd" points="240.24,-268.59 230.05,-265.69 236.2,-274.31 240.24,-268.59"/>
<text text-anchor="middle" x="340.5" y="-374" font-family="Helvetica,sans-Serif" font-size="10.00"> bases_1d</text>
</g>
<!-- Node4&#45;&gt;Node17 -->
<g id="edge44" class="edge">
<title>Node4&#45;&gt;Node17</title>
<path fill="none" stroke="#9a32cd" stroke-dasharray="5,2" d="M276.3,-253.08C328.38,-250.8 405.91,-248 473.5,-248 473.5,-248 473.5,-248 791.5,-248 1044.34,-248 1310.97,-449.07 1369.99,-496.2"/>
<polygon fill="#9a32cd" stroke="#9a32cd" points="276.07,-249.59 266.23,-253.53 276.38,-256.58 276.07,-249.59"/>
<text text-anchor="middle" x="870.5" y="-275" font-family="Helvetica,sans-Serif" font-size="10.00"> give_indices</text>
<text text-anchor="middle" x="870.5" y="-264" font-family="Helvetica,sans-Serif" font-size="10.00">type_indice</text>
</g>
<!-- Node4&#45;&gt;Node19 -->
<g id="edge48" class="edge">
<title>Node4&#45;&gt;Node19</title>
<path fill="none" stroke="#9a32cd" stroke-dasharray="5,2" d="M221.61,-275.65C229.96,-304 249.21,-356.22 284,-386 330.66,-425.94 355.37,-415.27 415,-430 656.9,-489.76 724.76,-463.85 971,-502 1046.84,-513.75 1134.33,-532.92 1184.31,-544.41"/>
<polygon fill="#9a32cd" stroke="#9a32cd" points="224.9,-274.43 218.85,-265.74 218.16,-276.31 224.9,-274.43"/>
<text text-anchor="middle" x="790.5" y="-485" font-family="Helvetica,sans-Serif" font-size="10.00"> basis</text>
</g>
<!-- Node5&#45;&gt;Node2 -->
<g id="edge5" class="edge">
<title>Node5&#45;&gt;Node2</title>
<path fill="none" stroke="#9a32cd" stroke-dasharray="5,2" d="M1873.77,-228.52C1845.91,-205.1 1790.09,-165 1734.5,-165 1225,-165 1225,-165 1225,-165 1166.43,-165 1099.75,-182.91 1062.85,-194.46"/>
<polygon fill="#9a32cd" stroke="#9a32cd" points="1871.64,-231.3 1881.49,-235.19 1876.21,-226 1871.64,-231.3"/>
<text text-anchor="middle" x="1459" y="-168" font-family="Helvetica,sans-Serif" font-size="10.00"> parts</text>
</g>
<!-- Node5&#45;&gt;Node5 -->
<g id="edge7" class="edge">
<title>Node5&#45;&gt;Node5</title>
<path fill="none" stroke="#9a32cd" stroke-dasharray="5,2" d="M1880.11,-264.77C1881.12,-269.5 1885.42,-273 1893,-273 1905.44,-273 1909.04,-263.57 1903.79,-254.76"/>
<polygon fill="#9a32cd" stroke="#9a32cd" points="1883.58,-265.26 1882.21,-254.76 1876.73,-263.82 1883.58,-265.26"/>
<text text-anchor="middle" x="1893" y="-276" font-family="Helvetica,sans-Serif" font-size="10.00"> parts</text>
</g>
<!-- Node5&#45;&gt;Node7 -->
<g id="edge12" class="edge">
<title>Node5&#45;&gt;Node7</title>
<path fill="none" stroke="#9a32cd" stroke-dasharray="5,2" d="M1946.55,-245C1964.76,-245 1984.83,-245 2001.73,-245"/>
<polygon fill="#9a32cd" stroke="#9a32cd" points="1946.37,-241.5 1936.37,-245 1946.37,-248.5 1946.37,-241.5"/>
<text text-anchor="middle" x="1966.5" y="-248" font-family="Helvetica,sans-Serif" font-size="10.00"> parts</text>
</g>
<!-- Node22 -->
<g id="node22" class="node">
<title>Node22</title>
<g id="a_node22"><a xlink:href="classKadath_1_1Ope__def.html" target="_top" xlink:title=" ">
<polygon fill="none" stroke="black" points="1997,-834.5 1997,-853.5 2086,-853.5 2086,-834.5 1997,-834.5"/>
<text text-anchor="middle" x="2041.5" y="-841.5" font-family="Helvetica,sans-Serif" font-size="10.00">Kadath::Ope_def</text>
</a>
</g>
</g>
<!-- Node5&#45;&gt;Node22 -->
<g id="edge58" class="edge">
<title>Node5&#45;&gt;Node22</title>
<path fill="none" stroke="midnightblue" d="M1901.1,-264.4C1910,-289.15 1925.37,-333.38 1936,-372 1986.57,-555.69 2029.62,-784.74 2038.73,-834.27"/>
<polygon fill="midnightblue" stroke="midnightblue" points="1904.31,-262.99 1897.61,-254.78 1897.73,-265.37 1904.31,-262.99"/>
</g>
<!-- Node6&#45;&gt;Node5 -->
<g id="edge8" class="edge">
<title>Node6&#45;&gt;Node5</title>
<path fill="none" stroke="#9a32cd" stroke-dasharray="5,2" d="M1748.14,-433.16C1780.22,-391.2 1859.61,-287.36 1884.45,-254.88"/>
<polygon fill="#9a32cd" stroke="#9a32cd" points="1745.18,-431.27 1741.89,-441.34 1750.74,-435.52 1745.18,-431.27"/>
<text text-anchor="middle" x="1821.5" y="-351" font-family="Helvetica,sans-Serif" font-size="10.00"> syst</text>
</g>
<!-- Node6&#45;&gt;Node21 -->
<g id="edge54" class="edge">
<title>Node6&#45;&gt;Node21</title>
<path fill="none" stroke="#9a32cd" stroke-dasharray="5,2" d="M1752.61,-434.35C1767.21,-421.99 1788.89,-405.97 1811,-398 1824.28,-393.21 1839.54,-391.1 1853.22,-390.3"/>
<polygon fill="#9a32cd" stroke="#9a32cd" points="1750.1,-431.89 1744.88,-441.11 1754.71,-437.16 1750.1,-431.89"/>
<text text-anchor="middle" x="1821.5" y="-401" font-family="Helvetica,sans-Serif" font-size="10.00"> syst</text>
</g>
<!-- Node7&#45;&gt;Node6 -->
<g id="edge10" class="edge">
<title>Node7&#45;&gt;Node6</title>
<path fill="none" stroke="#9a32cd" stroke-dasharray="5,2" d="M2033.91,-264.06C2020.9,-298.73 1988.56,-372.03 1936,-410 1894.62,-439.89 1836.59,-449.18 1793.43,-451.56"/>
<polygon fill="#9a32cd" stroke="#9a32cd" points="2037.21,-265.21 2037.32,-254.62 2030.63,-262.83 2037.21,-265.21"/>
<text text-anchor="middle" x="1893" y="-447" font-family="Helvetica,sans-Serif" font-size="10.00"> eq_int</text>
</g>
<!-- Node8&#45;&gt;Node6 -->
<g id="edge13" class="edge">
<title>Node8&#45;&gt;Node6</title>
<path fill="none" stroke="#9a32cd" stroke-dasharray="5,2" d="M1057.17,-571.9C1068.4,-578.55 1082.43,-585.82 1096,-590 1174.23,-614.09 1199.07,-610.3 1280,-598 1452.31,-571.81 1647.98,-488.93 1711.44,-460.6"/>
<polygon fill="#9a32cd" stroke="#9a32cd" points="1058.82,-568.8 1048.47,-566.54 1055.14,-574.76 1058.82,-568.8"/>
<text text-anchor="middle" x="1383" y="-589" font-family="Helvetica,sans-Serif" font-size="10.00"> espace</text>
</g>
<!-- Node8&#45;&gt;Node17 -->
<g id="edge40" class="edge">
<title>Node8&#45;&gt;Node17</title>
<path fill="none" stroke="#9a32cd" stroke-dasharray="5,2" d="M1079.69,-568.86C1129.67,-579.95 1212.13,-592.16 1280,-573 1318.13,-562.23 1354.98,-531.45 1372.07,-515.63"/>
<polygon fill="#9a32cd" stroke="#9a32cd" points="1080.36,-565.43 1069.83,-566.6 1078.79,-572.25 1080.36,-565.43"/>
<text text-anchor="middle" x="1226" y="-586" font-family="Helvetica,sans-Serif" font-size="10.00"> espace</text>
</g>
<!-- Node8&#45;&gt;Node19 -->
<g id="edge47" class="edge">
<title>Node8&#45;&gt;Node19</title>
<path fill="none" stroke="#9a32cd" stroke-dasharray="5,2" d="M1083.78,-556.2C1087.91,-556.13 1092.03,-556.06 1096,-556 1121.08,-555.6 1148.91,-555.17 1172.28,-554.81"/>
<polygon fill="#9a32cd" stroke="#9a32cd" points="1083.48,-552.7 1073.54,-556.36 1083.6,-559.7 1083.48,-552.7"/>
<text text-anchor="middle" x="1125" y="-559" font-family="Helvetica,sans-Serif" font-size="10.00"> space</text>
</g>
<!-- Node8&#45;&gt;Node21 -->
<g id="edge53" class="edge">
<title>Node8&#45;&gt;Node21</title>
<path fill="none" stroke="#9a32cd" stroke-dasharray="5,2" d="M1070.51,-543.87C1140.9,-518.72 1302.12,-463.61 1442,-434 1603.69,-399.78 1646.05,-398.24 1811,-388 1824.76,-387.15 1839.86,-387.38 1853.25,-388.01"/>
<polygon fill="#9a32cd" stroke="#9a32cd" points="1069.02,-540.69 1060.79,-547.36 1071.39,-547.28 1069.02,-540.69"/>
<text text-anchor="middle" x="1459" y="-437" font-family="Helvetica,sans-Serif" font-size="10.00"> espace</text>
</g>
<!-- Node9&#45;&gt;Node2 -->
<g id="edge60" class="edge">
<title>Node9&#45;&gt;Node2</title>
<path fill="none" stroke="#9a32cd" stroke-dasharray="5,2" d="M885.71,-385.44C918.69,-344.67 999.53,-244.75 1024.81,-213.5"/>
<polygon fill="#9a32cd" stroke="#9a32cd" points="882.83,-383.43 879.27,-393.4 888.28,-387.83 882.83,-383.43"/>
<text text-anchor="middle" x="951" y="-330" font-family="Helvetica,sans-Serif" font-size="10.00"> dom</text>
</g>
<!-- Node9&#45;&gt;Node8 -->
<g id="edge15" class="edge">
<title>Node9&#45;&gt;Node8</title>
<path fill="none" stroke="#9a32cd" stroke-dasharray="5,2" d="M888.86,-419.6C922.51,-451.79 995.67,-521.77 1022.43,-547.37"/>
<polygon fill="#9a32cd" stroke="#9a32cd" points="891.22,-417.02 881.57,-412.63 886.38,-422.07 891.22,-417.02"/>
<text text-anchor="middle" x="951" y="-496" font-family="Helvetica,sans-Serif" font-size="10.00"> domains</text>
</g>
<!-- Node9&#45;&gt;Node12 -->
<g id="edge28" class="edge">
<title>Node9&#45;&gt;Node12</title>
<path fill="none" stroke="#9a32cd" stroke-dasharray="5,2" d="M817.74,-402.08C815.12,-402.05 812.53,-402.02 810,-402 792.67,-401.85 788.31,-401.12 771,-402 765.27,-402.29 759.28,-402.72 753.33,-403.22"/>
<polygon fill="#9a32cd" stroke="#9a32cd" points="817.84,-405.58 827.89,-402.21 817.94,-398.58 817.84,-405.58"/>
<text text-anchor="middle" x="790.5" y="-405" font-family="Helvetica,sans-Serif" font-size="10.00"> zone</text>
</g>
<!-- Node10&#45;&gt;Node9 -->
<g id="edge17" class="edge">
<title>Node10&#45;&gt;Node9</title>
<path fill="none" stroke="#9a32cd" stroke-dasharray="5,2" d="M273.4,-546.72C404.51,-556.48 723.23,-573.43 810,-516 847.35,-491.28 862.8,-435.22 867.66,-412.66"/>
<polygon fill="#9a32cd" stroke="#9a32cd" points="273.41,-543.21 263.17,-545.95 272.88,-550.19 273.41,-543.21"/>
<text text-anchor="middle" x="592" y="-570" font-family="Helvetica,sans-Serif" font-size="10.00"> nbr_coefs</text>
<text text-anchor="middle" x="592" y="-559" font-family="Helvetica,sans-Serif" font-size="10.00">nbr_points</text>
</g>
<!-- Node10&#45;&gt;Node14 -->
<g id="edge31" class="edge">
<title>Node10&#45;&gt;Node14</title>
<path fill="none" stroke="#9a32cd" stroke-dasharray="5,2" d="M239.19,-557.27C291.05,-592.18 417.03,-676.99 459.36,-705.48"/>
<polygon fill="#9a32cd" stroke="#9a32cd" points="240.93,-554.23 230.68,-551.55 237.02,-560.04 240.93,-554.23"/>
<text text-anchor="middle" x="340.5" y="-662" font-family="Helvetica,sans-Serif" font-size="10.00"> sizes</text>
</g>
<!-- Node11&#45;&gt;Node6 -->
<g id="edge35" class="edge">
<title>Node11&#45;&gt;Node6</title>
<path fill="none" stroke="#9a32cd" stroke-dasharray="5,2" d="M544.25,-354.62C633.25,-341.72 793.27,-320.4 931,-312 1004.2,-307.53 1022.67,-311.22 1096,-311 1121.78,-310.92 1128.36,-308.32 1154,-311 1275.98,-323.74 1304.74,-339.39 1424,-368 1524.86,-392.19 1642.98,-425.33 1699.33,-441.43"/>
<polygon fill="#9a32cd" stroke="#9a32cd" points="543.67,-351.16 534.28,-356.07 544.68,-358.09 543.67,-351.16"/>
<text text-anchor="middle" x="1125" y="-314" font-family="Helvetica,sans-Serif" font-size="10.00"> val_cst_hard</text>
</g>
<!-- Node11&#45;&gt;Node9 -->
<g id="edge19" class="edge">
<title>Node11&#45;&gt;Node9</title>
<path fill="none" stroke="#9a32cd" stroke-dasharray="5,2" d="M544.45,-365.26C600.78,-366.25 682.35,-369.43 753,-379 778.89,-382.51 807.64,-388.41 830.1,-393.48"/>
<polygon fill="#9a32cd" stroke="#9a32cd" points="544.29,-361.76 534.23,-365.1 544.18,-368.76 544.29,-361.76"/>
<text text-anchor="middle" x="701.5" y="-382" font-family="Helvetica,sans-Serif" font-size="10.00"> coloc</text>
</g>
<!-- Node11&#45;&gt;Node12 -->
<g id="edge23" class="edge">
<title>Node11&#45;&gt;Node12</title>
<path fill="none" stroke="#9a32cd" stroke-dasharray="5,2" d="M544.56,-372.12C571.97,-375.62 603.66,-380.51 632,-387 646.25,-390.26 661.78,-395.14 674.44,-399.47"/>
<polygon fill="#9a32cd" stroke="#9a32cd" points="544.63,-368.6 534.27,-370.85 543.77,-375.55 544.63,-368.6"/>
<text text-anchor="middle" x="592" y="-401" font-family="Helvetica,sans-Serif" font-size="10.00"> c</text>
<text text-anchor="middle" x="592" y="-390" font-family="Helvetica,sans-Serif" font-size="10.00">cf</text>
</g>
<!-- Node12&#45;&gt;Node9 -->
<g id="edge21" class="edge">
<title>Node12&#45;&gt;Node9</title>
<path fill="none" stroke="#9a32cd" stroke-dasharray="5,2" d="M763.49,-415.69C778.7,-416.46 794.96,-416.5 810,-415 815.77,-414.42 821.8,-413.54 827.72,-412.51"/>
<polygon fill="#9a32cd" stroke="#9a32cd" points="763.35,-412.18 753.16,-415.06 762.92,-419.16 763.35,-412.18"/>
<text text-anchor="middle" x="790.5" y="-452" font-family="Helvetica,sans-Serif" font-size="10.00"> absol</text>
<text text-anchor="middle" x="790.5" y="-441" font-family="Helvetica,sans-Serif" font-size="10.00">cart</text>
<text text-anchor="middle" x="790.5" y="-430" font-family="Helvetica,sans-Serif" font-size="10.00">cart_surr</text>
<text text-anchor="middle" x="790.5" y="-419" font-family="Helvetica,sans-Serif" font-size="10.00">radius</text>
</g>
<!-- Node12&#45;&gt;Node12 -->
<g id="edge24" class="edge">
<title>Node12&#45;&gt;Node12</title>
<path fill="none" stroke="#9a32cd" stroke-dasharray="5,2" d="M685.2,-428.4C686.29,-433.31 691.72,-437 701.5,-437 717.14,-437 721.66,-427.57 715.06,-418.76"/>
<polygon fill="#9a32cd" stroke="#9a32cd" points="688.58,-429.33 687.94,-418.76 681.84,-427.42 688.58,-429.33"/>
<text text-anchor="middle" x="701.5" y="-451" font-family="Helvetica,sans-Serif" font-size="10.00"> p_der_abs</text>
<text text-anchor="middle" x="701.5" y="-440" font-family="Helvetica,sans-Serif" font-size="10.00">p_der_var</text>
</g>
<!-- Node18 -->
<g id="node18" class="node">
<title>Node18</title>
<g id="a_node18"><a xlink:href="classKadath_1_1Scalar.html" target="_top" xlink:title=" ">
<polygon fill="none" stroke="black" points="1499,-445.5 1499,-464.5 1579,-464.5 1579,-445.5 1499,-445.5"/>
<text text-anchor="middle" x="1539" y="-452.5" font-family="Helvetica,sans-Serif" font-size="10.00">Kadath::Scalar</text>
</a>
</g>
</g>
<!-- Node12&#45;&gt;Node18 -->
<g id="edge43" class="edge">
<title>Node12&#45;&gt;Node18</title>
<path fill="none" stroke="#9a32cd" stroke-dasharray="5,2" d="M750.61,-397.23C773.84,-392.1 802.21,-386.67 828,-384 918.41,-374.64 941.61,-382 1032.5,-382 1032.5,-382 1032.5,-382 1384,-382 1442.58,-382 1502.67,-425.67 1526.89,-445.46"/>
<polygon fill="#9a32cd" stroke="#9a32cd" points="749.65,-393.85 740.67,-399.47 751.19,-400.68 749.65,-393.85"/>
<text text-anchor="middle" x="1125" y="-385" font-family="Helvetica,sans-Serif" font-size="10.00"> val_zones</text>
</g>
<!-- Node13&#45;&gt;Node12 -->
<g id="edge25" class="edge">
<title>Node13&#45;&gt;Node12</title>
<path fill="none" stroke="#9a32cd" stroke-dasharray="5,2" d="M541.68,-413.07C569.57,-413.63 602.37,-413.86 632,-413 637.72,-412.83 643.7,-412.59 649.64,-412.3"/>
<polygon fill="#9a32cd" stroke="#9a32cd" points="541.72,-409.57 531.65,-412.86 541.57,-416.57 541.72,-409.57"/>
<text text-anchor="middle" x="592" y="-416" font-family="Helvetica,sans-Serif" font-size="10.00"> base</text>
</g>
<!-- Node14&#45;&gt;Node6 -->
<g id="edge29" class="edge">
<title>Node14&#45;&gt;Node6</title>
<path fill="none" stroke="#9a32cd" stroke-dasharray="5,2" d="M522.29,-715C567.8,-715 638.89,-715 700.5,-715 700.5,-715 700.5,-715 1540,-715 1548.03,-715 1692.54,-508.34 1725.74,-460.71"/>
<polygon fill="#9a32cd" stroke="#9a32cd" points="522.13,-711.5 512.13,-715 522.13,-718.5 522.13,-711.5"/>
<text text-anchor="middle" x="1125" y="-718" font-family="Helvetica,sans-Serif" font-size="10.00"> which_coef</text>
</g>
<!-- Node15&#45;&gt;Node6 -->
<g id="edge33" class="edge">
<title>Node15&#45;&gt;Node6</title>
<path fill="none" stroke="#9a32cd" stroke-dasharray="5,2" d="M642.36,-753C682.1,-753 739.39,-753 789.5,-753 789.5,-753 789.5,-753 1460,-753 1503.97,-753 1625.59,-757.75 1656,-726 1685.49,-695.21 1659.34,-575.03 1674,-535 1685,-504.96 1709.45,-475.64 1723,-460.87"/>
<polygon fill="#9a32cd" stroke="#9a32cd" points="642.15,-749.5 632.15,-753 642.15,-756.5 642.15,-749.5"/>
<text text-anchor="middle" x="1125" y="-767" font-family="Helvetica,sans-Serif" font-size="10.00"> paruser</text>
<text text-anchor="middle" x="1125" y="-756" font-family="Helvetica,sans-Serif" font-size="10.00">paruser_bin</text>
</g>
<!-- Node16&#45;&gt;Node6 -->
<g id="edge36" class="edge">
<title>Node16&#45;&gt;Node6</title>
<path fill="none" stroke="#9a32cd" stroke-dasharray="5,2" d="M1582.53,-778.48C1613.42,-769.03 1650.71,-756.74 1656,-751 1697.14,-706.32 1725.26,-506.72 1731.29,-460.55"/>
<polygon fill="#9a32cd" stroke="#9a32cd" points="1581.33,-775.19 1572.77,-781.44 1583.36,-781.89 1581.33,-775.19"/>
<text text-anchor="middle" x="1629" y="-840" font-family="Helvetica,sans-Serif" font-size="10.00"> cst</text>
<text text-anchor="middle" x="1629" y="-829" font-family="Helvetica,sans-Serif" font-size="10.00">cst_hard</text>
<text text-anchor="middle" x="1629" y="-818" font-family="Helvetica,sans-Serif" font-size="10.00">opeuser</text>
<text text-anchor="middle" x="1629" y="-807" font-family="Helvetica,sans-Serif" font-size="10.00">opeuser_bin</text>
<text text-anchor="middle" x="1629" y="-796" font-family="Helvetica,sans-Serif" font-size="10.00">results</text>
<text text-anchor="middle" x="1629" y="-785" font-family="Helvetica,sans-Serif" font-size="10.00">term</text>
<text text-anchor="middle" x="1629" y="-774" font-family="Helvetica,sans-Serif" font-size="10.00">term_double</text>
</g>
<!-- Node16&#45;&gt;Node21 -->
<g id="edge55" class="edge">
<title>Node16&#45;&gt;Node21</title>
<path fill="none" stroke="#9a32cd" stroke-dasharray="5,2" d="M1552.21,-808.8C1563.3,-823.24 1581.07,-842.53 1602,-851 1624.25,-860 1635.92,-864.15 1656,-851 1678.56,-836.22 1830.29,-424.41 1850,-406 1852.26,-403.89 1854.84,-402.07 1857.59,-400.5"/>
<polygon fill="#9a32cd" stroke="#9a32cd" points="1554.94,-806.59 1546.21,-800.58 1549.28,-810.72 1554.94,-806.59"/>
<text text-anchor="middle" x="1733.5" y="-898" font-family="Helvetica,sans-Serif" font-size="10.00"> p_christo</text>
<text text-anchor="middle" x="1733.5" y="-887" font-family="Helvetica,sans-Serif" font-size="10.00">p_det_cov</text>
<text text-anchor="middle" x="1733.5" y="-876" font-family="Helvetica,sans-Serif" font-size="10.00">p_dirac</text>
<text text-anchor="middle" x="1733.5" y="-865" font-family="Helvetica,sans-Serif" font-size="10.00">p_met_con</text>
<text text-anchor="middle" x="1733.5" y="-854" font-family="Helvetica,sans-Serif" font-size="10.00">p_met_cov</text>
<text text-anchor="middle" x="1733.5" y="-843" font-family="Helvetica,sans-Serif" font-size="10.00">p_ricci_scalar</text>
<text text-anchor="middle" x="1733.5" y="-832" font-family="Helvetica,sans-Serif" font-size="10.00">p_ricci_tensor</text>
<text text-anchor="middle" x="1733.5" y="-821" font-family="Helvetica,sans-Serif" font-size="10.00">p_riemann</text>
</g>
<!-- Node16&#45;&gt;Node22 -->
<g id="edge59" class="edge">
<title>Node16&#45;&gt;Node22</title>
<path fill="none" stroke="#9a32cd" stroke-dasharray="5,2" d="M1551.41,-809.07C1562.74,-826.02 1581.38,-851.34 1602,-869 1629.96,-892.96 1638.4,-900.57 1674,-910 1804.31,-944.5 1965.47,-879.02 2020.79,-853.54"/>
<polygon fill="#9a32cd" stroke="#9a32cd" points="1554.29,-807.07 1545.89,-800.61 1548.42,-810.9 1554.29,-807.07"/>
<text text-anchor="middle" x="1821.5" y="-919" font-family="Helvetica,sans-Serif" font-size="10.00"> res</text>
</g>
<!-- Node17&#45;&gt;Node6 -->
<g id="edge56" class="edge">
<title>Node17&#45;&gt;Node6</title>
<path fill="none" stroke="#9a32cd" stroke-dasharray="5,2" d="M1434.4,-498.4C1447.91,-496.34 1462.52,-494.1 1476,-492 1543.95,-481.4 1621.97,-468.88 1673.94,-460.49"/>
<polygon fill="#9a32cd" stroke="#9a32cd" points="1433.68,-494.97 1424.31,-499.93 1434.73,-501.89 1433.68,-494.97"/>
<text text-anchor="middle" x="1539" y="-491" font-family="Helvetica,sans-Serif" font-size="10.00"> var</text>
</g>
<!-- Node17&#45;&gt;Node16 -->
<g id="edge38" class="edge">
<title>Node17&#45;&gt;Node16</title>
<path fill="none" stroke="#9a32cd" stroke-dasharray="5,2" d="M1394.18,-524.84C1424.01,-580.04 1510.46,-740.03 1532.72,-781.23"/>
<polygon fill="#9a32cd" stroke="#9a32cd" points="1397.13,-522.94 1389.3,-515.81 1390.98,-526.27 1397.13,-522.94"/>
<text text-anchor="middle" x="1459" y="-688" font-family="Helvetica,sans-Serif" font-size="10.00"> der_t</text>
<text text-anchor="middle" x="1459" y="-677" font-family="Helvetica,sans-Serif" font-size="10.00">val_t</text>
</g>
<!-- Node17&#45;&gt;Node18 -->
<g id="edge42" class="edge">
<title>Node17&#45;&gt;Node18</title>
<path fill="none" stroke="midnightblue" d="M1422.81,-493.15C1449.65,-484.26 1484.79,-472.62 1509.16,-464.55"/>
<polygon fill="midnightblue" stroke="midnightblue" points="1421.36,-489.94 1412.97,-496.41 1423.56,-496.59 1421.36,-489.94"/>
</g>
<!-- Node18&#45;&gt;Node17 -->
<g id="edge41" class="edge">
<title>Node18&#45;&gt;Node17</title>
<path fill="none" stroke="#9a32cd" stroke-dasharray="5,2" d="M1488.26,-449.04C1473,-448.91 1456.44,-450.55 1442,-456 1420.36,-464.17 1401.34,-484.33 1391.38,-496.41"/>
<polygon fill="#9a32cd" stroke="#9a32cd" points="1488.45,-452.55 1498.56,-449.39 1488.69,-445.55 1488.45,-452.55"/>
<text text-anchor="middle" x="1459" y="-459" font-family="Helvetica,sans-Serif" font-size="10.00"> cmp</text>
</g>
<!-- Node19&#45;&gt;Node17 -->
<g id="edge45" class="edge">
<title>Node19&#45;&gt;Node17</title>
<path fill="none" stroke="#9a32cd" stroke-dasharray="5,2" d="M1267.61,-541.42C1293.71,-533.34 1327.1,-523 1351.06,-515.58"/>
<polygon fill="#9a32cd" stroke="#9a32cd" points="1266.51,-538.1 1257.99,-544.4 1268.58,-544.79 1266.51,-538.1"/>
<text text-anchor="middle" x="1311" y="-534" font-family="Helvetica,sans-Serif" font-size="10.00"> basis</text>
</g>
<!-- Node20&#45;&gt;Node17 -->
<g id="edge49" class="edge">
<title>Node20&#45;&gt;Node17</title>
<path fill="none" stroke="#9a32cd" stroke-dasharray="5,2" d="M407.26,-517.24C604,-514.97 1184.14,-508.28 1341.97,-506.46"/>
<polygon fill="#9a32cd" stroke="#9a32cd" points="407.03,-513.74 397.07,-517.36 407.11,-520.74 407.03,-513.74"/>
<text text-anchor="middle" x="870.5" y="-515" font-family="Helvetica,sans-Serif" font-size="10.00"> parameters</text>
</g>
<!-- Node21&#45;&gt;Node6 -->
<g id="edge51" class="edge">
<title>Node21&#45;&gt;Node6</title>
<path fill="none" stroke="#9a32cd" stroke-dasharray="5,2" d="M1857.37,-404.19C1827.76,-415.47 1785.87,-431.43 1759.46,-441.49"/>
<polygon fill="#9a32cd" stroke="#9a32cd" points="1858.8,-407.39 1866.9,-400.56 1856.31,-400.85 1858.8,-407.39"/>
<text text-anchor="middle" x="1821.5" y="-424" font-family="Helvetica,sans-Serif" font-size="10.00"> met</text>
</g>
<!-- Node22&#45;&gt;Node6 -->
<g id="edge57" class="edge">
<title>Node22&#45;&gt;Node6</title>
<path fill="none" stroke="#9a32cd" stroke-dasharray="5,2" d="M2026.59,-826.14C1973.23,-757.6 1782.49,-512.64 1742.06,-460.71"/>
<polygon fill="#9a32cd" stroke="#9a32cd" points="2024.02,-828.53 2032.93,-834.27 2029.54,-824.23 2024.02,-828.53"/>
<text text-anchor="middle" x="1893" y="-708" font-family="Helvetica,sans-Serif" font-size="10.00"> def</text>
</g>
</g>
</svg>
