<?xml version="1.0" encoding="UTF-8" standalone="no"?>
<!DOCTYPE svg PUBLIC "-//W3C//DTD SVG 1.1//EN"
 "http://www.w3.org/Graphics/SVG/1.1/DTD/svg11.dtd">
<!-- Generated by graphviz version 2.47.1 (20210515.0534)
 -->
<!-- Title: Configurator Pages: 1 -->
<svg width="215pt" height="138pt"
 viewBox="0.00 0.00 215.00 138.00" xmlns="http://www.w3.org/2000/svg" xmlns:xlink="http://www.w3.org/1999/xlink">
<g id="graph0" class="graph" transform="scale(1 1) rotate(0) translate(4 134)">
<title>Configurator</title>
<!-- Node3 -->
<g id="node1" class="node">
<title>Node3</title>
<g id="a_node1"><a xlink:href="group__Configurator__Utils.html" target="_top" xlink:title=" ">
<polygon fill="none" stroke="black" points="202.5,-130 108.5,-130 108.5,-111 202.5,-111 202.5,-130"/>
<text text-anchor="middle" x="155.5" y="-118" font-family="Helvetica,sans-Serif" font-size="10.00">Configurator_Utils</text>
</a>
</g>
</g>
<!-- Node5 -->
<g id="node2" class="node">
<title>Node5</title>
<g id="a_node2"><a xlink:href="group__Containers.html" target="_top" xlink:title=" ">
<polygon fill="none" stroke="black" points="187,-93 124,-93 124,-74 187,-74 187,-93"/>
<text text-anchor="middle" x="155.5" y="-81" font-family="Helvetica,sans-Serif" font-size="10.00">Containers</text>
</a>
</g>
</g>
<!-- Node2 -->
<g id="node3" class="node">
<title>Node2</title>
<g id="a_node3"><a xlink:href="group__Configurator__enums.html" target="_top" xlink:title=" ">
<polygon fill="none" stroke="black" points="207,-56 104,-56 104,-37 207,-37 207,-56"/>
<text text-anchor="middle" x="155.5" y="-44" font-family="Helvetica,sans-Serif" font-size="10.00">Configurator_enums</text>
</a>
</g>
</g>
<!-- Node4 -->
<g id="node4" class="node">
<title>Node4</title>
<g id="a_node4"><a xlink:href="group__pyConfigurator.html" target="_top" xlink:title=" ">
<polygon fill="none" stroke="black" points="195.5,-19 115.5,-19 115.5,0 195.5,0 195.5,-19"/>
<text text-anchor="middle" x="155.5" y="-7" font-family="Helvetica,sans-Serif" font-size="10.00">PyConfigurator</text>
</a>
</g>
</g>
<!-- Node1 -->
<g id="node5" class="node">
<title>Node1</title>
<g id="a_node5"><a xlink:title=" ">
<polygon fill="#bfbfbf" stroke="black" points="68,-74 0,-74 0,-55 68,-55 68,-74"/>
<text text-anchor="middle" x="34" y="-62" font-family="Helvetica,sans-Serif" font-size="10.00">Configurator</text>
</a>
</g>
</g>
<!-- Node1&#45;&gt;Node3 -->
<g id="edge2" class="edge">
<title>Node1&#45;&gt;Node3</title>
<path fill="none" stroke="black" d="M59.58,-79.3C72.53,-86.77 88.85,-95.68 104,-102.5 110.71,-105.52 118.08,-108.39 125.08,-110.91"/>
<polygon fill="black" stroke="black" points="61.2,-76.19 50.8,-74.16 57.66,-82.23 61.2,-76.19"/>
</g>
<!-- Node1&#45;&gt;Node5 -->
<g id="edge4" class="edge">
<title>Node1&#45;&gt;Node5</title>
<path fill="none" stroke="black" d="M78.42,-71.4C93.48,-73.8 110.03,-76.43 123.85,-78.63"/>
<polygon fill="black" stroke="black" points="78.71,-67.91 68.29,-69.79 77.61,-74.82 78.71,-67.91"/>
</g>
<!-- Node1&#45;&gt;Node2 -->
<g id="edge1" class="edge">
<title>Node1&#45;&gt;Node2</title>
<path fill="none" stroke="black" d="M78.2,-57.99C86.56,-56.73 95.38,-55.4 103.95,-54.11"/>
<polygon fill="black" stroke="black" points="77.65,-54.54 68.29,-59.49 78.7,-61.46 77.65,-54.54"/>
</g>
<!-- Node1&#45;&gt;Node4 -->
<g id="edge3" class="edge">
<title>Node1&#45;&gt;Node4</title>
<path fill="none" stroke="black" d="M61.13,-49.92C73.88,-43.04 89.55,-34.96 104,-28.5 111.44,-25.17 119.66,-21.91 127.26,-19.06"/>
<polygon fill="black" stroke="black" points="59.12,-47.03 52.01,-54.89 62.47,-53.17 59.12,-47.03"/>
</g>
</g>
</svg>
