<?xml version="1.0" encoding="UTF-8" standalone="no"?>
<!DOCTYPE svg PUBLIC "-//W3C//DTD SVG 1.1//EN"
 "http://www.w3.org/Graphics/SVG/1.1/DTD/svg11.dtd">
<!-- Generated by graphviz version 2.47.1 (20210515.0534)
 -->
<!-- Title: FUKA Pages: 1 -->
<svg width="183pt" height="397pt"
 viewBox="0.00 0.00 183.00 397.00" xmlns="http://www.w3.org/2000/svg" xmlns:xlink="http://www.w3.org/1999/xlink">
<g id="graph0" class="graph" transform="scale(1 1) rotate(0) translate(4 393)">
<title>FUKA</title>
<!-- Node2 -->
<g id="node1" class="node">
<title>Node2</title>
<g id="a_node1"><a xlink:href="group__FUKA__BCO__Utils.html" target="_top" xlink:title=" ">
<polygon fill="none" stroke="black" points="175,-389 80,-389 80,-370 175,-370 175,-389"/>
<text text-anchor="middle" x="127.5" y="-377" font-family="Helvetica,sans-Serif" font-size="10.00">FUKA_BCO_Utils</text>
</a>
</g>
</g>
<!-- Node6 -->
<g id="node2" class="node">
<title>Node6</title>
<g id="a_node2"><a xlink:href="group__BH__XCTS.html" target="_top" xlink:title=" ">
<polygon fill="none" stroke="black" points="158.5,-352 96.5,-352 96.5,-333 158.5,-333 158.5,-352"/>
<text text-anchor="middle" x="127.5" y="-340" font-family="Helvetica,sans-Serif" font-size="10.00">BH_XCTS</text>
</a>
</g>
</g>
<!-- Node4 -->
<g id="node3" class="node">
<title>Node4</title>
<g id="a_node3"><a xlink:href="group__BBH__XCTS.html" target="_top" xlink:title=" ">
<polygon fill="none" stroke="black" points="162,-315 93,-315 93,-296 162,-296 162,-315"/>
<text text-anchor="middle" x="127.5" y="-303" font-family="Helvetica,sans-Serif" font-size="10.00">BBH_XCTS</text>
</a>
</g>
</g>
<!-- Node3 -->
<g id="node4" class="node">
<title>Node3</title>
<g id="a_node4"><a xlink:href="group__NS__XCTS.html" target="_top" xlink:title=" ">
<polygon fill="none" stroke="black" points="158.5,-278 96.5,-278 96.5,-259 158.5,-259 158.5,-278"/>
<text text-anchor="middle" x="127.5" y="-266" font-family="Helvetica,sans-Serif" font-size="10.00">NS_XCTS</text>
</a>
</g>
</g>
<!-- Node12 -->
<g id="node5" class="node">
<title>Node12</title>
<g id="a_node5"><a xlink:href="group__Solver__base.html" target="_top" xlink:title=" ">
<polygon fill="none" stroke="black" points="163,-241 92,-241 92,-222 163,-222 163,-241"/>
<text text-anchor="middle" x="127.5" y="-229" font-family="Helvetica,sans-Serif" font-size="10.00">Solver_base</text>
</a>
</g>
</g>
<!-- Node10 -->
<g id="node6" class="node">
<title>Node10</title>
<g id="a_node6"><a xlink:href="group__Sequences.html" target="_top" xlink:title=" ">
<polygon fill="none" stroke="black" points="160,-204 95,-204 95,-185 160,-185 160,-204"/>
<text text-anchor="middle" x="127.5" y="-192" font-family="Helvetica,sans-Serif" font-size="10.00">Sequences</text>
</a>
</g>
</g>
<!-- Node8 -->
<g id="node7" class="node">
<title>Node8</title>
<g id="a_node7"><a xlink:href="group__BNS__XCTS.html" target="_top" xlink:title=" ">
<polygon fill="none" stroke="black" points="162,-167 93,-167 93,-148 162,-148 162,-167"/>
<text text-anchor="middle" x="127.5" y="-155" font-family="Helvetica,sans-Serif" font-size="10.00">BNS_XCTS</text>
</a>
</g>
</g>
<!-- Node7 -->
<g id="node8" class="node">
<title>Node7</title>
<g id="a_node8"><a xlink:href="group__BHNS__XCTS.html" target="_top" xlink:title=" ">
<polygon fill="none" stroke="black" points="166,-130 89,-130 89,-111 166,-111 166,-130"/>
<text text-anchor="middle" x="127.5" y="-118" font-family="Helvetica,sans-Serif" font-size="10.00">BHNS_XCTS</text>
</a>
</g>
</g>
<!-- Node5 -->
<g id="node9" class="node">
<title>Node5</title>
<g id="a_node9"><a xlink:href="group__Solver__utils.html" target="_top" xlink:title=" ">
<polygon fill="none" stroke="black" points="161.5,-93 93.5,-93 93.5,-74 161.5,-74 161.5,-93"/>
<text text-anchor="middle" x="127.5" y="-81" font-family="Helvetica,sans-Serif" font-size="10.00">Solver_utils</text>
</a>
</g>
</g>
<!-- Node9 -->
<g id="node10" class="node">
<title>Node9</title>
<g id="a_node10"><a xlink:href="group__Syst__tools.html" target="_top" xlink:title=" ">
<polygon fill="none" stroke="black" points="158.5,-56 96.5,-56 96.5,-37 158.5,-37 158.5,-56"/>
<text text-anchor="middle" x="127.5" y="-44" font-family="Helvetica,sans-Serif" font-size="10.00">Syst_tools</text>
</a>
</g>
</g>
<!-- Node11 -->
<g id="node11" class="node">
<title>Node11</title>
<g id="a_node11"><a xlink:href="group__Solver__startup.html" target="_top" xlink:title=" ">
<polygon fill="none" stroke="black" points="167.5,-19 87.5,-19 87.5,0 167.5,0 167.5,-19"/>
<text text-anchor="middle" x="127.5" y="-7" font-family="Helvetica,sans-Serif" font-size="10.00">Solver_startup</text>
</a>
</g>
</g>
<!-- Node1 -->
<g id="node12" class="node">
<title>Node1</title>
<g id="a_node12"><a xlink:title=" ">
<polygon fill="#bfbfbf" stroke="black" points="44,-204 0,-204 0,-185 44,-185 44,-204"/>
<text text-anchor="middle" x="22" y="-192" font-family="Helvetica,sans-Serif" font-size="10.00">FUKA</text>
</a>
</g>
</g>
<!-- Node1&#45;&gt;Node2 -->
<g id="edge1" class="edge">
<title>Node1&#45;&gt;Node2</title>
<path fill="none" stroke="black" d="M24.45,-214.43C27.98,-248.86 39.96,-319.81 80,-361.5 83.24,-364.87 87.18,-367.62 91.38,-369.86"/>
<polygon fill="black" stroke="black" points="27.91,-213.9 23.54,-204.24 20.94,-214.51 27.91,-213.9"/>
</g>
<!-- Node1&#45;&gt;Node6 -->
<g id="edge5" class="edge">
<title>Node1&#45;&gt;Node6</title>
<path fill="none" stroke="black" d="M26.61,-213.92C32.78,-241.97 47.94,-293.81 80,-324.5 84.63,-328.93 90.47,-332.3 96.43,-334.86"/>
<polygon fill="black" stroke="black" points="30.03,-213.21 24.6,-204.11 23.17,-214.61 30.03,-213.21"/>
</g>
<!-- Node1&#45;&gt;Node4 -->
<g id="edge3" class="edge">
<title>Node1&#45;&gt;Node4</title>
<path fill="none" stroke="black" d="M30.24,-213.45C39.07,-234.25 55.86,-267.37 80,-287.5 83.99,-290.83 88.66,-293.58 93.48,-295.85"/>
<polygon fill="black" stroke="black" points="33.44,-212.04 26.45,-204.08 26.95,-214.66 33.44,-212.04"/>
</g>
<!-- Node1&#45;&gt;Node3 -->
<g id="edge2" class="edge">
<title>Node1&#45;&gt;Node3</title>
<path fill="none" stroke="black" d="M37.14,-211.73C47.86,-223.9 63.52,-239.87 80,-250.5 84.95,-253.69 90.55,-256.46 96.1,-258.8"/>
<polygon fill="black" stroke="black" points="39.71,-209.36 30.55,-204.03 34.39,-213.9 39.71,-209.36"/>
</g>
<!-- Node1&#45;&gt;Node12 -->
<g id="edge11" class="edge">
<title>Node1&#45;&gt;Node12</title>
<path fill="none" stroke="black" d="M53.82,-205.52C68.44,-210.74 85.75,-216.93 99.8,-221.96"/>
<polygon fill="black" stroke="black" points="54.79,-202.15 44.19,-202.08 52.43,-208.74 54.79,-202.15"/>
</g>
<!-- Node1&#45;&gt;Node10 -->
<g id="edge9" class="edge">
<title>Node1&#45;&gt;Node10</title>
<path fill="none" stroke="black" d="M54.38,-194.5C67.15,-194.5 81.9,-194.5 94.72,-194.5"/>
<polygon fill="black" stroke="black" points="54.19,-191 44.19,-194.5 54.19,-198 54.19,-191"/>
</g>
<!-- Node1&#45;&gt;Node8 -->
<g id="edge7" class="edge">
<title>Node1&#45;&gt;Node8</title>
<path fill="none" stroke="black" d="M53.82,-183.48C68.44,-178.26 85.75,-172.07 99.8,-167.04"/>
<polygon fill="black" stroke="black" points="52.43,-180.26 44.19,-186.92 54.79,-186.85 52.43,-180.26"/>
</g>
<!-- Node1&#45;&gt;Node7 -->
<g id="edge6" class="edge">
<title>Node1&#45;&gt;Node7</title>
<path fill="none" stroke="black" d="M37.63,-177.27C48.39,-165.42 63.9,-150 80,-139.5 85.55,-135.88 91.91,-132.74 98.1,-130.1"/>
<polygon fill="black" stroke="black" points="34.98,-174.98 30.98,-184.79 40.23,-179.61 34.98,-174.98"/>
</g>
<!-- Node1&#45;&gt;Node5 -->
<g id="edge4" class="edge">
<title>Node1&#45;&gt;Node5</title>
<path fill="none" stroke="black" d="M30.5,-175.52C39.47,-154.99 56.31,-122.53 80,-102.5 84.39,-98.78 89.61,-95.72 94.94,-93.22"/>
<polygon fill="black" stroke="black" points="27.25,-174.21 26.63,-184.78 33.71,-176.9 27.25,-174.21"/>
</g>
<!-- Node1&#45;&gt;Node9 -->
<g id="edge8" class="edge">
<title>Node1&#45;&gt;Node9</title>
<path fill="none" stroke="black" d="M26.9,-174.53C33.33,-146.62 48.68,-95.95 80,-65.5 84.63,-61 90.46,-57.52 96.43,-54.83"/>
<polygon fill="black" stroke="black" points="23.4,-174.15 24.74,-184.66 30.25,-175.61 23.4,-174.15"/>
</g>
<!-- Node1&#45;&gt;Node11 -->
<g id="edge10" class="edge">
<title>Node1&#45;&gt;Node11</title>
<path fill="none" stroke="black" d="M24.56,-174.77C28.28,-140.65 40.53,-70.3 80,-28.5 83.59,-24.7 88.06,-21.63 92.78,-19.17"/>
<polygon fill="black" stroke="black" points="21.07,-174.57 23.6,-184.85 28.03,-175.23 21.07,-174.57"/>
</g>
</g>
</svg>
