<?xml version="1.0" encoding="UTF-8" standalone="no"?>
<!DOCTYPE svg PUBLIC "-//W3C//DTD SVG 1.1//EN"
 "http://www.w3.org/Graphics/SVG/1.1/DTD/svg11.dtd">
<!-- Generated by graphviz version 2.47.1 (20210515.0534)
 -->
<!-- Title: Graphical Class Hierarchy Pages: 1 -->
<svg width="783pt" height="165pt"
 viewBox="0.00 0.00 783.00 165.00" xmlns="http://www.w3.org/2000/svg" xmlns:xlink="http://www.w3.org/1999/xlink">
<g id="graph0" class="graph" transform="scale(1 1) rotate(0) translate(4 161)">
<title>Graphical Class Hierarchy</title>
<!-- Node51 -->
<g id="node1" class="node">
<title>Node51</title>
<g id="a_node1"><a xlink:title=" ">
<polygon fill="none" stroke="#bfbfbf" points="0,-96.5 0,-115.5 50,-115.5 50,-96.5 0,-96.5"/>
<text text-anchor="middle" x="25" y="-103.5" font-family="Helvetica,sans-Serif" font-size="10.00">Functor</text>
</a>
</g>
</g>
<!-- Node0 -->
<g id="node2" class="node">
<title>Node0</title>
<g id="a_node2"><a xlink:href="structska_1_1detailv3_1_1functor__storage.html" target="_top" xlink:title=" ">
<polygon fill="none" stroke="black" points="86,-91 86,-121 223,-121 223,-91 86,-91"/>
<text text-anchor="start" x="94" y="-109" font-family="Helvetica,sans-Serif" font-size="10.00">ska::detailv3::functor</text>
<text text-anchor="middle" x="154.5" y="-98" font-family="Helvetica,sans-Serif" font-size="10.00">_storage&lt; Result, Functor &gt;</text>
</a>
</g>
</g>
<!-- Node51&#45;&gt;Node0 -->
<g id="edge1" class="edge">
<title>Node51&#45;&gt;Node0</title>
<path fill="none" stroke="midnightblue" d="M60.5,-106C68.38,-106 77.03,-106 85.77,-106"/>
<polygon fill="midnightblue" stroke="midnightblue" points="60.28,-102.5 50.28,-106 60.28,-109.5 60.28,-102.5"/>
</g>
<!-- Node1 -->
<g id="node3" class="node">
<title>Node1</title>
<g id="a_node3"><a xlink:href="structska_1_1detailv3_1_1KeyOrValueEquality.html" target="_top" xlink:title=" ">
<polygon fill="none" stroke="black" points="259,-115.5 259,-156.5 402,-156.5 402,-115.5 259,-115.5"/>
<text text-anchor="start" x="267" y="-144.5" font-family="Helvetica,sans-Serif" font-size="10.00">ska::detailv3::KeyOrValue</text>
<text text-anchor="start" x="267" y="-133.5" font-family="Helvetica,sans-Serif" font-size="10.00">Equality&lt; K, std::pair</text>
<text text-anchor="middle" x="330.5" y="-122.5" font-family="Helvetica,sans-Serif" font-size="10.00">&lt; K, V &gt;, std::equal_to&lt; K &gt; &gt;</text>
</a>
</g>
</g>
<!-- Node0&#45;&gt;Node1 -->
<g id="edge2" class="edge">
<title>Node0&#45;&gt;Node1</title>
<path fill="none" stroke="midnightblue" d="M233.19,-119.39C241.7,-120.86 250.33,-122.35 258.75,-123.8"/>
<polygon fill="midnightblue" stroke="midnightblue" points="233.72,-115.93 223.27,-117.68 232.53,-122.83 233.72,-115.93"/>
</g>
<!-- Node4 -->
<g id="node6" class="node">
<title>Node4</title>
<g id="a_node6"><a xlink:href="structska_1_1detailv3_1_1KeyOrValueHasher.html" target="_top" xlink:title=" ">
<polygon fill="none" stroke="black" points="267,-55.5 267,-96.5 394,-96.5 394,-55.5 267,-55.5"/>
<text text-anchor="start" x="275" y="-84.5" font-family="Helvetica,sans-Serif" font-size="10.00">ska::detailv3::KeyOrValue</text>
<text text-anchor="start" x="275" y="-73.5" font-family="Helvetica,sans-Serif" font-size="10.00">Hasher&lt; K, std::pair&lt; K,</text>
<text text-anchor="middle" x="330.5" y="-62.5" font-family="Helvetica,sans-Serif" font-size="10.00"> V &gt;, std::hash&lt; K &gt; &gt;</text>
</a>
</g>
</g>
<!-- Node0&#45;&gt;Node4 -->
<g id="edge5" class="edge">
<title>Node0&#45;&gt;Node4</title>
<path fill="none" stroke="midnightblue" d="M233.43,-92.56C244.59,-90.64 255.94,-88.68 266.75,-86.82"/>
<polygon fill="midnightblue" stroke="midnightblue" points="232.53,-89.17 223.27,-94.32 233.72,-96.07 232.53,-89.17"/>
</g>
<!-- Node2 -->
<g id="node4" class="node">
<title>Node2</title>
<g id="a_node4"><a xlink:href="classska_1_1detailv3_1_1sherwood__v3__table.html" target="_top" xlink:title=" ">
<polygon fill="none" stroke="black" points="438,-0.5 438,-151.5 639,-151.5 639,-0.5 438,-0.5"/>
<text text-anchor="start" x="446" y="-139.5" font-family="Helvetica,sans-Serif" font-size="10.00">ska::detailv3::sherwood</text>
<text text-anchor="start" x="446" y="-128.5" font-family="Helvetica,sans-Serif" font-size="10.00">_v3_table&lt; std::pair&lt;</text>
<text text-anchor="start" x="446" y="-117.5" font-family="Helvetica,sans-Serif" font-size="10.00"> K, V &gt;, K, std::hash&lt;</text>
<text text-anchor="start" x="446" y="-106.5" font-family="Helvetica,sans-Serif" font-size="10.00"> K &gt;, detailv3::KeyOrValueHasher</text>
<text text-anchor="start" x="446" y="-95.5" font-family="Helvetica,sans-Serif" font-size="10.00">&lt; K, std::pair&lt; K, V &gt;, std::</text>
<text text-anchor="start" x="446" y="-84.5" font-family="Helvetica,sans-Serif" font-size="10.00">hash&lt; K &gt; &gt;, std::equal_to&lt; K</text>
<text text-anchor="start" x="446" y="-73.5" font-family="Helvetica,sans-Serif" font-size="10.00"> &gt;, detailv3::KeyOrValueEquality</text>
<text text-anchor="start" x="446" y="-62.5" font-family="Helvetica,sans-Serif" font-size="10.00">&lt; K, std::pair&lt; K, V &gt;, std::equal</text>
<text text-anchor="start" x="446" y="-51.5" font-family="Helvetica,sans-Serif" font-size="10.00">_to&lt; K &gt; &gt;, std::allocator&lt; std::pair</text>
<text text-anchor="start" x="446" y="-40.5" font-family="Helvetica,sans-Serif" font-size="10.00">&lt; K, V &gt; &gt;, std::allocator_traits&lt; std</text>
<text text-anchor="start" x="446" y="-29.5" font-family="Helvetica,sans-Serif" font-size="10.00">::allocator&lt; std::pair&lt; K, V &gt; &gt; &gt;::template</text>
<text text-anchor="start" x="446" y="-18.5" font-family="Helvetica,sans-Serif" font-size="10.00"> rebind_alloc&lt; detailv3::sherwood_v3_entry</text>
<text text-anchor="middle" x="538.5" y="-7.5" font-family="Helvetica,sans-Serif" font-size="10.00">&lt; std::pair&lt; K, V &gt; &gt; &gt; &gt;</text>
</a>
</g>
</g>
<!-- Node1&#45;&gt;Node2 -->
<g id="edge3" class="edge">
<title>Node1&#45;&gt;Node2</title>
<path fill="none" stroke="#8b1a1a" d="M411.96,-112.56C420.46,-110.09 429.16,-107.55 437.84,-105.03"/>
<polygon fill="#8b1a1a" stroke="#8b1a1a" points="410.73,-109.28 402.11,-115.44 412.69,-116 410.73,-109.28"/>
</g>
<!-- Node3 -->
<g id="node5" class="node">
<title>Node3</title>
<g id="a_node5"><a xlink:href="classska_1_1flat__hash__map.html" target="_top" xlink:title=" ">
<polygon fill="none" stroke="black" points="675,-61 675,-91 775,-91 775,-61 675,-61"/>
<text text-anchor="start" x="683" y="-79" font-family="Helvetica,sans-Serif" font-size="10.00">ska::flat_hash_map</text>
<text text-anchor="middle" x="725" y="-68" font-family="Helvetica,sans-Serif" font-size="10.00">&lt; K, V, H, E, A &gt;</text>
</a>
</g>
</g>
<!-- Node2&#45;&gt;Node3 -->
<g id="edge4" class="edge">
<title>Node2&#45;&gt;Node3</title>
<path fill="none" stroke="midnightblue" d="M649.17,-76C658.08,-76 666.76,-76 674.87,-76"/>
<polygon fill="midnightblue" stroke="midnightblue" points="649.04,-72.5 639.04,-76 649.04,-79.5 649.04,-72.5"/>
</g>
<!-- Node4&#45;&gt;Node2 -->
<g id="edge6" class="edge">
<title>Node4&#45;&gt;Node2</title>
<path fill="none" stroke="#8b1a1a" d="M404.39,-76C415.26,-76 426.61,-76 437.91,-76"/>
<polygon fill="#8b1a1a" stroke="#8b1a1a" points="404.15,-72.5 394.15,-76 404.15,-79.5 404.15,-72.5"/>
</g>
<!-- Node276 -->
<g id="node7" class="node">
<title>Node276</title>
<g id="a_node7"><a xlink:title=" ">
<polygon fill="none" stroke="#bfbfbf" points="274,-7 274,-37 387,-37 387,-7 274,-7"/>
<text text-anchor="start" x="282" y="-25" font-family="Helvetica,sans-Serif" font-size="10.00">std::allocator_traits</text>
<text text-anchor="middle" x="330.5" y="-14" font-family="Helvetica,sans-Serif" font-size="10.00">::template rebind_alloc</text>
</a>
</g>
</g>
<!-- Node276&#45;&gt;Node2 -->
<g id="edge7" class="edge">
<title>Node276&#45;&gt;Node2</title>
<path fill="none" stroke="#8b1a1a" d="M396.97,-39.16C409.94,-42.56 423.84,-46.2 437.65,-49.83"/>
<polygon fill="#8b1a1a" stroke="#8b1a1a" points="397.81,-35.76 387.25,-36.61 396.03,-42.53 397.81,-35.76"/>
</g>
</g>
</svg>
