<?xml version="1.0" encoding="UTF-8" standalone="no"?>
<!DOCTYPE svg PUBLIC "-//W3C//DTD SVG 1.1//EN"
 "http://www.w3.org/Graphics/SVG/1.1/DTD/svg11.dtd">
<!-- Generated by graphviz version 2.47.1 (20210515.0534)
 -->
<!-- Title: Graphical Class Hierarchy Pages: 1 -->
<svg width="296pt" height="203pt"
 viewBox="0.00 0.00 296.00 203.00" xmlns="http://www.w3.org/2000/svg" xmlns:xlink="http://www.w3.org/1999/xlink">
<g id="graph0" class="graph" transform="scale(1 1) rotate(0) translate(4 199)">
<title>Graphical Class Hierarchy</title>
<!-- Node0 -->
<g id="node1" class="node">
<title>Node0</title>
<g id="a_node1"><a xlink:href="classKadath_1_1FUKA__Solvers_1_1Solver.html" target="_top" xlink:title=" ">
<polygon fill="none" stroke="black" points="0,-77 0,-118 124,-118 124,-77 0,-77"/>
<text text-anchor="start" x="8" y="-106" font-family="Helvetica,sans-Serif" font-size="10.00">Kadath::FUKA_Solvers</text>
<text text-anchor="start" x="8" y="-95" font-family="Helvetica,sans-Serif" font-size="10.00">::Solver&lt; config_t, Space</text>
<text text-anchor="middle" x="62" y="-84" font-family="Helvetica,sans-Serif" font-size="10.00">_polar_adapted &gt;</text>
</a>
</g>
</g>
<!-- Node1 -->
<g id="node2" class="node">
<title>Node1</title>
<g id="a_node2"><a xlink:href="classKadath_1_1FUKA__Solvers_1_1ns__isotropic__diff__rot__solver.html" target="_top" xlink:title=" ">
<polygon fill="none" stroke="black" points="165.5,-142.5 165.5,-194.5 282.5,-194.5 282.5,-142.5 165.5,-142.5"/>
<text text-anchor="start" x="173.5" y="-182.5" font-family="Helvetica,sans-Serif" font-size="10.00">Kadath::FUKA_Solvers</text>
<text text-anchor="start" x="173.5" y="-171.5" font-family="Helvetica,sans-Serif" font-size="10.00">::ns_isotropic_diff_rot</text>
<text text-anchor="start" x="173.5" y="-160.5" font-family="Helvetica,sans-Serif" font-size="10.00">_solver&lt; eos_t, config</text>
<text text-anchor="middle" x="224" y="-149.5" font-family="Helvetica,sans-Serif" font-size="10.00">_t, space_t &gt;</text>
</a>
</g>
</g>
<!-- Node0&#45;&gt;Node1 -->
<g id="edge1" class="edge">
<title>Node0&#45;&gt;Node1</title>
<path fill="none" stroke="midnightblue" d="M118.53,-122.14C133.7,-128.87 150.17,-136.18 165.44,-142.96"/>
<polygon fill="midnightblue" stroke="midnightblue" points="119.84,-118.89 109.28,-118.04 117,-125.29 119.84,-118.89"/>
</g>
<!-- Node2 -->
<g id="node3" class="node">
<title>Node2</title>
<g id="a_node3"><a xlink:href="classKadath_1_1FUKA__Solvers_1_1ns__isotropic__norot__solver.html" target="_top" xlink:title=" ">
<polygon fill="none" stroke="black" points="165.5,-71.5 165.5,-123.5 282.5,-123.5 282.5,-71.5 165.5,-71.5"/>
<text text-anchor="start" x="173.5" y="-111.5" font-family="Helvetica,sans-Serif" font-size="10.00">Kadath::FUKA_Solvers</text>
<text text-anchor="start" x="173.5" y="-100.5" font-family="Helvetica,sans-Serif" font-size="10.00">::ns_isotropic_norot</text>
<text text-anchor="start" x="173.5" y="-89.5" font-family="Helvetica,sans-Serif" font-size="10.00">_solver&lt; eos_t, config</text>
<text text-anchor="middle" x="224" y="-78.5" font-family="Helvetica,sans-Serif" font-size="10.00">_t, space_t &gt;</text>
</a>
</g>
</g>
<!-- Node0&#45;&gt;Node2 -->
<g id="edge2" class="edge">
<title>Node0&#45;&gt;Node2</title>
<path fill="none" stroke="midnightblue" d="M134.63,-97.5C144.94,-97.5 155.45,-97.5 165.44,-97.5"/>
<polygon fill="midnightblue" stroke="midnightblue" points="134.4,-94 124.4,-97.5 134.4,-101 134.4,-94"/>
</g>
<!-- Node3 -->
<g id="node4" class="node">
<title>Node3</title>
<g id="a_node4"><a xlink:href="classKadath_1_1FUKA__Solvers_1_1ns__isotropic__uniform__rot__solver.html" target="_top" xlink:title=" ">
<polygon fill="none" stroke="black" points="160,-0.5 160,-52.5 288,-52.5 288,-0.5 160,-0.5"/>
<text text-anchor="start" x="168" y="-40.5" font-family="Helvetica,sans-Serif" font-size="10.00">Kadath::FUKA_Solvers</text>
<text text-anchor="start" x="168" y="-29.5" font-family="Helvetica,sans-Serif" font-size="10.00">::ns_isotropic_uniform</text>
<text text-anchor="start" x="168" y="-18.5" font-family="Helvetica,sans-Serif" font-size="10.00">_rot_solver&lt; eos_t, config</text>
<text text-anchor="middle" x="224" y="-7.5" font-family="Helvetica,sans-Serif" font-size="10.00">_t, space_t &gt;</text>
</a>
</g>
</g>
<!-- Node0&#45;&gt;Node3 -->
<g id="edge3" class="edge">
<title>Node0&#45;&gt;Node3</title>
<path fill="none" stroke="midnightblue" d="M118.75,-72.76C133.47,-66.23 149.41,-59.16 164.28,-52.56"/>
<polygon fill="midnightblue" stroke="midnightblue" points="117,-69.71 109.28,-76.96 119.84,-76.11 117,-69.71"/>
</g>
</g>
</svg>
