<?xml version="1.0" encoding="UTF-8" standalone="no"?>
<!DOCTYPE svg PUBLIC "-//W3C//DTD SVG 1.1//EN"
 "http://www.w3.org/Graphics/SVG/1.1/DTD/svg11.dtd">
<!-- Generated by graphviz version 2.47.1 (20210515.0534)
 -->
<!-- Title: Graphical Class Hierarchy Pages: 1 -->
<svg width="598pt" height="208pt"
 viewBox="0.00 0.00 598.00 207.50" xmlns="http://www.w3.org/2000/svg" xmlns:xlink="http://www.w3.org/1999/xlink">
<g id="graph0" class="graph" transform="scale(1 1) rotate(0) translate(4 203.5)">
<title>Graphical Class Hierarchy</title>
<!-- Node25 -->
<g id="node1" class="node">
<title>Node25</title>
<g id="a_node1"><a xlink:title=" ">
<polygon fill="none" stroke="#bfbfbf" points="0,-169 0,-188 71,-188 71,-169 0,-169"/>
<text text-anchor="middle" x="35.5" y="-176" font-family="Helvetica,sans-Serif" font-size="10.00">std::equal_to</text>
</a>
</g>
</g>
<!-- Node0 -->
<g id="node2" class="node">
<title>Node0</title>
<g id="a_node2"><a xlink:href="structska_1_1detailv3_1_1functor__storage.html" target="_top" xlink:title=" ">
<polygon fill="none" stroke="black" points="107,-158 107,-199 234,-199 234,-158 107,-158"/>
<text text-anchor="start" x="115" y="-187" font-family="Helvetica,sans-Serif" font-size="10.00">ska::detailv3::functor</text>
<text text-anchor="start" x="115" y="-176" font-family="Helvetica,sans-Serif" font-size="10.00">_storage&lt; bool, std::equal</text>
<text text-anchor="middle" x="170.5" y="-165" font-family="Helvetica,sans-Serif" font-size="10.00">_to&lt; T &gt; &gt;</text>
</a>
</g>
</g>
<!-- Node25&#45;&gt;Node0 -->
<g id="edge1" class="edge">
<title>Node25&#45;&gt;Node0</title>
<path fill="none" stroke="midnightblue" d="M81.26,-178.5C89.53,-178.5 98.3,-178.5 106.99,-178.5"/>
<polygon fill="midnightblue" stroke="midnightblue" points="81.1,-175 71.1,-178.5 81.1,-182 81.1,-175"/>
</g>
<!-- Node1 -->
<g id="node3" class="node">
<title>Node1</title>
<g id="a_node3"><a xlink:href="classska_1_1detailv3_1_1sherwood__v3__table.html" target="_top" xlink:title=" ">
<polygon fill="none" stroke="black" points="270,-59.5 270,-177.5 459,-177.5 459,-59.5 270,-59.5"/>
<text text-anchor="start" x="278" y="-165.5" font-family="Helvetica,sans-Serif" font-size="10.00">ska::detailv3::sherwood</text>
<text text-anchor="start" x="278" y="-154.5" font-family="Helvetica,sans-Serif" font-size="10.00">_v3_table&lt; T, T, std::</text>
<text text-anchor="start" x="278" y="-143.5" font-family="Helvetica,sans-Serif" font-size="10.00">hash&lt; T &gt;, detailv3::functor</text>
<text text-anchor="start" x="278" y="-132.5" font-family="Helvetica,sans-Serif" font-size="10.00">_storage&lt; size_t, std::hash</text>
<text text-anchor="start" x="278" y="-121.5" font-family="Helvetica,sans-Serif" font-size="10.00">&lt; T &gt; &gt;, std::equal_to&lt; T &gt;,</text>
<text text-anchor="start" x="278" y="-110.5" font-family="Helvetica,sans-Serif" font-size="10.00"> detailv3::functor_storage&lt; bool,</text>
<text text-anchor="start" x="278" y="-99.5" font-family="Helvetica,sans-Serif" font-size="10.00"> std::equal_to&lt; T &gt; &gt;, std::allocator</text>
<text text-anchor="start" x="278" y="-88.5" font-family="Helvetica,sans-Serif" font-size="10.00">&lt; T &gt;, std::allocator_traits&lt; std::allocator</text>
<text text-anchor="start" x="278" y="-77.5" font-family="Helvetica,sans-Serif" font-size="10.00">&lt; T &gt; &gt;::template rebind_alloc&lt; detailv3</text>
<text text-anchor="middle" x="364.5" y="-66.5" font-family="Helvetica,sans-Serif" font-size="10.00">::sherwood_v3_entry&lt; T &gt; &gt; &gt;</text>
</a>
</g>
</g>
<!-- Node0&#45;&gt;Node1 -->
<g id="edge2" class="edge">
<title>Node0&#45;&gt;Node1</title>
<path fill="none" stroke="#8b1a1a" d="M243.68,-155.95C252.27,-153.26 261.14,-150.49 269.98,-147.73"/>
<polygon fill="#8b1a1a" stroke="#8b1a1a" points="242.6,-152.61 234.1,-158.94 244.69,-159.29 242.6,-152.61"/>
</g>
<!-- Node2 -->
<g id="node4" class="node">
<title>Node2</title>
<g id="a_node4"><a xlink:href="classska_1_1flat__hash__set.html" target="_top" xlink:title=" ">
<polygon fill="none" stroke="black" points="495,-103.5 495,-133.5 590,-133.5 590,-103.5 495,-103.5"/>
<text text-anchor="start" x="503" y="-121.5" font-family="Helvetica,sans-Serif" font-size="10.00">ska::flat_hash_set</text>
<text text-anchor="middle" x="542.5" y="-110.5" font-family="Helvetica,sans-Serif" font-size="10.00">&lt; T, H, E, A &gt;</text>
</a>
</g>
</g>
<!-- Node1&#45;&gt;Node2 -->
<g id="edge3" class="edge">
<title>Node1&#45;&gt;Node2</title>
<path fill="none" stroke="midnightblue" d="M469.22,-118.5C478.05,-118.5 486.67,-118.5 494.69,-118.5"/>
<polygon fill="midnightblue" stroke="midnightblue" points="469.17,-115 459.17,-118.5 469.17,-122 469.17,-115"/>
</g>
<!-- Node58 -->
<g id="node5" class="node">
<title>Node58</title>
<g id="a_node5"><a xlink:title=" ">
<polygon fill="none" stroke="#bfbfbf" points="7.5,-82 7.5,-101 63.5,-101 63.5,-82 7.5,-82"/>
<text text-anchor="middle" x="35.5" y="-89" font-family="Helvetica,sans-Serif" font-size="10.00">std::hash</text>
</a>
</g>
</g>
<!-- Node59 -->
<g id="node6" class="node">
<title>Node59</title>
<g id="a_node6"><a xlink:href="structska_1_1detailv3_1_1functor__storage.html" target="_top" xlink:title=" ">
<polygon fill="none" stroke="black" points="117,-98 117,-139 224,-139 224,-98 117,-98"/>
<text text-anchor="start" x="125" y="-127" font-family="Helvetica,sans-Serif" font-size="10.00">ska::detailv3::functor</text>
<text text-anchor="start" x="125" y="-116" font-family="Helvetica,sans-Serif" font-size="10.00">_storage&lt; size_t, std</text>
<text text-anchor="middle" x="170.5" y="-105" font-family="Helvetica,sans-Serif" font-size="10.00">::hash&lt; T &gt; &gt;</text>
</a>
</g>
</g>
<!-- Node58&#45;&gt;Node59 -->
<g id="edge4" class="edge">
<title>Node58&#45;&gt;Node59</title>
<path fill="none" stroke="midnightblue" d="M73.92,-99.1C87.21,-101.79 102.42,-104.88 116.75,-107.79"/>
<polygon fill="midnightblue" stroke="midnightblue" points="74.23,-95.59 63.74,-97.03 72.84,-102.45 74.23,-95.59"/>
</g>
<!-- Node60 -->
<g id="node7" class="node">
<title>Node60</title>
<g id="a_node7"><a xlink:href="structska_1_1power__of__two__std__hash.html" target="_top" xlink:title=" ">
<polygon fill="none" stroke="black" points="112.5,-49.5 112.5,-79.5 228.5,-79.5 228.5,-49.5 112.5,-49.5"/>
<text text-anchor="start" x="120.5" y="-67.5" font-family="Helvetica,sans-Serif" font-size="10.00">ska::power_of_two_std</text>
<text text-anchor="middle" x="170.5" y="-56.5" font-family="Helvetica,sans-Serif" font-size="10.00">_hash&lt; T &gt;</text>
</a>
</g>
</g>
<!-- Node58&#45;&gt;Node60 -->
<g id="edge6" class="edge">
<title>Node58&#45;&gt;Node60</title>
<path fill="none" stroke="midnightblue" d="M73.8,-83.93C85.78,-81.5 99.33,-78.75 112.39,-76.09"/>
<polygon fill="midnightblue" stroke="midnightblue" points="72.84,-80.55 63.74,-85.97 74.23,-87.41 72.84,-80.55"/>
</g>
<!-- Node59&#45;&gt;Node1 -->
<g id="edge5" class="edge">
<title>Node59&#45;&gt;Node1</title>
<path fill="none" stroke="#8b1a1a" d="M234.45,-118.5C245.83,-118.5 257.92,-118.5 269.96,-118.5"/>
<polygon fill="#8b1a1a" stroke="#8b1a1a" points="234.22,-115 224.22,-118.5 234.22,-122 234.22,-115"/>
</g>
<!-- Node277 -->
<g id="node8" class="node">
<title>Node277</title>
<g id="a_node8"><a xlink:title=" ">
<polygon fill="none" stroke="#bfbfbf" points="114,-0.5 114,-30.5 227,-30.5 227,-0.5 114,-0.5"/>
<text text-anchor="start" x="122" y="-18.5" font-family="Helvetica,sans-Serif" font-size="10.00">std::allocator_traits</text>
<text text-anchor="middle" x="170.5" y="-7.5" font-family="Helvetica,sans-Serif" font-size="10.00">::template rebind_alloc</text>
</a>
</g>
</g>
<!-- Node277&#45;&gt;Node1 -->
<g id="edge7" class="edge">
<title>Node277&#45;&gt;Node1</title>
<path fill="none" stroke="#8b1a1a" d="M223.2,-34.5C226.89,-36.12 230.52,-37.79 234,-39.5 246.29,-45.55 258.93,-52.39 271.27,-59.47"/>
<polygon fill="#8b1a1a" stroke="#8b1a1a" points="224.55,-31.27 213.97,-30.61 221.83,-37.72 224.55,-31.27"/>
</g>
</g>
</svg>
