<?xml version="1.0" encoding="UTF-8" standalone="no"?>
<!DOCTYPE svg PUBLIC "-//W3C//DTD SVG 1.1//EN"
 "http://www.w3.org/Graphics/SVG/1.1/DTD/svg11.dtd">
<!-- Generated by graphviz version 2.47.1 (20210515.0534)
 -->
<!-- Title: Graphical Class Hierarchy Pages: 1 -->
<svg width="415pt" height="137pt"
 viewBox="0.00 0.00 415.00 137.00" xmlns="http://www.w3.org/2000/svg" xmlns:xlink="http://www.w3.org/1999/xlink">
<g id="graph0" class="graph" transform="scale(1 1) rotate(0) translate(4 133)">
<title>Graphical Class Hierarchy</title>
<!-- Node0 -->
<g id="node1" class="node">
<title>Node0</title>
<g id="a_node1"><a xlink:href="classKadath_1_1FUKA__Config_1_1BCO__INFO.html" target="_top" xlink:title=" ">
<polygon fill="none" stroke="black" points="0,-49.5 0,-79.5 111,-79.5 111,-49.5 0,-49.5"/>
<text text-anchor="start" x="8" y="-67.5" font-family="Helvetica,sans-Serif" font-size="10.00">Kadath::FUKA_Config</text>
<text text-anchor="middle" x="55.5" y="-56.5" font-family="Helvetica,sans-Serif" font-size="10.00">::BCO_INFO</text>
</a>
</g>
</g>
<!-- Node1 -->
<g id="node2" class="node">
<title>Node1</title>
<g id="a_node2"><a xlink:href="classKadath_1_1FUKA__Config_1_1BCO__BH__INFO.html" target="_top" xlink:title=" ">
<polygon fill="none" stroke="black" points="147,-98.5 147,-128.5 258,-128.5 258,-98.5 147,-98.5"/>
<text text-anchor="start" x="155" y="-116.5" font-family="Helvetica,sans-Serif" font-size="10.00">Kadath::FUKA_Config</text>
<text text-anchor="middle" x="202.5" y="-105.5" font-family="Helvetica,sans-Serif" font-size="10.00">::BCO_BH_INFO</text>
</a>
</g>
</g>
<!-- Node0&#45;&gt;Node1 -->
<g id="edge1" class="edge">
<title>Node0&#45;&gt;Node1</title>
<path fill="none" stroke="midnightblue" d="M110.92,-82.89C126.02,-87.99 142.23,-93.47 156.71,-98.36"/>
<polygon fill="midnightblue" stroke="midnightblue" points="111.78,-79.49 101.19,-79.6 109.54,-86.12 111.78,-79.49"/>
</g>
<!-- Node2 -->
<g id="node3" class="node">
<title>Node2</title>
<g id="a_node3"><a xlink:href="classKadath_1_1FUKA__Config_1_1BCO__KSBH__INFO.html" target="_top" xlink:title=" ">
<polygon fill="none" stroke="black" points="147,-49.5 147,-79.5 258,-79.5 258,-49.5 147,-49.5"/>
<text text-anchor="start" x="155" y="-67.5" font-family="Helvetica,sans-Serif" font-size="10.00">Kadath::FUKA_Config</text>
<text text-anchor="middle" x="202.5" y="-56.5" font-family="Helvetica,sans-Serif" font-size="10.00">::BCO_KSBH_INFO</text>
</a>
</g>
</g>
<!-- Node0&#45;&gt;Node2 -->
<g id="edge2" class="edge">
<title>Node0&#45;&gt;Node2</title>
<path fill="none" stroke="midnightblue" d="M121.46,-64.5C129.86,-64.5 138.39,-64.5 146.6,-64.5"/>
<polygon fill="midnightblue" stroke="midnightblue" points="121.32,-61 111.32,-64.5 121.32,-68 121.32,-61"/>
</g>
<!-- Node3 -->
<g id="node4" class="node">
<title>Node3</title>
<g id="a_node4"><a xlink:href="classKadath_1_1FUKA__Config_1_1BCO__NS__INFO.html" target="_top" xlink:title=" ">
<polygon fill="none" stroke="black" points="147,-0.5 147,-30.5 258,-30.5 258,-0.5 147,-0.5"/>
<text text-anchor="start" x="155" y="-18.5" font-family="Helvetica,sans-Serif" font-size="10.00">Kadath::FUKA_Config</text>
<text text-anchor="middle" x="202.5" y="-7.5" font-family="Helvetica,sans-Serif" font-size="10.00">::BCO_NS_INFO</text>
</a>
</g>
</g>
<!-- Node0&#45;&gt;Node3 -->
<g id="edge3" class="edge">
<title>Node0&#45;&gt;Node3</title>
<path fill="none" stroke="midnightblue" d="M110.92,-46.11C126.02,-41.01 142.23,-35.53 156.71,-30.64"/>
<polygon fill="midnightblue" stroke="midnightblue" points="109.54,-42.88 101.19,-49.4 111.78,-49.51 109.54,-42.88"/>
</g>
<!-- Node4 -->
<g id="node5" class="node">
<title>Node4</title>
<g id="a_node5"><a xlink:href="classKadath_1_1FUKA__Config_1_1BCO__ISO__NS__INFO.html" target="_top" xlink:title=" ">
<polygon fill="none" stroke="black" points="294,-0.5 294,-30.5 407,-30.5 407,-0.5 294,-0.5"/>
<text text-anchor="start" x="302" y="-18.5" font-family="Helvetica,sans-Serif" font-size="10.00">Kadath::FUKA_Config</text>
<text text-anchor="middle" x="350.5" y="-7.5" font-family="Helvetica,sans-Serif" font-size="10.00">::BCO_ISO_NS_INFO</text>
</a>
</g>
</g>
<!-- Node3&#45;&gt;Node4 -->
<g id="edge4" class="edge">
<title>Node3&#45;&gt;Node4</title>
<path fill="none" stroke="midnightblue" d="M268.52,-15.5C277,-15.5 285.62,-15.5 293.93,-15.5"/>
<polygon fill="midnightblue" stroke="midnightblue" points="268.28,-12 258.28,-15.5 268.28,-19 268.28,-12"/>
</g>
</g>
</svg>
