<?xml version="1.0" encoding="UTF-8" standalone="no"?>
<!DOCTYPE svg PUBLIC "-//W3C//DTD SVG 1.1//EN"
 "http://www.w3.org/Graphics/SVG/1.1/DTD/svg11.dtd">
<!-- Generated by graphviz version 2.47.1 (20210515.0534)
 -->
<!-- Title: Graphical Class Hierarchy Pages: 1 -->
<svg width="404pt" height="50pt"
 viewBox="0.00 0.00 404.00 50.00" xmlns="http://www.w3.org/2000/svg" xmlns:xlink="http://www.w3.org/1999/xlink">
<g id="graph0" class="graph" transform="scale(1 1) rotate(0) translate(4 46)">
<title>Graphical Class Hierarchy</title>
<!-- Node79 -->
<g id="node1" class="node">
<title>Node79</title>
<g id="a_node1"><a xlink:title=" ">
<polygon fill="none" stroke="#bfbfbf" points="0,-11.5 0,-30.5 60,-30.5 60,-11.5 0,-11.5"/>
<text text-anchor="middle" x="30" y="-18.5" font-family="Helvetica,sans-Serif" font-size="10.00">key_equal</text>
</a>
</g>
</g>
<!-- Node0 -->
<g id="node2" class="node">
<title>Node0</title>
<g id="a_node2"><a xlink:href="structska_1_1detailv3_1_1functor__storage.html" target="_top" xlink:title=" ">
<polygon fill="none" stroke="black" points="96,-6 96,-36 233,-36 233,-6 96,-6"/>
<text text-anchor="start" x="104" y="-24" font-family="Helvetica,sans-Serif" font-size="10.00">ska::detailv3::functor</text>
<text text-anchor="middle" x="164.5" y="-13" font-family="Helvetica,sans-Serif" font-size="10.00">_storage&lt; bool, key_equal &gt;</text>
</a>
</g>
</g>
<!-- Node79&#45;&gt;Node0 -->
<g id="edge1" class="edge">
<title>Node79&#45;&gt;Node0</title>
<path fill="none" stroke="midnightblue" d="M70.3,-21C78.41,-21 87.16,-21 95.94,-21"/>
<polygon fill="midnightblue" stroke="midnightblue" points="70.08,-17.5 60.08,-21 70.08,-24.5 70.08,-17.5"/>
</g>
<!-- Node1 -->
<g id="node3" class="node">
<title>Node1</title>
<g id="a_node3"><a xlink:href="structska_1_1detailv3_1_1KeyOrValueEquality.html" target="_top" xlink:title=" ">
<polygon fill="none" stroke="black" points="269,-0.5 269,-41.5 396,-41.5 396,-0.5 269,-0.5"/>
<text text-anchor="start" x="277" y="-29.5" font-family="Helvetica,sans-Serif" font-size="10.00">ska::detailv3::KeyOrValue</text>
<text text-anchor="start" x="277" y="-18.5" font-family="Helvetica,sans-Serif" font-size="10.00">Equality&lt; key_type, value</text>
<text text-anchor="middle" x="332.5" y="-7.5" font-family="Helvetica,sans-Serif" font-size="10.00">_type, key_equal &gt;</text>
</a>
</g>
</g>
<!-- Node0&#45;&gt;Node1 -->
<g id="edge2" class="edge">
<title>Node0&#45;&gt;Node1</title>
<path fill="none" stroke="midnightblue" d="M243.1,-21C251.73,-21 260.45,-21 268.86,-21"/>
<polygon fill="midnightblue" stroke="midnightblue" points="243.02,-17.5 233.02,-21 243.02,-24.5 243.02,-17.5"/>
</g>
</g>
</svg>
