<?xml version="1.0" encoding="UTF-8" standalone="no"?>
<!DOCTYPE svg PUBLIC "-//W3C//DTD SVG 1.1//EN"
 "http://www.w3.org/Graphics/SVG/1.1/DTD/svg11.dtd">
<!-- Generated by graphviz version 2.47.1 (20210515.0534)
 -->
<!-- Title: Graphical Class Hierarchy Pages: 1 -->
<svg width="384pt" height="50pt"
 viewBox="0.00 0.00 384.00 50.00" xmlns="http://www.w3.org/2000/svg" xmlns:xlink="http://www.w3.org/1999/xlink">
<g id="graph0" class="graph" transform="scale(1 1) rotate(0) translate(4 46)">
<title>Graphical Class Hierarchy</title>
<!-- Node61 -->
<g id="node1" class="node">
<title>Node61</title>
<g id="a_node1"><a xlink:title=" ">
<polygon fill="none" stroke="#bfbfbf" points="0,-11.5 0,-30.5 46,-30.5 46,-11.5 0,-11.5"/>
<text text-anchor="middle" x="23" y="-18.5" font-family="Helvetica,sans-Serif" font-size="10.00">hasher</text>
</a>
</g>
</g>
<!-- Node0 -->
<g id="node2" class="node">
<title>Node0</title>
<g id="a_node2"><a xlink:href="structska_1_1detailv3_1_1functor__storage.html" target="_top" xlink:title=" ">
<polygon fill="none" stroke="black" points="82,-6 82,-36 213,-36 213,-6 82,-6"/>
<text text-anchor="start" x="90" y="-24" font-family="Helvetica,sans-Serif" font-size="10.00">ska::detailv3::functor</text>
<text text-anchor="middle" x="147.5" y="-13" font-family="Helvetica,sans-Serif" font-size="10.00">_storage&lt; size_t, hasher &gt;</text>
</a>
</g>
</g>
<!-- Node61&#45;&gt;Node0 -->
<g id="edge1" class="edge">
<title>Node61&#45;&gt;Node0</title>
<path fill="none" stroke="midnightblue" d="M56.41,-21C64.34,-21 73.1,-21 81.96,-21"/>
<polygon fill="midnightblue" stroke="midnightblue" points="56.18,-17.5 46.18,-21 56.18,-24.5 56.18,-17.5"/>
</g>
<!-- Node1 -->
<g id="node3" class="node">
<title>Node1</title>
<g id="a_node3"><a xlink:href="structska_1_1detailv3_1_1KeyOrValueHasher.html" target="_top" xlink:title=" ">
<polygon fill="none" stroke="black" points="249,-0.5 249,-41.5 376,-41.5 376,-0.5 249,-0.5"/>
<text text-anchor="start" x="257" y="-29.5" font-family="Helvetica,sans-Serif" font-size="10.00">ska::detailv3::KeyOrValue</text>
<text text-anchor="start" x="257" y="-18.5" font-family="Helvetica,sans-Serif" font-size="10.00">Hasher&lt; key_type, value</text>
<text text-anchor="middle" x="312.5" y="-7.5" font-family="Helvetica,sans-Serif" font-size="10.00">_type, hasher &gt;</text>
</a>
</g>
</g>
<!-- Node0&#45;&gt;Node1 -->
<g id="edge2" class="edge">
<title>Node0&#45;&gt;Node1</title>
<path fill="none" stroke="midnightblue" d="M223.65,-21C232.12,-21 240.67,-21 248.96,-21"/>
<polygon fill="midnightblue" stroke="midnightblue" points="223.39,-17.5 213.39,-21 223.39,-24.5 223.39,-17.5"/>
</g>
</g>
</svg>
