<?xml version="1.0" encoding="UTF-8" standalone="no"?>
<!DOCTYPE svg PUBLIC "-//W3C//DTD SVG 1.1//EN"
 "http://www.w3.org/Graphics/SVG/1.1/DTD/svg11.dtd">
<!-- Generated by graphviz version 2.47.1 (20210515.0534)
 -->
<!-- Title: Graphical Class Hierarchy Pages: 1 -->
<svg width="265pt" height="104pt"
 viewBox="0.00 0.00 265.00 104.00" xmlns="http://www.w3.org/2000/svg" xmlns:xlink="http://www.w3.org/1999/xlink">
<g id="graph0" class="graph" transform="scale(1 1) rotate(0) translate(4 100)">
<title>Graphical Class Hierarchy</title>
<!-- Node22 -->
<g id="node1" class="node">
<title>Node22</title>
<g id="a_node1"><a xlink:title=" ">
<polygon fill="none" stroke="#bfbfbf" points="0,-76.5 0,-95.5 60,-95.5 60,-76.5 0,-76.5"/>
<text text-anchor="middle" x="30" y="-83.5" font-family="Helvetica,sans-Serif" font-size="10.00">EntryAlloc</text>
</a>
</g>
</g>
<!-- Node0 -->
<g id="node2" class="node">
<title>Node0</title>
<g id="a_node2"><a xlink:href="classska_1_1detailv3_1_1sherwood__v3__table.html" target="_top" xlink:title=" ">
<polygon fill="none" stroke="black" points="96,-16.5 96,-79.5 257,-79.5 257,-16.5 96,-16.5"/>
<text text-anchor="start" x="104" y="-67.5" font-family="Helvetica,sans-Serif" font-size="10.00">ska::detailv3::sherwood</text>
<text text-anchor="start" x="104" y="-56.5" font-family="Helvetica,sans-Serif" font-size="10.00">_v3_table&lt; T, FindKey,</text>
<text text-anchor="start" x="104" y="-45.5" font-family="Helvetica,sans-Serif" font-size="10.00"> ArgumentHash, Hasher,</text>
<text text-anchor="start" x="104" y="-34.5" font-family="Helvetica,sans-Serif" font-size="10.00"> ArgumentEqual, Equal, Argument</text>
<text text-anchor="middle" x="176.5" y="-23.5" font-family="Helvetica,sans-Serif" font-size="10.00">Alloc, EntryAlloc &gt;</text>
</a>
</g>
</g>
<!-- Node22&#45;&gt;Node0 -->
<g id="edge1" class="edge">
<title>Node22&#45;&gt;Node0</title>
<path fill="none" stroke="#8b1a1a" d="M70.03,-75.74C78.09,-73.62 86.85,-71.31 95.76,-68.97"/>
<polygon fill="#8b1a1a" stroke="#8b1a1a" points="69.02,-72.38 60.24,-78.31 70.8,-79.15 69.02,-72.38"/>
</g>
<!-- Node24 -->
<g id="node3" class="node">
<title>Node24</title>
<g id="a_node3"><a xlink:title=" ">
<polygon fill="none" stroke="#bfbfbf" points="9.5,-38.5 9.5,-57.5 50.5,-57.5 50.5,-38.5 9.5,-38.5"/>
<text text-anchor="middle" x="30" y="-45.5" font-family="Helvetica,sans-Serif" font-size="10.00">Equal</text>
</a>
</g>
</g>
<!-- Node24&#45;&gt;Node0 -->
<g id="edge2" class="edge">
<title>Node24&#45;&gt;Node0</title>
<path fill="none" stroke="#8b1a1a" d="M60.9,-48C71.28,-48 83.47,-48 95.96,-48"/>
<polygon fill="#8b1a1a" stroke="#8b1a1a" points="60.79,-44.5 50.79,-48 60.79,-51.5 60.79,-44.5"/>
</g>
<!-- Node64 -->
<g id="node4" class="node">
<title>Node64</title>
<g id="a_node4"><a xlink:title=" ">
<polygon fill="none" stroke="#bfbfbf" points="6,-0.5 6,-19.5 54,-19.5 54,-0.5 6,-0.5"/>
<text text-anchor="middle" x="30" y="-7.5" font-family="Helvetica,sans-Serif" font-size="10.00">Hasher</text>
</a>
</g>
</g>
<!-- Node64&#45;&gt;Node0 -->
<g id="edge3" class="edge">
<title>Node64&#45;&gt;Node0</title>
<path fill="none" stroke="#8b1a1a" d="M64.06,-18.69C73.65,-21.22 84.56,-24.09 95.72,-27.02"/>
<polygon fill="#8b1a1a" stroke="#8b1a1a" points="64.78,-15.26 54.22,-16.11 63,-22.03 64.78,-15.26"/>
</g>
</g>
</svg>
