<?xml version="1.0" encoding="UTF-8" standalone="no"?>
<!DOCTYPE svg PUBLIC "-//W3C//DTD SVG 1.1//EN"
 "http://www.w3.org/Graphics/SVG/1.1/DTD/svg11.dtd">
<!-- Generated by graphviz version 2.47.1 (20210515.0534)
 -->
<!-- Title: ska::detailv3::functor_storage&lt; Result, Functor &gt; Pages: 1 -->
<svg width="783pt" height="160pt"
 viewBox="0.00 0.00 783.00 160.00" xmlns="http://www.w3.org/2000/svg" xmlns:xlink="http://www.w3.org/1999/xlink">
<g id="graph0" class="graph" transform="scale(1 1) rotate(0) translate(4 156)">
<title>ska::detailv3::functor_storage&lt; Result, Functor &gt;</title>
<!-- Node1 -->
<g id="node1" class="node">
<title>Node1</title>
<g id="a_node1"><a xlink:title=" ">
<polygon fill="#bfbfbf" stroke="black" points="86,-61 86,-91 223,-91 223,-61 86,-61"/>
<text text-anchor="start" x="94" y="-79" font-family="Helvetica,sans-Serif" font-size="10.00">ska::detailv3::functor</text>
<text text-anchor="middle" x="154.5" y="-68" font-family="Helvetica,sans-Serif" font-size="10.00">_storage&lt; Result, Functor &gt;</text>
</a>
</g>
</g>
<!-- Node3 -->
<g id="node3" class="node">
<title>Node3</title>
<g id="a_node3"><a xlink:href="structska_1_1detailv3_1_1KeyOrValueEquality.html" target="_top" xlink:title=" ">
<polygon fill="none" stroke="black" points="259,-85.5 259,-126.5 402,-126.5 402,-85.5 259,-85.5"/>
<text text-anchor="start" x="267" y="-114.5" font-family="Helvetica,sans-Serif" font-size="10.00">ska::detailv3::KeyOrValue</text>
<text text-anchor="start" x="267" y="-103.5" font-family="Helvetica,sans-Serif" font-size="10.00">Equality&lt; K, std::pair</text>
<text text-anchor="middle" x="330.5" y="-92.5" font-family="Helvetica,sans-Serif" font-size="10.00">&lt; K, V &gt;, std::equal_to&lt; K &gt; &gt;</text>
</a>
</g>
</g>
<!-- Node1&#45;&gt;Node3 -->
<g id="edge2" class="edge">
<title>Node1&#45;&gt;Node3</title>
<path fill="none" stroke="midnightblue" d="M233.19,-89.39C241.7,-90.86 250.33,-92.35 258.75,-93.8"/>
<polygon fill="midnightblue" stroke="midnightblue" points="233.72,-85.93 223.27,-87.68 232.53,-92.83 233.72,-85.93"/>
</g>
<!-- Node6 -->
<g id="node6" class="node">
<title>Node6</title>
<g id="a_node6"><a xlink:href="structska_1_1detailv3_1_1KeyOrValueHasher.html" target="_top" xlink:title=" ">
<polygon fill="none" stroke="black" points="267,-25.5 267,-66.5 394,-66.5 394,-25.5 267,-25.5"/>
<text text-anchor="start" x="275" y="-54.5" font-family="Helvetica,sans-Serif" font-size="10.00">ska::detailv3::KeyOrValue</text>
<text text-anchor="start" x="275" y="-43.5" font-family="Helvetica,sans-Serif" font-size="10.00">Hasher&lt; K, std::pair&lt; K,</text>
<text text-anchor="middle" x="330.5" y="-32.5" font-family="Helvetica,sans-Serif" font-size="10.00"> V &gt;, std::hash&lt; K &gt; &gt;</text>
</a>
</g>
</g>
<!-- Node1&#45;&gt;Node6 -->
<g id="edge5" class="edge">
<title>Node1&#45;&gt;Node6</title>
<path fill="none" stroke="midnightblue" d="M233.43,-62.56C244.59,-60.64 255.94,-58.68 266.75,-56.82"/>
<polygon fill="midnightblue" stroke="midnightblue" points="232.53,-59.17 223.27,-64.32 233.72,-66.07 232.53,-59.17"/>
</g>
<!-- Node2 -->
<g id="node2" class="node">
<title>Node2</title>
<g id="a_node2"><a xlink:title=" ">
<polygon fill="none" stroke="#bfbfbf" points="0,-66.5 0,-85.5 50,-85.5 50,-66.5 0,-66.5"/>
<text text-anchor="middle" x="25" y="-73.5" font-family="Helvetica,sans-Serif" font-size="10.00">Functor</text>
</a>
</g>
</g>
<!-- Node2&#45;&gt;Node1 -->
<g id="edge1" class="edge">
<title>Node2&#45;&gt;Node1</title>
<path fill="none" stroke="midnightblue" d="M60.5,-76C68.38,-76 77.03,-76 85.77,-76"/>
<polygon fill="midnightblue" stroke="midnightblue" points="60.28,-72.5 50.28,-76 60.28,-79.5 60.28,-72.5"/>
</g>
<!-- Node4 -->
<g id="node4" class="node">
<title>Node4</title>
<g id="a_node4"><a xlink:href="classska_1_1detailv3_1_1sherwood__v3__table.html" target="_top" xlink:title=" ">
<polygon fill="none" stroke="black" points="438,-0.5 438,-151.5 639,-151.5 639,-0.5 438,-0.5"/>
<text text-anchor="start" x="446" y="-139.5" font-family="Helvetica,sans-Serif" font-size="10.00">ska::detailv3::sherwood</text>
<text text-anchor="start" x="446" y="-128.5" font-family="Helvetica,sans-Serif" font-size="10.00">_v3_table&lt; std::pair&lt;</text>
<text text-anchor="start" x="446" y="-117.5" font-family="Helvetica,sans-Serif" font-size="10.00"> K, V &gt;, K, std::hash&lt;</text>
<text text-anchor="start" x="446" y="-106.5" font-family="Helvetica,sans-Serif" font-size="10.00"> K &gt;, detailv3::KeyOrValueHasher</text>
<text text-anchor="start" x="446" y="-95.5" font-family="Helvetica,sans-Serif" font-size="10.00">&lt; K, std::pair&lt; K, V &gt;, std::</text>
<text text-anchor="start" x="446" y="-84.5" font-family="Helvetica,sans-Serif" font-size="10.00">hash&lt; K &gt; &gt;, std::equal_to&lt; K</text>
<text text-anchor="start" x="446" y="-73.5" font-family="Helvetica,sans-Serif" font-size="10.00"> &gt;, detailv3::KeyOrValueEquality</text>
<text text-anchor="start" x="446" y="-62.5" font-family="Helvetica,sans-Serif" font-size="10.00">&lt; K, std::pair&lt; K, V &gt;, std::equal</text>
<text text-anchor="start" x="446" y="-51.5" font-family="Helvetica,sans-Serif" font-size="10.00">_to&lt; K &gt; &gt;, std::allocator&lt; std::pair</text>
<text text-anchor="start" x="446" y="-40.5" font-family="Helvetica,sans-Serif" font-size="10.00">&lt; K, V &gt; &gt;, std::allocator_traits&lt; std</text>
<text text-anchor="start" x="446" y="-29.5" font-family="Helvetica,sans-Serif" font-size="10.00">::allocator&lt; std::pair&lt; K, V &gt; &gt; &gt;::template</text>
<text text-anchor="start" x="446" y="-18.5" font-family="Helvetica,sans-Serif" font-size="10.00"> rebind_alloc&lt; detailv3::sherwood_v3_entry</text>
<text text-anchor="middle" x="538.5" y="-7.5" font-family="Helvetica,sans-Serif" font-size="10.00">&lt; std::pair&lt; K, V &gt; &gt; &gt; &gt;</text>
</a>
</g>
</g>
<!-- Node3&#45;&gt;Node4 -->
<g id="edge3" class="edge">
<title>Node3&#45;&gt;Node4</title>
<path fill="none" stroke="#8b1a1a" d="M412.24,-94.24C420.65,-93.02 429.26,-91.76 437.84,-90.51"/>
<polygon fill="#8b1a1a" stroke="#8b1a1a" points="411.5,-90.81 402.11,-95.72 412.51,-97.74 411.5,-90.81"/>
</g>
<!-- Node5 -->
<g id="node5" class="node">
<title>Node5</title>
<g id="a_node5"><a xlink:href="classska_1_1flat__hash__map.html" target="_top" xlink:title=" ">
<polygon fill="none" stroke="black" points="675,-61 675,-91 775,-91 775,-61 675,-61"/>
<text text-anchor="start" x="683" y="-79" font-family="Helvetica,sans-Serif" font-size="10.00">ska::flat_hash_map</text>
<text text-anchor="middle" x="725" y="-68" font-family="Helvetica,sans-Serif" font-size="10.00">&lt; K, V, H, E, A &gt;</text>
</a>
</g>
</g>
<!-- Node4&#45;&gt;Node5 -->
<g id="edge4" class="edge">
<title>Node4&#45;&gt;Node5</title>
<path fill="none" stroke="midnightblue" d="M649.17,-76C658.08,-76 666.76,-76 674.87,-76"/>
<polygon fill="midnightblue" stroke="midnightblue" points="649.04,-72.5 639.04,-76 649.04,-79.5 649.04,-72.5"/>
</g>
<!-- Node6&#45;&gt;Node4 -->
<g id="edge6" class="edge">
<title>Node6&#45;&gt;Node4</title>
<path fill="none" stroke="#8b1a1a" d="M404.06,-56.57C415.02,-58.16 426.5,-59.83 437.91,-61.5"/>
<polygon fill="#8b1a1a" stroke="#8b1a1a" points="404.55,-53.1 394.15,-55.12 403.54,-60.03 404.55,-53.1"/>
</g>
</g>
</svg>
