<?xml version="1.0" encoding="UTF-8" standalone="no"?>
<!DOCTYPE svg PUBLIC "-//W3C//DTD SVG 1.1//EN"
 "http://www.w3.org/Graphics/SVG/1.1/DTD/svg11.dtd">
<!-- Generated by graphviz version 2.47.1 (20210515.0534)
 -->
<!-- Title: Kadath::MemoryMappable Pages: 1 -->
<svg width="478pt" height="1289pt"
 viewBox="0.00 0.00 478.00 1289.00" xmlns="http://www.w3.org/2000/svg" xmlns:xlink="http://www.w3.org/1999/xlink">
<g id="graph0" class="graph" transform="scale(1 1) rotate(0) translate(4 1285)">
<title>Kadath::MemoryMappable</title>
<!-- Node1 -->
<g id="node1" class="node">
<title>Node1</title>
<g id="a_node1"><a xlink:title=" ">
<polygon fill="#bfbfbf" stroke="black" points="0,-522 0,-541 128,-541 128,-522 0,-522"/>
<text text-anchor="middle" x="64" y="-529" font-family="Helvetica,sans-Serif" font-size="10.00">Kadath::MemoryMappable</text>
</a>
</g>
</g>
<!-- Node2 -->
<g id="node2" class="node">
<title>Node2</title>
<g id="a_node2"><a xlink:href="classKadath_1_1Array.html" target="_top" xlink:title=" ">
<polygon fill="none" stroke="black" points="164,-883 164,-902 283,-902 283,-883 164,-883"/>
<text text-anchor="middle" x="223.5" y="-890" font-family="Helvetica,sans-Serif" font-size="10.00">Kadath::Array&lt; double &gt;</text>
</a>
</g>
</g>
<!-- Node1&#45;&gt;Node2 -->
<g id="edge1" class="edge">
<title>Node1&#45;&gt;Node2</title>
<path fill="none" stroke="midnightblue" d="M64.69,-551.24C64.89,-609.09 73.5,-780.04 164,-873.5 167.79,-877.41 172.39,-880.52 177.33,-882.99"/>
<polygon fill="midnightblue" stroke="midnightblue" points="68.19,-551.25 64.74,-541.23 61.19,-551.21 68.19,-551.25"/>
</g>
<!-- Node3 -->
<g id="node3" class="node">
<title>Node3</title>
<g id="a_node3"><a xlink:href="classKadath_1_1Array.html" target="_top" xlink:title=" ">
<polygon fill="none" stroke="black" points="173,-845 173,-864 274,-864 274,-845 173,-845"/>
<text text-anchor="middle" x="223.5" y="-852" font-family="Helvetica,sans-Serif" font-size="10.00">Kadath::Array&lt; int &gt;</text>
</a>
</g>
</g>
<!-- Node1&#45;&gt;Node3 -->
<g id="edge2" class="edge">
<title>Node1&#45;&gt;Node3</title>
<path fill="none" stroke="midnightblue" d="M65.55,-551.5C68.12,-605.23 82.61,-754.17 164,-835.5 167.85,-839.35 172.49,-842.42 177.45,-844.87"/>
<polygon fill="midnightblue" stroke="midnightblue" points="69.04,-551.13 65.15,-541.27 62.04,-551.4 69.04,-551.13"/>
</g>
<!-- Node4 -->
<g id="node4" class="node">
<title>Node4</title>
<g id="a_node4"><a xlink:href="classKadath_1_1Array.html" target="_top" xlink:title=" ">
<polygon fill="none" stroke="black" points="175,-807 175,-826 272,-826 272,-807 175,-807"/>
<text text-anchor="middle" x="223.5" y="-814" font-family="Helvetica,sans-Serif" font-size="10.00">Kadath::Array&lt; T &gt;</text>
</a>
</g>
</g>
<!-- Node1&#45;&gt;Node4 -->
<g id="edge3" class="edge">
<title>Node1&#45;&gt;Node4</title>
<path fill="none" stroke="midnightblue" d="M66.6,-551.26C71.63,-600.16 91.39,-727.89 164,-797.5 168.09,-801.42 172.99,-804.53 178.19,-806.99"/>
<polygon fill="midnightblue" stroke="midnightblue" points="70.07,-550.72 65.66,-541.09 63.1,-551.37 70.07,-550.72"/>
</g>
<!-- Node5 -->
<g id="node5" class="node">
<title>Node5</title>
<g id="a_node5"><a xlink:href="classKadath_1_1Base__spectral.html" target="_top" xlink:title=" ">
<polygon fill="none" stroke="black" points="166.5,-769 166.5,-788 280.5,-788 280.5,-769 166.5,-769"/>
<text text-anchor="middle" x="223.5" y="-776" font-family="Helvetica,sans-Serif" font-size="10.00">Kadath::Base_spectral</text>
</a>
</g>
</g>
<!-- Node1&#45;&gt;Node5 -->
<g id="edge4" class="edge">
<title>Node1&#45;&gt;Node5</title>
<path fill="none" stroke="midnightblue" d="M68.01,-551.37C75.72,-595.35 100.25,-701.57 164,-759.5 168.27,-763.38 173.34,-766.47 178.68,-768.92"/>
<polygon fill="midnightblue" stroke="midnightblue" points="71.45,-550.68 66.37,-541.38 64.54,-551.81 71.45,-550.68"/>
</g>
<!-- Node6 -->
<g id="node6" class="node">
<title>Node6</title>
<g id="a_node6"><a xlink:href="classKadath_1_1Base__tensor.html" target="_top" xlink:title=" ">
<polygon fill="none" stroke="black" points="170,-731 170,-750 277,-750 277,-731 170,-731"/>
<text text-anchor="middle" x="223.5" y="-738" font-family="Helvetica,sans-Serif" font-size="10.00">Kadath::Base_tensor</text>
</a>
</g>
</g>
<!-- Node1&#45;&gt;Node6 -->
<g id="edge5" class="edge">
<title>Node1&#45;&gt;Node6</title>
<path fill="none" stroke="midnightblue" d="M69.79,-550.88C80.24,-589.13 108.69,-674.7 164,-721.5 168.57,-725.36 173.93,-728.44 179.53,-730.9"/>
<polygon fill="midnightblue" stroke="midnightblue" points="73.13,-549.8 67.21,-541.01 66.35,-551.57 73.13,-549.8"/>
</g>
<!-- Node7 -->
<g id="node7" class="node">
<title>Node7</title>
<g id="a_node7"><a xlink:href="classKadath_1_1Dim__array.html" target="_top" xlink:title=" ">
<polygon fill="none" stroke="black" points="176,-693 176,-712 271,-712 271,-693 176,-693"/>
<text text-anchor="middle" x="223.5" y="-700" font-family="Helvetica,sans-Serif" font-size="10.00">Kadath::Dim_array</text>
</a>
</g>
</g>
<!-- Node1&#45;&gt;Node7 -->
<g id="edge6" class="edge">
<title>Node1&#45;&gt;Node7</title>
<path fill="none" stroke="midnightblue" d="M72.54,-550.93C86.02,-583.17 117.28,-647.71 164,-683.5 169.09,-687.4 175,-690.51 181.08,-692.99"/>
<polygon fill="midnightblue" stroke="midnightblue" points="75.65,-549.28 68.65,-541.33 69.16,-551.91 75.65,-549.28"/>
</g>
<!-- Node8 -->
<g id="node8" class="node">
<title>Node8</title>
<g id="a_node8"><a xlink:href="classKadath_1_1Domain.html" target="_top" xlink:title=" ">
<polygon fill="none" stroke="red" points="181,-655 181,-674 266,-674 266,-655 181,-655"/>
<text text-anchor="middle" x="223.5" y="-662" font-family="Helvetica,sans-Serif" font-size="10.00">Kadath::Domain</text>
</a>
</g>
</g>
<!-- Node1&#45;&gt;Node8 -->
<g id="edge7" class="edge">
<title>Node1&#45;&gt;Node8</title>
<path fill="none" stroke="midnightblue" d="M76.32,-549.9C92.67,-575.02 125.24,-619.83 164,-645.5 169.79,-649.33 176.41,-652.44 183.06,-654.95"/>
<polygon fill="midnightblue" stroke="midnightblue" points="79.18,-547.89 70.86,-541.32 73.27,-551.64 79.18,-547.89"/>
</g>
<!-- Node44 -->
<g id="node37" class="node">
<title>Node44</title>
<g id="a_node37"><a xlink:href="classKadath_1_1Eq__int.html" target="_top" xlink:title=" ">
<polygon fill="none" stroke="black" points="184,-617 184,-636 263,-636 263,-617 184,-617"/>
<text text-anchor="middle" x="223.5" y="-624" font-family="Helvetica,sans-Serif" font-size="10.00">Kadath::Eq_int</text>
</a>
</g>
</g>
<!-- Node1&#45;&gt;Node44 -->
<g id="edge36" class="edge">
<title>Node1&#45;&gt;Node44</title>
<path fill="none" stroke="midnightblue" d="M82.67,-548.1C101.53,-565.05 132.93,-591.15 164,-607.5 170.99,-611.18 178.83,-614.32 186.44,-616.92"/>
<polygon fill="midnightblue" stroke="midnightblue" points="84.9,-545.39 75.16,-541.23 80.18,-550.56 84.9,-545.39"/>
</g>
<!-- Node45 -->
<g id="node38" class="node">
<title>Node45</title>
<g id="a_node38"><a xlink:href="classKadath_1_1Equation.html" target="_top" xlink:title=" ">
<polygon fill="none" stroke="red" points="179,-579 179,-598 268,-598 268,-579 179,-579"/>
<text text-anchor="middle" x="223.5" y="-586" font-family="Helvetica,sans-Serif" font-size="10.00">Kadath::Equation</text>
</a>
</g>
</g>
<!-- Node1&#45;&gt;Node45 -->
<g id="edge37" class="edge">
<title>Node1&#45;&gt;Node45</title>
<path fill="none" stroke="midnightblue" d="M98.34,-544.8C117.47,-552.3 141.98,-561.7 164,-569.5 173.06,-572.71 182.98,-576.01 192.04,-578.94"/>
<polygon fill="midnightblue" stroke="midnightblue" points="99.46,-541.48 88.88,-541.07 96.9,-547.99 99.46,-541.48"/>
</g>
<!-- Node62 -->
<g id="node39" class="node">
<title>Node62</title>
<g id="a_node39"><a xlink:href="classKadath_1_1Index.html" target="_top" xlink:title=" ">
<polygon fill="none" stroke="black" points="186,-541 186,-560 261,-560 261,-541 186,-541"/>
<text text-anchor="middle" x="223.5" y="-548" font-family="Helvetica,sans-Serif" font-size="10.00">Kadath::Index</text>
</a>
</g>
</g>
<!-- Node1&#45;&gt;Node62 -->
<g id="edge38" class="edge">
<title>Node1&#45;&gt;Node62</title>
<path fill="none" stroke="midnightblue" d="M138.31,-540.34C154.72,-542.32 171.45,-544.34 185.63,-546.05"/>
<polygon fill="midnightblue" stroke="midnightblue" points="138.5,-536.84 128.15,-539.12 137.66,-543.79 138.5,-536.84"/>
</g>
<!-- Node63 -->
<g id="node40" class="node">
<title>Node63</title>
<g id="a_node40"><a xlink:href="classKadath_1_1Matrice.html" target="_top" xlink:title=" ">
<polygon fill="none" stroke="black" points="181.5,-503 181.5,-522 265.5,-522 265.5,-503 181.5,-503"/>
<text text-anchor="middle" x="223.5" y="-510" font-family="Helvetica,sans-Serif" font-size="10.00">Kadath::Matrice</text>
</a>
</g>
</g>
<!-- Node1&#45;&gt;Node63 -->
<g id="edge39" class="edge">
<title>Node1&#45;&gt;Node63</title>
<path fill="none" stroke="midnightblue" d="M138.26,-522.66C152.95,-520.89 167.9,-519.09 181.04,-517.5"/>
<polygon fill="midnightblue" stroke="midnightblue" points="137.66,-519.21 128.15,-523.88 138.5,-526.16 137.66,-519.21"/>
</g>
<!-- Node64 -->
<g id="node41" class="node">
<title>Node64</title>
<g id="a_node41"><a xlink:href="classKadath_1_1Metric.html" target="_top" xlink:title=" ">
<polygon fill="none" stroke="red" points="184,-465 184,-484 263,-484 263,-465 184,-465"/>
<text text-anchor="middle" x="223.5" y="-472" font-family="Helvetica,sans-Serif" font-size="10.00">Kadath::Metric</text>
</a>
</g>
</g>
<!-- Node1&#45;&gt;Node64 -->
<g id="edge40" class="edge">
<title>Node1&#45;&gt;Node64</title>
<path fill="none" stroke="midnightblue" d="M98.34,-518.2C117.47,-510.7 141.98,-501.3 164,-493.5 173.06,-490.29 182.98,-486.99 192.04,-484.06"/>
<polygon fill="midnightblue" stroke="midnightblue" points="96.9,-515.01 88.88,-521.93 99.46,-521.52 96.9,-515.01"/>
</g>
<!-- Node82 -->
<g id="node42" class="node">
<title>Node82</title>
<g id="a_node42"><a xlink:href="classKadath_1_1Ope__eq.html" target="_top" xlink:title=" ">
<polygon fill="none" stroke="red" points="180.5,-427 180.5,-446 266.5,-446 266.5,-427 180.5,-427"/>
<text text-anchor="middle" x="223.5" y="-434" font-family="Helvetica,sans-Serif" font-size="10.00">Kadath::Ope_eq</text>
</a>
</g>
</g>
<!-- Node1&#45;&gt;Node82 -->
<g id="edge41" class="edge">
<title>Node1&#45;&gt;Node82</title>
<path fill="none" stroke="midnightblue" d="M82.67,-514.9C101.53,-497.95 132.93,-471.85 164,-455.5 170.99,-451.82 178.83,-448.68 186.44,-446.08"/>
<polygon fill="midnightblue" stroke="midnightblue" points="80.18,-512.44 75.16,-521.77 84.9,-517.61 80.18,-512.44"/>
</g>
<!-- Node111 -->
<g id="node43" class="node">
<title>Node111</title>
<g id="a_node43"><a xlink:href="classKadath_1_1Param.html" target="_top" xlink:title=" ">
<polygon fill="none" stroke="black" points="183.5,-389 183.5,-408 263.5,-408 263.5,-389 183.5,-389"/>
<text text-anchor="middle" x="223.5" y="-396" font-family="Helvetica,sans-Serif" font-size="10.00">Kadath::Param</text>
</a>
</g>
</g>
<!-- Node1&#45;&gt;Node111 -->
<g id="edge42" class="edge">
<title>Node1&#45;&gt;Node111</title>
<path fill="none" stroke="midnightblue" d="M76.32,-513.1C92.67,-487.98 125.24,-443.17 164,-417.5 169.88,-413.61 176.61,-410.46 183.37,-407.93"/>
<polygon fill="midnightblue" stroke="midnightblue" points="73.27,-511.36 70.86,-521.68 79.18,-515.11 73.27,-511.36"/>
</g>
<!-- Node112 -->
<g id="node44" class="node">
<title>Node112</title>
<g id="a_node44"><a xlink:href="classKadath_1_1Param__tensor.html" target="_top" xlink:title=" ">
<polygon fill="none" stroke="black" points="167,-351 167,-370 280,-370 280,-351 167,-351"/>
<text text-anchor="middle" x="223.5" y="-358" font-family="Helvetica,sans-Serif" font-size="10.00">Kadath::Param_tensor</text>
</a>
</g>
</g>
<!-- Node1&#45;&gt;Node112 -->
<g id="edge43" class="edge">
<title>Node1&#45;&gt;Node112</title>
<path fill="none" stroke="midnightblue" d="M72.54,-512.07C86.02,-479.83 117.28,-415.29 164,-379.5 169.09,-375.6 175,-372.49 181.08,-370.01"/>
<polygon fill="midnightblue" stroke="midnightblue" points="69.16,-511.09 68.65,-521.67 75.65,-513.72 69.16,-511.09"/>
</g>
<!-- Node113 -->
<g id="node45" class="node">
<title>Node113</title>
<g id="a_node45"><a xlink:href="classKadath_1_1Point.html" target="_top" xlink:title=" ">
<polygon fill="none" stroke="black" points="186.5,-313 186.5,-332 260.5,-332 260.5,-313 186.5,-313"/>
<text text-anchor="middle" x="223.5" y="-320" font-family="Helvetica,sans-Serif" font-size="10.00">Kadath::Point</text>
</a>
</g>
</g>
<!-- Node1&#45;&gt;Node113 -->
<g id="edge44" class="edge">
<title>Node1&#45;&gt;Node113</title>
<path fill="none" stroke="midnightblue" d="M69.79,-512.12C80.24,-473.87 108.69,-388.3 164,-341.5 170.36,-336.12 178.27,-332.25 186.21,-329.48"/>
<polygon fill="midnightblue" stroke="midnightblue" points="66.35,-511.43 67.21,-521.99 73.13,-513.2 66.35,-511.43"/>
</g>
<!-- Node114 -->
<g id="node46" class="node">
<title>Node114</title>
<g id="a_node46"><a xlink:href="classKadath_1_1Space.html" target="_top" xlink:title=" ">
<polygon fill="none" stroke="red" points="183.5,-275 183.5,-294 263.5,-294 263.5,-275 183.5,-275"/>
<text text-anchor="middle" x="223.5" y="-282" font-family="Helvetica,sans-Serif" font-size="10.00">Kadath::Space</text>
</a>
</g>
</g>
<!-- Node1&#45;&gt;Node114 -->
<g id="edge45" class="edge">
<title>Node1&#45;&gt;Node114</title>
<path fill="none" stroke="midnightblue" d="M68.01,-511.63C75.72,-467.65 100.25,-361.43 164,-303.5 169.53,-298.47 176.41,-294.77 183.49,-292.05"/>
<polygon fill="midnightblue" stroke="midnightblue" points="64.54,-511.19 66.37,-521.62 71.45,-512.32 64.54,-511.19"/>
</g>
<!-- Node135 -->
<g id="node47" class="node">
<title>Node135</title>
<g id="a_node47"><a xlink:href="classKadath_1_1Tensor.html" target="_top" xlink:title=" ">
<polygon fill="none" stroke="red" points="182.5,-237 182.5,-256 264.5,-256 264.5,-237 182.5,-237"/>
<text text-anchor="middle" x="223.5" y="-244" font-family="Helvetica,sans-Serif" font-size="10.00">Kadath::Tensor</text>
</a>
</g>
</g>
<!-- Node1&#45;&gt;Node135 -->
<g id="edge46" class="edge">
<title>Node1&#45;&gt;Node135</title>
<path fill="none" stroke="midnightblue" d="M66.6,-511.74C71.63,-462.84 91.39,-335.11 164,-265.5 169.16,-260.55 175.63,-256.89 182.37,-254.18"/>
<polygon fill="midnightblue" stroke="midnightblue" points="63.1,-511.63 65.66,-521.91 70.07,-512.28 63.1,-511.63"/>
</g>
<!-- Node139 -->
<g id="node48" class="node">
<title>Node139</title>
<g id="a_node48"><a xlink:href="classKadath_1_1Term__eq.html" target="_top" xlink:title=" ">
<polygon fill="none" stroke="black" points="178.5,-199 178.5,-218 268.5,-218 268.5,-199 178.5,-199"/>
<text text-anchor="middle" x="223.5" y="-206" font-family="Helvetica,sans-Serif" font-size="10.00">Kadath::Term_eq</text>
</a>
</g>
</g>
<!-- Node1&#45;&gt;Node139 -->
<g id="edge47" class="edge">
<title>Node1&#45;&gt;Node139</title>
<path fill="none" stroke="midnightblue" d="M65.55,-511.5C68.12,-457.77 82.61,-308.83 164,-227.5 168.08,-223.42 173.04,-220.22 178.33,-217.71"/>
<polygon fill="midnightblue" stroke="midnightblue" points="62.04,-511.6 65.15,-521.73 69.04,-511.87 62.04,-511.6"/>
</g>
<!-- Node140 -->
<g id="node49" class="node">
<title>Node140</title>
<g id="a_node49"><a xlink:href="classKadath_1_1Val__domain.html" target="_top" xlink:title=" ">
<polygon fill="none" stroke="black" points="172,-161 172,-180 275,-180 275,-161 172,-161"/>
<text text-anchor="middle" x="223.5" y="-168" font-family="Helvetica,sans-Serif" font-size="10.00">Kadath::Val_domain</text>
</a>
</g>
</g>
<!-- Node1&#45;&gt;Node140 -->
<g id="edge48" class="edge">
<title>Node1&#45;&gt;Node140</title>
<path fill="none" stroke="midnightblue" d="M64.69,-511.76C64.89,-453.91 73.5,-282.96 164,-189.5 167.79,-185.59 172.39,-182.48 177.33,-180.01"/>
<polygon fill="midnightblue" stroke="midnightblue" points="61.19,-511.79 64.74,-521.77 68.19,-511.75 61.19,-511.79"/>
</g>
<!-- Node9 -->
<g id="node9" class="node">
<title>Node9</title>
<g id="a_node9"><a xlink:href="classKadath_1_1Domain__bispheric__chi__first.html" target="_top" xlink:title=" ">
<polygon fill="none" stroke="black" points="330,-1250.5 330,-1280.5 459,-1280.5 459,-1250.5 330,-1250.5"/>
<text text-anchor="start" x="338" y="-1268.5" font-family="Helvetica,sans-Serif" font-size="10.00">Kadath::Domain_bispheric</text>
<text text-anchor="middle" x="394.5" y="-1257.5" font-family="Helvetica,sans-Serif" font-size="10.00">_chi_first</text>
</a>
</g>
</g>
<!-- Node8&#45;&gt;Node9 -->
<g id="edge8" class="edge">
<title>Node8&#45;&gt;Node9</title>
<path fill="none" stroke="midnightblue" d="M275.14,-676.11C278.1,-678.19 280.77,-680.63 283,-683.5 359.24,-781.62 242.64,-1143.47 319,-1241.5 322.01,-1245.36 325.64,-1248.61 329.67,-1251.34"/>
<polygon fill="midnightblue" stroke="midnightblue" points="276.64,-672.94 266.19,-671.17 273.25,-679.06 276.64,-672.94"/>
</g>
<!-- Node10 -->
<g id="node10" class="node">
<title>Node10</title>
<g id="a_node10"><a xlink:href="classKadath_1_1Domain__bispheric__eta__first.html" target="_top" xlink:title=" ">
<polygon fill="none" stroke="black" points="330,-1201.5 330,-1231.5 459,-1231.5 459,-1201.5 330,-1201.5"/>
<text text-anchor="start" x="338" y="-1219.5" font-family="Helvetica,sans-Serif" font-size="10.00">Kadath::Domain_bispheric</text>
<text text-anchor="middle" x="394.5" y="-1208.5" font-family="Helvetica,sans-Serif" font-size="10.00">_eta_first</text>
</a>
</g>
</g>
<!-- Node8&#45;&gt;Node10 -->
<g id="edge9" class="edge">
<title>Node8&#45;&gt;Node10</title>
<path fill="none" stroke="midnightblue" d="M275.12,-676.13C278.08,-678.2 280.76,-680.64 283,-683.5 352.72,-772.64 249.71,-1102.02 319,-1191.5 322.01,-1195.38 325.64,-1198.67 329.67,-1201.45"/>
<polygon fill="midnightblue" stroke="midnightblue" points="276.61,-672.95 266.16,-671.19 273.23,-679.08 276.61,-672.95"/>
</g>
<!-- Node11 -->
<g id="node11" class="node">
<title>Node11</title>
<g id="a_node11"><a xlink:href="classKadath_1_1Domain__bispheric__rect.html" target="_top" xlink:title=" ">
<polygon fill="none" stroke="black" points="319,-1163 319,-1182 470,-1182 470,-1163 319,-1163"/>
<text text-anchor="middle" x="394.5" y="-1170" font-family="Helvetica,sans-Serif" font-size="10.00">Kadath::Domain_bispheric_rect</text>
</a>
</g>
</g>
<!-- Node8&#45;&gt;Node11 -->
<g id="edge10" class="edge">
<title>Node8&#45;&gt;Node11</title>
<path fill="none" stroke="midnightblue" d="M275.11,-676.14C278.07,-678.21 280.75,-680.64 283,-683.5 347.77,-765.83 251.62,-1073.3 319,-1153.5 322.18,-1157.28 325.99,-1160.37 330.19,-1162.88"/>
<polygon fill="midnightblue" stroke="midnightblue" points="276.59,-672.96 266.14,-671.21 273.21,-679.09 276.59,-672.96"/>
</g>
<!-- Node12 -->
<g id="node12" class="node">
<title>Node12</title>
<g id="a_node12"><a xlink:href="classKadath_1_1Domain__compact.html" target="_top" xlink:title=" ">
<polygon fill="none" stroke="black" points="330.5,-1125 330.5,-1144 458.5,-1144 458.5,-1125 330.5,-1125"/>
<text text-anchor="middle" x="394.5" y="-1132" font-family="Helvetica,sans-Serif" font-size="10.00">Kadath::Domain_compact</text>
</a>
</g>
</g>
<!-- Node8&#45;&gt;Node12 -->
<g id="edge11" class="edge">
<title>Node8&#45;&gt;Node12</title>
<path fill="none" stroke="midnightblue" d="M275.08,-676.16C278.05,-678.22 280.74,-680.65 283,-683.5 342.82,-759.01 256.79,-1041.95 319,-1115.5 322.19,-1119.27 326.01,-1122.35 330.22,-1124.85"/>
<polygon fill="midnightblue" stroke="midnightblue" points="276.56,-672.97 266.11,-671.23 273.19,-679.11 276.56,-672.97"/>
</g>
<!-- Node13 -->
<g id="node13" class="node">
<title>Node13</title>
<g id="a_node13"><a xlink:href="classKadath_1_1Domain__compact__symphi.html" target="_top" xlink:title=" ">
<polygon fill="none" stroke="black" points="330.5,-1075.5 330.5,-1105.5 458.5,-1105.5 458.5,-1075.5 330.5,-1075.5"/>
<text text-anchor="start" x="338.5" y="-1093.5" font-family="Helvetica,sans-Serif" font-size="10.00">Kadath::Domain_compact</text>
<text text-anchor="middle" x="394.5" y="-1082.5" font-family="Helvetica,sans-Serif" font-size="10.00">_symphi</text>
</a>
</g>
</g>
<!-- Node8&#45;&gt;Node13 -->
<g id="edge12" class="edge">
<title>Node8&#45;&gt;Node13</title>
<path fill="none" stroke="midnightblue" d="M275.05,-676.18C278.03,-678.25 280.73,-680.66 283,-683.5 389.87,-816.95 211.97,-933.17 319,-1066.5 322.23,-1070.53 326.15,-1073.89 330.47,-1076.69"/>
<polygon fill="midnightblue" stroke="midnightblue" points="276.51,-673 266.06,-671.27 273.16,-679.14 276.51,-673"/>
</g>
<!-- Node14 -->
<g id="node14" class="node">
<title>Node14</title>
<g id="a_node14"><a xlink:href="classKadath_1_1Domain__critic__inner.html" target="_top" xlink:title=" ">
<polygon fill="none" stroke="black" points="339,-1026.5 339,-1056.5 450,-1056.5 450,-1026.5 339,-1026.5"/>
<text text-anchor="start" x="347" y="-1044.5" font-family="Helvetica,sans-Serif" font-size="10.00">Kadath::Domain_critic</text>
<text text-anchor="middle" x="394.5" y="-1033.5" font-family="Helvetica,sans-Serif" font-size="10.00">_inner</text>
</a>
</g>
</g>
<!-- Node8&#45;&gt;Node14 -->
<g id="edge13" class="edge">
<title>Node8&#45;&gt;Node14</title>
<path fill="none" stroke="midnightblue" d="M275.14,-676.31C278.08,-678.35 280.74,-680.72 283,-683.5 377.12,-799.4 224.74,-901.71 319,-1017.5 324.23,-1023.93 331.2,-1028.66 338.78,-1032.13"/>
<polygon fill="midnightblue" stroke="midnightblue" points="276.74,-673.2 266.29,-671.45 273.37,-679.33 276.74,-673.2"/>
</g>
<!-- Node15 -->
<g id="node15" class="node">
<title>Node15</title>
<g id="a_node15"><a xlink:href="classKadath_1_1Domain__critic__outer.html" target="_top" xlink:title=" ">
<polygon fill="none" stroke="black" points="339,-977.5 339,-1007.5 450,-1007.5 450,-977.5 339,-977.5"/>
<text text-anchor="start" x="347" y="-995.5" font-family="Helvetica,sans-Serif" font-size="10.00">Kadath::Domain_critic</text>
<text text-anchor="middle" x="394.5" y="-984.5" font-family="Helvetica,sans-Serif" font-size="10.00">_outer</text>
</a>
</g>
</g>
<!-- Node8&#45;&gt;Node15 -->
<g id="edge14" class="edge">
<title>Node8&#45;&gt;Node15</title>
<path fill="none" stroke="midnightblue" d="M275.08,-676.36C278.03,-678.38 280.72,-680.74 283,-683.5 364.39,-781.87 237.5,-870.23 319,-968.5 324.29,-974.88 331.29,-979.58 338.88,-983.04"/>
<polygon fill="midnightblue" stroke="midnightblue" points="276.67,-673.24 266.21,-671.52 273.31,-679.38 276.67,-673.24"/>
</g>
<!-- Node16 -->
<g id="node16" class="node">
<title>Node16</title>
<g id="a_node16"><a xlink:href="classKadath_1_1Domain__fourD__periodic__nucleus.html" target="_top" xlink:title=" ">
<polygon fill="none" stroke="black" points="338,-928.5 338,-958.5 451,-958.5 451,-928.5 338,-928.5"/>
<text text-anchor="start" x="346" y="-946.5" font-family="Helvetica,sans-Serif" font-size="10.00">Kadath::Domain_fourD</text>
<text text-anchor="middle" x="394.5" y="-935.5" font-family="Helvetica,sans-Serif" font-size="10.00">_periodic_nucleus</text>
</a>
</g>
</g>
<!-- Node8&#45;&gt;Node16 -->
<g id="edge15" class="edge">
<title>Node8&#45;&gt;Node16</title>
<path fill="none" stroke="midnightblue" d="M275,-676.43C277.97,-678.43 280.68,-680.77 283,-683.5 351.68,-764.37 250.22,-838.71 319,-919.5 324.11,-925.5 330.73,-930.02 337.91,-933.41"/>
<polygon fill="midnightblue" stroke="midnightblue" points="276.56,-673.29 266.1,-671.61 273.23,-679.45 276.56,-673.29"/>
</g>
<!-- Node17 -->
<g id="node17" class="node">
<title>Node17</title>
<g id="a_node17"><a xlink:href="classKadath_1_1Domain__fourD__periodic__shell.html" target="_top" xlink:title=" ">
<polygon fill="none" stroke="black" points="338,-879.5 338,-909.5 451,-909.5 451,-879.5 338,-879.5"/>
<text text-anchor="start" x="346" y="-897.5" font-family="Helvetica,sans-Serif" font-size="10.00">Kadath::Domain_fourD</text>
<text text-anchor="middle" x="394.5" y="-886.5" font-family="Helvetica,sans-Serif" font-size="10.00">_periodic_shell</text>
</a>
</g>
</g>
<!-- Node8&#45;&gt;Node17 -->
<g id="edge16" class="edge">
<title>Node8&#45;&gt;Node17</title>
<path fill="none" stroke="midnightblue" d="M275.29,-676.8C278.13,-678.72 280.74,-680.94 283,-683.5 338.77,-746.58 263.54,-806.15 319,-869.5 324.12,-875.35 330.66,-879.84 337.72,-883.27"/>
<polygon fill="midnightblue" stroke="midnightblue" points="276.68,-673.58 266.22,-671.89 273.35,-679.73 276.68,-673.58"/>
</g>
<!-- Node18 -->
<g id="node18" class="node">
<title>Node18</title>
<g id="a_node18"><a xlink:href="classKadath_1_1Domain__nucleus.html" target="_top" xlink:title=" ">
<polygon fill="none" stroke="black" points="332.5,-841 332.5,-860 456.5,-860 456.5,-841 332.5,-841"/>
<text text-anchor="middle" x="394.5" y="-848" font-family="Helvetica,sans-Serif" font-size="10.00">Kadath::Domain_nucleus</text>
</a>
</g>
</g>
<!-- Node8&#45;&gt;Node18 -->
<g id="edge17" class="edge">
<title>Node8&#45;&gt;Node18</title>
<path fill="none" stroke="midnightblue" d="M274.88,-676.75C277.85,-678.68 280.6,-680.92 283,-683.5 329.03,-733.14 271.4,-783.37 319,-831.5 322.85,-835.39 327.37,-838.52 332.26,-841.04"/>
<polygon fill="midnightblue" stroke="midnightblue" points="276.5,-673.65 266.02,-672.07 273.23,-679.84 276.5,-673.65"/>
</g>
<!-- Node19 -->
<g id="node19" class="node">
<title>Node19</title>
<g id="a_node19"><a xlink:href="classKadath_1_1Domain__nucleus__symphi.html" target="_top" xlink:title=" ">
<polygon fill="none" stroke="black" points="332.5,-791.5 332.5,-821.5 456.5,-821.5 456.5,-791.5 332.5,-791.5"/>
<text text-anchor="start" x="340.5" y="-809.5" font-family="Helvetica,sans-Serif" font-size="10.00">Kadath::Domain_nucleus</text>
<text text-anchor="middle" x="394.5" y="-798.5" font-family="Helvetica,sans-Serif" font-size="10.00">_symphi</text>
</a>
</g>
</g>
<!-- Node8&#45;&gt;Node19 -->
<g id="edge18" class="edge">
<title>Node8&#45;&gt;Node19</title>
<path fill="none" stroke="midnightblue" d="M275.11,-677.41C277.95,-679.19 280.62,-681.2 283,-683.5 316.43,-715.68 285.73,-749.16 319,-781.5 323.01,-785.4 327.65,-788.69 332.61,-791.47"/>
<polygon fill="midnightblue" stroke="midnightblue" points="276.64,-674.26 266.15,-672.79 273.43,-680.48 276.64,-674.26"/>
</g>
<!-- Node20 -->
<g id="node20" class="node">
<title>Node20</title>
<g id="a_node20"><a xlink:href="classKadath_1_1Domain__oned__inf.html" target="_top" xlink:title=" ">
<polygon fill="none" stroke="black" points="331,-753 331,-772 458,-772 458,-753 331,-753"/>
<text text-anchor="middle" x="394.5" y="-760" font-family="Helvetica,sans-Serif" font-size="10.00">Kadath::Domain_oned_inf</text>
</a>
</g>
</g>
<!-- Node8&#45;&gt;Node20 -->
<g id="edge19" class="edge">
<title>Node8&#45;&gt;Node20</title>
<path fill="none" stroke="midnightblue" d="M275.18,-678.26C277.94,-679.83 280.57,-681.57 283,-683.5 307.33,-702.87 294.06,-724.93 319,-743.5 324.25,-747.41 330.21,-750.51 336.43,-752.98"/>
<polygon fill="midnightblue" stroke="midnightblue" points="276.58,-675.05 266.05,-673.84 273.52,-681.35 276.58,-675.05"/>
</g>
<!-- Node21 -->
<g id="node21" class="node">
<title>Node21</title>
<g id="a_node21"><a xlink:href="classKadath_1_1Domain__oned__ori.html" target="_top" xlink:title=" ">
<polygon fill="none" stroke="black" points="331,-715 331,-734 458,-734 458,-715 331,-715"/>
<text text-anchor="middle" x="394.5" y="-722" font-family="Helvetica,sans-Serif" font-size="10.00">Kadath::Domain_oned_ori</text>
</a>
</g>
</g>
<!-- Node8&#45;&gt;Node21 -->
<g id="edge20" class="edge">
<title>Node8&#45;&gt;Node21</title>
<path fill="none" stroke="midnightblue" d="M268.15,-677.42C273.22,-679.29 278.27,-681.32 283,-683.5 300.03,-691.34 301.72,-698.21 319,-705.5 327.86,-709.23 337.62,-712.37 347.09,-714.95"/>
<polygon fill="midnightblue" stroke="midnightblue" points="269.02,-674.02 258.43,-674.03 266.72,-680.63 269.02,-674.02"/>
</g>
<!-- Node22 -->
<g id="node22" class="node">
<title>Node22</title>
<g id="a_node22"><a xlink:href="classKadath_1_1Domain__oned__qcq.html" target="_top" xlink:title=" ">
<polygon fill="none" stroke="black" points="328.5,-677 328.5,-696 460.5,-696 460.5,-677 328.5,-677"/>
<text text-anchor="middle" x="394.5" y="-684" font-family="Helvetica,sans-Serif" font-size="10.00">Kadath::Domain_oned_qcq</text>
</a>
</g>
</g>
<!-- Node8&#45;&gt;Node22 -->
<g id="edge21" class="edge">
<title>Node8&#45;&gt;Node22</title>
<path fill="none" stroke="midnightblue" d="M276.21,-671.23C292.61,-673.37 310.97,-675.76 328.2,-678"/>
<polygon fill="midnightblue" stroke="midnightblue" points="276.64,-667.76 266.28,-669.94 275.74,-674.7 276.64,-667.76"/>
</g>
<!-- Node23 -->
<g id="node23" class="node">
<title>Node23</title>
<g id="a_node23"><a xlink:href="classKadath_1_1Domain__polar__compact.html" target="_top" xlink:title=" ">
<polygon fill="none" stroke="black" points="339,-627.5 339,-657.5 450,-657.5 450,-627.5 339,-627.5"/>
<text text-anchor="start" x="347" y="-645.5" font-family="Helvetica,sans-Serif" font-size="10.00">Kadath::Domain_polar</text>
<text text-anchor="middle" x="394.5" y="-634.5" font-family="Helvetica,sans-Serif" font-size="10.00">_compact</text>
</a>
</g>
</g>
<!-- Node8&#45;&gt;Node23 -->
<g id="edge22" class="edge">
<title>Node8&#45;&gt;Node23</title>
<path fill="none" stroke="midnightblue" d="M276.34,-657.75C296.13,-655.17 318.75,-652.23 338.81,-649.62"/>
<polygon fill="midnightblue" stroke="midnightblue" points="275.74,-654.3 266.28,-659.06 276.64,-661.24 275.74,-654.3"/>
</g>
<!-- Node24 -->
<g id="node24" class="node">
<title>Node24</title>
<g id="a_node24"><a xlink:href="classKadath_1_1Domain__polar__nucleus.html" target="_top" xlink:title=" ">
<polygon fill="none" stroke="black" points="339,-578.5 339,-608.5 450,-608.5 450,-578.5 339,-578.5"/>
<text text-anchor="start" x="347" y="-596.5" font-family="Helvetica,sans-Serif" font-size="10.00">Kadath::Domain_polar</text>
<text text-anchor="middle" x="394.5" y="-585.5" font-family="Helvetica,sans-Serif" font-size="10.00">_nucleus</text>
</a>
</g>
</g>
<!-- Node8&#45;&gt;Node24 -->
<g id="edge23" class="edge">
<title>Node8&#45;&gt;Node24</title>
<path fill="none" stroke="midnightblue" d="M269.67,-651.51C274.26,-649.69 278.78,-647.69 283,-645.5 300.75,-636.29 301.29,-627.8 319,-618.5 326.01,-614.82 333.66,-611.53 341.31,-608.63"/>
<polygon fill="midnightblue" stroke="midnightblue" points="268.4,-648.24 260.22,-654.97 270.81,-654.82 268.4,-648.24"/>
</g>
<!-- Node25 -->
<g id="node25" class="node">
<title>Node25</title>
<g id="a_node25"><a xlink:href="classKadath_1_1Domain__polar__periodic__nucleus.html" target="_top" xlink:title=" ">
<polygon fill="none" stroke="black" points="339,-529.5 339,-559.5 450,-559.5 450,-529.5 339,-529.5"/>
<text text-anchor="start" x="347" y="-547.5" font-family="Helvetica,sans-Serif" font-size="10.00">Kadath::Domain_polar</text>
<text text-anchor="middle" x="394.5" y="-536.5" font-family="Helvetica,sans-Serif" font-size="10.00">_periodic_nucleus</text>
</a>
</g>
</g>
<!-- Node8&#45;&gt;Node25 -->
<g id="edge24" class="edge">
<title>Node8&#45;&gt;Node25</title>
<path fill="none" stroke="midnightblue" d="M275.28,-651.09C278.03,-649.44 280.63,-647.58 283,-645.5 311.07,-620.82 291.05,-594.32 319,-569.5 324.82,-564.34 331.73,-560.23 338.98,-556.97"/>
<polygon fill="midnightblue" stroke="midnightblue" points="273.46,-648.09 266.1,-655.71 276.61,-654.34 273.46,-648.09"/>
</g>
<!-- Node26 -->
<g id="node26" class="node">
<title>Node26</title>
<g id="a_node26"><a xlink:href="classKadath_1_1Domain__polar__periodic__shell.html" target="_top" xlink:title=" ">
<polygon fill="none" stroke="black" points="339,-480.5 339,-510.5 450,-510.5 450,-480.5 339,-480.5"/>
<text text-anchor="start" x="347" y="-498.5" font-family="Helvetica,sans-Serif" font-size="10.00">Kadath::Domain_polar</text>
<text text-anchor="middle" x="394.5" y="-487.5" font-family="Helvetica,sans-Serif" font-size="10.00">_periodic_shell</text>
</a>
</g>
</g>
<!-- Node8&#45;&gt;Node26 -->
<g id="edge25" class="edge">
<title>Node8&#45;&gt;Node26</title>
<path fill="none" stroke="midnightblue" d="M275.17,-651.87C278.01,-650.03 280.66,-647.92 283,-645.5 323.19,-603.94 279.02,-562.26 319,-520.5 324.57,-514.69 331.53,-510.22 338.94,-506.8"/>
<polygon fill="midnightblue" stroke="midnightblue" points="273.35,-648.87 266.14,-656.63 276.62,-655.06 273.35,-648.87"/>
</g>
<!-- Node27 -->
<g id="node27" class="node">
<title>Node27</title>
<g id="a_node27"><a xlink:href="classKadath_1_1Domain__polar__shell.html" target="_top" xlink:title=" ">
<polygon fill="none" stroke="black" points="339,-431.5 339,-461.5 450,-461.5 450,-431.5 339,-431.5"/>
<text text-anchor="start" x="347" y="-449.5" font-family="Helvetica,sans-Serif" font-size="10.00">Kadath::Domain_polar</text>
<text text-anchor="middle" x="394.5" y="-438.5" font-family="Helvetica,sans-Serif" font-size="10.00">_shell</text>
</a>
</g>
</g>
<!-- Node8&#45;&gt;Node27 -->
<g id="edge26" class="edge">
<title>Node8&#45;&gt;Node27</title>
<path fill="none" stroke="midnightblue" d="M274.98,-652.34C277.93,-650.39 280.65,-648.13 283,-645.5 335.69,-586.67 266.6,-530.58 319,-471.5 324.43,-465.38 331.41,-460.75 338.91,-457.25"/>
<polygon fill="midnightblue" stroke="midnightblue" points="273.33,-649.26 266.17,-657.06 276.63,-655.43 273.33,-649.26"/>
</g>
<!-- Node28 -->
<g id="node28" class="node">
<title>Node28</title>
<g id="a_node28"><a xlink:href="classKadath_1_1Domain__polar__shell__inner__adapted.html" target="_top" xlink:title=" ">
<polygon fill="none" stroke="black" points="339,-382.5 339,-412.5 450,-412.5 450,-382.5 339,-382.5"/>
<text text-anchor="start" x="347" y="-400.5" font-family="Helvetica,sans-Serif" font-size="10.00">Kadath::Domain_polar</text>
<text text-anchor="middle" x="394.5" y="-389.5" font-family="Helvetica,sans-Serif" font-size="10.00">_shell_inner_adapted</text>
</a>
</g>
</g>
<!-- Node8&#45;&gt;Node28 -->
<g id="edge27" class="edge">
<title>Node8&#45;&gt;Node28</title>
<path fill="none" stroke="midnightblue" d="M274.98,-652.55C277.95,-650.55 280.67,-648.22 283,-645.5 348.32,-569.26 254.05,-499.06 319,-422.5 324.3,-416.26 331.2,-411.57 338.67,-408.05"/>
<polygon fill="midnightblue" stroke="midnightblue" points="273.2,-649.53 266.06,-657.36 276.52,-655.69 273.2,-649.53"/>
</g>
<!-- Node29 -->
<g id="node29" class="node">
<title>Node29</title>
<g id="a_node29"><a xlink:href="classKadath_1_1Domain__polar__shell__outer__adapted.html" target="_top" xlink:title=" ">
<polygon fill="none" stroke="black" points="339,-333.5 339,-363.5 450,-363.5 450,-333.5 339,-333.5"/>
<text text-anchor="start" x="347" y="-351.5" font-family="Helvetica,sans-Serif" font-size="10.00">Kadath::Domain_polar</text>
<text text-anchor="middle" x="394.5" y="-340.5" font-family="Helvetica,sans-Serif" font-size="10.00">_shell_outer_adapted</text>
</a>
</g>
</g>
<!-- Node8&#45;&gt;Node29 -->
<g id="edge28" class="edge">
<title>Node8&#45;&gt;Node29</title>
<path fill="none" stroke="midnightblue" d="M275.07,-652.62C278.02,-650.61 280.71,-648.25 283,-645.5 361.01,-551.78 241.44,-467.6 319,-373.5 324.29,-367.08 331.29,-362.3 338.89,-358.74"/>
<polygon fill="midnightblue" stroke="midnightblue" points="273.29,-649.6 266.19,-657.46 276.64,-655.75 273.29,-649.6"/>
</g>
<!-- Node30 -->
<g id="node30" class="node">
<title>Node30</title>
<g id="a_node30"><a xlink:href="classKadath_1_1Domain__shell.html" target="_top" xlink:title=" ">
<polygon fill="none" stroke="red" points="339.5,-295 339.5,-314 449.5,-314 449.5,-295 339.5,-295"/>
<text text-anchor="middle" x="394.5" y="-302" font-family="Helvetica,sans-Serif" font-size="10.00">Kadath::Domain_shell</text>
</a>
</g>
</g>
<!-- Node8&#45;&gt;Node30 -->
<g id="edge29" class="edge">
<title>Node8&#45;&gt;Node30</title>
<path fill="none" stroke="midnightblue" d="M275.13,-652.68C278.07,-650.65 280.74,-648.27 283,-645.5 373.74,-534.25 225.41,-433.36 319,-324.5 324.41,-318.2 331.57,-313.78 339.32,-310.7"/>
<polygon fill="midnightblue" stroke="midnightblue" points="273.36,-649.66 266.27,-657.53 276.73,-655.79 273.36,-649.66"/>
</g>
<!-- Node33 -->
<g id="node31" class="node">
<title>Node33</title>
<g id="a_node31"><a xlink:href="classKadath_1_1Domain__shell__inner__adapted.html" target="_top" xlink:title=" ">
<polygon fill="none" stroke="red" points="339.5,-245.5 339.5,-275.5 449.5,-275.5 449.5,-245.5 339.5,-245.5"/>
<text text-anchor="start" x="347.5" y="-263.5" font-family="Helvetica,sans-Serif" font-size="10.00">Kadath::Domain_shell</text>
<text text-anchor="middle" x="394.5" y="-252.5" font-family="Helvetica,sans-Serif" font-size="10.00">_inner_adapted</text>
</a>
</g>
</g>
<!-- Node8&#45;&gt;Node33 -->
<g id="edge30" class="edge">
<title>Node8&#45;&gt;Node33</title>
<path fill="none" stroke="midnightblue" d="M275.03,-652.8C278.01,-650.74 280.72,-648.33 283,-645.5 383.89,-520.29 218.72,-411.2 319,-285.5 324.36,-278.78 331.59,-273.85 339.45,-270.25"/>
<polygon fill="midnightblue" stroke="midnightblue" points="273.14,-649.85 266.03,-657.71 276.49,-655.99 273.14,-649.85"/>
</g>
<!-- Node35 -->
<g id="node32" class="node">
<title>Node35</title>
<g id="a_node32"><a xlink:href="classKadath_1_1Domain__shell__outer__adapted.html" target="_top" xlink:title=" ">
<polygon fill="none" stroke="red" points="339.5,-196.5 339.5,-226.5 449.5,-226.5 449.5,-196.5 339.5,-196.5"/>
<text text-anchor="start" x="347.5" y="-214.5" font-family="Helvetica,sans-Serif" font-size="10.00">Kadath::Domain_shell</text>
<text text-anchor="middle" x="394.5" y="-203.5" font-family="Helvetica,sans-Serif" font-size="10.00">_outer_adapted</text>
</a>
</g>
</g>
<!-- Node8&#45;&gt;Node35 -->
<g id="edge31" class="edge">
<title>Node8&#45;&gt;Node35</title>
<path fill="none" stroke="midnightblue" d="M275.07,-652.83C278.04,-650.77 280.74,-648.34 283,-645.5 339.82,-574.11 262.53,-308.16 319,-236.5 324.32,-229.75 331.53,-224.81 339.39,-221.19"/>
<polygon fill="midnightblue" stroke="midnightblue" points="273.18,-649.88 266.09,-657.75 276.54,-656.02 273.18,-649.88"/>
</g>
<!-- Node37 -->
<g id="node33" class="node">
<title>Node37</title>
<g id="a_node33"><a xlink:href="classKadath_1_1Domain__shell__symphi.html" target="_top" xlink:title=" ">
<polygon fill="none" stroke="black" points="339.5,-147.5 339.5,-177.5 449.5,-177.5 449.5,-147.5 339.5,-147.5"/>
<text text-anchor="start" x="347.5" y="-165.5" font-family="Helvetica,sans-Serif" font-size="10.00">Kadath::Domain_shell</text>
<text text-anchor="middle" x="394.5" y="-154.5" font-family="Helvetica,sans-Serif" font-size="10.00">_symphi</text>
</a>
</g>
</g>
<!-- Node8&#45;&gt;Node37 -->
<g id="edge32" class="edge">
<title>Node8&#45;&gt;Node37</title>
<path fill="none" stroke="midnightblue" d="M275.1,-652.85C278.06,-650.78 280.75,-648.35 283,-645.5 346.21,-565.33 256.19,-267.98 319,-187.5 324.29,-180.72 331.49,-175.77 339.33,-172.15"/>
<polygon fill="midnightblue" stroke="midnightblue" points="273.21,-649.9 266.13,-657.78 276.58,-656.04 273.21,-649.9"/>
</g>
<!-- Node38 -->
<g id="node34" class="node">
<title>Node38</title>
<g id="a_node34"><a xlink:href="classKadath_1_1Domain__spheric__periodic__compact.html" target="_top" xlink:title=" ">
<polygon fill="none" stroke="black" points="333.5,-98.5 333.5,-128.5 455.5,-128.5 455.5,-98.5 333.5,-98.5"/>
<text text-anchor="start" x="341.5" y="-116.5" font-family="Helvetica,sans-Serif" font-size="10.00">Kadath::Domain_spheric</text>
<text text-anchor="middle" x="394.5" y="-105.5" font-family="Helvetica,sans-Serif" font-size="10.00">_periodic_compact</text>
</a>
</g>
</g>
<!-- Node8&#45;&gt;Node38 -->
<g id="edge33" class="edge">
<title>Node8&#45;&gt;Node38</title>
<path fill="none" stroke="midnightblue" d="M275.12,-652.87C278.08,-650.8 280.76,-648.36 283,-645.5 352.59,-556.54 249.84,-227.8 319,-138.5 322.93,-133.43 327.92,-129.38 333.46,-126.14"/>
<polygon fill="midnightblue" stroke="midnightblue" points="273.23,-649.92 266.16,-657.81 276.61,-656.05 273.23,-649.92"/>
</g>
<!-- Node39 -->
<g id="node35" class="node">
<title>Node39</title>
<g id="a_node35"><a xlink:href="classKadath_1_1Domain__spheric__periodic__nucleus.html" target="_top" xlink:title=" ">
<polygon fill="none" stroke="black" points="333.5,-49.5 333.5,-79.5 455.5,-79.5 455.5,-49.5 333.5,-49.5"/>
<text text-anchor="start" x="341.5" y="-67.5" font-family="Helvetica,sans-Serif" font-size="10.00">Kadath::Domain_spheric</text>
<text text-anchor="middle" x="394.5" y="-56.5" font-family="Helvetica,sans-Serif" font-size="10.00">_periodic_nucleus</text>
</a>
</g>
</g>
<!-- Node8&#45;&gt;Node39 -->
<g id="edge34" class="edge">
<title>Node8&#45;&gt;Node39</title>
<path fill="none" stroke="midnightblue" d="M275.14,-652.89C278.1,-650.81 280.77,-648.37 283,-645.5 358.98,-547.74 243.49,-187.63 319,-89.5 322.91,-84.42 327.9,-80.36 333.43,-77.12"/>
<polygon fill="midnightblue" stroke="midnightblue" points="273.25,-649.93 266.19,-657.83 276.64,-656.06 273.25,-649.93"/>
</g>
<!-- Node40 -->
<g id="node36" class="node">
<title>Node40</title>
<g id="a_node36"><a xlink:href="classKadath_1_1Domain__spheric__periodic__shell.html" target="_top" xlink:title=" ">
<polygon fill="none" stroke="black" points="333.5,-0.5 333.5,-30.5 455.5,-30.5 455.5,-0.5 333.5,-0.5"/>
<text text-anchor="start" x="341.5" y="-18.5" font-family="Helvetica,sans-Serif" font-size="10.00">Kadath::Domain_spheric</text>
<text text-anchor="middle" x="394.5" y="-7.5" font-family="Helvetica,sans-Serif" font-size="10.00">_periodic_shell</text>
</a>
</g>
</g>
<!-- Node8&#45;&gt;Node40 -->
<g id="edge35" class="edge">
<title>Node8&#45;&gt;Node40</title>
<path fill="none" stroke="midnightblue" d="M275.16,-652.9C278.11,-650.82 280.78,-648.38 283,-645.5 365.5,-538.77 236.37,-146.14 319,-39.5 322.91,-34.45 327.9,-30.45 333.43,-27.28"/>
<polygon fill="midnightblue" stroke="midnightblue" points="273.27,-649.95 266.22,-657.85 276.66,-656.07 273.27,-649.95"/>
</g>
</g>
</svg>
