<?xml version="1.0" encoding="UTF-8" standalone="no"?>
<!DOCTYPE svg PUBLIC "-//W3C//DTD SVG 1.1//EN"
 "http://www.w3.org/Graphics/SVG/1.1/DTD/svg11.dtd">
<!-- Generated by graphviz version 2.47.1 (20210515.0534)
 -->
<!-- Title: Kadath::FUKA_Solvers::Parameter_sequence_base Pages: 1 -->
<svg width="525pt" height="99pt"
 viewBox="0.00 0.00 525.00 98.50" xmlns="http://www.w3.org/2000/svg" xmlns:xlink="http://www.w3.org/1999/xlink">
<g id="graph0" class="graph" transform="scale(1 1) rotate(0) translate(4 94.5)">
<title>Kadath::FUKA_Solvers::Parameter_sequence_base</title>
<!-- Node1 -->
<g id="node1" class="node">
<title>Node1</title>
<g id="a_node1"><a xlink:title="Base class for storing sequences for different parameters.">
<polygon fill="#bfbfbf" stroke="black" points="0,-33 0,-63 140,-63 140,-33 0,-33"/>
<text text-anchor="start" x="8" y="-51" font-family="Helvetica,sans-Serif" font-size="10.00">Kadath::FUKA_Solvers</text>
<text text-anchor="middle" x="70" y="-40" font-family="Helvetica,sans-Serif" font-size="10.00">::Parameter_sequence_base</text>
</a>
</g>
</g>
<!-- Node2 -->
<g id="node2" class="node">
<title>Node2</title>
<g id="a_node2"><a xlink:href="structKadath_1_1FUKA__Solvers_1_1Parameter__sequence.html" target="_top" xlink:title="Parameter sequence for a given set of Config indices.">
<polygon fill="none" stroke="black" points="176,-60 176,-90 317,-90 317,-60 176,-60"/>
<text text-anchor="start" x="184" y="-78" font-family="Helvetica,sans-Serif" font-size="10.00">Kadath::FUKA_Solvers</text>
<text text-anchor="middle" x="246.5" y="-67" font-family="Helvetica,sans-Serif" font-size="10.00">::Parameter_sequence&lt; Ts &gt;</text>
</a>
</g>
</g>
<!-- Node1&#45;&gt;Node2 -->
<g id="edge1" class="edge">
<title>Node1&#45;&gt;Node2</title>
<path fill="none" stroke="midnightblue" d="M150.18,-60.25C158.73,-61.57 167.37,-62.91 175.79,-64.21"/>
<polygon fill="midnightblue" stroke="midnightblue" points="150.64,-56.78 140.22,-58.71 149.56,-63.7 150.64,-56.78"/>
</g>
<!-- Node4 -->
<g id="node4" class="node">
<title>Node4</title>
<g id="a_node4"><a xlink:href="structKadath_1_1FUKA__Solvers_1_1Resolution__sequence.html" target="_top" xlink:title="Resolution sequence.">
<polygon fill="none" stroke="black" points="188,-0.5 188,-41.5 305,-41.5 305,-0.5 188,-0.5"/>
<text text-anchor="start" x="196" y="-29.5" font-family="Helvetica,sans-Serif" font-size="10.00">Kadath::FUKA_Solvers</text>
<text text-anchor="start" x="196" y="-18.5" font-family="Helvetica,sans-Serif" font-size="10.00">::Resolution_sequence</text>
<text text-anchor="middle" x="246.5" y="-7.5" font-family="Helvetica,sans-Serif" font-size="10.00">&lt; ndom, Ts &gt;</text>
</a>
</g>
</g>
<!-- Node1&#45;&gt;Node4 -->
<g id="edge3" class="edge">
<title>Node1&#45;&gt;Node4</title>
<path fill="none" stroke="midnightblue" d="M150.3,-35.73C162.96,-33.77 175.85,-31.78 187.88,-29.91"/>
<polygon fill="midnightblue" stroke="midnightblue" points="149.56,-32.3 140.22,-37.29 150.64,-39.22 149.56,-32.3"/>
</g>
<!-- Node3 -->
<g id="node3" class="node">
<title>Node3</title>
<g id="a_node3"><a xlink:href="classKadath_1_1FUKA__Solvers_1_1ns__sequence.html" target="_top" xlink:title=" ">
<polygon fill="none" stroke="black" points="353,-60 353,-90 517,-90 517,-60 353,-60"/>
<text text-anchor="start" x="361" y="-78" font-family="Helvetica,sans-Serif" font-size="10.00">Kadath::FUKA_Solvers</text>
<text text-anchor="middle" x="435" y="-67" font-family="Helvetica,sans-Serif" font-size="10.00">::ns_sequence&lt; BCO_PARAMS &gt;</text>
</a>
</g>
</g>
<!-- Node2&#45;&gt;Node3 -->
<g id="edge2" class="edge">
<title>Node2&#45;&gt;Node3</title>
<path fill="none" stroke="midnightblue" d="M327.37,-75C335.78,-75 344.33,-75 352.75,-75"/>
<polygon fill="midnightblue" stroke="midnightblue" points="327.21,-71.5 317.21,-75 327.21,-78.5 327.21,-71.5"/>
</g>
</g>
</svg>
