<?xml version="1.0" encoding="UTF-8" standalone="no"?>
<!DOCTYPE svg PUBLIC "-//W3C//DTD SVG 1.1//EN"
 "http://www.w3.org/Graphics/SVG/1.1/DTD/svg11.dtd">
<!-- Generated by graphviz version 2.47.1 (20210515.0534)
 -->
<!-- Title: Kadath::FUKA_Solvers::NS_XCTS_BASE Pages: 1 -->
<svg width="321pt" height="148pt"
 viewBox="0.00 0.00 321.00 147.50" xmlns="http://www.w3.org/2000/svg" xmlns:xlink="http://www.w3.org/1999/xlink">
<g id="graph0" class="graph" transform="scale(1 1) rotate(0) translate(4 143.5)">
<title>Kadath::FUKA_Solvers::NS_XCTS_BASE</title>
<!-- Node1 -->
<g id="node1" class="node">
<title>Node1</title>
<g id="a_node1"><a xlink:title=" ">
<polygon fill="#bfbfbf" stroke="black" points="0,-60 0,-90 117,-90 117,-60 0,-60"/>
<text text-anchor="start" x="8" y="-78" font-family="Helvetica,sans-Serif" font-size="10.00">Kadath::FUKA_Solvers</text>
<text text-anchor="middle" x="58.5" y="-67" font-family="Helvetica,sans-Serif" font-size="10.00">::NS_XCTS_BASE</text>
</a>
</g>
</g>
<!-- Node2 -->
<g id="node2" class="node">
<title>Node2</title>
<g id="a_node2"><a xlink:href="structKadath_1_1FUKA__Solvers_1_1NS__XCTS__DIFF__ROT.html" target="_top" xlink:title=" ">
<polygon fill="none" stroke="black" points="153,-109 153,-139 313,-139 313,-109 153,-109"/>
<text text-anchor="start" x="161" y="-127" font-family="Helvetica,sans-Serif" font-size="10.00">Kadath::FUKA_Solvers</text>
<text text-anchor="middle" x="233" y="-116" font-family="Helvetica,sans-Serif" font-size="10.00">::NS_XCTS_DIFF_ROT&lt; eos_t &gt;</text>
</a>
</g>
</g>
<!-- Node1&#45;&gt;Node2 -->
<g id="edge1" class="edge">
<title>Node1&#45;&gt;Node2</title>
<path fill="none" stroke="midnightblue" d="M122.49,-92.89C141.05,-98.16 161.15,-103.88 179.01,-108.95"/>
<polygon fill="midnightblue" stroke="midnightblue" points="123.24,-89.47 112.66,-90.1 121.33,-96.2 123.24,-89.47"/>
</g>
<!-- Node3 -->
<g id="node3" class="node">
<title>Node3</title>
<g id="a_node3"><a xlink:href="structKadath_1_1FUKA__Solvers_1_1NS__XCTS__NOROT.html" target="_top" xlink:title=" ">
<polygon fill="none" stroke="black" points="159,-60 159,-90 307,-90 307,-60 159,-60"/>
<text text-anchor="start" x="167" y="-78" font-family="Helvetica,sans-Serif" font-size="10.00">Kadath::FUKA_Solvers</text>
<text text-anchor="middle" x="233" y="-67" font-family="Helvetica,sans-Serif" font-size="10.00">::NS_XCTS_NOROT&lt; eos_t &gt;</text>
</a>
</g>
</g>
<!-- Node1&#45;&gt;Node3 -->
<g id="edge2" class="edge">
<title>Node1&#45;&gt;Node3</title>
<path fill="none" stroke="midnightblue" d="M127.57,-75C137.86,-75 148.52,-75 158.91,-75"/>
<polygon fill="midnightblue" stroke="midnightblue" points="127.42,-71.5 117.42,-75 127.42,-78.5 127.42,-71.5"/>
</g>
<!-- Node4 -->
<g id="node4" class="node">
<title>Node4</title>
<g id="a_node4"><a xlink:href="structKadath_1_1FUKA__Solvers_1_1NS__XCTS__UNIFORM__ROT.html" target="_top" xlink:title=" ">
<polygon fill="none" stroke="black" points="161,-0.5 161,-41.5 305,-41.5 305,-0.5 161,-0.5"/>
<text text-anchor="start" x="169" y="-29.5" font-family="Helvetica,sans-Serif" font-size="10.00">Kadath::FUKA_Solvers</text>
<text text-anchor="start" x="169" y="-18.5" font-family="Helvetica,sans-Serif" font-size="10.00">::NS_XCTS_UNIFORM_ROT</text>
<text text-anchor="middle" x="233" y="-7.5" font-family="Helvetica,sans-Serif" font-size="10.00">&lt; eos_t &gt;</text>
</a>
</g>
</g>
<!-- Node1&#45;&gt;Node4 -->
<g id="edge3" class="edge">
<title>Node1&#45;&gt;Node4</title>
<path fill="none" stroke="midnightblue" d="M117.19,-56.94C133,-51.99 150.26,-46.59 166.48,-41.51"/>
<polygon fill="midnightblue" stroke="midnightblue" points="116.05,-53.63 107.55,-59.96 118.14,-60.31 116.05,-53.63"/>
</g>
</g>
</svg>
