<?xml version="1.0" encoding="UTF-8" standalone="no"?>
<!DOCTYPE svg PUBLIC "-//W3C//DTD SVG 1.1//EN"
 "http://www.w3.org/Graphics/SVG/1.1/DTD/svg11.dtd">
<!-- Generated by graphviz version 2.47.1 (20210515.0534)
 -->
<!-- Title: Kadath::FUKA_Solvers::Parameter_sequence&lt; Ts &gt; Pages: 1 -->
<svg width="172pt" height="173pt"
 viewBox="0.00 0.00 172.00 173.00" xmlns="http://www.w3.org/2000/svg" xmlns:xlink="http://www.w3.org/1999/xlink">
<g id="graph0" class="graph" transform="scale(1 1) rotate(0) translate(4 169)">
<title>Kadath::FUKA_Solvers::Parameter_sequence&lt; Ts &gt;</title>
<!-- Node1 -->
<g id="node1" class="node">
<title>Node1</title>
<g id="a_node1"><a xlink:title="Parameter sequence for a given set of Config indices.">
<polygon fill="#bfbfbf" stroke="black" points="11.5,-67.5 11.5,-97.5 152.5,-97.5 152.5,-67.5 11.5,-67.5"/>
<text text-anchor="start" x="19.5" y="-85.5" font-family="Helvetica,sans-Serif" font-size="10.00">Kadath::FUKA_Solvers</text>
<text text-anchor="middle" x="82" y="-74.5" font-family="Helvetica,sans-Serif" font-size="10.00">::Parameter_sequence&lt; Ts &gt;</text>
</a>
</g>
</g>
<!-- Node3 -->
<g id="node3" class="node">
<title>Node3</title>
<g id="a_node3"><a xlink:href="classKadath_1_1FUKA__Solvers_1_1ns__sequence.html" target="_top" xlink:title=" ">
<polygon fill="none" stroke="black" points="0,-0.5 0,-30.5 164,-30.5 164,-0.5 0,-0.5"/>
<text text-anchor="start" x="8" y="-18.5" font-family="Helvetica,sans-Serif" font-size="10.00">Kadath::FUKA_Solvers</text>
<text text-anchor="middle" x="82" y="-7.5" font-family="Helvetica,sans-Serif" font-size="10.00">::ns_sequence&lt; BCO_PARAMS &gt;</text>
</a>
</g>
</g>
<!-- Node1&#45;&gt;Node3 -->
<g id="edge2" class="edge">
<title>Node1&#45;&gt;Node3</title>
<path fill="none" stroke="midnightblue" d="M82,-57.11C82,-48.15 82,-38.32 82,-30.58"/>
<polygon fill="midnightblue" stroke="midnightblue" points="78.5,-57.4 82,-67.4 85.5,-57.4 78.5,-57.4"/>
</g>
<!-- Node2 -->
<g id="node2" class="node">
<title>Node2</title>
<g id="a_node2"><a xlink:href="structKadath_1_1FUKA__Solvers_1_1Parameter__sequence__base.html" target="_top" xlink:title="Base class for storing sequences for different parameters.">
<polygon fill="none" stroke="black" points="12,-134.5 12,-164.5 152,-164.5 152,-134.5 12,-134.5"/>
<text text-anchor="start" x="20" y="-152.5" font-family="Helvetica,sans-Serif" font-size="10.00">Kadath::FUKA_Solvers</text>
<text text-anchor="middle" x="82" y="-141.5" font-family="Helvetica,sans-Serif" font-size="10.00">::Parameter_sequence_base</text>
</a>
</g>
</g>
<!-- Node2&#45;&gt;Node1 -->
<g id="edge1" class="edge">
<title>Node2&#45;&gt;Node1</title>
<path fill="none" stroke="midnightblue" d="M82,-124.11C82,-115.15 82,-105.32 82,-97.58"/>
<polygon fill="midnightblue" stroke="midnightblue" points="78.5,-124.4 82,-134.4 85.5,-124.4 78.5,-124.4"/>
</g>
</g>
</svg>
